<svg xmlns="http://www.w3.org/2000/svg" xmlns:xlink="http://www.w3.org/1999/xlink" width="399.764" height="224.491" viewBox="0 0 399.764 224.491">
  <defs>
    <clipPath id="clip-path">
      <rect id="Rectángulo_405562" data-name="Rectángulo 405562" width="325.91" height="219.87" fill="none"/>
    </clipPath>
    <clipPath id="clip-path-3">
      <rect id="Rectángulo_405495" data-name="Rectángulo 405495" width="54.318" height="36.351" fill="none"/>
    </clipPath>
    <clipPath id="clip-path-5">
      <rect id="Rectángulo_405497" data-name="Rectángulo 405497" width="38.407" height="25.771" fill="none"/>
    </clipPath>
    <clipPath id="clip-path-6">
      <rect id="Rectángulo_405498" data-name="Rectángulo 405498" width="26.74" height="17.992" fill="none"/>
    </clipPath>
  </defs>
  <g id="Grupo_1102303" data-name="Grupo 1102303" transform="translate(-1020 -399)">
    <rect id="Rectángulo_35205" data-name="Rectángulo 35205" width="399.764" height="224.491" transform="translate(1020 399)" fill="#e6fbee"/>
    <g id="Grupo_1102302" data-name="Grupo 1102302" transform="translate(1057 401)">
      <g id="Grupo_1102301" data-name="Grupo 1102301" clip-path="url(#clip-path)">
        <g id="Grupo_1102278" data-name="Grupo 1102278">
          <g id="Grupo_1102277" data-name="Grupo 1102277" clip-path="url(#clip-path)">
            <g id="Grupo_1102276" data-name="Grupo 1102276" transform="translate(271.283 81.789)" opacity="0.3">
              <g id="Grupo_1102275" data-name="Grupo 1102275">
                <g id="Grupo_1102274" data-name="Grupo 1102274" clip-path="url(#clip-path-3)">
                  <path id="Trazado_880347" data-name="Trazado 880347" d="M591.919,190.211v-5.094l5.088-.566a12.13,12.13,0,0,1,1.248-3.032l-3.213-4.018,3.6-3.6,4,3.2a12.122,12.122,0,0,1,3.023-1.267l.568-5.111h5.094l.566,5.087a12.133,12.133,0,0,1,3.032,1.248l4.018-3.213,3.6,3.6-3.2,4a12.141,12.141,0,0,1,1.266,3.023l5.111.568v5.095l-5.088.565a12.136,12.136,0,0,1-1.248,3.032l3.213,4.018-3.6,3.6-4-3.2a12.121,12.121,0,0,1-3.023,1.266l-.568,5.111h-5.094l-.566-5.088a12.113,12.113,0,0,1-3.032-1.247l-4.018,3.213-3.6-3.6,3.2-4a12.133,12.133,0,0,1-1.266-3.023Zm16.9,3.493a6.08,6.08,0,1,0-6.08-6.08A6.08,6.08,0,0,0,608.822,193.7Z" transform="translate(-571.654 -168.422)" fill="none" stroke="#000" stroke-linecap="round" stroke-linejoin="round" stroke-width="1"/>
                  <path id="Trazado_880348" data-name="Trazado 880348" d="M551.275,177.87l.564-3.373,3.431.189a8.153,8.153,0,0,1,1.161-1.869L554.75,169.8l2.784-1.986,2.294,2.562a8.141,8.141,0,0,1,2.142-.5l.943-3.321,3.373.564-.189,3.431a8.16,8.16,0,0,1,1.869,1.162l3.016-1.682,1.985,2.784-2.561,2.294a8.16,8.16,0,0,1,.5,2.142l3.321.943-.565,3.373-3.431-.189a8.125,8.125,0,0,1-1.162,1.869l1.682,3.016-2.784,1.985-2.294-2.561a8.152,8.152,0,0,1-2.142.5l-.943,3.321-3.373-.565.189-3.431a8.149,8.149,0,0,1-1.869-1.162l-3.016,1.683-1.986-2.784,2.561-2.294a8.152,8.152,0,0,1-.5-2.142Zm10.8,4.185a4.081,4.081,0,1,0-3.351-4.7A4.081,4.081,0,0,0,562.078,182.055Z" transform="translate(-551.029 -166.307)" fill="none" stroke="#000" stroke-linecap="round" stroke-linejoin="round" stroke-width="1"/>
                </g>
              </g>
            </g>
          </g>
        </g>
        <g id="Grupo_1102286" data-name="Grupo 1102286">
          <g id="Grupo_1102285" data-name="Grupo 1102285" clip-path="url(#clip-path)">
            <g id="Grupo_1102281" data-name="Grupo 1102281" transform="translate(287.502 25.089)" opacity="0.3">
              <g id="Grupo_1102280" data-name="Grupo 1102280">
                <g id="Grupo_1102279" data-name="Grupo 1102279" clip-path="url(#clip-path-5)">
                  <path id="Trazado_880349" data-name="Trazado 880349" d="M615.644,63.218a6.436,6.436,0,0,0-3.23.868,8.915,8.915,0,0,0-17.545-3.17,7.88,7.88,0,1,0-2.781,15.252h23.556a6.476,6.476,0,1,0,0-12.951Z" transform="translate(-583.958 -52.312)" fill="none" stroke="#000" stroke-linecap="round" stroke-linejoin="round" stroke-width="1"/>
                  <line id="Línea_3817" data-name="Línea 3817" x2="1.97" transform="translate(27.525 25.524)" fill="none" stroke="#000" stroke-linecap="round" stroke-linejoin="round" stroke-width="1"/>
                  <line id="Línea_3818" data-name="Línea 3818" x2="6.896" transform="translate(17.921 25.524)" fill="none" stroke="#000" stroke-linecap="round" stroke-linejoin="round" stroke-width="1"/>
                  <path id="Trazado_880350" data-name="Trazado 880350" d="M606.853,52.924a6.393,6.393,0,0,1,3.565-1.486" transform="translate(-595.452 -51.192)" fill="none" stroke="#000" stroke-linecap="round" stroke-linejoin="round" stroke-width="1"/>
                  <path id="Trazado_880351" data-name="Trazado 880351" d="M602.089,59.538a5.856,5.856,0,0,1,.967-2.155" transform="translate(-593.034 -54.209)" fill="none" stroke="#000" stroke-linecap="round" stroke-linejoin="round" stroke-width="1"/>
                </g>
              </g>
            </g>
            <g id="Grupo_1102284" data-name="Grupo 1102284" transform="translate(245.269)" opacity="0.3">
              <g id="Grupo_1102283" data-name="Grupo 1102283">
                <g id="Grupo_1102282" data-name="Grupo 1102282" clip-path="url(#clip-path-6)">
                  <path id="Trazado_880352" data-name="Trazado 880352" d="M520.226,8.656a4.455,4.455,0,0,0-2.236.6,6.171,6.171,0,0,0-12.146-2.194,5.455,5.455,0,1,0-1.926,10.559h16.307a4.483,4.483,0,0,0,0-8.966Z" transform="translate(-498.215 -1.03)" fill="none" stroke="#000" stroke-linecap="round" stroke-linejoin="round" stroke-width="1"/>
                  <line id="Línea_3819" data-name="Línea 3819" x2="1.364" transform="translate(19.131 17.746)" fill="none" stroke="#000" stroke-linecap="round" stroke-linejoin="round" stroke-width="1"/>
                  <line id="Línea_3820" data-name="Línea 3820" x2="4.774" transform="translate(12.482 17.746)" fill="none" stroke="#000" stroke-linecap="round" stroke-linejoin="round" stroke-width="1"/>
                  <path id="Trazado_880353" data-name="Trazado 880353" d="M514.14,1.528A4.428,4.428,0,0,1,516.608.5" transform="translate(-506.171 -0.254)" fill="none" stroke="#000" stroke-linecap="round" stroke-linejoin="round" stroke-width="1"/>
                  <path id="Trazado_880354" data-name="Trazado 880354" d="M510.842,6.108a4.051,4.051,0,0,1,.669-1.492" transform="translate(-504.498 -2.342)" fill="none" stroke="#000" stroke-linecap="round" stroke-linejoin="round" stroke-width="1"/>
                </g>
              </g>
            </g>
          </g>
        </g>
        <g id="Grupo_1102288" data-name="Grupo 1102288">
          <g id="Grupo_1102287" data-name="Grupo 1102287" clip-path="url(#clip-path)">
            <path id="Trazado_880355" data-name="Trazado 880355" d="M459.657,147.841h17a9.525,9.525,0,0,1,9.525,9.524v59.62" transform="translate(-233.254 -75.022)" fill="none" stroke="#263238" stroke-miterlimit="10" stroke-width="1" stroke-dasharray="4 4"/>
            <path id="Trazado_880356" data-name="Trazado 880356" d="M289.5,31.725V26.187a9.524,9.524,0,0,0-9.524-9.524h-99.5a6.814,6.814,0,0,0-6.814,6.814" transform="translate(-88.126 -8.456)" fill="none" stroke="#263238" stroke-miterlimit="10" stroke-width="1" stroke-dasharray="4 4"/>
          </g>
        </g>
        <rect id="Rectángulo_405501" data-name="Rectángulo 405501" width="2.34" height="6.185" transform="translate(290.027 138.696)" fill="#263238"/>
        <rect id="Rectángulo_405502" data-name="Rectángulo 405502" width="2.34" height="6.185" transform="translate(290.027 138.696)" fill="none" stroke="#263238" stroke-miterlimit="10" stroke-width="1"/>
        <rect id="Rectángulo_405503" data-name="Rectángulo 405503" width="2.34" height="6.185" transform="translate(290.027 175.193)" fill="#263238"/>
        <rect id="Rectángulo_405504" data-name="Rectángulo 405504" width="2.34" height="6.185" transform="translate(290.027 175.193)" fill="none" stroke="#263238" stroke-miterlimit="10" stroke-width="1"/>
        <rect id="Rectángulo_405505" data-name="Rectángulo 405505" width="2.34" height="6.185" transform="translate(227.095 102.902)" fill="#263238"/>
        <rect id="Rectángulo_405506" data-name="Rectángulo 405506" width="2.34" height="6.185" transform="translate(227.095 102.902)" fill="none" stroke="#263238" stroke-miterlimit="10" stroke-width="1"/>
        <rect id="Rectángulo_405507" data-name="Rectángulo 405507" width="2.34" height="6.185" transform="translate(227.095 157.178)" fill="#263238"/>
        <rect id="Rectángulo_405508" data-name="Rectángulo 405508" width="2.34" height="6.185" transform="translate(227.095 157.178)" fill="none" stroke="#263238" stroke-miterlimit="10" stroke-width="1"/>
        <rect id="Rectángulo_405509" data-name="Rectángulo 405509" width="61.582" height="13.339" transform="translate(229.213 99.48)" fill="#fff"/>
        <rect id="Rectángulo_405510" data-name="Rectángulo 405510" width="61.582" height="13.339" transform="translate(229.213 99.48)" fill="none" stroke="#263238" stroke-miterlimit="10" stroke-width="1"/>
        <rect id="Rectángulo_405511" data-name="Rectángulo 405511" width="42.442" height="6.533" transform="translate(232.174 102.883)" fill="#13de61"/>
        <rect id="Rectángulo_405512" data-name="Rectángulo 405512" width="42.442" height="6.533" transform="translate(232.174 102.883)" fill="none" stroke="#263238" stroke-miterlimit="10" stroke-width="1"/>
        <g id="Grupo_1102290" data-name="Grupo 1102290">
          <g id="Grupo_1102289" data-name="Grupo 1102289" clip-path="url(#clip-path)">
            <path id="Trazado_880357" data-name="Trazado 880357" d="M569.166,213.238a1.646,1.646,0,1,0-1.646,1.646,1.646,1.646,0,0,0,1.646-1.646" transform="translate(-287.154 -107.373)" fill="#fff"/>
            <path id="Trazado_880358" data-name="Trazado 880358" d="M569.166,213.238a1.646,1.646,0,1,0-1.646,1.646A1.646,1.646,0,0,0,569.166,213.238Z" transform="translate(-287.154 -107.373)" fill="none" stroke="#263238" stroke-miterlimit="10" stroke-width="1"/>
            <path id="Trazado_880359" data-name="Trazado 880359" d="M582.254,213.238a1.646,1.646,0,1,0-1.646,1.646,1.646,1.646,0,0,0,1.646-1.646" transform="translate(-293.796 -107.373)" fill="#13de61"/>
            <path id="Trazado_880360" data-name="Trazado 880360" d="M582.254,213.238a1.646,1.646,0,1,0-1.646,1.646A1.646,1.646,0,0,0,582.254,213.238Z" transform="translate(-293.796 -107.373)" fill="none" stroke="#263238" stroke-miterlimit="10" stroke-width="1"/>
            <path id="Trazado_880361" data-name="Trazado 880361" d="M549.673,213.238a1.646,1.646,0,1,0-1.646,1.646,1.646,1.646,0,0,0,1.646-1.646" transform="translate(-277.263 -107.373)" fill="#fff"/>
            <path id="Trazado_880362" data-name="Trazado 880362" d="M549.673,213.238a1.646,1.646,0,1,0-1.646,1.646A1.646,1.646,0,0,0,549.673,213.238Z" transform="translate(-277.263 -107.373)" fill="none" stroke="#263238" stroke-miterlimit="10" stroke-width="1"/>
            <rect id="Rectángulo_405513" data-name="Rectángulo 405513" width="56.908" height="4.568" transform="translate(231.55 112.819)" fill="#263238"/>
            <rect id="Rectángulo_405514" data-name="Rectángulo 405514" width="56.908" height="4.568" transform="translate(231.55 112.819)" fill="none" stroke="#263238" stroke-miterlimit="10" stroke-width="1"/>
            <rect id="Rectángulo_405515" data-name="Rectángulo 405515" width="61.582" height="13.339" transform="translate(229.213 117.387)" fill="#fff"/>
            <rect id="Rectángulo_405516" data-name="Rectángulo 405516" width="61.582" height="13.339" transform="translate(229.213 117.387)" fill="none" stroke="#263238" stroke-miterlimit="10" stroke-width="1"/>
            <rect id="Rectángulo_405517" data-name="Rectángulo 405517" width="42.442" height="6.533" transform="translate(232.174 120.79)" fill="#13de61"/>
            <rect id="Rectángulo_405518" data-name="Rectángulo 405518" width="42.442" height="6.533" transform="translate(232.174 120.79)" fill="none" stroke="#263238" stroke-miterlimit="10" stroke-width="1"/>
            <path id="Trazado_880363" data-name="Trazado 880363" d="M569.166,249.593a1.646,1.646,0,1,0-1.646,1.646,1.646,1.646,0,0,0,1.646-1.646" transform="translate(-287.154 -125.821)" fill="#13de61"/>
            <path id="Trazado_880364" data-name="Trazado 880364" d="M569.166,249.593a1.646,1.646,0,1,0-1.646,1.646A1.646,1.646,0,0,0,569.166,249.593Z" transform="translate(-287.154 -125.821)" fill="none" stroke="#263238" stroke-miterlimit="10" stroke-width="1"/>
            <path id="Trazado_880365" data-name="Trazado 880365" d="M582.254,249.593a1.646,1.646,0,1,0-1.646,1.646,1.646,1.646,0,0,0,1.646-1.646" transform="translate(-293.796 -125.821)" fill="#fff"/>
            <path id="Trazado_880366" data-name="Trazado 880366" d="M582.254,249.593a1.646,1.646,0,1,0-1.646,1.646A1.646,1.646,0,0,0,582.254,249.593Z" transform="translate(-293.796 -125.821)" fill="none" stroke="#263238" stroke-miterlimit="10" stroke-width="1"/>
            <path id="Trazado_880367" data-name="Trazado 880367" d="M549.673,249.593a1.646,1.646,0,1,0-1.646,1.646,1.646,1.646,0,0,0,1.646-1.646" transform="translate(-277.263 -125.821)" fill="#fff"/>
            <path id="Trazado_880368" data-name="Trazado 880368" d="M549.673,249.593a1.646,1.646,0,1,0-1.646,1.646A1.646,1.646,0,0,0,549.673,249.593Z" transform="translate(-277.263 -125.821)" fill="none" stroke="#263238" stroke-miterlimit="10" stroke-width="1"/>
            <rect id="Rectángulo_405519" data-name="Rectángulo 405519" width="56.908" height="4.568" transform="translate(231.55 130.725)" fill="#263238"/>
            <rect id="Rectángulo_405520" data-name="Rectángulo 405520" width="56.908" height="4.568" transform="translate(231.55 130.725)" fill="none" stroke="#263238" stroke-miterlimit="10" stroke-width="1"/>
            <rect id="Rectángulo_405521" data-name="Rectángulo 405521" width="61.582" height="13.339" transform="translate(229.213 135.293)" fill="#fff"/>
            <rect id="Rectángulo_405522" data-name="Rectángulo 405522" width="61.582" height="13.339" transform="translate(229.213 135.293)" fill="none" stroke="#263238" stroke-miterlimit="10" stroke-width="1"/>
            <rect id="Rectángulo_405523" data-name="Rectángulo 405523" width="42.442" height="6.533" transform="translate(232.174 138.696)" fill="#13de61"/>
            <rect id="Rectángulo_405524" data-name="Rectángulo 405524" width="42.442" height="6.533" transform="translate(232.174 138.696)" fill="none" stroke="#263238" stroke-miterlimit="10" stroke-width="1"/>
            <path id="Trazado_880369" data-name="Trazado 880369" d="M569.166,285.948a1.646,1.646,0,1,0-1.646,1.646,1.646,1.646,0,0,0,1.646-1.646" transform="translate(-287.154 -144.27)" fill="#fff"/>
            <path id="Trazado_880370" data-name="Trazado 880370" d="M569.166,285.948a1.646,1.646,0,1,0-1.646,1.646A1.646,1.646,0,0,0,569.166,285.948Z" transform="translate(-287.154 -144.27)" fill="none" stroke="#263238" stroke-miterlimit="10" stroke-width="1"/>
            <path id="Trazado_880371" data-name="Trazado 880371" d="M582.254,285.948a1.646,1.646,0,1,0-1.646,1.646,1.646,1.646,0,0,0,1.646-1.646" transform="translate(-293.796 -144.27)" fill="#13de61"/>
            <path id="Trazado_880372" data-name="Trazado 880372" d="M582.254,285.948a1.646,1.646,0,1,0-1.646,1.646A1.646,1.646,0,0,0,582.254,285.948Z" transform="translate(-293.796 -144.27)" fill="none" stroke="#263238" stroke-miterlimit="10" stroke-width="1"/>
            <path id="Trazado_880373" data-name="Trazado 880373" d="M549.673,285.948a1.646,1.646,0,1,0-1.646,1.646,1.646,1.646,0,0,0,1.646-1.646" transform="translate(-277.263 -144.27)" fill="#fff"/>
            <path id="Trazado_880374" data-name="Trazado 880374" d="M549.673,285.948a1.646,1.646,0,1,0-1.646,1.646A1.646,1.646,0,0,0,549.673,285.948Z" transform="translate(-277.263 -144.27)" fill="none" stroke="#263238" stroke-miterlimit="10" stroke-width="1"/>
            <rect id="Rectángulo_405525" data-name="Rectángulo 405525" width="56.908" height="4.568" transform="translate(231.55 148.632)" fill="#263238"/>
            <rect id="Rectángulo_405526" data-name="Rectángulo 405526" width="56.908" height="4.568" transform="translate(231.55 148.632)" fill="none" stroke="#263238" stroke-miterlimit="10" stroke-width="1"/>
            <rect id="Rectángulo_405527" data-name="Rectángulo 405527" width="61.582" height="13.339" transform="translate(229.213 153.2)" fill="#fff"/>
            <rect id="Rectángulo_405528" data-name="Rectángulo 405528" width="61.582" height="13.339" transform="translate(229.213 153.2)" fill="none" stroke="#263238" stroke-miterlimit="10" stroke-width="1"/>
            <rect id="Rectángulo_405529" data-name="Rectángulo 405529" width="42.442" height="6.533" transform="translate(232.174 156.603)" fill="#13de61"/>
            <rect id="Rectángulo_405530" data-name="Rectángulo 405530" width="42.442" height="6.533" transform="translate(232.174 156.603)" fill="none" stroke="#263238" stroke-miterlimit="10" stroke-width="1"/>
            <path id="Trazado_880375" data-name="Trazado 880375" d="M569.166,322.3a1.646,1.646,0,1,0-1.646,1.646,1.646,1.646,0,0,0,1.646-1.646" transform="translate(-287.154 -162.718)" fill="#13de61"/>
            <path id="Trazado_880376" data-name="Trazado 880376" d="M569.166,322.3a1.646,1.646,0,1,0-1.646,1.646A1.646,1.646,0,0,0,569.166,322.3Z" transform="translate(-287.154 -162.718)" fill="none" stroke="#263238" stroke-miterlimit="10" stroke-width="1"/>
            <path id="Trazado_880377" data-name="Trazado 880377" d="M582.254,322.3a1.646,1.646,0,1,0-1.646,1.646,1.646,1.646,0,0,0,1.646-1.646" transform="translate(-293.796 -162.718)" fill="#fff"/>
            <path id="Trazado_880378" data-name="Trazado 880378" d="M582.254,322.3a1.646,1.646,0,1,0-1.646,1.646A1.646,1.646,0,0,0,582.254,322.3Z" transform="translate(-293.796 -162.718)" fill="none" stroke="#263238" stroke-miterlimit="10" stroke-width="1"/>
            <path id="Trazado_880379" data-name="Trazado 880379" d="M549.673,322.3a1.646,1.646,0,1,0-1.646,1.646,1.646,1.646,0,0,0,1.646-1.646" transform="translate(-277.263 -162.718)" fill="#fff"/>
            <path id="Trazado_880380" data-name="Trazado 880380" d="M549.673,322.3a1.646,1.646,0,1,0-1.646,1.646A1.646,1.646,0,0,0,549.673,322.3Z" transform="translate(-277.263 -162.718)" fill="none" stroke="#263238" stroke-miterlimit="10" stroke-width="1"/>
            <rect id="Rectángulo_405531" data-name="Rectángulo 405531" width="56.908" height="4.568" transform="translate(231.55 166.539)" fill="#263238"/>
            <rect id="Rectángulo_405532" data-name="Rectángulo 405532" width="56.908" height="4.568" transform="translate(231.55 166.539)" fill="none" stroke="#263238" stroke-miterlimit="10" stroke-width="1"/>
            <rect id="Rectángulo_405533" data-name="Rectángulo 405533" width="61.582" height="13.339" transform="translate(229.213 171.106)" fill="#fff"/>
            <rect id="Rectángulo_405534" data-name="Rectángulo 405534" width="61.582" height="13.339" transform="translate(229.213 171.106)" fill="none" stroke="#263238" stroke-miterlimit="10" stroke-width="1"/>
            <rect id="Rectángulo_405535" data-name="Rectángulo 405535" width="42.442" height="6.533" transform="translate(232.174 174.509)" fill="#13de61"/>
            <rect id="Rectángulo_405536" data-name="Rectángulo 405536" width="42.442" height="6.533" transform="translate(232.174 174.509)" fill="none" stroke="#263238" stroke-miterlimit="10" stroke-width="1"/>
            <path id="Trazado_880381" data-name="Trazado 880381" d="M569.166,358.658a1.646,1.646,0,1,0-1.646,1.646,1.646,1.646,0,0,0,1.646-1.646" transform="translate(-287.154 -181.167)" fill="#fff"/>
            <path id="Trazado_880382" data-name="Trazado 880382" d="M569.166,358.658a1.646,1.646,0,1,0-1.646,1.646A1.646,1.646,0,0,0,569.166,358.658Z" transform="translate(-287.154 -181.167)" fill="none" stroke="#263238" stroke-miterlimit="10" stroke-width="1"/>
            <path id="Trazado_880383" data-name="Trazado 880383" d="M582.254,358.658a1.646,1.646,0,1,0-1.646,1.646,1.646,1.646,0,0,0,1.646-1.646" transform="translate(-293.796 -181.167)" fill="#13de61"/>
            <path id="Trazado_880384" data-name="Trazado 880384" d="M582.254,358.658a1.646,1.646,0,1,0-1.646,1.646A1.646,1.646,0,0,0,582.254,358.658Z" transform="translate(-293.796 -181.167)" fill="none" stroke="#263238" stroke-miterlimit="10" stroke-width="1"/>
            <path id="Trazado_880385" data-name="Trazado 880385" d="M549.673,358.658a1.646,1.646,0,1,0-1.646,1.646,1.646,1.646,0,0,0,1.646-1.646" transform="translate(-277.263 -181.167)" fill="#fff"/>
            <path id="Trazado_880386" data-name="Trazado 880386" d="M549.673,358.658a1.646,1.646,0,1,0-1.646,1.646A1.646,1.646,0,0,0,549.673,358.658Z" transform="translate(-277.263 -181.167)" fill="none" stroke="#263238" stroke-miterlimit="10" stroke-width="1"/>
            <line id="Línea_3821" data-name="Línea 3821" x2="3.448" transform="translate(264.105 97.688)" fill="none" stroke="#263238" stroke-linecap="round" stroke-linejoin="round" stroke-width="1"/>
            <line id="Línea_3822" data-name="Línea 3822" x2="19.948" transform="translate(240.216 97.688)" fill="none" stroke="#263238" stroke-linecap="round" stroke-linejoin="round" stroke-width="1"/>
            <line id="Línea_3823" data-name="Línea 3823" y2="2.463" transform="translate(226.671 178.712)" fill="none" stroke="#263238" stroke-linecap="round" stroke-linejoin="round" stroke-width="1"/>
            <line id="Línea_3824" data-name="Línea 3824" y2="5.172" transform="translate(226.671 171.077)" fill="none" stroke="#263238" stroke-linecap="round" stroke-linejoin="round" stroke-width="1"/>
          </g>
        </g>
        <rect id="Rectángulo_405538" data-name="Rectángulo 405538" width="123.732" height="166.362" transform="translate(114.805 21.514)" fill="#a3a3a3"/>
        <rect id="Rectángulo_405539" data-name="Rectángulo 405539" width="123.732" height="166.362" transform="translate(114.805 21.514)" fill="none" stroke="#263238" stroke-miterlimit="10" stroke-width="1"/>
        <rect id="Rectángulo_405540" data-name="Rectángulo 405540" width="123.732" height="166.362" transform="translate(110.951 21.514)" fill="#263238"/>
        <rect id="Rectángulo_405541" data-name="Rectángulo 405541" width="123.732" height="166.362" transform="translate(110.951 21.514)" fill="none" stroke="#263238" stroke-miterlimit="10" stroke-width="1"/>
        <g id="Grupo_1102292" data-name="Grupo 1102292">
          <g id="Grupo_1102291" data-name="Grupo 1102291" clip-path="url(#clip-path)">
            <path id="Trazado_880387" data-name="Trazado 880387" d="M344.034,94.493H342.18a.457.457,0,1,1,0-.915h1.854a.457.457,0,1,1,0,.915m.458,1.662a.457.457,0,0,0-.458-.458H342.18a.457.457,0,1,0,0,.915h1.854a.457.457,0,0,0,.458-.457m0,2.119a.457.457,0,0,0-.458-.458H342.18a.457.457,0,1,0,0,.915h1.854a.457.457,0,0,0,.458-.457m0,2.119a.457.457,0,0,0-.458-.458H342.18a.457.457,0,1,0,0,.915h1.854a.457.457,0,0,0,.458-.457m0,2.119a.457.457,0,0,0-.458-.458H342.18a.458.458,0,1,0,0,.915h1.854a.457.457,0,0,0,.458-.458m0,2.12a.457.457,0,0,0-.458-.458H342.18a.457.457,0,1,0,0,.915h1.854a.457.457,0,0,0,.458-.457m0,2.119a.457.457,0,0,0-.458-.458H342.18a.458.458,0,1,0,0,.915h1.854a.457.457,0,0,0,.458-.458m0,2.119a.457.457,0,0,0-.458-.458H342.18a.458.458,0,1,0,0,.915h1.854a.457.457,0,0,0,.458-.458m6.938-14.837a.457.457,0,0,0-.457-.458H346.1a.457.457,0,1,0,0,.915h4.868a.457.457,0,0,0,.457-.457m0,2.119a.457.457,0,0,0-.457-.458H346.1a.457.457,0,1,0,0,.915h4.868a.457.457,0,0,0,.457-.457m0,2.119a.457.457,0,0,0-.457-.458H346.1a.457.457,0,1,0,0,.915h4.868a.457.457,0,0,0,.457-.457m0,2.119a.457.457,0,0,0-.457-.458H346.1a.457.457,0,1,0,0,.915h4.868a.457.457,0,0,0,.457-.457m0,2.119a.457.457,0,0,0-.457-.458H346.1a.458.458,0,0,0,0,.915h4.868a.457.457,0,0,0,.457-.458m5.829,2.12a.457.457,0,0,0-.458-.458h-4.868a.457.457,0,1,0,0,.915H356.8a.457.457,0,0,0,.458-.457m0,2.119a.457.457,0,0,0-.458-.458h-4.868a.458.458,0,1,0,0,.915H356.8a.457.457,0,0,0,.458-.458m0,2.119a.457.457,0,0,0-.458-.458h-4.868a.458.458,0,1,0,0,.915H356.8a.457.457,0,0,0,.458-.458m-3.686-14.837a.53.53,0,1,0-.53.529.53.53,0,0,0,.53-.529m1.589,0a.53.53,0,1,0-.529.529.529.529,0,0,0,.529-.529m1.59,0a.53.53,0,1,0-.53.529.53.53,0,0,0,.53-.529m1.589,0a.53.53,0,1,0-.53.529.53.53,0,0,0,.53-.529m1.59,0a.53.53,0,1,0-.53.529.53.53,0,0,0,.53-.529m1.589,0a.53.53,0,1,0-.53.529.53.53,0,0,0,.53-.529m-7.948,4.239a.53.53,0,1,0-.53.53.53.53,0,0,0,.53-.53m1.589,0a.53.53,0,1,0-.529.53.53.53,0,0,0,.529-.53m1.59,0a.53.53,0,1,0-.53.53.53.53,0,0,0,.53-.53m1.589,0a.53.53,0,1,0-.53.53.53.53,0,0,0,.53-.53m1.59,0a.53.53,0,1,0-.53.53.53.53,0,0,0,.53-.53m1.589,0a.53.53,0,1,0-.53.53.53.53,0,0,0,.53-.53M359,104.369a.53.53,0,1,0-.53.53.53.53,0,0,0,.53-.53m1.589,0a.53.53,0,1,0-.53.53.53.53,0,0,0,.53-.53m1.59,0a.53.53,0,1,0-.53.53.53.53,0,0,0,.53-.53m1.589,0a.53.53,0,1,0-.529.53.53.53,0,0,0,.529-.53m1.589,0a.53.53,0,1,0-.53.53.53.53,0,0,0,.53-.53m1.59,0a.53.53,0,1,0-.53.53.53.53,0,0,0,.53-.53M359,108.74a.53.53,0,1,0-.53.53.53.53,0,0,0,.53-.53m1.589,0a.53.53,0,1,0-.53.53.53.53,0,0,0,.53-.53m1.59,0a.53.53,0,1,0-.53.53.53.53,0,0,0,.53-.53m1.589,0a.53.53,0,1,0-.529.53.53.53,0,0,0,.529-.53m1.589,0a.53.53,0,1,0-.53.53.53.53,0,0,0,.53-.53m1.59,0a.53.53,0,1,0-.53.53.53.53,0,0,0,.53-.53" transform="translate(-173.408 -47.45)" fill="#13de61"/>
            <path id="Trazado_880388" data-name="Trazado 880388" d="M344.034,128.927H342.18a.457.457,0,1,1,0-.915h1.854a.457.457,0,1,1,0,.915m.458,1.662a.457.457,0,0,0-.458-.458H342.18a.457.457,0,1,0,0,.915h1.854a.457.457,0,0,0,.458-.457m0,2.119a.457.457,0,0,0-.458-.458H342.18a.457.457,0,1,0,0,.915h1.854a.457.457,0,0,0,.458-.457m0,2.119a.457.457,0,0,0-.458-.458H342.18a.457.457,0,1,0,0,.915h1.854a.457.457,0,0,0,.458-.457m0,2.119a.457.457,0,0,0-.458-.458H342.18a.458.458,0,1,0,0,.915h1.854a.457.457,0,0,0,.458-.458m0,2.12a.457.457,0,0,0-.458-.458H342.18a.458.458,0,0,0,0,.915h1.854a.457.457,0,0,0,.458-.458m0,2.119a.457.457,0,0,0-.458-.458H342.18a.458.458,0,1,0,0,.915h1.854a.457.457,0,0,0,.458-.458m0,2.119a.457.457,0,0,0-.458-.458H342.18a.458.458,0,1,0,0,.915h1.854a.457.457,0,0,0,.458-.458m6.938-14.836a.457.457,0,0,0-.457-.458H346.1a.457.457,0,1,0,0,.915h4.868a.457.457,0,0,0,.457-.457m0,2.119a.457.457,0,0,0-.457-.458H346.1a.457.457,0,1,0,0,.915h4.868a.457.457,0,0,0,.457-.457m0,2.119a.457.457,0,0,0-.457-.458H346.1a.457.457,0,1,0,0,.915h4.868a.457.457,0,0,0,.457-.457m0,2.119a.457.457,0,0,0-.457-.458H346.1a.457.457,0,1,0,0,.915h4.868a.457.457,0,0,0,.457-.457m0,2.119a.457.457,0,0,0-.457-.458H346.1a.458.458,0,0,0,0,.915h4.868a.457.457,0,0,0,.457-.458m5.829,2.12a.457.457,0,0,0-.458-.458h-4.868a.458.458,0,0,0,0,.915H356.8a.457.457,0,0,0,.458-.458m0,2.119a.457.457,0,0,0-.458-.458h-4.868a.458.458,0,1,0,0,.915H356.8a.457.457,0,0,0,.458-.458m0,2.119a.457.457,0,0,0-.458-.458h-4.868a.458.458,0,1,0,0,.915H356.8a.457.457,0,0,0,.458-.458m-3.686-14.836a.53.53,0,1,0-.53.529.53.53,0,0,0,.53-.529m1.589,0a.53.53,0,1,0-.529.529.529.529,0,0,0,.529-.529m1.59,0a.53.53,0,1,0-.53.529.53.53,0,0,0,.53-.529m1.589,0a.53.53,0,1,0-.53.529.53.53,0,0,0,.53-.529m1.59,0a.53.53,0,1,0-.53.529.53.53,0,0,0,.53-.529m1.589,0a.53.53,0,1,0-.53.529.53.53,0,0,0,.53-.529m-7.948,4.239a.53.53,0,1,0-.53.53.53.53,0,0,0,.53-.53m1.589,0a.53.53,0,1,0-.529.53.53.53,0,0,0,.529-.53m1.59,0a.53.53,0,1,0-.53.53.53.53,0,0,0,.53-.53m1.589,0a.53.53,0,1,0-.53.53.53.53,0,0,0,.53-.53m1.59,0a.53.53,0,1,0-.53.53.53.53,0,0,0,.53-.53m1.589,0a.53.53,0,1,0-.53.53.53.53,0,0,0,.53-.53M359,138.8a.53.53,0,1,0-.53.529.53.53,0,0,0,.53-.529m1.589,0a.53.53,0,1,0-.53.529.53.53,0,0,0,.53-.529m1.59,0a.53.53,0,1,0-.53.529.53.53,0,0,0,.53-.529m1.589,0a.53.53,0,1,0-.529.529.53.53,0,0,0,.529-.529m1.589,0a.53.53,0,1,0-.53.529.53.53,0,0,0,.53-.529m1.59,0a.53.53,0,1,0-.53.529.53.53,0,0,0,.53-.529M359,143.174a.53.53,0,1,0-.53.53.53.53,0,0,0,.53-.53m1.589,0a.53.53,0,1,0-.53.53.53.53,0,0,0,.53-.53m1.59,0a.53.53,0,1,0-.53.53.53.53,0,0,0,.53-.53m1.589,0a.53.53,0,1,0-.529.53.53.53,0,0,0,.529-.53m1.589,0a.53.53,0,1,0-.53.53.53.53,0,0,0,.53-.53m1.59,0a.53.53,0,1,0-.53.53.53.53,0,0,0,.53-.53" transform="translate(-173.408 -64.924)" fill="#13de61"/>
            <path id="Trazado_880389" data-name="Trazado 880389" d="M344.034,164.193H342.18a.457.457,0,1,1,0-.915h1.854a.457.457,0,1,1,0,.915m.458,1.662a.457.457,0,0,0-.458-.458H342.18a.457.457,0,1,0,0,.915h1.854a.457.457,0,0,0,.458-.457m0,2.119a.457.457,0,0,0-.458-.458H342.18a.457.457,0,1,0,0,.915h1.854a.457.457,0,0,0,.458-.457m0,2.119a.457.457,0,0,0-.458-.458H342.18a.457.457,0,1,0,0,.915h1.854a.457.457,0,0,0,.458-.457m0,2.119a.457.457,0,0,0-.458-.458H342.18a.458.458,0,1,0,0,.915h1.854a.457.457,0,0,0,.458-.458m0,2.12a.457.457,0,0,0-.458-.458H342.18a.458.458,0,1,0,0,.915h1.854a.457.457,0,0,0,.458-.458m0,2.119a.457.457,0,0,0-.458-.458H342.18a.458.458,0,1,0,0,.915h1.854a.457.457,0,0,0,.458-.458m0,2.119a.457.457,0,0,0-.458-.458H342.18a.458.458,0,1,0,0,.915h1.854a.457.457,0,0,0,.458-.458m6.938-14.837a.457.457,0,0,0-.457-.458H346.1a.457.457,0,1,0,0,.915h4.868a.457.457,0,0,0,.457-.457m0,2.119a.457.457,0,0,0-.457-.458H346.1a.457.457,0,1,0,0,.915h4.868a.457.457,0,0,0,.457-.457m0,2.119a.457.457,0,0,0-.457-.458H346.1a.457.457,0,1,0,0,.915h4.868a.457.457,0,0,0,.457-.457m0,2.119a.457.457,0,0,0-.457-.458H346.1a.457.457,0,1,0,0,.915h4.868a.457.457,0,0,0,.457-.457m0,2.119a.457.457,0,0,0-.457-.458H346.1a.458.458,0,0,0,0,.915h4.868a.457.457,0,0,0,.457-.458m5.829,2.12a.457.457,0,0,0-.458-.458h-4.868a.458.458,0,1,0,0,.915H356.8a.457.457,0,0,0,.458-.458m0,2.119A.457.457,0,0,0,356.8,176h-4.868a.458.458,0,1,0,0,.915H356.8a.457.457,0,0,0,.458-.458m0,2.119a.457.457,0,0,0-.458-.458h-4.868a.458.458,0,1,0,0,.915H356.8a.457.457,0,0,0,.458-.458m-3.686-14.837a.53.53,0,1,0-.53.53.53.53,0,0,0,.53-.53m1.589,0a.53.53,0,1,0-.529.53.529.529,0,0,0,.529-.53m1.59,0a.53.53,0,1,0-.53.53.53.53,0,0,0,.53-.53m1.589,0a.53.53,0,1,0-.53.53.529.529,0,0,0,.53-.53m1.59,0a.53.53,0,1,0-.53.53.53.53,0,0,0,.53-.53m1.589,0a.53.53,0,1,0-.53.53.53.53,0,0,0,.53-.53m-7.948,4.239a.53.53,0,1,0-.53.53.53.53,0,0,0,.53-.53m1.589,0a.53.53,0,1,0-.529.53.53.53,0,0,0,.529-.53m1.59,0a.53.53,0,1,0-.53.53.53.53,0,0,0,.53-.53m1.589,0a.53.53,0,1,0-.53.53.53.53,0,0,0,.53-.53m1.59,0a.53.53,0,1,0-.53.53.53.53,0,0,0,.53-.53m1.589,0a.53.53,0,1,0-.53.53.53.53,0,0,0,.53-.53M359,174.068a.53.53,0,1,0-.53.53.53.53,0,0,0,.53-.53m1.589,0a.53.53,0,1,0-.53.53.53.53,0,0,0,.53-.53m1.59,0a.53.53,0,1,0-.53.53.53.53,0,0,0,.53-.53m1.589,0a.53.53,0,1,0-.529.53.53.53,0,0,0,.529-.53m1.589,0a.53.53,0,1,0-.53.53.53.53,0,0,0,.53-.53m1.59,0a.53.53,0,1,0-.53.53.53.53,0,0,0,.53-.53M359,178.44a.53.53,0,1,0-.53.53.53.53,0,0,0,.53-.53m1.589,0a.53.53,0,1,0-.53.53.53.53,0,0,0,.53-.53m1.59,0a.53.53,0,1,0-.53.53.53.53,0,0,0,.53-.53m1.589,0a.53.53,0,1,0-.529.53.53.53,0,0,0,.529-.53m1.589,0a.53.53,0,1,0-.53.53.53.53,0,0,0,.53-.53m1.59,0a.53.53,0,1,0-.53.53.53.53,0,0,0,.53-.53" transform="translate(-173.408 -82.819)" fill="#13de61"/>
            <path id="Trazado_880390" data-name="Trazado 880390" d="M401.843,94.493h-1.854a.457.457,0,1,1,0-.915h1.854a.457.457,0,1,1,0,.915m.458,1.662a.457.457,0,0,0-.458-.458h-1.854a.457.457,0,1,0,0,.915h1.854a.457.457,0,0,0,.458-.457m0,2.119a.458.458,0,0,0-.458-.458h-1.854a.457.457,0,1,0,0,.915h1.854a.457.457,0,0,0,.458-.457m0,2.119a.458.458,0,0,0-.458-.458h-1.854a.457.457,0,1,0,0,.915h1.854a.457.457,0,0,0,.458-.457m0,2.119a.458.458,0,0,0-.458-.458h-1.854a.458.458,0,1,0,0,.915h1.854a.458.458,0,0,0,.458-.458m0,2.12a.458.458,0,0,0-.458-.458h-1.854a.457.457,0,1,0,0,.915h1.854a.457.457,0,0,0,.458-.457m0,2.119a.458.458,0,0,0-.458-.458h-1.854a.458.458,0,1,0,0,.915h1.854a.458.458,0,0,0,.458-.458m0,2.119a.458.458,0,0,0-.458-.458h-1.854a.458.458,0,1,0,0,.915h1.854a.458.458,0,0,0,.458-.458m6.939-14.837a.458.458,0,0,0-.458-.458h-4.868a.457.457,0,0,0,0,.915h4.868a.458.458,0,0,0,.458-.457m0,2.119a.458.458,0,0,0-.458-.458h-4.868a.457.457,0,0,0,0,.915h4.868a.458.458,0,0,0,.458-.457m0,2.119a.458.458,0,0,0-.458-.458h-4.868a.457.457,0,0,0,0,.915h4.868a.458.458,0,0,0,.458-.457m0,2.119a.458.458,0,0,0-.458-.458h-4.868a.457.457,0,0,0,0,.915h4.868a.458.458,0,0,0,.458-.457m0,2.119a.458.458,0,0,0-.458-.458h-4.868a.458.458,0,0,0,0,.915h4.868a.458.458,0,0,0,.458-.458m5.828,2.12a.457.457,0,0,0-.457-.458h-4.868a.457.457,0,1,0,0,.915h4.868a.456.456,0,0,0,.457-.457m0,2.119a.457.457,0,0,0-.457-.458h-4.868a.458.458,0,1,0,0,.915h4.868a.457.457,0,0,0,.457-.458m0,2.119a.457.457,0,0,0-.457-.458h-4.868a.458.458,0,1,0,0,.915h4.868a.457.457,0,0,0,.457-.458m-3.686-14.837a.53.53,0,1,0-.53.529.53.53,0,0,0,.53-.529m1.59,0a.53.53,0,1,0-.53.529.53.53,0,0,0,.53-.529m1.589,0a.53.53,0,1,0-.53.529.529.529,0,0,0,.53-.529m1.589,0a.53.53,0,1,0-.529.529.529.529,0,0,0,.529-.529m1.59,0a.53.53,0,1,0-.53.529.53.53,0,0,0,.53-.529m1.59,0a.53.53,0,1,0-.53.529.53.53,0,0,0,.53-.529m-7.948,4.239a.53.53,0,1,0-.53.53.531.531,0,0,0,.53-.53m1.59,0a.53.53,0,1,0-.53.53.53.53,0,0,0,.53-.53m1.589,0a.53.53,0,1,0-.53.53.53.53,0,0,0,.53-.53m1.589,0a.53.53,0,1,0-.529.53.53.53,0,0,0,.529-.53m1.59,0a.53.53,0,1,0-.53.53.53.53,0,0,0,.53-.53m1.59,0a.53.53,0,1,0-.53.53.53.53,0,0,0,.53-.53m-2.517,6.094a.53.53,0,1,0-.53.53.53.53,0,0,0,.53-.53m1.59,0a.53.53,0,1,0-.53.53.53.53,0,0,0,.53-.53m1.59,0a.53.53,0,1,0-.53.53.53.53,0,0,0,.53-.53m1.589,0a.53.53,0,1,0-.53.53.529.529,0,0,0,.53-.53m1.59,0a.53.53,0,1,0-.529.53.53.53,0,0,0,.529-.53m1.59,0a.53.53,0,1,0-.53.53.531.531,0,0,0,.53-.53m-7.949,4.371a.53.53,0,1,0-.53.53.53.53,0,0,0,.53-.53m1.59,0a.53.53,0,1,0-.53.53.53.53,0,0,0,.53-.53m1.59,0a.53.53,0,1,0-.53.53.53.53,0,0,0,.53-.53m1.589,0a.53.53,0,1,0-.53.53.529.529,0,0,0,.53-.53m1.59,0a.53.53,0,1,0-.529.53.53.53,0,0,0,.529-.53m1.59,0a.53.53,0,1,0-.53.53.531.531,0,0,0,.53-.53" transform="translate(-202.743 -47.45)" fill="#13de61"/>
            <path id="Trazado_880391" data-name="Trazado 880391" d="M401.843,129.759h-1.854a.457.457,0,1,1,0-.915h1.854a.457.457,0,1,1,0,.915m.458,1.662a.457.457,0,0,0-.458-.458h-1.854a.457.457,0,1,0,0,.915h1.854a.457.457,0,0,0,.458-.457m0,2.119a.457.457,0,0,0-.458-.458h-1.854a.457.457,0,1,0,0,.915h1.854a.457.457,0,0,0,.458-.457m0,2.119a.458.458,0,0,0-.458-.458h-1.854a.457.457,0,1,0,0,.915h1.854a.457.457,0,0,0,.458-.457m0,2.119a.458.458,0,0,0-.458-.458h-1.854a.458.458,0,1,0,0,.915h1.854a.458.458,0,0,0,.458-.458m0,2.12a.458.458,0,0,0-.458-.458h-1.854a.458.458,0,1,0,0,.915h1.854a.458.458,0,0,0,.458-.458m0,2.119a.458.458,0,0,0-.458-.458h-1.854a.458.458,0,1,0,0,.915h1.854a.458.458,0,0,0,.458-.458m0,2.119a.458.458,0,0,0-.458-.458h-1.854a.458.458,0,1,0,0,.915h1.854a.458.458,0,0,0,.458-.458m6.939-14.836a.458.458,0,0,0-.458-.458h-4.868a.457.457,0,0,0,0,.915h4.868a.458.458,0,0,0,.458-.457m0,2.119a.458.458,0,0,0-.458-.458h-4.868a.457.457,0,0,0,0,.915h4.868a.458.458,0,0,0,.458-.457m0,2.119a.458.458,0,0,0-.458-.458h-4.868a.457.457,0,0,0,0,.915h4.868a.458.458,0,0,0,.458-.457m0,2.119a.458.458,0,0,0-.458-.458h-4.868a.457.457,0,0,0,0,.915h4.868a.458.458,0,0,0,.458-.457m0,2.119a.458.458,0,0,0-.458-.458h-4.868a.458.458,0,0,0,0,.915h4.868a.458.458,0,0,0,.458-.458m5.828,2.12a.457.457,0,0,0-.457-.458h-4.868a.458.458,0,1,0,0,.915h4.868a.457.457,0,0,0,.457-.458m0,2.119a.457.457,0,0,0-.457-.458h-4.868a.458.458,0,1,0,0,.915h4.868a.457.457,0,0,0,.457-.458m0,2.119a.457.457,0,0,0-.457-.458h-4.868a.458.458,0,1,0,0,.915h4.868a.457.457,0,0,0,.457-.458M411.381,129.3a.53.53,0,1,0-.53.53.53.53,0,0,0,.53-.53m1.59,0a.53.53,0,1,0-.53.53.53.53,0,0,0,.53-.53m1.589,0a.53.53,0,1,0-.53.53.529.529,0,0,0,.53-.53m1.589,0a.53.53,0,1,0-.529.53.529.529,0,0,0,.529-.53m1.59,0a.53.53,0,1,0-.53.53.53.53,0,0,0,.53-.53m1.59,0a.53.53,0,1,0-.53.53.53.53,0,0,0,.53-.53m-7.948,4.239a.53.53,0,1,0-.53.53.531.531,0,0,0,.53-.53m1.59,0a.53.53,0,1,0-.53.53.53.53,0,0,0,.53-.53m1.589,0a.53.53,0,1,0-.53.53.53.53,0,0,0,.53-.53m1.589,0a.53.53,0,1,0-.529.53.53.53,0,0,0,.529-.53m1.59,0a.53.53,0,1,0-.53.53.53.53,0,0,0,.53-.53m1.59,0a.53.53,0,1,0-.53.53.53.53,0,0,0,.53-.53m-2.517,6.094a.53.53,0,1,0-.53.529.53.53,0,0,0,.53-.529m1.59,0a.53.53,0,1,0-.53.529.53.53,0,0,0,.53-.529m1.59,0a.53.53,0,1,0-.53.529.53.53,0,0,0,.53-.529m1.589,0a.53.53,0,1,0-.53.529.529.529,0,0,0,.53-.529m1.59,0a.53.53,0,1,0-.529.529.53.53,0,0,0,.529-.529m1.59,0a.53.53,0,1,0-.53.529.531.531,0,0,0,.53-.529m-7.949,4.371a.53.53,0,1,0-.53.53.53.53,0,0,0,.53-.53m1.59,0a.53.53,0,1,0-.53.53.53.53,0,0,0,.53-.53m1.59,0a.53.53,0,1,0-.53.53.53.53,0,0,0,.53-.53m1.589,0a.53.53,0,1,0-.53.53.529.529,0,0,0,.53-.53m1.59,0a.53.53,0,1,0-.529.53.53.53,0,0,0,.529-.53m1.59,0a.53.53,0,1,0-.53.53.531.531,0,0,0,.53-.53" transform="translate(-202.743 -65.346)" fill="#13de61"/>
            <path id="Trazado_880392" data-name="Trazado 880392" d="M344.034,226.991H342.18a.457.457,0,1,1,0-.915h1.854a.457.457,0,1,1,0,.915m.458,1.662a.457.457,0,0,0-.458-.458H342.18a.457.457,0,1,0,0,.915h1.854a.457.457,0,0,0,.458-.457m0,2.119a.457.457,0,0,0-.458-.458H342.18a.457.457,0,1,0,0,.915h1.854a.457.457,0,0,0,.458-.457m0,2.119a.457.457,0,0,0-.458-.458H342.18a.457.457,0,1,0,0,.915h1.854a.457.457,0,0,0,.458-.457m0,2.119a.457.457,0,0,0-.458-.458H342.18a.457.457,0,1,0,0,.915h1.854a.457.457,0,0,0,.458-.457m0,2.12a.457.457,0,0,0-.458-.458H342.18a.457.457,0,1,0,0,.915h1.854a.457.457,0,0,0,.458-.457m0,2.119a.457.457,0,0,0-.458-.458H342.18a.458.458,0,0,0,0,.915h1.854a.457.457,0,0,0,.458-.458m0,2.119a.457.457,0,0,0-.458-.458H342.18a.458.458,0,1,0,0,.915h1.854a.457.457,0,0,0,.458-.458m6.938-14.837a.457.457,0,0,0-.457-.457H346.1a.457.457,0,1,0,0,.915h4.868a.457.457,0,0,0,.457-.458m0,2.12a.457.457,0,0,0-.457-.458H346.1a.457.457,0,1,0,0,.915h4.868a.457.457,0,0,0,.457-.457m0,2.119a.457.457,0,0,0-.457-.458H346.1a.457.457,0,1,0,0,.915h4.868a.457.457,0,0,0,.457-.457m0,2.119a.457.457,0,0,0-.457-.458H346.1a.457.457,0,1,0,0,.915h4.868a.457.457,0,0,0,.457-.457m0,2.119a.457.457,0,0,0-.457-.458H346.1a.457.457,0,1,0,0,.915h4.868a.457.457,0,0,0,.457-.457m5.829,2.12a.457.457,0,0,0-.458-.458h-4.868a.457.457,0,1,0,0,.915H356.8a.457.457,0,0,0,.458-.457m0,2.119a.457.457,0,0,0-.458-.458h-4.868a.458.458,0,0,0,0,.915H356.8a.457.457,0,0,0,.458-.458m0,2.119a.457.457,0,0,0-.458-.458h-4.868a.458.458,0,1,0,0,.915H356.8a.457.457,0,0,0,.458-.458m-3.686-14.837a.53.53,0,1,0-.53.53.53.53,0,0,0,.53-.53m1.589,0a.53.53,0,1,0-.529.53.529.529,0,0,0,.529-.53m1.59,0a.53.53,0,1,0-.53.53.53.53,0,0,0,.53-.53m1.589,0a.53.53,0,1,0-.53.53.529.529,0,0,0,.53-.53m1.59,0a.53.53,0,1,0-.53.53.53.53,0,0,0,.53-.53m1.589,0a.53.53,0,1,0-.53.53.53.53,0,0,0,.53-.53m-7.948,4.239a.53.53,0,1,0-.53.53.53.53,0,0,0,.53-.53m1.589,0a.53.53,0,1,0-.529.53.53.53,0,0,0,.529-.53m1.59,0a.53.53,0,1,0-.53.53.53.53,0,0,0,.53-.53m1.589,0a.53.53,0,1,0-.53.53.53.53,0,0,0,.53-.53m1.59,0a.53.53,0,1,0-.53.53.53.53,0,0,0,.53-.53m1.589,0a.53.53,0,1,0-.53.53.53.53,0,0,0,.53-.53M359,236.867a.53.53,0,1,0-.53.53.53.53,0,0,0,.53-.53m1.589,0a.53.53,0,1,0-.53.53.53.53,0,0,0,.53-.53m1.59,0a.53.53,0,1,0-.53.53.53.53,0,0,0,.53-.53m1.589,0a.53.53,0,1,0-.529.53.53.53,0,0,0,.529-.53m1.589,0a.53.53,0,1,0-.53.53.53.53,0,0,0,.53-.53m1.59,0a.53.53,0,1,0-.53.53.53.53,0,0,0,.53-.53M359,241.238a.53.53,0,1,0-.53.53.53.53,0,0,0,.53-.53m1.589,0a.53.53,0,1,0-.53.53.53.53,0,0,0,.53-.53m1.59,0a.53.53,0,1,0-.53.53.53.53,0,0,0,.53-.53m1.589,0a.53.53,0,1,0-.529.53.53.53,0,0,0,.529-.53m1.589,0a.53.53,0,1,0-.53.53.53.53,0,0,0,.53-.53m1.59,0a.53.53,0,1,0-.53.53.53.53,0,0,0,.53-.53" transform="translate(-173.408 -114.686)" fill="#13de61"/>
            <path id="Trazado_880393" data-name="Trazado 880393" d="M344.034,261.426H342.18a.457.457,0,1,1,0-.915h1.854a.457.457,0,1,1,0,.915m.458,1.662a.457.457,0,0,0-.458-.458H342.18a.457.457,0,1,0,0,.915h1.854a.457.457,0,0,0,.458-.457m0,2.119a.457.457,0,0,0-.458-.458H342.18a.457.457,0,1,0,0,.915h1.854a.457.457,0,0,0,.458-.457m0,2.119a.457.457,0,0,0-.458-.458H342.18a.457.457,0,1,0,0,.915h1.854a.457.457,0,0,0,.458-.457m0,2.119a.457.457,0,0,0-.458-.458H342.18a.458.458,0,0,0,0,.915h1.854a.457.457,0,0,0,.458-.458m0,2.12a.457.457,0,0,0-.458-.458H342.18a.458.458,0,1,0,0,.915h1.854a.457.457,0,0,0,.458-.458m0,2.119a.457.457,0,0,0-.458-.458H342.18a.458.458,0,1,0,0,.915h1.854a.457.457,0,0,0,.458-.458m0,2.119a.457.457,0,0,0-.458-.458H342.18a.458.458,0,1,0,0,.915h1.854a.457.457,0,0,0,.458-.458m6.938-14.836a.457.457,0,0,0-.457-.458H346.1a.457.457,0,1,0,0,.915h4.868a.457.457,0,0,0,.457-.457m0,2.119a.457.457,0,0,0-.457-.458H346.1a.457.457,0,1,0,0,.915h4.868a.457.457,0,0,0,.457-.457m0,2.119a.457.457,0,0,0-.457-.458H346.1a.457.457,0,1,0,0,.915h4.868a.457.457,0,0,0,.457-.457m0,2.119a.457.457,0,0,0-.457-.458H346.1a.457.457,0,1,0,0,.915h4.868a.457.457,0,0,0,.457-.457m0,2.119a.457.457,0,0,0-.457-.458H346.1a.458.458,0,0,0,0,.915h4.868a.457.457,0,0,0,.457-.458m5.829,2.12a.457.457,0,0,0-.458-.458h-4.868a.458.458,0,1,0,0,.915H356.8a.457.457,0,0,0,.458-.458m0,2.119a.457.457,0,0,0-.458-.458h-4.868a.458.458,0,1,0,0,.915H356.8a.457.457,0,0,0,.458-.458m0,2.119a.457.457,0,0,0-.458-.458h-4.868a.458.458,0,1,0,0,.915H356.8a.457.457,0,0,0,.458-.458m-3.686-14.836a.53.53,0,1,0-.53.529.53.53,0,0,0,.53-.529m1.589,0a.53.53,0,1,0-.529.529.529.529,0,0,0,.529-.529m1.59,0a.53.53,0,1,0-.53.529.53.53,0,0,0,.53-.529m1.589,0a.53.53,0,1,0-.53.529.53.53,0,0,0,.53-.529m1.59,0a.53.53,0,1,0-.53.529.53.53,0,0,0,.53-.529m1.589,0a.53.53,0,1,0-.53.529.53.53,0,0,0,.53-.529m-7.948,4.239a.53.53,0,1,0-.53.53.53.53,0,0,0,.53-.53m1.589,0a.53.53,0,1,0-.529.53.53.53,0,0,0,.529-.53m1.59,0a.53.53,0,1,0-.53.53.53.53,0,0,0,.53-.53m1.589,0a.53.53,0,1,0-.53.53.53.53,0,0,0,.53-.53m1.59,0a.53.53,0,1,0-.53.53.53.53,0,0,0,.53-.53m1.589,0a.53.53,0,1,0-.53.53.53.53,0,0,0,.53-.53M359,271.3a.53.53,0,1,0-.53.529.53.53,0,0,0,.53-.529m1.589,0a.53.53,0,1,0-.53.529.53.53,0,0,0,.53-.529m1.59,0a.53.53,0,1,0-.53.529.53.53,0,0,0,.53-.529m1.589,0a.53.53,0,1,0-.529.529.53.53,0,0,0,.529-.529m1.589,0a.53.53,0,1,0-.53.529.53.53,0,0,0,.53-.529m1.59,0a.53.53,0,1,0-.53.529.53.53,0,0,0,.53-.529M359,275.673a.53.53,0,1,0-.53.53.53.53,0,0,0,.53-.53m1.589,0a.53.53,0,1,0-.53.53.53.53,0,0,0,.53-.53m1.59,0a.53.53,0,1,0-.53.53.53.53,0,0,0,.53-.53m1.589,0a.53.53,0,1,0-.529.53.53.53,0,0,0,.529-.53m1.589,0a.53.53,0,1,0-.53.53.53.53,0,0,0,.53-.53m1.59,0a.53.53,0,1,0-.53.53.53.53,0,0,0,.53-.53" transform="translate(-173.408 -132.16)" fill="#13de61"/>
            <path id="Trazado_880394" data-name="Trazado 880394" d="M344.034,296.692H342.18a.457.457,0,1,1,0-.915h1.854a.457.457,0,1,1,0,.915m.458,1.662a.457.457,0,0,0-.458-.458H342.18a.457.457,0,1,0,0,.915h1.854a.457.457,0,0,0,.458-.457m0,2.119a.457.457,0,0,0-.458-.458H342.18a.457.457,0,1,0,0,.915h1.854a.457.457,0,0,0,.458-.457m0,2.119a.457.457,0,0,0-.458-.458H342.18a.457.457,0,1,0,0,.915h1.854a.457.457,0,0,0,.458-.457m0,2.119a.457.457,0,0,0-.458-.458H342.18a.458.458,0,1,0,0,.915h1.854a.457.457,0,0,0,.458-.458m0,2.12a.457.457,0,0,0-.458-.458H342.18a.457.457,0,1,0,0,.915h1.854a.457.457,0,0,0,.458-.457m0,2.119a.457.457,0,0,0-.458-.458H342.18a.458.458,0,1,0,0,.915h1.854a.457.457,0,0,0,.458-.458m0,2.119a.457.457,0,0,0-.458-.458H342.18a.458.458,0,1,0,0,.915h1.854a.457.457,0,0,0,.458-.458m6.938-14.837a.457.457,0,0,0-.457-.458H346.1a.457.457,0,1,0,0,.915h4.868a.457.457,0,0,0,.457-.457m0,2.119a.457.457,0,0,0-.457-.458H346.1a.457.457,0,1,0,0,.915h4.868a.457.457,0,0,0,.457-.457m0,2.119a.457.457,0,0,0-.457-.458H346.1a.457.457,0,1,0,0,.915h4.868a.457.457,0,0,0,.457-.457m0,2.119a.457.457,0,0,0-.457-.458H346.1a.457.457,0,1,0,0,.915h4.868a.457.457,0,0,0,.457-.457m0,2.119a.457.457,0,0,0-.457-.458H346.1a.458.458,0,0,0,0,.915h4.868a.457.457,0,0,0,.457-.458m5.829,2.12a.457.457,0,0,0-.458-.458h-4.868a.457.457,0,1,0,0,.915H356.8a.457.457,0,0,0,.458-.457m0,2.119a.457.457,0,0,0-.458-.458h-4.868a.458.458,0,1,0,0,.915H356.8a.457.457,0,0,0,.458-.458m0,2.119a.457.457,0,0,0-.458-.458h-4.868a.458.458,0,1,0,0,.915H356.8a.457.457,0,0,0,.458-.458m-3.686-14.837a.53.53,0,1,0-.53.53.53.53,0,0,0,.53-.53m1.589,0a.53.53,0,1,0-.529.53.529.529,0,0,0,.529-.53m1.59,0a.53.53,0,1,0-.53.53.53.53,0,0,0,.53-.53m1.589,0a.53.53,0,1,0-.53.53.529.529,0,0,0,.53-.53m1.59,0a.53.53,0,1,0-.53.53.53.53,0,0,0,.53-.53m1.589,0a.53.53,0,1,0-.53.53.53.53,0,0,0,.53-.53m-7.948,4.239a.53.53,0,1,0-.53.53.53.53,0,0,0,.53-.53m1.589,0a.53.53,0,1,0-.529.53.53.53,0,0,0,.529-.53m1.59,0a.53.53,0,1,0-.53.53.53.53,0,0,0,.53-.53m1.589,0a.53.53,0,1,0-.53.53.53.53,0,0,0,.53-.53m1.59,0a.53.53,0,1,0-.53.53.53.53,0,0,0,.53-.53m1.589,0a.53.53,0,1,0-.53.53.53.53,0,0,0,.53-.53M359,306.567a.53.53,0,1,0-.53.53.53.53,0,0,0,.53-.53m1.589,0a.53.53,0,1,0-.53.53.53.53,0,0,0,.53-.53m1.59,0a.53.53,0,1,0-.53.53.53.53,0,0,0,.53-.53m1.589,0a.53.53,0,1,0-.529.53.53.53,0,0,0,.529-.53m1.589,0a.53.53,0,1,0-.53.53.53.53,0,0,0,.53-.53m1.59,0a.53.53,0,1,0-.53.53.53.53,0,0,0,.53-.53M359,310.939a.53.53,0,1,0-.53.53.53.53,0,0,0,.53-.53m1.589,0a.53.53,0,1,0-.53.53.53.53,0,0,0,.53-.53m1.59,0a.53.53,0,1,0-.53.53.53.53,0,0,0,.53-.53m1.589,0a.53.53,0,1,0-.529.53.53.53,0,0,0,.529-.53m1.589,0a.53.53,0,1,0-.53.53.53.53,0,0,0,.53-.53m1.59,0a.53.53,0,1,0-.53.53.53.53,0,0,0,.53-.53" transform="translate(-173.408 -150.056)" fill="#13de61"/>
            <path id="Trazado_880395" data-name="Trazado 880395" d="M401.843,226.991h-1.854a.457.457,0,1,1,0-.915h1.854a.457.457,0,1,1,0,.915m.458,1.662a.457.457,0,0,0-.458-.458h-1.854a.457.457,0,1,0,0,.915h1.854a.457.457,0,0,0,.458-.457m0,2.119a.457.457,0,0,0-.458-.458h-1.854a.457.457,0,1,0,0,.915h1.854a.457.457,0,0,0,.458-.457m0,2.119a.457.457,0,0,0-.458-.458h-1.854a.457.457,0,1,0,0,.915h1.854a.457.457,0,0,0,.458-.457m0,2.119a.458.458,0,0,0-.458-.458h-1.854a.457.457,0,1,0,0,.915h1.854a.457.457,0,0,0,.458-.457m0,2.12a.458.458,0,0,0-.458-.458h-1.854a.457.457,0,1,0,0,.915h1.854a.457.457,0,0,0,.458-.457m0,2.119a.458.458,0,0,0-.458-.458h-1.854a.458.458,0,0,0,0,.915h1.854a.458.458,0,0,0,.458-.458m0,2.119a.458.458,0,0,0-.458-.458h-1.854a.458.458,0,1,0,0,.915h1.854a.458.458,0,0,0,.458-.458m6.939-14.837a.458.458,0,0,0-.458-.457h-4.868a.457.457,0,0,0,0,.915h4.868a.458.458,0,0,0,.458-.458m0,2.12a.458.458,0,0,0-.458-.458h-4.868a.457.457,0,0,0,0,.915h4.868a.458.458,0,0,0,.458-.457m0,2.119a.458.458,0,0,0-.458-.458h-4.868a.457.457,0,0,0,0,.915h4.868a.458.458,0,0,0,.458-.457m0,2.119a.458.458,0,0,0-.458-.458h-4.868a.457.457,0,0,0,0,.915h4.868a.458.458,0,0,0,.458-.457m0,2.119a.458.458,0,0,0-.458-.458h-4.868a.457.457,0,0,0,0,.915h4.868a.458.458,0,0,0,.458-.457m5.828,2.12a.457.457,0,0,0-.457-.458h-4.868a.457.457,0,1,0,0,.915h4.868a.456.456,0,0,0,.457-.457m0,2.119a.457.457,0,0,0-.457-.458h-4.868a.458.458,0,1,0,0,.915h4.868a.457.457,0,0,0,.457-.458m0,2.119a.457.457,0,0,0-.457-.458h-4.868a.458.458,0,1,0,0,.915h4.868a.457.457,0,0,0,.457-.458m-3.686-14.837a.53.53,0,1,0-.53.53.53.53,0,0,0,.53-.53m1.59,0a.53.53,0,1,0-.53.53.53.53,0,0,0,.53-.53m1.589,0a.53.53,0,1,0-.53.53.529.529,0,0,0,.53-.53m1.589,0a.53.53,0,1,0-.529.53.529.529,0,0,0,.529-.53m1.59,0a.53.53,0,1,0-.53.53.53.53,0,0,0,.53-.53m1.59,0a.53.53,0,1,0-.53.53.53.53,0,0,0,.53-.53m-7.948,4.239a.53.53,0,1,0-.53.53.531.531,0,0,0,.53-.53m1.59,0a.53.53,0,1,0-.53.53.53.53,0,0,0,.53-.53m1.589,0a.53.53,0,1,0-.53.53.53.53,0,0,0,.53-.53m1.589,0a.53.53,0,1,0-.529.53.53.53,0,0,0,.529-.53m1.59,0a.53.53,0,1,0-.53.53.53.53,0,0,0,.53-.53m1.59,0a.53.53,0,1,0-.53.53.53.53,0,0,0,.53-.53m-2.517,6.094a.53.53,0,1,0-.53.53.53.53,0,0,0,.53-.53m1.59,0a.53.53,0,1,0-.53.53.53.53,0,0,0,.53-.53m1.59,0a.53.53,0,1,0-.53.53.53.53,0,0,0,.53-.53m1.589,0a.53.53,0,1,0-.53.53.529.529,0,0,0,.53-.53m1.59,0a.53.53,0,1,0-.529.53.53.53,0,0,0,.529-.53m1.59,0a.53.53,0,1,0-.53.53.531.531,0,0,0,.53-.53m-7.949,4.371a.53.53,0,1,0-.53.53.53.53,0,0,0,.53-.53m1.59,0a.53.53,0,1,0-.53.53.53.53,0,0,0,.53-.53m1.59,0a.53.53,0,1,0-.53.53.53.53,0,0,0,.53-.53m1.589,0a.53.53,0,1,0-.53.53.529.529,0,0,0,.53-.53m1.59,0a.53.53,0,1,0-.529.53.53.53,0,0,0,.529-.53m1.59,0a.53.53,0,1,0-.53.53.531.531,0,0,0,.53-.53" transform="translate(-202.743 -114.686)" fill="#13de61"/>
            <path id="Trazado_880396" data-name="Trazado 880396" d="M401.843,262.257h-1.854a.457.457,0,1,1,0-.915h1.854a.457.457,0,1,1,0,.915m.458,1.662a.457.457,0,0,0-.458-.458h-1.854a.457.457,0,1,0,0,.915h1.854a.457.457,0,0,0,.458-.457m0,2.119a.457.457,0,0,0-.458-.458h-1.854a.457.457,0,1,0,0,.915h1.854a.457.457,0,0,0,.458-.457m0,2.119a.457.457,0,0,0-.458-.458h-1.854a.457.457,0,1,0,0,.915h1.854a.457.457,0,0,0,.458-.457m0,2.119a.458.458,0,0,0-.458-.458h-1.854a.458.458,0,1,0,0,.915h1.854a.458.458,0,0,0,.458-.458m0,2.12a.458.458,0,0,0-.458-.458h-1.854a.458.458,0,1,0,0,.915h1.854a.458.458,0,0,0,.458-.458m0,2.119a.458.458,0,0,0-.458-.458h-1.854a.458.458,0,1,0,0,.915h1.854a.458.458,0,0,0,.458-.458m0,2.119a.458.458,0,0,0-.458-.458h-1.854a.458.458,0,0,0,0,.915h1.854a.458.458,0,0,0,.458-.458m6.939-14.836a.458.458,0,0,0-.458-.458h-4.868a.457.457,0,0,0,0,.915h4.868a.458.458,0,0,0,.458-.457m0,2.119a.458.458,0,0,0-.458-.458h-4.868a.457.457,0,0,0,0,.915h4.868a.458.458,0,0,0,.458-.457m0,2.119a.458.458,0,0,0-.458-.458h-4.868a.457.457,0,0,0,0,.915h4.868a.458.458,0,0,0,.458-.457m0,2.119a.458.458,0,0,0-.458-.458h-4.868a.457.457,0,0,0,0,.915h4.868a.458.458,0,0,0,.458-.457m0,2.119a.458.458,0,0,0-.458-.458h-4.868a.458.458,0,0,0,0,.915h4.868a.458.458,0,0,0,.458-.458m5.828,2.12a.457.457,0,0,0-.457-.458h-4.868a.458.458,0,1,0,0,.915h4.868a.457.457,0,0,0,.457-.458m0,2.119a.457.457,0,0,0-.457-.458h-4.868a.458.458,0,1,0,0,.915h4.868a.457.457,0,0,0,.457-.458m0,2.119a.457.457,0,0,0-.457-.458h-4.868a.458.458,0,1,0,0,.915h4.868a.457.457,0,0,0,.457-.458M411.381,261.8a.53.53,0,1,0-.53.53.53.53,0,0,0,.53-.53m1.59,0a.53.53,0,1,0-.53.53.53.53,0,0,0,.53-.53m1.589,0a.53.53,0,1,0-.53.53.529.529,0,0,0,.53-.53m1.589,0a.53.53,0,1,0-.529.53.529.529,0,0,0,.529-.53m1.59,0a.53.53,0,1,0-.53.53.53.53,0,0,0,.53-.53m1.59,0a.53.53,0,1,0-.53.53.53.53,0,0,0,.53-.53m-7.948,4.239a.53.53,0,1,0-.53.53.531.531,0,0,0,.53-.53m1.59,0a.53.53,0,1,0-.53.53.53.53,0,0,0,.53-.53m1.589,0a.53.53,0,1,0-.53.53.53.53,0,0,0,.53-.53m1.589,0a.53.53,0,1,0-.529.53.53.53,0,0,0,.529-.53m1.59,0a.53.53,0,1,0-.53.53.53.53,0,0,0,.53-.53m1.59,0a.53.53,0,1,0-.53.53.53.53,0,0,0,.53-.53m-2.517,6.093a.53.53,0,1,0-.53.53.53.53,0,0,0,.53-.53m1.59,0a.53.53,0,1,0-.53.53.53.53,0,0,0,.53-.53m1.59,0a.53.53,0,1,0-.53.53.53.53,0,0,0,.53-.53m1.589,0a.53.53,0,1,0-.53.53.529.529,0,0,0,.53-.53m1.59,0a.53.53,0,1,0-.529.53.53.53,0,0,0,.529-.53m1.59,0a.53.53,0,1,0-.53.53.53.53,0,0,0,.53-.53m-7.949,4.372a.53.53,0,1,0-.53.53.53.53,0,0,0,.53-.53m1.59,0a.53.53,0,1,0-.53.53.53.53,0,0,0,.53-.53m1.59,0a.53.53,0,1,0-.53.53.53.53,0,0,0,.53-.53m1.589,0a.53.53,0,1,0-.53.53.529.529,0,0,0,.53-.53m1.59,0a.53.53,0,1,0-.529.53.53.53,0,0,0,.529-.53m1.59,0a.53.53,0,1,0-.53.53.531.531,0,0,0,.53-.53" transform="translate(-202.743 -132.582)" fill="#13de61"/>
          </g>
        </g>
        <rect id="Rectángulo_405543" data-name="Rectángulo 405543" width="117.089" height="176.479" transform="translate(54.743 16.456)" fill="#a3a3a3"/>
        <rect id="Rectángulo_405544" data-name="Rectángulo 405544" width="117.089" height="176.479" transform="translate(54.743 16.456)" fill="none" stroke="#263238" stroke-miterlimit="10" stroke-width="1"/>
        <rect id="Rectángulo_405545" data-name="Rectángulo 405545" width="167.739" height="176.286" transform="translate(0.246 16.576)" fill="#fff"/>
        <g id="Grupo_1102294" data-name="Grupo 1102294">
          <g id="Grupo_1102293" data-name="Grupo 1102293" clip-path="url(#clip-path)">
            <rect id="Rectángulo_405546" data-name="Rectángulo 405546" width="167.739" height="176.286" transform="translate(0.246 16.577)" fill="none" stroke="#263238" stroke-miterlimit="10" stroke-width="1"/>
          </g>
        </g>
        <rect id="Rectángulo_405548" data-name="Rectángulo 405548" width="151.441" height="3.518" transform="translate(5.417 107.619)" fill="#263238"/>
        <rect id="Rectángulo_405549" data-name="Rectángulo 405549" width="151.441" height="3.518" transform="translate(5.417 175.269)" fill="#263238"/>
        <rect id="Rectángulo_405550" data-name="Rectángulo 405550" width="5.024" height="176.286" transform="translate(162.962 16.577)" fill="#f5f5f5"/>
        <rect id="Rectángulo_405551" data-name="Rectángulo 405551" width="5.024" height="176.286" transform="translate(162.962 16.577)" fill="none" stroke="#263238" stroke-miterlimit="10" stroke-width="1"/>
        <g id="Grupo_1102296" data-name="Grupo 1102296">
          <g id="Grupo_1102295" data-name="Grupo 1102295" clip-path="url(#clip-path)">
            <path id="Trazado_880397" data-name="Trazado 880397" d="M53.356,294.786H18.31a5.169,5.169,0,0,1-5.169-5.169V260.2a5.169,5.169,0,0,1,5.169-5.169H53.356a5.169,5.169,0,0,1,5.169,5.169v29.417a5.169,5.169,0,0,1-5.169,5.169" transform="translate(-6.668 -129.417)" fill="#fff"/>
            <rect id="Rectángulo_405552" data-name="Rectángulo 405552" width="45.383" height="39.754" rx="10.494" transform="translate(6.472 125.615)" fill="none" stroke="#263238" stroke-miterlimit="10" stroke-width="1"/>
            <path id="Trazado_880398" data-name="Trazado 880398" d="M21.844,305.66H55.813a5.708,5.708,0,0,0,5.708-5.708V281.185l-5.277-4.725L41.579,291.512l-6.092-4.5L19.045,304.923a5.672,5.672,0,0,0,2.8.737" transform="translate(-9.664 -140.29)" fill="#13de61"/>
            <path id="Trazado_880399" data-name="Trazado 880399" d="M21.844,305.66H55.813a5.708,5.708,0,0,0,5.708-5.708V281.185l-5.277-4.725L41.579,291.512l-6.092-4.5L19.045,304.923A5.672,5.672,0,0,0,21.844,305.66Z" transform="translate(-9.664 -140.29)" fill="none" stroke="#263238" stroke-miterlimit="10" stroke-width="1"/>
            <path id="Trazado_880400" data-name="Trazado 880400" d="M37.87,274.266a3.855,3.855,0,1,1-3.855-3.855,3.855,3.855,0,0,1,3.855,3.855" transform="translate(-15.305 -137.221)" fill="#13de61"/>
            <path id="Trazado_880401" data-name="Trazado 880401" d="M37.87,274.266a3.855,3.855,0,1,1-3.855-3.855A3.855,3.855,0,0,1,37.87,274.266Z" transform="translate(-15.305 -137.221)" fill="none" stroke="#263238" stroke-miterlimit="10" stroke-width="1"/>
            <path id="Trazado_880402" data-name="Trazado 880402" d="M159.1,294.786H124.052a5.169,5.169,0,0,1-5.169-5.169V260.2a5.169,5.169,0,0,1,5.169-5.169H159.1a5.169,5.169,0,0,1,5.169,5.169v29.417a5.169,5.169,0,0,1-5.169,5.169" transform="translate(-60.328 -129.417)" fill="#fff"/>
            <rect id="Rectángulo_405553" data-name="Rectángulo 405553" width="45.383" height="39.754" rx="10.494" transform="translate(58.556 125.615)" fill="none" stroke="#263238" stroke-miterlimit="10" stroke-width="1"/>
            <path id="Trazado_880403" data-name="Trazado 880403" d="M127.587,305.66h33.969a5.708,5.708,0,0,0,5.708-5.708V281.185l-5.277-4.725-14.665,15.052-6.092-4.5-16.441,17.909a5.672,5.672,0,0,0,2.8.737" transform="translate(-63.324 -140.29)" fill="#13de61"/>
            <path id="Trazado_880404" data-name="Trazado 880404" d="M127.587,305.66h33.969a5.708,5.708,0,0,0,5.708-5.708V281.185l-5.277-4.725-14.665,15.052-6.092-4.5-16.441,17.909A5.672,5.672,0,0,0,127.587,305.66Z" transform="translate(-63.324 -140.29)" fill="none" stroke="#263238" stroke-miterlimit="10" stroke-width="1"/>
            <path id="Trazado_880405" data-name="Trazado 880405" d="M143.613,274.266a3.855,3.855,0,1,1-3.855-3.855,3.855,3.855,0,0,1,3.855,3.855" transform="translate(-68.965 -137.221)" fill="#13de61"/>
            <circle id="Elipse_11545" data-name="Elipse 11545" cx="3.855" cy="3.855" r="3.855" transform="translate(66.939 133.19)" fill="none" stroke="#263238" stroke-miterlimit="10" stroke-width="1"/>
            <path id="Trazado_880406" data-name="Trazado 880406" d="M264.841,294.786H229.795a5.169,5.169,0,0,1-5.169-5.169V260.2a5.169,5.169,0,0,1,5.169-5.169h35.046a5.169,5.169,0,0,1,5.169,5.169v29.417a5.169,5.169,0,0,1-5.169,5.169" transform="translate(-113.987 -129.417)" fill="#fff"/>
            <rect id="Rectángulo_405554" data-name="Rectángulo 405554" width="45.383" height="39.754" rx="10.494" transform="translate(110.639 125.615)" fill="none" stroke="#263238" stroke-miterlimit="10" stroke-width="1"/>
            <path id="Trazado_880407" data-name="Trazado 880407" d="M233.33,305.66H267.3a5.708,5.708,0,0,0,5.708-5.708V281.185l-5.277-4.725-14.665,15.052-6.092-4.5-16.441,17.909a5.672,5.672,0,0,0,2.8.737" transform="translate(-116.984 -140.29)" fill="#13de61"/>
            <path id="Trazado_880408" data-name="Trazado 880408" d="M233.33,305.66H267.3a5.708,5.708,0,0,0,5.708-5.708V281.185l-5.277-4.725-14.665,15.052-6.092-4.5-16.441,17.909A5.672,5.672,0,0,0,233.33,305.66Z" transform="translate(-116.984 -140.29)" fill="none" stroke="#263238" stroke-miterlimit="10" stroke-width="1"/>
            <path id="Trazado_880409" data-name="Trazado 880409" d="M249.356,274.266a3.855,3.855,0,1,1-3.855-3.855,3.855,3.855,0,0,1,3.855,3.855" transform="translate(-122.624 -137.221)" fill="#13de61"/>
            <circle id="Elipse_11546" data-name="Elipse 11546" cx="3.855" cy="3.855" r="3.855" transform="translate(119.023 133.19)" fill="none" stroke="#263238" stroke-miterlimit="10" stroke-width="1"/>
            <path id="Trazado_880410" data-name="Trazado 880410" d="M243.841,134.876h-49.46A6.873,6.873,0,0,1,187.508,128V84.275a5.169,5.169,0,0,1,5.169-5.169h53.329a5.169,5.169,0,0,1,5.169,5.169v43.267a7.334,7.334,0,0,1-7.334,7.334" transform="translate(-95.151 -40.143)" fill="#fff"/>
            <path id="Trazado_880411" data-name="Trazado 880411" d="M243.841,134.876h-49.46A6.873,6.873,0,0,1,187.508,128V84.275a5.169,5.169,0,0,1,5.169-5.169h53.329a5.169,5.169,0,0,1,5.169,5.169v43.267A7.334,7.334,0,0,1,243.841,134.876Z" transform="translate(-95.151 -40.143)" fill="none" stroke="#263238" stroke-miterlimit="10" stroke-width="1"/>
            <path id="Trazado_880412" data-name="Trazado 880412" d="M199.717,150.13H247.37a8.007,8.007,0,0,0,8.007-8.007V115.8l-7.4-6.63L227.4,130.282l-8.547-6.31L195.79,149.1a7.965,7.965,0,0,0,3.927,1.033" transform="translate(-99.354 -55.397)" fill="#13de61"/>
            <path id="Trazado_880413" data-name="Trazado 880413" d="M199.717,150.13H247.37a8.007,8.007,0,0,0,8.007-8.007V115.8l-7.4-6.63L227.4,130.282l-8.547-6.31L195.79,149.1A7.965,7.965,0,0,0,199.717,150.13Z" transform="translate(-99.354 -55.397)" fill="none" stroke="#263238" stroke-miterlimit="10" stroke-width="1"/>
            <path id="Trazado_880414" data-name="Trazado 880414" d="M222.2,106.088a5.408,5.408,0,1,1-5.408-5.408,5.407,5.407,0,0,1,5.408,5.408" transform="translate(-107.268 -51.09)" fill="#13de61"/>
            <circle id="Elipse_11547" data-name="Elipse 11547" cx="5.408" cy="5.408" r="5.408" transform="matrix(0.924, -0.383, 0.383, 0.924, 102.459, 52.071)" fill="none" stroke="#263238" stroke-miterlimit="10" stroke-width="1"/>
            <rect id="Rectángulo_405555" data-name="Rectángulo 405555" width="5.024" height="39.175" transform="translate(162.962 39.725)" fill="#d1d1d1"/>
            <rect id="Rectángulo_405556" data-name="Rectángulo 405556" width="5.024" height="39.175" transform="translate(162.962 39.725)" fill="none" stroke="#263238" stroke-miterlimit="10" stroke-width="1"/>
            <rect id="Rectángulo_405557" data-name="Rectángulo 405557" width="167.739" height="9.104" transform="translate(0.246 16.577)" fill="#13de61"/>
            <rect id="Rectángulo_405558" data-name="Rectángulo 405558" width="167.739" height="9.104" transform="translate(0.246 16.577)" fill="none" stroke="#263238" stroke-miterlimit="10" stroke-width="1"/>
            <path id="Trazado_880415" data-name="Trazado 880415" d="M304.138,41.334a1.407,1.407,0,1,1-1.407-1.407,1.407,1.407,0,0,1,1.407,1.407" transform="translate(-152.908 -20.261)" fill="#fff"/>
            <circle id="Elipse_11548" data-name="Elipse 11548" cx="1.407" cy="1.407" r="1.407" transform="translate(148.131 22.119) rotate(-76.718)" fill="none" stroke="#263238" stroke-miterlimit="10" stroke-width="1"/>
            <path id="Trazado_880416" data-name="Trazado 880416" d="M317,41.334a1.407,1.407,0,1,1-1.407-1.407A1.407,1.407,0,0,1,317,41.334" transform="translate(-159.432 -20.261)" fill="#fff"/>
            <circle id="Elipse_11549" data-name="Elipse 11549" cx="1.407" cy="1.407" r="1.407" transform="translate(154.463 22.119) rotate(-76.718)" fill="none" stroke="#263238" stroke-miterlimit="10" stroke-width="1"/>
            <path id="Trazado_880417" data-name="Trazado 880417" d="M329.852,41.334a1.407,1.407,0,1,1-1.407-1.407,1.407,1.407,0,0,1,1.407,1.407" transform="translate(-165.956 -20.261)" fill="#263238"/>
            <circle id="Elipse_11550" data-name="Elipse 11550" cx="1.407" cy="1.407" r="1.407" transform="translate(160.796 22.119) rotate(-76.718)" fill="none" stroke="#263238" stroke-miterlimit="10" stroke-width="1"/>
            <line id="Línea_3825" data-name="Línea 3825" x2="60.621" transform="translate(9.627 43.448)" fill="none" stroke="#263238" stroke-miterlimit="10" stroke-width="3"/>
            <line id="Línea_3826" data-name="Línea 3826" x2="60.621" transform="translate(9.627 75.158)" fill="none" stroke="#263238" stroke-miterlimit="10" stroke-width="1"/>
            <line id="Línea_3827" data-name="Línea 3827" x2="60.621" transform="translate(9.627 82.647)" fill="none" stroke="#263238" stroke-miterlimit="10" stroke-width="1"/>
            <line id="Línea_3828" data-name="Línea 3828" x2="60.621" transform="translate(9.627 91.119)" fill="none" stroke="#263238" stroke-miterlimit="10" stroke-width="1"/>
            <line id="Línea_3829" data-name="Línea 3829" x2="74.171" transform="translate(9.627 56.642)" fill="none" stroke="#263238" stroke-miterlimit="10" stroke-width="3"/>
          </g>
        </g>
        <g id="Grupo_1102298" data-name="Grupo 1102298">
          <g id="Grupo_1102297" data-name="Grupo 1102297" clip-path="url(#clip-path)">
            <path id="Trazado_880418" data-name="Trazado 880418" d="M97.484,154.206a17.78,17.78,0,0,1,1.292,3.876,5.7,5.7,0,0,0,1.908,3.631.812.812,0,0,1,.062,1.415,4.435,4.435,0,0,1-.985.554s-.246,4.861-.923,5.476-3.384-.307-3.384-.307-3.938-5.23-4.061-7.507,3.754-5.846,3.754-5.846,1.6-2.215,2.338-1.292" transform="translate(-46.376 -78.138)" fill="#fff"/>
            <path id="Trazado_880419" data-name="Trazado 880419" d="M97.484,154.206a17.78,17.78,0,0,1,1.292,3.876,5.7,5.7,0,0,0,1.908,3.631.812.812,0,0,1,.062,1.415,4.435,4.435,0,0,1-.985.554s-.246,4.861-.923,5.476-3.384-.307-3.384-.307-3.938-5.23-4.061-7.507,3.754-5.846,3.754-5.846S96.746,153.283,97.484,154.206Z" transform="translate(-46.376 -78.138)" fill="none" stroke="#263238" stroke-miterlimit="10" stroke-width="1"/>
            <path id="Trazado_880420" data-name="Trazado 880420" d="M104.743,164.245c.043.525-.032.959-.167.971s-.28-.406-.323-.931.032-.959.167-.97S104.7,163.72,104.743,164.245Z" transform="translate(-52.897 -82.874)" fill="none" stroke="#263238" stroke-miterlimit="10" stroke-width="1"/>
            <path id="Trazado_880421" data-name="Trazado 880421" d="M102.7,160.786s.4-.824,1.133-.722" transform="translate(-52.115 -81.22)" fill="none" stroke="#263238" stroke-linecap="round" stroke-linejoin="round" stroke-width="1"/>
            <path id="Trazado_880422" data-name="Trazado 880422" d="M104.388,173.8a2.849,2.849,0,0,0,1.292.738" transform="translate(-52.972 -88.196)" fill="none" stroke="#263238" stroke-linecap="round" stroke-linejoin="round" stroke-width="1"/>
            <path id="Trazado_880423" data-name="Trazado 880423" d="M149.8,207.086l7.013-5.255a17.343,17.343,0,0,1,.754-3.015,20.741,20.741,0,0,1,1.884-1.7c.188-.252.565-2.2,1.067-2.01s.817.44.754,1.068a5.566,5.566,0,0,1-1.005,2.135,4.125,4.125,0,0,0-.565,1.13s7.474-4.082,7.976-3.894.5.5.377.754-4.522,3.266-4.522,3.266l.565.5,5.213-1.633s.817.126.628.565-5.4,2.826-5.4,2.826l.628.44,4.522-.628a.651.651,0,0,1-.188.817,36.872,36.872,0,0,1-4.46,1.633l2.889.628s.314.5,0,.754-3.894-.063-3.894-.063l-5.778-.126-5.868,6.865Z" transform="translate(-76.016 -99.003)" fill="#fff"/>
            <path id="Trazado_880424" data-name="Trazado 880424" d="M149.8,207.086l7.013-5.255a17.343,17.343,0,0,1,.754-3.015,20.741,20.741,0,0,1,1.884-1.7c.188-.252.565-2.2,1.067-2.01s.817.44.754,1.068a5.566,5.566,0,0,1-1.005,2.135,4.125,4.125,0,0,0-.565,1.13s7.474-4.082,7.976-3.894.5.5.377.754-4.522,3.266-4.522,3.266l.565.5,5.213-1.633s.817.126.628.565-5.4,2.826-5.4,2.826l.628.44,4.522-.628a.651.651,0,0,1-.188.817,36.872,36.872,0,0,1-4.46,1.633l2.889.628s.314.5,0,.754-3.894-.063-3.894-.063l-5.778-.126-5.868,6.865Z" transform="translate(-76.016 -99.003)" fill="none" stroke="#263238" stroke-miterlimit="10" stroke-width="1"/>
            <path id="Trazado_880425" data-name="Trazado 880425" d="M21.886,207.99,17.343,200.5a17.336,17.336,0,0,0,.427-3.078,20.753,20.753,0,0,0-1.115-2.277c-.081-.3.3-2.25-.239-2.263s-.922.1-1.1.709a5.56,5.56,0,0,0,.135,2.356,4.141,4.141,0,0,1,.1,1.26s-5.408-6.578-5.945-6.591-.654.278-.631.558,2.974,4.719,2.974,4.719l-.712.255-4.226-3.462s-.8-.189-.794.29,3.955,4.639,3.955,4.639l-.747.173-3.96-2.272a.651.651,0,0,0-.13.828,36.849,36.849,0,0,0,3.526,3.18l-2.914-.5s-.479.349-.282.7,3.636,1.4,3.636,1.4l5.407,2.042,3.061,7.867Z" transform="translate(-2.663 -96.726)" fill="#fff"/>
            <path id="Trazado_880426" data-name="Trazado 880426" d="M21.886,207.99,17.343,200.5a17.336,17.336,0,0,0,.427-3.078,20.753,20.753,0,0,0-1.115-2.277c-.081-.3.3-2.25-.239-2.263s-.922.1-1.1.709a5.56,5.56,0,0,0,.135,2.356,4.141,4.141,0,0,1,.1,1.26s-5.408-6.578-5.945-6.591-.654.278-.631.558,2.974,4.719,2.974,4.719l-.712.255-4.226-3.462s-.8-.189-.794.29,3.955,4.639,3.955,4.639l-.747.173-3.96-2.272a.651.651,0,0,0-.13.828,36.849,36.849,0,0,0,3.526,3.18l-2.914-.5s-.479.349-.282.7,3.636,1.4,3.636,1.4l5.407,2.042,3.061,7.867Z" transform="translate(-2.663 -96.726)" fill="none" stroke="#263238" stroke-miterlimit="10" stroke-width="1"/>
            <path id="Trazado_880427" data-name="Trazado 880427" d="M60.419,280.97a70.742,70.742,0,0,0,.409,9.4c.545,3.816,5.452,28.759,5.452,28.759a31.472,31.472,0,0,0-2.317,9.132c-.545,5.316,0,25.624,0,25.624s-.582,5.173-.3,5.453a1.73,1.73,0,0,0,1.122.561h7.638s.841-.491.63-1.191-2.593-2.312-2.8-2.663-1.471-2.172-1.541-2.452,1.471-10.511,1.471-10.511,4.274-19.831,4.555-21.443.561-2.943.631-3.573,1.542-22.7,1.542-22.7l2.032.351L91.114,319.04s.662,7.571,1.987,10.6,7.344,14.722,7.344,14.722l2.082,7s-2.46,3.407-1.987,3.88a43.12,43.12,0,0,0,3.975,2.555c1.23.757,5.395,3.5,8.234,3.5s3.123-1.136,2.744-1.609a26.268,26.268,0,0,0-3.691-2.082s-3.691-6.246-4.07-7.382-3.937-20.779-5.83-26.362-2.555-7.571-2.555-7.571-.582-9.654-2-17.51-3.975-16.846-5.678-19.59c0,0-15.838,6.484-31.248,1.775" transform="translate(-30.652 -141.678)" fill="#263238"/>
            <path id="Trazado_880428" data-name="Trazado 880428" d="M60.419,280.97a70.742,70.742,0,0,0,.409,9.4c.545,3.816,5.452,28.759,5.452,28.759a31.472,31.472,0,0,0-2.317,9.132c-.545,5.316,0,25.624,0,25.624s-.582,5.173-.3,5.453a1.73,1.73,0,0,0,1.122.561h7.638s.841-.491.63-1.191-2.593-2.312-2.8-2.663-1.471-2.172-1.541-2.452,1.471-10.511,1.471-10.511,4.274-19.831,4.555-21.443.561-2.943.631-3.573,1.542-22.7,1.542-22.7l2.032.351L91.114,319.04s.662,7.571,1.987,10.6,7.344,14.722,7.344,14.722l2.082,7s-2.46,3.407-1.987,3.88a43.12,43.12,0,0,0,3.975,2.555c1.23.757,5.395,3.5,8.234,3.5s3.123-1.136,2.744-1.609a26.268,26.268,0,0,0-3.691-2.082s-3.691-6.246-4.07-7.382-3.937-20.779-5.83-26.362-2.555-7.571-2.555-7.571-.582-9.654-2-17.51-3.975-16.846-5.678-19.59C91.667,279.2,75.829,285.679,60.419,280.97Z" transform="translate(-30.652 -141.678)" fill="none" stroke="#263238" stroke-miterlimit="10" stroke-width="1"/>
            <path id="Trazado_880429" data-name="Trazado 880429" d="M152.5,422.8s-3.691-6.246-4.069-7.382c-.146-.438-.814-3.653-1.687-7.754a16.006,16.006,0,0,1-6.136.884c.334.626.535,1,.535,1l2.082,7s-2.461,3.407-1.987,3.88a42.938,42.938,0,0,0,3.975,2.555c1.23.757,5.394,3.5,8.233,3.5s3.123-1.136,2.745-1.609A26.247,26.247,0,0,0,152.5,422.8" transform="translate(-71.354 -206.873)" fill="#fff"/>
            <path id="Trazado_880430" data-name="Trazado 880430" d="M152.5,422.8s-3.691-6.246-4.069-7.382c-.146-.438-.814-3.653-1.687-7.754a16.006,16.006,0,0,1-6.136.884c.334.626.535,1,.535,1l2.082,7s-2.461,3.407-1.987,3.88a42.938,42.938,0,0,0,3.975,2.555c1.23.757,5.394,3.5,8.233,3.5s3.123-1.136,2.745-1.609A26.247,26.247,0,0,0,152.5,422.8Z" transform="translate(-71.354 -206.873)" fill="none" stroke="#263238" stroke-miterlimit="10" stroke-width="1"/>
            <path id="Trazado_880431" data-name="Trazado 880431" d="M156.782,434.784a26.242,26.242,0,0,0-3.691-2.082s-4.673-2.14-6.327-3.587a13.994,13.994,0,0,0-3.444-1.944c-.692,1.026-1.826,2.829-1.491,3.164a42.938,42.938,0,0,0,3.975,2.555c1.23.757,5.394,3.5,8.234,3.5s3.123-1.135,2.744-1.609" transform="translate(-71.941 -216.77)" fill="#13de61"/>
            <path id="Trazado_880432" data-name="Trazado 880432" d="M156.782,434.784a26.242,26.242,0,0,0-3.691-2.082s-4.673-2.14-6.327-3.587a13.994,13.994,0,0,0-3.444-1.944c-.692,1.026-1.826,2.829-1.491,3.164a42.938,42.938,0,0,0,3.975,2.555c1.23.757,5.394,3.5,8.234,3.5S157.161,435.258,156.782,434.784Z" transform="translate(-71.941 -216.77)" fill="none" stroke="#263238" stroke-miterlimit="10" stroke-width="1"/>
            <path id="Trazado_880433" data-name="Trazado 880433" d="M75.7,427.346s.841-.491.63-1.191-2.593-2.312-2.8-2.663-1.472-2.172-1.542-2.452c-.052-.207.777-5.853,1.213-8.782l-6.141-.159c.072,5.059.184,9.234.184,9.234s-.582,5.173-.3,5.453a1.729,1.729,0,0,0,1.121.561Z" transform="translate(-33.929 -209.121)" fill="#fff"/>
            <path id="Trazado_880434" data-name="Trazado 880434" d="M75.7,427.346s.841-.491.63-1.191-2.593-2.312-2.8-2.663-1.472-2.172-1.542-2.452c-.052-.207.777-5.853,1.213-8.782l-6.141-.159c.072,5.059.184,9.234.184,9.234s-.582,5.173-.3,5.453a1.729,1.729,0,0,0,1.121.561Z" transform="translate(-33.929 -209.121)" fill="none" stroke="#263238" stroke-miterlimit="10" stroke-width="1"/>
            <path id="Trazado_880435" data-name="Trazado 880435" d="M76.328,437.142c-.176-.586-1.868-1.807-2.541-2.4a2.615,2.615,0,0,0-1.024-.118c-.76.149-.62-.206-2.479-.62a13.033,13.033,0,0,0-3.194-.247,17.894,17.894,0,0,0-.153,4.011,1.731,1.731,0,0,0,1.122.561H75.7s.841-.491.63-1.191" transform="translate(-33.929 -220.107)" fill="#13de61"/>
            <path id="Trazado_880436" data-name="Trazado 880436" d="M76.328,437.142c-.176-.586-1.868-1.807-2.541-2.4a2.615,2.615,0,0,0-1.024-.118c-.76.149-.62-.206-2.479-.62a13.033,13.033,0,0,0-3.194-.247,17.894,17.894,0,0,0-.153,4.011,1.731,1.731,0,0,0,1.122.561H75.7S76.539,437.843,76.328,437.142Z" transform="translate(-33.929 -220.107)" fill="none" stroke="#263238" stroke-miterlimit="10" stroke-width="1"/>
            <path id="Trazado_880437" data-name="Trazado 880437" d="M59.388,194.623l-9.857,6.469,8.009,19.817L52.526,244.5s6.161,5.648,17.866,4.621a29.869,29.869,0,0,0,18.174-7.906L80.437,220.5l1.129-8.009s9.344,7.906,10.165,7.6a74.172,74.172,0,0,0,6.994-3.335,11.088,11.088,0,0,0,1.131-1.847l2.786-2.482-3.5-6.392-2.889,2.043a3.517,3.517,0,0,0-1.746.1c-.719.308-3.7,1.643-3.7,1.643L82.9,197.19l-11.4-2.978Z" transform="translate(-25.135 -98.553)" fill="#13de61"/>
            <path id="Trazado_880438" data-name="Trazado 880438" d="M59.388,194.623l-9.857,6.469,8.009,19.817L52.526,244.5s6.161,5.648,17.866,4.621a29.869,29.869,0,0,0,18.174-7.906L80.437,220.5l1.129-8.009s9.344,7.906,10.165,7.6a74.172,74.172,0,0,0,6.994-3.335,11.088,11.088,0,0,0,1.131-1.847l2.786-2.482-3.5-6.392-2.889,2.043a3.517,3.517,0,0,0-1.746.1c-.719.308-3.7,1.643-3.7,1.643L82.9,197.19l-11.4-2.978Z" transform="translate(-25.135 -98.553)" fill="none" stroke="#263238" stroke-miterlimit="10" stroke-width="1"/>
            <path id="Trazado_880439" data-name="Trazado 880439" d="M81.3,146.751s2.1-.526,2.419-2.314-2.525-4.839-5.154-5.365-3.156,1.262-4.523,1.262-4.524-.736-7.468,1.157-4.208,4.1-4.208,6.416.316,4.313.316,6.1-3.471,4.1-4,7.258a5.479,5.479,0,0,0,3.682,6c1.893.631,1.788,3.051,6.627,4.1s8.731-1.894,9.467-4,4.313-4.1,2.524-8.2-4.839-4.944-4.313-6.417,3.262-1.578,3.893-3.471a20.826,20.826,0,0,0,.736-2.525" transform="translate(-29.743 -70.523)" fill="#263238"/>
            <path id="Trazado_880440" data-name="Trazado 880440" d="M81.3,146.751s2.1-.526,2.419-2.314-2.525-4.839-5.154-5.365-3.156,1.262-4.523,1.262-4.524-.736-7.468,1.157-4.208,4.1-4.208,6.416.316,4.313.316,6.1-3.471,4.1-4,7.258a5.479,5.479,0,0,0,3.682,6c1.893.631,1.788,3.051,6.627,4.1s8.731-1.894,9.467-4,4.313-4.1,2.524-8.2-4.839-4.944-4.313-6.417,3.262-1.578,3.893-3.471A20.826,20.826,0,0,0,81.3,146.751Z" transform="translate(-29.743 -70.523)" fill="none" stroke="#263238" stroke-miterlimit="10" stroke-width="1"/>
            <path id="Trazado_880441" data-name="Trazado 880441" d="M39.085,208.179l-2.772,9.549-.925-1.232a6.691,6.691,0,0,0-4.312,1.027c-1.746,1.335-2.361,3.286-2.053,3.594a21.839,21.839,0,0,1,1.335,2.053s-.616,2.156.205,3.389,5.647,5.031,6.982,4.825,6.879-10.678,6.879-10.678-3.286-10.884-5.339-12.526" transform="translate(-14.689 -105.641)" fill="#13de61"/>
            <path id="Trazado_880442" data-name="Trazado 880442" d="M39.085,208.179l-2.772,9.549-.925-1.232a6.691,6.691,0,0,0-4.312,1.027c-1.746,1.335-2.361,3.286-2.053,3.594a21.839,21.839,0,0,1,1.335,2.053s-.616,2.156.205,3.389,5.647,5.031,6.982,4.825,6.879-10.678,6.879-10.678S41.138,209.822,39.085,208.179Z" transform="translate(-14.689 -105.641)" fill="none" stroke="#263238" stroke-miterlimit="10" stroke-width="1"/>
            <line id="Línea_3830" data-name="Línea 3830" x1="2.773" y2="5.75" transform="translate(18.851 112.087)" fill="none" stroke="#263238" stroke-miterlimit="10" stroke-width="1"/>
            <line id="Línea_3831" data-name="Línea 3831" y1="2.362" x2="2.156" transform="translate(18.03 114.756)" fill="none" stroke="#263238" stroke-miterlimit="10" stroke-width="1"/>
            <line id="Línea_3832" data-name="Línea 3832" x1="5.031" y1="4.621" transform="translate(24.704 110.444)" fill="none" stroke="#263238" stroke-miterlimit="10" stroke-width="1"/>
            <line id="Línea_3833" data-name="Línea 3833" x2="2.259" y2="0.924" transform="translate(24.807 113.627)" fill="none" stroke="#263238" stroke-miterlimit="10" stroke-width="1"/>
            <path id="Trazado_880443" data-name="Trazado 880443" d="M77.881,239.24s9.96,5.75,12.526,7.29" transform="translate(-39.521 -121.403)" fill="none" stroke="#263238" stroke-miterlimit="10" stroke-width="1"/>
            <line id="Línea_3834" data-name="Línea 3834" x2="6.469" y2="3.594" transform="translate(43.289 122.765)" fill="none" stroke="#263238" stroke-miterlimit="10" stroke-width="1"/>
            <line id="Línea_3835" data-name="Línea 3835" y1="10.986" x2="1.129" transform="translate(56.431 102.949)" fill="none" stroke="#263238" stroke-miterlimit="10" stroke-width="1"/>
            <line id="Línea_3836" data-name="Línea 3836" x1="1.848" y2="6.366" transform="translate(57.561 106.029)" fill="none" stroke="#263238" stroke-miterlimit="10" stroke-width="1"/>
            <line id="Línea_3837" data-name="Línea 3837" x2="3.08" y2="3.388" transform="translate(65.672 111.266)" fill="none" stroke="#263238" stroke-miterlimit="10" stroke-width="1"/>
            <line id="Línea_3838" data-name="Línea 3838" x1="2.567" y1="1.027" transform="translate(66.801 112.395)" fill="none" stroke="#263238" stroke-miterlimit="10" stroke-width="1"/>
            <line id="Línea_3839" data-name="Línea 3839" x2="2.259" y2="3.388" transform="translate(71.011 110.958)" fill="none" stroke="#263238" stroke-miterlimit="10" stroke-width="1"/>
            <path id="Trazado_880444" data-name="Trazado 880444" d="M31.811,234.489a7.747,7.747,0,0,1,4.415-4" transform="translate(-16.143 -116.96)" fill="none" stroke="#263238" stroke-miterlimit="10" stroke-width="1"/>
          </g>
        </g>
        <path id="Trazado_880445" data-name="Trazado 880445" d="M252.542,402.968H215.73v-3.907l-4.876,2.815-4.875,2.814,4.875,2.815,4.876,2.815v-3.907h36.812Z" transform="translate(-104.525 -202.505)" fill="#13de61"/>
        <path id="Trazado_880446" data-name="Trazado 880446" d="M252.542,402.968H215.73v-3.907l-4.876,2.815-4.875,2.814,4.875,2.815,4.876,2.815v-3.907h36.812Z" transform="translate(-104.525 -202.505)" fill="none" stroke="#263238" stroke-miterlimit="10" stroke-width="1"/>
        <path id="Trazado_880447" data-name="Trazado 880447" d="M505.773,108.481l-10.349-7.245V97.03l10.349-7.245v4.707l-6.442,4.64,6.442,4.641Z" transform="translate(-251.404 -45.562)" fill="#263238"/>
        <path id="Trazado_880448" data-name="Trazado 880448" d="M523.214,106.659,531.5,79.616h2.937l-8.314,27.044Z" transform="translate(-265.507 -40.401)" fill="#263238"/>
        <path id="Trazado_880449" data-name="Trazado 880449" d="M552.566,108.481v-4.707l6.475-4.673-6.475-4.608V89.785l10.349,7.245v4.206Z" transform="translate(-280.401 -45.562)" fill="#263238"/>
        <g id="Grupo_1102300" data-name="Grupo 1102300">
          <g id="Grupo_1102299" data-name="Grupo 1102299" clip-path="url(#clip-path)">
            <path id="Trazado_880450" data-name="Trazado 880450" d="M611.488,295.816V284.69h3.736a3.231,3.231,0,0,1,1.649.378,2.308,2.308,0,0,1,.962,1.1,4.359,4.359,0,0,1,.316,1.751,3.743,3.743,0,0,1-.426,1.971,2.214,2.214,0,0,1-1.154.941,4.821,4.821,0,0,1-1.634.261h-.989v4.725Zm2.459-6.442h.825a1.184,1.184,0,0,0,.687-.165.8.8,0,0,0,.309-.495,3.853,3.853,0,0,0,.076-.838,4,4,0,0,0-.062-.749.851.851,0,0,0-.3-.515,1.134,1.134,0,0,0-.727-.192h-.811Z" transform="translate(-310.301 -144.467)" fill="#263238"/>
            <path id="Trazado_880451" data-name="Trazado 880451" d="M627.273,295.816V284.69h2.459V289.2h1.717V284.69h2.472v11.126h-2.472v-4.862h-1.717v4.862Z" transform="translate(-318.311 -144.467)" fill="#263238"/>
            <path id="Trazado_880452" data-name="Trazado 880452" d="M644.2,295.816V284.69h3.736a3.231,3.231,0,0,1,1.649.378,2.3,2.3,0,0,1,.961,1.1,4.359,4.359,0,0,1,.316,1.751,3.742,3.742,0,0,1-.426,1.971,2.214,2.214,0,0,1-1.154.941,4.821,4.821,0,0,1-1.634.261h-.989v4.725Zm2.459-6.442h.824a1.186,1.186,0,0,0,.687-.165.8.8,0,0,0,.309-.495,3.848,3.848,0,0,0,.076-.838,4,4,0,0,0-.062-.749.85.85,0,0,0-.3-.515,1.135,1.135,0,0,0-.728-.192h-.81Z" transform="translate(-326.901 -144.467)" fill="#263238"/>
            <path id="Trazado_880453" data-name="Trazado 880453" d="M437.178,410.739a4.945,4.945,0,0,1-2.641-.608,3.273,3.273,0,0,1-1.371-1.707,7.567,7.567,0,0,1-.4-2.587v-5.3a7.685,7.685,0,0,1,.4-2.623,3.225,3.225,0,0,1,1.371-1.7,5,5,0,0,1,2.641-.6,5.081,5.081,0,0,1,2.551.535,2.956,2.956,0,0,1,1.3,1.5,5.974,5.974,0,0,1,.382,2.215v1.271h-3.177v-1.47a7.456,7.456,0,0,0-.046-.835,1.233,1.233,0,0,0-.263-.662.92.92,0,0,0-.745-.264.963.963,0,0,0-.753.272,1.285,1.285,0,0,0-.309.681,5.623,5.623,0,0,0-.064.862v6.917a4.611,4.611,0,0,0,.082.9,1.24,1.24,0,0,0,.327.654.97.97,0,0,0,.717.245.892.892,0,0,0,.727-.264,1.3,1.3,0,0,0,.272-.681,6.473,6.473,0,0,0,.055-.853v-1.543h3.177v1.271a6.33,6.33,0,0,1-.372,2.242,3.073,3.073,0,0,1-1.289,1.561,4.855,4.855,0,0,1-2.569.572" transform="translate(-219.608 -200.756)" fill="#263238"/>
            <path id="Trazado_880454" data-name="Trazado 880454" d="M455.285,410.56v-2.905H452.67v-1.724h2.615V403.1h1.96v2.832h2.633v1.724h-2.633v2.905Z" transform="translate(-229.708 -204.553)" fill="#263238"/>
            <path id="Trazado_880455" data-name="Trazado 880455" d="M471.8,410.56v-2.905h-2.615v-1.724H471.8V403.1h1.96v2.832h2.633v1.724h-2.633v2.905Z" transform="translate(-238.088 -204.553)" fill="#263238"/>
            <path id="Trazado_880456" data-name="Trazado 880456" d="M577.465,142.205v-1.1a2.611,2.611,0,0,0,.4-.027.57.57,0,0,0,.263-.1.419.419,0,0,0,.14-.219,1.317,1.317,0,0,0,.044-.373v-5.477h1.57v5.547a2.8,2.8,0,0,1-.145.97,1.055,1.055,0,0,1-.5.584,2.165,2.165,0,0,1-1.009.193Z" transform="translate(-293.036 -68.461)" fill="#263238"/>
            <path id="Trazado_880457" data-name="Trazado 880457" d="M583.827,142.02l1.343-7.109h1.791l1.324,7.109h-1.448l-.237-1.5h-1.044l-.246,1.5Zm1.869-2.44h.755l-.377-2.774Z" transform="translate(-296.265 -68.461)" fill="#263238"/>
            <path id="Trazado_880458" data-name="Trazado 880458" d="M594.39,142.021l-1.282-7.109h1.343l.763,4.827.711-4.827h1.422l-1.3,7.109Z" transform="translate(-300.974 -68.461)" fill="#263238"/>
            <path id="Trazado_880459" data-name="Trazado 880459" d="M601.912,142.02l1.343-7.109h1.791l1.324,7.109h-1.448l-.237-1.5h-1.044l-.246,1.5Zm1.869-2.44h.755l-.377-2.774Z" transform="translate(-305.442 -68.461)" fill="#263238"/>
          </g>
        </g>
      </g>
    </g>
  </g>
</svg>
