<svg xmlns="http://www.w3.org/2000/svg" width="113" height="112" viewBox="0 0 113 112">
  <g id="Grupo_1102421" data-name="Grupo 1102421" transform="translate(-203 -894)">
    <rect id="Rectángulo_405563" data-name="Rectángulo 405563" width="113" height="112" rx="15" transform="translate(203 894)" fill="#5e3552"/>
    <g id="Layer_49" transform="translate(212 909)">
      <g id="Grupo_1102420" data-name="Grupo 1102420" transform="translate(10)">
        <g id="Grupo_1102305" data-name="Grupo 1102305" transform="translate(0.803 0.803)">
          <g id="Grupo_1102304" data-name="Grupo 1102304">
            <path id="Trazado_880460" data-name="Trazado 880460" d="M37.78,2.5H14.207A1.712,1.712,0,0,0,12.5,4.207v35.46a1.712,1.712,0,0,0,1.707,1.707H37.78a1.712,1.712,0,0,0,1.707-1.707V4.207A1.712,1.712,0,0,0,37.78,2.5Z" transform="translate(-12.5 -2.5)" fill="#edf4fc"/>
          </g>
        </g>
        <g id="Grupo_1102307" data-name="Grupo 1102307" transform="translate(48.032 0.803)">
          <g id="Grupo_1102306" data-name="Grupo 1102306" transform="translate(0)">
            <path id="Trazado_880461" data-name="Trazado 880461" d="M184.781,2.5H161.208A1.712,1.712,0,0,0,159.5,4.207v35.46a1.712,1.712,0,0,0,1.707,1.707h23.573a1.712,1.712,0,0,0,1.707-1.707V4.207A1.712,1.712,0,0,0,184.781,2.5Z" transform="translate(-159.501 -2.5)" fill="#edf4fc"/>
          </g>
        </g>
        <g id="Grupo_1102309" data-name="Grupo 1102309" transform="translate(20.482 14.618)">
          <g id="Grupo_1102308" data-name="Grupo 1102308">
            <path id="Trazado_880462" data-name="Trazado 880462" d="M103.009,70.56a1.712,1.712,0,0,1-1.707-1.707V45.5H81.061V68.853a1.712,1.712,0,0,1-1.707,1.707h-5.6v31.127a5.814,5.814,0,0,0,5.807,5.807H102.8a5.8,5.8,0,0,0,1.271-.145l-1-1.713a6.559,6.559,0,0,0-2.853-2.589,20.2,20.2,0,0,1-3.028-1.782l-4.84-3.412a1.714,1.714,0,0,1,1.721-2.947l3.479,1.755a.146.146,0,0,0,.188-.206L90.916,84.632l-.027-.047a1.64,1.64,0,0,1,2.84-1.64L98,90.343a1.688,1.688,0,0,1,.429-2.214,1.64,1.64,0,0,1,2.376.513l.056.1a1.64,1.64,0,0,1,.744-2.314,1.688,1.688,0,0,1,2.132.735l.02.035a1.641,1.641,0,0,1,.744-2.314,1.688,1.688,0,0,1,2.132.735l1.976,3.423V70.56Z" transform="translate(-73.752 -45.5)" fill="#5290db"/>
          </g>
        </g>
        <g id="Grupo_1102311" data-name="Grupo 1102311" transform="translate(4.498 4.498)">
          <g id="Grupo_1102310" data-name="Grupo 1102310">
            <path id="Trazado_880463" data-name="Trazado 880463" d="M31.46,14H24.572a.572.572,0,0,0-.572.572V22.1a.572.572,0,0,0,.572.572H31.46a.572.572,0,0,0,.572-.572v-7.53A.572.572,0,0,0,31.46,14Z" transform="translate(-24 -14)" fill="#b598f9"/>
          </g>
        </g>
        <g id="Grupo_1102313" data-name="Grupo 1102313" transform="translate(16.064 4.498)">
          <g id="Grupo_1102312" data-name="Grupo 1102312">
            <path id="Trazado_880464" data-name="Trazado 880464" d="M67.46,14H60.572a.572.572,0,0,0-.572.572V26.922a.572.572,0,0,0,.572.572H67.46a.572.572,0,0,0,.572-.572V14.572A.572.572,0,0,0,67.46,14Z" transform="translate(-60 -14)" fill="#fc657e"/>
          </g>
        </g>
        <g id="Grupo_1102315" data-name="Grupo 1102315" transform="translate(16.064 24.257)">
          <g id="Grupo_1102314" data-name="Grupo 1102314">
            <path id="Trazado_880465" data-name="Trazado 880465" d="M67.46,75.5H60.572a.572.572,0,0,0-.572.572V83.6a.572.572,0,0,0,.572.572H67.46a.572.572,0,0,0,.572-.572v-7.53A.572.572,0,0,0,67.46,75.5Z" transform="translate(-60 -75.5)" fill="#70d6f9"/>
          </g>
        </g>
        <g id="Grupo_1102317" data-name="Grupo 1102317" transform="translate(4.498 19.438)">
          <g id="Grupo_1102316" data-name="Grupo 1102316">
            <path id="Trazado_880466" data-name="Trazado 880466" d="M31.46,60.5H24.572a.572.572,0,0,0-.572.572V73.422a.572.572,0,0,0,.572.572H31.46a.572.572,0,0,0,.572-.572V61.072A.572.572,0,0,0,31.46,60.5Z" transform="translate(-24 -60.5)" fill="#b2e26d"/>
          </g>
        </g>
        <g id="Grupo_1102319" data-name="Grupo 1102319" transform="translate(51.566 5.141)">
          <g id="Grupo_1102318" data-name="Grupo 1102318">
            <path id="Trazado_880467" data-name="Trazado 880467" d="M177.355,16h-6a.857.857,0,0,0-.857.857v6a.857.857,0,0,0,.857.857h6a.857.857,0,0,0,.857-.857v-6A.857.857,0,0,0,177.355,16Z" transform="translate(-170.501 -16)" fill="#fcdd86"/>
          </g>
        </g>
        <g id="Grupo_1102321" data-name="Grupo 1102321" transform="translate(51.566 16.385)">
          <g id="Grupo_1102320" data-name="Grupo 1102320">
            <path id="Trazado_880468" data-name="Trazado 880468" d="M177.355,51h-6a.857.857,0,0,0-.857.857v6a.857.857,0,0,0,.857.857h6a.857.857,0,0,0,.857-.857v-6A.857.857,0,0,0,177.355,51Z" transform="translate(-170.501 -51)" fill="#fca265"/>
          </g>
        </g>
        <g id="Grupo_1102323" data-name="Grupo 1102323" transform="translate(51.566 27.63)">
          <g id="Grupo_1102322" data-name="Grupo 1102322">
            <path id="Trazado_880469" data-name="Trazado 880469" d="M177.355,86h-6a.857.857,0,0,0-.857.857v6a.857.857,0,0,0,.857.857h6a.857.857,0,0,0,.857-.857v-6A.857.857,0,0,0,177.355,86Z" transform="translate(-170.501 -86)" fill="#f98fa6"/>
          </g>
        </g>
        <g id="Grupo_1102325" data-name="Grupo 1102325" transform="translate(23.723 17.858)">
          <g id="Grupo_1102324" data-name="Grupo 1102324">
            <path id="Trazado_880470" data-name="Trazado 880470" d="M109.853,77.4a1.712,1.712,0,0,1-1.707-1.707V55.584H105.82a.76.76,0,0,0-.76.76,2.673,2.673,0,0,1-2.673,2.673H93.665a2.673,2.673,0,0,1-2.673-2.673.76.76,0,0,0-.76-.76H87.905V75.7A1.712,1.712,0,0,1,86.2,77.4H83.837v31.127A2.575,2.575,0,0,0,86.4,111.1h22.414a6.387,6.387,0,0,0-1.75-1.207,20.2,20.2,0,0,1-3.028-1.782L99.2,104.7a1.714,1.714,0,0,1,1.721-2.947L104.4,103.5a.146.146,0,0,0,.188-.206L97.761,91.476l-.027-.047a1.64,1.64,0,0,1,2.84-1.64l4.271,7.4a1.688,1.688,0,0,1,.429-2.214,1.64,1.64,0,0,1,2.376.513l.056.1a1.64,1.64,0,0,1,.744-2.314,1.688,1.688,0,0,1,2.132.735l.02.035a1.641,1.641,0,0,1,.744-2.314,1.558,1.558,0,0,1,.868-.122V77.4Z" transform="translate(-83.837 -55.584)" fill="#b598f9"/>
          </g>
        </g>
        <g id="Grupo_1102327" data-name="Grupo 1102327" transform="translate(30.843 43.052)">
          <g id="Grupo_1102326" data-name="Grupo 1102326">
            <path id="Trazado_880471" data-name="Trazado 880471" d="M113.068,134a7.068,7.068,0,1,0,1.613,13.949L112.8,144.7l-.027-.047a1.64,1.64,0,0,1,2.84-1.64l2,3.465A7.067,7.067,0,0,0,113.068,134Z" transform="translate(-106 -134)" fill="#9be5f9"/>
          </g>
        </g>
        <g id="Grupo_1102329" data-name="Grupo 1102329" transform="translate(37.4 51.243)">
          <g id="Grupo_1102328" data-name="Grupo 1102328" transform="translate(0)">
            <path id="Trazado_880472" data-name="Trazado 880472" d="M152.717,183.143l-4.083-7.072a10.968,10.968,0,0,1-1.137-3.525,7.016,7.016,0,0,0-.785-2.041l-4.34-7.517a1.688,1.688,0,0,0-2.132-.735,1.64,1.64,0,0,0-.744,2.314l-.02-.035a1.688,1.688,0,0,0-2.132-.735,1.64,1.64,0,0,0-.744,2.314l-.056-.1a1.64,1.64,0,0,0-2.376-.513,1.687,1.687,0,0,0-.429,2.214l-4.271-7.4a1.64,1.64,0,0,0-2.84,1.64l.027.047,6.826,11.822a.146.146,0,0,1-.188.206l-3.479-1.755a1.714,1.714,0,0,0-1.721,2.947l4.84,3.412a20.185,20.185,0,0,0,3.028,1.782,6.563,6.563,0,0,1,2.853,2.589l3.559,6.108a1.165,1.165,0,0,0,1.591.425l8.326-4.807A1.164,1.164,0,0,0,152.717,183.143Z" transform="translate(-126.409 -159.496)" fill="#f9d0b4"/>
          </g>
        </g>
        <g id="Grupo_1102331" data-name="Grupo 1102331" transform="translate(34.859 47.068)">
          <g id="Grupo_1102330" data-name="Grupo 1102330" transform="translate(0)">
            <path id="Trazado_880473" data-name="Trazado 880473" d="M121.552,146.5a3.05,3.05,0,0,0-.488,6.062,1.632,1.632,0,0,1,2.941-1.2,3.048,3.048,0,0,0-2.454-4.862Z" transform="translate(-118.5 -146.5)" fill="#70d6f9"/>
          </g>
        </g>
        <g id="Grupo_1102333" data-name="Grupo 1102333" transform="translate(59.456 51.084)">
          <g id="Grupo_1102332" data-name="Grupo 1102332" transform="translate(0)">
            <path id="Trazado_880474" data-name="Trazado 880474" d="M199.2,161a2.5,2.5,0,0,1-2.006-1.961c0-.045-.09-.045-.09,0A2.5,2.5,0,0,1,195.093,161c-.045,0-.045.067,0,.09a2.5,2.5,0,0,1,2.006,1.961c0,.045.09.045.09,0a2.5,2.5,0,0,1,2.006-1.961C199.241,161.063,199.241,161,199.2,161Z" transform="translate(-195.059 -159.001)" fill="#fc657e"/>
          </g>
        </g>
        <g id="Grupo_1102335" data-name="Grupo 1102335" transform="translate(11.172 70.329)">
          <g id="Grupo_1102334" data-name="Grupo 1102334">
            <path id="Trazado_880475" data-name="Trazado 880475" d="M50.67,221.743a3.565,3.565,0,0,1-2.859-2.8c0-.064-.129-.064-.129,0a3.565,3.565,0,0,1-2.859,2.8c-.064,0-.064.1,0,.129a3.565,3.565,0,0,1,2.859,2.8c0,.064.129.064.129,0a3.565,3.565,0,0,1,2.859-2.8C50.734,221.84,50.734,221.743,50.67,221.743Z" transform="translate(-44.774 -218.9)" fill="#f5c84c"/>
          </g>
        </g>
        <g id="Grupo_1102337" data-name="Grupo 1102337" transform="translate(17.903 80.064)">
          <g id="Grupo_1102336" data-name="Grupo 1102336">
            <path id="Trazado_880476" data-name="Trazado 880476" d="M66.816,249.2a1.092,1.092,0,1,0,1.092,1.092A1.092,1.092,0,0,0,66.816,249.2Z" transform="translate(-65.724 -249.2)" fill="#87d147"/>
          </g>
        </g>
        <g id="Grupo_1102339" data-name="Grupo 1102339" transform="translate(31.397)">
          <g id="Grupo_1102338" data-name="Grupo 1102338">
            <path id="Trazado_880477" data-name="Trazado 880477" d="M108.816,0a1.092,1.092,0,1,0,1.092,1.092A1.092,1.092,0,0,0,108.816,0Z" transform="translate(-107.724)" fill="#f5c84c"/>
          </g>
        </g>
        <g id="Grupo_1102341" data-name="Grupo 1102341" transform="translate(35.896 4.498)">
          <g id="Grupo_1102340" data-name="Grupo 1102340">
            <path id="Trazado_880478" data-name="Trazado 880478" d="M126.288,15.767h-.739v-.739A1.015,1.015,0,0,0,124.521,14a1.035,1.035,0,0,0-1.028,1.028v.739h-.739a1.015,1.015,0,0,0-1.028,1.028,1.035,1.035,0,0,0,1.028,1.028h.739v.739a1.015,1.015,0,0,0,1.028,1.028,1.035,1.035,0,0,0,1.028-1.028v-.739h.739a1.015,1.015,0,0,0,1.028-1.028A1.035,1.035,0,0,0,126.288,15.767Z" transform="translate(-121.726 -14)" fill="#70d6f9"/>
          </g>
        </g>
        <g id="Grupo_1102343" data-name="Grupo 1102343" transform="translate(44.004 58.789)">
          <g id="Grupo_1102342" data-name="Grupo 1102342">
            <path id="Trazado_880479" data-name="Trazado 880479" d="M149.19,184.642l-.726-1.257a.8.8,0,0,0-1.391.8l.726,1.257a.8.8,0,0,0,1.391-.8Z" transform="translate(-146.965 -182.984)"/>
          </g>
        </g>
        <g id="Grupo_1102345" data-name="Grupo 1102345" transform="translate(46.844 57.15)">
          <g id="Grupo_1102344" data-name="Grupo 1102344">
            <path id="Trazado_880480" data-name="Trazado 880480" d="M158.029,179.538l-.726-1.257a.8.8,0,0,0-1.391.8l.726,1.257a.8.8,0,0,0,1.391-.8Z" transform="translate(-155.805 -177.88)"/>
          </g>
        </g>
        <g id="Grupo_1102347" data-name="Grupo 1102347" transform="translate(49.685 55.51)">
          <g id="Grupo_1102346" data-name="Grupo 1102346" transform="translate(0)">
            <path id="Trazado_880481" data-name="Trazado 880481" d="M166.87,174.433l-.726-1.257a.8.8,0,0,0-1.391.8l.726,1.257a.8.8,0,0,0,1.391-.8Z" transform="translate(-164.646 -172.775)"/>
          </g>
        </g>
        <g id="Grupo_1102350" data-name="Grupo 1102350">
          <g id="Grupo_1102349" data-name="Grupo 1102349">
            <g id="Grupo_1102348" data-name="Grupo 1102348">
              <path id="Trazado_880482" data-name="Trazado 880482" d="M36.084,0H12.51A2.513,2.513,0,0,0,10,2.51v35.46a2.513,2.513,0,0,0,2.51,2.51H36.083a2.513,2.513,0,0,0,2.51-2.51V2.51A2.513,2.513,0,0,0,36.084,0Zm.9,37.971a.905.905,0,0,1-.9.9H12.51a.905.905,0,0,1-.9-.9V2.51a.905.905,0,0,1,.9-.9H36.083a.905.905,0,0,1,.9.9Z" transform="translate(-10)"/>
            </g>
          </g>
        </g>
        <g id="Grupo_1102352" data-name="Grupo 1102352" transform="translate(5.958 15.582)">
          <g id="Grupo_1102351" data-name="Grupo 1102351">
            <path id="Trazado_880483" data-name="Trazado 880483" d="M32.854,48.5h-3.5a.8.8,0,0,0,0,1.606h3.5a.8.8,0,0,0,0-1.606Z" transform="translate(-28.546 -48.5)"/>
          </g>
        </g>
        <g id="Grupo_1102354" data-name="Grupo 1102354" transform="translate(5.958 35.341)">
          <g id="Grupo_1102353" data-name="Grupo 1102353">
            <path id="Trazado_880484" data-name="Trazado 880484" d="M32.854,110h-3.5a.8.8,0,1,0,0,1.606h3.5a.8.8,0,1,0,0-1.606Z" transform="translate(-28.546 -110)"/>
          </g>
        </g>
        <g id="Grupo_1102356" data-name="Grupo 1102356" transform="translate(17.525 20.401)">
          <g id="Grupo_1102355" data-name="Grupo 1102355">
            <path id="Trazado_880485" data-name="Trazado 880485" d="M68.854,63.5h-3.5a.8.8,0,0,0,0,1.606h3.5a.8.8,0,0,0,0-1.606Z" transform="translate(-64.546 -63.5)"/>
          </g>
        </g>
        <g id="Grupo_1102358" data-name="Grupo 1102358" transform="translate(17.525 35.341)">
          <g id="Grupo_1102357" data-name="Grupo 1102357">
            <path id="Trazado_880486" data-name="Trazado 880486" d="M68.854,110h-3.5a.8.8,0,1,0,0,1.606h3.5a.8.8,0,0,0,0-1.606Z" transform="translate(-64.546 -110)"/>
          </g>
        </g>
        <g id="Grupo_1102361" data-name="Grupo 1102361" transform="translate(47.228)">
          <g id="Grupo_1102360" data-name="Grupo 1102360">
            <g id="Grupo_1102359" data-name="Grupo 1102359">
              <path id="Trazado_880487" data-name="Trazado 880487" d="M183.084,0H159.511A2.513,2.513,0,0,0,157,2.51v35.46a2.513,2.513,0,0,0,2.51,2.51h23.573a2.513,2.513,0,0,0,2.51-2.51V2.51A2.513,2.513,0,0,0,183.084,0Zm.9,37.971a.905.905,0,0,1-.9.9H159.511a.905.905,0,0,1-.9-.9V2.51a.9.9,0,0,1,.9-.9h23.573a.905.905,0,0,1,.9.9Z" transform="translate(-157)"/>
            </g>
          </g>
        </g>
        <g id="Grupo_1102363" data-name="Grupo 1102363" transform="translate(19.679 39.317)">
          <g id="Grupo_1102362" data-name="Grupo 1102362">
            <path id="Trazado_880488" data-name="Trazado 880488" d="M102.994,159.408a.8.8,0,0,0-.942-.634,4.939,4.939,0,0,1-.946.094H77.862a5.01,5.01,0,0,1-5-5V123.179a.8.8,0,1,0-1.606,0v30.685a6.618,6.618,0,0,0,6.61,6.61h23.243a6.539,6.539,0,0,0,1.254-.124.8.8,0,0,0,.634-.942Z" transform="translate(-71.252 -122.376)"/>
          </g>
        </g>
        <g id="Grupo_1102365" data-name="Grupo 1102365" transform="translate(27.295 13.815)">
          <g id="Grupo_1102364" data-name="Grupo 1102364">
            <path id="Trazado_880489" data-name="Trazado 880489" d="M115.443,43H95.761a.8.8,0,1,0,0,1.606h19.682a.8.8,0,1,0,0-1.606Z" transform="translate(-94.958 -43)"/>
          </g>
        </g>
        <g id="Grupo_1102367" data-name="Grupo 1102367" transform="translate(54.537 39.21)">
          <g id="Grupo_1102366" data-name="Grupo 1102366">
            <path id="Trazado_880490" data-name="Trazado 880490" d="M180.551,122.042a.8.8,0,0,0-.8.8V140.9a.8.8,0,1,0,1.606,0V122.845a.8.8,0,0,0-.8-.8Z" transform="translate(-179.748 -122.042)"/>
          </g>
        </g>
        <g id="Grupo_1102370" data-name="Grupo 1102370" transform="translate(3.695 3.695)">
          <g id="Grupo_1102369" data-name="Grupo 1102369">
            <g id="Grupo_1102368" data-name="Grupo 1102368">
              <path id="Trazado_880491" data-name="Trazado 880491" d="M29.763,11.5H22.875A1.377,1.377,0,0,0,21.5,12.875v7.53a1.377,1.377,0,0,0,1.375,1.375h6.888a1.377,1.377,0,0,0,1.375-1.375v-7.53A1.377,1.377,0,0,0,29.763,11.5Zm-.231,8.675H23.106V13.106h6.426Z" transform="translate(-21.5 -11.5)"/>
            </g>
          </g>
        </g>
        <g id="Grupo_1102373" data-name="Grupo 1102373" transform="translate(15.261 3.695)">
          <g id="Grupo_1102372" data-name="Grupo 1102372">
            <g id="Grupo_1102371" data-name="Grupo 1102371">
              <path id="Trazado_880492" data-name="Trazado 880492" d="M65.763,11.5H58.875A1.377,1.377,0,0,0,57.5,12.875V25.225A1.377,1.377,0,0,0,58.875,26.6h6.888a1.377,1.377,0,0,0,1.375-1.375V12.875A1.377,1.377,0,0,0,65.763,11.5Zm-.231,13.494H59.106V13.106h6.426Z" transform="translate(-57.5 -11.5)"/>
            </g>
          </g>
        </g>
        <g id="Grupo_1102376" data-name="Grupo 1102376" transform="translate(15.261 23.454)">
          <g id="Grupo_1102375" data-name="Grupo 1102375">
            <g id="Grupo_1102374" data-name="Grupo 1102374">
              <path id="Trazado_880493" data-name="Trazado 880493" d="M65.763,73H58.875A1.377,1.377,0,0,0,57.5,74.375v7.53a1.377,1.377,0,0,0,1.375,1.375h6.888a1.377,1.377,0,0,0,1.375-1.375v-7.53A1.377,1.377,0,0,0,65.763,73Zm-.231,8.675H59.106V74.606h6.426Z" transform="translate(-57.5 -73)"/>
            </g>
          </g>
        </g>
        <g id="Grupo_1102379" data-name="Grupo 1102379" transform="translate(3.695 18.634)">
          <g id="Grupo_1102378" data-name="Grupo 1102378">
            <g id="Grupo_1102377" data-name="Grupo 1102377">
              <path id="Trazado_880494" data-name="Trazado 880494" d="M29.763,58H22.875A1.377,1.377,0,0,0,21.5,59.375V71.725A1.377,1.377,0,0,0,22.875,73.1h6.888a1.377,1.377,0,0,0,1.375-1.375V59.375A1.377,1.377,0,0,0,29.763,58Zm-.231,13.494H23.106V59.606h6.426Z" transform="translate(-21.5 -58)"/>
            </g>
          </g>
        </g>
        <g id="Grupo_1102382" data-name="Grupo 1102382" transform="translate(50.763 4.337)">
          <g id="Grupo_1102381" data-name="Grupo 1102381">
            <g id="Grupo_1102380" data-name="Grupo 1102380">
              <path id="Trazado_880495" data-name="Trazado 880495" d="M175.657,13.5h-6A1.662,1.662,0,0,0,168,15.16v6a1.662,1.662,0,0,0,1.66,1.66h6a1.662,1.662,0,0,0,1.66-1.66v-6A1.662,1.662,0,0,0,175.657,13.5Zm.053,7.657a.053.053,0,0,1-.053.054h-6a.053.053,0,0,1-.053-.054v-6a.053.053,0,0,1,.053-.054h6a.053.053,0,0,1,.053.054Z" transform="translate(-168 -13.5)"/>
            </g>
          </g>
        </g>
        <g id="Grupo_1102384" data-name="Grupo 1102384" transform="translate(61.356 11.296)">
          <g id="Grupo_1102383" data-name="Grupo 1102383">
            <path id="Trazado_880496" data-name="Trazado 880496" d="M210.959,35.158h-9.184a.8.8,0,1,0,0,1.606h9.184a.8.8,0,0,0,0-1.606Z" transform="translate(-200.972 -35.158)"/>
          </g>
        </g>
        <g id="Grupo_1102386" data-name="Grupo 1102386" transform="translate(61.356 8.193)">
          <g id="Grupo_1102385" data-name="Grupo 1102385">
            <path id="Trazado_880497" data-name="Trazado 880497" d="M210.959,25.5h-9.184a.8.8,0,1,0,0,1.606h9.184a.8.8,0,0,0,0-1.606Z" transform="translate(-200.972 -25.5)"/>
          </g>
        </g>
        <g id="Grupo_1102388" data-name="Grupo 1102388" transform="translate(61.356 5.09)">
          <g id="Grupo_1102387" data-name="Grupo 1102387">
            <path id="Trazado_880498" data-name="Trazado 880498" d="M206.273,15.842h-4.5a.8.8,0,1,0,0,1.606h4.5a.8.8,0,1,0,0-1.606Z" transform="translate(-200.972 -15.842)"/>
          </g>
        </g>
        <g id="Grupo_1102391" data-name="Grupo 1102391" transform="translate(50.763 15.582)">
          <g id="Grupo_1102390" data-name="Grupo 1102390">
            <g id="Grupo_1102389" data-name="Grupo 1102389">
              <path id="Trazado_880499" data-name="Trazado 880499" d="M175.657,48.5h-6A1.662,1.662,0,0,0,168,50.16v6a1.662,1.662,0,0,0,1.66,1.66h6a1.662,1.662,0,0,0,1.66-1.66v-6A1.662,1.662,0,0,0,175.657,48.5Zm.053,7.657a.053.053,0,0,1-.053.054h-6a.053.053,0,0,1-.053-.054v-6a.053.053,0,0,1,.053-.054h6a.053.053,0,0,1,.053.054Z" transform="translate(-168 -48.5)"/>
            </g>
          </g>
        </g>
        <g id="Grupo_1102393" data-name="Grupo 1102393" transform="translate(61.356 22.541)">
          <g id="Grupo_1102392" data-name="Grupo 1102392">
            <path id="Trazado_880500" data-name="Trazado 880500" d="M210.959,70.158h-9.184a.8.8,0,1,0,0,1.606h9.184a.8.8,0,0,0,0-1.606Z" transform="translate(-200.972 -70.158)"/>
          </g>
        </g>
        <g id="Grupo_1102395" data-name="Grupo 1102395" transform="translate(61.356 19.438)">
          <g id="Grupo_1102394" data-name="Grupo 1102394">
            <path id="Trazado_880501" data-name="Trazado 880501" d="M210.959,60.5h-9.184a.8.8,0,1,0,0,1.606h9.184a.8.8,0,0,0,0-1.606Z" transform="translate(-200.972 -60.5)"/>
          </g>
        </g>
        <g id="Grupo_1102397" data-name="Grupo 1102397" transform="translate(61.356 16.335)">
          <g id="Grupo_1102396" data-name="Grupo 1102396">
            <path id="Trazado_880502" data-name="Trazado 880502" d="M206.273,50.842h-4.5a.8.8,0,1,0,0,1.606h4.5a.8.8,0,1,0,0-1.606Z" transform="translate(-200.972 -50.842)"/>
          </g>
        </g>
        <g id="Grupo_1102400" data-name="Grupo 1102400" transform="translate(50.763 26.827)">
          <g id="Grupo_1102399" data-name="Grupo 1102399">
            <g id="Grupo_1102398" data-name="Grupo 1102398">
              <path id="Trazado_880503" data-name="Trazado 880503" d="M175.657,83.5h-6A1.662,1.662,0,0,0,168,85.16v6a1.662,1.662,0,0,0,1.66,1.66h6a1.662,1.662,0,0,0,1.66-1.66v-6A1.662,1.662,0,0,0,175.657,83.5Zm.053,7.657a.053.053,0,0,1-.053.054h-6a.053.053,0,0,1-.053-.054v-6a.053.053,0,0,1,.053-.054h6a.053.053,0,0,1,.053.054Z" transform="translate(-168 -83.5)"/>
            </g>
          </g>
        </g>
        <g id="Grupo_1102402" data-name="Grupo 1102402" transform="translate(61.356 33.785)">
          <g id="Grupo_1102401" data-name="Grupo 1102401">
            <path id="Trazado_880504" data-name="Trazado 880504" d="M210.959,105.158h-9.184a.8.8,0,1,0,0,1.606h9.184a.8.8,0,0,0,0-1.606Z" transform="translate(-200.972 -105.158)"/>
          </g>
        </g>
        <g id="Grupo_1102404" data-name="Grupo 1102404" transform="translate(61.356 30.682)">
          <g id="Grupo_1102403" data-name="Grupo 1102403">
            <path id="Trazado_880505" data-name="Trazado 880505" d="M210.959,95.5h-9.184a.8.8,0,1,0,0,1.606h9.184a.8.8,0,0,0,0-1.606Z" transform="translate(-200.972 -95.5)"/>
          </g>
        </g>
        <g id="Grupo_1102406" data-name="Grupo 1102406" transform="translate(61.356 27.58)">
          <g id="Grupo_1102405" data-name="Grupo 1102405">
            <path id="Trazado_880506" data-name="Trazado 880506" d="M206.273,85.842h-4.5a.8.8,0,1,0,0,1.606h4.5a.8.8,0,1,0,0-1.606Z" transform="translate(-200.972 -85.842)"/>
          </g>
        </g>
        <g id="Grupo_1102408" data-name="Grupo 1102408" transform="translate(22.919 39.13)">
          <g id="Grupo_1102407" data-name="Grupo 1102407">
            <path id="Trazado_880507" data-name="Trazado 880507" d="M106.981,155.232H84.707a1.766,1.766,0,0,1-1.764-1.764V122.6a.8.8,0,1,0-1.606,0v30.872a3.374,3.374,0,0,0,3.371,3.371h22.274a.8.8,0,0,0,0-1.606Z" transform="translate(-81.336 -121.793)"/>
          </g>
        </g>
        <g id="Grupo_1102410" data-name="Grupo 1102410" transform="translate(27.159 17.055)">
          <g id="Grupo_1102409" data-name="Grupo 1102409">
            <path id="Trazado_880508" data-name="Trazado 880508" d="M115.218,53.084H113.08a1.565,1.565,0,0,0-1.563,1.563,1.872,1.872,0,0,1-1.87,1.87h-8.722a1.872,1.872,0,0,1-1.87-1.87,1.565,1.565,0,0,0-1.563-1.563H95.336a.8.8,0,1,0,0,1.606h2.112a3.48,3.48,0,0,0,3.476,3.433h8.722a3.48,3.48,0,0,0,3.476-3.433h2.1a.8.8,0,1,0,0-1.606Z" transform="translate(-94.533 -53.084)"/>
          </g>
        </g>
        <g id="Grupo_1102412" data-name="Grupo 1102412" transform="translate(51.297 39.13)">
          <g id="Grupo_1102411" data-name="Grupo 1102411" transform="translate(0)">
            <path id="Trazado_880509" data-name="Trazado 880509" d="M170.467,121.792a.8.8,0,0,0-.8.8v13.661a.8.8,0,1,0,1.606,0V122.6A.8.8,0,0,0,170.467,121.792Z" transform="translate(-169.664 -121.792)"/>
          </g>
        </g>
        <g id="Grupo_1102414" data-name="Grupo 1102414" transform="translate(30.04 42.249)">
          <g id="Grupo_1102413" data-name="Grupo 1102413">
            <path id="Trazado_880510" data-name="Trazado 880510" d="M111.371,131.5a7.871,7.871,0,1,0,1.455,15.606.8.8,0,1,0-.3-1.578,6.268,6.268,0,1,1,3.022-1.491.8.8,0,0,0,1.072,1.2,7.87,7.87,0,0,0-5.252-13.733Z" transform="translate(-103.5 -131.5)"/>
          </g>
        </g>
        <g id="Grupo_1102417" data-name="Grupo 1102417" transform="translate(36.598 50.439)">
          <g id="Grupo_1102416" data-name="Grupo 1102416">
            <g id="Grupo_1102415" data-name="Grupo 1102415">
              <path id="Trazado_880511" data-name="Trazado 880511" d="M151.72,181.043l-4.083-7.072a7.7,7.7,0,0,1-.893-2.585c-.05-.251-.1-.489-.157-.724a7.808,7.808,0,0,0-.871-2.258l-4.34-7.517a2.5,2.5,0,0,0-3.161-1.064h0a2.454,2.454,0,0,0-1.295,1.416,2.379,2.379,0,0,0-1.6.128,2.456,2.456,0,0,0-1.289,1.4l-.078-.018a2.451,2.451,0,0,0-1.941.4,2.309,2.309,0,0,0-.449.42l-3.09-5.352a2.443,2.443,0,0,0-4.234,2.44l.016.027.009.016h0l0,.007h0l5.725,9.916-1.534-.774a2.518,2.518,0,0,0-2.52,4.334l4.833,3.407a20.794,20.794,0,0,0,3.148,1.854,5.7,5.7,0,0,1,2.509,2.271l3.558,6.106a1.97,1.97,0,0,0,2.688.719L151,183.732A1.972,1.972,0,0,0,151.72,181.043Zm-1.524,1.3-8.326,4.807a.364.364,0,0,1-.5-.134l-3.575-6.134A7.388,7.388,0,0,0,134.619,178a19.257,19.257,0,0,1-2.915-1.716l-4.833-3.407a.916.916,0,0,1,.533-1.657.85.85,0,0,1,.356.077l3.5,1.766a.949.949,0,0,0,1.22-1.337L125.658,159.9l0,0-.024-.042a.837.837,0,0,1,1.449-.836l4.271,7.4a.8.8,0,1,0,1.391-.8.882.882,0,0,1,.2-1.158.837.837,0,0,1,1.214.261l.056.1a.8.8,0,0,0,1.391-.8.837.837,0,0,1,.382-1.182.883.883,0,0,1,1.1.406l.02.035a.8.8,0,0,0,1.391-.8.837.837,0,0,1,.382-1.182.883.883,0,0,1,1.1.406l4.34,7.517a6.213,6.213,0,0,1,.7,1.807c0,.011.005.022.008.033.053.2.1.42.141.65a9.183,9.183,0,0,0,1.078,3.075l4.083,7.072a.363.363,0,0,1-.132.495Z" transform="translate(-123.914 -156.993)"/>
            </g>
          </g>
        </g>
        <g id="Grupo_1102419" data-name="Grupo 1102419" transform="translate(34.056 46.265)">
          <g id="Grupo_1102418" data-name="Grupo 1102418" transform="translate(0)">
            <path id="Trazado_880512" data-name="Trazado 880512" d="M119.855,144a3.854,3.854,0,0,0-.954,7.588.8.8,0,1,0,.4-1.557,2.251,2.251,0,1,1,2.445-.959.8.8,0,1,0,1.347.875A3.851,3.851,0,0,0,119.855,144Z" transform="translate(-116 -144)"/>
          </g>
        </g>
      </g>
    </g>
  </g>
</svg>
