<svg xmlns="http://www.w3.org/2000/svg" width="85" height="85" viewBox="0 0 85 85">
  <g id="Grupo_1102428" data-name="Grupo 1102428" transform="translate(-199.523 -1621)">
    <circle id="Elipse_11538" data-name="Elipse 11538" cx="42.5" cy="42.5" r="42.5" transform="translate(199.523 1621)" fill="#13de61"/>
    <g id="Layer_x0020_1" transform="translate(190.054 1632.949)">
      <path id="Trazado_880529" data-name="Trazado 880529" d="M78.6,46.308H26.13a3.664,3.664,0,0,1-3.66-3.66V3.71A3.664,3.664,0,0,1,26.13.05H78.6a3.664,3.664,0,0,1,3.66,3.66V42.647A3.664,3.664,0,0,1,78.6,46.308ZM26.13,1.969A1.743,1.743,0,0,0,24.389,3.71V42.647a1.743,1.743,0,0,0,1.741,1.741H78.6a1.743,1.743,0,0,0,1.741-1.741V3.71A1.743,1.743,0,0,0,78.6,1.969H26.13Z" fill-rule="evenodd"/>
      <path id="Trazado_880530" data-name="Trazado 880530" d="M81.63,1017.089H23.755a.96.96,0,0,1,0-1.919H81.631A.96.96,0,0,1,81.63,1017.089Z" transform="translate(-0.325 -978.592)" fill-rule="evenodd"/>
      <path id="Trazado_880531" data-name="Trazado 880531" d="M673.532,1241.529h-12.8a.959.959,0,0,1-.96-.96v-7.4a.959.959,0,0,1,.96-.96h12.8a.959.959,0,0,1,.96.96v7.4A.96.96,0,0,1,673.532,1241.529Zm-11.843-1.919h10.884v-5.481H661.689Z" transform="translate(-614.368 -1187.822)" fill-rule="evenodd"/>
      <path id="Trazado_880532" data-name="Trazado 880532" d="M478.144,1447.521H450.19a.959.959,0,0,1-.96-.96v-4.933a3.783,3.783,0,0,1,3.779-3.779h22.316a3.783,3.783,0,0,1,3.779,3.779v4.933a.96.96,0,0,1-.96.96Zm-26.995-1.918h26.035v-3.974a1.862,1.862,0,0,0-1.86-1.86H453.008a1.862,1.862,0,0,0-1.86,1.86v3.974Z" transform="translate(-411.404 -1386.062)" fill-rule="evenodd"/>
      <path id="Trazado_880533" data-name="Trazado 880533" d="M1399.818,1115.029h-3.373a.96.96,0,0,1,0-1.919h3.373A.96.96,0,0,1,1399.818,1115.029Z" transform="translate(-1323.621 -1073.008)" fill-rule="evenodd"/>
      <path id="Trazado_880534" data-name="Trazado 880534" d="M1198.438,1115.029h-3.373a.96.96,0,0,1,0-1.919h3.373A.96.96,0,0,1,1198.438,1115.029Z" transform="translate(-1129.487 -1073.008)" fill-rule="evenodd"/>
      <path id="Trazado_880535" data-name="Trazado 880535" d="M982.3,1115.029h-3.373a.96.96,0,0,1,0-1.919H982.3A.96.96,0,0,1,982.3,1115.029Z" transform="translate(-921.125 -1073.008)" fill-rule="evenodd"/>
      <path id="Trazado_880536" data-name="Trazado 880536" d="M764.99,352.586a.96.96,0,0,1-.678-1.638l5.4-5.4-5.4-5.4a.959.959,0,0,1,1.357-1.357l6.073,6.073a.959.959,0,0,1,0,1.357l-6.072,6.074A.958.958,0,0,1,764.99,352.586Z" transform="translate(-714.866 -326.279)" fill-rule="evenodd"/>
      <path id="Trazado_880537" data-name="Trazado 880537" d="M310.326,352.592a.96.96,0,0,1-.679-.281l-6.074-6.074a.96.96,0,0,1,0-1.357l6.074-6.073A.96.96,0,0,1,311,340.164l-5.4,5.395,5.4,5.4a.961.961,0,0,1-.678,1.639Z" transform="translate(-270.718 -326.285)" fill-rule="evenodd"/>
      <path id="Trazado_880538" data-name="Trazado 880538" d="M554.218,304.14a.962.962,0,0,1-.909-1.267l5.223-15.438a.96.96,0,0,1,1.818.615l-5.223,15.438a.96.96,0,0,1-.909.652Z" transform="translate(-511.688 -276.419)" fill-rule="evenodd"/>
      <path id="Trazado_880539" data-name="Trazado 880539" d="M1241.8,219.219h-8.242a.96.96,0,0,1,0-1.919h8.242A.96.96,0,0,1,1241.8,219.219Z" transform="translate(-1166.592 -209.432)" fill-rule="evenodd"/>
      <path id="Trazado_880540" data-name="Trazado 880540" d="M1241.8,364.379h-8.242a.96.96,0,0,1,0-1.919h8.242A.96.96,0,0,1,1241.8,364.379Z" transform="translate(-1166.592 -349.369)" fill-rule="evenodd"/>
      <path id="Trazado_880541" data-name="Trazado 880541" d="M1241.8,509.539h-8.242a.96.96,0,0,1,0-1.919h8.242A.96.96,0,0,1,1241.8,509.539Z" transform="translate(-1166.592 -489.306)" fill-rule="evenodd"/>
      <path id="Trazado_880542" data-name="Trazado 880542" d="M1241.8,654.689h-8.242a.96.96,0,0,1,0-1.919h8.242A.96.96,0,0,1,1241.8,654.689Z" transform="translate(-1166.592 -629.232)" fill-rule="evenodd"/>
      <path id="Trazado_880543" data-name="Trazado 880543" d="M1241.8,799.849h-8.242a.96.96,0,0,1,0-1.919h8.242A.96.96,0,0,1,1241.8,799.849Z" transform="translate(-1166.592 -769.169)" fill-rule="evenodd"/>
      <path id="Trazado_880544" data-name="Trazado 880544" d="M223.032,231.129H194.827a2.82,2.82,0,0,1-2.817-2.817V210.437a2.82,2.82,0,0,1,2.817-2.817h28.206a2.82,2.82,0,0,1,2.817,2.817v17.876A2.82,2.82,0,0,1,223.032,231.129Zm-28.206-21.59a.9.9,0,0,0-.9.9v17.876a.9.9,0,0,0,.9.9h28.206a.9.9,0,0,0,.9-.9V210.437a.9.9,0,0,0-.9-.9H194.827Z" transform="translate(-163.439 -200.101)" fill-rule="evenodd"/>
      <path id="Trazado_880545" data-name="Trazado 880545" d="M82.8,58.92H111a2.82,2.82,0,0,1,2.817,2.817V79.613A2.82,2.82,0,0,1,111,82.429H82.8a2.82,2.82,0,0,1-2.817-2.817V61.737A2.82,2.82,0,0,1,82.8,58.92Zm-7,29.058h55.956V55.111a1.743,1.743,0,0,0-1.741-1.741H77.541A1.743,1.743,0,0,0,75.8,55.111V87.979Zm42.573-7.817h8.242a.96.96,0,0,1,0,1.919h-8.242A.96.96,0,0,1,118.374,80.162Zm0-5.223h8.242a.96.96,0,0,1,0,1.919h-8.242A.96.96,0,0,1,118.374,74.938Zm0-5.223h8.242a.96.96,0,0,1,0,1.919h-8.242A.96.96,0,0,1,118.374,69.715Zm-.96-4.264a.959.959,0,0,1,.96-.96h8.242a.96.96,0,0,1,0,1.919h-8.242a.959.959,0,0,1-.96-.96Zm.96-4.264a.96.96,0,0,1,0-1.919h8.242a.96.96,0,0,1,0,1.919Z" transform="translate(-51.411 -51.401)" fill="#a7ffff" fill-rule="evenodd"/>
      <path id="Trazado_880546" data-name="Trazado 880546" d="M263.532,263.151l-5.223,15.438a.96.96,0,0,1-1.818-.615l5.223-15.438A.96.96,0,0,1,263.532,263.151Zm10.931-2.191H246.257a.9.9,0,0,0-.9.9v17.876a.9.9,0,0,0,.9.9h28.206a.9.9,0,0,0,.9-.9V261.858a.9.9,0,0,0-.9-.9Zm-19.306,15.23a.96.96,0,0,1-1.357,1.358l-6.074-6.074a.96.96,0,0,1,0-1.357l6.074-6.073a.96.96,0,0,1,1.357,1.357l-5.4,5.395Zm9.159,1.358a.959.959,0,0,1,0-1.357l5.4-5.4-5.4-5.4a.959.959,0,0,1,1.357-1.357l6.073,6.073a.959.959,0,0,1,0,1.357l-6.072,6.074a.96.96,0,0,1-1.357,0Z" transform="translate(-214.87 -251.521)" fill="#eef1f2" fill-rule="evenodd"/>
      <g id="Grupo_1102427" data-name="Grupo 1102427" transform="translate(24.389 38.497)">
        <path id="Trazado_880547" data-name="Trazado 880547" d="M131.766,1068.5H75.81v4.15a1.743,1.743,0,0,0,1.741,1.741h52.474a1.743,1.743,0,0,0,1.741-1.741v-4.15Zm-22.545,3.524a.96.96,0,0,1,0-1.919h3.373a.96.96,0,0,1,0,1.919Zm7.778,0a.96.96,0,0,1,0-1.919h3.373a.96.96,0,0,1,0,1.919Zm7.246,0a.96.96,0,0,1,0-1.919h3.373a.96.96,0,0,1,0,1.919Z" transform="translate(-75.81 -1068.5)" fill="#19a19d" fill-rule="evenodd"/>
        <path id="Trazado_880548" data-name="Trazado 880548" d="M521.979,1491.2H504.42a1.862,1.862,0,0,0-1.86,1.86v3.974H528.6v-3.974a1.862,1.862,0,0,0-1.86-1.86h-4.757Z" transform="translate(-487.204 -1475.99)" fill="#19a19d" fill-rule="evenodd"/>
        <path id="Trazado_880549" data-name="Trazado 880549" d="M713.11,1291.041h10.884v-5.481H713.11Z" transform="translate(-690.177 -1277.749)" fill="#19a19d" fill-rule="evenodd"/>
      </g>
    </g>
  </g>
</svg>
