<svg xmlns="http://www.w3.org/2000/svg" xmlns:xlink="http://www.w3.org/1999/xlink" width="505" height="233" viewBox="0 0 505 233">
  <defs>
    <clipPath id="clip-path">
      <rect id="Rectángulo_405636" data-name="Rectángulo 405636" width="505" height="233" rx="9" transform="translate(915.051 768)" fill="#febfe9"/>
    </clipPath>
    <clipPath id="clip-path-2">
      <rect id="Rectángulo_386417" data-name="Rectángulo 386417" width="373.26" height="238.569" fill="none"/>
    </clipPath>
    <clipPath id="clip-path-3">
      <rect id="Rectángulo_383854" data-name="Rectángulo 383854" width="164.938" height="171.536" fill="#1169e3" stroke="#707070" stroke-width="1"/>
    </clipPath>
  </defs>
  <g id="Enmascarar_grupo_1098700" data-name="Enmascarar grupo 1098700" transform="translate(-915.051 -768)" clip-path="url(#clip-path)">
    <rect id="Rectángulo_405637" data-name="Rectángulo 405637" width="491" height="200" rx="9" transform="translate(915.051 784)" fill="#ded5db"/>
    <g id="Grupo_1102496" data-name="Grupo 1102496">
      <g id="Grupo_1078354" data-name="Grupo 1078354" transform="translate(938.611 774.206)">
        <g id="Grupo_1078353" data-name="Grupo 1078353" clip-path="url(#clip-path-2)">
          <path id="Trazado_821909" data-name="Trazado 821909" d="M45.173,267.544c22.5-.182,167.5,1.078,167.5.355.036-15.935-.268-109.811-.561-123.816-.006-.269-159.6-.484-167.259-.316-.155,0,.37,120.337.319,123.777" transform="translate(-39.163 -125.555)" fill="#12263f" fill-rule="evenodd"/>
          <path id="Trazado_821910" data-name="Trazado 821910" d="M53.334,228.4l3.586-.017c27.251-.124,123.353-.362,161.449-.06a.263.263,0,1,0,0-.526c-38.1-.3-134.2-.064-161.455.06l-3.586.017a.263.263,0,1,0,0,.526" transform="translate(-46.366 -198.896)" fill="#fff" fill-rule="evenodd"/>
          <rect id="Rectángulo_386399" data-name="Rectángulo 386399" width="20.565" height="6.336" transform="translate(15.016 36.131) rotate(-0.209)" fill="#6e40fb"/>
          <rect id="Rectángulo_386400" data-name="Rectángulo 386400" width="21.701" height="6.568" transform="translate(77.18 35.985) rotate(-0.21)" fill="#6e40fb"/>
          <rect id="Rectángulo_386401" data-name="Rectángulo 386401" width="22.365" height="6.293" transform="translate(62.495 48.339) rotate(-0.209)" fill="#6e40fb"/>
          <rect id="Rectángulo_386402" data-name="Rectángulo 386402" width="26.132" height="6.569" transform="translate(15.559 60.233) rotate(-0.211)" fill="#6e40fb"/>
          <rect id="Rectángulo_386403" data-name="Rectángulo 386403" width="19.344" height="6.176" transform="translate(38.077 74.873) rotate(-0.209)" fill="#6e40fb"/>
          <rect id="Rectángulo_386404" data-name="Rectángulo 386404" width="19.334" height="6.401" transform="matrix(1, -0.004, 0.004, 1, 47.965, 100.463)" fill="#6e40fb"/>
          <path id="Trazado_821911" data-name="Trazado 821911" d="M254.343,895.691l-14.909.054.024,6.337,14.91-.055Z" transform="translate(-209.19 -782.552)" fill="#6e40fb" fill-rule="evenodd"/>
          <rect id="Rectángulo_386405" data-name="Rectángulo 386405" width="8.676" height="6.097" transform="translate(33.292 88.027) rotate(-0.212)" fill="#6e40fb"/>
          <rect id="Rectángulo_386406" data-name="Rectángulo 386406" width="24.111" height="6.295" transform="translate(37.727 36.117)" fill="#1e5af9"/>
          <rect id="Rectángulo_386407" data-name="Rectángulo 386407" width="19.027" height="5.898" transform="translate(45.803 88.138)" fill="#1e5af9"/>
          <rect id="Rectángulo_386408" data-name="Rectángulo 386408" width="22.683" height="6.302" transform="translate(61.745 127.06)" fill="#1e5af9"/>
          <rect id="Rectángulo_386409" data-name="Rectángulo 386409" width="36.026" height="6.295" transform="translate(91.196 74.575)" fill="#1e5af9"/>
          <rect id="Rectángulo_386410" data-name="Rectángulo 386410" width="35.395" height="6.323" transform="translate(107.728 36.161)" fill="#f9305f"/>
          <rect id="Rectángulo_386411" data-name="Rectángulo 386411" width="22.164" height="6.317" transform="translate(54.804 60.365)" fill="#f9305f"/>
          <rect id="Rectángulo_386412" data-name="Rectángulo 386412" width="22.558" height="6.052" transform="translate(60.831 74.755)" fill="#f9305f"/>
          <rect id="Rectángulo_386413" data-name="Rectángulo 386413" width="22.727" height="5.921" transform="translate(71.657 88.189)" fill="#f9305f"/>
          <rect id="Rectángulo_386414" data-name="Rectángulo 386414" width="22.742" height="6.344" transform="translate(48.156 113.099)" fill="#f9305f"/>
          <rect id="Rectángulo_386415" data-name="Rectángulo 386415" width="25.076" height="6.02" transform="translate(25.564 127.532)" fill="#f9305f"/>
          <rect id="Rectángulo_386416" data-name="Rectángulo 386416" width="35.793" height="6.342" transform="translate(15.214 48.31)" fill="#f9305f"/>
          <path id="Trazado_821912" data-name="Trazado 821912" d="M518.79,286.443a3.32,3.32,0,0,0,.359,6.071.33.33,0,1,0,.231-.618,2.667,2.667,0,0,1-.268-4.878.33.33,0,1,0-.323-.576" transform="translate(-451.678 -250.225)" fill="#9564e8" fill-rule="evenodd"/>
          <path id="Trazado_821913" data-name="Trazado 821913" d="M533.57,697.145a3.321,3.321,0,0,0,.359,6.072.33.33,0,0,0,.231-.619,2.667,2.667,0,0,1-.268-4.878.33.33,0,0,0-.323-.576" transform="translate(-464.591 -609.049)" fill="#9564e8" fill-rule="evenodd"/>
          <path id="Trazado_821914" data-name="Trazado 821914" d="M602.572,892.195a3.506,3.506,0,0,0,.361,6.305.33.33,0,0,0,.239-.615,2.846,2.846,0,0,1-.268-5.12.33.33,0,0,0-.333-.57" transform="translate(-524.881 -779.459)" fill="#9564e8" fill-rule="evenodd"/>
          <path id="Trazado_821915" data-name="Trazado 821915" d="M566.289,286.829a2.7,2.7,0,0,1-.257,4.88.33.33,0,1,0,.237.616,3.36,3.36,0,0,0,.35-6.067.33.33,0,1,0-.33.571" transform="translate(-494.348 -250.06)" fill="#9564e8" fill-rule="evenodd"/>
          <path id="Trazado_821916" data-name="Trazado 821916" d="M701.492,892.978a2.7,2.7,0,0,1-.257,4.88.33.33,0,1,0,.237.616,3.36,3.36,0,0,0,.35-6.067.33.33,0,1,0-.33.571" transform="translate(-612.473 -779.644)" fill="#9564e8" fill-rule="evenodd"/>
          <path id="Trazado_821917" data-name="Trazado 821917" d="M771.595,698.254a2.7,2.7,0,0,1-.258,4.881.33.33,0,0,0,.236.616,3.36,3.36,0,0,0,.351-6.068.33.33,0,1,0-.33.571" transform="translate(-673.721 -609.517)" fill="#9564e8" fill-rule="evenodd"/>
          <path id="Trazado_821918" data-name="Trazado 821918" d="M702.085,383.086a3.2,3.2,0,0,0-2.015,3.125,3.432,3.432,0,0,0,2.333,2.871.33.33,0,0,0,.237-.616,2.783,2.783,0,0,1-1.913-2.307,2.568,2.568,0,0,1,1.644-2.48.33.33,0,1,0-.287-.594" transform="translate(-611.633 -334.668)" fill="#f9c642" fill-rule="evenodd"/>
          <path id="Trazado_821919" data-name="Trazado 821919" d="M640.584,479.605a3.2,3.2,0,0,0-2.016,3.126A3.433,3.433,0,0,0,640.9,485.6a.33.33,0,1,0,.237-.616,2.785,2.785,0,0,1-1.912-2.307,2.567,2.567,0,0,1,1.643-2.48.33.33,0,0,0-.286-.595" transform="translate(-557.9 -418.996)" fill="#f9c642" fill-rule="evenodd"/>
          <path id="Trazado_821920" data-name="Trazado 821920" d="M809.752,381.729a2.631,2.631,0,0,1-.234,4.8.33.33,0,1,0,.264.6,3.281,3.281,0,0,0,.285-5.984.33.33,0,1,0-.315.579" transform="translate(-707.091 -332.97)" fill="#f9c642" fill-rule="evenodd"/>
          <path id="Trazado_821921" data-name="Trazado 821921" d="M420.583,400.295c.655-.029,1.873.008,2.354.008a.33.33,0,0,0,0-.66c-.488,0-1.719-.038-2.384-.008a.33.33,0,1,0,.029.66" transform="translate(-367.155 -349.146)" fill="#9564e8" fill-rule="evenodd"/>
          <path id="Trazado_821922" data-name="Trazado 821922" d="M421.359,419.353c.8,0,1.5.008,2.358,0a.33.33,0,0,0,0-.66c-.86.006-1.558,0-2.353,0a.33.33,0,1,0,0,.66" transform="translate(-367.848 -365.806)" fill="#9564e8" fill-rule="evenodd"/>
          <path id="Trazado_821923" data-name="Trazado 821923" d="M458.837,397.6a22.383,22.383,0,0,0-1.982-1.624.33.33,0,0,1,.392-.531,16.5,16.5,0,0,1,2.29,1.958.367.367,0,0,1,.046.3.684.684,0,0,1-.2.3A12.145,12.145,0,0,1,457.1,399.4a.33.33,0,1,1-.285-.595,14.754,14.754,0,0,0,1.842-1.053c.065-.046.13-.1.184-.143" transform="translate(-398.945 -345.443)" fill="#9564e8" fill-rule="evenodd"/>
          <path id="Trazado_821924" data-name="Trazado 821924" d="M1033,594.392a38.58,38.58,0,0,0-3.5-2.643.33.33,0,1,1,.35-.559,44.1,44.1,0,0,1,3.849,2.924.348.348,0,0,1,.036.554,26.364,26.364,0,0,1-4.031,2.524.33.33,0,0,1-.308-.584c1.342-.708,3.006-1.81,3.609-2.216m.275.229a.439.439,0,0,0,.042.034l-.042-.034" transform="translate(-899.208 -516.47)" fill="#fd5d31" fill-rule="evenodd"/>
          <path id="Trazado_821925" data-name="Trazado 821925" d="M740.088,1011.049a3.833,3.833,0,0,0-.407-.421,32.734,32.734,0,0,0-3.259-2.233.33.33,0,1,1,.349-.56,33.694,33.694,0,0,1,3.338,2.29,2.78,2.78,0,0,1,.551.583.627.627,0,0,1,.1.32.74.74,0,0,1-.127.4,2.247,2.247,0,0,1-.439.475,21.854,21.854,0,0,1-3.363,2.041.33.33,0,1,1-.309-.583,21.066,21.066,0,0,0,3.243-1.961,1.748,1.748,0,0,0,.281-.283.386.386,0,0,0,.039-.064" transform="translate(-643.265 -880.488)" fill="#fd5d31" fill-rule="evenodd"/>
          <path id="Trazado_821926" data-name="Trazado 821926" d="M200.968,595.971a.606.606,0,0,0,.039.051,2.2,2.2,0,0,0,.365.305A28.4,28.4,0,0,0,205.5,598.4a.33.33,0,1,1-.265.6,29.259,29.259,0,0,1-4.244-2.136,2.523,2.523,0,0,1-.546-.49.71.71,0,0,1-.163-.431.54.54,0,0,1,.071-.257,1.6,1.6,0,0,1,.363-.4,33.992,33.992,0,0,1,4.6-2.7.33.33,0,1,1,.3.586,43.2,43.2,0,0,0-4.144,2.354,4.569,4.569,0,0,0-.514.44" transform="translate(-174.984 -517.706)" fill="#fd5d31" fill-rule="evenodd"/>
          <path id="Trazado_821927" data-name="Trazado 821927" d="M335.5,792.455c-.719,2.036-1.566,4.365-2.463,6.518a.33.33,0,0,0,.609.254c.9-2.165,1.754-4.5,2.476-6.553a.33.33,0,1,0-.622-.219" transform="translate(-290.95 -692.164)" fill="#fd5d31" fill-rule="evenodd"/>
          <path id="Trazado_821928" data-name="Trazado 821928" d="M261.139,588.83c-1.325,3.2-1.412,3.422-2.715,6.654a.33.33,0,0,0,.612.247c1.3-3.228,1.388-3.448,2.713-6.648a.33.33,0,0,0-.61-.252" transform="translate(-225.761 -514.275)" fill="#f9c642" fill-rule="evenodd"/>
          <path id="Trazado_821929" data-name="Trazado 821929" d="M565.4,800.5c-.055-.04-.117-.083-.183-.126-.614-.4-1.8-1.1-3.705-2.42a.33.33,0,0,1,.377-.542c2.423,1.68,3.692,2.363,4.092,2.694a.568.568,0,0,1,.258.475.376.376,0,0,1-.086.209.979.979,0,0,1-.223.184c-.425.277-1.727.926-4.286,2.487a.33.33,0,0,1-.344-.564c2.171-1.324,3.564-2.1,4.1-2.4" transform="translate(-490.265 -696.635)" fill="#f9c642" fill-rule="evenodd"/>
          <path id="Trazado_821930" data-name="Trazado 821930" d="M694.286,998.09c-.09-.709.526-.994,1.137-.984.639.012,1.341.323,1.357.966.032,1.243-.741,1.588-1.335,2.059a2.072,2.072,0,0,0-.927,1.8.33.33,0,1,0,.66-.008c-.011-.841.516-1.156,1.012-1.528a2.528,2.528,0,0,0,1.25-2.34,1.873,1.873,0,0,0-2.005-1.609,1.912,1.912,0,0,0-1.5.582,1.424,1.424,0,0,0-.308,1.145.33.33,0,0,0,.655-.083" transform="translate(-606.001 -870.581)" fill="#9564e8" fill-rule="evenodd"/>
          <path id="Trazado_821931" data-name="Trazado 821931" d="M700.928,1055.807a.33.33,0,0,1,.483.34.155.155,0,0,1,0,.07c-.008.026-.034.214-.368.238a.33.33,0,0,1-.111-.648m-.138.177a.2.2,0,0,0-.008.024c-.035.1.1.354.1.354a.936.936,0,0,1-.092-.378" transform="translate(-612.178 -922.409)" fill="#9564e8" fill-rule="evenodd"/>
          <path id="Trazado_821932" data-name="Trazado 821932" d="M273.963,795.722c.807.524,3.018,1.7,4.21,2.362a.33.33,0,1,1-.321.577c-1.2-.667-3.411-1.846-4.248-2.387a1.873,1.873,0,0,1-.395-.308.363.363,0,0,1-.087-.235.344.344,0,0,1,.046-.171.728.728,0,0,1,.16-.179c.531-.45,3.238-2.2,4.4-3.057a.33.33,0,1,1,.392.531c-1.046.774-3.343,2.261-4.162,2.869" transform="translate(-238.623 -692.184)" fill="#9564e8" fill-rule="evenodd"/>
          <path id="Trazado_821933" data-name="Trazado 821933" d="M128.023,580.494c-.123,11.621.519,47.537.3,60.3a.33.33,0,0,0,.66.012c.221-12.762-.421-48.68-.3-60.3a.33.33,0,0,0-.66-.006" transform="translate(-111.838 -506.884)" fill="#9564e8" fill-rule="evenodd"/>
          <path id="Trazado_821934" data-name="Trazado 821934" d="M194.695,659.145c.213,6.45.158,20.219.158,25.878a.33.33,0,1,0,.66,0c0-5.664.055-19.445-.158-25.9a.33.33,0,0,0-.66.021" transform="translate(-170.102 -575.589)" fill="#9564e8" fill-rule="evenodd"/>
          <path id="Trazado_821935" data-name="Trazado 821935" d="M350.4,480.272c.019,2.189.068,3.583.04,5.146a.33.33,0,0,0,.66.012c.027-1.57-.021-2.967-.04-5.163a.33.33,0,1,0-.66.005" transform="translate(-306.143 -419.316)" fill="#f9c642" fill-rule="evenodd"/>
          <path id="Trazado_821936" data-name="Trazado 821936" d="M428.548,1006.136c.019,2.189.068,3.582.04,5.145a.33.33,0,0,0,.66.012c.028-1.569-.021-2.967-.04-5.164a.33.33,0,1,0-.66.006" transform="translate(-374.416 -878.755)" fill="#9564e8" fill-rule="evenodd"/>
          <path id="Trazado_821937" data-name="Trazado 821937" d="M371.951,480.414c0,1.706.013,3.942.009,5.048a.33.33,0,0,0,.66,0c0-1.107-.012-3.343-.009-5.05a.33.33,0,1,0-.66,0" transform="translate(-324.967 -419.443)" fill="#f9c642" fill-rule="evenodd"/>
          <path id="Trazado_821938" data-name="Trazado 821938" d="M450.095,1006.285c0,1.706.013,3.942.009,5.048a.33.33,0,1,0,.66,0c0-1.107-.012-3.343-.009-5.05a.33.33,0,0,0-.66,0" transform="translate(-393.241 -878.889)" fill="#9564e8" fill-rule="evenodd"/>
          <path id="Trazado_821939" data-name="Trazado 821939" d="M393.881,477.426c.619-.012,1.163,0,1.881.013a.33.33,0,1,0,.009-.66c-.726-.01-1.277-.025-1.9-.013a.33.33,0,0,0,.012.66" transform="translate(-343.835 -416.54)" fill="#f9c642" fill-rule="evenodd"/>
          <path id="Trazado_821940" data-name="Trazado 821940" d="M635.845,893.016c.562-.014,1.056,0,1.708,0a.33.33,0,0,0,.006-.66c-.66-.005-1.161-.016-1.729,0a.33.33,0,0,0,.016.66" transform="translate(-555.234 -779.633)" fill="#9564e8" fill-rule="evenodd"/>
          <path id="Trazado_821941" data-name="Trazado 821941" d="M669.382,893.577c.562-.014,1.056,0,1.708,0a.33.33,0,0,0,.005-.66c-.66-.006-1.161-.016-1.729,0a.33.33,0,0,0,.016.659" transform="translate(-584.535 -780.123)" fill="#9564e8" fill-rule="evenodd"/>
          <path id="Trazado_821942" data-name="Trazado 821942" d="M735.014,380.97c.806.026,1.2.008,1.825.022a.33.33,0,1,0,.015-.659c-.626-.014-1.016,0-1.818-.023a.33.33,0,1,0-.021.66" transform="translate(-641.891 -332.271)" fill="#f9c642" fill-rule="evenodd"/>
          <path id="Trazado_821943" data-name="Trazado 821943" d="M773.421,381.4c.581.013,1.13.032,1.762.014a.33.33,0,0,0-.018-.66c-.621.018-1.159,0-1.729-.014a.33.33,0,0,0-.015.66" transform="translate(-675.445 -332.646)" fill="#f9c642" fill-rule="evenodd"/>
          <path id="Trazado_821944" data-name="Trazado 821944" d="M198.574,893.65a2.267,2.267,0,0,0-.3-.152c-.424-.161-.97-.275-1.057-.307a.327.327,0,0,1-.222-.379.32.32,0,0,1,.337-.269,1.124,1.124,0,0,0,.737-.424,1.154,1.154,0,0,0,.366-.677,6.18,6.18,0,0,1,.079-1.574,1.728,1.728,0,0,1,.623-1.02,2.112,2.112,0,0,1,1.6-.3.33.33,0,1,1-.086.654,1.51,1.51,0,0,0-1.121.176,1.242,1.242,0,0,0-.417.868,7.04,7.04,0,0,0-.019,1.179,1.846,1.846,0,0,1-.541,1.146,2.443,2.443,0,0,1-.258.24,3.825,3.825,0,0,1,.437.169,1.074,1.074,0,0,1,.407.3.484.484,0,0,1,.1.278c.008.466-.107,1.018-.109,1.513a1.012,1.012,0,0,0,.2.724,1.352,1.352,0,0,0,1.032.284.33.33,0,0,1,0,.66,1.949,1.949,0,0,1-1.519-.494,1.661,1.661,0,0,1-.378-1.177c0-.462.1-.975.109-1.418" transform="translate(-172.105 -776.281)" fill="#ccbcfd" fill-rule="evenodd"/>
          <path id="Trazado_821945" data-name="Trazado 821945" d="M749.2,889.641a3.567,3.567,0,0,1-.641-.359,1.254,1.254,0,0,1-.56-.863,9.2,9.2,0,0,1,.032-1.205c.005-.241,0-.459-.18-.6a1.8,1.8,0,0,0-1.076-.2.33.33,0,1,1-.006-.659,2.385,2.385,0,0,1,1.483.336,1.143,1.143,0,0,1,.435.9c.025.4-.08.882-.032,1.36a.468.468,0,0,0,.15.275,1.711,1.711,0,0,0,.4.281c.234.127.472.219.617.285a.845.845,0,0,1,.225.14.35.35,0,0,1-.036.542,7.815,7.815,0,0,0-.9.694,1.057,1.057,0,0,0-.384.754,6.159,6.159,0,0,1-.034.941,1.4,1.4,0,0,1-.468.907,2.4,2.4,0,0,1-1.883.309.33.33,0,0,1,.083-.654,1.834,1.834,0,0,0,1.378-.163.753.753,0,0,0,.237-.5,5.454,5.454,0,0,0,.026-.838,1.694,1.694,0,0,1,.582-1.229,4.959,4.959,0,0,1,.559-.457" transform="translate(-651.812 -773.871)" fill="#e9e2fe" fill-rule="evenodd"/>
        </g>
      </g>
      <path id="Sustracción_14" data-name="Sustracción 14" d="M37.8,0A38.646,38.646,0,0,0,24.222,2.441,38.243,38.243,0,0,0,12.787,9.165,37.81,37.81,0,0,0,4.408,19.272,36.9,36.9,0,0,0,0,31.863H75.6a36.9,36.9,0,0,0-4.408-12.591A37.81,37.81,0,0,0,62.816,9.165,38.244,38.244,0,0,0,51.38,2.441,38.647,38.647,0,0,0,37.8,0Z" transform="translate(1027.214 799.863) rotate(180)" fill="#1e5af9"/>
      <rect id="Rectángulo_405635" data-name="Rectángulo 405635" width="65" height="79" transform="translate(1076.051 849)" fill="#b1c8cb"/>
      <g id="Grupo_1102495" data-name="Grupo 1102495" transform="translate(4040.043 11411.829)">
        <path id="Trazado_822237" data-name="Trazado 822237" d="M871.494,797.527c22.078-.178,162.7,1.057,162.7.348.036-15.632-.263-107.728-.552-121.468,0-.264-154.949-.474-162.459-.309-.152,0,.364,118.054.314,121.43" transform="translate(-3816.376 -11229.226)" fill="#12263f" fill-rule="evenodd"/>
        <path id="Trazado_822238" data-name="Trazado 822238" d="M873.579,746.943c1.124,0,2.441-.092,4.178-.1,26.734-.121,119.681-.355,157.054-.058a.308.308,0,0,0,.005-.615c-37.374-.3-130.326-.063-157.061.058-1.737.009-3.054.1-4.177.1a.308.308,0,0,0-.307.309c0,.169.309.306.309.306" transform="translate(-3818.181 -11288.858)" fill="#fff" fill-rule="evenodd"/>
        <path id="Trazado_822239" data-name="Trazado 822239" d="M940.5,1044.037c-.121,11.516.514,46.285.295,58.928a.39.39,0,1,0,.781.014c.219-12.645-.416-47.417-.3-58.933a.39.39,0,1,0-.78-.009" transform="translate(-3875.454 -11542.46)" fill="#9564e8" fill-rule="evenodd"/>
        <rect id="Rectángulo_386418" data-name="Rectángulo 386418" width="20.377" height="6.278" transform="translate(-2936.048 -10535.558) rotate(-0.21)" fill="#9564e8"/>
        <rect id="Rectángulo_386419" data-name="Rectángulo 386419" width="21.502" height="6.507" transform="translate(-2874.452 -10535.702) rotate(-0.211)" fill="#9564e8"/>
        <rect id="Rectángulo_386420" data-name="Rectángulo 386420" width="22.16" height="6.236" transform="translate(-2889.003 -10523.46) rotate(-0.213)" fill="#9564e8"/>
        <path id="Trazado_822240" data-name="Trazado 822240" d="M962.718,956.019l-25.894.1.025,6.509,25.894-.094Z" transform="translate(-3872.334 -11467.79)" fill="#9564e8" fill-rule="evenodd"/>
        <rect id="Rectángulo_386421" data-name="Rectángulo 386421" width="16.948" height="6.121" transform="matrix(1, -0.004, 0.004, 1, -2910.98, -10497.17)" fill="#9564e8"/>
        <rect id="Rectángulo_386422" data-name="Rectángulo 386422" width="19.157" height="6.342" transform="translate(-2903.4 -10471.813) rotate(-0.211)" fill="#9564e8"/>
        <rect id="Rectángulo_386423" data-name="Rectángulo 386423" width="14.772" height="6.279" transform="matrix(1, -0.004, 0.004, 1, -2920.958, -10459.2)" fill="#9564e8"/>
        <rect id="Rectángulo_386424" data-name="Rectángulo 386424" width="8.597" height="6.04" transform="matrix(1, -0.004, 0.004, 1, -2917.938, -10484.136)" fill="#9564e8"/>
        <rect id="Rectángulo_386425" data-name="Rectángulo 386425" width="23.89" height="6.238" transform="translate(-2913.543 -10535.571)" fill="#21c3fc"/>
        <rect id="Rectángulo_386426" data-name="Rectángulo 386426" width="18.853" height="5.844" transform="translate(-2905.542 -10484.025)" fill="#21c3fc"/>
        <rect id="Rectángulo_386427" data-name="Rectángulo 386427" width="22.476" height="6.245" transform="translate(-2885.385 -10445.461)" fill="#21c3fc"/>
        <rect id="Rectángulo_386428" data-name="Rectángulo 386428" width="35.697" height="6.238" transform="translate(-2860.564 -10497.466)" fill="#21c3fc"/>
        <rect id="Rectángulo_386429" data-name="Rectángulo 386429" width="35.072" height="6.265" transform="translate(-2844.183 -10535.527)" fill="#f9305f"/>
        <rect id="Rectángulo_386430" data-name="Rectángulo 386430" width="21.962" height="6.259" transform="translate(-2896.624 -10511.545)" fill="#f9305f"/>
        <rect id="Rectángulo_386431" data-name="Rectángulo 386431" width="22.352" height="5.996" transform="translate(-2890.652 -10497.286)" fill="#f9305f"/>
        <rect id="Rectángulo_386432" data-name="Rectángulo 386432" width="22.519" height="5.866" transform="translate(-2879.924 -10483.975)" fill="#f9305f"/>
        <rect id="Rectángulo_386433" data-name="Rectángulo 386433" width="22.534" height="6.286" transform="translate(-2903.21 -10459.294)" fill="#f9305f"/>
        <rect id="Rectángulo_386434" data-name="Rectángulo 386434" width="24.846" height="5.967" transform="translate(-2925.596 -10444.994)" fill="#f9305f"/>
        <rect id="Rectángulo_386435" data-name="Rectángulo 386435" width="35.466" height="6.283" transform="translate(-2935.852 -10523.489)" fill="#f9305f"/>
        <path id="Trazado_822241" data-name="Trazado 822241" d="M1271.418,795.143a3.352,3.352,0,0,0,.365,6.129.39.39,0,1,0,.273-.731,2.579,2.579,0,0,1-.257-4.718.39.39,0,1,0-.382-.681" transform="translate(-4155.877 -11330.669)" fill="#9564e8" fill-rule="evenodd"/>
        <path id="Trazado_822242" data-name="Trazado 822242" d="M1283.922,1142.643a3.352,3.352,0,0,0,.364,6.13.391.391,0,0,0,.273-.732,2.579,2.579,0,0,1-.256-4.718.39.39,0,0,0-.382-.681" transform="translate(-4166.53 -11626.766)" fill="#9564e8" fill-rule="evenodd"/>
        <path id="Trazado_822243" data-name="Trazado 822243" d="M1311.417,795.663a2.614,2.614,0,0,1-.247,4.722.39.39,0,0,0,.281.729,3.393,3.393,0,0,0,.357-6.127.39.39,0,1,0-.39.676" transform="translate(-4191.092 -11330.534)" fill="#9564e8" fill-rule="evenodd"/>
        <path id="Trazado_822244" data-name="Trazado 822244" d="M1425.812,1308.528a2.614,2.614,0,0,1-.247,4.722.39.39,0,0,0,.281.729,3.393,3.393,0,0,0,.357-6.126.39.39,0,1,0-.39.676" transform="translate(-4288.565 -11767.534)" fill="#9564e8" fill-rule="evenodd"/>
        <path id="Trazado_822245" data-name="Trazado 822245" d="M1485.124,1143.768a2.614,2.614,0,0,1-.246,4.722.39.39,0,1,0,.281.728,3.392,3.392,0,0,0,.355-6.126.39.39,0,0,0-.39.675" transform="translate(-4339.104 -11627.147)" fill="#9564e8" fill-rule="evenodd"/>
        <path id="Trazado_822246" data-name="Trazado 822246" d="M1426.545,876.908a3.233,3.233,0,0,0-2.033,3.159,3.462,3.462,0,0,0,2.352,2.9.39.39,0,1,0,.28-.729,2.694,2.694,0,0,1-1.854-2.231,2.483,2.483,0,0,1,1.593-2.4.39.39,0,0,0-.338-.7" transform="translate(-4287.873 -11400.349)" fill="#f9c642" fill-rule="evenodd"/>
        <path id="Trazado_822247" data-name="Trazado 822247" d="M1374.506,958.575a3.234,3.234,0,0,0-2.033,3.159,3.463,3.463,0,0,0,2.352,2.9.39.39,0,1,0,.28-.728,2.7,2.7,0,0,1-1.854-2.231,2.484,2.484,0,0,1,1.592-2.4.39.39,0,0,0-.338-.7" transform="translate(-4243.532 -11469.936)" fill="#f9c642" fill-rule="evenodd"/>
        <path id="Trazado_822248" data-name="Trazado 822248" d="M1517.407,875.958a2.546,2.546,0,0,1-.225,4.643.39.39,0,1,0,.311.716,3.314,3.314,0,0,0,.288-6.044.39.39,0,1,0-.374.685" transform="translate(-4366.641 -11398.948)" fill="#f9c642" fill-rule="evenodd"/>
        <path id="Trazado_822249" data-name="Trazado 822249" d="M1220.693,889.563a22.992,22.992,0,0,0-1.907-1.553.391.391,0,0,1,.465-.628,16.3,16.3,0,0,1,2.284,1.957.426.426,0,0,1,.054.345.744.744,0,0,1-.217.33,12.039,12.039,0,0,1-2.283,1.386.39.39,0,0,1-.337-.7,14.58,14.58,0,0,0,1.816-1.039c.041-.029.084-.063.125-.094" transform="translate(-4112.369 -11409.242)" fill="#9564e8" fill-rule="evenodd"/>
        <path id="Trazado_822250" data-name="Trazado 822250" d="M1706.707,1056.215a37.506,37.506,0,0,0-3.4-2.561.39.39,0,1,1,.413-.662,43.67,43.67,0,0,1,3.817,2.9.386.386,0,0,1,.174.324.471.471,0,0,1-.127.32,26.222,26.222,0,0,1-4.012,2.515.39.39,0,0,1-.364-.691c1.282-.677,2.864-1.717,3.5-2.144m.331.274a.405.405,0,0,0,.051.042l-.051-.042" transform="translate(-4525.171 -11550.368)" fill="#fd5d31" fill-rule="evenodd"/>
        <path id="Trazado_822251" data-name="Trazado 822251" d="M1002.47,1057.577a2.665,2.665,0,0,0,.346.3,28.087,28.087,0,0,0,4.08,2.046.391.391,0,1,1-.313.715,28.944,28.944,0,0,1-4.217-2.124,2.54,2.54,0,0,1-.555-.5.771.771,0,0,1-.175-.466.6.6,0,0,1,.078-.283,1.616,1.616,0,0,1,.375-.418,33.7,33.7,0,0,1,4.575-2.679.391.391,0,0,1,.359.694,42.641,42.641,0,0,0-4.1,2.328,4.5,4.5,0,0,0-.455.381" transform="translate(-3927.558 -11551.389)" fill="#fd5d31" fill-rule="evenodd"/>
        <path id="Trazado_822252" data-name="Trazado 822252" d="M1116.413,1223.343c-.711,2.017-1.551,4.323-2.439,6.454a.39.39,0,1,0,.72.3c.894-2.146,1.739-4.465,2.455-6.5a.39.39,0,0,0-.736-.259" transform="translate(-4023.253 -11695.348)" fill="#fd5d31" fill-rule="evenodd"/>
        <path id="Trazado_822253" data-name="Trazado 822253" d="M1053.531,1051.049c-1.313,3.174-1.4,3.392-2.689,6.593a.39.39,0,0,0,.723.292c1.289-3.2,1.377-3.416,2.688-6.587a.39.39,0,0,0-.721-.3" transform="translate(-3969.461 -11548.557)" fill="#f9c642" fill-rule="evenodd"/>
        <path id="Trazado_822254" data-name="Trazado 822254" d="M1311.131,1230.586l-.1-.066c-.609-.4-1.788-1.091-3.673-2.4a.39.39,0,1,1,.444-.642c2.4,1.666,3.663,2.345,4.06,2.672a.622.622,0,0,1,.279.525.637.637,0,0,1-.335.438c-.421.274-1.711.917-4.248,2.465a.39.39,0,0,1-.406-.667c2.051-1.251,3.4-2.01,3.977-2.327" transform="translate(-4187.723 -11699.036)" fill="#f9c642" fill-rule="evenodd"/>
        <path id="Trazado_822255" data-name="Trazado 822255" d="M996.916,1110.588c.209,6.389.155,20.031.155,25.638a.39.39,0,1,0,.781,0c0-5.612.054-19.268-.156-25.664a.39.39,0,1,0-.779.026" transform="translate(-3923.536 -11599.15)" fill="#9564e8" fill-rule="evenodd"/>
        <path id="Trazado_822256" data-name="Trazado 822256" d="M1128.659,959.24c.018,2.169.066,3.548.04,5.1a.39.39,0,0,0,.779.014c.027-1.556-.021-2.941-.039-5.118a.39.39,0,1,0-.781.006" transform="translate(-4035.792 -11470.2)" fill="#f9c642" fill-rule="evenodd"/>
        <path id="Trazado_822257" data-name="Trazado 822257" d="M1194.776,1404.183c.018,2.168.067,3.548.04,5.1a.39.39,0,1,0,.781.013c.027-1.556-.021-2.94-.04-5.118a.39.39,0,0,0-.78.008" transform="translate(-4092.128 -11849.325)" fill="#9564e8" fill-rule="evenodd"/>
        <path id="Trazado_822258" data-name="Trazado 822258" d="M1146.884,959.362c0,1.691.013,3.906.01,5a.39.39,0,0,0,.781,0c0-1.1-.012-3.313-.01-5a.39.39,0,0,0-.781,0" transform="translate(-4051.32 -11470.308)" fill="#f9c642" fill-rule="evenodd"/>
        <path id="Trazado_822259" data-name="Trazado 822259" d="M1213.005,1404.3c0,1.69.013,3.906.01,5a.39.39,0,0,0,.781,0c0-1.1-.013-3.313-.01-5a.39.39,0,1,0-.781,0" transform="translate(-4107.661 -11849.425)" fill="#9564e8" fill-rule="evenodd"/>
        <path id="Trazado_822260" data-name="Trazado 822260" d="M1165.552,956.945c.611-.011,1.15,0,1.861.013a.39.39,0,0,0,.011-.781c-.72-.011-1.266-.024-1.887-.013a.39.39,0,1,0,.014.78" transform="translate(-4066.889 -11467.911)" fill="#f9c642" fill-rule="evenodd"/>
        <path id="Trazado_822261" data-name="Trazado 822261" d="M1370.284,1308.576c.556-.013,1.045,0,1.69,0a.39.39,0,1,0,.008-.781c-.656-.005-1.152-.015-1.716,0a.39.39,0,1,0,.018.779" transform="translate(-4241.334 -11767.525)" fill="#9564e8" fill-rule="evenodd"/>
        <path id="Trazado_822262" data-name="Trazado 822262" d="M1398.654,1309.051c.556-.013,1.045,0,1.69,0a.39.39,0,0,0,.008-.781c-.656-.006-1.152-.015-1.717,0a.39.39,0,1,0,.02.781" transform="translate(-4265.507 -11767.93)" fill="#9564e8" fill-rule="evenodd"/>
        <path id="Trazado_822263" data-name="Trazado 822263" d="M1232.663,1402.143c.7.014,1.307.016,2.114.022a.39.39,0,0,0,.007-.781c-.8-.006-1.413-.007-2.1-.022a.39.39,0,0,0-.016.78" transform="translate(-4124.086 -11847.256)" fill="#9564e8" fill-rule="evenodd"/>
        <path id="Trazado_822264" data-name="Trazado 822264" d="M1454.187,875.329c.8.025,1.187.009,1.809.023a.39.39,0,1,0,.017-.78c-.62-.014-1.007,0-1.8-.023a.39.39,0,0,0-.025.78" transform="translate(-4312.844 -11398.372)" fill="#f9c642" fill-rule="evenodd"/>
        <path id="Trazado_822265" data-name="Trazado 822265" d="M1486.686,875.7c.577.012,1.121.031,1.75.013a.391.391,0,0,0-.023-.781c-.615.019-1.147,0-1.71-.013a.39.39,0,0,0-.016.78" transform="translate(-4340.532 -11398.685)" fill="#f9c642" fill-rule="evenodd"/>
        <path id="Trazado_822266" data-name="Trazado 822266" d="M1000.421,1309.731a2.332,2.332,0,0,0-.259-.126c-.419-.159-.96-.272-1.046-.3a.385.385,0,0,1-.26-.448.377.377,0,0,1,.4-.318,1.054,1.054,0,0,0,.684-.4,1.083,1.083,0,0,0,.345-.626,6.131,6.131,0,0,1,.08-1.575,1.767,1.767,0,0,1,.641-1.047,2.153,2.153,0,0,1,1.632-.311.39.39,0,1,1-.1.774,1.426,1.426,0,0,0-1.063.162,1.165,1.165,0,0,0-.389.818,6.834,6.834,0,0,0-.018,1.157,1.894,1.894,0,0,1-.553,1.179c-.057.062-.117.12-.18.176a2.588,2.588,0,0,1,.55.249.651.651,0,0,1,.323.513c.009.461-.106,1.009-.107,1.5a.94.94,0,0,0,.181.674,1.287,1.287,0,0,0,.976.261.39.39,0,0,1,.005.781,1.989,1.989,0,0,1-1.552-.51,1.7,1.7,0,0,1-.39-1.21c0-.446.1-.94.107-1.37" transform="translate(-3925.183 -11764.76)" fill="#f9c642" fill-rule="evenodd"/>
        <path id="Trazado_822267" data-name="Trazado 822267" d="M1466.477,1306.136a3.362,3.362,0,0,1-.551-.318,1.3,1.3,0,0,1-.58-.9,9.22,9.22,0,0,1,.032-1.2c.005-.218.011-.416-.153-.541a1.731,1.731,0,0,0-1.026-.187.39.39,0,1,1-.009-.78,2.411,2.411,0,0,1,1.508.347,1.191,1.191,0,0,1,.457.94c.025.394-.078.872-.031,1.345a.406.406,0,0,0,.131.234,1.585,1.585,0,0,0,.377.267c.23.125.465.216.607.282a.87.87,0,0,1,.241.151.409.409,0,0,1-.042.633,7.673,7.673,0,0,0-.889.682.986.986,0,0,0-.361.7,6.25,6.25,0,0,1-.034.942,1.441,1.441,0,0,1-.488.937,2.429,2.429,0,0,1-1.913.32.39.39,0,1,1,.1-.774c.685.088,1.087.042,1.317-.148a.684.684,0,0,0,.213-.454,5.39,5.39,0,0,0,.025-.82,1.624,1.624,0,0,1,.412-1.066,3.912,3.912,0,0,1,.659-.593" transform="translate(-4321.026 -11762.77)" fill="#fe825f" fill-rule="evenodd"/>
        <path id="Trazado_822268" data-name="Trazado 822268" d="M872.178,673.417c-.017.372-.058,4.3-.041,4.861a.308.308,0,1,1-.615.019c-.017-.564.028-4.715.049-5.041a1.068,1.068,0,0,1,.035-.233.308.308,0,0,1,.258-.2,4.891,4.891,0,0,1,1.019-.058c9.133-.189,52.543-.29,56.9-.356a.308.308,0,1,1,.01.615c-4.353.067-47.761.168-56.893.357a5.2,5.2,0,0,0-.718.041" transform="translate(-3816.689 -11226.129)" fill="#fff" fill-rule="evenodd"/>
        <path id="Trazado_822269" data-name="Trazado 822269" d="M1519.824,1169.168a.3.3,0,0,0-.485-.074c-.181.19-6.739,6.57-7.6,7.472a.614.614,0,0,0-.156.38,2.827,2.827,0,0,0,.205,1.054,38.658,38.658,0,0,0,5.585,9.22,18.483,18.483,0,0,0,3.317,2.972,2.661,2.661,0,0,0,.521.273.54.54,0,0,0,.226.033.634.634,0,0,0,.267-.128c.25-.183.828-.693,1.549-1.36,1.661-1.535,4.1-3.9,5.047-4.927a5.264,5.264,0,0,0,.368-.429.582.582,0,0,0,.094-.183.353.353,0,0,0-.011-.193,2.6,2.6,0,0,0-.214-.411c-1.167-1.962-7.332-10.863-8.717-13.7m-.349.631c-1.309,1.285-6.48,6.322-7.285,7.164a1.346,1.346,0,0,0,.013.282,7.247,7.247,0,0,0,.542,1.51,39.961,39.961,0,0,0,5.075,8.061,17.937,17.937,0,0,0,3.2,2.871,3.583,3.583,0,0,0,.344.187c.195-.162.842-.705,1.491-1.3,1.651-1.524,4.076-3.876,5.014-4.893.108-.117.206-.233.268-.309-.105-.18-.354-.6-.662-1.081-1.838-2.85-6.5-9.677-8-12.486" transform="translate(-4362.072 -11649.267)" fill-rule="evenodd"/>
        <path id="Trazado_822270" data-name="Trazado 822270" d="M2614.26,444.087c-15.006,0-27.215-11.864-27.215-26.447s12.208-26.447,27.215-26.447,27.214,11.864,27.214,26.447-12.208,26.447-27.214,26.447m0-52.3c-14.68,0-26.623,11.6-26.623,25.855s11.943,25.855,26.623,25.855,26.623-11.6,26.623-25.855-11.943-25.855-26.623-25.855" transform="translate(-5278.447 -10986.518)"/>
        <path id="Trazado_822271" data-name="Trazado 822271" d="M2172.178,332.707a37.265,37.265,0,0,1,3.647,3.432c2.458,2.831,4.688,5.3,7.068,8.192,3.894,4.735,9.086,11.55,11.747,14.278a136.6,136.6,0,0,0,10.495,8.88c2.036,1.609,6.106,4.967,6.672,5.124,1.8.5,3.67-1.043,5.492-3.217s4.054-7.516,5.218-10.082c.085-.189-.914-.429-2.376-1.263-3.116-1.777-13.529-8.424-15.773-9.564-1.335-.678-4.622-4.187-9.13-8.56-4.2-4.072-16.311-16.661-17.48-18.528-.915-1.46-.7-5.412-2.129-7.9-.51-.887-2.834-3.5-4.161-3.305-.461.069.621,17.05.709,22.513" transform="translate(-4924.247 -10917.489)" fill="#fdab95" fill-rule="evenodd"/>
        <path id="Trazado_822272" data-name="Trazado 822272" d="M2170.158,330.916c-.087-4.99-.962-19.119-.8-21.958a1.747,1.747,0,0,1,.1-.6.324.324,0,0,1,.244-.177,2.474,2.474,0,0,1,1.595.5,11.122,11.122,0,0,1,2.871,2.949,16.1,16.1,0,0,1,1.433,5.308,7.724,7.724,0,0,0,.69,2.584c1.166,1.861,13.248,14.412,17.434,18.472,4.477,4.341,7.731,7.835,9.058,8.508,2.246,1.141,12.667,7.792,15.786,9.571,1.183.675,2.066.968,2.327,1.155a.379.379,0,0,1,.173.491c-1.172,2.584-3.43,7.965-5.261,10.151a11.647,11.647,0,0,1-3.4,3,3.311,3.311,0,0,1-2.4.31,3.78,3.78,0,0,1-.809-.483c-1.4-.993-4.336-3.405-5.969-4.694a136.832,136.832,0,0,1-10.523-8.907c-2.666-2.731-7.865-9.554-11.764-14.3-2.379-2.894-4.607-5.356-7.064-8.186-.646-.744-3.164-3.031-3.509-3.343a.3.3,0,0,1-.171-.136.306.306,0,0,1-.044-.2c0-.009,0-.016,0-.025m-.189-22.15a15.232,15.232,0,0,0-.033,1.549c.043,4.5.732,15.994.819,20.494.584.464,2.9,2.637,3.576,3.415,2.46,2.834,4.691,5.3,7.074,8.2,3.889,4.728,9.072,11.534,11.73,14.258a135.747,135.747,0,0,0,10.466,8.854c1.424,1.125,3.843,3.107,5.36,4.248a7.406,7.406,0,0,0,1.207.823,3.057,3.057,0,0,0,2.5-.569,12.9,12.9,0,0,0,2.686-2.552c1.765-2.106,3.918-7.224,5.095-9.834-.344-.185-1.141-.472-2.171-1.058-3.114-1.776-13.518-8.418-15.76-9.557-1.345-.683-4.662-4.209-9.2-8.612-4.209-4.083-16.353-16.712-17.524-18.583a8.337,8.337,0,0,1-.775-2.807,15.464,15.464,0,0,0-1.36-5.1,10.6,10.6,0,0,0-2.2-2.4,4.3,4.3,0,0,0-1.108-.674,1.39,1.39,0,0,0-.377-.091" transform="translate(-4922.526 -10915.77)" fill-rule="evenodd"/>
        <path id="Trazado_822273" data-name="Trazado 822273" d="M2657.15,498.344a9.179,9.179,0,0,0-3.85,3.948c-1.187,2.349-1.749,3.989-3.4,6.076a19.147,19.147,0,0,1-2.332,2.144c-.339.284-.873.494-.9,1-.042.918,1.316,1.812,1.356,2.763.108,2.53-1.723,4.974-.346,7.94a5.5,5.5,0,0,0,1.9,1.777c.4.263,1.272.494,1.465.982.331.83-1.3,2.858-1.012,3.138.569.556,11.222,5.36,11.688,5.264a27.4,27.4,0,0,1,1.68-5.623,35.22,35.22,0,0,1,3.04-4.8,17.891,17.891,0,0,1,2.4-1.35c1.844-1.011,4.074-2.916,3.875-5.071-.212-2.3-2.228-5.008-6.277-4.02-.716.175-2.609,1.141-2.706.931a6.324,6.324,0,0,1-.134-3.859c.586-3.068.021-4.756-.7-5.9a16.259,16.259,0,0,0-5.759-5.339" transform="translate(-5329.252 -11077.817)" fill="#fdab95" fill-rule="evenodd"/>
        <path id="Trazado_822274" data-name="Trazado 822274" d="M2664.928,521.358a34.2,34.2,0,0,0-3.018,4.763,23.024,23.024,0,0,0-1.617,5.476.534.534,0,0,1-.1.213.317.317,0,0,1-.173.1.576.576,0,0,1-.234-.012,11.524,11.524,0,0,1-1.283-.46c-2.394-.961-7.306-3.183-9.41-4.263a6.32,6.32,0,0,1-1.039-.61.437.437,0,0,1-.126-.35,1.966,1.966,0,0,1,.219-.648c.212-.438.557-1.027.748-1.551a1.077,1.077,0,0,0,.1-.695,1.011,1.011,0,0,0-.51-.416c-.3-.157-.629-.286-.838-.422a5.85,5.85,0,0,1-2.016-1.906,6.526,6.526,0,0,1-.324-4.326,15.488,15.488,0,0,0,.642-3.729,2.526,2.526,0,0,0-.648-1.224,2.686,2.686,0,0,1-.708-1.566,1.1,1.1,0,0,1,.438-.807c.179-.152.4-.276.569-.419a18.784,18.784,0,0,0,2.288-2.1c1.636-2.068,2.189-3.7,3.367-6.025a8.983,8.983,0,0,1,3.6-3.838,2.953,2.953,0,0,0,.319-.2.306.306,0,0,1,.361-.038,16.561,16.561,0,0,1,5.866,5.441c.743,1.191,1.345,2.94.736,6.124a6.4,6.4,0,0,0,.033,3.489c.1-.029.25-.074.382-.125.654-.251,1.589-.68,2.048-.792a5.68,5.68,0,0,1,4.117.352,5,5,0,0,1,2.541,3.937,3.964,3.964,0,0,1-.8,2.63,9.792,9.792,0,0,1-3.233,2.739c-.386.213-1.341.677-1.922,1.014-.168.1-.345.224-.371.242m-9.54-24.422c-.063.039-.138.084-.224.135a8.391,8.391,0,0,0-3.364,3.587c-1.2,2.369-1.769,4.023-3.433,6.128a19.606,19.606,0,0,1-2.376,2.19c-.169.142-.387.265-.565.416a.514.514,0,0,0-.222.366,1.045,1.045,0,0,0,.152.526,5.508,5.508,0,0,0,.436.646,3.152,3.152,0,0,1,.77,1.564,16.181,16.181,0,0,1-.655,3.882,5.926,5.926,0,0,0,.28,3.94,5.141,5.141,0,0,0,1.794,1.649c.239.156.645.3.971.5a1.392,1.392,0,0,1,.612.631,1.492,1.492,0,0,1-.04.969,9.709,9.709,0,0,1-.658,1.437c-.115.221-.216.422-.279.582a.99.99,0,0,0-.032.1c.14.094.426.245.816.445,2.091,1.073,6.977,3.283,9.357,4.239.4.162.792.3,1.017.371a21.9,21.9,0,0,1,1.611-5.387,35.5,35.5,0,0,1,3.051-4.82,1.143,1.143,0,0,1,.346-.3c.527-.338,1.723-.917,2.17-1.163a9.118,9.118,0,0,0,3.023-2.553,3.352,3.352,0,0,0,.694-2.22,4.382,4.382,0,0,0-2.218-3.451,5.093,5.093,0,0,0-3.681-.3c-.572.14-1.9.785-2.451.93a.787.787,0,0,1-.367.025.344.344,0,0,1-.24-.2,6.618,6.618,0,0,1-.157-4.046c.565-2.953.036-4.578-.654-5.683a15.846,15.846,0,0,0-5.486-5.137" transform="translate(-5327.478 -11076.044)" fill-rule="evenodd"/>
        <path id="Trazado_822275" data-name="Trazado 822275" d="M1841.583,293.942c-.051-8.119-.395-20.632-.395-23.988,0-4.264-.66-6.506-1.947-7.675a5.2,5.2,0,0,0-3.132-1.182c-1.845-.181-4.24.05-7.223.034-10.064-.05-21.142-.295-31.2-.026a33.6,33.6,0,0,0-6.831.624,6.037,6.037,0,0,0-2.84,1.456c-1.167,1.145-1.716,2.944-1.671,5.828.118,7.708.075,18.479.321,27.862.057,2.177.476,3.869,1.7,5.116a8.22,8.22,0,0,0,4.295,2.058,37.584,37.584,0,0,0,8,.591c8.363-.069,20.194-.083,28.558-.27,2.155-.048,4.114.027,5.8-.147a6.851,6.851,0,0,0,4.323-1.719c1.445-1.425,2.28-3.972,2.251-8.561" transform="translate(-4596.186 -10875.566)" fill-rule="evenodd"/>
        <path id="Trazado_822276" data-name="Trazado 822276" d="M1820.049,234.5c-7.855.21-11.15.674-11.043,7.6.118,7.707.075,18.477.322,27.859.137,5.217,2.337,7.56,13.676,7.465,8.361-.07,20.191-.083,28.553-.27,7.153-.16,12.143,1.049,12.074-10.119-.052-8.119-.4-20.633-.4-23.989,0-10.33-3.743-8.475-12-8.516-10.061-.051-21.136-.3-31.191-.026" transform="translate(-4615.496 -10852.896)" fill="#f9305f" fill-rule="evenodd"/>
        <path id="Trazado_822277" data-name="Trazado 822277" d="M1818.273,232.419a33.662,33.662,0,0,0-6.832.625,6.025,6.025,0,0,0-2.839,1.456c-1.167,1.144-1.716,2.944-1.671,5.827.118,7.708.075,18.48.322,27.862.057,2.177.476,3.869,1.7,5.117a8.229,8.229,0,0,0,4.3,2.057,37.629,37.629,0,0,0,8,.592c8.363-.07,20.194-.083,28.557-.27,2.155-.049,4.115.026,5.8-.147a6.848,6.848,0,0,0,4.323-1.72c1.445-1.424,2.28-3.971,2.252-8.561-.051-8.119-.4-20.632-.4-23.987,0-4.264-.66-6.506-1.947-7.676a5.208,5.208,0,0,0-3.132-1.182c-1.845-.18-4.24.05-7.223.035-10.064-.051-21.142-.3-31.2-.026m.017.616c10.052-.269,21.124-.025,31.181.026,2.96.014,5.337-.217,7.167-.038a4.615,4.615,0,0,1,2.778,1.025c1.206,1.1,1.745,3.22,1.745,7.221,0,3.356.344,15.871.4,23.991.027,4.344-.7,6.77-2.068,8.118a6.26,6.26,0,0,1-3.954,1.547c-1.671.172-3.615.1-5.751.144-8.361.187-20.188.2-28.549.27a36.973,36.973,0,0,1-7.861-.578,7.634,7.634,0,0,1-3.985-1.886c-1.117-1.143-1.468-2.7-1.521-4.7-.246-9.38-.2-20.149-.322-27.856-.04-2.654.414-4.325,1.487-5.379a6.276,6.276,0,0,1,3.433-1.483,42.2,42.2,0,0,1,5.824-.421" transform="translate(-4613.728 -10851.123)" fill-rule="evenodd"/>
        <path id="Trazado_822278" data-name="Trazado 822278" d="M1968.084,311.7c1.765,2.815,7.82,12.822,10.932,17.835a.308.308,0,1,0,.522-.325c-3.112-5.014-9.167-15.022-10.933-17.838a.308.308,0,0,0-.521.328" transform="translate(-4751.004 -10918.382)" fill-rule="evenodd"/>
        <path id="Trazado_822279" data-name="Trazado 822279" d="M2058.749,319.535c-1.647-1.614-8.829-6.509-11.628-8.837a.308.308,0,0,1,.395-.473c2.848,2.37,10.218,7.393,11.738,8.943a.5.5,0,0,1,.1.506,4.2,4.2,0,0,1-.7,1.188c-2.052,2.725-8.2,8.748-9.446,9.965a.307.307,0,1,1-.429-.44c1.24-1.21,7.345-7.189,9.382-9.895a5.935,5.935,0,0,0,.517-.778,1.462,1.462,0,0,0,.073-.18" transform="translate(-4818.296 -10917.465)" fill-rule="evenodd"/>
        <path id="Trazado_822280" data-name="Trazado 822280" d="M1854.207,318.255a1.234,1.234,0,0,0,.073.173,6.073,6.073,0,0,0,.539.777c2.125,2.706,8.49,8.686,9.784,9.9a.308.308,0,1,1-.42.45c-1.3-1.217-7.709-7.241-9.847-9.965a4.186,4.186,0,0,1-.733-1.19.5.5,0,0,1,.1-.514c1.585-1.55,9.268-6.573,12.238-8.943a.308.308,0,1,1,.383.481c-2.917,2.327-10.4,7.22-12.121,8.835" transform="translate(-4653.475 -10916.373)" fill-rule="evenodd"/>
        <path id="Trazado_822281" data-name="Trazado 822281" d="M1973.759,521.048c-5.625-6.5-20.417-24.662-21.318-25.807-1.7-2.16-6.269-6.655-5.75-9,.146-.662,1.09-.71,1-.837-.644-.861-2.192-3.048-1.467-4.36a1.53,1.53,0,0,1,1.365-.723c.311-.047.016-.671.759-1.346,1.315-1.2,2.819,1.487,2.994,1.175.439-.784,1.27-1.763,2.455-.778,2.4,1.994,4.868,5.506,6.777,7.787a8.632,8.632,0,0,0,1.227,1.306c.029,0,.126-1.127.235-2.854.088-1.41.7-2.412,1.261-2.5,1.026-.167.929,1.635,1.592,3.608.417,1.241.82,2.4,1.392,3.838a25.562,25.562,0,0,0,1.716,3.754c.765,1.232,16.557,18.315,24.5,25.821,1.564,1.478,22.106-1.029,22.238-.783s.852,8.96.985,10.667c.274,3.526.5,5.256.717,6.952.055.437-11.611.195-15.917.433-12.624.7-18.223-6.493-26.756-16.352" transform="translate(-4732.252 -11061.052)" fill="#fdab95" fill-rule="evenodd"/>
        <path id="Trazado_822282" data-name="Trazado 822282" d="M2467.5,629.639c-.562.919-9.4,13.625-8.984,14.107.317.372,4.591.431,6.116.427,5.336-.015,22.986-2.89,22.776-3.169-.746-.992-4.651-2.995-5.708-3.621-5.88-3.487-9.623-5.457-14.2-7.743" transform="translate(-5168.921 -11189.689)" fill="#fff" fill-rule="evenodd"/>
        <path id="Trazado_822283" data-name="Trazado 822283" d="M2465.919,627.646a.3.3,0,0,0-.389.111c-.449.736-6.195,9.019-8.264,12.548a7.491,7.491,0,0,0-.764,1.538.42.42,0,0,0,.071.371.564.564,0,0,0,.207.144,2.6,2.6,0,0,0,.587.145,49.874,49.874,0,0,0,5.552.243c4.817-.014,19.64-2.35,22.4-3.022a1.961,1.961,0,0,0,.546-.19.316.316,0,0,0,.119-.183.293.293,0,0,0-.055-.254,6.369,6.369,0,0,0-1.436-1.17c-1.475-.971-3.615-2.089-4.357-2.528-5.888-3.492-9.636-5.465-14.22-7.753m-.027.655c-1.021,1.547-6.174,9.006-8.11,12.307a10.3,10.3,0,0,0-.656,1.235c.027.009.054.016.08.022a7.038,7.038,0,0,0,.8.114c1.453.144,3.852.171,4.913.168,4.773-.014,19.426-2.323,22.237-3a9.62,9.62,0,0,0-.988-.722c-1.466-.965-3.6-2.076-4.333-2.513-5.771-3.421-9.479-5.381-13.942-7.613" transform="translate(-5167.202 -11187.964)" fill-rule="evenodd"/>
        <path id="Trazado_822284" data-name="Trazado 822284" d="M2015.015,535.177c-.212-1.693-.441-3.421-.717-6.939-.106-1.366-.591-7.225-.846-9.636-.053-.5-.1-.849-.125-1a.586.586,0,0,0-.048-.152.3.3,0,0,0-.174-.147,2.987,2.987,0,0,0-.722-.009c-2.4.15-11.342,1.124-16.971,1.239a24.738,24.738,0,0,1-3.475-.108,3.7,3.7,0,0,1-.753-.162.6.6,0,0,1-.2-.106c-7.927-7.49-23.69-24.532-24.453-25.762a25.3,25.3,0,0,1-1.692-3.706c-.569-1.43-.97-2.587-1.386-3.823-.4-1.188-.525-2.315-.784-2.99-.234-.611-.58-.909-1.14-.817a1.389,1.389,0,0,0-.859.64,4.341,4.341,0,0,0-.652,2.14c-.057.908-.124,1.717-.168,2.225-.286-.314-.666-.732-.765-.851-1.92-2.293-4.4-5.819-6.816-7.825a1.813,1.813,0,0,0-1.16-.484,1.5,1.5,0,0,0-.906.321,2.959,2.959,0,0,0-.686.771c-.05-.047-.1-.1-.151-.15a5.366,5.366,0,0,0-1.207-1.013,1.387,1.387,0,0,0-1.729.167,1.948,1.948,0,0,0-.632,1.061l-.051.222a1.73,1.73,0,0,0-1.5.863,2.578,2.578,0,0,0,0,2.1,9.836,9.836,0,0,0,1.292,2.312,2.917,2.917,0,0,0-.264.128,1.138,1.138,0,0,0-.584.739,4.239,4.239,0,0,0,.723,2.78c1.279,2.274,3.886,4.947,5.084,6.467.9,1.146,15.7,19.318,21.327,25.818,8.6,9.941,14.27,17.16,27,16.454,3.882-.214,13.737-.043,15.629-.324a.935.935,0,0,0,.474-.171.315.315,0,0,0,.095-.273m-1.534-.072c-3.1.168-11.252.052-14.7.243-12.517.693-18.051-6.471-26.512-16.248-5.623-6.5-20.408-24.652-21.31-25.8-1.018-1.292-3.065-3.421-4.427-5.423a8.807,8.807,0,0,1-1.163-2.207,2.21,2.21,0,0,1-.1-1.118.556.556,0,0,1,.3-.349,2.271,2.271,0,0,1,.317-.144l.287.359c.355.445.7.9,1.067,1.332,1.186,1.423,2.372,2.889,3.659,4.223a.3.3,0,0,0,.431-.415c-1.276-1.325-2.453-2.78-3.63-4.192-.362-.434-.707-.881-1.059-1.322-.124-.156-.249-.31-.373-.466l0,0a.334.334,0,0,0-.052-.106,9.879,9.879,0,0,1-1.406-2.426,1.987,1.987,0,0,1-.039-1.61c.282-.509.727-.512,1.118-.568.47.664,1.253,1.81,1.7,2.395,1.707,2.24,3.533,4.428,5.41,6.524a.3.3,0,1,0,.445-.4c-1.867-2.084-3.681-4.26-5.38-6.487-.459-.6-1.276-1.8-1.737-2.449a1.582,1.582,0,0,1,.507-1.007.9.9,0,0,1,1.207.015,8.068,8.068,0,0,1,1.129,1.039,1.218,1.218,0,0,0,.125.1.3.3,0,0,0,.041.076c.388.505,1.167,1.593,1.557,2.1A50.65,50.65,0,0,0,1955.28,486a.3.3,0,1,0,.419-.427,50,50,0,0,1-4.337-5.162c-.352-.455-1.022-1.387-1.434-1.935a2.868,2.868,0,0,1,.5-.657,1.01,1.01,0,0,1,.678-.31,1.248,1.248,0,0,1,.779.345c2.387,1.984,4.84,5.48,6.739,7.749.158.189.766.923,1.084,1.216a.7.7,0,0,0,.351.2.317.317,0,0,0,.326-.274c.038-.2.131-1.284.229-2.86a3.737,3.737,0,0,1,.548-1.837.807.807,0,0,1,.462-.389c.262-.043.376.155.486.441.257.669.379,1.788.775,2.967.419,1.246.823,2.413,1.4,3.854a25.883,25.883,0,0,0,1.739,3.8c.768,1.234,16.59,18.358,24.551,25.881a1.677,1.677,0,0,0,.757.333,16.482,16.482,0,0,0,3.311.217c4.714-.026,12.419-.8,16.188-1.125.867-.075,1.607-.117,1.933-.133.025.179.062.466.1.776.255,2.408.738,8.257.844,9.621.262,3.367.484,5.1.689,6.728-.191.027-.539.071-.91.091" transform="translate(-4730.54 -11059.3)" fill-rule="evenodd"/>
        <path id="Trazado_822285" data-name="Trazado 822285" d="M2345.928,706.026c-2.447-3.192-12.378-6.956-14.466-6.768-.9.081-5.748-.06-12.01.5-8.568.763-17.8,2.648-25.655,4.128-.763.144,1.012,16.655.124,18.416-.574,1.137-12.571,15.748-14.425,18.1-.8,1.022-5.066,6.463-5.249,7.348-.242,1.175,26.783,16.5,39.281,23.19,3.637,1.948,6.167,3.6,6.285,3.419.8-1.216,5.1-9.708,6.008-11.723,3.691-8.229,11.849-21.077,20.323-44.225.866-2.365,2.232-9.194-.216-12.386" transform="translate(-5011.917 -11249.004)" fill="#fff" fill-rule="evenodd"/>
        <path id="Trazado_822286" data-name="Trazado 822286" d="M2344.454,704.128c-1.491-1.945-5.708-4.114-9.308-5.484a17.247,17.247,0,0,0-5.422-1.4c-.9.081-5.748-.06-12.009.5-8.579.763-17.815,2.65-25.683,4.132a.409.409,0,0,0-.3.275,6.567,6.567,0,0,0-.137,1.823c.024,3.05.519,9.282.569,13.23a24.3,24.3,0,0,1-.062,2.466,2.552,2.552,0,0,1-.156.782c-.571,1.134-12.544,15.7-14.393,18.054-.564.717-2.827,3.606-4.2,5.578a8.436,8.436,0,0,0-1.11,1.895.565.565,0,0,0,.161.457,16.487,16.487,0,0,0,2.76,2.072c7.2,4.741,26.506,15.626,36.511,20.985,2.915,1.562,5.122,2.931,5.948,3.324a1.087,1.087,0,0,0,.486.14.315.315,0,0,0,.242-.145c.8-1.22,5.125-9.742,6.033-11.765,3.691-8.232,11.853-21.086,20.331-44.244a23.146,23.146,0,0,0,1.185-7.437,8.963,8.963,0,0,0-1.445-5.235m-26.5,68.183c1.014-1.673,5.014-9.58,5.881-11.513,3.688-8.224,11.845-21.067,20.316-44.2a22.508,22.508,0,0,0,1.148-7.221,8.351,8.351,0,0,0-1.322-4.881c-1.446-1.887-5.554-3.96-9.046-5.289a16.724,16.724,0,0,0-5.155-1.363c-.9.081-5.749-.06-12.011.5-8.51.757-17.67,2.624-25.491,4.1a13.6,13.6,0,0,0-.086,1.53c.024,3.049.519,9.28.57,13.227a20.662,20.662,0,0,1-.1,2.834,2.319,2.319,0,0,1-.181.691c-.574,1.14-12.6,15.792-14.456,18.155-.562.714-2.813,3.587-4.177,5.549a10.06,10.06,0,0,0-.994,1.6,1.566,1.566,0,0,0,.137.154,20.776,20.776,0,0,0,2.507,1.826c7.19,4.735,26.472,15.6,36.464,20.956,3.039,1.627,5.294,3.048,6,3.349" transform="translate(-5010.206 -11247.289)" fill-rule="evenodd"/>
        <path id="Trazado_822287" data-name="Trazado 822287" d="M2710.629,443.354c-1.055-.445-2.867-2.593-3.614-1.728-.676.782-.232,2.3-.007,3.227.116.482.483,1.626.6,1.956a5.927,5.927,0,0,1-.875-.293c-.488-.157-1.711-.78-2.142.1-.56,1.143.734,2.668,1.412,3.553,1.374,2.212,4.949,4.026,5.72,6.164.652,1.812.224,4.483.071,6.366-.072.879-.324,2.136.39,2.831.755.734,2.128.113,2.925-.3,2.417-1.265,4.739-.645,5.721,1.118,1.381,2.481.357,4.4-2.652,5.5-.154.057-2.439.829-2.75.849-.561.036.278,1.809.687,1.757a21.762,21.762,0,0,0,7.3-2.789c3.561-2.246,6.71-6.145,7.317-10.475.736-5.254-2.962-10.336-7.147-13.087a26.115,26.115,0,0,0-7.418-3.236,46.08,46.08,0,0,1-5.531-1.512" transform="translate(-5378.486 -11029.315)" fill-rule="evenodd"/>
        <path id="Trazado_822288" data-name="Trazado 822288" d="M2683.627,533.275c-.619.45-1.08-.658-1.311-.9a2.875,2.875,0,0,0-1.161-.771,3.807,3.807,0,0,1-1.59-.953,1.078,1.078,0,0,1,.931-1.7,2.359,2.359,0,0,1,1.365.428,5.3,5.3,0,0,1,1.909,2.159c.17.433.375,1.367-.143,1.743" transform="translate(-5357.091 -11103.89)" fill-rule="evenodd"/>
        <path id="Trazado_822289" data-name="Trazado 822289" d="M2683.9,562.034a.752.752,0,1,0,.717.8.758.758,0,0,0-.717-.8" transform="translate(-5360.283 -11132.084)" fill="#020202" fill-rule="evenodd"/>
        <path id="Trazado_822290" data-name="Trazado 822290" d="M2663.083,604.457c.355-1.388,2.14-.747,3.277-1.323,1.581-.8,2.464-2.185,3.526-1.459,1.448.991-.5,4.148-2.727,4.71-3.007.759-4.3-1.053-4.076-1.928" transform="translate(-5343.215 -11165.688)" fill="#fff" fill-rule="evenodd"/>
        <path id="Trazado_822291" data-name="Trazado 822291" d="M2661.016,602.585a1.571,1.571,0,0,0,.252,1.186c.537.856,1.9,1.7,4.2,1.117a5.238,5.238,0,0,0,3.243-2.971,1.805,1.805,0,0,0-.417-2.291,1.4,1.4,0,0,0-1.556-.052c-.636.318-1.335,1.009-2.283,1.49a5.846,5.846,0,0,1-1.833.327,1.625,1.625,0,0,0-1.6,1.194m.6.153c.141-.551.586-.669,1.088-.738a6.419,6.419,0,0,0,2.03-.387,19.846,19.846,0,0,0,1.985-1.318c.433-.279.811-.447,1.228-.162.466.32.441.926.193,1.558a4.57,4.57,0,0,1-2.821,2.6,3.305,3.305,0,0,1-3.306-.568,1.154,1.154,0,0,1-.4-.986" transform="translate(-5341.446 -11163.893)" fill-rule="evenodd"/>
        <path id="Trazado_822292" data-name="Trazado 822292" d="M2786.712,611.818a.919.919,0,0,1,.185.115,2.221,2.221,0,0,1,.492.522,1.92,1.92,0,0,1,.056,1.99.308.308,0,1,0,.532.309,2.54,2.54,0,0,0-.075-2.637,2.832,2.832,0,0,0-.628-.67,1.5,1.5,0,0,0-.31-.191.308.308,0,1,0-.252.562" transform="translate(-5448.422 -11174.003)" fill-rule="evenodd"/>
        <path id="Trazado_822293" data-name="Trazado 822293" d="M1521.277,1171.025c-.18.19-6.739,6.57-7.6,7.472-.7.74,3.544,7.958,5.639,10.246,2.012,2.2,3.558,3.207,3.812,3.181a79.882,79.882,0,0,0,7.065-6.8c.07-.29-7.378-10.945-8.919-14.1" transform="translate(-4363.793 -11650.991)" fill="#fdab95" fill-rule="evenodd"/>
        <path id="Trazado_822294" data-name="Trazado 822294" d="M1921.428,1547.255c.1.24,3.406,8.774,3.9,9.915.405.936,8.711-.145,11.637-1.176,2.811-.989,4.344-2.018,4.419-2.261a79.943,79.943,0,0,0-3.491-9.164c-.238-.179-12.96,2.5-16.465,2.685" transform="translate(-4711.29 -11969.272)" fill="#fdab95" fill-rule="evenodd"/>
        <path id="Trazado_822295" data-name="Trazado 822295" d="M1919.688,1545.238a.3.3,0,0,0-.258.418c.1.24,3.406,8.774,3.9,9.915a.624.624,0,0,0,.288.293,2.839,2.839,0,0,0,1.05.224,38.676,38.676,0,0,0,10.672-1.529,18.384,18.384,0,0,0,4.032-1.888,2.588,2.588,0,0,0,.456-.373.543.543,0,0,0,.118-.194.631.631,0,0,0-.014-.3c-.07-.3-.314-1.033-.645-1.958-.762-2.13-1.984-5.3-2.557-6.575a5.339,5.339,0,0,0-.25-.506.558.558,0,0,0-.132-.157.345.345,0,0,0-.181-.066,2.76,2.76,0,0,0-.462.036c-2.263.305-12.867,2.49-16.017,2.656m16.318-2.083c-.208.025-.7.088-1.254.184-3.343.576-11.452,2.195-14.62,2.467.67,1.708,3.279,8.438,3.739,9.509a1.352,1.352,0,0,0,.263.1,7.244,7.244,0,0,0,1.6.093,40.02,40.02,0,0,0,9.4-1.512,17.917,17.917,0,0,0,3.893-1.817,3.31,3.31,0,0,0,.307-.244c-.073-.242-.32-1.051-.616-1.883-.757-2.116-1.971-5.269-2.539-6.53-.065-.146-.134-.28-.179-.367" transform="translate(-4709.566 -11967.556)" fill-rule="evenodd"/>
        <path id="Trazado_822296" data-name="Trazado 822296" d="M1270.844,1220.193c.1.139-.24,3.644-.311,4.828-.266,4.439-1.074,8.738-1.615,13.135-.178,1.447-.035,4.178-1.87,4.01-4.216-.386-8.875-2.3-12.675-4.2-1.288-.646-2.872-1.092-3.969-2.1-1.569-1.451-.915-4.248-3.008-5.395a4.937,4.937,0,0,0-3.7-.634c-1.091.333-1.707,1.365-2.9.93-2.953-1.074-5.612-3.341-8.268-5.056a125.393,125.393,0,0,1-10.437-7.611c-1.441-1.154-3.877-2.783-5.078-4.255-2.362-2.892.793-5.373,3.363-7.771a5.958,5.958,0,0,1,2.943-1.606,8.145,8.145,0,0,1,4.744.657,20.926,20.926,0,0,0,7.267,1.781,53.308,53.308,0,0,0,10.784-1c2.07-.329,3.977-.48,6.077-.72,2.249-.258,7.773-.923,8.152-.922.176,0,.218,1.257.364,2.026a17.3,17.3,0,0,0,1.386,4.158c1.86,3.869,5.5,7.352,8.757,9.753" transform="translate(-4110.361 -11679.307)" fill="#fff" fill-rule="evenodd"/>
        <path id="Trazado_822297" data-name="Trazado 822297" d="M1830.719,1604.834c.168,0,2.924,2.189,3.877,2.894,3.576,2.642,6.739,5.665,10.13,8.515,1.116.939,3.484,2.308,2.342,3.756-2.623,3.323-6.764,6.188-10.431,8.334-1.243.727-2.481,1.812-3.928,2.178-2.072.524-4.061-1.548-6.162-.42a4.938,4.938,0,0,0-2.55,2.758c-.315,1.1.214,2.175-.8,2.941-2.51,1.89-5.86,2.884-8.746,4.174a125.269,125.269,0,0,1-12.072,4.6c-1.752.579-4.446,1.733-6.335,1.937-3.713.4-4.072-3.595-4.68-7.057a5.96,5.96,0,0,1,.258-3.343,8.137,8.137,0,0,1,3.137-3.618,20.935,20.935,0,0,0,5.455-5.121,53.281,53.281,0,0,0,5.039-9.588c.853-1.915,1.767-3.6,2.71-5.485,1.01-2.027,3.465-7.02,3.673-7.338.1-.146,1.172.5,1.9.8a17.3,17.3,0,0,0,4.241,1.106c4.257.55,9.164-.606,12.95-2.023" transform="translate(-4600.357 -12020.63)" fill="#fff" fill-rule="evenodd"/>
        <path id="Trazado_822298" data-name="Trazado 822298" d="M1269.368,1218.323l-.028-.042-.041-.03c-2.333-1.722-6.56-5.265-8.666-9.644a17.017,17.017,0,0,1-1.362-4.085c-.051-.271-.089-.607-.127-.932-.1-.888-.152-1.333-.527-1.335h0c-.28,0-2.6.27-5.854.652-.9.106-1.733.2-2.331.272-.631.072-1.245.136-1.851.2-1.431.149-2.784.291-4.239.522l-.438.07a51.036,51.036,0,0,1-10.286.931,20.578,20.578,0,0,1-7.165-1.757,8.509,8.509,0,0,0-4.925-.673,6.258,6.258,0,0,0-3.079,1.678c-.2.183-.395.365-.594.549-2.416,2.221-5.154,4.737-2.8,7.625a23.428,23.428,0,0,0,3.833,3.311c.471.354.915.688,1.289.987a125.538,125.538,0,0,0,10.461,7.629c.743.48,1.506,1.017,2.243,1.536a27.176,27.176,0,0,0,6.084,3.549,2.236,2.236,0,0,0,2.14-.44,4.062,4.062,0,0,1,.952-.485,4.773,4.773,0,0,1,3.474.611,3.9,3.9,0,0,1,1.648,2.726,5.278,5.278,0,0,0,1.3,2.626,9.643,9.643,0,0,0,2.852,1.619c.417.178.811.346,1.185.533,4.955,2.483,9.255,3.906,12.78,4.229q.094.008.184.009a1.478,1.478,0,0,0,.984-.345c.76-.642.867-2.044.954-3.17.021-.277.041-.538.069-.762.18-1.461.393-2.937.6-4.364.413-2.86.84-5.817,1.018-8.789.023-.383.075-1.021.129-1.7.254-3.135.225-3.177.131-3.315m-1.864,13.717c-.206,1.43-.42,2.909-.6,4.376-.029.238-.05.506-.071.789-.078,1.016-.175,2.281-.746,2.764a.947.947,0,0,1-.733.2c-3.451-.316-7.68-1.719-12.569-4.169-.389-.2-.811-.375-1.218-.549a9.2,9.2,0,0,1-2.682-1.509,4.77,4.77,0,0,1-1.132-2.351,4.406,4.406,0,0,0-1.934-3.086,6.069,6.069,0,0,0-2.826-.818,3.769,3.769,0,0,0-1.1.16,4.59,4.59,0,0,0-1.093.55,1.7,1.7,0,0,1-1.623.385,26.767,26.767,0,0,1-5.946-3.477c-.742-.522-1.509-1.062-2.262-1.549a125,125,0,0,1-10.412-7.594c-.381-.305-.829-.642-1.3-1a23.049,23.049,0,0,1-3.73-3.213c-1.462-1.791-.632-3.4.87-5.012a.3.3,0,0,0,.056.208,12.506,12.506,0,0,0,3.6,3.061,28.849,28.849,0,0,1,3.623,2.4c1.09.948,2.234,2.209,3.461,3.323a10.061,10.061,0,0,0,4.1,2.5c2.488.619,5.638.1,8.193.267,3.869.261,7.161-.015,11.135,2.485a12.977,12.977,0,0,1,3.327,3.2,11.677,11.677,0,0,0,2.966,2.977,4.112,4.112,0,0,0,2.809.246c1.5-.27,3.125-.91,4.16-1.06a12.523,12.523,0,0,1,4.23.064.292.292,0,0,0,.186-.026c-.2,1.841-.468,3.666-.725,5.453m1.143-10.449c-.055.679-.107,1.32-.13,1.709-.056.93-.138,1.858-.235,2.784a.293.293,0,0,0-.129-.059,13.116,13.116,0,0,0-4.426-.068c-1.04.151-2.678.792-4.18,1.063a3.526,3.526,0,0,1-2.392-.168,11.079,11.079,0,0,1-2.808-2.836,13.568,13.568,0,0,0-3.478-3.334c-4.076-2.564-7.446-2.308-11.414-2.575-2.522-.17-5.633.361-8.089-.25a9.451,9.451,0,0,1-3.841-2.368c-1.232-1.116-2.379-2.381-3.472-3.331a29.526,29.526,0,0,0-3.7-2.457,11.922,11.922,0,0,1-3.432-2.908.3.3,0,0,0-.285-.117c.5-.51,1.053-1.022,1.616-1.539.2-.185.4-.369.6-.552a5.631,5.631,0,0,1,2.806-1.534,7.8,7.8,0,0,1,4.562.64,21.155,21.155,0,0,0,7.37,1.8,37.467,37.467,0,0,0,6.5-.355c-.094.93-.18,2.094-.255,2.935a.3.3,0,1,0,.6.054c.079-.883.17-2.121.269-3.07,1.108-.153,2.208-.327,3.3-.5l.274-.044c-.157,1.2-.264,2.57-.324,3.12a.3.3,0,1,0,.595.065c.063-.575.177-2.046.345-3.28,1.271-.189,2.482-.316,3.755-.449l.151-.016c-.193,1.253-.292,2.648-.368,3.229a.3.3,0,0,0,.594.077c.078-.6.183-2.086.391-3.371.359-.038.721-.077,1.09-.12.6-.069,1.429-.166,2.332-.272l.155-.018c-.126,1.033-.282,2.429-.378,3.442a.3.3,0,0,0,.6.056c.1-1.056.265-2.531.394-3.57,1.956-.229,4.2-.49,4.849-.547.04.188.079.532.11.8.038.336.078.683.133.975a17.631,17.631,0,0,0,1.41,4.231c2.13,4.429,6.349,8,8.745,9.787.006.414-.115,1.916-.2,2.938" transform="translate(-4108.641 -11677.604)" fill-rule="evenodd"/>
        <path id="Trazado_822299" data-name="Trazado 822299" d="M1845.957,1617.313c-.124-.987-1.24-1.841-2.136-2.528-.221-.169-.429-.328-.6-.475-1.129-.949-2.252-1.934-3.338-2.887-2.17-1.9-4.414-3.871-6.806-5.639-.307-.227-.811-.617-1.344-1.028-2.5-1.928-2.55-1.928-2.715-1.923h-.05l-.047.017c-2.717,1.016-7.992,2.628-12.809,2.006a17.011,17.011,0,0,1-4.167-1.087c-.256-.1-.56-.256-.854-.4-.822-.411-1.2-.6-1.4-.285-.151.23-1.191,2.325-2.645,5.26-.4.817-.776,1.567-1.045,2.107-.285.571-.567,1.123-.845,1.667-.654,1.279-1.272,2.486-1.87,3.829l-.177.4a51.079,51.079,0,0,1-4.831,9.136,20.586,20.586,0,0,1-5.38,5.048,8.5,8.5,0,0,0-3.25,3.761,6.262,6.262,0,0,0-.272,3.5c.047.264.091.531.136.8.516,3.071,1.1,6.531,4.325,6.53a5,5,0,0,0,.542-.03,23.443,23.443,0,0,0,4.869-1.409c.552-.2,1.073-.392,1.527-.541a125.477,125.477,0,0,0,12.1-4.609c.806-.36,1.67-.706,2.505-1.04a27.194,27.194,0,0,0,6.3-3.167,2.235,2.235,0,0,0,.8-2.033,4.044,4.044,0,0,1,.112-1.062,4.776,4.776,0,0,1,2.406-2.579,3.9,3.9,0,0,1,3.184.1,5.279,5.279,0,0,0,2.91.342,9.639,9.639,0,0,0,2.914-1.509c.376-.253.732-.491,1.091-.7,4.784-2.8,8.322-5.628,10.514-8.406a1.527,1.527,0,0,0,.356-1.163M1790.2,1634.5a7.791,7.791,0,0,1,3.025-3.475,21.17,21.17,0,0,0,5.531-5.194,37.11,37.11,0,0,0,3.194-5.534c.74.6,1.712,1.337,2.4,1.879a.3.3,0,0,0,.369-.47c-.715-.562-1.739-1.34-2.486-1.948l-.02-.013c.5-1.051.968-2.108,1.433-3.154l.062-.138c.938.8,2.075,1.677,2.514,2.038a.3.3,0,1,0,.379-.464c-.459-.376-1.682-1.313-2.637-2.145.549-1.206,1.117-2.319,1.716-3.491l.078-.152c.777.7,1.932,1.587,2.632,2.183a.3.3,0,0,0,.388-.456c-.479-.407-1.726-1.348-2.7-2.248a.277.277,0,0,0-.037-.028c.162-.32.326-.642.49-.972.27-.54.641-1.291,1.046-2.109l.015-.03c.8.675,1.934,1.606,2.759,2.261a.3.3,0,1,0,.372-.469c-.86-.682-2.054-1.666-2.857-2.344.886-1.788,1.925-3.881,2.238-4.468.179.069.487.223.726.342.3.151.618.308.894.421a17.634,17.634,0,0,0,4.316,1.126c4.872.629,10.171-.958,12.972-1.995.352.221,1.548,1.146,2.363,1.774.536.414,1.042.8,1.354,1.036.749.553,1.483,1.129,2.206,1.715a.3.3,0,0,0-.12.075,13.11,13.11,0,0,0-2.469,3.673c-.44.955-.8,2.677-1.389,4.084a3.518,3.518,0,0,1-1.446,1.913,11.07,11.07,0,0,1-3.909.807,13.544,13.544,0,0,0-4.69,1.1c-4.373,2.019-6,4.984-8.384,8.163-1.517,2.022-2.769,4.919-4.62,6.645a9.461,9.461,0,0,1-4.08,1.928c-1.607.423-3.293.7-4.685,1.093a29.647,29.647,0,0,0-4.076,1.761,14.494,14.494,0,0,1-4.6,1.28c-.138-.641-.252-1.319-.367-2.006-.045-.269-.091-.538-.137-.8a5.638,5.638,0,0,1,.244-3.189m54.942-16.387c-2.147,2.72-5.629,5.5-10.349,8.262-.375.22-.755.474-1.122.721a9.214,9.214,0,0,1-2.729,1.426,4.775,4.775,0,0,1-2.589-.333,4.406,4.406,0,0,0-3.641-.061,5.231,5.231,0,0,0-2.694,2.937,4.561,4.561,0,0,0-.135,1.216c-.011.649-.019,1.161-.563,1.57a26.75,26.75,0,0,1-6.161,3.091c-.841.336-1.71.684-2.527,1.049a124.846,124.846,0,0,1-12.044,4.587c-.462.153-.988.345-1.544.547a23.1,23.1,0,0,1-4.73,1.377c-2.281.246-3.183-1.3-3.715-3.415a15.181,15.181,0,0,0,4.72-1.326,28.954,28.954,0,0,1,3.987-1.729c1.388-.4,3.071-.667,4.674-1.089a10.057,10.057,0,0,0,4.334-2.07c1.876-1.748,3.154-4.675,4.692-6.723,2.328-3.1,3.892-6.011,8.155-7.98a12.993,12.993,0,0,1,4.495-1.045,11.666,11.666,0,0,0,4.113-.863,4.115,4.115,0,0,0,1.738-2.22c.589-1.4.942-3.116,1.38-4.066a12.558,12.558,0,0,1,2.361-3.51.3.3,0,0,0,.079-.17c1.429,1.173,2.813,2.387,4.169,3.576,1.088.954,2.213,1.942,3.347,2.895.184.155.4.319.624.492.809.619,1.816,1.39,1.909,2.131a.947.947,0,0,1-.233.723" transform="translate(-4598.659 -12018.923)" fill-rule="evenodd"/>
        <path id="Trazado_822300" data-name="Trazado 822300" d="M1766.524,1115.286c.1,0,3.336,10.694,4.14,13.011,3.644,10.488,6.541,21.457,11.384,31.467.447.923,3.178,8.613,4.217,8.754,3,.409,22.829-6.313,24.094-8,1.546-2.063-2.8-5.185-3.514-8.3-.468-2.044.427-4.146-.086-6.2-.547-2.188-2.25-3.829-2.984-5.938-1.27-3.643-3.174-19.527-3.185-20.019-.016-.7,7.348.417,10.606.734,7.728.751,27.828,3.463,28.042,2.909.41-1.061-29.021-19.771-35.378-23.359-2.312-1.3-6.818-4.734-8.076-4.389-1.642.45-22.547,13.732-29.26,19.331" transform="translate(-4579.3 -11587.006)" fill="#b5b5b5" fill-rule="evenodd"/>
        <path id="Trazado_822301" data-name="Trazado 822301" d="M1764.492,1113.683a.351.351,0,0,1-.028-.055.308.308,0,0,1,.091-.348c5.379-4.486,19.854-13.9,26.271-17.714a23.432,23.432,0,0,1,3.1-1.677,1.5,1.5,0,0,1,.738.025,6.6,6.6,0,0,1,1.347.546c1.9.974,4.6,2.931,6.224,3.846,5.09,2.872,24.962,15.432,32.5,20.885a19.457,19.457,0,0,1,2.884,2.343.541.541,0,0,1,.135.51.356.356,0,0,1-.2.2,2.213,2.213,0,0,1-.717.069c-3.486-.043-20.479-2.308-27.439-2.984-2.6-.252-7.81-1.019-9.784-.957a3.39,3.39,0,0,0-.475.056c.163,1.687,1.947,16.31,3.156,19.779a14.934,14.934,0,0,0,1.534,2.878,11.018,11.018,0,0,1,1.458,3.086,9.345,9.345,0,0,1,.068,3.205,9.281,9.281,0,0,0,.02,3c.421,1.843,2.143,3.679,3.115,5.3.733,1.222,1.035,2.338.345,3.259a3.081,3.081,0,0,1-.859.65,37.638,37.638,0,0,1-4.47,2,135.5,135.5,0,0,1-15.151,4.89,13.987,13.987,0,0,1-3.9.579.73.73,0,0,1-.357-.17,3.419,3.419,0,0,1-.66-.852,85.449,85.449,0,0,1-3.436-7.9c-4.848-10.021-7.75-21-11.4-31.5-.724-2.085-3.421-10.96-4.023-12.712-.034-.1-.072-.2-.086-.234m72.442,8.017-.056-.055a29.3,29.3,0,0,0-2.5-1.955c-7.521-5.442-27.357-17.981-32.438-20.847-1.616-.912-4.3-2.864-6.2-3.834a5.963,5.963,0,0,0-1.211-.5.91.91,0,0,0-.43-.031,23.577,23.577,0,0,0-2.953,1.613c-6.33,3.764-20.524,12.988-26.018,17.514.013.033.025.069.039.108.6,1.751,3.3,10.625,4.022,12.71,3.64,10.477,6.533,21.434,11.37,31.433.313.646,1.744,4.606,2.931,6.972a8.364,8.364,0,0,0,.811,1.373,1.267,1.267,0,0,0,.188.2.629.629,0,0,0,.059.04,13.606,13.606,0,0,0,3.669-.569,134.842,134.842,0,0,0,15.07-4.865,36.922,36.922,0,0,0,4.387-1.96,2.505,2.505,0,0,0,.675-.487,1.376,1.376,0,0,0,.24-1.118,4.468,4.468,0,0,0-.622-1.455c-1-1.668-2.752-3.578-3.186-5.477a9.91,9.91,0,0,1-.032-3.195,8.733,8.733,0,0,0-.052-3,10.4,10.4,0,0,0-1.385-2.911,15.463,15.463,0,0,1-1.592-3c-1.275-3.661-3.191-19.619-3.2-20.114a.41.41,0,0,1,.225-.379,2.021,2.021,0,0,1,.857-.16c1.989-.062,7.245.706,9.861.959,6.18.6,20.278,2.456,25.78,2.89.738.059,1.318.092,1.7.092m-72.19-7.876h0Zm-.062-.008a.31.31,0,0,0,.055.008.292.292,0,0,1-.055-.008m-.032-.01.031.01-.01,0Zm-.019-.008.007,0Z" transform="translate(-4577.528 -11585.236)" fill-rule="evenodd"/>
        <path id="Trazado_822302" data-name="Trazado 822302" d="M1573.619,925.939c.8.953,3.823,4.25,4.59,3.865,3.02-1.513,3.526-5.285,5.167-6.59,1.835-1.458,4.435-.606,6.074-2.2,1.052-1.022,1.9-3,3.073-4.076,2.116-1.931,29.1-19.154,29.46-19.1.229.038,17.881,12.216,19.808,13.643,11.594,8.587,33.013,21.769,45.584,19.722,13.339-2.172,21.743-18.209,21.17-20.077-.057-.183-5.774-3.459-8-4.958-6.569-4.421-53.117-31.871-60.229-35.459-7.852-3.961-15.4-9.731-24.859-8.281-6.24.957-10.638,4.767-16.5,9.79-8.872,7.6-37.3,35.16-37.515,35.769-.42,1.209,5.959,10.568,12.184,17.947" transform="translate(-4404.532 -11387.854)" fill="#cfcfcf" fill-rule="evenodd"/>
        <path id="Trazado_822303" data-name="Trazado 822303" d="M1569.163,1189.819a54.238,54.238,0,0,1-4.005,4.039c-.769-2.409-6-17.035-5.264-17.557.235-.167,1.394,2.26,2.634,4.263a112.683,112.683,0,0,0,6.635,9.256" transform="translate(-4403.176 -11655.479)" fill-rule="evenodd"/>
        <path id="Trazado_822304" data-name="Trazado 822304" d="M1943.911,1547.879a56.4,56.4,0,0,1,2.151,5.368c-2.382-.009-17.6.719-17.706-.171-.032-.284,2.665-.932,4.922-1.518,3.03-.787,7.028-2.307,10.633-3.679" transform="translate(-4717.193 -11972.1)" fill-rule="evenodd"/>
        <path id="Trazado_822305" data-name="Trazado 822305" d="M1920.5,1131.64a2.01,2.01,0,0,0-.13,1.177c.113,1,.548,2.346.631,2.815.674,3.819,1.268,7.655,2.043,11.455,1.17,5.729,2.01,11.754,4.113,17.23a16.286,16.286,0,0,0,2.214,3.648,11.985,11.985,0,0,1,1.979,3.538,12.309,12.309,0,0,1,.252,4.31,13.024,13.024,0,0,0,.26,4.494,35.313,35.313,0,0,0,3.054,6.154,10.789,10.789,0,0,1,1.655,6.4.3.3,0,1,0,.594.07,11.369,11.369,0,0,0-1.722-6.753,34.7,34.7,0,0,1-3.008-6.042,12.451,12.451,0,0,1-.236-4.29,12.928,12.928,0,0,0-.276-4.516,12.6,12.6,0,0,0-2.069-3.718,15.7,15.7,0,0,1-2.139-3.511c-2.091-5.445-2.923-11.438-4.086-17.135-.774-3.8-1.368-7.626-2.041-11.44-.081-.463-.513-1.793-.625-2.778a1.43,1.43,0,0,1,.045-.8.3.3,0,1,0-.51-.313" transform="translate(-4710.364 -11617.311)" fill-rule="evenodd"/>
        <path id="Trazado_822306" data-name="Trazado 822306" d="M1707.073,909.267a.325.325,0,0,0-.077-.132,1.474,1.474,0,0,0-.22-.174c-.988-.678-5.821-3.467-7.829-4.818-6.573-4.422-53.146-31.888-60.262-35.479-3.931-1.983-7.786-4.418-11.842-6.177a23.5,23.5,0,0,0-13.2-2.133c-6.293.965-10.74,4.793-16.657,9.861-7.988,6.842-31.831,29.864-36.674,34.843-.441.454-.728.762-.836.9a.575.575,0,0,0-.1.159.935.935,0,0,0-.016.457,5.8,5.8,0,0,0,.539,1.4c1.624,3.263,6.719,10.462,11.717,16.386a27.092,27.092,0,0,0,3.463,3.428,3.492,3.492,0,0,0,.9.521.778.778,0,0,0,.6-.007,7.807,7.807,0,0,0,3.233-3.5,10.739,10.739,0,0,1,1.989-3.124,5.959,5.959,0,0,1,2.966-.987,5.362,5.362,0,0,0,3.132-1.234,12.316,12.316,0,0,0,1.533-2.072,10.324,10.324,0,0,1,1.533-2c1.9-1.735,23.912-15.83,28.555-18.59.3-.176.55-.316.68-.385.092.058.239.151.407.262,3.041,2.012,17.5,12,19.237,13.282,6.972,5.164,17.491,11.985,27.511,16.173,6.725,2.811,13.23,4.431,18.3,3.6,9.438-1.536,16.442-9.927,19.59-15.478a17.439,17.439,0,0,0,1.77-4,2.049,2.049,0,0,0,.055-.99m-87.867-13c-4.661,2.769-26.749,16.923-28.657,18.665a10.911,10.911,0,0,0-1.634,2.117,11.666,11.666,0,0,1-1.447,1.965,4.782,4.782,0,0,1-2.8,1.067,6.547,6.547,0,0,0-3.255,1.112,7.987,7.987,0,0,0-1.74,2.547c-.763,1.461-1.625,3.133-3.375,4.009-.015.009-.036,0-.059-.008a.826.826,0,0,1-.162-.054,3.438,3.438,0,0,1-.634-.4,26.282,26.282,0,0,1-3.362-3.332q-.411-.487-.823-.986a14.126,14.126,0,0,0,4.085-2.886,25,25,0,0,0,2.231-3.264,9.077,9.077,0,0,1,2.4-2.795,7.736,7.736,0,0,1,2.864-.977,11.039,11.039,0,0,0,3.3-1.033,14.284,14.284,0,0,0,4.01-3.48,48.182,48.182,0,0,1,3.165-3.672,114.509,114.509,0,0,1,9.76-7.856,68.738,68.738,0,0,1,9.7-6.369c2.181,1.761,5.286,4.126,6.861,5.37q-.183.1-.433.253m87.1,14.229a19.115,19.115,0,0,1-1.6,3.454c-3.081,5.434-9.915,13.671-19.153,15.175-4.982.811-11.365-.805-17.969-3.565-9.973-4.169-20.443-10.961-27.383-16.1-1.735-1.286-16.218-11.286-19.263-13.3-.28-.184-.467-.3-.543-.347a.454.454,0,0,0-.117-.049c-1.418-1.132-4.626-3.57-6.924-5.417.448-.224.9-.439,1.34-.637,2.694-1.2,5.25-1.877,7.187-1.416,4.321,1.03,10.013,4.071,16.31,7.785,9.5,5.6,20.372,12.745,29.984,16.918,6.146,2.667,13.246,5.455,20.166,3.942,2.763-.6,5.52-2.6,8.5-5.379a.308.308,0,1,0-.42-.45c-2.887,2.691-5.541,4.642-8.215,5.227l-.127.025a14.08,14.08,0,0,1,1.9-10.287.308.308,0,0,0-.514-.339,14.715,14.715,0,0,0-1.993,10.742c-6.56,1.144-13.24-1.522-19.057-4.047-9.591-4.163-20.434-11.29-29.917-16.883-6.361-3.751-12.116-6.813-16.48-7.853-2.041-.487-4.742.186-7.58,1.452-.535.238-1.074.5-1.615.774-.586-.478-1.088-.9-1.448-1.227a.3.3,0,0,0-.4.444c.324.294.763.665,1.274,1.084a70.228,70.228,0,0,0-9.56,6.3,115.058,115.058,0,0,0-9.807,7.9,48.7,48.7,0,0,0-3.209,3.719,13.691,13.691,0,0,1-3.836,3.338,10.429,10.429,0,0,1-3.125.97,8.329,8.329,0,0,0-3.081,1.066,9.721,9.721,0,0,0-2.58,2.98,24.38,24.38,0,0,1-2.166,3.181,13.823,13.823,0,0,1-4.029,2.813,121.268,121.268,0,0,1-9.661-13.418,15.4,15.4,0,0,1-1.116-2.2,2.446,2.446,0,0,1-.12-.412.544.544,0,0,1-.015-.123c.073-.082.392-.441.8-.858,4.837-4.974,28.652-27.97,36.632-34.8,5.815-4.98,10.167-8.772,16.351-9.72a22.891,22.891,0,0,1,12.864,2.089c4.045,1.754,7.889,4.184,11.81,6.161,7.108,3.586,53.63,31.022,60.2,35.44,1.786,1.2,5.806,3.54,7.372,4.522.222.139.434.284.525.347a2.82,2.82,0,0,1-.19.978" transform="translate(-4402.765 -11386.079)" fill-rule="evenodd"/>
        <path id="Trazado_822307" data-name="Trazado 822307" d="M1984.985,1179.835c.148,2.418,1.143,8.955,1.439,11.361a.3.3,0,1,0,.594-.073c-.3-2.4-1.288-8.913-1.435-11.325a.3.3,0,0,0-.6.037" transform="translate(-4765.445 -11658.228)" fill-rule="evenodd"/>
        <path id="Trazado_822308" data-name="Trazado 822308" d="M2382.846,774.806c.033-.192,2.438-12.849,2.8-14.839.025-.136.437-2.8.517-2.807.141-.009.222.488.245.58.167.655.251,1.337.356,2,.367,2.329,1.569,14.608,1.351,14.879-.068.085-4.917.256-5.265.183" transform="translate(-5104.453 -11298.348)" fill-rule="evenodd"/>
        <path id="Trazado_822309" data-name="Trazado 822309" d="M2177.191,381.474a1.8,1.8,0,0,0,.255-.117,2.317,2.317,0,0,0,.868-.744.3.3,0,1,1,.5.321,2.927,2.927,0,0,1-1.09.95,2.106,2.106,0,0,1-.457.19.378.378,0,0,1-.183,0c-.02-.005-.048-.016-.074-.026a.3.3,0,0,1-.255-.172.294.294,0,0,1-.023-.206.279.279,0,0,1,.265-.233.336.336,0,0,1,.094,0,.9.9,0,0,1,.1.035m.136.31a.267.267,0,0,0-.026-.164.3.3,0,0,1,.026.164" transform="translate(-4928.825 -10977.384)" fill-rule="evenodd"/>
        <path id="Trazado_822310" data-name="Trazado 822310" d="M2414.878,865.73c1.032-.044,3.012-.182,4.08-.236,4-.2,8.287-.458,12.1-.845a.3.3,0,0,0-.059-.6c-3.808.386-8.082.64-12.073.844-1.067.054-3.044.192-4.075.235a.3.3,0,0,0,.025.6" transform="translate(-5131.481 -11389.427)" fill-rule="evenodd"/>
        <path id="Trazado_822312" data-name="Trazado 822312" d="M1360.574,425.3a.778.778,0,0,0-.312-.615,3.017,3.017,0,0,0-1.083-.51,11.3,11.3,0,0,0-6.533.121c-2.423.926-4.647,1.465-8.036,2.452-2.176.634-4.083-.143-5.984-1.042-2.017-.953-4.027-2.041-6.3-1.968s-4.361,1.131-6.437,2.15c-1.986.974-3.957,1.914-6.083,1.8a13.691,13.691,0,0,1-3.62-.932,65.551,65.551,0,0,0-6.667-2.314,7.5,7.5,0,0,0-6.96,1.52s.2,3.827.1,5.17a.316.316,0,0,0,.377.334.99.99,0,0,0,.167-.067,24.209,24.209,0,0,1,4.229-1.383,8.176,8.176,0,0,1,4.469.515c1.5.661,2.964,1.521,4.4,2.111,3.428,1.4,6.619.079,9.805-1.343,3.034-1.355,6.063-2.8,9.325-1.721,1.8.6,3.193,1.276,4.523,1.781a9.955,9.955,0,0,0,7.039.288c1.182-.341,3.08-.963,4.849-1.664a10.411,10.411,0,0,1,3.007-.694,5.663,5.663,0,0,1,2.852.451,16.273,16.273,0,0,0,2.163.886.6.6,0,0,0,.554-.064.474.474,0,0,0,.167-.4c-.025-1.648-.081-2.471-.018-4.861m-44.026,6.756c-1.435-.588-2.892-1.446-4.389-2.1a8.793,8.793,0,0,0-4.8-.563,18.51,18.51,0,0,0-4.037,1.251c.047-1.471-.037-3.553-.037-4.309a6.6,6.6,0,0,1,6.1-1.277,64.936,64.936,0,0,1,6.6,2.294,14.31,14.31,0,0,0,3.8.968,7.225,7.225,0,0,0,.967-.013c.01.64.157,3.507.12,4.174a7.635,7.635,0,0,1-4.316-.421m19.089-3.079c-3.417-1.133-6.6.324-9.78,1.744a24.9,24.9,0,0,1-4.367,1.629c.012-1.019-.1-3.76-.111-4.122a17.353,17.353,0,0,0,4.793-1.773c2-.979,4-2.014,6.181-2.085,2.166-.07,4.078,1,6,1.907a11.259,11.259,0,0,0,4.511,1.331c.032.658.136,2.867.128,3.87a10.576,10.576,0,0,1-2.81-.71c-1.338-.508-2.734-1.188-4.549-1.79m24.085.907c-.616-.3-1.457-.623-2.513-1.021a5.812,5.812,0,0,0-2.4-.2,11.066,11.066,0,0,0-3.191.736c-1.748.694-3.623,1.308-4.792,1.645a10.739,10.739,0,0,1-3.2.474c.014-1.02-.077-2.881-.114-3.924a6.325,6.325,0,0,0,1.274-.235c3.418-1,5.565-1.5,8.1-2.477a11.771,11.771,0,0,1,6.113-.1,2.865,2.865,0,0,1,.768.322.682.682,0,0,1,.136.115c.019.022.038.042.037.066-.06,2.309-.011,3.164.016,4.7a2.516,2.516,0,0,1-.237-.1" transform="translate(-4183.972 -11014.241)" fill-rule="evenodd"/>
      </g>
      <g id="Enmascarar_grupo_1059130" data-name="Enmascarar grupo 1059130" transform="translate(1255.051 829)" clip-path="url(#clip-path-3)">
        <path id="Elipse_9678" data-name="Elipse 9678" d="M102.375,56.427a45.948,45.948,0,1,1-45.948,45.948,46,46,0,0,1,45.948-45.948m0-56.427A102.375,102.375,0,1,0,204.75,102.375,102.375,102.375,0,0,0,102.375,0Z" transform="translate(41.605 41.753)" fill="#1169e3"/>
      </g>
      <path id="Trazado_822311" data-name="Trazado 822311" d="M2575.432,11.031c-1.782-.081-9.093-2.5-9.121-2.385-.115.466,7.4,5.013,7.33,5.265s-9.048.79-8.863,1.177c.54,1.132,8.755,2.007,8.958,2.44.147.313-6.188,6.2-5.953,6.441.4.406,7.478-3.556,7.86-3.443.307.091-2.514,7.352-2.043,7.873.264.292,5.026-6.159,5.107-6.324.144-.292,1.767,7.935,2.133,7.8.681-.254,1.024-8.185,1.333-8.372.171-.1,5.964,6.223,6.058,6.1.334-.436-3.062-7.542-2.782-7.939.148-.21,7.756,3.076,7.775,3,.049-.2-6.211-5.734-6.043-5.99.287-.436,8.549-.131,8.559-.333.047-.905-8.6-3.141-8.719-3.4-.108-.239,7.34-4.5,7.073-5.063-.174-.364-8.373,2.317-8.672,1.9-.4-.568,2.826-8.477,2.507-8.689-.389-.257-5.284,7.5-5.574,7.637-.508.24-2.045-8.721-2.674-8.723-.378,0-.972,9.133-1.365,9.477-.3.267-5.92-7.25-6.159-7.218-.361.049,2.6,7.747,3.274,8.768" transform="translate(-1566.197 931.496)" fill="#1169e3" fill-rule="evenodd"/>
    </g>
  </g>
</svg>
