<svg xmlns="http://www.w3.org/2000/svg" xmlns:xlink="http://www.w3.org/1999/xlink" width="295" height="625.748" viewBox="0 0 295 625.748">
  <defs>
    <clipPath id="clip-path">
      <rect id="Rectángulo_405634" data-name="Rectángulo 405634" width="295" height="625.748" rx="11" transform="translate(1125 6906.075)" fill="#febfe9"/>
    </clipPath>
    <clipPath id="clip-path-2">
      <rect id="Rectángulo_405631" data-name="Rectángulo 405631" width="144.354" height="129.956" fill="none"/>
    </clipPath>
    <clipPath id="clip-path-3">
      <rect id="Rectángulo_405632" data-name="Rectángulo 405632" width="84.819" height="172.425" fill="none"/>
    </clipPath>
    <clipPath id="clip-path-4">
      <rect id="Rectángulo_405633" data-name="Rectángulo 405633" width="75.278" height="75.278" fill="none"/>
    </clipPath>
    <clipPath id="clip-path-5">
      <rect id="Rectángulo_405629" data-name="Rectángulo 405629" width="385.83" height="409.872" fill="none"/>
    </clipPath>
    <clipPath id="clip-path-7">
      <rect id="Rectángulo_405626" data-name="Rectángulo 405626" width="34.819" height="4.097" fill="none"/>
    </clipPath>
  </defs>
  <g id="Enmascarar_grupo_1098698" data-name="Enmascarar grupo 1098698" transform="translate(-1125 -6906.075)" clip-path="url(#clip-path)">
    <g id="Grupo_1102491" data-name="Grupo 1102491">
      <rect id="Rectángulo_405620" data-name="Rectángulo 405620" width="277" height="542" rx="9" transform="translate(1134 6947)" fill="#ede9ec"/>
      <path id="Rectángulo_401759" data-name="Rectángulo 401759" d="M94,30A64.072,64.072,0,0,0,30,94v6a64,64,0,0,0,128,0V94A64.072,64.072,0,0,0,94,30M94,0a94,94,0,0,1,94,94v6A94,94,0,0,1,0,100V94A94,94,0,0,1,94,0Z" transform="translate(1326 6861)" fill="#1169e3"/>
      <rect id="Rectángulo_405621" data-name="Rectángulo 405621" width="223" height="496" rx="15" transform="translate(1165 6967)" fill="#5e3552"/>
      <g id="Grupo_1102490" data-name="Grupo 1102490" transform="translate(956.022 5671.288)">
        <g id="Grupo_1102483" data-name="Grupo 1102483" transform="translate(302.973 1233.939)">
          <g id="Grupo_1102482" data-name="Grupo 1102482" transform="translate(0 0)">
            <g id="Grupo_1102481" data-name="Grupo 1102481">
              <path id="Trazado_880879" data-name="Trazado 880879" d="M91.744,75.622H66.753V39.907c0-7.443-2.658-9.944-3.531-10.765-3.749-3.524-10.86-4.43-16.265-4.093-.315.019-.726.04-1.231.039H45.67c-8.8,0-14.865,2.355-18.013,7a16.657,16.657,0,0,0-2.666,7.927V39.81L0,40A40.813,40.813,0,0,1,11.51,12.557C19.721,4.308,31.179.117,45.566.1c6.7-.4,23.165-.078,34.775,10.838,5.2,4.892,11.4,13.889,11.4,28.971Z" transform="translate(-0.001 0)" fill="#13de61"/>
            </g>
          </g>
        </g>
        <g id="Grupo_1102485" data-name="Grupo 1102485" transform="translate(197.905 1266.03)">
          <g id="Grupo_1102484" data-name="Grupo 1102484" transform="translate(0 0)" clip-path="url(#clip-path-2)">
            <path id="Trazado_880880" data-name="Trazado 880880" d="M140.112,0H4.241A4.241,4.241,0,0,0,0,4.241V100.21a4.241,4.241,0,0,0,4.241,4.241H56.388l-2.638,25.5,37.981-.238-2.173-25.267h50.555a4.241,4.241,0,0,0,4.241-4.241V4.241A4.241,4.241,0,0,0,140.112,0" fill="#455a64"/>
            <path id="Trazado_880881" data-name="Trazado 880881" d="M220.033,290.948a2.618,2.618,0,0,1-3.687,3.687.954.954,0,0,1-.227-.228,2.617,2.617,0,0,1,3.686-3.686.932.932,0,0,1,.227.227" transform="translate(-146.042 -196.589)" fill="#263238"/>
            <path id="Trazado_880882" data-name="Trazado 880882" d="M146.931,90.589H7.256V8.579a3.127,3.127,0,0,1,3.127-3.127H143.8a3.127,3.127,0,0,1,3.127,3.127Z" transform="translate(-4.916 -3.694)" fill="#fff"/>
            <path id="Trazado_880883" data-name="Trazado 880883" d="M146.931,12.527H7.256V8.4a2.951,2.951,0,0,1,2.951-2.952h134.3a2.423,2.423,0,0,1,2.423,2.423Z" transform="translate(-4.916 -3.695)" fill="#f5f5f5"/>
            <path id="Trazado_880884" data-name="Trazado 880884" d="M19.97,14.822a.981.981,0,1,1-.981-.981.981.981,0,0,1,.981.981" transform="translate(-12.202 -9.378)" fill="#e0e0e0"/>
            <path id="Trazado_880885" data-name="Trazado 880885" d="M29.042,14.822a.981.981,0,1,1-.981-.981.981.981,0,0,1,.981.981" transform="translate(-18.349 -9.378)" fill="#e0e0e0"/>
            <path id="Trazado_880886" data-name="Trazado 880886" d="M37.669,14.822a.981.981,0,1,1-.981-.981.981.981,0,0,1,.981.981" transform="translate(-24.194 -9.378)" fill="#e0e0e0"/>
            <path id="Trazado_880887" data-name="Trazado 880887" d="M214.325,323.782c0,.046-11.39.084-25.437.084s-25.44-.037-25.44-.084,11.387-.084,25.44-.084,25.437.037,25.437.084" transform="translate(-110.749 -219.329)" fill="#263238"/>
            <rect id="Rectángulo_405630" data-name="Rectángulo 405630" width="22.957" height="78.062" transform="translate(2.34 8.832)" fill="#ebebeb"/>
            <path id="Trazado_880888" data-name="Trazado 880888" d="M36.256,31.4a1.573,1.573,0,0,1,.382-.166l.079-.379.639-.011.092.375a1.568,1.568,0,0,1,.388.153l.323-.212.46.444-.2.33a1.564,1.564,0,0,1,.166.382l.378.079.011.639-.375.092a1.559,1.559,0,0,1-.153.388l.212.323-.444.46-.33-.2a1.576,1.576,0,0,1-.382.166l-.079.378-.639.011-.092-.375a1.561,1.561,0,0,1-.388-.153l-.323.212-.46-.444.2-.33a1.573,1.573,0,0,1-.166-.382l-.378-.079-.011-.639.375-.092a1.568,1.568,0,0,1,.153-.388l-.212-.323.444-.46Zm.341.852a.686.686,0,1,0,.97-.017.686.686,0,0,0-.97.017" transform="translate(-23.828 -20.9)" fill="#e0e0e0"/>
            <path id="Trazado_880889" data-name="Trazado 880889" d="M31.805,83.8H21.8a1.029,1.029,0,0,1,0-2.057H31.805a1.029,1.029,0,0,1,0,2.057" transform="translate(-14.073 -55.388)" fill="#e0e0e0"/>
            <path id="Trazado_880890" data-name="Trazado 880890" d="M31.805,67.551H21.8a1.029,1.029,0,0,1,0-2.057H31.805a1.029,1.029,0,0,1,0,2.057" transform="translate(-14.073 -44.377)" fill="#e0e0e0"/>
            <path id="Trazado_880891" data-name="Trazado 880891" d="M31.805,52.686H21.8a1.029,1.029,0,0,1,0-2.057H31.805a1.029,1.029,0,0,1,0,2.057" transform="translate(-14.073 -34.305)" fill="#e0e0e0"/>
            <path id="Trazado_880892" data-name="Trazado 880892" d="M116.311,50.855h-9.479a1.028,1.028,0,0,1,0-2.057h9.479a1.028,1.028,0,1,1,0,2.057" transform="translate(-71.689 -33.064)" fill="#263238"/>
            <path id="Trazado_880893" data-name="Trazado 880893" d="M116.311,67.552h-9.479a1.028,1.028,0,0,1,0-2.057h9.479a1.028,1.028,0,1,1,0,2.057" transform="translate(-71.689 -44.378)" fill="#e0e0e0"/>
            <path id="Trazado_880894" data-name="Trazado 880894" d="M116.311,84.807h-9.479a1.028,1.028,0,0,1,0-2.057h9.479a1.028,1.028,0,1,1,0,2.057" transform="translate(-71.689 -56.069)" fill="#0b65bf"/>
            <path id="Trazado_880895" data-name="Trazado 880895" d="M112.267,118.167h-5.435a1.029,1.029,0,1,1,0-2.057h5.435a1.029,1.029,0,1,1,0,2.057" transform="translate(-71.689 -78.673)" fill="#263238"/>
            <path id="Trazado_880896" data-name="Trazado 880896" d="M112.267,135.461h-5.435a1.028,1.028,0,1,1,0-2.057h5.435a1.028,1.028,0,1,1,0,2.057" transform="translate(-71.689 -90.391)" fill="#263238"/>
            <path id="Trazado_880897" data-name="Trazado 880897" d="M152.847,135.461h-9.967a1.028,1.028,0,1,1,0-2.057h9.967a1.028,1.028,0,1,1,0,2.057" transform="translate(-96.115 -90.391)" fill="#e0e0e0"/>
            <path id="Trazado_880898" data-name="Trazado 880898" d="M135.363,150.838H125.4a1.029,1.029,0,0,1,0-2.057h9.967a1.029,1.029,0,0,1,0,2.057" transform="translate(-84.268 -100.81)" fill="#0b65bf"/>
            <path id="Trazado_880899" data-name="Trazado 880899" d="M149.156,168.378H142.91a1,1,0,0,1-1-1v-.053a1,1,0,0,1,1-1h6.246a1,1,0,0,1,1,1v.053a1,1,0,0,1-1,1" transform="translate(-96.153 -112.694)" fill="#0b65bf"/>
            <path id="Trazado_880900" data-name="Trazado 880900" d="M149.13,202.754h-6.193a1.028,1.028,0,1,1,0-2.057h6.193a1.028,1.028,0,1,1,0,2.057" transform="translate(-96.153 -135.987)" fill="#0b65bf"/>
            <path id="Trazado_880901" data-name="Trazado 880901" d="M149.13,239.062h-6.193a1.029,1.029,0,1,1,0-2.057h6.193a1.029,1.029,0,0,1,0,2.057" transform="translate(-96.153 -160.588)" fill="#0b65bf"/>
            <path id="Trazado_880902" data-name="Trazado 880902" d="M186.547,239.062H175.689a1.029,1.029,0,0,1,0-2.057h10.857a1.029,1.029,0,1,1,0,2.057" transform="translate(-118.345 -160.588)" fill="#455a64"/>
            <path id="Trazado_880903" data-name="Trazado 880903" d="M229.647,239.062h-1.564a1.029,1.029,0,1,1,0-2.057h1.564a1.029,1.029,0,1,1,0,2.057" transform="translate(-153.846 -160.588)" fill="#e0e0e0"/>
            <path id="Trazado_880904" data-name="Trazado 880904" d="M188.064,202.754h-9.175a1.028,1.028,0,1,1,0-2.057h9.175a1.028,1.028,0,1,1,0,2.057" transform="translate(-120.513 -135.987)" fill="#e0e0e0"/>
            <path id="Trazado_880905" data-name="Trazado 880905" d="M208.184,218.694h-29.3a1.028,1.028,0,1,1,0-2.057h29.3a1.028,1.028,0,1,1,0,2.057" transform="translate(-120.513 -146.787)" fill="#e0e0e0"/>
            <path id="Trazado_880906" data-name="Trazado 880906" d="M240.938,202.754h-18.7a1.028,1.028,0,1,1,0-2.057h18.7a1.028,1.028,0,1,1,0,2.057" transform="translate(-149.882 -135.987)" fill="#455a64"/>
            <path id="Trazado_880907" data-name="Trazado 880907" d="M184.655,168.378h-7.8a1,1,0,0,1-1-1v-.053a1,1,0,0,1,1-1h7.8a1,1,0,0,1,1,1v.053a1,1,0,0,1-1,1" transform="translate(-119.152 -112.694)" fill="#455a64"/>
            <path id="Trazado_880908" data-name="Trazado 880908" d="M217.695,168.378h-1.979a1,1,0,0,1-1-1v-.053a1,1,0,0,1,1-1h1.979a1,1,0,0,1,1,1v.053a1,1,0,0,1-1,1" transform="translate(-145.484 -112.694)" fill="#e0e0e0"/>
            <path id="Trazado_880909" data-name="Trazado 880909" d="M247.2,168.378h-9.742a1,1,0,0,1-1-1v-.053a1,1,0,0,1,1-1H247.2a1,1,0,0,1,1,1v.053a1,1,0,0,1-1,1" transform="translate(-160.219 -112.694)" fill="#e0e0e0"/>
            <path id="Trazado_880910" data-name="Trazado 880910" d="M172.581,150.838H170.36a1.029,1.029,0,0,1,0-2.057h2.221a1.029,1.029,0,1,1,0,2.057" transform="translate(-114.735 -100.81)" fill="#263238"/>
            <path id="Trazado_880911" data-name="Trazado 880911" d="M205.888,150.838H191.747a1.029,1.029,0,1,1,0-2.057h14.141a1.029,1.029,0,0,1,0,2.057" transform="translate(-129.225 -100.81)" fill="#e0e0e0"/>
            <path id="Trazado_880912" data-name="Trazado 880912" d="M163.411,50.855h-9.479a1.028,1.028,0,0,1,0-2.057h9.479a1.028,1.028,0,1,1,0,2.057" transform="translate(-103.603 -33.064)" fill="#455a64"/>
            <path id="Trazado_880913" data-name="Trazado 880913" d="M175.624,67.552H153.932a1.028,1.028,0,1,1,0-2.057h21.693a1.028,1.028,0,1,1,0,2.057" transform="translate(-103.603 -44.378)" fill="#263238"/>
            <path id="Trazado_880914" data-name="Trazado 880914" d="M198.98,84.807H153.932a1.028,1.028,0,1,1,0-2.057H198.98a1.028,1.028,0,1,1,0,2.057" transform="translate(-103.603 -56.069)" fill="#e0e0e0"/>
            <path id="Trazado_880915" data-name="Trazado 880915" d="M175.173,96.96H153.932a1.029,1.029,0,0,1,0-2.057h21.241a1.029,1.029,0,1,1,0,2.057" transform="translate(-103.604 -64.304)" fill="#e0e0e0"/>
            <path id="Trazado_880916" data-name="Trazado 880916" d="M161.7,118.167H140.455a1.029,1.029,0,0,1,0-2.057H161.7a1.029,1.029,0,1,1,0,2.057" transform="translate(-94.471 -78.673)" fill="#455a64"/>
            <path id="Trazado_880917" data-name="Trazado 880917" d="M228.251,118.167h-7.12a1.029,1.029,0,0,1,0-2.057h7.12a1.029,1.029,0,1,1,0,2.057" transform="translate(-149.136 -78.673)" fill="#0b65bf"/>
            <path id="Trazado_880918" data-name="Trazado 880918" d="M271.408,118.064H257.959a1.029,1.029,0,0,1,0-2.057h13.449a1.029,1.029,0,0,1,0,2.057" transform="translate(-174.089 -78.603)" fill="#263238"/>
            <path id="Trazado_880919" data-name="Trazado 880919" d="M328.174,118.064H314.725a1.029,1.029,0,0,1,0-2.057h13.449a1.029,1.029,0,0,1,0,2.057" transform="translate(-212.552 -78.603)" fill="#e0e0e0"/>
            <path id="Trazado_880920" data-name="Trazado 880920" d="M27.471,101H21.8a1.028,1.028,0,1,1,0-2.057h5.673a1.028,1.028,0,1,1,0,2.057" transform="translate(-14.073 -67.044)" fill="#e0e0e0"/>
            <path id="Trazado_880921" data-name="Trazado 880921" d="M25.773,152.609H21.8a1.029,1.029,0,0,1,0-2.057h3.975a1.029,1.029,0,0,1,0,2.057" transform="translate(-14.073 -102.01)" fill="#e0e0e0"/>
            <path id="Trazado_880922" data-name="Trazado 880922" d="M32.834,118.205H21.8a1.029,1.029,0,0,1,0-2.057H32.834a1.029,1.029,0,1,1,0,2.057" transform="translate(-14.073 -78.699)" fill="#e0e0e0"/>
            <path id="Trazado_880923" data-name="Trazado 880923" d="M30.9,135.408H21.8a1.028,1.028,0,1,1,0-2.057h9.1a1.028,1.028,0,1,1,0,2.057" transform="translate(-14.072 -90.355)" fill="#e0e0e0"/>
            <path id="Trazado_880924" data-name="Trazado 880924" d="M90.19,49.792a1.045,1.045,0,1,1-1.045-1.045,1.045,1.045,0,0,1,1.045,1.045" transform="translate(-59.695 -33.03)" fill="#455a64"/>
            <path id="Trazado_880925" data-name="Trazado 880925" d="M90.19,66.439a1.045,1.045,0,1,1-1.045-1.045,1.045,1.045,0,0,1,1.045,1.045" transform="translate(-59.695 -44.309)" fill="#455a64"/>
            <path id="Trazado_880926" data-name="Trazado 880926" d="M90.19,83.744A1.045,1.045,0,1,1,89.146,82.7a1.045,1.045,0,0,1,1.045,1.045" transform="translate(-59.695 -56.035)" fill="#455a64"/>
            <path id="Trazado_880927" data-name="Trazado 880927" d="M90.19,101.05A1.045,1.045,0,1,1,89.146,100a1.045,1.045,0,0,1,1.045,1.045" transform="translate(-59.695 -67.761)" fill="#455a64"/>
            <path id="Trazado_880928" data-name="Trazado 880928" d="M90.19,118.355a1.045,1.045,0,1,1-1.045-1.045,1.045,1.045,0,0,1,1.045,1.045" transform="translate(-59.695 -79.486)" fill="#455a64"/>
            <path id="Trazado_880929" data-name="Trazado 880929" d="M90.19,135.66a1.045,1.045,0,1,1-1.045-1.045,1.045,1.045,0,0,1,1.045,1.045" transform="translate(-59.695 -91.211)" fill="#455a64"/>
            <path id="Trazado_880930" data-name="Trazado 880930" d="M90.19,152.966a1.045,1.045,0,1,1-1.045-1.045,1.045,1.045,0,0,1,1.045,1.045" transform="translate(-59.695 -102.937)" fill="#455a64"/>
            <path id="Trazado_880931" data-name="Trazado 880931" d="M90.19,170.271a1.045,1.045,0,1,1-1.045-1.045,1.045,1.045,0,0,1,1.045,1.045" transform="translate(-59.695 -114.663)" fill="#455a64"/>
            <path id="Trazado_880932" data-name="Trazado 880932" d="M90.19,187.576a1.045,1.045,0,1,1-1.045-1.045,1.045,1.045,0,0,1,1.045,1.045" transform="translate(-59.695 -126.388)" fill="#455a64"/>
            <path id="Trazado_880933" data-name="Trazado 880933" d="M90.19,204.881a1.045,1.045,0,1,1-1.045-1.044,1.045,1.045,0,0,1,1.045,1.044" transform="translate(-59.695 -138.114)" fill="#455a64"/>
            <path id="Trazado_880934" data-name="Trazado 880934" d="M90.19,222.187a1.045,1.045,0,1,1-1.045-1.045,1.045,1.045,0,0,1,1.045,1.045" transform="translate(-59.695 -149.84)" fill="#455a64"/>
            <path id="Trazado_880935" data-name="Trazado 880935" d="M90.19,239.492a1.045,1.045,0,1,1-1.045-1.045,1.045,1.045,0,0,1,1.045,1.045" transform="translate(-59.695 -161.565)" fill="#455a64"/>
          </g>
        </g>
        <g id="Grupo_1102487" data-name="Grupo 1102487" transform="translate(342.259 1303.909)">
          <g id="Grupo_1102486" data-name="Grupo 1102486" transform="translate(0 0)" clip-path="url(#clip-path-3)">
            <path id="Trazado_880936" data-name="Trazado 880936" d="M71.918,172.425l-59.06-.035A12.813,12.813,0,0,1,0,159.627L.029,12.759A12.814,12.814,0,0,1,12.9,0l59.06.035A12.813,12.813,0,0,1,84.819,12.8L84.79,159.666a12.813,12.813,0,0,1-12.872,12.759" transform="translate(0 0)" fill="#263238"/>
            <path id="Trazado_880937" data-name="Trazado 880937" d="M75.3,10.171l-11.451-.007a2.832,2.832,0,0,0-2.781,2.882v2.06a2.831,2.831,0,0,1-2.781,2.882l-22.32-.013a2.834,2.834,0,0,1-2.78-2.885V13.03a2.835,2.835,0,0,0-2.78-2.885l-4.027,0-10.022-.006a8.974,8.974,0,0,0-9.015,8.935L7.318,162.426a8.973,8.973,0,0,0,9,8.94l58.942.034a8.974,8.974,0,0,0,9.015-8.935L84.308,19.11a8.974,8.974,0,0,0-9-8.939" transform="translate(-3.536 -4.898)" fill="#fff"/>
            <path id="Trazado_880938" data-name="Trazado 880938" d="M28.468,191.766H16.8a9.354,9.354,0,0,1-9.354-9.354V52.081H28.468Z" transform="translate(-3.596 -25.166)" fill="#ebebeb"/>
            <path id="Trazado_880939" data-name="Trazado 880939" d="M80.536,68.811H70.523a1.144,1.144,0,0,1,0-2.286H80.536a1.144,1.144,0,0,1,0,2.286" transform="translate(-33.552 -32.145)" fill="#263238"/>
            <path id="Trazado_880940" data-name="Trazado 880940" d="M81.14,80.353H71.127a1.144,1.144,0,0,1,0-2.286H81.14a1.144,1.144,0,0,1,0,2.286" transform="translate(-33.844 -37.722)" fill="#e0e0e0"/>
            <path id="Trazado_880941" data-name="Trazado 880941" d="M81.372,93.554H71.359a1.144,1.144,0,0,1,0-2.286H81.372a1.144,1.144,0,0,1,0,2.286" transform="translate(-33.956 -44.101)" fill="#0b65bf"/>
            <path id="Trazado_880942" data-name="Trazado 880942" d="M111.656,103.56H101.643a1.144,1.144,0,0,1,0-2.286h10.013a1.144,1.144,0,0,1,0,2.286" transform="translate(-48.589 -48.936)" fill="#e0e0e0"/>
            <path id="Trazado_880943" data-name="Trazado 880943" d="M80.4,116.685H74.656a1.145,1.145,0,0,1,0-2.286H80.4a1.145,1.145,0,0,1,0,2.286" transform="translate(-35.549 -55.278)" fill="#263238"/>
            <path id="Trazado_880944" data-name="Trazado 880944" d="M80.4,128.676H74.656a1.144,1.144,0,0,1,0-2.286H80.4a1.144,1.144,0,0,1,0,2.286" transform="translate(-35.549 -61.072)" fill="#263238"/>
            <path id="Trazado_880945" data-name="Trazado 880945" d="M108.943,128.676H98.415a1.144,1.144,0,0,1,0-2.286h10.529a1.144,1.144,0,0,1,0,2.286" transform="translate(-47.029 -61.072)" fill="#e0e0e0"/>
            <path id="Trazado_880946" data-name="Trazado 880946" d="M85.162,142.811H74.634a1.144,1.144,0,0,1,0-2.286H85.162a1.144,1.144,0,0,1,0,2.286" transform="translate(-35.538 -67.902)" fill="#0b65bf"/>
            <path id="Trazado_880947" data-name="Trazado 880947" d="M90.3,152.762H83.808a1.113,1.113,0,0,1-1.113-1.114v-.059a1.113,1.113,0,0,1,1.113-1.113H90.3a1.113,1.113,0,0,1,1.114,1.113v.059a1.114,1.114,0,0,1-1.114,1.114" transform="translate(-39.959 -72.711)" fill="#0b65bf"/>
            <path id="Trazado_880948" data-name="Trazado 880948" d="M82.757,172.144H76.215a1.144,1.144,0,0,1,0-2.286h6.542a1.144,1.144,0,0,1,0,2.286" transform="translate(-36.302 -82.076)" fill="#0b65bf"/>
            <path id="Trazado_880949" data-name="Trazado 880949" d="M82.757,197.32H76.215a1.144,1.144,0,0,1,0-2.286h6.542a1.144,1.144,0,0,1,0,2.286" transform="translate(-36.302 -94.241)" fill="#0b65bf"/>
            <path id="Trazado_880950" data-name="Trazado 880950" d="M109.271,197.32H97.8a1.144,1.144,0,0,1,0-2.286h11.47a1.144,1.144,0,0,1,0,2.286" transform="translate(-46.733 -94.241)" fill="#455a64"/>
            <path id="Trazado_880951" data-name="Trazado 880951" d="M137.418,172.625h-11.47a1.144,1.144,0,0,1,0-2.286h11.47a1.144,1.144,0,0,1,0,2.286" transform="translate(-60.334 -82.309)" fill="#455a64"/>
            <path id="Trazado_880952" data-name="Trazado 880952" d="M110.752,182.031H99.282a1.144,1.144,0,0,1,0-2.286h11.47a1.144,1.144,0,0,1,0,2.286" transform="translate(-47.449 -86.854)" fill="#455a64"/>
            <path id="Trazado_880953" data-name="Trazado 880953" d="M133.984,197.32h-1.652a1.144,1.144,0,0,1,0-2.286h1.652a1.144,1.144,0,0,1,0,2.286" transform="translate(-63.419 -94.241)" fill="#e0e0e0"/>
            <path id="Trazado_880954" data-name="Trazado 880954" d="M109.6,172.144H99.909a1.144,1.144,0,0,1,0-2.286H109.6a1.144,1.144,0,0,1,0,2.286" transform="translate(-47.752 -82.076)" fill="#e0e0e0"/>
            <path id="Trazado_880955" data-name="Trazado 880955" d="M114.311,152.762H106.18a1.114,1.114,0,0,1-1.114-1.114v-.059a1.113,1.113,0,0,1,1.114-1.113h8.132a1.113,1.113,0,0,1,1.114,1.113v.059a1.114,1.114,0,0,1-1.114,1.114" transform="translate(-50.768 -72.711)" fill="#455a64"/>
            <path id="Trazado_880956" data-name="Trazado 880956" d="M133.773,152.762h-1.98a1.114,1.114,0,0,1-1.114-1.114v-.059a1.113,1.113,0,0,1,1.114-1.113h1.98a1.113,1.113,0,0,1,1.114,1.113v.059a1.114,1.114,0,0,1-1.114,1.114" transform="translate(-63.145 -72.711)" fill="#e0e0e0"/>
            <path id="Trazado_880957" data-name="Trazado 880957" d="M106.615,142.811h-2.346a1.144,1.144,0,0,1,0-2.286h2.346a1.144,1.144,0,0,1,0,2.286" transform="translate(-49.859 -67.902)" fill="#263238"/>
            <path id="Trazado_880958" data-name="Trazado 880958" d="M133.3,142.811H118.364a1.144,1.144,0,0,1,0-2.286H133.3a1.144,1.144,0,0,1,0,2.286" transform="translate(-56.669 -67.902)" fill="#e0e0e0"/>
            <path id="Trazado_880959" data-name="Trazado 880959" d="M109.692,68.811H99.679a1.144,1.144,0,0,1,0-2.286h10.013a1.144,1.144,0,0,1,0,2.286" transform="translate(-47.64 -32.145)" fill="#455a64"/>
            <path id="Trazado_880960" data-name="Trazado 880960" d="M121.9,80.353H98.986a1.144,1.144,0,0,1,0-2.286H121.9a1.144,1.144,0,0,1,0,2.286" transform="translate(-47.306 -37.722)" fill="#263238"/>
            <path id="Trazado_880961" data-name="Trazado 880961" d="M123.2,93.462H100.76a1.145,1.145,0,0,1,0-2.286H123.2a1.145,1.145,0,0,1,0,2.286" transform="translate(-48.163 -44.057)" fill="#e0e0e0"/>
            <path id="Trazado_880962" data-name="Trazado 880962" d="M119.255,116.685H96.816a1.145,1.145,0,0,1,0-2.286h22.439a1.145,1.145,0,0,1,0,2.286" transform="translate(-46.257 -55.278)" fill="#455a64"/>
            <path id="Trazado_880963" data-name="Trazado 880963" d="M80.4,284.782H74.656a1.145,1.145,0,0,1,0-2.286H80.4a1.145,1.145,0,0,1,0,2.286" transform="translate(-35.549 -136.503)" fill="#263238"/>
            <path id="Trazado_880964" data-name="Trazado 880964" d="M80.4,296.773H74.656a1.144,1.144,0,0,1,0-2.286H80.4a1.144,1.144,0,0,1,0,2.286" transform="translate(-35.549 -142.298)" fill="#263238"/>
            <path id="Trazado_880965" data-name="Trazado 880965" d="M119.255,284.782H96.816a1.145,1.145,0,0,1,0-2.286h22.439a1.145,1.145,0,0,1,0,2.286" transform="translate(-46.257 -136.503)" fill="#455a64"/>
            <path id="Trazado_880966" data-name="Trazado 880966" d="M24.606,107.752H18.612a1.145,1.145,0,0,1,0-2.286h5.993a1.145,1.145,0,0,1,0,2.286" transform="translate(-8.469 -50.962)" fill="#e0e0e0"/>
            <path id="Trazado_880967" data-name="Trazado 880967" d="M24.606,120.06H18.612a1.144,1.144,0,0,1,0-2.286h5.993a1.144,1.144,0,0,1,0,2.286" transform="translate(-8.469 -56.909)" fill="#e0e0e0"/>
            <path id="Trazado_880968" data-name="Trazado 880968" d="M24.606,132.365H18.612a1.145,1.145,0,0,1,0-2.286h5.993a1.145,1.145,0,0,1,0,2.286" transform="translate(-8.469 -62.855)" fill="#e0e0e0"/>
            <path id="Trazado_880969" data-name="Trazado 880969" d="M24.606,95.445H18.612a1.145,1.145,0,0,1,0-2.286h5.993a1.145,1.145,0,0,1,0,2.286" transform="translate(-8.469 -45.015)" fill="#e0e0e0"/>
            <path id="Trazado_880970" data-name="Trazado 880970" d="M24.606,83.139H18.612a1.144,1.144,0,0,1,0-2.286h5.993a1.144,1.144,0,0,1,0,2.286" transform="translate(-8.469 -39.069)" fill="#e0e0e0"/>
            <path id="Trazado_880971" data-name="Trazado 880971" d="M24.606,70.832H18.612a1.144,1.144,0,0,1,0-2.286h5.993a1.144,1.144,0,0,1,0,2.286" transform="translate(-8.469 -33.122)" fill="#e0e0e0"/>
            <path id="Trazado_880972" data-name="Trazado 880972" d="M22.812,144.673h-4.2a1.144,1.144,0,0,1,0-2.286h4.2a1.144,1.144,0,0,1,0,2.286" transform="translate(-8.469 -68.802)" fill="#e0e0e0"/>
            <path id="Trazado_880973" data-name="Trazado 880973" d="M57.865,67.65a1.122,1.122,0,1,1-1.121-1.161,1.142,1.142,0,0,1,1.121,1.161" transform="translate(-26.877 -32.128)" fill="#455a64"/>
            <path id="Trazado_880974" data-name="Trazado 880974" d="M57.865,79.193a1.122,1.122,0,1,1-1.121-1.161,1.142,1.142,0,0,1,1.121,1.161" transform="translate(-26.877 -37.705)" fill="#455a64"/>
            <path id="Trazado_880975" data-name="Trazado 880975" d="M57.865,91.192a1.122,1.122,0,1,1-1.121-1.161,1.142,1.142,0,0,1,1.121,1.161" transform="translate(-26.877 -43.503)" fill="#455a64"/>
            <path id="Trazado_880976" data-name="Trazado 880976" d="M57.865,103.191a1.122,1.122,0,1,1-1.121-1.161,1.142,1.142,0,0,1,1.121,1.161" transform="translate(-26.877 -49.301)" fill="#455a64"/>
            <path id="Trazado_880977" data-name="Trazado 880977" d="M57.865,115.19a1.122,1.122,0,1,1-1.121-1.161,1.142,1.142,0,0,1,1.121,1.161" transform="translate(-26.877 -55.099)" fill="#455a64"/>
            <path id="Trazado_880978" data-name="Trazado 880978" d="M57.865,127.19a1.122,1.122,0,1,1-1.121-1.161,1.142,1.142,0,0,1,1.121,1.161" transform="translate(-26.877 -60.898)" fill="#455a64"/>
            <path id="Trazado_880979" data-name="Trazado 880979" d="M57.865,139.189a1.122,1.122,0,1,1-1.121-1.161,1.142,1.142,0,0,1,1.121,1.161" transform="translate(-26.877 -66.696)" fill="#455a64"/>
            <path id="Trazado_880980" data-name="Trazado 880980" d="M57.865,151.188a1.122,1.122,0,1,1-1.121-1.161,1.142,1.142,0,0,1,1.121,1.161" transform="translate(-26.877 -72.494)" fill="#455a64"/>
            <path id="Trazado_880981" data-name="Trazado 880981" d="M57.865,163.187a1.122,1.122,0,1,1-1.121-1.161,1.142,1.142,0,0,1,1.121,1.161" transform="translate(-26.877 -78.292)" fill="#455a64"/>
            <path id="Trazado_880982" data-name="Trazado 880982" d="M57.865,175.187a1.122,1.122,0,1,1-1.121-1.161,1.142,1.142,0,0,1,1.121,1.161" transform="translate(-26.877 -84.09)" fill="#455a64"/>
            <path id="Trazado_880983" data-name="Trazado 880983" d="M57.865,187.186a1.122,1.122,0,1,1-1.121-1.161,1.142,1.142,0,0,1,1.121,1.161" transform="translate(-26.877 -89.888)" fill="#455a64"/>
            <path id="Trazado_880984" data-name="Trazado 880984" d="M57.865,199.185a1.122,1.122,0,1,1-1.121-1.161,1.142,1.142,0,0,1,1.121,1.161" transform="translate(-26.877 -95.686)" fill="#455a64"/>
            <path id="Trazado_880985" data-name="Trazado 880985" d="M85.162,214.442H74.634a1.144,1.144,0,0,1,0-2.286H85.162a1.144,1.144,0,0,1,0,2.286" transform="translate(-35.538 -102.515)" fill="#0b65bf"/>
            <path id="Trazado_880986" data-name="Trazado 880986" d="M90.3,224.392H83.808a1.113,1.113,0,0,1-1.113-1.114v-.059a1.113,1.113,0,0,1,1.113-1.113H90.3a1.113,1.113,0,0,1,1.114,1.113v.059a1.114,1.114,0,0,1-1.114,1.114" transform="translate(-39.959 -107.323)" fill="#0b65bf"/>
            <path id="Trazado_880987" data-name="Trazado 880987" d="M82.757,243.775H76.215a1.144,1.144,0,0,1,0-2.286h6.542a1.144,1.144,0,0,1,0,2.286" transform="translate(-36.302 -116.689)" fill="#0b65bf"/>
            <path id="Trazado_880988" data-name="Trazado 880988" d="M82.757,268.95H76.215a1.145,1.145,0,0,1,0-2.286h6.542a1.145,1.145,0,0,1,0,2.286" transform="translate(-36.302 -128.853)" fill="#0b65bf"/>
            <path id="Trazado_880989" data-name="Trazado 880989" d="M109.271,268.95H97.8a1.145,1.145,0,0,1,0-2.286h11.47a1.145,1.145,0,0,1,0,2.286" transform="translate(-46.733 -128.853)" fill="#455a64"/>
            <path id="Trazado_880990" data-name="Trazado 880990" d="M137.418,244.255h-11.47a1.144,1.144,0,0,1,0-2.286h11.47a1.144,1.144,0,0,1,0,2.286" transform="translate(-60.334 -116.921)" fill="#455a64"/>
            <path id="Trazado_880991" data-name="Trazado 880991" d="M110.752,253.662H99.282a1.144,1.144,0,0,1,0-2.286h11.47a1.144,1.144,0,0,1,0,2.286" transform="translate(-47.449 -121.466)" fill="#455a64"/>
            <path id="Trazado_880992" data-name="Trazado 880992" d="M133.984,268.95h-1.652a1.145,1.145,0,0,1,0-2.286h1.652a1.145,1.145,0,0,1,0,2.286" transform="translate(-63.419 -128.853)" fill="#e0e0e0"/>
            <path id="Trazado_880993" data-name="Trazado 880993" d="M109.6,243.775H99.909a1.144,1.144,0,0,1,0-2.286H109.6a1.144,1.144,0,0,1,0,2.286" transform="translate(-47.752 -116.689)" fill="#e0e0e0"/>
            <path id="Trazado_880994" data-name="Trazado 880994" d="M114.311,224.392H106.18a1.114,1.114,0,0,1-1.114-1.114v-.059a1.113,1.113,0,0,1,1.114-1.113h8.132a1.113,1.113,0,0,1,1.114,1.113v.059a1.114,1.114,0,0,1-1.114,1.114" transform="translate(-50.768 -107.323)" fill="#455a64"/>
            <path id="Trazado_880995" data-name="Trazado 880995" d="M133.773,224.392h-1.98a1.114,1.114,0,0,1-1.114-1.114v-.059a1.113,1.113,0,0,1,1.114-1.113h1.98a1.113,1.113,0,0,1,1.114,1.113v.059a1.114,1.114,0,0,1-1.114,1.114" transform="translate(-63.145 -107.323)" fill="#e0e0e0"/>
            <path id="Trazado_880996" data-name="Trazado 880996" d="M106.615,214.442h-2.346a1.144,1.144,0,0,1,0-2.286h2.346a1.144,1.144,0,0,1,0,2.286" transform="translate(-49.859 -102.515)" fill="#263238"/>
            <path id="Trazado_880997" data-name="Trazado 880997" d="M133.3,214.442H118.364a1.144,1.144,0,0,1,0-2.286H133.3a1.144,1.144,0,0,1,0,2.286" transform="translate(-56.669 -102.515)" fill="#e0e0e0"/>
            <path id="Trazado_880998" data-name="Trazado 880998" d="M57.865,210.819a1.122,1.122,0,1,1-1.121-1.161,1.142,1.142,0,0,1,1.121,1.161" transform="translate(-26.877 -101.308)" fill="#455a64"/>
            <path id="Trazado_880999" data-name="Trazado 880999" d="M57.865,222.819a1.122,1.122,0,1,1-1.121-1.161,1.142,1.142,0,0,1,1.121,1.161" transform="translate(-26.877 -107.106)" fill="#455a64"/>
            <path id="Trazado_881000" data-name="Trazado 881000" d="M57.865,234.818a1.122,1.122,0,1,1-1.121-1.161,1.142,1.142,0,0,1,1.121,1.161" transform="translate(-26.877 -112.904)" fill="#455a64"/>
            <path id="Trazado_881001" data-name="Trazado 881001" d="M57.865,246.817a1.122,1.122,0,1,1-1.121-1.161,1.142,1.142,0,0,1,1.121,1.161" transform="translate(-26.877 -118.702)" fill="#455a64"/>
            <path id="Trazado_881002" data-name="Trazado 881002" d="M57.865,258.816a1.122,1.122,0,1,1-1.121-1.161,1.142,1.142,0,0,1,1.121,1.161" transform="translate(-26.877 -124.5)" fill="#455a64"/>
            <path id="Trazado_881003" data-name="Trazado 881003" d="M57.865,270.816a1.122,1.122,0,1,1-1.121-1.161,1.142,1.142,0,0,1,1.121,1.161" transform="translate(-26.877 -130.299)" fill="#455a64"/>
            <path id="Trazado_881004" data-name="Trazado 881004" d="M57.865,283.622a1.122,1.122,0,1,1-1.121-1.161,1.142,1.142,0,0,1,1.121,1.161" transform="translate(-26.877 -136.486)" fill="#455a64"/>
            <path id="Trazado_881005" data-name="Trazado 881005" d="M57.865,296.428a1.122,1.122,0,1,1-1.121-1.161,1.142,1.142,0,0,1,1.121,1.161" transform="translate(-26.877 -142.674)" fill="#455a64"/>
            <path id="Trazado_881006" data-name="Trazado 881006" d="M75.327,10.171l-11.451-.007A2.832,2.832,0,0,0,61.1,13.046v2.06a2.831,2.831,0,0,1-2.781,2.882l-22.32-.013a2.835,2.835,0,0,1-2.78-2.885V13.03a2.835,2.835,0,0,0-2.78-2.885l-4.027,0-10.022-.006A8.974,8.974,0,0,0,7.37,19.072l0,12.742H84.329l0-12.7a8.974,8.974,0,0,0-9-8.939" transform="translate(-3.56 -4.898)" fill="#f5f5f5"/>
            <path id="Trazado_881007" data-name="Trazado 881007" d="M17.384,41.035a1.42,1.42,0,1,1-1.421-1.421,1.42,1.42,0,0,1,1.421,1.421" transform="translate(-7.027 -19.142)" fill="#e0e0e0"/>
            <path id="Trazado_881008" data-name="Trazado 881008" d="M25.866,41.035a1.42,1.42,0,1,1-1.421-1.421,1.421,1.421,0,0,1,1.421,1.421" transform="translate(-11.126 -19.142)" fill="#e0e0e0"/>
            <path id="Trazado_881009" data-name="Trazado 881009" d="M34.349,41.035a1.42,1.42,0,1,1-1.421-1.421,1.421,1.421,0,0,1,1.421,1.421" transform="translate(-15.225 -19.142)" fill="#e0e0e0"/>
            <path id="Trazado_881010" data-name="Trazado 881010" d="M80.354,31.574a3.708,3.708,0,0,1,.906-.394l.187-.9,1.515-.026.219.89a3.736,3.736,0,0,1,.919.362l.766-.5,1.091,1.052-.475.784a3.712,3.712,0,0,1,.394.906l.9.187L86.8,35.45l-.89.219a3.7,3.7,0,0,1-.362.92l.5.766L85,38.445l-.783-.475a3.682,3.682,0,0,1-.906.394l-.187.9-1.516.027-.218-.89a3.71,3.71,0,0,1-.92-.361l-.766.5-1.09-1.052.474-.783a3.728,3.728,0,0,1-.394-.906l-.9-.187-.026-1.515.89-.218a3.716,3.716,0,0,1,.362-.919l-.5-.766,1.053-1.09Zm.808,2.019a1.626,1.626,0,1,0,2.3-.04,1.626,1.626,0,0,0-2.3.04" transform="translate(-37.578 -14.62)" fill="#e0e0e0"/>
          </g>
        </g>
        <path id="Trazado_881011" data-name="Trazado 881011" d="M55.41,71.893l24.353,33.122,26.22-33.167Z" transform="translate(301.524 1232.061)" fill="#13de61"/>
        <g id="Grupo_1102489" data-name="Grupo 1102489" transform="translate(214.627 1441.418)">
          <g id="Grupo_1102488" data-name="Grupo 1102488" transform="translate(0 0)" clip-path="url(#clip-path-4)">
            <path id="Trazado_881012" data-name="Trazado 881012" d="M67.346,75.278H7.933A7.933,7.933,0,0,1,0,67.346V7.933A7.933,7.933,0,0,1,7.933,0H67.346a7.933,7.933,0,0,1,7.933,7.933V67.346a7.933,7.933,0,0,1-7.933,7.933" transform="translate(0 0)" fill="#1b6de0"/>
            <path id="Trazado_881013" data-name="Trazado 881013" d="M26.807,33.567a17.315,17.315,0,0,1,4.216-1.832l.869-4.174,7.052-.124,1.015,4.14a17.26,17.26,0,0,1,4.279,1.684L47.8,30.924l5.074,4.9-2.209,3.643A17.248,17.248,0,0,1,52.5,43.685l4.174.869.125,7.052L52.657,52.62A17.3,17.3,0,0,1,50.974,56.9l2.336,3.564-4.9,5.075-3.644-2.209a17.259,17.259,0,0,1-4.217,1.832l-.869,4.174-7.053.124-1.015-4.141a17.294,17.294,0,0,1-4.278-1.683L23.771,65.97l-5.074-4.9,2.209-3.644a17.248,17.248,0,0,1-1.833-4.217L14.9,52.341l-.124-7.052,4.141-1.015A17.271,17.271,0,0,1,20.6,40l-2.336-3.564,4.9-5.075Zm3.759,9.395a7.566,7.566,0,1,0,10.7-.188,7.566,7.566,0,0,0-10.7.188" transform="translate(-2.9 -5.385)" fill="#fff"/>
            <path id="Trazado_881014" data-name="Trazado 881014" d="M61.628,17.616a6.754,6.754,0,0,1,1.365-1.165l-.152-1.657,2.618-.851.851,1.43a6.739,6.739,0,0,1,1.79.14l1.063-1.279,2.453,1.25-.408,1.612a6.736,6.736,0,0,1,1.165,1.365l1.656-.152.851,2.618-1.43.852a6.734,6.734,0,0,1-.14,1.789l1.279,1.064-1.25,2.453-1.612-.409a6.714,6.714,0,0,1-1.365,1.165l.153,1.657-2.618.85-.851-1.43a6.739,6.739,0,0,1-1.79-.14l-1.063,1.279-2.453-1.25.408-1.612a6.758,6.758,0,0,1-1.165-1.365l-1.656.152-.851-2.618,1.43-.851a6.731,6.731,0,0,1,.14-1.789L58.766,19.66l1.25-2.453ZM64.1,20.693A2.953,2.953,0,1,0,68.075,19.4,2.953,2.953,0,0,0,64.1,20.693" transform="translate(-11.478 -2.736)" fill="#fff"/>
          </g>
        </g>
        <g id="Grupo_1102480" data-name="Grupo 1102480" transform="translate(155.929 1442.61)">
          <g id="Grupo_1102479" data-name="Grupo 1102479" transform="translate(0 0)" clip-path="url(#clip-path-5)">
            <g id="Grupo_1102478" data-name="Grupo 1102478">
              <g id="Grupo_1102477" data-name="Grupo 1102477" clip-path="url(#clip-path-5)">
                <path id="Trazado_880736" data-name="Trazado 880736" d="M160.21,34.818l-6.589,53.207c-.942,9.109-2.383,22.59-16.717,20.444-12.3-2.8-14.232-14.973-13.344-23.472.421-4.032.763-7.4.779-7.812,0,0-13.5-2.693-13.092-16.291.2-6.571,1.709-20.073,3.218-32.272A25.341,25.341,0,0,1,140.7,6.43l1.31.057c14.106,1.427,20.018,14.272,18.2,28.331" transform="translate(78.956 2.022)" fill="#ffceb3"/>
                <path id="Trazado_880737" data-name="Trazado 880737" d="M125.484,61.276A32.865,32.865,0,0,0,143.4,56.8s-4.739,9.743-18.249,7.942Z" transform="translate(77.775 17.926)" fill="#ff9c65"/>
                <path id="Trazado_880738" data-name="Trazado 880738" d="M123.708,30.522c.289.113,1.743-.754,3.993-1.067,2.242-.332,4.018.074,4.231-.112.107-.084-.21-.318-.985-.505a9.553,9.553,0,0,0-3.426-.095,8.577,8.577,0,0,0-3.14,1.035c-.633.389-.813.695-.672.743" transform="translate(91.188 9.037)" fill="#263238"/>
                <path id="Trazado_880739" data-name="Trazado 880739" d="M126.845,34.2a1.837,1.837,0,0,0,1.692,1.927,1.758,1.758,0,0,0,1.963-1.575,1.84,1.84,0,0,0-1.691-1.929,1.758,1.758,0,0,0-1.964,1.576" transform="translate(88.454 10.292)" fill="#263238"/>
                <path id="Trazado_880740" data-name="Trazado 880740" d="M139.144,45.079a13.843,13.843,0,0,0-3.367-.756c-.53-.078-1.03-.205-1.105-.572a2.719,2.719,0,0,1,.424-1.567q.835-1.9,1.75-3.993c2.437-5.689,4.224-10.376,4-10.472s-2.392,4.438-4.828,10.126q-.882,2.1-1.685,4.02a3.091,3.091,0,0,0-.366,2.081,1.336,1.336,0,0,0,.843.817,3.562,3.562,0,0,0,.9.164,13.61,13.61,0,0,0,3.438.151" transform="translate(68.829 8.747)" fill="#263238"/>
                <path id="Trazado_880741" data-name="Trazado 880741" d="M121.679,23.43c.161.526,2.009.359,4.159.721,2.158.316,3.873,1.045,4.18.592.137-.217-.146-.717-.829-1.249a6.867,6.867,0,0,0-3.063-1.258,6.8,6.8,0,0,0-3.29.258c-.808.3-1.224.687-1.156.935" transform="translate(95.709 6.99)" fill="#263238"/>
                <path id="Trazado_880742" data-name="Trazado 880742" d="M138.373,24.721c.189.435,2,.187,4.143.368,2.146.143,3.88.66,4.155.259.122-.191-.187-.6-.893-1.008a7.5,7.5,0,0,0-3.094-.888,7.778,7.778,0,0,0-3.227.409c-.778.3-1.164.653-1.083.859" transform="translate(57.104 7.394)" fill="#263238"/>
                <path id="Trazado_880743" data-name="Trazado 880743" d="M107.289,35.82c.251-.088,9.988-2.222,9.007,7.5s-10.534,6.728-10.523,6.448,1.517-13.944,1.517-13.944" transform="translate(130.311 11.223)" fill="#ffceb3"/>
                <path id="Trazado_880744" data-name="Trazado 880744" d="M107.7,45.588c.046-.025.158.137.43.3a1.706,1.706,0,0,0,1.263.154c1.064-.274,2.093-1.817,2.318-3.563A5.628,5.628,0,0,0,111.48,40a1.963,1.963,0,0,0-1.142-1.427.865.865,0,0,0-1.046.363c-.158.258-.114.458-.168.47-.03.022-.192-.183-.074-.578a1.088,1.088,0,0,1,.443-.57,1.283,1.283,0,0,1,.962-.153,2.389,2.389,0,0,1,1.617,1.685,5.782,5.782,0,0,1,.313,2.767c-.26,1.952-1.447,3.684-2.893,3.948a1.816,1.816,0,0,1-1.522-.414c-.278-.27-.307-.492-.271-.508" transform="translate(131.725 12.017)" fill="#ff9c65"/>
                <path id="Trazado_880745" data-name="Trazado 880745" d="M130.853,46.646c0-.255,1.888-.063,3.724-1.152a10.423,10.423,0,0,0,2.117-1.751c.509-.52.862-.833.942-.766s-.12.476-.539,1.1a6.86,6.86,0,0,1-2.146,2.055,5.563,5.563,0,0,1-2.889.771c-.766-.005-1.217-.172-1.209-.255" transform="translate(76.028 13.561)" fill="#263238"/>
                <path id="Trazado_880746" data-name="Trazado 880746" d="M139.042,28c.191.241,1.869.283,3.955,1.183,2.088.883,3.41,2.121,3.686,2.08.133-.013-.024-.366-.595-.914a10.035,10.035,0,0,0-2.89-1.834,8.942,8.942,0,0,0-3.21-.771c-.737-.009-1.042.145-.946.257" transform="translate(56.201 8.757)" fill="#263238"/>
                <path id="Trazado_880747" data-name="Trazado 880747" d="M141,32.959a1.837,1.837,0,0,0,1.691,1.929,1.758,1.758,0,0,0,1.963-1.575,1.838,1.838,0,0,0-1.689-1.929A1.758,1.758,0,0,0,141,32.959" transform="translate(55.674 9.902)" fill="#263238"/>
                <path id="Trazado_880748" data-name="Trazado 880748" d="M99.661,16.441a2.2,2.2,0,0,1,1.172-1.155,6.753,6.753,0,0,1,3.506-.159,19.509,19.509,0,0,0,8.667-1.138,9.663,9.663,0,0,1-2.275-2.026,5.816,5.816,0,0,1-1-5.936,1.29,1.29,0,0,1,.825-.8c.618-.114,1.074.533,1.437,1.047A5,5,0,0,0,116.448,8.8a8.219,8.219,0,0,0,3.619-.628c.045-.037.086-.079.13-.116.537-.438,1.058-.855,1.571-1.259l0,0v0c3.86-3.032,7.113-5.066,10.322-5.945,4.7-1.288,12.3-1.15,16.845.624s8.309,6.061,8.4,10.937c2.885-1.917,6.828-1.441,9.879.217l.084-.025c3.415,1.683,5,5.683,5.635,9.439.034.205.061.412.091.618a14.23,14.23,0,0,0,4.253,5.24c.321.241.687.533.683.933s-.372.685-.721.879a7.156,7.156,0,0,1-3.023.864,16.149,16.149,0,0,0,.891,2.64c.324.728.708,1.6.274,2.268a1.516,1.516,0,0,1-1.652.5,4.435,4.435,0,0,1-1.572-.943q.43,1.5.862,2.993a8.481,8.481,0,0,1-3.847-.708,94.614,94.614,0,0,1-3.653,9.75c-1.489-.178-2.859-.689-3.873.03-1.379.977-2.181,3.023-4.163,1.981-1.008-.53-1.714-2.856-1.943-3.973a52.9,52.9,0,0,1,.3-22.509,17,17,0,0,0-4.78-4.369l.143.162c-3.611-1.743-7.719-3.523-11.494-2.169-2.929,1.049-4.889,3.734-7.227,5.787a20.1,20.1,0,0,1-15.345,5.247c-1,4-1.162,9.207-1.8,12.974l-2.8-6.52-.005.03c-.21-.475-.375-.949-.532-1.422l-.055-.145,0-.016a23.724,23.724,0,0,0-.817-2.281l-.039.028a2.384,2.384,0,0,1-3.094-3.569,5.4,5.4,0,0,1,1.279-1.017,3.771,3.771,0,0,1-3.677.51,2.959,2.959,0,0,1-1.742-3.148,2.515,2.515,0,0,1,1.723-1.833,8.515,8.515,0,0,1-4.681-1.616c-.885-.651-1.713-1.65-1.252-2.8" transform="translate(76.923 0)" fill="#263238"/>
                <path id="Trazado_880749" data-name="Trazado 880749" d="M105.475,10.238a11.488,11.488,0,0,1,1.208,1.392,9.73,9.73,0,0,1,1.548,4.712,17.007,17.007,0,0,1-.053,3.463c-.138,1.242-.392,2.558-.649,3.947a35.664,35.664,0,0,0-.614,4.406,15.64,15.64,0,0,0,.034,2.364,4.882,4.882,0,0,0,.688,2.371,2.049,2.049,0,0,0,1.827.86,3.048,3.048,0,0,0,1.822-.768,7.025,7.025,0,0,0,1.694-3.275H112.7a11.355,11.355,0,0,0,1.31,3.011,4.043,4.043,0,0,0,2.455,1.731,2.608,2.608,0,0,0,1.417-.082,2.253,2.253,0,0,0,1.051-.821,2.311,2.311,0,0,0,.425-1.16,1.682,1.682,0,0,0-.31-1.1l-.158.111a8.719,8.719,0,0,0,2.642,2.506,7.718,7.718,0,0,0,.856.453,1.561,1.561,0,0,0,.312.117,1.618,1.618,0,0,0-.289-.164c-.191-.107-.474-.26-.824-.492a9.039,9.039,0,0,1-2.538-2.527l-.158.111a1.739,1.739,0,0,1-.142,2.012,2.04,2.04,0,0,1-.949.725,2.372,2.372,0,0,1-1.283.058,3.782,3.782,0,0,1-2.275-1.638,11.2,11.2,0,0,1-1.258-2.944l-.143-.454-.143.455a6.79,6.79,0,0,1-1.616,3.13,2.743,2.743,0,0,1-1.63.687,1.724,1.724,0,0,1-1.554-.729,4.642,4.642,0,0,1-.633-2.217,15.523,15.523,0,0,1-.037-2.317,36.335,36.335,0,0,1,.591-4.37c.249-1.389.495-2.713.624-3.972a17.065,17.065,0,0,0,.014-3.513,9.6,9.6,0,0,0-1.671-4.761,5.5,5.5,0,0,0-1.309-1.321" transform="translate(124.372 3.231)" fill="#455a64"/>
                <path id="Trazado_880750" data-name="Trazado 880750" d="M118.8,20.551s.029.039.1.1l.308.285a4.489,4.489,0,0,0,.529.432,7.4,7.4,0,0,0,.768.526,12.037,12.037,0,0,0,5.645,1.706,15.385,15.385,0,0,0,8.478-2.059,26.626,26.626,0,0,0,7.917-7.24c1.168-1.517,2.16-3.1,3.221-4.539a18.017,18.017,0,0,1,3.485-3.752,9.253,9.253,0,0,1,4.155-1.9,6.639,6.639,0,0,1,2.073,0,7.316,7.316,0,0,1,1.833.578,7.861,7.861,0,0,1,3.9,4.164,9.4,9.4,0,0,1,.46,2.1.46.46,0,0,0,.005-.143c0-.113-.009-.251-.016-.42a6.8,6.8,0,0,0-.334-1.58,7.726,7.726,0,0,0-1.271-2.219,7.936,7.936,0,0,0-2.652-2.1,7.428,7.428,0,0,0-1.888-.616,6.789,6.789,0,0,0-2.155-.02,9.475,9.475,0,0,0-4.292,1.933,18.083,18.083,0,0,0-3.557,3.8c-1.072,1.452-2.064,3.027-3.223,4.531a26.616,26.616,0,0,1-7.808,7.177,15.283,15.283,0,0,1-8.323,2.09,12.211,12.211,0,0,1-5.593-1.588,19.108,19.108,0,0,1-1.767-1.242" transform="translate(67.862 1.191)" fill="#455a64"/>
                <path id="Trazado_880751" data-name="Trazado 880751" d="M140.992,11.92a2.143,2.143,0,0,0,.445.392,10.526,10.526,0,0,0,1.346.893,13.938,13.938,0,0,0,2.179,1.005,15.94,15.94,0,0,0,2.851.721,16,16,0,0,0,2.938.139,14.1,14.1,0,0,0,2.377-.329,10.491,10.491,0,0,0,1.547-.463,2.113,2.113,0,0,0,.539-.246c-.02-.057-.808.239-2.131.489a16.259,16.259,0,0,1-2.344.258,17.537,17.537,0,0,1-2.88-.163,17.323,17.323,0,0,1-2.8-.681,16.126,16.126,0,0,1-2.168-.927c-1.193-.624-1.862-1.135-1.9-1.088" transform="translate(45.129 3.761)" fill="#455a64"/>
                <path id="Trazado_880752" data-name="Trazado 880752" d="M94.1,82.147,179.026,83.2a7.706,7.706,0,0,1,7.608,7.644l1.2,149.918L73.413,242.319,86.326,89.2A7.7,7.7,0,0,1,94.1,82.147" transform="translate(101.416 25.926)" fill="#455a64"/>
                <path id="Trazado_880753" data-name="Trazado 880753" d="M226.637,276.733l.468,28.952s-29.271,10.2-29.7,15.558l56.168,1.108,1.122-45.141Z" transform="translate(-128.56 87.337)" fill="#0b65bf"/>
                <path id="Trazado_880754" data-name="Trazado 880754" d="M206.7,297.175a2.294,2.294,0,0,1,1.534,2.648,2.2,2.2,0,0,1-2.611,1.544,2.419,2.419,0,0,1-1.61-2.814,2.288,2.288,0,0,1,2.9-1.3" transform="translate(-90.738 93.756)" fill="#e0e0e0"/>
                <path id="Trazado_880755" data-name="Trazado 880755" d="M254.3,312.5l.187-4.557-54.08.643s-2.522,1.039-2.275,2.806Z" transform="translate(-129.288 97.187)" fill="#e0e0e0"/>
                <path id="Trazado_880756" data-name="Trazado 880756" d="M215.21,298.566c0,.275,1.372.426,2.7,1.334,1.355.875,2.029,2.076,2.283,1.972.254-.049-.122-1.7-1.755-2.767-1.622-1.087-3.288-.792-3.232-.539" transform="translate(-117.569 94.153)" fill="#263238"/>
                <path id="Trazado_880757" data-name="Trazado 880757" d="M220.8,300.3c-.068.264,1.11.754,2.019,1.933.943,1.151,1.154,2.41,1.427,2.4.257.047.478-1.555-.68-3s-2.756-1.6-2.767-1.339" transform="translate(-129.096 94.741)" fill="#263238"/>
                <path id="Trazado_880758" data-name="Trazado 880758" d="M228.056,306.727c.249.063.656-1.3-.017-2.815s-1.946-2.139-2.067-1.913c-.159.222.658,1.045,1.192,2.3.564,1.239.62,2.4.892,2.43" transform="translate(-139.84 95.297)" fill="#263238"/>
                <path id="Trazado_880759" data-name="Trazado 880759" d="M214.155,293.709c.109.253,1.376-.1,2.925.034,1.551.1,2.747.649,2.894.417.162-.2-1-1.234-2.821-1.368s-3.129.7-3,.917" transform="translate(-115.888 92.4)" fill="#263238"/>
                <path id="Trazado_880760" data-name="Trazado 880760" d="M186.105,165.305s-16.633,2.5-33.768,5.686c-20.543,3.815-42.41,8.584-45.342,10.888-5.376,4.224-6.528,15.745-8.832,29.954S95.339,331.75,95.339,331.75l38.154,1.112,7.546-110.908s55.708-.005,67.168-.088c9.249-.066,34.117.964,43.558-4.007,14.85-7.823,12.071-37.631,12.071-37.631-3.706-3.189-67.23-22.006-67.23-22.006Z" transform="translate(-3.64 49.935)" fill="#263238"/>
                <path id="Trazado_880761" data-name="Trazado 880761" d="M243.178,223.878l-5.49,29.184s-31.507,4.222-33.048,9.516l56.205,12.677,10.42-45.121Z" transform="translate(-154.659 70.656)" fill="#0b65bf"/>
                <path id="Trazado_880762" data-name="Trazado 880762" d="M218.852,247.25a2.351,2.351,0,0,1,1,2.977,2.261,2.261,0,0,1-2.942,1.013,2.479,2.479,0,0,1-1.038-3.157,2.346,2.346,0,0,1,3.177-.716" transform="translate(-117.894 77.953)" fill="#e0e0e0"/>
                <path id="Trazado_880763" data-name="Trazado 880763" d="M267.939,267.727l1.014-4.37-54.129-11.848s-2.748.524-2.863,2.35Z" transform="translate(-161.979 79.376)" fill="#e0e0e0"/>
                <path id="Trazado_880764" data-name="Trazado 880764" d="M227.418,245.718c-.053.276,1.292.71,2.443,1.9,1.181,1.158,1.61,2.5,1.887,2.451.266,0,.226-1.729-1.193-3.142s-3.139-1.472-3.136-1.206" transform="translate(-145.235 77.509)" fill="#263238"/>
                <path id="Trazado_880765" data-name="Trazado 880765" d="M233.454,246.547c-.122.251.96.987,1.631,2.358.71,1.351.662,2.659.938,2.709.249.1.8-1.463-.066-3.152-.85-1.7-2.439-2.175-2.5-1.914" transform="translate(-157.716 77.79)" fill="#263238"/>
                <path id="Trazado_880766" data-name="Trazado 880766" d="M240.113,252.568c.237.115.928-1.171.562-2.832s-1.514-2.55-1.683-2.347c-.205.191.446,1.185.725,2.555.312,1.362.129,2.536.4,2.625" transform="translate(-169.315 78.067)" fill="#263238"/>
                <path id="Trazado_880767" data-name="Trazado 880767" d="M224.9,240.862c.058.276,1.4.182,2.931.637,1.537.424,2.626,1.217,2.822,1.014.2-.163-.746-1.444-2.552-1.956s-3.288.059-3.2.305" transform="translate(-140.731 75.853)" fill="#263238"/>
                <path id="Trazado_880768" data-name="Trazado 880768" d="M185.982,147.167s-13.142-.93-15.965,10.317c-3.913,15.592-21.16,108.788-21.16,108.788l38.844,7.509,20.48-90.951,36.793-5.989,15.166-6.066s-8.567-9.136-26.321-14.789c-12.083-3.847-47.838-8.82-47.838-8.82" transform="translate(-70.147 46.44)" fill="#263238"/>
                <path id="Trazado_880769" data-name="Trazado 880769" d="M199.285,178.326c-.174.1-1.538-3-4.622-5.632-3.046-2.679-6.3-3.61-6.221-3.8-.005-.15,3.453.542,6.629,3.326a15.94,15.94,0,0,1,3.371,4.081,5.519,5.519,0,0,1,.843,2.022" transform="translate(-61.379 53.298)" fill="#455a64"/>
                <path id="Trazado_880770" data-name="Trazado 880770" d="M188.33,162.034c.028-.033.283.137.725.476A15.373,15.373,0,0,1,190.8,164.1a22.415,22.415,0,0,1,6.123,14.036,15.374,15.374,0,0,1-.021,2.359c-.053.555-.1.858-.145.855-.107-.005-.058-1.23-.272-3.176a25.279,25.279,0,0,0-6.011-13.778c-1.281-1.48-2.213-2.279-2.143-2.36" transform="translate(-58.888 51.137)" fill="#455a64"/>
                <path id="Trazado_880771" data-name="Trazado 880771" d="M167.86,162.031s-.049.159-.12.479c-.072.341-.172.809-.3,1.418-.259,1.276-.637,3.122-1.122,5.51-.963,4.836-2.36,11.848-4.114,20.655-3.472,17.676-8.358,42.548-14.031,71.425l-.058.292.295.058,38.84,7.523.3.058.066-.295c.2-.9.424-1.883.645-2.864,7.529-33.553,14.44-64.353,19.768-88.1l-.2.184c16.211-2.683,29.433-4.872,38.626-6.391l10.577-1.789c1.2-.209,2.113-.371,2.757-.483.621-.113.938-.189.938-.189s-.324.026-.949.117c-.649.1-1.569.236-2.769.416l-10.6,1.659-38.66,6.185-.162.025-.036.159c-5.366,23.741-12.325,54.532-19.9,88.073-.221.981-.442,1.959-.646,2.863l.364-.237-38.847-7.5.237.35c5.583-28.9,10.395-53.782,13.813-71.469,1.68-8.821,3.019-15.844,3.943-20.687.445-2.4.789-4.251,1.027-5.529.108-.614.192-1.085.253-1.429.054-.321.068-.488.068-.488" transform="translate(-69.753 51.137)" fill="#455a64"/>
                <path id="Trazado_880772" data-name="Trazado 880772" d="M188.078,73.662s-7.2,4.78-10.376,18.917c-2.544,11.342-6.586,32.839-6.586,32.839l-15.094,9.912a3.389,3.389,0,0,0-1.1,4.5c3.544,6.278,12.46,21.161,18.28,22.959,7.4,2.285,14.549-3.532,14.549-3.532Z" transform="translate(-5.491 23.248)" fill="#b0c8cb"/>
                <path id="Trazado_880773" data-name="Trazado 880773" d="M97.316,77.893,114.7,70.9l2.961-5.786,2.7,11.983,28.279-16.844,2.008,7.037S177.607,78.613,181.112,81.8c4.3,3.915-7.444,69.23-7.444,69.23s4.261,52.411,2.7,62.841c0,0-18.875-5.427-34.554-7.573s-34.627-8.162-34.627-8.162L90.074,187.558Z" transform="translate(85.271 19.017)" fill="#b0c8cb"/>
                <path id="Trazado_880774" data-name="Trazado 880774" d="M161.6,95.291a4.761,4.761,0,0,0-.086.876c-.032.635-.072,1.471-.124,2.514-.1,2.254-.243,5.394-.417,9.246-.357,7.808-.91,18.591-1.595,30.5s-1.4,22.682-1.987,30.475c-.3,3.843-.553,6.978-.73,9.225-.084,1.041-.153,1.875-.2,2.509a4.576,4.576,0,0,0-.029.879,4.654,4.654,0,0,0,.154-.866c.082-.632.188-1.462.321-2.5.253-2.172.579-5.32.928-9.214.7-7.787,1.472-18.563,2.169-30.475s1.17-22.7,1.414-30.514c.125-3.906.193-7.07.218-9.257,0-1.045,0-1.881.007-2.518a4.769,4.769,0,0,0-.041-.879" transform="translate(18.395 30.074)" fill="#263238"/>
                <path id="Trazado_880775" data-name="Trazado 880775" d="M92.695,95.642c.112-.007-.042-1.4.267-3.593a17.5,17.5,0,0,1,9.691-13.4c1.987-.983,3.356-1.272,3.327-1.38a2.724,2.724,0,0,0-.975.129,14.184,14.184,0,0,0-2.539.851A16.694,16.694,0,0,0,92.524,92a14.14,14.14,0,0,0-.012,2.679,2.731,2.731,0,0,0,.183.966" transform="translate(158.217 24.38)" fill="#263238"/>
                <path id="Trazado_880776" data-name="Trazado 880776" d="M114.221,146.269l8.283-8.419,17.04-4.124s15.615,4.474,15.989,4.463,13.786-4.463,13.786-4.463l4.422,17.216-23.8,1.56-27.176-1.041s-1.418-1.263-.578-2.126-4.544,1.459-5.178,1.488-1.863.493-2.7-.479c-.572-.662-1.35-2.789-.083-4.076" transform="translate(62.719 42.204)" fill="#ffceb3"/>
                <path id="Trazado_880777" data-name="Trazado 880777" d="M125.678,76.635s6.047,3.8,9.034,15.566,12.318,60.424,9.662,67.617-61.582,16.467-61.582,16.467L76.078,154.97l40.9-13.547s-5.986-23.4-6.319-32.885,15.024-31.9,15.024-31.9" transform="translate(140.898 24.186)" fill="#b0c8cb"/>
                <path id="Trazado_880778" data-name="Trazado 880778" d="M138.634,146.693a15.263,15.263,0,0,0,2.708-.737c1.651-.5,3.938-1.172,6.494-1.8s4.9-1.089,6.6-1.414a15.144,15.144,0,0,0,2.742-.613,12.068,12.068,0,0,0-2.813.2,62.785,62.785,0,0,0-6.679,1.256,60.3,60.3,0,0,0-6.485,1.976,11.641,11.641,0,0,0-2.564,1.127" transform="translate(46.27 44.846)" fill="#ff9c65"/>
                <path id="Trazado_880779" data-name="Trazado 880779" d="M138.934,144.8a37.13,37.13,0,0,0,3.78-1.167c2.321-.749,5.562-1.666,9.167-2.629,3.6-1.024,6.807-2.047,9.238-2.183a23.655,23.655,0,0,1,3.923.146,3.191,3.191,0,0,0-1.02-.329,11.715,11.715,0,0,0-2.929-.232c-2.511.034-5.816,1.021-9.38,2.034-3.606.963-6.85,1.948-9.145,2.8-1.15.421-2.065.795-2.69,1.07a3.57,3.57,0,0,0-.945.487" transform="translate(38.006 43.678)" fill="#ff9c65"/>
                <path id="Trazado_880780" data-name="Trazado 880780" d="M100.289,130.336c.13-.078-1.909-2.444-5.427-3.728-3.506-1.321-6.6-.855-6.546-.712,0,.2,2.977.028,6.329,1.3,3.369,1.222,5.518,3.3,5.644,3.143" transform="translate(169.347 39.671)" fill="#263238"/>
                <path id="Trazado_880781" data-name="Trazado 880781" d="M142.933,158.72a1.022,1.022,0,0,0-.255.051l-.737.2c-.643.195-1.609.432-2.864.737-2.511.6-6.191,1.426-10.842,2.377-9.3,1.917-22.453,4.457-37.81,7.271l.335.2c-2.083-6.629-4.347-13.835-6.7-21.321l-.2.389,2.314-.767,38.567-12.823.221-.074-.043-.228c-2.106-11.125-3.86-20.385-5.1-26.909-.626-3.209-1.12-5.743-1.466-7.515-.172-.837-.308-1.493-.407-1.975a4.185,4.185,0,0,0-.167-.672,4.486,4.486,0,0,0,.085.687c.08.487.188,1.147.328,1.989.312,1.78.756,4.322,1.321,7.542,1.183,6.533,2.861,15.808,4.877,26.949l.178-.3L85.98,147.269l-2.314.767-.292.1.092.292c2.363,7.482,4.637,14.686,6.729,21.311l.079.25.257-.047c15.354-2.856,28.5-5.476,37.78-7.494,4.643-1,8.313-1.884,10.814-2.547,1.25-.337,2.209-.6,2.844-.831l.724-.247a.989.989,0,0,0,.239-.1" transform="translate(133.211 30.823)" fill="#263238"/>
                <path id="Trazado_880782" data-name="Trazado 880782" d="M161.712,132.206a4.3,4.3,0,0,0,1.166-.439,17.05,17.05,0,0,0,2.869-1.81,19.541,19.541,0,0,0,6.431-9.061,16.33,16.33,0,0,0,.9-6.136,5.3,5.3,0,0,0-2.55-4.356,3.268,3.268,0,0,0-3.392.147c-.684.5-.8.993-.774.993.057.039.255-.387.916-.768a3.046,3.046,0,0,1,3.014.05,4.857,4.857,0,0,1,2.155,3.986,16.508,16.508,0,0,1-.922,5.864,20.366,20.366,0,0,1-6.086,8.9c-2.148,1.816-3.792,2.509-3.73,2.626" transform="translate(-0.028 34.716)" fill="#263238"/>
                <path id="Trazado_880783" data-name="Trazado 880783" d="M162.771,120.866c.168-.087-.359-1.45-1.179-3.044s-1.621-2.819-1.789-2.733.359,1.45,1.179,3.046,1.621,2.818,1.789,2.731" transform="translate(12.831 36.321)" fill="#263238"/>
                <path id="Trazado_880784" data-name="Trazado 880784" d="M137.729,67.992a12.821,12.821,0,0,0,.192,2.961c.207,1.817.537,4.32.945,7.078.066.445.132.881.2,1.308l.149.988.483-.871a36.785,36.785,0,0,1,2.842-4.334l-.462-.154a16.553,16.553,0,0,0,.37,3.528,16.605,16.605,0,0,0,.149-3.546v-.691l-.46.537a27.787,27.787,0,0,0-3.028,4.326l.633.117q-.095-.641-.191-1.309c-.408-2.759-.814-5.251-1.142-7.049a12.817,12.817,0,0,0-.672-2.89" transform="translate(62.092 21.458)" fill="#263238"/>
                <path id="Trazado_880785" data-name="Trazado 880785" d="M113.8,79.969a6.689,6.689,0,0,0,.925-1.156q.939-1.328,2.348-3.315l-.407-.067c.545,2.09,1.2,4.593,1.923,7.387l.1.4.359-.209c2.347-1.371,4.937-2.939,7.629-4.641,5.165-3.261,9.714-6.408,12.947-8.767,1.618-1.176,2.907-2.155,3.789-2.846a8.379,8.379,0,0,0,1.322-1.133,8.553,8.553,0,0,0-1.479.917L139.35,69.2c-3.3,2.254-7.88,5.329-13.034,8.584-2.686,1.7-5.26,3.281-7.583,4.681l.462.188c-.791-2.779-1.5-5.264-2.09-7.341l-.139-.489-.268.422q-1.3,2.054-2.177,3.431a6.652,6.652,0,0,0-.72,1.293" transform="translate(91.379 20.708)" fill="#263238"/>
                <path id="Trazado_880786" data-name="Trazado 880786" d="M137.868,152.054a3.163,3.163,0,0,0,.143-.747c.075-.568.167-1.283.28-2.159.23-1.876.53-4.594.875-7.955.688-6.721,1.526-16.02,2.261-26.3s1.224-19.613,1.495-26.365c.137-3.376.226-6.11.264-8,.012-.883.022-1.6.029-2.176a3.161,3.161,0,0,0-.036-.76,3.2,3.2,0,0,0-.1.755c-.042.571-.095,1.289-.158,2.171-.12,1.979-.283,4.684-.482,7.984-.4,6.744-.963,16.058-1.7,26.34s-1.495,19.579-2.06,26.309c-.271,3.3-.495,6-.656,7.974-.062.881-.113,1.6-.153,2.171a3.151,3.151,0,0,0-.007.762" transform="translate(61.256 24.487)" fill="#263238"/>
                <path id="Trazado_880787" data-name="Trazado 880787" d="M80.034,157.421c0,.174,9.952.313,22.227.313s22.228-.139,22.228-.313-9.95-.312-22.228-.312-22.227.139-22.227.312" transform="translate(156.048 49.584)" fill="#263238"/>
                <path id="Trazado_880788" data-name="Trazado 880788" d="M79.138,148.694c0,.172,5.932.312,13.248.312s13.249-.139,13.249-.312-5.932-.312-13.249-.312-13.248.139-13.248.312" transform="translate(176.081 46.83)" fill="#263238"/>
                <path id="Trazado_880789" data-name="Trazado 880789" d="M190.435,110.739l25.5,45.125,58.992,1.283.15,2.738-58.528-.435-1.855-.063-61.806.122L140.4,137.968l-15.465-25.053a2.257,2.257,0,0,1,1.859-3.548l61.7.236a2.258,2.258,0,0,1,1.95,1.137" transform="translate(-53.063 34.516)" fill="#e0e0e0"/>
                <path id="Trazado_880790" data-name="Trazado 880790" d="M207.91,128.336a2.608,2.608,0,1,1-3.9-.46,2.788,2.788,0,0,1,3.9.46" transform="translate(-90.292 40.168)" fill="#fff"/>
                <path id="Trazado_880791" data-name="Trazado 880791" d="M172.425,109.537c-.15.085,6.074,11.3,13.9,25.035s14.294,24.814,14.443,24.728-6.073-11.293-13.9-25.037-14.293-24.811-14.443-24.725" transform="translate(-41.779 34.57)" fill="#263238"/>
                <path id="Trazado_880792" data-name="Trazado 880792" d="M83.281,215.093s28.091,12.821,55.416,12.821c25.306,0,53.612-12.738,53.612-12.738Z" transform="translate(83.957 67.884)" fill="#e0e0e0"/>
                <rect id="Rectángulo_405622" data-name="Rectángulo 405622" width="10.838" height="113.511" transform="translate(214.676 284.197)" fill="#e0e0e0"/>
                <rect id="Rectángulo_405623" data-name="Rectángulo 405623" width="96.184" height="6.656" transform="translate(172.496 393.008)" fill="#e0e0e0"/>
                <path id="Trazado_880793" data-name="Trazado 880793" d="M168.266,307.728a7.34,7.34,0,1,1-7.34-7.34,7.34,7.34,0,0,1,7.34,7.34" transform="translate(15.508 94.803)" fill="#263238"/>
                <path id="Trazado_880794" data-name="Trazado 880794" d="M135.78,307.728a7.34,7.34,0,1,1-7.341-7.34,7.341,7.341,0,0,1,7.341,7.34" transform="translate(90.733 94.803)" fill="#263238"/>
                <path id="Trazado_880795" data-name="Trazado 880795" d="M98.149,307.728a7.34,7.34,0,1,1-7.341-7.34,7.341,7.341,0,0,1,7.341,7.34" transform="translate(177.871 94.803)" fill="#263238"/>
                <rect id="Rectángulo_405624" data-name="Rectángulo 405624" width="14.74" height="6.1" transform="translate(207.914 325.052)" fill="#e0e0e0"/>
                <rect id="Rectángulo_405625" data-name="Rectángulo 405625" width="5.368" height="14.64" transform="translate(205.23 320.782)" fill="#e0e0e0"/>
                <path id="Trazado_880796" data-name="Trazado 880796" d="M210.416,219H82.1c-4.8,0-8.687-2.663-8.687-8.148a8.43,8.43,0,0,1,8.687-8.146H221.676v5.733c0,5.832-5.041,10.56-11.26,10.56" transform="translate(67.572 63.975)" fill="#455a64"/>
                <path id="Trazado_880797" data-name="Trazado 880797" d="M86.738,157.16c-.172,0-.312,14.153-.312,31.607s.139,31.61.312,31.61.312-14.149.312-31.61-.139-31.607-.312-31.607" transform="translate(185.079 49.6)" fill="#263238"/>
                <path id="Trazado_880798" data-name="Trazado 880798" d="M76.929,229.02a12.937,12.937,0,0,0-1.742,2.425,16.121,16.121,0,0,0-2.071,8.247,7.49,7.49,0,0,0,2.112,5.739,7.048,7.048,0,0,0,3.106,1.78,13.726,13.726,0,0,0,3.838.337l17.924.062c26.584.041,63.267.1,103.783.163a64.561,64.561,0,0,0,7.35-.213,12.213,12.213,0,0,0,6.564-3.188,13.451,13.451,0,0,0,3.468-6.3,21.51,21.51,0,0,0,.583-7.054v.036c-.347-33.682-.653-63.217-.871-84.359-.137-10.539-.246-18.987-.322-24.827-.05-2.885-.089-5.126-.117-6.673-.018-.742-.034-1.313-.045-1.727-.013-.388-.037-.585-.037-.585s-.018.2-.025.587c0,.414-.008.985-.014,1.727,0,1.547,0,3.788,0,6.674.028,5.84.07,14.287.121,24.828.159,21.143.382,50.677.635,84.36v.007l0,.029a20.85,20.85,0,0,1-.571,6.807,12.767,12.767,0,0,1-3.289,5.982,11.525,11.525,0,0,1-6.194,3,64.243,64.243,0,0,1-7.244.2l-103.781.037-17.924.041a13.431,13.431,0,0,1-3.743-.3,6.738,6.738,0,0,1-2.972-1.671,7.216,7.216,0,0,1-2.075-5.5,16.263,16.263,0,0,1,1.925-8.184,18.491,18.491,0,0,1,1.185-1.872c.3-.4.437-.62.437-.62" transform="translate(67.74 35.626)" fill="#263238"/>
                <path id="Trazado_880799" data-name="Trazado 880799" d="M147.118,159.6l-59.206.709a1.534,1.534,0,0,0-1.464,1.751l8.878,73.97h-13.9L74.252,154.6a4.777,4.777,0,0,1,4.57-5.356L148,148.843Z" transform="translate(140.191 46.975)" fill="#455a64"/>
                <path id="Trazado_880800" data-name="Trazado 880800" d="M147.312,159.629s.033-.213.079-.659c.045-.474.109-1.141.195-2.017q.249-2.749.731-8.07l.012-.133h-.134l-57.354.176-9.987.045a17.823,17.823,0,0,0-2.619.1,4.965,4.965,0,0,0-2.448,1.214,5.1,5.1,0,0,0-1.475,2.34,6.753,6.753,0,0,0-.108,2.761c.622,7.121,1.27,14.549,1.941,22.232,1.348,15.369,2.788,31.76,4.281,48.775q.432,4.89.855,9.692l.028.312h.313l13.9,0H95.9l-.046-.38c-2.314-19.164-4.493-37.2-6.458-53.484q-.742-6.1-1.441-11.868-.349-2.879-.689-5.668-.17-1.4-.335-2.764A1.294,1.294,0,0,1,88.1,160.6l20.091-.289,28.76-.463,7.716-.143,1.987-.049c.445-.013.66-.032.66-.032s-.245-.013-.7-.016h-2.026l-7.777.041-28.734.226-19.993.192a1.8,1.8,0,0,0-1.367.729,1.893,1.893,0,0,0-.316,1.5q.162,1.371.326,2.765.332,2.788.672,5.67.683,5.76,1.409,11.871c1.942,16.282,4.094,34.323,6.379,53.49l.337-.379-13.9,0,.341.312c-.282-3.2-.567-6.433-.854-9.693-1.505-17.015-2.955-33.408-4.315-48.777-.684-7.683-1.345-15.111-1.979-22.232a6.139,6.139,0,0,1,.08-2.526,4.491,4.491,0,0,1,1.295-2.065,4.384,4.384,0,0,1,2.158-1.076,17.928,17.928,0,0,1,2.521-.1l9.984-.072,57.344-.5-.122-.13q-.387,5.281-.589,8.015c-.061.889-.107,1.567-.139,2.047-.029.46-.033.7-.033.7" transform="translate(139.997 46.946)" fill="#263238"/>
                <path id="Trazado_880801" data-name="Trazado 880801" d="M118.8,210.148a1.808,1.808,0,1,0,1.809-1.809,1.809,1.809,0,0,0-1.809,1.809" transform="translate(107.125 65.752)" fill="#263238"/>
                <path id="Trazado_880802" data-name="Trazado 880802" d="M62.748,126.029l-4.336,28.5h-25.2L27.37,126.441Z" transform="translate(287.074 39.775)" fill="#0b65bf"/>
                <path id="Trazado_880803" data-name="Trazado 880803" d="M29.665,139.946c0,.083,6.456.149,14.418.149s14.419-.066,14.419-.149-6.454-.147-14.419-.147-14.418.067-14.418.147" transform="translate(288.301 44.121)" fill="#fafafa"/>
                <path id="Trazado_880804" data-name="Trazado 880804" d="M29.591,138.881c0,.082,6.5.149,14.515.149s14.516-.067,14.516-.149-6.5-.147-14.516-.147-14.515.066-14.515.147" transform="translate(288.278 43.785)" fill="#fafafa"/>
                <path id="Trazado_880805" data-name="Trazado 880805" d="M29.553,137.678c0,.082,6.5.147,14.515.147s14.516-.066,14.516-.147-6.5-.147-14.516-.147-14.515.066-14.515.147" transform="translate(288.366 43.405)" fill="#fafafa"/>
                <path id="Trazado_880806" data-name="Trazado 880806" d="M31.917,148.188a22.9,22.9,0,0,0,.772-3.588,22.6,22.6,0,0,0,.482-3.639,22.854,22.854,0,0,0-.772,3.588,22.95,22.95,0,0,0-.482,3.639" transform="translate(310.675 44.487)" fill="#fafafa"/>
                <path id="Trazado_880807" data-name="Trazado 880807" d="M33.857,147.906a27.519,27.519,0,0,0,.312-3.5,27.858,27.858,0,0,0,.164-3.511,27.988,27.988,0,0,0-.476,7.012" transform="translate(307.02 44.466)" fill="#fafafa"/>
                <path id="Trazado_880808" data-name="Trazado 880808" d="M35.888,147.959a17.638,17.638,0,0,0,.655-3.589,17.58,17.58,0,0,0,.192-3.646,31.526,31.526,0,0,0-.485,3.61,31.624,31.624,0,0,0-.362,3.624" transform="translate(301.866 44.413)" fill="#fafafa"/>
                <path id="Trazado_880809" data-name="Trazado 880809" d="M37.966,148.091a29.22,29.22,0,0,0,.238-7.309,31.239,31.239,0,0,0-.184,3.652,31.131,31.131,0,0,0-.054,3.657" transform="translate(297.595 44.431)" fill="#fafafa"/>
                <path id="Trazado_880810" data-name="Trazado 880810" d="M41,147.887a20.557,20.557,0,0,0,.266-3.461,20.276,20.276,0,0,0-.032-3.472,20.648,20.648,0,0,0-.264,3.461,20.537,20.537,0,0,0,.03,3.472" transform="translate(290.68 44.485)" fill="#fafafa"/>
                <path id="Trazado_880811" data-name="Trazado 880811" d="M43.4,148.055a21.877,21.877,0,0,0,.118-3.581,21.805,21.805,0,0,0-.176-3.578,21.6,21.6,0,0,0-.12,3.581,21.9,21.9,0,0,0,.178,3.578" transform="translate(285.439 44.467)" fill="#fafafa"/>
                <path id="Trazado_880812" data-name="Trazado 880812" d="M46.067,147.838a23.777,23.777,0,0,0-.214-3.743,23.824,23.824,0,0,0-.509-3.714,23.779,23.779,0,0,0,.214,3.743,23.822,23.822,0,0,0,.509,3.714" transform="translate(280.12 44.304)" fill="#fafafa"/>
                <path id="Trazado_880813" data-name="Trazado 880813" d="M49.3,147.265a19.645,19.645,0,0,0-1.36-6.254,28.108,28.108,0,0,0,.647,3.135,28.349,28.349,0,0,0,.713,3.119" transform="translate(273.461 44.503)" fill="#fafafa"/>
                <path id="Trazado_880814" data-name="Trazado 880814" d="M65.855,121.74v5.332a2.1,2.1,0,0,1-2.1,2.1H27.273a2.1,2.1,0,0,1-2.1-2.1V121.74Z" transform="translate(286.857 38.421)" fill="#0b65bf"/>
                <g id="Grupo_1102476" data-name="Grupo 1102476" transform="translate(314.73 167.592)" opacity="0.4">
                  <g id="Grupo_1102475" data-name="Grupo 1102475">
                    <g id="Grupo_1102474" data-name="Grupo 1102474" clip-path="url(#clip-path-7)">
                      <path id="Trazado_880815" data-name="Trazado 880815" d="M62.4,127.388l-.3,1.7-33.664,2.4-.853-4.1Z" transform="translate(-27.577 -127.388)"/>
                    </g>
                  </g>
                </g>
                <path id="Trazado_880816" data-name="Trazado 880816" d="M53.212,129.983c5.361-3.109,8.229-10.339,8.444-16.256s-2.251-12.092-7.1-15.485A16.258,16.258,0,0,0,36.909,98.1a18.362,18.362,0,0,0-8.092,15.944,21.142,21.142,0,0,0,8.659,15.879" transform="translate(286.267 30.162)" fill="#455a64"/>
                <path id="Trazado_880817" data-name="Trazado 880817" d="M40.721,130.418a7.034,7.034,0,0,0,.1-1.354c.028-.968.063-2.206.105-3.69.079-3.117.2-7.42.41-12.169s.466-9.049.659-12.16c.088-1.483.163-2.719.22-3.686A7.084,7.084,0,0,0,42.235,96a6.941,6.941,0,0,0-.216,1.341c-.107.866-.237,2.121-.379,3.674-.285,3.107-.6,7.408-.808,12.165s-.275,9.067-.263,12.186c.005,1.56.025,2.823.055,3.7a7.07,7.07,0,0,0,.1,1.354" transform="translate(290.203 30.298)" fill="#263238"/>
                <path id="Trazado_880818" data-name="Trazado 880818" d="M27.147,108.46c.013.138.867.18,1.909.095s1.881-.267,1.871-.405-.867-.18-1.912-.095-1.879.267-1.868.405" transform="translate(319.189 34.088)" fill="#263238"/>
                <path id="Trazado_880819" data-name="Trazado 880819" d="M27.894,104.655c.057.126.793-.078,1.647-.455s1.5-.789,1.443-.916-.793.078-1.647.457-1.5.788-1.443.914" transform="translate(318.15 32.585)" fill="#263238"/>
                <path id="Trazado_880820" data-name="Trazado 880820" d="M29.986,101.932c.072.116.9-.275,1.763-.991s1.4-1.455,1.3-1.547-.787.471-1.622,1.16-1.518,1.258-1.443,1.377" transform="translate(313.326 31.366)" fill="#263238"/>
                <path id="Trazado_880821" data-name="Trazado 880821" d="M33.417,99.21c.126.057.524-.564.887-1.387s.555-1.534.429-1.591-.525.566-.888,1.388-.555,1.533-.428,1.589" transform="translate(307.148 30.37)" fill="#263238"/>
                <path id="Trazado_880822" data-name="Trazado 880822" d="M36.894,97.267c.124.058.551-.6.835-1.52s.309-1.7.174-1.725-.378.695-.654,1.576-.484,1.609-.355,1.668" transform="translate(299.361 29.674)" fill="#263238"/>
                <path id="Trazado_880823" data-name="Trazado 880823" d="M42.535,94.23c-.13.046-.051.61.179,1.26s.521,1.139.651,1.093.051-.61-.178-1.26-.522-1.139-.653-1.093" transform="translate(286.526 29.738)" fill="#263238"/>
                <path id="Trazado_880824" data-name="Trazado 880824" d="M45.789,95.974c-.095.1.247.572.764,1.05s1.012.781,1.105.68-.247-.571-.764-1.05-1.01-.781-1.105-.68" transform="translate(277.937 30.283)" fill="#263238"/>
                <path id="Trazado_880825" data-name="Trazado 880825" d="M49.148,98.281c-.078.114.339.534.931.935s1.137.634,1.214.518-.339-.533-.931-.934-1.137-.634-1.214-.52" transform="translate(269.88 31.008)" fill="#263238"/>
                <path id="Trazado_880826" data-name="Trazado 880826" d="M50.929,101.721c-.055.128.605.53,1.471.9s1.612.564,1.666.438-.6-.531-1.47-.9-1.613-.566-1.667-.438" transform="translate(264.764 32.091)" fill="#263238"/>
                <path id="Trazado_880827" data-name="Trazado 880827" d="M51.991,105.491c-.017.138.651.334,1.495.438s1.539.078,1.556-.061-.653-.333-1.495-.438-1.539-.078-1.556.061" transform="translate(262.389 33.254)" fill="#263238"/>
                <path id="Trazado_880828" data-name="Trazado 880828" d="M52.561,110.4c.055.128.768-.061,1.593-.418s1.447-.753,1.392-.879-.768.059-1.593.418-1.447.751-1.392.879" transform="translate(261.136 34.419)" fill="#263238"/>
                <path id="Trazado_880829" data-name="Trazado 880829" d="M51.863,114.555c.045.126.946-.088,1.888-.706s1.5-1.354,1.405-1.446-.787.446-1.68,1.025-1.664.993-1.613,1.127" transform="translate(262.435 35.471)" fill="#263238"/>
                <path id="Trazado_880830" data-name="Trazado 880830" d="M50.454,118.272c.083.108.8-.314,1.489-1.058s1.058-1.488.945-1.563-.651.512-1.313,1.221-1.209,1.289-1.121,1.4" transform="translate(266.557 36.498)" fill="#263238"/>
                <path id="Trazado_880831" data-name="Trazado 880831" d="M30,118.071c-.064.124.689.642,1.683,1.159s1.851.838,1.916.714-.689-.642-1.684-1.159-1.85-.837-1.914-.714" transform="translate(312.772 37.255)" fill="#263238"/>
                <path id="Trazado_880832" data-name="Trazado 880832" d="M28.735,114.813c-.058.126.547.524,1.35.888s1.5.557,1.556.43-.546-.524-1.35-.888-1.5-.557-1.556-.43" transform="translate(316.387 36.223)" fill="#263238"/>
                <path id="Trazado_880833" data-name="Trazado 880833" d="M27.049,111.941c-.02.137.725.357,1.66.489s1.713.129,1.733-.008-.725-.357-1.662-.489-1.712-.129-1.731.008" transform="translate(319.803 35.296)" fill="#263238"/>
                <path id="Trazado_880834" data-name="Trazado 880834" d="M31.365,110.339c-.041.129.684.468,1.652.575s1.75-.057,1.738-.192-.766-.2-1.681-.307-1.668-.213-1.709-.076" transform="translate(309.814 34.803)" fill="#263238"/>
                <path id="Trazado_880835" data-name="Trazado 880835" d="M35.47,106.779c-.041.129.537.422,1.316.5s1.4-.1,1.387-.232-.614-.195-1.338-.268-1.323-.133-1.364,0" transform="translate(300.996 33.674)" fill="#263238"/>
                <path id="Trazado_880836" data-name="Trazado 880836" d="M36.211,104.137c.045.132.67.034,1.4-.217s1.277-.56,1.231-.692-.67-.034-1.4.217-1.277.56-1.231.692" transform="translate(299.355 32.561)" fill="#263238"/>
                <path id="Trazado_880837" data-name="Trazado 880837" d="M38.7,101.449c.1.1.526-.187.831-.72s.338-1.045.207-1.08-.367.358-.642.829-.5.874-.4.971" transform="translate(295.139 31.449)" fill="#263238"/>
                <path id="Trazado_880838" data-name="Trazado 880838" d="M36.172,112.859c-.033.134.508.383,1.209.554a4.687,4.687,0,0,0,1.016.15l.1-.293c-.18-.033-.3-.025-.321.029s.05.145.2.255l.1-.292a4.646,4.646,0,0,0-.97-.337c-.7-.171-1.3-.2-1.329-.066" transform="translate(299.748 35.592)" fill="#263238"/>
                <path id="Trazado_880839" data-name="Trazado 880839" d="M36.193,117.91c-.05.13.639.522,1.541.876s1.675.538,1.726.409-.639-.522-1.542-.876-1.673-.537-1.725-.409" transform="translate(298.757 37.2)" fill="#263238"/>
                <path id="Trazado_880840" data-name="Trazado 880840" d="M32.944,115.668c-.043.132.416.407,1.029.614s1.145.271,1.189.139-.414-.407-1.027-.614-1.146-.271-1.191-.139" transform="translate(307.329 36.483)" fill="#263238"/>
                <path id="Trazado_880841" data-name="Trazado 880841" d="M32.428,105.637c.032.133.833.054,1.759-.275s1.6-.771,1.541-.895-.809.1-1.709.421-1.625.612-1.591.749" transform="translate(307.437 32.959)" fill="#263238"/>
                <path id="Trazado_880842" data-name="Trazado 880842" d="M42.99,104.235c-.076.116.375.549,1.008.966s1.208.662,1.284.546-.375-.549-1.008-.966-1.208-.662-1.284-.546" transform="translate(283.993 32.888)" fill="#263238"/>
                <path id="Trazado_880843" data-name="Trazado 880843" d="M43.575,109.337c-.028.135.446.349,1.059.476s1.133.121,1.162-.016-.446-.349-1.059-.476-1.133-.12-1.162.016" transform="translate(282.707 34.473)" fill="#263238"/>
                <path id="Trazado_880844" data-name="Trazado 880844" d="M43.724,115.352c.058.126.741-.066,1.525-.429s1.372-.759,1.314-.885-.741.066-1.525.429-1.372.759-1.314.885" transform="translate(281.745 35.978)" fill="#263238"/>
                <path id="Trazado_880845" data-name="Trazado 880845" d="M43.367,121.06c.108.088.551-.274.991-.809s.709-1.041.6-1.129-.55.274-.989.809-.709,1.041-.6,1.129" transform="translate(283.824 37.591)" fill="#263238"/>
                <path id="Trazado_880846" data-name="Trazado 880846" d="M43.01,100.494c-.084.107.208.476.71.728s.972.267,1.008.134-.33-.355-.783-.584-.85-.389-.935-.278" transform="translate(284.533 31.705)" fill="#263238"/>
                <path id="Trazado_880847" data-name="Trazado 880847" d="M47,105.628c-.046.128.538.449,1.337.559s1.448-.038,1.439-.174-.625-.218-1.37-.324-1.36-.2-1.406-.062" transform="translate(274.235 33.315)" fill="#263238"/>
                <path id="Trazado_880848" data-name="Trazado 880848" d="M45.947,101.018c-.062.122.518.537,1.343.8s1.537.264,1.556.13-.621-.357-1.4-.606-1.433-.447-1.5-.321" transform="translate(276.541 31.869)" fill="#263238"/>
                <path id="Trazado_880849" data-name="Trazado 880849" d="M46.927,112.935a3.816,3.816,0,0,0,2.189,0,3.829,3.829,0,0,0,2.05-.772,6.7,6.7,0,0,0-2.139.278,6.722,6.722,0,0,0-2.1.491" transform="translate(272.926 35.386)" fill="#263238"/>
                <path id="Trazado_880850" data-name="Trazado 880850" d="M46.393,120.053c.083.108.813-.322,1.542-1.056s1.158-1.464,1.05-1.547-.7.485-1.405,1.193-1.275,1.3-1.187,1.41" transform="translate(275.805 37.064)" fill="#263238"/>
                <path id="Trazado_880851" data-name="Trazado 880851" d="M32.535,95.57a22.769,22.769,0,0,1,4.4,3.48,21.5,21.5,0,0,1,5.486,12.125,27.218,27.218,0,0,1-.332,7.429,56.621,56.621,0,0,1-1.392,5.962c-.482,1.679-.924,3.023-1.221,3.955a9.367,9.367,0,0,0-.424,1.463,8.263,8.263,0,0,0,.608-1.4c.354-.913.85-2.244,1.377-3.918a50.6,50.6,0,0,0,1.508-5.985,26.655,26.655,0,0,0,.374-7.567A21.139,21.139,0,0,0,37.195,98.8a15.719,15.719,0,0,0-3.286-2.568,9.883,9.883,0,0,0-1.005-.522,1.167,1.167,0,0,0-.368-.143" transform="translate(299.979 30.161)" fill="#263238"/>
                <path id="Trazado_880852" data-name="Trazado 880852" d="M44.616,130.256a55.319,55.319,0,0,1-2.258-5.394,30.526,30.526,0,0,1-1.35-13.873,26.076,26.076,0,0,1,2.139-7.4,17.473,17.473,0,0,1,3.647-5.081,13.279,13.279,0,0,1,3.574-2.258c.929-.388,1.485-.479,1.477-.521a1.2,1.2,0,0,0-.41.032,7.578,7.578,0,0,0-1.138.307,12.376,12.376,0,0,0-3.738,2.173,17.2,17.2,0,0,0-3.831,5.148,25.7,25.7,0,0,0-2.218,7.528,29.5,29.5,0,0,0,1.512,14.059c.284.867.649,1.61.921,2.28.324.649.591,1.212.835,1.658a9.36,9.36,0,0,0,.837,1.341" transform="translate(281.048 30.211)" fill="#263238"/>
                <path id="Trazado_880853" data-name="Trazado 880853" d="M179.053,97.756l17.208,21.155a18.566,18.566,0,0,1-5.769,10.262,10.567,10.567,0,0,1-10.574,2.009s-1.129-1.894-4.277-6.961c-5.936-9.553-9.88-27.763-9.88-27.763Z" transform="translate(-28.506 30.442)" fill="#ffceb3"/>
                <path id="Trazado_880854" data-name="Trazado 880854" d="M171.261,66.493a1.93,1.93,0,0,1,1.781-.443l11.251,2.611a3.891,3.891,0,0,1,2.36,1.673l22.126,35.223-1.844.722L194.444,104.6,170.889,66.855Z" transform="translate(-47.771 20.828)" fill="#263238"/>
                <path id="Trazado_880855" data-name="Trazado 880855" d="M194.476,70.547a.773.773,0,0,1-.939-.282c-.27-.321-.287-.717-.037-.883a.775.775,0,0,1,.939.282c.27.322.285.717.037.883" transform="translate(-63.158 21.874)" fill="#fff"/>
                <path id="Trazado_880856" data-name="Trazado 880856" d="M172.527,66.65a15.913,15.913,0,0,0,2.169.625l5.96,1.477,4.12.992a2.6,2.6,0,0,1,1.709,1.118l1.26,2.023,5.648,9.02c4.026,6.392,7.7,12.164,10.392,16.327,1.312,2,2.4,3.663,3.217,4.916a14.137,14.137,0,0,0,1.259,1.766,13.629,13.629,0,0,0-1.033-1.873c-.772-1.276-1.793-2.963-3.03-5-2.584-4.214-6.2-10.016-10.22-16.408l-5.7-9q-.661-1.036-1.291-2.022a3.252,3.252,0,0,0-2.1-1.362l-4.14-.92-6-1.288a15.933,15.933,0,0,0-2.217-.391" transform="translate(-49.41 21.033)" fill="#455a64"/>
                <path id="Trazado_880857" data-name="Trazado 880857" d="M175.6,73.594s1.139-.074,1.618,2.839S179.3,87.723,179.3,87.723l6.06-2.306,7.361,1.633s1.548,1.539.328,2.168-5.939.93-5.939.93l-3.673,4.231,10.12-3.41s3.267,1.126,2.209,2.89-8.021,6.915-8.021,6.915l4.98.151,6.062-2.713s1.808.257,1.062,1.612-7.131,5.879-7.131,5.879l-7.6,2.585s-4.048-.7-4.385-1.842a12.327,12.327,0,0,1-.359-2.721s-2.131-.753-2.486-1.758a5.562,5.562,0,0,1-.024-2.506s-3.411.208-3.747-1.575a18.131,18.131,0,0,1,.589-6.482c.407-1.305-.774-13.931-.617-14.293s-.56-4.555,1.522-3.518" transform="translate(-43.111 23.175)" fill="#ffceb3"/>
                <path id="Trazado_880858" data-name="Trazado 880858" d="M179.042,98.886a4.549,4.549,0,0,0,1.914.751,14.092,14.092,0,0,0,4.915.287,12.934,12.934,0,0,0,4.57-1.4c1.058-.58,1.584-1.088,1.526-1.156-.133-.192-2.581,1.456-6.24,1.858-3.644.459-6.636-.547-6.686-.336" transform="translate(-41.69 30.723)" fill="#ff9c65"/>
                <path id="Trazado_880859" data-name="Trazado 880859" d="M183.463,97.579c.108.171,1.458-.334,2.917-1.26s2.451-1.9,2.311-2.047-1.337.551-2.768,1.455-2.573,1.677-2.46,1.852" transform="translate(-44.227 29.745)" fill="#ff9a6c"/>
                <path id="Trazado_880860" data-name="Trazado 880860" d="M186.486,92.827c.105.17,1.445-.321,2.818-1.317s2.212-2.068,2.055-2.2-1.218.678-2.547,1.633-2.439,1.709-2.326,1.885" transform="translate(-50.877 28.181)" fill="#ff9a6c"/>
                <path id="Trazado_880861" data-name="Trazado 880861" d="M189.7,89.182c.2.1,1.01-1.114,2.258-2.4s2.442-2.177,2.314-2.351c-.107-.164-1.585.489-2.9,1.862s-1.859,2.806-1.673,2.888" transform="translate(-57.982 26.639)" fill="#ff9c65"/>
                <path id="Trazado_880862" data-name="Trazado 880862" d="M283.643,357.9h5.364l-2.682-198.126H274.853Z" transform="translate(-264.773 50.427)" fill="#e0e0e0"/>
                <path id="Trazado_880863" data-name="Trazado 880863" d="M283.944,357.987s0-.359-.021-1.038q-.037-1.044-.109-3c-.105-2.648-.26-6.519-.461-11.5-.418-9.991-1.024-24.428-1.773-42.31-1.55-35.736-3.7-85.218-6.085-140.288l-.342.357h11.472l-.342-.337c1.317,97.131,2.525,177.939,2.95,198.122l.075-.076-4.02.043c-.891.013-1.343.032-1.343.032s.417.018,1.3.032l4.063.043h.076v-.078c-.121-20.187-1.1-101-2.414-198.128l-.005-.338H274.795l.016.358c2.5,55.162,4.751,104.727,6.375,140.522.835,17.845,1.51,32.253,1.977,42.223.241,4.949.428,8.794.555,11.422q.1,1.928.157,2.954c.037.663.068.989.068.989" transform="translate(-265.074 50.344)" fill="#263238"/>
                <path id="Trazado_880864" data-name="Trazado 880864" d="M23.124,358.459h5.364l3.055-199.114H20.069Z" transform="translate(327.885 50.29)" fill="#e0e0e0"/>
                <path id="Trazado_880865" data-name="Trazado 880865" d="M23.207,358.54s.011-.362.008-1.043q-.006-1.048-.021-3.015c-.03-2.66-.074-6.549-.129-11.559-.129-10.039-.316-24.548-.549-42.515-.514-35.913-1.227-85.64-2.022-140.985l-.342.349H31.626l-.343-.349C29.788,257.05,28.655,338.28,28.5,358.539l.075-.074-4.019.043c-.891.013-1.345.032-1.345.032s.417.018,1.3.032l4.063.043h.074v-.075c.463-20.255,1.822-101.482,3.322-199.108l.005-.347H19.8l.005.347c.906,55.442,1.719,105.256,2.308,141.231.32,17.933.576,32.414.755,42.433.1,4.974.172,8.837.225,11.479q.045,1.938.07,2.969c.018.666.039.995.039.995" transform="translate(327.802 50.208)" fill="#263238"/>
                <rect id="Rectángulo_405627" data-name="Rectángulo 405627" width="385.395" height="16.507" transform="translate(0.342 194.402)" fill="#455a64"/>
                <path id="Trazado_880866" data-name="Trazado 880866" d="M385.738,147.849s-.651-.016-1.947-.024l-5.769-.025-22.253-.049-82.17-.1L.343,147.507H0v.342c0,5.219,0,10.839,0,16.487v.362H.343l385.395-.25h.093v-.092c-.024-5.673-.042-9.805-.053-12.531-.011-1.343-.017-2.337-.022-3.006s-.017-.97-.017-.97-.012.334-.017,1-.012,1.676-.022,3.029c-.011,2.714-.029,6.828-.053,12.477l.092-.092L.343,164.013l.342.343V147.849l-.342.342,273-.142,82.249-.1,22.334-.049,5.814-.025c1.312-.008,2-.024,2-.024" transform="translate(-0.001 46.553)" fill="#263238"/>
                <path id="Trazado_880867" data-name="Trazado 880867" d="M.526,147.954a.714.714,0,0,0,.12.179c.087.112.212.284.395.495a7.9,7.9,0,0,0,1.9,1.52,10.64,10.64,0,0,0,3.647,1.224,25.737,25.737,0,0,0,5.086.224,49.729,49.729,0,0,0,6.123-.7,54.6,54.6,0,0,1,6.974-.831c4.947-.178,10.322,1.117,15.694,3.043s10.418,4.114,15.232,5.447a41.9,41.9,0,0,0,6.946,1.377,29.335,29.335,0,0,0,6.173-.012,20.976,20.976,0,0,0,8.465-2.708,13.313,13.313,0,0,0,2.617-1.958.709.709,0,0,0-.182.116l-.5.376a17.6,17.6,0,0,1-2.022,1.308,21.405,21.405,0,0,1-8.409,2.539,29.63,29.63,0,0,1-6.1-.045,42.359,42.359,0,0,1-6.87-1.406c-4.772-1.345-9.783-3.539-15.2-5.474-5.394-1.934-10.837-3.235-15.862-3.031a53.666,53.666,0,0,0-7.021.879,50.9,50.9,0,0,1-6.074.755,26.173,26.173,0,0,1-5.033-.151,10.7,10.7,0,0,1-3.6-1.125,9.551,9.551,0,0,1-2.5-2.035" transform="translate(305.246 46.694)" fill="#263238"/>
                <path id="Trazado_880868" data-name="Trazado 880868" d="M3.221,148.155a9.339,9.339,0,0,0,1.142.975,26.159,26.159,0,0,0,3.444,2.217,29.981,29.981,0,0,0,5.633,2.292A30.544,30.544,0,0,0,20.8,154.79a28.18,28.18,0,0,0,13.159-2.715,8.354,8.354,0,0,0,3.175-2.594,4.5,4.5,0,0,0,.518-1,1.275,1.275,0,0,0,.1-.379,10.452,10.452,0,0,1-.763,1.268,8.6,8.6,0,0,1-3.175,2.408,29.183,29.183,0,0,1-13,2.544,31.427,31.427,0,0,1-7.257-1.1,31.981,31.981,0,0,1-5.6-2.171,32.458,32.458,0,0,1-3.49-2.073,9.3,9.3,0,0,0-1.249-.828" transform="translate(343.842 46.742)" fill="#263238"/>
                <path id="Trazado_880869" data-name="Trazado 880869" d="M91.318,157.813a4.523,4.523,0,0,0-.585.212,11.426,11.426,0,0,1-1.743.463,10.273,10.273,0,0,1-6.606-1.034l.02.209a15.733,15.733,0,0,1,8.191-3.19,15.94,15.94,0,0,1,10.655,2.768,1.707,1.707,0,0,1,.825,1.072,1.155,1.155,0,0,1-.708,1.064,4.907,4.907,0,0,1-1.463.513l-1.608.364c-2.16.48-4.391.958-6.7,1.3a39.907,39.907,0,0,1-7.128.484,25.942,25.942,0,0,1-3.659-.351c-.609-.1-1.218-.221-1.821-.382a9.134,9.134,0,0,1-1.763-.57,5.821,5.821,0,0,1-2.287-1.652,2.606,2.606,0,0,1-.438-2.536,4.338,4.338,0,0,1,1.794-2,14.255,14.255,0,0,1,2.506-1.224,34.2,34.2,0,0,1,10.484-2.175,43.442,43.442,0,0,1,17.9,2.773,44.311,44.311,0,0,1,10.775,5.885c1.151.891,2.038,1.593,2.6,2.113l.664.566a1.6,1.6,0,0,0,.238.182,1.4,1.4,0,0,0-.205-.216l-.635-.6c-.547-.542-1.417-1.271-2.556-2.187a43.658,43.658,0,0,0-28.805-8.942,34.488,34.488,0,0,0-10.627,2.179,14.651,14.651,0,0,0-2.589,1.263,4.767,4.767,0,0,0-1.977,2.23,3.075,3.075,0,0,0,.5,2.979,6.248,6.248,0,0,0,2.468,1.794,9.5,9.5,0,0,0,1.837.6c.616.163,1.237.283,1.858.388a26.5,26.5,0,0,0,3.722.354,40.048,40.048,0,0,0,7.207-.5c2.327-.346,4.566-.833,6.729-1.321L100,160.3a5.271,5.271,0,0,0,1.58-.566,2.122,2.122,0,0,0,.664-.58,1.3,1.3,0,0,0,.241-.889,2.075,2.075,0,0,0-1-1.358,16.243,16.243,0,0,0-10.926-2.777,15.908,15.908,0,0,0-8.316,3.331l-.153.122.171.088a10.267,10.267,0,0,0,6.75.942,7.611,7.611,0,0,0,2.3-.805" transform="translate(167.171 47.546)" fill="#263238"/>
                <path id="Trazado_880870" data-name="Trazado 880870" d="M124.4,148.278a2.468,2.468,0,0,0-.372.831,6.3,6.3,0,0,0-.249,2.477,12.2,12.2,0,0,0,3.676,7.2,18.6,18.6,0,0,0,3.435,2.919,15.254,15.254,0,0,0,3.314,1.606,15.532,15.532,0,0,0,2.4.6,3.29,3.29,0,0,0,.9.076c.017-.086-1.267-.263-3.193-.988a16.462,16.462,0,0,1-3.19-1.655,19.454,19.454,0,0,1-3.331-2.88,12.5,12.5,0,0,1-3.689-6.919,9.012,9.012,0,0,1,.295-3.276" transform="translate(85.515 46.797)" fill="#263238"/>
                <path id="Trazado_880871" data-name="Trazado 880871" d="M143.4,162.266a21.934,21.934,0,0,1,1.733-1.687,12.323,12.323,0,0,1,5.9-2.66,13.154,13.154,0,0,1,4.494.129,19.288,19.288,0,0,0,5.269.484,10.518,10.518,0,0,0,5.244-2.572,17.9,17.9,0,0,1,5.27-3.125,19.334,19.334,0,0,1,11.7-.182,27.782,27.782,0,0,1,8.659,4.388,47.548,47.548,0,0,1,5.02,4.284l1.281,1.264a3.041,3.041,0,0,0,.463.428,3.188,3.188,0,0,0-.395-.491c-.268-.312-.68-.762-1.221-1.329a42.045,42.045,0,0,0-4.953-4.42,27.534,27.534,0,0,0-8.738-4.535,19.572,19.572,0,0,0-11.98.157,18.183,18.183,0,0,0-5.39,3.2,10.179,10.179,0,0,1-5.016,2.508,19.365,19.365,0,0,1-5.157-.439,13.341,13.341,0,0,0-4.61-.074,12.136,12.136,0,0,0-5.968,2.85,8.015,8.015,0,0,0-1.616,1.822" transform="translate(-1.272 47.775)" fill="#263238"/>
                <path id="Trazado_880872" data-name="Trazado 880872" d="M185.932,147.887a3.732,3.732,0,0,0,.413.564,19.661,19.661,0,0,0,1.289,1.534,35.151,35.151,0,0,0,5.511,4.9,44.2,44.2,0,0,0,9.56,5.3,39.137,39.137,0,0,0,6.165,1.967,31.844,31.844,0,0,0,6.9.888,34.111,34.111,0,0,0,13.088-2.723,43.6,43.6,0,0,0,9.509-5.393,37.158,37.158,0,0,0,5.472-4.939c.607-.626,1-1.181,1.293-1.533a3.828,3.828,0,0,0,.414-.562,3.919,3.919,0,0,0-.487.5c-.317.33-.729.864-1.352,1.468a40.366,40.366,0,0,1-5.535,4.8,44.476,44.476,0,0,1-9.476,5.262,34.149,34.149,0,0,1-12.921,2.654,31.739,31.739,0,0,1-6.8-.866,39.569,39.569,0,0,1-6.107-1.921,45.282,45.282,0,0,1-9.53-5.17,37.966,37.966,0,0,1-5.569-4.752c-.628-.6-1.034-1.141-1.35-1.471a4.076,4.076,0,0,0-.485-.5" transform="translate(-104.327 46.673)" fill="#263238"/>
                <path id="Trazado_880873" data-name="Trazado 880873" d="M196.016,147.767c-.009.013.1.1.321.26s.542.392.978.662a39.574,39.574,0,0,0,3.781,2.14,40.053,40.053,0,0,0,5.974,2.431,26.294,26.294,0,0,0,7.795,1.333,31.986,31.986,0,0,0,13.837-3.5,30.611,30.611,0,0,0,3.749-2.2c.428-.283.737-.537.953-.7s.32-.259.31-.272a13.2,13.2,0,0,0-1.362.818,38.177,38.177,0,0,1-3.794,2.058,33.21,33.21,0,0,1-13.694,3.328,26.743,26.743,0,0,1-7.669-1.277,43.116,43.116,0,0,1-5.957-2.318c-1.647-.781-2.947-1.487-3.83-2a12.376,12.376,0,0,0-1.393-.768" transform="translate(-105.763 46.635)" fill="#263238"/>
                <path id="Trazado_880874" data-name="Trazado 880874" d="M224.781,149.163a4.593,4.593,0,0,0,.751,0l2.13-.079,1.534-.068,1.833-.007c1.313-.009,2.808-.036,4.456.042l2.589.082,2.79.188c1.937.1,3.966.363,6.117.571,4.265.539,8.892,1.3,13.594,2.354a132.211,132.211,0,0,1,12.735,3.636c1.833.689,3.631,1.295,5.178,1.979l2.283.951,2.016.949c1.312.584,2.4,1.183,3.365,1.7l1.358.716,1.072.641,1.505.878a2.9,2.9,0,0,0,.567.285c.021-.011-.133-.13-.446-.347-.38-.257-.842-.567-1.4-.941l-1.029-.672-1.318-.747c-.947-.534-2.013-1.155-3.311-1.76l-2-.979-2.273-.981c-1.545-.7-3.344-1.327-5.183-2.031a124.945,124.945,0,0,0-12.824-3.7c-4.748-1.063-9.426-1.819-13.741-2.34-2.176-.2-4.228-.453-6.187-.534l-2.821-.163-2.614-.051c-1.664-.058-3.171-.009-4.491.025l-1.841.046-1.539.109-2.122.166a4.292,4.292,0,0,0-.731.089" transform="translate(-200.547 46.93)" fill="#263238"/>
                <path id="Trazado_880875" data-name="Trazado 880875" d="M132.674,162.659a17.57,17.57,0,0,1,2.077-2.469,19.2,19.2,0,0,1,7.607-4.251,41.642,41.642,0,0,1,5.935-1.312c2.165-.343,4.5-.613,6.941-1.035a58.135,58.135,0,0,0,7.537-1.889,49.187,49.187,0,0,1,8.041-1.94,33.506,33.506,0,0,1,15.664,2.162,57.141,57.141,0,0,1,6.371,2.863c1.952,1,3.743,1.988,5.368,2.9,3.25,1.839,5.835,3.4,7.619,4.491l2.051,1.258.537.321a.776.776,0,0,0,.191.1c.005-.007-.051-.053-.164-.135l-.513-.36c-.454-.312-1.128-.764-2-1.331-1.755-1.137-4.318-2.746-7.552-4.624-1.617-.937-3.4-1.943-5.353-2.961a56.044,56.044,0,0,0-6.4-2.922,33.632,33.632,0,0,0-15.871-2.222,49.14,49.14,0,0,0-8.113,1.966,58.882,58.882,0,0,1-7.481,1.9c-2.423.43-4.755.714-6.927,1.076a40.843,40.843,0,0,0-5.975,1.379,18.9,18.9,0,0,0-7.633,4.435,9.685,9.685,0,0,0-1.95,2.6" transform="translate(2.673 47.052)" fill="#263238"/>
                <path id="Trazado_880876" data-name="Trazado 880876" d="M111.365,147.953a3.637,3.637,0,0,0,.055,1.055,12.289,12.289,0,0,0,.738,2.785,15.993,15.993,0,0,0,5.8,7.424,38.833,38.833,0,0,0,8.6,3.959c1.15.382,2.09.655,2.746.825a4.361,4.361,0,0,0,1.031.214,4.865,4.865,0,0,0-.979-.387l-2.688-.963a44.321,44.321,0,0,1-8.454-4.038,16.493,16.493,0,0,1-5.752-7.157,22.263,22.263,0,0,1-1.1-3.718" transform="translate(109.005 46.694)" fill="#263238"/>
                <path id="Trazado_880877" data-name="Trazado 880877" d="M86.993,164.216a6.593,6.593,0,0,0-.92-.883c-.606-.553-1.523-1.305-2.686-2.2a77.874,77.874,0,0,0-9.628-6.2c-3.923-2.156-7.587-3.881-10.247-5.1-1.33-.61-2.413-1.092-3.165-1.416a6.594,6.594,0,0,0-1.188-.459,6.7,6.7,0,0,0,1.112.624l3.1,1.547c2.622,1.3,6.257,3.065,10.164,5.212a95.086,95.086,0,0,1,9.655,6.061c1.181.855,2.127,1.567,2.768,2.075a6.788,6.788,0,0,0,1.034.743" transform="translate(221.008 46.693)" fill="#263238"/>
                <path id="Trazado_880878" data-name="Trazado 880878" d="M28.058,148.51c0,.054.872-.112,2.435.007a17.224,17.224,0,0,1,6.3,1.916,57.549,57.549,0,0,1,8.18,5.489,41.638,41.638,0,0,0,4.927,3.192,27.411,27.411,0,0,0,5.891,2.268,54.724,54.724,0,0,0,12.059,1.45c3.731.109,7.085.034,9.893.15a48.905,48.905,0,0,1,6.617.647c.772.143,1.372.26,1.775.357a3.48,3.48,0,0,0,.624.113,3.1,3.1,0,0,0-.6-.2c-.4-.125-.992-.272-1.764-.443a43.1,43.1,0,0,0-6.636-.8c-2.821-.158-6.181-.117-9.895-.249a55.934,55.934,0,0,1-11.956-1.472,27.259,27.259,0,0,1-5.8-2.221,42.191,42.191,0,0,1-4.889-3.135,55.111,55.111,0,0,0-8.287-5.439,16.665,16.665,0,0,0-6.431-1.8,11.2,11.2,0,0,0-1.822.061,3.259,3.259,0,0,0-.625.113" transform="translate(262.16 46.812)" fill="#263238"/>
              </g>
            </g>
          </g>
        </g>
      </g>
      <path id="Rectángulo_401758" data-name="Rectángulo 401758" d="M94,30A64.072,64.072,0,0,0,30,94v6a64,64,0,0,0,128,0V94A64.072,64.072,0,0,0,94,30M94,0a94,94,0,0,1,94,94v6A94,94,0,0,1,0,100V94A94,94,0,0,1,94,0Z" transform="translate(1050 7366)" fill="#fff"/>
    </g>
  </g>
</svg>
