<svg xmlns="http://www.w3.org/2000/svg" width="610" height="333" viewBox="0 0 610 333">
  <g id="_27" data-name="27" transform="translate(-495.051 -7885)">
    <path id="Trazado_881203" data-name="Trazado 881203" d="M13,0H597a13,13,0,0,1,13,13V320a13,13,0,0,1-13,13H13A13,13,0,0,1,0,320V13A13,13,0,0,1,13,0Z" transform="translate(495.051 7885)" fill="#f6f9f9"/>
    <path id="Trazado_881204" data-name="Trazado 881204" d="M2.5-7.05.2-7.7.63-9.025l2.278.915-.146-2.554H4.2l-.146,2.6,2.219-.9L6.7-7.62l-2.344.651L5.9-5.021l-1.165.828L3.4-6.332,2.08-4.266.916-5.057ZM13.682-1.765h4.666V0H11.484V-10.664h2.2Zm5.457-2.271a4.7,4.7,0,0,1,.454-2.1A3.324,3.324,0,0,1,20.9-7.566a3.814,3.814,0,0,1,1.981-.505A3.609,3.609,0,0,1,25.5-7.09a3.939,3.939,0,0,1,1.132,2.666l.015.542A4.142,4.142,0,0,1,25.627-.956,3.539,3.539,0,0,1,22.9.146a3.556,3.556,0,0,1-2.736-1.1A4.215,4.215,0,0,1,19.138-3.94Zm2.117.15a2.962,2.962,0,0,0,.425,1.727,1.4,1.4,0,0,0,1.216.6,1.4,1.4,0,0,0,1.2-.591,3.241,3.241,0,0,0,.432-1.889A2.933,2.933,0,0,0,24.1-5.756a1.4,1.4,0,0,0-1.216-.609,1.382,1.382,0,0,0-1.2.605A3.3,3.3,0,0,0,21.255-3.885Zm10.986,1.7a.682.682,0,0,0-.385-.612,4.368,4.368,0,0,0-1.234-.4Q27.8-3.794,27.8-5.6a2.178,2.178,0,0,1,.875-1.761,3.531,3.531,0,0,1,2.289-.707,3.8,3.8,0,0,1,2.413.71,2.239,2.239,0,0,1,.9,1.846H32.161a1.024,1.024,0,0,0-.293-.751,1.24,1.24,0,0,0-.916-.3,1.267,1.267,0,0,0-.828.242.763.763,0,0,0-.293.615.652.652,0,0,0,.333.568,3.428,3.428,0,0,0,1.124.374,9.183,9.183,0,0,1,1.333.355A2.19,2.19,0,0,1,34.3-2.278a2.067,2.067,0,0,1-.93,1.754,4.013,4.013,0,0,1-2.4.67A4.191,4.191,0,0,1,29.2-.209a2.968,2.968,0,0,1-1.212-.974,2.263,2.263,0,0,1-.439-1.337h2.007a1.105,1.105,0,0,0,.417.864,1.656,1.656,0,0,0,1.04.3,1.533,1.533,0,0,0,.919-.231A.718.718,0,0,0,32.241-2.19Zm6.826-1.831A4.776,4.776,0,0,1,39.9-6.973a2.7,2.7,0,0,1,2.274-1.1,2.427,2.427,0,0,1,1.912.864V-11.25h2.124V0H44.3l-.1-.842a2.491,2.491,0,0,1-2.036.989,2.69,2.69,0,0,1-2.245-1.1A4.93,4.93,0,0,1,39.067-4.021Zm2.117.158a3.128,3.128,0,0,0,.388,1.709A1.265,1.265,0,0,0,42.7-1.56a1.416,1.416,0,0,0,1.384-.829V-5.521a1.4,1.4,0,0,0-1.37-.829Q41.184-6.35,41.184-3.863ZM50.083,0H47.959V-7.925h2.124ZM47.834-9.976a1.042,1.042,0,0,1,.319-.784,1.2,1.2,0,0,1,.868-.308,1.2,1.2,0,0,1,.864.308,1.036,1.036,0,0,1,.322.784,1.039,1.039,0,0,1-.326.791,1.2,1.2,0,0,1-.861.308,1.2,1.2,0,0,1-.861-.308A1.039,1.039,0,0,1,47.834-9.976ZM56.118-2.19a.682.682,0,0,0-.385-.612A4.368,4.368,0,0,0,54.5-3.2q-2.827-.593-2.827-2.4a2.178,2.178,0,0,1,.875-1.761,3.531,3.531,0,0,1,2.289-.707,3.8,3.8,0,0,1,2.413.71,2.239,2.239,0,0,1,.9,1.846H56.038a1.024,1.024,0,0,0-.293-.751,1.24,1.24,0,0,0-.916-.3A1.267,1.267,0,0,0,54-6.321a.763.763,0,0,0-.293.615.652.652,0,0,0,.333.568,3.428,3.428,0,0,0,1.124.374,9.183,9.183,0,0,1,1.333.355,2.19,2.19,0,0,1,1.677,2.131,2.067,2.067,0,0,1-.93,1.754,4.013,4.013,0,0,1-2.4.67,4.191,4.191,0,0,1-1.769-.355,2.968,2.968,0,0,1-1.212-.974,2.263,2.263,0,0,1-.439-1.337H53.43a1.105,1.105,0,0,0,.417.864,1.656,1.656,0,0,0,1.04.3,1.533,1.533,0,0,0,.919-.231A.718.718,0,0,0,56.118-2.19Zm10.554-1.7a4.753,4.753,0,0,1-.831,2.933A2.665,2.665,0,0,1,63.6.146a2.469,2.469,0,0,1-1.941-.835V3.047H59.539V-7.925H61.5l.073.776a2.488,2.488,0,0,1,2.007-.923,2.683,2.683,0,0,1,2.278,1.084A4.882,4.882,0,0,1,66.672-4Zm-2.117-.154a3.119,3.119,0,0,0-.392-1.707,1.276,1.276,0,0,0-1.139-.6,1.386,1.386,0,0,0-1.37.762v3.245a1.41,1.41,0,0,0,1.384.784Q64.556-1.56,64.556-4.043Zm3.1.007a4.7,4.7,0,0,1,.454-2.1,3.324,3.324,0,0,1,1.307-1.428A3.814,3.814,0,0,1,71.4-8.071a3.609,3.609,0,0,1,2.618.981,3.939,3.939,0,0,1,1.132,2.666l.015.542A4.142,4.142,0,0,1,74.143-.956a3.539,3.539,0,0,1-2.732,1.1,3.556,3.556,0,0,1-2.736-1.1A4.215,4.215,0,0,1,67.654-3.94Zm2.117.15A2.962,2.962,0,0,0,70.2-2.158a1.4,1.4,0,0,0,1.216.6,1.4,1.4,0,0,0,1.2-.591,3.241,3.241,0,0,0,.432-1.889,2.933,2.933,0,0,0-.432-1.716A1.4,1.4,0,0,0,71.4-6.365a1.382,1.382,0,0,0-1.2.605A3.3,3.3,0,0,0,69.771-3.885Zm10.986,1.7a.682.682,0,0,0-.385-.612,4.368,4.368,0,0,0-1.234-.4q-2.827-.593-2.827-2.4a2.178,2.178,0,0,1,.875-1.761,3.531,3.531,0,0,1,2.289-.707,3.8,3.8,0,0,1,2.413.71,2.239,2.239,0,0,1,.9,1.846H80.676a1.024,1.024,0,0,0-.293-.751,1.24,1.24,0,0,0-.916-.3,1.267,1.267,0,0,0-.828.242.763.763,0,0,0-.293.615.652.652,0,0,0,.333.568,3.428,3.428,0,0,0,1.124.374,9.183,9.183,0,0,1,1.333.355,2.19,2.19,0,0,1,1.677,2.131,2.067,2.067,0,0,1-.93,1.754,4.013,4.013,0,0,1-2.4.67,4.191,4.191,0,0,1-1.769-.355A2.968,2.968,0,0,1,76.5-1.183a2.263,2.263,0,0,1-.439-1.337h2.007a1.105,1.105,0,0,0,.417.864,1.656,1.656,0,0,0,1.04.3,1.533,1.533,0,0,0,.919-.231A.718.718,0,0,0,80.757-2.19ZM86.411,0H84.287V-7.925h2.124ZM84.163-9.976a1.042,1.042,0,0,1,.319-.784,1.2,1.2,0,0,1,.868-.308,1.2,1.2,0,0,1,.864.308,1.036,1.036,0,0,1,.322.784,1.039,1.039,0,0,1-.326.791,1.2,1.2,0,0,1-.861.308,1.2,1.2,0,0,1-.861-.308A1.039,1.039,0,0,1,84.163-9.976Zm6.526.1v1.948h1.355v1.553H90.688v3.955a.944.944,0,0,0,.168.63.846.846,0,0,0,.645.19,3.376,3.376,0,0,0,.623-.051v1.6a4.358,4.358,0,0,1-1.282.19A2.021,2.021,0,0,1,88.572-2.1v-4.27H87.415V-7.925h1.157V-9.873ZM95.457,0H93.333V-7.925h2.124ZM93.208-9.976a1.042,1.042,0,0,1,.319-.784,1.2,1.2,0,0,1,.868-.308,1.2,1.2,0,0,1,.864.308,1.036,1.036,0,0,1,.322.784,1.039,1.039,0,0,1-.326.791,1.2,1.2,0,0,1-.861.308,1.2,1.2,0,0,1-.861-.308A1.039,1.039,0,0,1,93.208-9.976Zm6.958,7.39,1.472-5.339h2.212L101.177,0H99.155L96.482-7.925h2.212Zm4.175-1.45a4.7,4.7,0,0,1,.454-2.1A3.324,3.324,0,0,1,106.1-7.566a3.814,3.814,0,0,1,1.981-.505,3.609,3.609,0,0,1,2.618.981,3.939,3.939,0,0,1,1.132,2.666l.015.542A4.142,4.142,0,0,1,110.83-.956,3.539,3.539,0,0,1,108.1.146a3.556,3.556,0,0,1-2.736-1.1,4.215,4.215,0,0,1-1.022-2.988Zm2.117.15a2.962,2.962,0,0,0,.425,1.727,1.4,1.4,0,0,0,1.216.6,1.4,1.4,0,0,0,1.2-.591,3.241,3.241,0,0,0,.432-1.889,2.933,2.933,0,0,0-.432-1.716,1.4,1.4,0,0,0-1.216-.609,1.382,1.382,0,0,0-1.2.605A3.3,3.3,0,0,0,106.458-3.885Zm10.986,1.7a.682.682,0,0,0-.385-.612,4.368,4.368,0,0,0-1.234-.4Q113-3.794,113-5.6a2.178,2.178,0,0,1,.875-1.761,3.531,3.531,0,0,1,2.289-.707,3.8,3.8,0,0,1,2.413.71,2.239,2.239,0,0,1,.9,1.846h-2.117a1.024,1.024,0,0,0-.293-.751,1.24,1.24,0,0,0-.916-.3,1.267,1.267,0,0,0-.828.242.763.763,0,0,0-.293.615.652.652,0,0,0,.333.568,3.428,3.428,0,0,0,1.124.374,9.183,9.183,0,0,1,1.333.355A2.19,2.19,0,0,1,119.5-2.278a2.067,2.067,0,0,1-.93,1.754,4.013,4.013,0,0,1-2.4.67A4.191,4.191,0,0,1,114.4-.209a2.968,2.968,0,0,1-1.212-.974,2.263,2.263,0,0,1-.439-1.337h2.007a1.105,1.105,0,0,0,.417.864,1.656,1.656,0,0,0,1.04.3,1.533,1.533,0,0,0,.919-.231A.718.718,0,0,0,117.444-2.19Zm9.141-5.735.066.886a2.785,2.785,0,0,1,2.278-1.033,2.114,2.114,0,0,1,2.1,1.208,2.721,2.721,0,0,1,2.38-1.208,2.364,2.364,0,0,1,1.919.751,3.451,3.451,0,0,1,.63,2.26V0h-2.124V-5.054a1.509,1.509,0,0,0-.264-.985,1.169,1.169,0,0,0-.93-.311,1.321,1.321,0,0,0-1.318.908L131.331,0h-2.117V-5.046a1.491,1.491,0,0,0-.271-1,1.18,1.18,0,0,0-.923-.308,1.372,1.372,0,0,0-1.3.747V0H124.6V-7.925ZM142.178,0a2.351,2.351,0,0,1-.212-.71,2.561,2.561,0,0,1-2,.857,2.814,2.814,0,0,1-1.93-.674,2.167,2.167,0,0,1-.765-1.7A2.24,2.24,0,0,1,138.2-4.16a4.608,4.608,0,0,1,2.7-.681h.974V-5.3a1.306,1.306,0,0,0-.282-.879,1.109,1.109,0,0,0-.89-.33,1.261,1.261,0,0,0-.839.256.871.871,0,0,0-.3.7h-2.117a2.126,2.126,0,0,1,.425-1.274,2.808,2.808,0,0,1,1.2-.919,4.378,4.378,0,0,1,1.743-.333,3.459,3.459,0,0,1,2.325.736A2.575,2.575,0,0,1,144-5.266v3.435a3.789,3.789,0,0,0,.315,1.707V0Zm-1.75-1.472a1.823,1.823,0,0,0,.864-.209,1.371,1.371,0,0,0,.586-.56V-3.6h-.791q-1.589,0-1.692,1.1l-.007.125a.847.847,0,0,0,.278.652A1.081,1.081,0,0,0,140.427-1.472Zm7.148-6.453.066.916a2.767,2.767,0,0,1,2.278-1.062,2.3,2.3,0,0,1,1.875.74,3.451,3.451,0,0,1,.63,2.212V0h-2.117V-5.068a1.373,1.373,0,0,0-.293-.978,1.312,1.312,0,0,0-.974-.3,1.456,1.456,0,0,0-1.34.762V0h-2.117V-7.925Zm8.987-1.948v1.948h1.355v1.553h-1.355v3.955a.944.944,0,0,0,.168.63.846.846,0,0,0,.645.19A3.376,3.376,0,0,0,158-1.648v1.6a4.358,4.358,0,0,1-1.282.19A2.021,2.021,0,0,1,154.446-2.1v-4.27h-1.157V-7.925h1.157V-9.873ZM161.331,0h-2.124V-7.925h2.124Zm-2.249-9.976a1.042,1.042,0,0,1,.319-.784,1.2,1.2,0,0,1,.868-.308,1.2,1.2,0,0,1,.864.308,1.036,1.036,0,0,1,.322.784,1.039,1.039,0,0,1-.326.791,1.2,1.2,0,0,1-.861.308,1.2,1.2,0,0,1-.861-.308A1.039,1.039,0,0,1,159.082-9.976ZM166.721.146a3.89,3.89,0,0,1-2.838-1.069,3.8,3.8,0,0,1-1.095-2.849v-.205a4.787,4.787,0,0,1,.461-2.135,3.386,3.386,0,0,1,1.307-1.45,3.669,3.669,0,0,1,1.93-.509,3.289,3.289,0,0,1,2.56,1.025,4.167,4.167,0,0,1,.934,2.908v.864h-5.046a1.966,1.966,0,0,0,.619,1.245,1.871,1.871,0,0,0,1.307.469,2.285,2.285,0,0,0,1.912-.886l1.04,1.165a3.178,3.178,0,0,1-1.289,1.051A4.229,4.229,0,0,1,166.721.146Zm-.242-6.511a1.323,1.323,0,0,0-1.022.427,2.209,2.209,0,0,0-.5,1.221H167.9v-.169a1.576,1.576,0,0,0-.381-1.092A1.365,1.365,0,0,0,166.479-6.365Zm6.65-1.56.066.916a2.767,2.767,0,0,1,2.278-1.062,2.3,2.3,0,0,1,1.875.74,3.451,3.451,0,0,1,.63,2.212V0h-2.117V-5.068a1.373,1.373,0,0,0-.293-.978,1.312,1.312,0,0,0-.974-.3,1.456,1.456,0,0,0-1.34.762V0h-2.117V-7.925ZM183.23.146a3.89,3.89,0,0,1-2.838-1.069A3.8,3.8,0,0,1,179.3-3.772v-.205a4.787,4.787,0,0,1,.461-2.135,3.386,3.386,0,0,1,1.307-1.45A3.669,3.669,0,0,1,183-8.071a3.289,3.289,0,0,1,2.56,1.025,4.167,4.167,0,0,1,.934,2.908v.864h-5.046a1.966,1.966,0,0,0,.619,1.245,1.871,1.871,0,0,0,1.307.469,2.285,2.285,0,0,0,1.912-.886l1.04,1.165a3.178,3.178,0,0,1-1.289,1.051A4.229,4.229,0,0,1,183.23.146Zm-.242-6.511a1.323,1.323,0,0,0-1.022.427,2.209,2.209,0,0,0-.5,1.221h2.944v-.169a1.576,1.576,0,0,0-.381-1.092A1.365,1.365,0,0,0,182.988-6.365Zm6.65-1.56.066.916a2.767,2.767,0,0,1,2.278-1.062,2.3,2.3,0,0,1,1.875.74,3.451,3.451,0,0,1,.63,2.212V0h-2.117V-5.068a1.373,1.373,0,0,0-.293-.978,1.312,1.312,0,0,0-.974-.3,1.456,1.456,0,0,0-1.34.762V0h-2.117V-7.925ZM203.123-1.56a1.388,1.388,0,0,0,.952-.322,1.129,1.129,0,0,0,.381-.857h1.985A2.715,2.715,0,0,1,206-1.263a2.9,2.9,0,0,1-1.183,1.04,3.7,3.7,0,0,1-1.659.37,3.44,3.44,0,0,1-2.681-1.08,4.275,4.275,0,0,1-.981-2.985v-.139a4.226,4.226,0,0,1,.974-2.922,3.4,3.4,0,0,1,2.673-1.091,3.333,3.333,0,0,1,2.384.846,3,3,0,0,1,.912,2.252h-1.985a1.455,1.455,0,0,0-.381-1.005,1.27,1.27,0,0,0-.967-.387,1.275,1.275,0,0,0-1.117.539,3.125,3.125,0,0,0-.377,1.749v.22a3.164,3.164,0,0,0,.374,1.761A1.291,1.291,0,0,0,203.123-1.56ZM212.241,0a2.351,2.351,0,0,1-.212-.71,2.561,2.561,0,0,1-2,.857,2.814,2.814,0,0,1-1.93-.674,2.167,2.167,0,0,1-.765-1.7,2.24,2.24,0,0,1,.934-1.934,4.608,4.608,0,0,1,2.7-.681h.974V-5.3a1.306,1.306,0,0,0-.282-.879,1.109,1.109,0,0,0-.89-.33,1.261,1.261,0,0,0-.839.256.871.871,0,0,0-.3.7H207.51a2.126,2.126,0,0,1,.425-1.274,2.808,2.808,0,0,1,1.2-.919,4.378,4.378,0,0,1,1.743-.333,3.459,3.459,0,0,1,2.325.736,2.575,2.575,0,0,1,.861,2.069v3.435a3.789,3.789,0,0,0,.315,1.707V0Zm-1.75-1.472a1.823,1.823,0,0,0,.864-.209,1.371,1.371,0,0,0,.586-.56V-3.6h-.791q-1.589,0-1.692,1.1l-.007.125a.847.847,0,0,0,.278.652A1.081,1.081,0,0,0,210.491-1.472Zm8.5-.088a1.388,1.388,0,0,0,.952-.322,1.129,1.129,0,0,0,.381-.857H222.3a2.715,2.715,0,0,1-.439,1.476,2.9,2.9,0,0,1-1.183,1.04,3.7,3.7,0,0,1-1.659.37,3.44,3.44,0,0,1-2.681-1.08,4.275,4.275,0,0,1-.981-2.985v-.139a4.226,4.226,0,0,1,.974-2.922,3.4,3.4,0,0,1,2.673-1.091,3.333,3.333,0,0,1,2.384.846,3,3,0,0,1,.912,2.252H220.32a1.455,1.455,0,0,0-.381-1.005,1.27,1.27,0,0,0-.967-.387,1.275,1.275,0,0,0-1.117.539,3.125,3.125,0,0,0-.377,1.749v.22a3.164,3.164,0,0,0,.374,1.761A1.291,1.291,0,0,0,218.987-1.56Zm6.592-5.5A2.642,2.642,0,0,1,227.7-8.071q2.578,0,2.615,3V0h-2.117V-5.017a1.472,1.472,0,0,0-.293-1.007,1.256,1.256,0,0,0-.974-.326,1.441,1.441,0,0,0-1.348.718V0h-2.117V-11.25h2.117ZM235.554.146a3.89,3.89,0,0,1-2.838-1.069,3.8,3.8,0,0,1-1.095-2.849v-.205a4.787,4.787,0,0,1,.461-2.135,3.386,3.386,0,0,1,1.307-1.45,3.669,3.669,0,0,1,1.93-.509,3.289,3.289,0,0,1,2.56,1.025,4.167,4.167,0,0,1,.934,2.908v.864h-5.046a1.966,1.966,0,0,0,.619,1.245,1.871,1.871,0,0,0,1.307.469,2.285,2.285,0,0,0,1.912-.886l1.04,1.165a3.178,3.178,0,0,1-1.289,1.051A4.229,4.229,0,0,1,235.554.146Zm-.242-6.511a1.323,1.323,0,0,0-1.022.427,2.209,2.209,0,0,0-.5,1.221h2.944v-.169a1.576,1.576,0,0,0-.381-1.092A1.365,1.365,0,0,0,235.313-6.365Zm.19-4.885h2.307l-2.029,2.271H234.06ZM245.984,0H243.86V-11.25h2.124ZM247.4-4.036a4.7,4.7,0,0,1,.454-2.1,3.324,3.324,0,0,1,1.307-1.428,3.814,3.814,0,0,1,1.981-.505,3.609,3.609,0,0,1,2.618.981,3.939,3.939,0,0,1,1.132,2.666l.015.542a4.142,4.142,0,0,1-1.018,2.926,3.539,3.539,0,0,1-2.732,1.1,3.556,3.556,0,0,1-2.736-1.1A4.215,4.215,0,0,1,247.4-3.94Zm2.117.15a2.962,2.962,0,0,0,.425,1.727,1.4,1.4,0,0,0,1.216.6,1.4,1.4,0,0,0,1.2-.591,3.241,3.241,0,0,0,.432-1.889,2.933,2.933,0,0,0-.432-1.716,1.4,1.4,0,0,0-1.216-.609,1.382,1.382,0,0,0-1.2.605A3.3,3.3,0,0,0,249.514-3.885ZM259.5-1.56a1.388,1.388,0,0,0,.952-.322,1.129,1.129,0,0,0,.381-.857h1.985a2.715,2.715,0,0,1-.439,1.476A2.9,2.9,0,0,1,261.2-.223a3.7,3.7,0,0,1-1.659.37,3.44,3.44,0,0,1-2.681-1.08,4.275,4.275,0,0,1-.981-2.985v-.139a4.226,4.226,0,0,1,.974-2.922,3.4,3.4,0,0,1,2.673-1.091,3.333,3.333,0,0,1,2.384.846,3,3,0,0,1,.912,2.252h-1.985a1.455,1.455,0,0,0-.381-1.005,1.27,1.27,0,0,0-.967-.387,1.275,1.275,0,0,0-1.117.539A3.125,3.125,0,0,0,258-4.076v.22a3.164,3.164,0,0,0,.374,1.761A1.291,1.291,0,0,0,259.5-1.56ZM268.623,0a2.351,2.351,0,0,1-.212-.71,2.561,2.561,0,0,1-2,.857,2.814,2.814,0,0,1-1.93-.674,2.167,2.167,0,0,1-.765-1.7,2.24,2.24,0,0,1,.934-1.934,4.608,4.608,0,0,1,2.7-.681h.974V-5.3a1.306,1.306,0,0,0-.282-.879,1.109,1.109,0,0,0-.89-.33,1.261,1.261,0,0,0-.839.256.871.871,0,0,0-.3.7h-2.117a2.126,2.126,0,0,1,.425-1.274,2.808,2.808,0,0,1,1.2-.919,4.378,4.378,0,0,1,1.743-.333,3.459,3.459,0,0,1,2.325.736,2.575,2.575,0,0,1,.861,2.069v3.435a3.789,3.789,0,0,0,.315,1.707V0Zm-1.75-1.472a1.823,1.823,0,0,0,.864-.209,1.371,1.371,0,0,0,.586-.56V-3.6h-.791q-1.589,0-1.692,1.1l-.007.125a.847.847,0,0,0,.278.652A1.081,1.081,0,0,0,266.873-1.472ZM274.307,0h-2.124V-11.25h2.124Zm12.612-3.889a4.753,4.753,0,0,1-.831,2.933,2.665,2.665,0,0,1-2.245,1.1A2.469,2.469,0,0,1,281.9-.688V3.047h-2.117V-7.925h1.963l.073.776a2.488,2.488,0,0,1,2.007-.923,2.683,2.683,0,0,1,2.278,1.084A4.882,4.882,0,0,1,286.919-4ZM284.8-4.043a3.119,3.119,0,0,0-.392-1.707,1.276,1.276,0,0,0-1.139-.6,1.386,1.386,0,0,0-1.37.762v3.245a1.41,1.41,0,0,0,1.384.784Q284.8-1.56,284.8-4.043ZM292.822,0a2.351,2.351,0,0,1-.212-.71,2.561,2.561,0,0,1-2,.857,2.814,2.814,0,0,1-1.93-.674,2.167,2.167,0,0,1-.765-1.7,2.24,2.24,0,0,1,.934-1.934,4.608,4.608,0,0,1,2.7-.681h.974V-5.3a1.306,1.306,0,0,0-.282-.879,1.109,1.109,0,0,0-.89-.33,1.261,1.261,0,0,0-.839.256.871.871,0,0,0-.3.7h-2.117a2.126,2.126,0,0,1,.425-1.274,2.808,2.808,0,0,1,1.2-.919,4.378,4.378,0,0,1,1.743-.333,3.459,3.459,0,0,1,2.325.736,2.575,2.575,0,0,1,.861,2.069v3.435a3.789,3.789,0,0,0,.315,1.707V0Zm-1.75-1.472a1.823,1.823,0,0,0,.864-.209,1.371,1.371,0,0,0,.586-.56V-3.6h-.791q-1.589,0-1.692,1.1l-.007.125a.847.847,0,0,0,.278.652A1.081,1.081,0,0,0,291.072-1.472Zm9.653-4.468A5.751,5.751,0,0,0,299.963-6a1.55,1.55,0,0,0-1.575.813V0h-2.117V-7.925h2l.059.945A1.961,1.961,0,0,1,300.1-8.071a2.218,2.218,0,0,1,.659.1ZM306.116,0a2.351,2.351,0,0,1-.212-.71,2.561,2.561,0,0,1-2,.857,2.814,2.814,0,0,1-1.93-.674,2.167,2.167,0,0,1-.765-1.7,2.24,2.24,0,0,1,.934-1.934,4.608,4.608,0,0,1,2.7-.681h.974V-5.3a1.306,1.306,0,0,0-.282-.879,1.109,1.109,0,0,0-.89-.33,1.261,1.261,0,0,0-.839.256.871.871,0,0,0-.3.7h-2.117a2.126,2.126,0,0,1,.425-1.274,2.808,2.808,0,0,1,1.2-.919,4.378,4.378,0,0,1,1.743-.333,3.459,3.459,0,0,1,2.325.736,2.575,2.575,0,0,1,.861,2.069v3.435a3.789,3.789,0,0,0,.315,1.707V0Zm-1.75-1.472a1.823,1.823,0,0,0,.864-.209,1.371,1.371,0,0,0,.586-.56V-3.6h-.791q-1.589,0-1.692,1.1l-.007.125a.847.847,0,0,0,.278.652A1.081,1.081,0,0,0,304.365-1.472ZM313.879,0V-6.372H312.7V-7.925h1.179V-8.6a2.736,2.736,0,0,1,.765-2.069,2.964,2.964,0,0,1,2.142-.736,4.948,4.948,0,0,1,1.077.146l-.022,1.641a2.7,2.7,0,0,0-.645-.066Q316-9.683,316-8.562v.637h1.575v1.553H316V0Zm9.543-.806a2.654,2.654,0,0,1-2.168.952,2.5,2.5,0,0,1-1.945-.732,3.127,3.127,0,0,1-.685-2.146V-7.925h2.117V-2.8q0,1.239,1.128,1.239a1.528,1.528,0,0,0,1.479-.748V-7.925h2.124V0h-1.992Zm5.6-7.119.066.916a2.767,2.767,0,0,1,2.278-1.062,2.3,2.3,0,0,1,1.875.74,3.451,3.451,0,0,1,.63,2.212V0H331.75V-5.068a1.373,1.373,0,0,0-.293-.978,1.312,1.312,0,0,0-.974-.3,1.456,1.456,0,0,0-1.34.762V0h-2.117V-7.925Zm9.749,6.365a1.388,1.388,0,0,0,.952-.322,1.129,1.129,0,0,0,.381-.857h1.985a2.715,2.715,0,0,1-.439,1.476,2.9,2.9,0,0,1-1.183,1.04,3.7,3.7,0,0,1-1.659.37,3.44,3.44,0,0,1-2.681-1.08,4.275,4.275,0,0,1-.981-2.985v-.139a4.226,4.226,0,0,1,.974-2.922,3.4,3.4,0,0,1,2.673-1.091,3.333,3.333,0,0,1,2.384.846,3,3,0,0,1,.912,2.252H340.1a1.455,1.455,0,0,0-.381-1.005,1.27,1.27,0,0,0-.967-.387,1.275,1.275,0,0,0-1.117.539,3.125,3.125,0,0,0-.377,1.749v.22a3.164,3.164,0,0,0,.374,1.761A1.291,1.291,0,0,0,338.767-1.56ZM345.527,0H343.4V-7.925h2.124Zm-2.249-9.976a1.042,1.042,0,0,1,.319-.784,1.2,1.2,0,0,1,.868-.308,1.2,1.2,0,0,1,.864.308,1.036,1.036,0,0,1,.322.784,1.039,1.039,0,0,1-.326.791,1.2,1.2,0,0,1-.861.308,1.2,1.2,0,0,1-.861-.308A1.039,1.039,0,0,1,343.279-9.976Zm3.662,5.94a4.7,4.7,0,0,1,.454-2.1A3.324,3.324,0,0,1,348.7-7.566a3.814,3.814,0,0,1,1.981-.505,3.609,3.609,0,0,1,2.618.981,3.939,3.939,0,0,1,1.132,2.666l.015.542A4.142,4.142,0,0,1,353.43-.956,3.539,3.539,0,0,1,350.7.146a3.556,3.556,0,0,1-2.736-1.1,4.215,4.215,0,0,1-1.022-2.988Zm2.117.15a2.962,2.962,0,0,0,.425,1.727,1.4,1.4,0,0,0,1.216.6,1.4,1.4,0,0,0,1.2-.591,3.241,3.241,0,0,0,.432-1.889,2.933,2.933,0,0,0-.432-1.716,1.4,1.4,0,0,0-1.216-.609,1.382,1.382,0,0,0-1.2.605A3.3,3.3,0,0,0,349.058-3.885ZM357.7-7.925l.066.916a2.767,2.767,0,0,1,2.278-1.062,2.3,2.3,0,0,1,1.875.74,3.451,3.451,0,0,1,.63,2.212V0h-2.117V-5.068a1.373,1.373,0,0,0-.293-.978,1.312,1.312,0,0,0-.974-.3,1.456,1.456,0,0,0-1.34.762V0h-2.117V-7.925ZM368.745,0a2.351,2.351,0,0,1-.212-.71,2.561,2.561,0,0,1-2,.857,2.814,2.814,0,0,1-1.93-.674,2.167,2.167,0,0,1-.765-1.7,2.24,2.24,0,0,1,.934-1.934,4.608,4.608,0,0,1,2.7-.681h.974V-5.3a1.306,1.306,0,0,0-.282-.879,1.109,1.109,0,0,0-.89-.33,1.261,1.261,0,0,0-.839.256.871.871,0,0,0-.3.7h-2.117a2.126,2.126,0,0,1,.425-1.274,2.808,2.808,0,0,1,1.2-.919,4.378,4.378,0,0,1,1.743-.333,3.459,3.459,0,0,1,2.325.736,2.575,2.575,0,0,1,.861,2.069v3.435a3.789,3.789,0,0,0,.315,1.707V0Zm-1.75-1.472a1.823,1.823,0,0,0,.864-.209,1.371,1.371,0,0,0,.586-.56V-3.6h-.791q-1.589,0-1.692,1.1l-.007.125a.847.847,0,0,0,.278.652A1.081,1.081,0,0,0,366.995-1.472Zm7.185-6.453.066.886a2.785,2.785,0,0,1,2.278-1.033,2.114,2.114,0,0,1,2.1,1.208,2.721,2.721,0,0,1,2.38-1.208,2.364,2.364,0,0,1,1.919.751,3.451,3.451,0,0,1,.63,2.26V0h-2.124V-5.054a1.509,1.509,0,0,0-.264-.985,1.169,1.169,0,0,0-.93-.311,1.321,1.321,0,0,0-1.318.908L378.926,0h-2.117V-5.046a1.491,1.491,0,0,0-.271-1,1.18,1.18,0,0,0-.923-.308,1.372,1.372,0,0,0-1.3.747V0h-2.117V-7.925ZM387.415,0h-2.124V-7.925h2.124Zm-2.249-9.976a1.042,1.042,0,0,1,.319-.784,1.2,1.2,0,0,1,.868-.308,1.2,1.2,0,0,1,.864.308,1.036,1.036,0,0,1,.322.784,1.039,1.039,0,0,1-.326.791,1.2,1.2,0,0,1-.861.308,1.2,1.2,0,0,1-.861-.308A1.039,1.039,0,0,1,385.166-9.976ZM392.805.146a3.89,3.89,0,0,1-2.838-1.069,3.8,3.8,0,0,1-1.095-2.849v-.205a4.787,4.787,0,0,1,.461-2.135,3.386,3.386,0,0,1,1.307-1.45,3.669,3.669,0,0,1,1.93-.509,3.289,3.289,0,0,1,2.56,1.025,4.167,4.167,0,0,1,.934,2.908v.864h-5.046a1.966,1.966,0,0,0,.619,1.245,1.871,1.871,0,0,0,1.307.469,2.285,2.285,0,0,0,1.912-.886l1.04,1.165a3.178,3.178,0,0,1-1.289,1.051A4.229,4.229,0,0,1,392.805.146Zm-.242-6.511a1.323,1.323,0,0,0-1.022.427,2.209,2.209,0,0,0-.5,1.221h2.944v-.169a1.576,1.576,0,0,0-.381-1.092A1.365,1.365,0,0,0,392.563-6.365Zm6.65-1.56.066.916a2.767,2.767,0,0,1,2.278-1.062,2.3,2.3,0,0,1,1.875.74,3.451,3.451,0,0,1,.63,2.212V0h-2.117V-5.068a1.373,1.373,0,0,0-.293-.978,1.312,1.312,0,0,0-.974-.3,1.456,1.456,0,0,0-1.34.762V0h-2.117V-7.925ZM408.2-9.873v1.948h1.355v1.553H408.2v3.955a.944.944,0,0,0,.168.63.846.846,0,0,0,.645.19,3.376,3.376,0,0,0,.623-.051v1.6a4.358,4.358,0,0,1-1.282.19A2.021,2.021,0,0,1,406.084-2.1v-4.27h-1.157V-7.925h1.157V-9.873Zm1.985,5.837a4.7,4.7,0,0,1,.454-2.1,3.324,3.324,0,0,1,1.307-1.428,3.814,3.814,0,0,1,1.981-.505,3.609,3.609,0,0,1,2.618.981,3.939,3.939,0,0,1,1.132,2.666l.015.542a4.142,4.142,0,0,1-1.018,2.926,3.539,3.539,0,0,1-2.732,1.1,3.556,3.556,0,0,1-2.736-1.1,4.215,4.215,0,0,1-1.022-2.988Zm2.117.15a2.962,2.962,0,0,0,.425,1.727,1.4,1.4,0,0,0,1.216.6,1.4,1.4,0,0,0,1.2-.591,3.241,3.241,0,0,0,.432-1.889,2.933,2.933,0,0,0-.432-1.716,1.4,1.4,0,0,0-1.216-.609,1.382,1.382,0,0,0-1.2.605A3.3,3.3,0,0,0,412.3-3.885Zm14.722,1.7a.682.682,0,0,0-.385-.612,4.368,4.368,0,0,0-1.234-.4q-2.827-.593-2.827-2.4a2.178,2.178,0,0,1,.875-1.761,3.531,3.531,0,0,1,2.289-.707,3.8,3.8,0,0,1,2.413.71,2.239,2.239,0,0,1,.9,1.846h-2.117a1.024,1.024,0,0,0-.293-.751,1.24,1.24,0,0,0-.916-.3,1.267,1.267,0,0,0-.828.242.763.763,0,0,0-.293.615.652.652,0,0,0,.333.568,3.428,3.428,0,0,0,1.124.374,9.183,9.183,0,0,1,1.333.355,2.19,2.19,0,0,1,1.677,2.131,2.067,2.067,0,0,1-.93,1.754,4.013,4.013,0,0,1-2.4.67,4.191,4.191,0,0,1-1.769-.355,2.968,2.968,0,0,1-1.212-.974,2.263,2.263,0,0,1-.439-1.337h2.007a1.105,1.105,0,0,0,.417.864,1.656,1.656,0,0,0,1.04.3,1.533,1.533,0,0,0,.919-.231A.718.718,0,0,0,427.024-2.19ZM432.678,0h-2.124V-7.925h2.124ZM430.43-9.976a1.042,1.042,0,0,1,.319-.784,1.2,1.2,0,0,1,.868-.308,1.2,1.2,0,0,1,.864.308,1.036,1.036,0,0,1,.322.784,1.039,1.039,0,0,1-.326.791,1.2,1.2,0,0,1-.861.308,1.2,1.2,0,0,1-.861-.308A1.039,1.039,0,0,1,430.43-9.976Zm5.94,2.051.066.916a2.767,2.767,0,0,1,2.278-1.062,2.3,2.3,0,0,1,1.875.74,3.451,3.451,0,0,1,.63,2.212V0H439.1V-5.068a1.373,1.373,0,0,0-.293-.978,1.312,1.312,0,0,0-.974-.3,1.456,1.456,0,0,0-1.34.762V0h-2.117V-7.925ZM449.854-1.56a1.388,1.388,0,0,0,.952-.322,1.129,1.129,0,0,0,.381-.857h1.985a2.715,2.715,0,0,1-.439,1.476,2.9,2.9,0,0,1-1.183,1.04,3.7,3.7,0,0,1-1.659.37,3.44,3.44,0,0,1-2.681-1.08,4.275,4.275,0,0,1-.981-2.985v-.139A4.226,4.226,0,0,1,447.2-6.98a3.4,3.4,0,0,1,2.673-1.091,3.333,3.333,0,0,1,2.384.846,3,3,0,0,1,.912,2.252h-1.985a1.455,1.455,0,0,0-.381-1.005,1.27,1.27,0,0,0-.967-.387,1.275,1.275,0,0,0-1.117.539,3.125,3.125,0,0,0-.377,1.749v.22a3.164,3.164,0,0,0,.374,1.761A1.291,1.291,0,0,0,449.854-1.56Zm4.2-2.476a4.7,4.7,0,0,1,.454-2.1,3.324,3.324,0,0,1,1.307-1.428,3.814,3.814,0,0,1,1.981-.505,3.609,3.609,0,0,1,2.618.981,3.939,3.939,0,0,1,1.132,2.666l.015.542A4.142,4.142,0,0,1,460.54-.956a3.539,3.539,0,0,1-2.732,1.1,3.556,3.556,0,0,1-2.736-1.1A4.215,4.215,0,0,1,454.05-3.94Zm2.117.15a2.962,2.962,0,0,0,.425,1.727,1.4,1.4,0,0,0,1.216.6,1.4,1.4,0,0,0,1.2-.591,3.241,3.241,0,0,0,.432-1.889,2.933,2.933,0,0,0-.432-1.716,1.4,1.4,0,0,0-1.216-.609,1.382,1.382,0,0,0-1.2.605A3.3,3.3,0,0,0,456.167-3.885Zm8.643-4.039.066.916a2.767,2.767,0,0,1,2.278-1.062,2.3,2.3,0,0,1,1.875.74,3.451,3.451,0,0,1,.63,2.212V0h-2.117V-5.068a1.373,1.373,0,0,0-.293-.978,1.312,1.312,0,0,0-.974-.3,1.456,1.456,0,0,0-1.34.762V0h-2.117V-7.925ZM474.91.146a3.89,3.89,0,0,1-2.838-1.069,3.8,3.8,0,0,1-1.095-2.849v-.205a4.787,4.787,0,0,1,.461-2.135,3.386,3.386,0,0,1,1.307-1.45,3.669,3.669,0,0,1,1.93-.509,3.289,3.289,0,0,1,2.56,1.025,4.167,4.167,0,0,1,.934,2.908v.864h-5.046a1.966,1.966,0,0,0,.619,1.245,1.871,1.871,0,0,0,1.307.469,2.285,2.285,0,0,0,1.912-.886L478-1.282a3.178,3.178,0,0,1-1.289,1.051A4.229,4.229,0,0,1,474.91.146Zm-.242-6.511a1.323,1.323,0,0,0-1.022.427,2.209,2.209,0,0,0-.5,1.221h2.944v-.169a1.576,1.576,0,0,0-.381-1.092A1.365,1.365,0,0,0,474.668-6.365Zm7.72.806,1.333-2.366h2.263l-2.256,3.882L486.079,0h-2.271L482.4-2.49,480.989,0h-2.278l2.351-4.043-2.249-3.882h2.271ZM489.236,0h-2.124V-7.925h2.124Zm-2.249-9.976a1.042,1.042,0,0,1,.319-.784,1.2,1.2,0,0,1,.868-.308,1.2,1.2,0,0,1,.864.308,1.036,1.036,0,0,1,.322.784,1.039,1.039,0,0,1-.326.791,1.2,1.2,0,0,1-.861.308,1.2,1.2,0,0,1-.861-.308A1.039,1.039,0,0,1,486.987-9.976Zm3.662,5.94a4.7,4.7,0,0,1,.454-2.1,3.324,3.324,0,0,1,1.307-1.428,3.814,3.814,0,0,1,1.981-.505,3.609,3.609,0,0,1,2.618.981,3.939,3.939,0,0,1,1.132,2.666l.015.542a4.142,4.142,0,0,1-1.018,2.926,3.539,3.539,0,0,1-2.732,1.1,3.556,3.556,0,0,1-2.736-1.1,4.215,4.215,0,0,1-1.022-2.988Zm2.117.15a2.962,2.962,0,0,0,.425,1.727,1.4,1.4,0,0,0,1.216.6,1.4,1.4,0,0,0,1.2-.591,3.241,3.241,0,0,0,.432-1.889,2.933,2.933,0,0,0-.432-1.716,1.4,1.4,0,0,0-1.216-.609,1.382,1.382,0,0,0-1.2.605A3.3,3.3,0,0,0,492.766-3.885Zm2.043-7.365h2.307l-2.029,2.271h-1.721Zm6.6,3.325.066.916a2.767,2.767,0,0,1,2.278-1.062,2.3,2.3,0,0,1,1.875.74,3.451,3.451,0,0,1,.63,2.212V0h-2.117V-5.068a1.373,1.373,0,0,0-.293-.978,1.312,1.312,0,0,0-.974-.3,1.456,1.456,0,0,0-1.34.762V0h-2.117V-7.925Zm6.563,6.885a1.066,1.066,0,0,1,.341-.82,1.208,1.208,0,0,1,.853-.315,1.218,1.218,0,0,1,.861.315,1.066,1.066,0,0,1,.341.82,1.051,1.051,0,0,1-.337.809,1.223,1.223,0,0,1-.864.311,1.213,1.213,0,0,1-.857-.311A1.051,1.051,0,0,1,507.971-1.04Z" transform="translate(542.051 8187)" fill="#12263f"/>
    <path id="Trazado_881205" data-name="Trazado 881205" d="M7.368-4.358H3.149V0H.952V-10.664H7.9v1.78H3.149V-6.13H7.368ZM11.265,0H9.141V-7.925h2.124ZM9.016-9.976a1.042,1.042,0,0,1,.319-.784,1.2,1.2,0,0,1,.868-.308,1.2,1.2,0,0,1,.864.308,1.036,1.036,0,0,1,.322.784,1.039,1.039,0,0,1-.326.791,1.2,1.2,0,0,1-.861.308,1.2,1.2,0,0,1-.861-.308A1.039,1.039,0,0,1,9.016-9.976ZM17.461-5.94A5.751,5.751,0,0,0,16.7-6a1.55,1.55,0,0,0-1.575.813V0H13.008V-7.925h2l.059.945a1.961,1.961,0,0,1,1.765-1.091,2.218,2.218,0,0,1,.659.1ZM21.987.146A3.89,3.89,0,0,1,19.149-.923a3.8,3.8,0,0,1-1.095-2.849v-.205a4.787,4.787,0,0,1,.461-2.135,3.386,3.386,0,0,1,1.307-1.45,3.669,3.669,0,0,1,1.93-.509,3.289,3.289,0,0,1,2.56,1.025,4.167,4.167,0,0,1,.934,2.908v.864H20.2a1.966,1.966,0,0,0,.619,1.245,1.871,1.871,0,0,0,1.307.469,2.285,2.285,0,0,0,1.912-.886l1.04,1.165A3.178,3.178,0,0,1,23.789-.231,4.229,4.229,0,0,1,21.987.146Zm-.242-6.511a1.323,1.323,0,0,0-1.022.427,2.209,2.209,0,0,0-.5,1.221h2.944v-.169a1.576,1.576,0,0,0-.381-1.092A1.365,1.365,0,0,0,21.746-6.365ZM33.589-3.889a4.8,4.8,0,0,1-.813,2.97A2.693,2.693,0,0,1,30.505.146a2.474,2.474,0,0,1-2.058-.989l-.1.842h-1.9V-11.25h2.117v4.036a2.411,2.411,0,0,1,1.926-.857,2.715,2.715,0,0,1,2.274,1.066,4.806,4.806,0,0,1,.824,3Zm-2.117-.154A3.153,3.153,0,0,0,31.091-5.8a1.288,1.288,0,0,0-1.135-.553,1.4,1.4,0,0,0-1.392.828V-2.4a1.415,1.415,0,0,0,1.406.835,1.307,1.307,0,0,0,1.348-1.011A5.214,5.214,0,0,0,31.472-4.043ZM39.485,0a2.351,2.351,0,0,1-.212-.71,2.561,2.561,0,0,1-2,.857,2.814,2.814,0,0,1-1.93-.674,2.167,2.167,0,0,1-.765-1.7,2.24,2.24,0,0,1,.934-1.934,4.608,4.608,0,0,1,2.7-.681h.974V-5.3a1.306,1.306,0,0,0-.282-.879,1.109,1.109,0,0,0-.89-.33,1.261,1.261,0,0,0-.839.256.871.871,0,0,0-.3.7H34.753a2.126,2.126,0,0,1,.425-1.274,2.808,2.808,0,0,1,1.2-.919,4.378,4.378,0,0,1,1.743-.333,3.459,3.459,0,0,1,2.325.736,2.575,2.575,0,0,1,.861,2.069v3.435a3.789,3.789,0,0,0,.315,1.707V0Zm-1.75-1.472a1.823,1.823,0,0,0,.864-.209,1.371,1.371,0,0,0,.586-.56V-3.6h-.791Q36.8-3.6,36.7-2.5l-.007.125a.847.847,0,0,0,.278.652A1.081,1.081,0,0,0,37.734-1.472Zm9.492-.718a.682.682,0,0,0-.385-.612,4.368,4.368,0,0,0-1.234-.4q-2.827-.593-2.827-2.4a2.178,2.178,0,0,1,.875-1.761,3.531,3.531,0,0,1,2.289-.707,3.8,3.8,0,0,1,2.413.71,2.239,2.239,0,0,1,.9,1.846H47.146a1.024,1.024,0,0,0-.293-.751,1.24,1.24,0,0,0-.916-.3,1.267,1.267,0,0,0-.828.242.763.763,0,0,0-.293.615.652.652,0,0,0,.333.568,3.428,3.428,0,0,0,1.124.374,9.183,9.183,0,0,1,1.333.355,2.19,2.19,0,0,1,1.677,2.131,2.067,2.067,0,0,1-.93,1.754,4.013,4.013,0,0,1-2.4.67,4.191,4.191,0,0,1-1.769-.355,2.968,2.968,0,0,1-1.212-.974,2.263,2.263,0,0,1-.439-1.337h2.007a1.105,1.105,0,0,0,.417.864,1.656,1.656,0,0,0,1.04.3,1.533,1.533,0,0,0,.919-.231A.718.718,0,0,0,47.227-2.19ZM54.294.146A3.89,3.89,0,0,1,51.456-.923a3.8,3.8,0,0,1-1.095-2.849v-.205a4.787,4.787,0,0,1,.461-2.135,3.386,3.386,0,0,1,1.307-1.45,3.669,3.669,0,0,1,1.93-.509,3.289,3.289,0,0,1,2.56,1.025,4.167,4.167,0,0,1,.934,2.908v.864H52.507a1.966,1.966,0,0,0,.619,1.245,1.871,1.871,0,0,0,1.307.469,2.285,2.285,0,0,0,1.912-.886l1.04,1.165A3.178,3.178,0,0,1,56.1-.231,4.229,4.229,0,0,1,54.294.146Zm-.242-6.511a1.323,1.323,0,0,0-1.022.427,2.209,2.209,0,0,0-.5,1.221h2.944v-.169a1.576,1.576,0,0,0-.381-1.092A1.365,1.365,0,0,0,54.053-6.365ZM66.577-3.9h-1.75V0h-2.2V-10.664h3.962a4.479,4.479,0,0,1,2.915.842,2.907,2.907,0,0,1,1.025,2.38,3.281,3.281,0,0,1-.472,1.82A3.222,3.222,0,0,1,68.628-4.46L70.935-.1V0H68.577Zm-1.75-1.78H66.6A1.815,1.815,0,0,0,67.881-6.1a1.505,1.505,0,0,0,.454-1.161,1.611,1.611,0,0,0-.428-1.187,1.781,1.781,0,0,0-1.315-.432H64.827ZM75.71.146A3.89,3.89,0,0,1,72.872-.923a3.8,3.8,0,0,1-1.095-2.849v-.205a4.787,4.787,0,0,1,.461-2.135,3.386,3.386,0,0,1,1.307-1.45,3.669,3.669,0,0,1,1.93-.509,3.289,3.289,0,0,1,2.56,1.025,4.167,4.167,0,0,1,.934,2.908v.864H73.923a1.966,1.966,0,0,0,.619,1.245,1.871,1.871,0,0,0,1.307.469,2.285,2.285,0,0,0,1.912-.886L78.8-1.282A3.178,3.178,0,0,1,77.512-.231,4.229,4.229,0,0,1,75.71.146Zm-.242-6.511a1.323,1.323,0,0,0-1.022.427,2.209,2.209,0,0,0-.5,1.221H76.89v-.169a1.576,1.576,0,0,0-.381-1.092A1.365,1.365,0,0,0,75.469-6.365ZM84.763,0a2.351,2.351,0,0,1-.212-.71,2.561,2.561,0,0,1-2,.857,2.814,2.814,0,0,1-1.93-.674,2.167,2.167,0,0,1-.765-1.7A2.24,2.24,0,0,1,80.79-4.16a4.608,4.608,0,0,1,2.7-.681h.974V-5.3a1.306,1.306,0,0,0-.282-.879,1.109,1.109,0,0,0-.89-.33,1.261,1.261,0,0,0-.839.256.871.871,0,0,0-.3.7H80.032a2.126,2.126,0,0,1,.425-1.274,2.808,2.808,0,0,1,1.2-.919A4.378,4.378,0,0,1,83.4-8.071a3.459,3.459,0,0,1,2.325.736,2.575,2.575,0,0,1,.861,2.069v3.435A3.789,3.789,0,0,0,86.9-.125V0Zm-1.75-1.472a1.823,1.823,0,0,0,.864-.209,1.371,1.371,0,0,0,.586-.56V-3.6h-.791q-1.589,0-1.692,1.1l-.007.125a.847.847,0,0,0,.278.652A1.081,1.081,0,0,0,83.013-1.472ZM90.447,0H88.323V-11.25h2.124Zm4.277-9.873v1.948h1.355v1.553H94.724v3.955a.944.944,0,0,0,.168.63.846.846,0,0,0,.645.19,3.376,3.376,0,0,0,.623-.051v1.6a4.358,4.358,0,0,1-1.282.19A2.021,2.021,0,0,1,92.607-2.1v-4.27H91.45V-7.925h1.157V-9.873ZM99.492,0H97.368V-7.925h2.124ZM97.244-9.976a1.042,1.042,0,0,1,.319-.784,1.2,1.2,0,0,1,.868-.308,1.2,1.2,0,0,1,.864.308,1.036,1.036,0,0,1,.322.784,1.039,1.039,0,0,1-.326.791,1.2,1.2,0,0,1-.861.308,1.2,1.2,0,0,1-.861-.308A1.039,1.039,0,0,1,97.244-9.976Zm5.977,2.051.066.886a2.785,2.785,0,0,1,2.278-1.033,2.114,2.114,0,0,1,2.1,1.208,2.721,2.721,0,0,1,2.38-1.208,2.364,2.364,0,0,1,1.919.751,3.451,3.451,0,0,1,.63,2.26V0h-2.124V-5.054a1.509,1.509,0,0,0-.264-.985,1.169,1.169,0,0,0-.93-.311,1.321,1.321,0,0,0-1.318.908L107.966,0H105.85V-5.046a1.491,1.491,0,0,0-.271-1,1.18,1.18,0,0,0-.923-.308,1.372,1.372,0,0,0-1.3.747V0h-2.117V-7.925ZM117.869.146a3.89,3.89,0,0,1-2.838-1.069,3.8,3.8,0,0,1-1.095-2.849v-.205a4.787,4.787,0,0,1,.461-2.135,3.386,3.386,0,0,1,1.307-1.45,3.669,3.669,0,0,1,1.93-.509,3.289,3.289,0,0,1,2.56,1.025,4.167,4.167,0,0,1,.934,2.908v.864h-5.046a1.966,1.966,0,0,0,.619,1.245,1.871,1.871,0,0,0,1.307.469,2.285,2.285,0,0,0,1.912-.886l1.04,1.165A3.178,3.178,0,0,1,119.67-.231,4.229,4.229,0,0,1,117.869.146Zm-.242-6.511a1.323,1.323,0,0,0-1.022.427,2.209,2.209,0,0,0-.5,1.221h2.944v-.169a1.576,1.576,0,0,0-.381-1.092A1.365,1.365,0,0,0,117.627-6.365ZM126.2,0V-10.664h3.281a4.983,4.983,0,0,1,2.516.634,4.418,4.418,0,0,1,1.732,1.8,5.557,5.557,0,0,1,.623,2.655v.491a5.573,5.573,0,0,1-.612,2.644,4.38,4.38,0,0,1-1.725,1.794A5.021,5.021,0,0,1,129.507,0Zm2.2-8.884v7.119h1.062a2.386,2.386,0,0,0,1.97-.842,3.806,3.806,0,0,0,.7-2.41v-.564a3.867,3.867,0,0,0-.674-2.465,2.378,2.378,0,0,0-1.97-.839Zm12,8.884a2.351,2.351,0,0,1-.212-.71,2.561,2.561,0,0,1-2,.857,2.814,2.814,0,0,1-1.93-.674,2.167,2.167,0,0,1-.765-1.7,2.24,2.24,0,0,1,.934-1.934,4.608,4.608,0,0,1,2.7-.681h.974V-5.3a1.306,1.306,0,0,0-.282-.879,1.109,1.109,0,0,0-.89-.33,1.261,1.261,0,0,0-.839.256.871.871,0,0,0-.3.7h-2.117a2.126,2.126,0,0,1,.425-1.274,2.808,2.808,0,0,1,1.2-.919,4.378,4.378,0,0,1,1.743-.333,3.459,3.459,0,0,1,2.325.736,2.575,2.575,0,0,1,.861,2.069v3.435a3.789,3.789,0,0,0,.315,1.707V0Zm-1.75-1.472a1.823,1.823,0,0,0,.864-.209,1.371,1.371,0,0,0,.586-.56V-3.6h-.791q-1.589,0-1.692,1.1l-.007.125a.847.847,0,0,0,.278.652A1.081,1.081,0,0,0,138.655-1.472Zm7.734-8.4v1.948h1.355v1.553h-1.355v3.955a.944.944,0,0,0,.168.63.846.846,0,0,0,.645.19,3.376,3.376,0,0,0,.623-.051v1.6a4.358,4.358,0,0,1-1.282.19A2.021,2.021,0,0,1,144.272-2.1v-4.27h-1.157V-7.925h1.157V-9.873ZM153.516,0a2.351,2.351,0,0,1-.212-.71,2.561,2.561,0,0,1-2,.857,2.814,2.814,0,0,1-1.93-.674,2.167,2.167,0,0,1-.765-1.7,2.24,2.24,0,0,1,.934-1.934,4.608,4.608,0,0,1,2.7-.681h.974V-5.3a1.306,1.306,0,0,0-.282-.879,1.109,1.109,0,0,0-.89-.33,1.261,1.261,0,0,0-.839.256.871.871,0,0,0-.3.7h-2.117a2.126,2.126,0,0,1,.425-1.274,2.808,2.808,0,0,1,1.2-.919,4.378,4.378,0,0,1,1.743-.333,3.459,3.459,0,0,1,2.325.736,2.575,2.575,0,0,1,.861,2.069v3.435a3.789,3.789,0,0,0,.315,1.707V0Zm-1.75-1.472a1.823,1.823,0,0,0,.864-.209,1.371,1.371,0,0,0,.586-.56V-3.6h-.791q-1.589,0-1.692,1.1l-.007.125a.847.847,0,0,0,.278.652A1.081,1.081,0,0,0,151.765-1.472Zm12.341-2.417a4.8,4.8,0,0,1-.813,2.97A2.693,2.693,0,0,1,161.023.146a2.474,2.474,0,0,1-2.058-.989l-.1.842h-1.9V-11.25h2.117v4.036a2.411,2.411,0,0,1,1.926-.857,2.715,2.715,0,0,1,2.274,1.066,4.806,4.806,0,0,1,.824,3Zm-2.117-.154a3.153,3.153,0,0,0-.381-1.754,1.288,1.288,0,0,0-1.135-.553,1.4,1.4,0,0,0-1.392.828V-2.4a1.415,1.415,0,0,0,1.406.835,1.307,1.307,0,0,0,1.348-1.011A5.214,5.214,0,0,0,161.99-4.043ZM170,0a2.351,2.351,0,0,1-.212-.71,2.561,2.561,0,0,1-2,.857,2.814,2.814,0,0,1-1.93-.674,2.167,2.167,0,0,1-.765-1.7,2.24,2.24,0,0,1,.934-1.934,4.608,4.608,0,0,1,2.7-.681h.974V-5.3a1.306,1.306,0,0,0-.282-.879,1.109,1.109,0,0,0-.89-.33,1.261,1.261,0,0,0-.839.256.871.871,0,0,0-.3.7h-2.117a2.126,2.126,0,0,1,.425-1.274,2.808,2.808,0,0,1,1.2-.919,4.378,4.378,0,0,1,1.743-.333,3.459,3.459,0,0,1,2.325.736,2.575,2.575,0,0,1,.861,2.069v3.435a3.789,3.789,0,0,0,.315,1.707V0Zm-1.75-1.472a1.823,1.823,0,0,0,.864-.209,1.371,1.371,0,0,0,.586-.56V-3.6h-.791q-1.589,0-1.692,1.1l-.007.125a.847.847,0,0,0,.278.652A1.081,1.081,0,0,0,168.252-1.472Zm9.492-.718a.682.682,0,0,0-.385-.612,4.368,4.368,0,0,0-1.234-.4Q173.3-3.794,173.3-5.6a2.178,2.178,0,0,1,.875-1.761,3.531,3.531,0,0,1,2.289-.707,3.8,3.8,0,0,1,2.413.71,2.239,2.239,0,0,1,.9,1.846h-2.117a1.024,1.024,0,0,0-.293-.751,1.24,1.24,0,0,0-.916-.3,1.267,1.267,0,0,0-.828.242.763.763,0,0,0-.293.615.652.652,0,0,0,.333.568,3.428,3.428,0,0,0,1.124.374,9.183,9.183,0,0,1,1.333.355A2.19,2.19,0,0,1,179.8-2.278a2.067,2.067,0,0,1-.93,1.754,4.013,4.013,0,0,1-2.4.67A4.191,4.191,0,0,1,174.7-.209a2.968,2.968,0,0,1-1.212-.974,2.263,2.263,0,0,1-.439-1.337h2.007a1.105,1.105,0,0,0,.417.864,1.656,1.656,0,0,0,1.04.3,1.533,1.533,0,0,0,.919-.231A.718.718,0,0,0,177.744-2.19ZM184.812.146a3.89,3.89,0,0,1-2.838-1.069,3.8,3.8,0,0,1-1.095-2.849v-.205a4.787,4.787,0,0,1,.461-2.135,3.386,3.386,0,0,1,1.307-1.45,3.669,3.669,0,0,1,1.93-.509,3.289,3.289,0,0,1,2.56,1.025,4.167,4.167,0,0,1,.934,2.908v.864h-5.046a1.966,1.966,0,0,0,.619,1.245,1.871,1.871,0,0,0,1.307.469,2.285,2.285,0,0,0,1.912-.886l1.04,1.165a3.178,3.178,0,0,1-1.289,1.051A4.229,4.229,0,0,1,184.812.146Zm-.242-6.511a1.323,1.323,0,0,0-1.022.427,2.209,2.209,0,0,0-.5,1.221h2.944v-.169a1.576,1.576,0,0,0-.381-1.092A1.365,1.365,0,0,0,184.57-6.365ZM198.677-2.8a1.128,1.128,0,0,0-.439-.956,5.764,5.764,0,0,0-1.582-.7,11.215,11.215,0,0,1-1.809-.729A2.956,2.956,0,0,1,193.03-7.83a2.575,2.575,0,0,1,.487-1.542,3.177,3.177,0,0,1,1.4-1.058,5.265,5.265,0,0,1,2.047-.381A4.793,4.793,0,0,1,199-10.4a3.242,3.242,0,0,1,1.388,1.168,3.057,3.057,0,0,1,.494,1.714h-2.2a1.438,1.438,0,0,0-.461-1.139,1.9,1.9,0,0,0-1.3-.406,2.026,2.026,0,0,0-1.252.341,1.074,1.074,0,0,0-.447.9,1.029,1.029,0,0,0,.524.872,5.916,5.916,0,0,0,1.542.659,6.661,6.661,0,0,1,2.732,1.4,2.786,2.786,0,0,1,.857,2.08,2.566,2.566,0,0,1-1.047,2.172,4.585,4.585,0,0,1-2.82.787,5.445,5.445,0,0,1-2.241-.45,3.546,3.546,0,0,1-1.542-1.234,3.161,3.161,0,0,1-.531-1.816h2.2q0,1.765,2.109,1.765a2.052,2.052,0,0,0,1.223-.319A1.037,1.037,0,0,0,198.677-2.8Zm6.511-.2,1.465-4.929h2.271L205.737,1.23l-.176.417A2.416,2.416,0,0,1,203.218,3.2a3.33,3.33,0,0,1-.937-.139v-1.6l.322.007a1.741,1.741,0,0,0,.9-.183,1.2,1.2,0,0,0,.465-.608l.249-.652-2.776-7.947h2.278Zm6.519-4.929.066.916a2.767,2.767,0,0,1,2.278-1.062,2.3,2.3,0,0,1,1.875.74,3.451,3.451,0,0,1,.63,2.212V0h-2.117V-5.068a1.373,1.373,0,0,0-.293-.978,1.312,1.312,0,0,0-.974-.3,1.456,1.456,0,0,0-1.34.762V0h-2.117V-7.925Zm9.749,6.365a1.388,1.388,0,0,0,.952-.322,1.129,1.129,0,0,0,.381-.857h1.985a2.715,2.715,0,0,1-.439,1.476,2.9,2.9,0,0,1-1.183,1.04,3.7,3.7,0,0,1-1.659.37,3.44,3.44,0,0,1-2.681-1.08,4.275,4.275,0,0,1-.981-2.985v-.139A4.226,4.226,0,0,1,218.8-6.98a3.4,3.4,0,0,1,2.673-1.091,3.333,3.333,0,0,1,2.384.846,3,3,0,0,1,.912,2.252h-1.985a1.455,1.455,0,0,0-.381-1.005,1.27,1.27,0,0,0-.967-.387,1.275,1.275,0,0,0-1.117.539,3.125,3.125,0,0,0-.377,1.749v.22A3.164,3.164,0,0,0,220.32-2.1,1.291,1.291,0,0,0,221.455-1.56Z" transform="translate(678.252 7926)" fill="#12263f"/>
    <path id="Trazado_881050" data-name="Trazado 881050" d="M141.974,56.625,130.511,68.088l-7.854,7.856-4.983,4.983a2.5,2.5,0,0,1-.872.567l-4.294,1.656-2.019.781a.754.754,0,0,1-.977-.974l.781-2.021,1.658-4.291a2.5,2.5,0,0,1,.567-.872l5.748-5.749,12.244-12.244,3.748-3.748,2.562-2.562a.757.757,0,0,1,1.066,0l4.087,4.09a.752.752,0,0,1,0,1.066Z" transform="translate(679.555 8013.224)" fill="#aeaeae"/>
    <path id="Trazado_881051" data-name="Trazado 881051" d="M64.107,7.362V19.676l-3.748,3.748L48.116,35.668l-5.748,5.748a2.5,2.5,0,0,0-.567.872L40.142,46.58,39.361,48.6a.754.754,0,0,0,.977.974l2.019-.781,4.294-1.656a2.5,2.5,0,0,0,.872-.567l4.983-4.983,7.854-7.856,3.748-3.748V66.518A2.611,2.611,0,0,1,61.5,69.13H17.122a2.613,2.613,0,0,1-2.612-2.612V7.362A2.613,2.613,0,0,1,17.122,4.75H61.5A2.611,2.611,0,0,1,64.107,7.362Z" transform="translate(749.707 8047.579)" fill="#1d546f"/>
    <path id="Trazado_881052" data-name="Trazado 881052" d="M70.962,29.306V40.6L58.718,52.846l-5.748,5.748a2.5,2.5,0,0,0-.567.872l-1.658,4.291-.781,2.022a.754.754,0,0,0,.977.974l2.019-.781,4.294-1.656a2.5,2.5,0,0,0,.872-.567l4.983-4.983,7.854-7.856v28.6a1.306,1.306,0,0,1-1.306,1.306H30.166a1.306,1.306,0,0,1-1.306-1.306V29.306A1.306,1.306,0,0,1,30.166,28h39.49a1.306,1.306,0,0,1,1.306,1.306Z" transform="translate(739.105 8030.401)" fill="#77aafc"/>
    <path id="Trazado_881057" data-name="Trazado 881057" d="M193.808,52v2.586l-3.748,3.748V55.748Z" transform="translate(620.006 8012.67)" fill="#4ba5c8"/>
    <path id="Trazado_881058" data-name="Trazado 881058" d="M190.06,105.118l3.748-3.748v2.586L190.06,107.7Z" transform="translate(620.006 7976.194)" fill="#4ba5c8"/>
    <path id="Trazado_881059" data-name="Trazado 881059" d="M112.512,167.132l-2.02.781a.754.754,0,0,1-.975-.975l.781-2.02Z" transform="translate(679.553 7929.244)" fill="#efefef"/>
    <path id="Trazado_881060" data-name="Trazado 881060" d="M222.472,50.572l-4-4,1.184-1.184a2.828,2.828,0,1,1,4,4Z" transform="translate(599.014 8018.166)" fill="#72c2e9"/>
    <path id="Trazado_881063" data-name="Trazado 881063" d="M134.824,72.77c-.974-.321-1.734-.528-2.244-2.722a.7.7,0,0,0-1.353,0c-.5,2.145-1.193,2.375-2.244,2.722a.7.7,0,0,0,0,1.319c1.746.577,1.944,1.43,2.244,2.722a.7.7,0,0,0,1.353,0c.5-2.145,1.23-2.387,2.244-2.722A.7.7,0,0,0,134.824,72.77Z" transform="translate(665.482 7999.731)"/>
    <path id="Trazado_881066" data-name="Trazado 881066" d="M103.388,238.244a.653.653,0,1,0,0,1.306H105.6a.653.653,0,1,0,0-1.306Z" transform="translate(684.524 7875.068)"/>
    <path id="Trazado_881067" data-name="Trazado 881067" d="M116.282,15.181a.653.653,0,0,0,0-1.306h-.522a.653.653,0,0,0,0,1.306Z" transform="translate(675.383 8040.837)"/>
    <path id="Trazado_881068" data-name="Trazado 881068" d="M143.022,127.6l-3.822,3.822a.653.653,0,1,0,.923.923l3.822-3.822a.653.653,0,0,0-.923-.923Z" transform="translate(657.724 7956.956)"/>
    <path id="Trazado_881069" data-name="Trazado 881069" d="M59.649,2.25H15.275A3.269,3.269,0,0,0,12.01,5.515V64.671a3.269,3.269,0,0,0,3.265,3.265H45.438a.653.653,0,0,0,.005-1.306H15.275a1.966,1.966,0,0,1-1.959-1.959V5.515a1.966,1.966,0,0,1,1.959-1.959H59.649a1.966,1.966,0,0,1,1.959,1.959V17.558L59.165,20V10.281a1.963,1.963,0,0,0-1.959-1.959H17.717a1.963,1.963,0,0,0-1.959,1.959V49.11a.653.653,0,0,0,1.306,0V10.281a.653.653,0,0,1,.653-.653h39.49a.653.653,0,0,1,.653.653V21.305L46.185,32.98a11.654,11.654,0,0,0-1.264-.7,12.089,12.089,0,0,0-4.678-1.2V23.337a3.269,3.269,0,0,0-3.265-3.265h-.844a.653.653,0,1,0,0,1.306h.844a1.966,1.966,0,0,1,1.959,1.959v7.744a12.324,12.324,0,0,0-9.734,5.7H25.5a1.966,1.966,0,0,1-1.959-1.959V23.337A1.966,1.966,0,0,1,25.5,21.379h5.414a.653.653,0,0,0,0-1.306H25.5a3.269,3.269,0,0,0-3.265,3.265V34.819A3.269,3.269,0,0,0,25.5,38.083H28.49A12.292,12.292,0,1,0,51.4,39.928l6.462-6.463V60.49a.653.653,0,0,1-.653.653H17.717a.653.653,0,0,1-.653-.653V54.336a.653.653,0,1,0-1.306,0V60.49a1.963,1.963,0,0,0,1.959,1.959h39.49a1.963,1.963,0,0,0,1.959-1.959V32.159l2.442-2.443V64.671a1.966,1.966,0,0,1-1.959,1.959H50.664a.653.653,0,1,0,0,1.306h8.984a3.269,3.269,0,0,0,3.265-3.265V28.41l7.524-7.525a1.392,1.392,0,0,0,.322-1.476l.819-.819a3.481,3.481,0,0,0-4.923-4.923l-.818.818a1.4,1.4,0,0,0-1.475.317l-1.45,1.45V5.515A3.269,3.269,0,0,0,59.649,2.25ZM36.978,36.777H30.8a11.021,11.021,0,0,1,8.14-4.387v2.428A1.966,1.966,0,0,1,36.978,36.777ZM50.325,41a10.988,10.988,0,1,1-20.377-2.917h7.031a3.272,3.272,0,0,0,3.265-3.265V32.387a10.875,10.875,0,0,1,4.111,1.066c.3.144.6.3.883.475l-5.179,5.179a3.182,3.182,0,0,0-.713,1.1c-.811,2.1.435-1.128-2.439,6.313a1.407,1.407,0,0,0,1.823,1.818l2.024-.781.007,0L45.038,45.9a3.346,3.346,0,0,0,1.1-.713ZM38.256,47.12a.1.1,0,0,1-.133-.128l.42-1.088.8.8Zm32.4-32.53a2.177,2.177,0,0,1,0,3.076l-.723.722c-2.269-2.269-1.6-1.6-3.075-3.077l.722-.722A2.178,2.178,0,0,1,70.655,14.59Zm-5.373,1.139a.1.1,0,0,1,.147,0l4.085,4.087a.1.1,0,0,1,0,.144L50.2,39.28l-4.983,4.983a1.888,1.888,0,0,1-.645.42l-3.9,1.5-1.615-1.615.1-.257,1.406-3.638a1.851,1.851,0,0,1,.42-.645l5.748-5.748.01-.013L65.282,15.729Z" transform="translate(751.554 8049.426)"/>
    <path id="Trazado_881070" data-name="Trazado 881070" d="M148.806,249.4a.653.653,0,1,0-.65.653A.653.653,0,0,0,148.806,249.4Z" transform="translate(651.451 7867.306)"/>
    <path id="Trazado_881206" data-name="Trazado 881206" d="M.653,0A.653.653,0,1,1,0,.653.653.653,0,0,1,.653,0Z" transform="translate(767.312 8100.495)"/>
    <path id="Trazado_881207" data-name="Trazado 881207" d="M.653,0A.653.653,0,1,1,0,.653.653.653,0,0,1,.653,0Z" transform="translate(784.421 8069.499)"/>
    <path id="Trazado_881018" data-name="Trazado 881018" d="M17,1H33.036V2.145a2.3,2.3,0,0,1-2.291,2.291H19.291A2.3,2.3,0,0,1,17,2.145Z" transform="translate(586.36 8028.316)" fill="#e9edf5"/>
    <path id="Trazado_881208" data-name="Trazado 881208" d="M4,0H21a4,4,0,0,1,4,4V20a4,4,0,0,1-4,4H4a4,4,0,0,1-4-4V4A4,4,0,0,1,4,0Z" transform="translate(599.252 8046.999)" fill="#7af"/>
    <path id="Trazado_881023" data-name="Trazado 881023" d="M42.363,47.654a3.436,3.436,0,0,1-3.436,3.436h-25.2a3.436,3.436,0,0,1-3.436-3.436V11H8V47.654a5.734,5.734,0,0,0,5.727,5.727h25.2a5.734,5.734,0,0,0,5.727-5.727V43.072H42.363Z" transform="translate(585.051 8029.771)"/>
    <path id="Trazado_881024" data-name="Trazado 881024" d="M38,35h2.291v2.291H38Z" transform="translate(589.414 8033.261)"/>
    <path id="Trazado_881025" data-name="Trazado 881025" d="M38.927,0h-25.2A5.734,5.734,0,0,0,8,5.727v4.582h2.291V5.727a3.436,3.436,0,0,1,3.436-3.436h3.436A3.436,3.436,0,0,0,20.6,5.727H32.054a3.436,3.436,0,0,0,3.436-3.436h3.436a3.436,3.436,0,0,1,3.436,3.436V37.8h2.291V5.727A5.734,5.734,0,0,0,38.927,0ZM32.054,3.436H20.6a1.145,1.145,0,0,1-1.145-1.145H33.2A1.145,1.145,0,0,1,32.054,3.436Z" transform="translate(585.051 8028.17)"/>
    <path id="Trazado_881028" data-name="Trazado 881028" d="M22.309,15H17.727A5.734,5.734,0,0,0,12,20.727V36.763a5.734,5.734,0,0,0,5.727,5.727H33.763a5.734,5.734,0,0,0,5.727-5.727V23.018H37.2V36.763A3.436,3.436,0,0,1,33.763,40.2H17.727a3.436,3.436,0,0,1-3.436-3.436V20.727a3.436,3.436,0,0,1,3.436-3.436h4.582Z" transform="translate(585.633 8030.352)"/>
    <path id="Trazado_881029" data-name="Trazado 881029" d="M97.432,61.823H27.358a4.893,4.893,0,0,1-4.888-4.888v-52A4.893,4.893,0,0,1,27.358.05H97.432a4.893,4.893,0,0,1,4.888,4.888v52A4.893,4.893,0,0,1,97.432,61.823ZM27.358,2.613a2.328,2.328,0,0,0-2.325,2.325v52a2.328,2.328,0,0,0,2.325,2.325H97.432a2.328,2.328,0,0,0,2.325-2.325v-52a2.328,2.328,0,0,0-2.325-2.325H27.358Z" transform="translate(905.362 8010.623)" fill-rule="evenodd"/>
    <path id="Trazado_881030" data-name="Trazado 881030" d="M101.36,1017.733H24.073a1.282,1.282,0,0,1,0-2.563h77.288A1.282,1.282,0,0,1,101.36,1017.733Z" transform="translate(905.041 7044.283)" fill-rule="evenodd"/>
    <path id="Trazado_881031" data-name="Trazado 881031" d="M678.148,1244.655h-17.1a1.281,1.281,0,0,1-1.282-1.282v-9.882a1.281,1.281,0,0,1,1.282-1.282h17.1a1.281,1.281,0,0,1,1.282,1.282v9.882A1.282,1.282,0,0,1,678.148,1244.655Zm-15.815-2.563h14.534v-7.319H662.333Z" transform="translate(298.687 6837.672)" fill-rule="evenodd"/>
    <path id="Trazado_881032" data-name="Trazado 881032" d="M487.842,1450.765H450.512a1.281,1.281,0,0,1-1.282-1.281V1442.9a5.052,5.052,0,0,1,5.046-5.046h29.8a5.052,5.052,0,0,1,5.046,5.046v6.588a1.282,1.282,0,0,1-1.282,1.281Zm-36.049-2.562h34.768V1442.9a2.486,2.486,0,0,0-2.483-2.483h-29.8a2.486,2.486,0,0,0-2.483,2.483v5.306Z" transform="translate(499.109 6641.914)" fill-rule="evenodd"/>
    <path id="Trazado_881033" data-name="Trazado 881033" d="M1401.267,1115.673h-4.5a1.281,1.281,0,0,1,0-2.563h4.5A1.281,1.281,0,0,1,1401.267,1115.673Z" transform="translate(-401.687 6951.049)" fill-rule="evenodd"/>
    <path id="Trazado_881034" data-name="Trazado 881034" d="M1199.887,1115.673h-4.5a1.281,1.281,0,0,1,0-2.563h4.5A1.281,1.281,0,0,1,1199.887,1115.673Z" transform="translate(-209.984 6951.049)" fill-rule="evenodd"/>
    <path id="Trazado_881035" data-name="Trazado 881035" d="M983.748,1115.673h-4.5a1.281,1.281,0,0,1,0-2.563h4.5A1.281,1.281,0,0,1,983.748,1115.673Z" transform="translate(-4.23 6951.049)" fill-rule="evenodd"/>
    <path id="Trazado_881036" data-name="Trazado 881036" d="M765.316,357.308a1.283,1.283,0,0,1-.905-2.187l7.2-7.206-7.205-7.205a1.281,1.281,0,0,1,1.812-1.812l8.11,8.11a1.281,1.281,0,0,1,0,1.812l-8.109,8.111A1.278,1.278,0,0,1,765.316,357.308Z" transform="translate(199.446 7688.428)" fill-rule="evenodd"/>
    <path id="Trazado_881037" data-name="Trazado 881037" d="M312.685,357.314a1.281,1.281,0,0,1-.906-.375l-8.111-8.111a1.282,1.282,0,0,1,0-1.813l8.111-8.11a1.282,1.282,0,0,1,1.812,1.813l-7.2,7.2,7.2,7.2a1.284,1.284,0,0,1-.906,2.188Z" transform="translate(638.034 7688.423)" fill-rule="evenodd"/>
    <path id="Trazado_881038" data-name="Trazado 881038" d="M554.54,309.96a1.285,1.285,0,0,1-1.214-1.692l6.975-20.616a1.282,1.282,0,0,1,2.428.821l-6.975,20.617a1.282,1.282,0,0,1-1.214.871Z" transform="translate(400.08 7737.664)" fill-rule="evenodd"/>
    <path id="Trazado_881039" data-name="Trazado 881039" d="M1244.879,219.863h-11.006a1.281,1.281,0,0,1,0-2.563h11.006A1.281,1.281,0,0,1,1244.879,219.863Z" transform="translate(-246.624 7803.813)" fill-rule="evenodd"/>
    <path id="Trazado_881040" data-name="Trazado 881040" d="M1244.879,365.023h-11.006a1.281,1.281,0,0,1,0-2.563h11.006A1.281,1.281,0,0,1,1244.879,365.023Z" transform="translate(-246.624 7665.628)" fill-rule="evenodd"/>
    <path id="Trazado_881041" data-name="Trazado 881041" d="M1244.879,510.183h-11.006a1.281,1.281,0,0,1,0-2.563h11.006A1.281,1.281,0,0,1,1244.879,510.183Z" transform="translate(-246.624 7527.443)" fill-rule="evenodd"/>
    <path id="Trazado_881042" data-name="Trazado 881042" d="M1244.879,655.333h-11.006a1.281,1.281,0,0,1,0-2.563h11.006A1.281,1.281,0,0,1,1244.879,655.333Z" transform="translate(-246.624 7389.269)" fill-rule="evenodd"/>
    <path id="Trazado_881043" data-name="Trazado 881043" d="M1244.879,800.493h-11.006a1.281,1.281,0,0,1,0-2.563h11.006A1.281,1.281,0,0,1,1244.879,800.493Z" transform="translate(-246.624 7251.083)" fill-rule="evenodd"/>
    <path id="Trazado_881044" data-name="Trazado 881044" d="M233.438,239.014H195.772a3.766,3.766,0,0,1-3.762-3.762V211.382a3.766,3.766,0,0,1,3.762-3.762h37.666a3.766,3.766,0,0,1,3.762,3.762v23.871A3.766,3.766,0,0,1,233.438,239.014Zm-37.666-28.831a1.2,1.2,0,0,0-1.2,1.2v23.871a1.2,1.2,0,0,0,1.2,1.2h37.666a1.2,1.2,0,0,0,1.2-1.2V211.382a1.2,1.2,0,0,0-1.2-1.2H195.772Z" transform="translate(743.969 7813.027)" fill-rule="evenodd"/>
    <path id="Trazado_881045" data-name="Trazado 881045" d="M85.146,60.782h37.666a3.766,3.766,0,0,1,3.762,3.762V88.415a3.766,3.766,0,0,1-3.762,3.761H85.146a3.766,3.766,0,0,1-3.762-3.762V64.544A3.766,3.766,0,0,1,85.146,60.782ZM75.8,99.587h74.724V55.7A2.328,2.328,0,0,0,148.2,53.37H78.125A2.328,2.328,0,0,0,75.8,55.7V99.587Zm56.853-10.439H143.66a1.281,1.281,0,0,1,0,2.563H132.654A1.281,1.281,0,0,1,132.654,89.148Zm0-6.975H143.66a1.281,1.281,0,0,1,0,2.563H132.654A1.281,1.281,0,0,1,132.654,82.173Zm0-6.975H143.66a1.281,1.281,0,0,1,0,2.563H132.654A1.281,1.281,0,0,1,132.654,75.2ZM131.372,69.5a1.281,1.281,0,0,1,1.282-1.282H143.66a1.281,1.281,0,0,1,0,2.563H132.654a1.281,1.281,0,0,1-1.282-1.282Zm1.282-5.694a1.281,1.281,0,0,1,0-2.563H143.66a1.281,1.281,0,0,1,0,2.563Z" transform="translate(854.595 7959.865)" fill="#fff" fill-rule="evenodd"/>
    <path id="Trazado_881046" data-name="Trazado 881046" d="M269.627,263.886,262.652,284.5a1.282,1.282,0,0,1-2.428-.822l6.975-20.616A1.282,1.282,0,0,1,269.627,263.886Zm14.6-2.926H246.558a1.2,1.2,0,0,0-1.2,1.2V286.03a1.2,1.2,0,0,0,1.2,1.2h37.666a1.2,1.2,0,0,0,1.2-1.2V262.159a1.2,1.2,0,0,0-1.2-1.2ZM258.443,281.3a1.282,1.282,0,0,1-1.812,1.813L248.52,275a1.282,1.282,0,0,1,0-1.813l8.111-8.11a1.282,1.282,0,0,1,1.813,1.813l-7.2,7.2Zm12.231,1.813a1.281,1.281,0,0,1,0-1.812l7.2-7.206-7.205-7.205a1.281,1.281,0,0,1,1.812-1.812l8.11,8.11a1.281,1.281,0,0,1,0,1.812l-8.109,8.111a1.282,1.282,0,0,1-1.812,0Z" transform="translate(693.183 7762.25)" fill="#eef1f2" fill-rule="evenodd"/>
    <path id="Trazado_881047" data-name="Trazado 881047" d="M150.534,1068.5H75.81v5.542a2.328,2.328,0,0,0,2.325,2.325H148.21a2.328,2.328,0,0,0,2.325-2.325V1068.5Zm-30.107,4.706a1.281,1.281,0,0,1,0-2.562h4.5a1.281,1.281,0,0,1,0,2.563Zm10.386,0a1.281,1.281,0,0,1,0-2.562h4.5a1.281,1.281,0,0,1,0,2.563Zm9.677,0a1.281,1.281,0,0,1,0-2.562h4.5a1.281,1.281,0,0,1,0,2.563Z" transform="translate(854.585 6993.516)" fill="#1d546f" fill-rule="evenodd"/>
    <path id="Trazado_881048" data-name="Trazado 881048" d="M528.493,1491.2H505.043a2.486,2.486,0,0,0-2.483,2.484v5.307h34.768v-5.307a2.486,2.486,0,0,0-2.483-2.484h-6.352Z" transform="translate(448.342 6591.128)" fill="#1d546f" fill-rule="evenodd"/>
    <path id="Trazado_881071" data-name="Trazado 881071" d="M-4234.811-3761.344-4068-3841.03l146.277,71.371" transform="translate(4861.123 11796.43)" fill="none" stroke="red" stroke-width="1"/>
    <path id="Trazado_881072" data-name="Trazado 881072" d="M-4221.1-3756.612l149.145-73.574,129,65.027" transform="translate(4864.58 11799.164)" fill="none" stroke="#0db55b" stroke-width="1"/>
    <path id="Trazado_881209" data-name="Trazado 881209" d="M0,0V60.1" transform="translate(783.214 7983.61)" fill="none" stroke="red" stroke-width="1"/>
    <path id="Trazado_881210" data-name="Trazado 881210" d="M0,0V38.815" transform="translate(796.988 8004.896)" fill="none" stroke="#0db55b" stroke-width="1"/>
    <path id="Trazado_881211" data-name="Trazado 881211" d="M53.84,0l53.84,26.265H0Z" transform="translate(740.017 7945.421)" fill="#feca2e"/>
    <path id="Trazado_881212" data-name="Trazado 881212" d="M53.84,0l53.84,25.071H0Z" transform="translate(847.696 7996.757) rotate(180)" fill="#feca2e"/>
    <path id="Trazado_881213" data-name="Trazado 881213" d="M4.421-2.615H1.89V0H.571V-6.4H4.737v1.068H1.89v1.652H4.421ZM6.759,0H5.484V-4.755H6.759ZM5.41-5.985a.625.625,0,0,1,.191-.47.718.718,0,0,1,.521-.185.72.72,0,0,1,.519.185.622.622,0,0,1,.193.47.624.624,0,0,1-.2.475.722.722,0,0,1-.516.185.722.722,0,0,1-.516-.185A.624.624,0,0,1,5.41-5.985Zm5.067,2.421A3.45,3.45,0,0,0,10.02-3.6a.93.93,0,0,0-.945.488V0H7.8V-4.755H9l.035.567A1.177,1.177,0,0,1,10.1-4.843a1.331,1.331,0,0,1,.4.057ZM13.192.088a2.334,2.334,0,0,1-1.7-.642,2.281,2.281,0,0,1-.657-1.709v-.123a2.872,2.872,0,0,1,.277-1.281,2.032,2.032,0,0,1,.784-.87,2.2,2.2,0,0,1,1.158-.305,1.973,1.973,0,0,1,1.536.615,2.5,2.5,0,0,1,.56,1.745v.519H12.12a1.18,1.18,0,0,0,.371.747,1.123,1.123,0,0,0,.784.281,1.371,1.371,0,0,0,1.147-.532l.624.7a1.907,1.907,0,0,1-.773.631A2.538,2.538,0,0,1,13.192.088Zm-.145-3.907a.794.794,0,0,0-.613.256,1.326,1.326,0,0,0-.3.733H13.9v-.1a.946.946,0,0,0-.229-.655A.819.819,0,0,0,13.047-3.819Zm7.106,1.485a2.879,2.879,0,0,1-.488,1.782A1.616,1.616,0,0,1,18.3.088a1.485,1.485,0,0,1-1.235-.593L17.011,0H15.869V-6.75h1.27v2.421a1.446,1.446,0,0,1,1.156-.514,1.629,1.629,0,0,1,1.365.639,2.883,2.883,0,0,1,.494,1.8Zm-1.27-.092a1.892,1.892,0,0,0-.229-1.052.773.773,0,0,0-.681-.332.838.838,0,0,0-.835.5v1.876a.849.849,0,0,0,.844.5.784.784,0,0,0,.809-.606A3.128,3.128,0,0,0,18.883-2.426ZM23.691,0a1.41,1.41,0,0,1-.127-.426,1.537,1.537,0,0,1-1.2.514,1.688,1.688,0,0,1-1.158-.4,1.3,1.3,0,0,1-.459-1.02,1.344,1.344,0,0,1,.56-1.16A2.765,2.765,0,0,1,22.926-2.9h.584v-.272a.784.784,0,0,0-.169-.527.666.666,0,0,0-.534-.2.757.757,0,0,0-.5.154.523.523,0,0,0-.182.422h-1.27a1.276,1.276,0,0,1,.255-.765,1.685,1.685,0,0,1,.721-.552,2.627,2.627,0,0,1,1.046-.2,2.075,2.075,0,0,1,1.4.442,1.545,1.545,0,0,1,.516,1.241V-1.1a2.273,2.273,0,0,0,.189,1.024V0Zm-1.05-.883a1.094,1.094,0,0,0,.519-.125.823.823,0,0,0,.352-.336v-.817h-.475q-.954,0-1.015.659l0,.075a.508.508,0,0,0,.167.391A.649.649,0,0,0,22.641-.883Zm5.7-.431a.409.409,0,0,0-.231-.367,2.621,2.621,0,0,0-.74-.24q-1.7-.356-1.7-1.441a1.307,1.307,0,0,1,.525-1.057,2.118,2.118,0,0,1,1.373-.424,2.28,2.28,0,0,1,1.448.426,1.343,1.343,0,0,1,.543,1.107h-1.27a.615.615,0,0,0-.176-.45.744.744,0,0,0-.549-.178.76.76,0,0,0-.5.145.458.458,0,0,0-.176.369.391.391,0,0,0,.2.341,2.057,2.057,0,0,0,.675.224,5.51,5.51,0,0,1,.8.213,1.314,1.314,0,0,1,1.006,1.279,1.24,1.24,0,0,1-.558,1.052,2.408,2.408,0,0,1-1.441.4A2.515,2.515,0,0,1,26.51-.125a1.781,1.781,0,0,1-.727-.584,1.358,1.358,0,0,1-.264-.8h1.2a.663.663,0,0,0,.25.519.994.994,0,0,0,.624.18.92.92,0,0,0,.552-.138A.431.431,0,0,0,28.336-1.314Zm4.241,1.4a2.334,2.334,0,0,1-1.7-.642,2.281,2.281,0,0,1-.657-1.709v-.123a2.872,2.872,0,0,1,.277-1.281,2.032,2.032,0,0,1,.784-.87,2.2,2.2,0,0,1,1.158-.305,1.973,1.973,0,0,1,1.536.615,2.5,2.5,0,0,1,.56,1.745v.519H31.5a1.18,1.18,0,0,0,.371.747,1.123,1.123,0,0,0,.784.281,1.371,1.371,0,0,0,1.147-.532l.624.7a1.907,1.907,0,0,1-.773.631A2.538,2.538,0,0,1,32.577.088Zm-.145-3.907a.794.794,0,0,0-.613.256,1.326,1.326,0,0,0-.3.733h1.767v-.1a.946.946,0,0,0-.229-.655A.819.819,0,0,0,32.432-3.819ZM37.578,0V-6.4h1.969a2.99,2.99,0,0,1,1.51.38A2.651,2.651,0,0,1,42.1-4.937a3.334,3.334,0,0,1,.374,1.593v.294A3.344,3.344,0,0,1,42.1-1.463,2.628,2.628,0,0,1,41.067-.387,3.012,3.012,0,0,1,39.56,0ZM38.9-5.331v4.271h.637a1.432,1.432,0,0,0,1.182-.505,2.284,2.284,0,0,0,.417-1.446v-.338a2.32,2.32,0,0,0-.4-1.479,1.427,1.427,0,0,0-1.182-.5ZM43.427,0V-6.4h2.241a2.943,2.943,0,0,1,1.767.446,1.525,1.525,0,0,1,.6,1.307,1.446,1.446,0,0,1-.242.828,1.4,1.4,0,0,1-.672.525,1.351,1.351,0,0,1,.776.5,1.468,1.468,0,0,1,.283.914,1.689,1.689,0,0,1-.589,1.4A2.651,2.651,0,0,1,45.914,0Zm1.318-2.786v1.727h1.129a1.09,1.09,0,0,0,.727-.222.761.761,0,0,0,.261-.613.8.8,0,0,0-.91-.892Zm0-.932h.976q1-.018,1-.8a.735.735,0,0,0-.253-.626,1.329,1.329,0,0,0-.8-.191h-.923Z" transform="translate(763.807 7973.455)" fill="#12263f"/>
    <path id="Trazado_881214" data-name="Trazado 881214" d="M6.26,0l6.26,13.773H0Z" transform="translate(790.101 8000.513)" fill="#0db55b"/>
    <path id="Trazado_881215" data-name="Trazado 881215" d="M6.26,0l6.26,13.773H0Z" transform="matrix(0.602, 0.799, -0.799, 0.602, 765.296, 7974.465)" fill="#0db55b"/>
    <path id="Trazado_881216" data-name="Trazado 881216" d="M6.26,0l6.26,13.773H0Z" transform="matrix(0.602, -0.799, 0.799, 0.602, 808.883, 7981.088)" fill="#0db55b"/>
    <path id="Trazado_881217" data-name="Trazado 881217" d="M6.26,0l6.26,13.773H0Z" transform="translate(945.139 8022.325) rotate(120)" fill="#fc0d1b"/>
    <path id="Trazado_881218" data-name="Trazado 881218" d="M6.26,0l6.26,13.773H0Z" transform="translate(626.447 8043.952) rotate(-120)" fill="#fc0d1b"/>
    <path id="Trazado_881219" data-name="Trazado 881219" d="M1.238,0V-10.664h3.01a4.846,4.846,0,0,1,2.461.615A4.161,4.161,0,0,1,8.361-8.3a5.7,5.7,0,0,1,.59,2.607v.681a5.718,5.718,0,0,1-.582,2.644A4.1,4.1,0,0,1,6.705-.623,5.155,5.155,0,0,1,4.189,0ZM2.644-9.514V-1.15H4.124A3.219,3.219,0,0,0,6.654-2.162a4.18,4.18,0,0,0,.9-2.881v-.623a4.246,4.246,0,0,0-.853-2.826A3.036,3.036,0,0,0,4.285-9.514ZM15.754,0a2.846,2.846,0,0,1-.19-.835,3.023,3.023,0,0,1-2.256.981,2.8,2.8,0,0,1-1.923-.663A2.145,2.145,0,0,1,10.635-2.2a2.24,2.24,0,0,1,.941-1.923A4.437,4.437,0,0,1,14.224-4.8h1.318v-.623a1.522,1.522,0,0,0-.425-1.132,1.707,1.707,0,0,0-1.252-.421,1.976,1.976,0,0,0-1.216.366,1.079,1.079,0,0,0-.491.886H10.8a1.87,1.87,0,0,1,.421-1.146,2.874,2.874,0,0,1,1.143-.875,3.844,3.844,0,0,1,1.586-.322,3.133,3.133,0,0,1,2.146.685A2.47,2.47,0,0,1,16.9-5.5v3.647a4.459,4.459,0,0,0,.278,1.736V0ZM13.506-1.033a2.381,2.381,0,0,0,1.208-.33,1.994,1.994,0,0,0,.828-.857V-3.845H14.48q-2.49,0-2.49,1.458a1.234,1.234,0,0,0,.425,1A1.633,1.633,0,0,0,13.506-1.033Zm7.354-8.811v1.919h1.479v1.047H20.859v4.921a1.1,1.1,0,0,0,.2.715A.832.832,0,0,0,21.731-1a3.281,3.281,0,0,0,.645-.088V0a3.951,3.951,0,0,1-1.04.146A1.687,1.687,0,0,1,19.966-.4a2.36,2.36,0,0,1-.461-1.56V-6.877H18.062V-7.925H19.5V-9.844Zm2.556,5.808a4.681,4.681,0,0,1,.458-2.095,3.415,3.415,0,0,1,1.274-1.436,3.469,3.469,0,0,1,1.864-.505A3.342,3.342,0,0,1,29.63-6.951a4.311,4.311,0,0,1,1,2.981v.1A4.722,4.722,0,0,1,30.187-1.8,3.365,3.365,0,0,1,28.92-.366a3.509,3.509,0,0,1-1.893.513A3.334,3.334,0,0,1,24.415-.974a4.29,4.29,0,0,1-1-2.966Zm1.362.161a3.39,3.39,0,0,0,.612,2.117,1.957,1.957,0,0,0,1.637.8,1.945,1.945,0,0,0,1.641-.809,3.707,3.707,0,0,0,.608-2.267,3.384,3.384,0,0,0-.619-2.113,1.968,1.968,0,0,0-1.644-.809,1.946,1.946,0,0,0-1.619.8A3.68,3.68,0,0,0,24.778-3.875ZM36.943-2.1a1,1,0,0,0-.414-.853,3.983,3.983,0,0,0-1.443-.524,6.822,6.822,0,0,1-1.633-.527,2.324,2.324,0,0,1-.894-.732,1.752,1.752,0,0,1-.289-1.011A2.056,2.056,0,0,1,33.094-7.4,3.218,3.218,0,0,1,35.2-8.071a3.311,3.311,0,0,1,2.186.7,2.21,2.21,0,0,1,.839,1.78H36.863a1.223,1.223,0,0,0-.472-.959,1.77,1.77,0,0,0-1.19-.4,1.852,1.852,0,0,0-1.157.322,1.014,1.014,0,0,0-.417.842.822.822,0,0,0,.388.74,4.776,4.776,0,0,0,1.4.476,7.308,7.308,0,0,1,1.644.542,2.4,2.4,0,0,1,.934.758,1.864,1.864,0,0,1,.3,1.08,2.028,2.028,0,0,1-.85,1.7,3.564,3.564,0,0,1-2.2.641A3.991,3.991,0,0,1,33.56-.19a2.74,2.74,0,0,1-1.146-.941A2.268,2.268,0,0,1,32-2.439h1.355a1.4,1.4,0,0,0,.546,1.08,2.117,2.117,0,0,0,1.344.4,2.185,2.185,0,0,0,1.234-.311A.956.956,0,0,0,36.943-2.1Zm11.448,0a1,1,0,0,0-.414-.853,3.983,3.983,0,0,0-1.443-.524A6.822,6.822,0,0,1,44.9-4.006a2.324,2.324,0,0,1-.894-.732,1.752,1.752,0,0,1-.289-1.011A2.056,2.056,0,0,1,44.542-7.4a3.218,3.218,0,0,1,2.106-.674,3.311,3.311,0,0,1,2.186.7,2.21,2.21,0,0,1,.839,1.78H48.311a1.223,1.223,0,0,0-.472-.959,1.77,1.77,0,0,0-1.19-.4,1.852,1.852,0,0,0-1.157.322,1.014,1.014,0,0,0-.417.842.822.822,0,0,0,.388.74,4.776,4.776,0,0,0,1.4.476,7.308,7.308,0,0,1,1.644.542,2.4,2.4,0,0,1,.934.758,1.864,1.864,0,0,1,.3,1.08,2.028,2.028,0,0,1-.85,1.7,3.564,3.564,0,0,1-2.2.641A3.991,3.991,0,0,1,45.007-.19a2.74,2.74,0,0,1-1.146-.941,2.268,2.268,0,0,1-.414-1.307H44.8a1.4,1.4,0,0,0,.546,1.08,2.117,2.117,0,0,0,1.344.4,2.185,2.185,0,0,0,1.234-.311A.956.956,0,0,0,48.391-2.1ZM56.4,0a2.846,2.846,0,0,1-.19-.835,3.023,3.023,0,0,1-2.256.981,2.8,2.8,0,0,1-1.923-.663A2.145,2.145,0,0,1,51.284-2.2a2.24,2.24,0,0,1,.941-1.923A4.437,4.437,0,0,1,54.873-4.8h1.318v-.623a1.522,1.522,0,0,0-.425-1.132,1.707,1.707,0,0,0-1.252-.421,1.976,1.976,0,0,0-1.216.366,1.079,1.079,0,0,0-.491.886H51.445a1.87,1.87,0,0,1,.421-1.146,2.874,2.874,0,0,1,1.143-.875,3.844,3.844,0,0,1,1.586-.322,3.133,3.133,0,0,1,2.146.685A2.47,2.47,0,0,1,57.546-5.5v3.647a4.459,4.459,0,0,0,.278,1.736V0ZM54.155-1.033a2.381,2.381,0,0,0,1.208-.33,1.994,1.994,0,0,0,.828-.857V-3.845H55.129q-2.49,0-2.49,1.458a1.234,1.234,0,0,0,.425,1A1.633,1.633,0,0,0,54.155-1.033ZM61.143,0H59.788V-11.25h1.355Zm3.64,0H63.428V-7.925h1.355ZM63.318-10.027a.809.809,0,0,1,.2-.557.756.756,0,0,1,.6-.227.768.768,0,0,1,.6.227.8.8,0,0,1,.205.557.774.774,0,0,1-.205.549.782.782,0,0,1-.6.22.77.77,0,0,1-.6-.22A.782.782,0,0,1,63.318-10.027ZM70.239.146A3.463,3.463,0,0,1,67.617-.912a3.928,3.928,0,0,1-1.011-2.831v-.249a4.756,4.756,0,0,1,.45-2.106,3.514,3.514,0,0,1,1.26-1.45,3.167,3.167,0,0,1,1.754-.524,2.968,2.968,0,0,1,2.4,1.018,4.408,4.408,0,0,1,.857,2.915v.564H67.961a2.817,2.817,0,0,0,.685,1.893,2.153,2.153,0,0,0,1.666.721,2.36,2.36,0,0,0,1.216-.293,3.055,3.055,0,0,0,.872-.776l.828.645A3.328,3.328,0,0,1,70.239.146Zm-.168-7.1a1.807,1.807,0,0,0-1.377.6,2.9,2.9,0,0,0-.688,1.674h3.97v-.1a2.581,2.581,0,0,0-.557-1.6A1.7,1.7,0,0,0,70.071-6.958Zm6.108-.967.044,1A2.888,2.888,0,0,1,78.6-8.071q2.512,0,2.534,2.834V0H79.775V-5.244a1.824,1.824,0,0,0-.392-1.267,1.57,1.57,0,0,0-1.2-.41,1.956,1.956,0,0,0-1.157.352,2.387,2.387,0,0,0-.776.923V0H74.9V-7.925Zm8.833-1.919v1.919h1.479v1.047H85.012v4.921a1.1,1.1,0,0,0,.2.715A.832.832,0,0,0,85.884-1a3.281,3.281,0,0,0,.645-.088V0a3.951,3.951,0,0,1-1.04.146A1.687,1.687,0,0,1,84.119-.4a2.36,2.36,0,0,1-.461-1.56V-6.877H82.214V-7.925h1.443V-9.844Zm6.35,9.99A3.463,3.463,0,0,1,88.74-.912a3.928,3.928,0,0,1-1.011-2.831v-.249A4.756,4.756,0,0,1,88.18-6.1a3.514,3.514,0,0,1,1.26-1.45,3.167,3.167,0,0,1,1.754-.524,2.968,2.968,0,0,1,2.4,1.018,4.408,4.408,0,0,1,.857,2.915v.564H89.084a2.817,2.817,0,0,0,.685,1.893,2.153,2.153,0,0,0,1.666.721,2.36,2.36,0,0,0,1.216-.293,3.055,3.055,0,0,0,.872-.776l.828.645A3.328,3.328,0,0,1,91.362.146Zm-.168-7.1a1.807,1.807,0,0,0-1.377.6,2.9,2.9,0,0,0-.688,1.674H93.1v-.1a2.581,2.581,0,0,0-.557-1.6A1.7,1.7,0,0,0,91.194-6.958ZM100.635-2.1a1,1,0,0,0-.414-.853,3.983,3.983,0,0,0-1.443-.524,6.822,6.822,0,0,1-1.633-.527,2.324,2.324,0,0,1-.894-.732,1.752,1.752,0,0,1-.289-1.011A2.056,2.056,0,0,1,96.786-7.4a3.218,3.218,0,0,1,2.106-.674,3.311,3.311,0,0,1,2.186.7,2.21,2.21,0,0,1,.839,1.78h-1.362a1.223,1.223,0,0,0-.472-.959,1.77,1.77,0,0,0-1.19-.4,1.852,1.852,0,0,0-1.157.322,1.014,1.014,0,0,0-.417.842.822.822,0,0,0,.388.74,4.776,4.776,0,0,0,1.4.476,7.308,7.308,0,0,1,1.644.542,2.4,2.4,0,0,1,.934.758,1.864,1.864,0,0,1,.3,1.08,2.028,2.028,0,0,1-.85,1.7,3.564,3.564,0,0,1-2.2.641A3.991,3.991,0,0,1,97.251-.19,2.74,2.74,0,0,1,96.1-1.132a2.268,2.268,0,0,1-.414-1.307h1.355a1.4,1.4,0,0,0,.546,1.08,2.117,2.117,0,0,0,1.344.4,2.185,2.185,0,0,0,1.234-.311A.956.956,0,0,0,100.635-2.1Z" transform="translate(570.051 8146)" fill="#12263f"/>
    <path id="Trazado_881220" data-name="Trazado 881220" d="M1.238,0V-10.664h3.01a4.846,4.846,0,0,1,2.461.615A4.161,4.161,0,0,1,8.361-8.3a5.7,5.7,0,0,1,.59,2.607v.681a5.718,5.718,0,0,1-.582,2.644A4.1,4.1,0,0,1,6.705-.623,5.155,5.155,0,0,1,4.189,0ZM2.644-9.514V-1.15H4.124A3.219,3.219,0,0,0,6.654-2.162a4.18,4.18,0,0,0,.9-2.881v-.623a4.246,4.246,0,0,0-.853-2.826A3.036,3.036,0,0,0,4.285-9.514ZM15.754,0a2.846,2.846,0,0,1-.19-.835,3.023,3.023,0,0,1-2.256.981,2.8,2.8,0,0,1-1.923-.663A2.145,2.145,0,0,1,10.635-2.2a2.24,2.24,0,0,1,.941-1.923A4.437,4.437,0,0,1,14.224-4.8h1.318v-.623a1.522,1.522,0,0,0-.425-1.132,1.707,1.707,0,0,0-1.252-.421,1.976,1.976,0,0,0-1.216.366,1.079,1.079,0,0,0-.491.886H10.8a1.87,1.87,0,0,1,.421-1.146,2.874,2.874,0,0,1,1.143-.875,3.844,3.844,0,0,1,1.586-.322,3.133,3.133,0,0,1,2.146.685A2.47,2.47,0,0,1,16.9-5.5v3.647a4.459,4.459,0,0,0,.278,1.736V0ZM13.506-1.033a2.381,2.381,0,0,0,1.208-.33,1.994,1.994,0,0,0,.828-.857V-3.845H14.48q-2.49,0-2.49,1.458a1.234,1.234,0,0,0,.425,1A1.633,1.633,0,0,0,13.506-1.033Zm7.354-8.811v1.919h1.479v1.047H20.859v4.921a1.1,1.1,0,0,0,.2.715A.832.832,0,0,0,21.731-1a3.281,3.281,0,0,0,.645-.088V0a3.951,3.951,0,0,1-1.04.146A1.687,1.687,0,0,1,19.966-.4a2.36,2.36,0,0,1-.461-1.56V-6.877H18.062V-7.925H19.5V-9.844Zm2.556,5.808a4.681,4.681,0,0,1,.458-2.095,3.415,3.415,0,0,1,1.274-1.436,3.469,3.469,0,0,1,1.864-.505A3.342,3.342,0,0,1,29.63-6.951a4.311,4.311,0,0,1,1,2.981v.1A4.722,4.722,0,0,1,30.187-1.8,3.365,3.365,0,0,1,28.92-.366a3.509,3.509,0,0,1-1.893.513A3.334,3.334,0,0,1,24.415-.974a4.29,4.29,0,0,1-1-2.966Zm1.362.161a3.39,3.39,0,0,0,.612,2.117,1.957,1.957,0,0,0,1.637.8,1.945,1.945,0,0,0,1.641-.809,3.707,3.707,0,0,0,.608-2.267,3.384,3.384,0,0,0-.619-2.113,1.968,1.968,0,0,0-1.644-.809,1.946,1.946,0,0,0-1.619.8A3.68,3.68,0,0,0,24.778-3.875ZM36.943-2.1a1,1,0,0,0-.414-.853,3.983,3.983,0,0,0-1.443-.524,6.822,6.822,0,0,1-1.633-.527,2.324,2.324,0,0,1-.894-.732,1.752,1.752,0,0,1-.289-1.011A2.056,2.056,0,0,1,33.094-7.4,3.218,3.218,0,0,1,35.2-8.071a3.311,3.311,0,0,1,2.186.7,2.21,2.21,0,0,1,.839,1.78H36.863a1.223,1.223,0,0,0-.472-.959,1.77,1.77,0,0,0-1.19-.4,1.852,1.852,0,0,0-1.157.322,1.014,1.014,0,0,0-.417.842.822.822,0,0,0,.388.74,4.776,4.776,0,0,0,1.4.476,7.308,7.308,0,0,1,1.644.542,2.4,2.4,0,0,1,.934.758,1.864,1.864,0,0,1,.3,1.08,2.028,2.028,0,0,1-.85,1.7,3.564,3.564,0,0,1-2.2.641A3.991,3.991,0,0,1,33.56-.19a2.74,2.74,0,0,1-1.146-.941A2.268,2.268,0,0,1,32-2.439h1.355a1.4,1.4,0,0,0,.546,1.08,2.117,2.117,0,0,0,1.344.4,2.185,2.185,0,0,0,1.234-.311A.956.956,0,0,0,36.943-2.1ZM47.065.146A3.463,3.463,0,0,1,44.443-.912a3.928,3.928,0,0,1-1.011-2.831v-.249a4.756,4.756,0,0,1,.45-2.106,3.514,3.514,0,0,1,1.26-1.45A3.167,3.167,0,0,1,46.9-8.071a2.968,2.968,0,0,1,2.4,1.018,4.408,4.408,0,0,1,.857,2.915v.564H44.788a2.817,2.817,0,0,0,.685,1.893,2.153,2.153,0,0,0,1.666.721,2.36,2.36,0,0,0,1.216-.293,3.055,3.055,0,0,0,.872-.776l.828.645A3.328,3.328,0,0,1,47.065.146Zm-.168-7.1a1.807,1.807,0,0,0-1.377.6,2.9,2.9,0,0,0-.688,1.674H48.8v-.1a2.581,2.581,0,0,0-.557-1.6A1.7,1.7,0,0,0,46.9-6.958Zm6.108-.967.044,1a2.888,2.888,0,0,1,2.373-1.143q2.512,0,2.534,2.834V0H56.6V-5.244a1.824,1.824,0,0,0-.392-1.267,1.57,1.57,0,0,0-1.2-.41,1.956,1.956,0,0,0-1.157.352,2.387,2.387,0,0,0-.776.923V0H51.724V-7.925Zm8.833-1.919v1.919h1.479v1.047H61.838v4.921a1.1,1.1,0,0,0,.2.715A.832.832,0,0,0,62.71-1a3.281,3.281,0,0,0,.645-.088V0a3.951,3.951,0,0,1-1.04.146A1.687,1.687,0,0,1,60.945-.4a2.36,2.36,0,0,1-.461-1.56V-6.877H59.041V-7.925h1.443V-9.844ZM68.73-6.709a4.061,4.061,0,0,0-.667-.051,1.786,1.786,0,0,0-1.809,1.135V0H64.9V-7.925h1.318l.022.916a2.11,2.11,0,0,1,1.89-1.062,1.384,1.384,0,0,1,.6.1ZM74.575,0a2.846,2.846,0,0,1-.19-.835,3.023,3.023,0,0,1-2.256.981,2.8,2.8,0,0,1-1.923-.663A2.145,2.145,0,0,1,69.456-2.2,2.24,2.24,0,0,1,70.4-4.12,4.437,4.437,0,0,1,73.044-4.8h1.318v-.623a1.522,1.522,0,0,0-.425-1.132,1.707,1.707,0,0,0-1.252-.421,1.976,1.976,0,0,0-1.216.366,1.079,1.079,0,0,0-.491.886H69.617a1.87,1.87,0,0,1,.421-1.146,2.874,2.874,0,0,1,1.143-.875,3.844,3.844,0,0,1,1.586-.322,3.133,3.133,0,0,1,2.146.685A2.47,2.47,0,0,1,75.718-5.5v3.647A4.459,4.459,0,0,0,76-.117V0ZM72.327-1.033a2.381,2.381,0,0,0,1.208-.33,1.994,1.994,0,0,0,.828-.857V-3.845H73.3q-2.49,0-2.49,1.458a1.234,1.234,0,0,0,.425,1A1.633,1.633,0,0,0,72.327-1.033Zm6.8-6.892.044,1a2.888,2.888,0,0,1,2.373-1.143q2.512,0,2.534,2.834V0H82.72V-5.244a1.824,1.824,0,0,0-.392-1.267,1.57,1.57,0,0,0-1.2-.41,1.956,1.956,0,0,0-1.157.352,2.387,2.387,0,0,0-.776.923V0H77.842V-7.925Zm8.833-1.919v1.919h1.479v1.047H87.957v4.921a1.1,1.1,0,0,0,.2.715A.832.832,0,0,0,88.828-1a3.281,3.281,0,0,0,.645-.088V0a3.951,3.951,0,0,1-1.04.146A1.687,1.687,0,0,1,87.063-.4a2.36,2.36,0,0,1-.461-1.56V-6.877H85.159V-7.925H86.6V-9.844Zm6.35,9.99A3.463,3.463,0,0,1,91.685-.912a3.928,3.928,0,0,1-1.011-2.831v-.249a4.756,4.756,0,0,1,.45-2.106,3.514,3.514,0,0,1,1.26-1.45,3.167,3.167,0,0,1,1.754-.524,2.968,2.968,0,0,1,2.4,1.018A4.408,4.408,0,0,1,97.4-4.138v.564H92.029a2.817,2.817,0,0,0,.685,1.893,2.153,2.153,0,0,0,1.666.721A2.36,2.36,0,0,0,95.6-1.252a3.055,3.055,0,0,0,.872-.776l.828.645A3.328,3.328,0,0,1,94.307.146Zm-.168-7.1a1.807,1.807,0,0,0-1.377.6,2.9,2.9,0,0,0-.688,1.674h3.97v-.1a2.581,2.581,0,0,0-.557-1.6A1.7,1.7,0,0,0,94.138-6.958ZM103.579-2.1a1,1,0,0,0-.414-.853,3.983,3.983,0,0,0-1.443-.524,6.822,6.822,0,0,1-1.633-.527,2.324,2.324,0,0,1-.894-.732,1.752,1.752,0,0,1-.289-1.011A2.056,2.056,0,0,1,99.73-7.4a3.218,3.218,0,0,1,2.106-.674,3.311,3.311,0,0,1,2.186.7,2.21,2.21,0,0,1,.839,1.78H103.5a1.223,1.223,0,0,0-.472-.959,1.77,1.77,0,0,0-1.19-.4,1.852,1.852,0,0,0-1.157.322,1.014,1.014,0,0,0-.417.842.822.822,0,0,0,.388.74,4.776,4.776,0,0,0,1.4.476,7.308,7.308,0,0,1,1.644.542,2.4,2.4,0,0,1,.934.758,1.864,1.864,0,0,1,.3,1.08,2.028,2.028,0,0,1-.85,1.7,3.564,3.564,0,0,1-2.2.641A3.991,3.991,0,0,1,100.2-.19a2.74,2.74,0,0,1-1.146-.941,2.268,2.268,0,0,1-.414-1.307H99.99a1.4,1.4,0,0,0,.546,1.08,2.117,2.117,0,0,0,1.344.4,2.185,2.185,0,0,0,1.234-.311A.956.956,0,0,0,103.579-2.1Z" transform="translate(758.051 8146)" fill="#12263f"/>
    <path id="Trazado_881221" data-name="Trazado 881221" d="M9.082-3.384A3.923,3.923,0,0,1,7.833-.773,4.093,4.093,0,0,1,5.039.146,3.758,3.758,0,0,1,2.01-1.208,5.451,5.451,0,0,1,.872-4.834V-5.859A6.076,6.076,0,0,1,1.4-8.474a3.966,3.966,0,0,1,1.505-1.732,4.191,4.191,0,0,1,2.256-.6,3.853,3.853,0,0,1,2.725.948A3.971,3.971,0,0,1,9.082-7.236H7.668a3.064,3.064,0,0,0-.795-1.851,2.4,2.4,0,0,0-1.71-.573,2.516,2.516,0,0,0-2.113,1,4.577,4.577,0,0,0-.765,2.837v1.034A4.7,4.7,0,0,0,3.01-2.03,2.343,2.343,0,0,0,5.039-1a2.706,2.706,0,0,0,1.8-.531,2.947,2.947,0,0,0,.831-1.849ZM15.681,0a2.846,2.846,0,0,1-.19-.835,3.023,3.023,0,0,1-2.256.981,2.8,2.8,0,0,1-1.923-.663A2.145,2.145,0,0,1,10.562-2.2,2.24,2.24,0,0,1,11.5-4.12,4.437,4.437,0,0,1,14.15-4.8h1.318v-.623a1.522,1.522,0,0,0-.425-1.132,1.707,1.707,0,0,0-1.252-.421,1.976,1.976,0,0,0-1.216.366,1.079,1.079,0,0,0-.491.886H10.723a1.87,1.87,0,0,1,.421-1.146,2.874,2.874,0,0,1,1.143-.875,3.844,3.844,0,0,1,1.586-.322,3.133,3.133,0,0,1,2.146.685A2.47,2.47,0,0,1,16.824-5.5v3.647A4.459,4.459,0,0,0,17.1-.117V0ZM13.433-1.033a2.381,2.381,0,0,0,1.208-.33,1.994,1.994,0,0,0,.828-.857V-3.845H14.407q-2.49,0-2.49,1.458a1.234,1.234,0,0,0,.425,1A1.633,1.633,0,0,0,13.433-1.033Zm8.694.073A1.952,1.952,0,0,0,23.394-1.4a1.546,1.546,0,0,0,.6-1.1h1.282a2.457,2.457,0,0,1-.469,1.3,3.087,3.087,0,0,1-1.154.981,3.329,3.329,0,0,1-1.527.366,3.265,3.265,0,0,1-2.574-1.08A4.3,4.3,0,0,1,18.6-3.889v-.227a4.771,4.771,0,0,1,.425-2.058,3.236,3.236,0,0,1,1.219-1.4,3.464,3.464,0,0,1,1.879-.5,3.178,3.178,0,0,1,2.216.8A2.853,2.853,0,0,1,25.276-5.2H23.994a1.867,1.867,0,0,0-.582-1.263,1.811,1.811,0,0,0-1.293-.494,1.9,1.9,0,0,0-1.6.743,3.491,3.491,0,0,0-.568,2.15v.256A3.422,3.422,0,0,0,20.515-1.7,1.906,1.906,0,0,0,22.126-.959Zm6.028-6.006A2.881,2.881,0,0,1,30.5-8.071q2.512,0,2.534,2.834V0H31.677V-5.244a1.824,1.824,0,0,0-.392-1.267,1.57,1.57,0,0,0-1.2-.41,1.956,1.956,0,0,0-1.157.352,2.387,2.387,0,0,0-.776.923V0H26.8V-11.25h1.355ZM38.35.146A3.463,3.463,0,0,1,35.728-.912a3.928,3.928,0,0,1-1.011-2.831v-.249a4.756,4.756,0,0,1,.45-2.106,3.514,3.514,0,0,1,1.26-1.45,3.167,3.167,0,0,1,1.754-.524,2.968,2.968,0,0,1,2.4,1.018,4.408,4.408,0,0,1,.857,2.915v.564H36.072a2.817,2.817,0,0,0,.685,1.893,2.153,2.153,0,0,0,1.666.721,2.36,2.36,0,0,0,1.216-.293,3.055,3.055,0,0,0,.872-.776l.828.645A3.328,3.328,0,0,1,38.35.146Zm-.168-7.1a1.807,1.807,0,0,0-1.377.6,2.9,2.9,0,0,0-.688,1.674h3.97v-.1a2.581,2.581,0,0,0-.557-1.6A1.7,1.7,0,0,0,38.181-6.958Zm.659-4.292h1.641L38.518-9.1l-1.091,0ZM48.193,0H46.838V-11.25h1.355ZM50-4.036A4.681,4.681,0,0,1,50.46-6.13a3.415,3.415,0,0,1,1.274-1.436A3.469,3.469,0,0,1,53.6-8.071a3.342,3.342,0,0,1,2.618,1.121,4.311,4.311,0,0,1,1,2.981v.1A4.722,4.722,0,0,1,56.774-1.8,3.365,3.365,0,0,1,55.507-.366a3.509,3.509,0,0,1-1.893.513A3.334,3.334,0,0,1,51-.974,4.29,4.29,0,0,1,50-3.94Zm1.362.161a3.39,3.39,0,0,0,.612,2.117,1.957,1.957,0,0,0,1.637.8,1.945,1.945,0,0,0,1.641-.809,3.707,3.707,0,0,0,.608-2.267,3.384,3.384,0,0,0-.619-2.113A1.968,1.968,0,0,0,53.6-6.958a1.946,1.946,0,0,0-1.619.8A3.68,3.68,0,0,0,51.365-3.875ZM62.095-.959A1.952,1.952,0,0,0,63.362-1.4a1.546,1.546,0,0,0,.6-1.1h1.282a2.457,2.457,0,0,1-.469,1.3,3.087,3.087,0,0,1-1.154.981,3.329,3.329,0,0,1-1.527.366A3.265,3.265,0,0,1,59.52-.934a4.3,4.3,0,0,1-.956-2.955v-.227a4.771,4.771,0,0,1,.425-2.058,3.236,3.236,0,0,1,1.219-1.4,3.464,3.464,0,0,1,1.879-.5,3.178,3.178,0,0,1,2.216.8A2.853,2.853,0,0,1,65.244-5.2H63.962a1.867,1.867,0,0,0-.582-1.263,1.811,1.811,0,0,0-1.293-.494,1.9,1.9,0,0,0-1.6.743,3.491,3.491,0,0,0-.568,2.15v.256A3.422,3.422,0,0,0,60.483-1.7,1.906,1.906,0,0,0,62.095-.959ZM71.66,0a2.846,2.846,0,0,1-.19-.835,3.023,3.023,0,0,1-2.256.981,2.8,2.8,0,0,1-1.923-.663A2.145,2.145,0,0,1,66.541-2.2a2.24,2.24,0,0,1,.941-1.923A4.437,4.437,0,0,1,70.129-4.8h1.318v-.623a1.522,1.522,0,0,0-.425-1.132,1.707,1.707,0,0,0-1.252-.421,1.976,1.976,0,0,0-1.216.366,1.079,1.079,0,0,0-.491.886H66.7a1.87,1.87,0,0,1,.421-1.146,2.874,2.874,0,0,1,1.143-.875,3.844,3.844,0,0,1,1.586-.322A3.133,3.133,0,0,1,72-7.386,2.47,2.47,0,0,1,72.8-5.5v3.647a4.459,4.459,0,0,0,.278,1.736V0ZM69.412-1.033a2.381,2.381,0,0,0,1.208-.33,1.994,1.994,0,0,0,.828-.857V-3.845H70.386q-2.49,0-2.49,1.458a1.234,1.234,0,0,0,.425,1A1.633,1.633,0,0,0,69.412-1.033Zm9.346-5.676a4.061,4.061,0,0,0-.667-.051,1.786,1.786,0,0,0-1.809,1.135V0H74.927V-7.925h1.318l.022.916a2.11,2.11,0,0,1,1.89-1.062,1.384,1.384,0,0,1,.6.1Z" transform="translate(929.051 8146)" fill="#12263f"/>
    <path id="Trazado_881222" data-name="Trazado 881222" d="M0,0H23V22H0Z" transform="translate(542.051 8131)" fill="#fc0d1b"/>
    <path id="Trazado_881223" data-name="Trazado 881223" d="M0,0H22V22H0Z" transform="translate(731.051 8131)" fill="#1bb55b"/>
    <path id="Trazado_881224" data-name="Trazado 881224" d="M0,0H21V22H0Z" transform="translate(902.051 8131)" fill="#77aafc"/>
  </g>
</svg>
