<svg xmlns="http://www.w3.org/2000/svg" width="549.01" height="238.5" viewBox="0 0 549.01 238.5">
  <g id="Grupo_1102579" data-name="Grupo 1102579" transform="translate(-212.051 -2275.351)">
    <path id="Trazado_881215" data-name="Trazado 881215" d="M13,0H536.01a13,13,0,0,1,13,13V197a13,13,0,0,1-13,13H13A13,13,0,0,1,0,197V13A13,13,0,0,1,13,0Z" transform="translate(212.051 2303.851)" fill="#110628"/>
    <path id="Trazado_881216" data-name="Trazado 881216" d="M3.313,15.023,6.359,8.547H7.852L3.594,17H2.516L.859,8.547H2.25ZM12.891,17a1.894,1.894,0,0,1-.055-.445l.023-.445a3.465,3.465,0,0,1-2.469,1.047,2.526,2.526,0,0,1-1.816-.707,2.14,2.14,0,0,1-.637-1.73,2.6,2.6,0,0,1,1.176-2.1A5.005,5.005,0,0,1,12,11.867l1.477.008.094-.672a1.545,1.545,0,0,0-.293-1.2,1.414,1.414,0,0,0-1.113-.457,2.181,2.181,0,0,0-1.285.355,1.513,1.513,0,0,0-.684.98l-1.422.008a2.266,2.266,0,0,1,.578-1.316,3.363,3.363,0,0,1,1.3-.891,4.215,4.215,0,0,1,1.648-.3,2.8,2.8,0,0,1,2.055.8,2.484,2.484,0,0,1,.617,2.043l-.687,4.188-.039.6a2.949,2.949,0,0,0,.094.852L14.328,17Zm-2.219-1.094a2.466,2.466,0,0,0,1.285-.324A3.254,3.254,0,0,0,13,14.641l.3-1.742-1.07-.008a4.054,4.054,0,0,0-2.047.422,1.554,1.554,0,0,0-.8,1.2,1.21,1.21,0,0,0,.277.988A1.321,1.321,0,0,0,10.672,15.906ZM17.773,17H16.367L18.445,5h1.414Zm6.641-4.242a6.578,6.578,0,0,1,.711-2.328,4.03,4.03,0,0,1,1.367-1.555,3.127,3.127,0,0,1,1.789-.492,2.64,2.64,0,0,1,2.172,1.031L31.266,5H32.68L30.6,17H29.313l.148-.906a3.116,3.116,0,0,1-2.469,1.063,2.335,2.335,0,0,1-1.867-.918,4,4,0,0,1-.75-2.379A7.6,7.6,0,0,1,24.414,12.758Zm1.359.808a2.929,2.929,0,0,0,.4,1.732,1.437,1.437,0,0,0,1.234.632,2.554,2.554,0,0,0,2.18-1.233l.672-3.9a1.754,1.754,0,0,0-1.7-1.186,2.143,2.143,0,0,0-1.473.5,3.256,3.256,0,0,0-.969,1.475A6.082,6.082,0,0,0,25.773,13.565Zm14.734-.753a6.586,6.586,0,0,1-.711,2.336,3.982,3.982,0,0,1-1.344,1.539,3.058,3.058,0,0,1-1.75.477,2.61,2.61,0,0,1-2.273-1.148L34.141,17h-1.3L34.922,5h1.414l-.852,4.484a3.107,3.107,0,0,1,2.469-1.094,2.358,2.358,0,0,1,1.9.9,3.954,3.954,0,0,1,.719,2.391,7.363,7.363,0,0,1-.047.969ZM39.164,12a3.009,3.009,0,0,0-.383-1.744,1.465,1.465,0,0,0-1.242-.636A2.574,2.574,0,0,0,35.3,10.944l-.633,3.675a1.8,1.8,0,0,0,1.758,1.319,2.054,2.054,0,0,0,1.449-.492,3.212,3.212,0,0,0,.941-1.463A6.578,6.578,0,0,0,39.164,12ZM53.07,10.641H46.742l.219-1.258H53.3Zm-.562,3.242H46.18l.219-1.25h6.336Zm5.961-1.125a6.578,6.578,0,0,1,.711-2.328,4.03,4.03,0,0,1,1.367-1.555,3.127,3.127,0,0,1,1.789-.492,2.641,2.641,0,0,1,2.172,1.031L65.32,5h1.414L64.656,17H63.367l.148-.906a3.116,3.116,0,0,1-2.469,1.063,2.335,2.335,0,0,1-1.867-.918,4,4,0,0,1-.75-2.379A7.6,7.6,0,0,1,58.469,12.758Zm1.359.808a2.929,2.929,0,0,0,.4,1.732,1.437,1.437,0,0,0,1.234.632,2.554,2.554,0,0,0,2.18-1.233l.672-3.9a1.754,1.754,0,0,0-1.7-1.186,2.143,2.143,0,0,0-1.473.5,3.256,3.256,0,0,0-.969,1.475A6.082,6.082,0,0,0,59.828,13.565Zm14.734-.753a6.586,6.586,0,0,1-.711,2.336,3.982,3.982,0,0,1-1.344,1.539,3.058,3.058,0,0,1-1.75.477,2.61,2.61,0,0,1-2.273-1.148L68.2,17h-1.3L68.977,5h1.414l-.852,4.484a3.107,3.107,0,0,1,2.469-1.094,2.358,2.358,0,0,1,1.9.9,3.954,3.954,0,0,1,.719,2.391,7.362,7.362,0,0,1-.047.969ZM73.219,12a3.009,3.009,0,0,0-.383-1.744,1.465,1.465,0,0,0-1.242-.636,2.574,2.574,0,0,0-2.234,1.327l-.633,3.675a1.8,1.8,0,0,0,1.758,1.319,2.054,2.054,0,0,0,1.449-.492,3.212,3.212,0,0,0,.941-1.463A6.578,6.578,0,0,0,73.219,12Zm11.172,5H82.922l.914-5.258H78.281L77.367,17H75.9L77.875,5.625h1.469l-.852,4.891h5.547l.852-4.891h1.477Zm6.086.156a3.048,3.048,0,0,1-2.469-1.164,4.006,4.006,0,0,1-.75-2.9l.039-.336a5.624,5.624,0,0,1,.746-2.3,4.339,4.339,0,0,1,1.5-1.566,3.491,3.491,0,0,1,1.906-.5,2.688,2.688,0,0,1,2.047.867,3.566,3.566,0,0,1,.813,2.266,6.62,6.62,0,0,1-.031,1.016l-.086.648H88.664a2.856,2.856,0,0,0,.379,1.953,1.8,1.8,0,0,0,1.551.836,3.007,3.007,0,0,0,2.313-1.125l.813.688a3.718,3.718,0,0,1-1.371,1.2A3.886,3.886,0,0,1,90.477,17.156Zm.9-7.586a2.066,2.066,0,0,0-1.527.594A4.22,4.22,0,0,0,88.813,12l4.109.008.031-.125a2.313,2.313,0,0,0-.316-1.637A1.488,1.488,0,0,0,91.375,9.57ZM96.648,17H95.242L97.32,5h1.414Zm9.969-4.187a6.706,6.706,0,0,1-.7,2.32,3.949,3.949,0,0,1-1.336,1.543,3.058,3.058,0,0,1-1.766.488,2.815,2.815,0,0,1-2.25-.992l-.758,4.078H98.4l2.031-11.7,1.281-.008-.156.945a3.207,3.207,0,0,1,2.508-1.094,2.358,2.358,0,0,1,1.9.9,3.954,3.954,0,0,1,.719,2.391,8.412,8.412,0,0,1-.039.969Zm-1.391-.16.039-.655a2.969,2.969,0,0,0-.434-1.744,1.525,1.525,0,0,0-1.254-.636,2.508,2.508,0,0,0-2.117,1.163l-.711,4.05a1.769,1.769,0,0,0,1.711,1.155,2.224,2.224,0,0,0,1.793-.823A4.777,4.777,0,0,0,105.227,12.652Zm6.18,4.5a3.048,3.048,0,0,1-2.469-1.164,4.006,4.006,0,0,1-.75-2.9l.039-.336a5.624,5.624,0,0,1,.746-2.3,4.339,4.339,0,0,1,1.5-1.566,3.491,3.491,0,0,1,1.906-.5,2.688,2.688,0,0,1,2.047.867,3.566,3.566,0,0,1,.813,2.266,6.62,6.62,0,0,1-.031,1.016l-.086.648h-5.523a2.856,2.856,0,0,0,.379,1.953,1.8,1.8,0,0,0,1.551.836,3.007,3.007,0,0,0,2.313-1.125l.813.688a3.718,3.718,0,0,1-1.371,1.2A3.886,3.886,0,0,1,111.406,17.156Zm.9-7.586a2.066,2.066,0,0,0-1.527.594A4.22,4.22,0,0,0,109.742,12l4.109.008.031-.125a2.313,2.313,0,0,0-.316-1.637A1.488,1.488,0,0,0,112.3,9.57Zm9,.266-.664-.07a2.42,2.42,0,0,0-2.141,1.227L117.461,17h-1.414l1.469-8.453,1.367-.008-.211.984a2.527,2.527,0,0,1,2.117-1.148,2.594,2.594,0,0,1,.672.117Zm.148,5.523a.846.846,0,0,1,.633.234.807.807,0,0,1,.242.625.844.844,0,0,1-.258.621.929.929,0,0,1-.625.254.788.788,0,0,1-.859-.828.874.874,0,0,1,.867-.906ZM132.164,15l2.7-6.453h1.461L132.469,17H131.32l-.875-6.391L127.4,17H126.25l-.914-8.453h1.352l.516,6.3,3-6.3h1.141Zm9.414-5.164-.664-.07a2.42,2.42,0,0,0-2.141,1.227L137.734,17H136.32l1.469-8.453,1.367-.008-.211.984a2.527,2.527,0,0,1,2.117-1.148,2.594,2.594,0,0,1,.672.117ZM143.18,17h-1.406l1.469-8.453h1.406Zm1.164-11.539a.774.774,0,0,1,.6.215.8.8,0,0,1,.238.605.834.834,0,0,1-.836.852.779.779,0,0,1-.6-.211.764.764,0,0,1-.227-.594.886.886,0,0,1,.234-.609A.826.826,0,0,1,144.344,5.461ZM149.227,6.5l-.359,2.047h1.539l-.2,1.117H148.68l-.883,5.258a1.833,1.833,0,0,0-.008.375.6.6,0,0,0,.664.609,4.05,4.05,0,0,0,.688-.078l-.109,1.18a3.847,3.847,0,0,1-1.031.141,1.476,1.476,0,0,1-1.266-.621,2.4,2.4,0,0,1-.328-1.629l.859-5.234h-1.492l.2-1.117h1.492L147.82,6.5ZM155.813,17a1.894,1.894,0,0,1-.055-.445l.023-.445a3.465,3.465,0,0,1-2.469,1.047,2.526,2.526,0,0,1-1.816-.707,2.14,2.14,0,0,1-.637-1.73,2.6,2.6,0,0,1,1.176-2.1,5.005,5.005,0,0,1,2.887-.754l1.477.008.094-.672A1.545,1.545,0,0,0,156.2,10a1.414,1.414,0,0,0-1.113-.457A2.181,2.181,0,0,0,153.8,9.9a1.513,1.513,0,0,0-.684.98l-1.422.008a2.266,2.266,0,0,1,.578-1.316,3.363,3.363,0,0,1,1.3-.891,4.215,4.215,0,0,1,1.648-.3,2.8,2.8,0,0,1,2.055.8,2.484,2.484,0,0,1,.617,2.043l-.687,4.188-.039.6a2.949,2.949,0,0,0,.094.852L157.25,17Zm-2.219-1.094a2.466,2.466,0,0,0,1.285-.324,3.254,3.254,0,0,0,1.043-.941l.3-1.742-1.07-.008a4.054,4.054,0,0,0-2.047.422,1.554,1.554,0,0,0-.8,1.2,1.21,1.21,0,0,0,.277.988A1.321,1.321,0,0,0,153.594,15.906Zm13.242-3.094a6.586,6.586,0,0,1-.711,2.336,3.982,3.982,0,0,1-1.344,1.539,3.058,3.058,0,0,1-1.75.477,2.61,2.61,0,0,1-2.273-1.148l-.289.984h-1.3L161.25,5h1.414l-.852,4.484a3.107,3.107,0,0,1,2.469-1.094,2.358,2.358,0,0,1,1.9.9,3.954,3.954,0,0,1,.719,2.391,7.364,7.364,0,0,1-.047.969ZM165.492,12a3.009,3.009,0,0,0-.383-1.744,1.465,1.465,0,0,0-1.242-.636,2.574,2.574,0,0,0-2.234,1.327L161,14.619a1.8,1.8,0,0,0,1.758,1.319,2.054,2.054,0,0,0,1.449-.492,3.212,3.212,0,0,0,.941-1.463A6.578,6.578,0,0,0,165.492,12Zm3.992,5h-1.406l2.078-12h1.414Zm5.969.156a3.048,3.048,0,0,1-2.469-1.164,4.006,4.006,0,0,1-.75-2.9l.039-.336a5.624,5.624,0,0,1,.746-2.3,4.339,4.339,0,0,1,1.5-1.566,3.491,3.491,0,0,1,1.906-.5,2.688,2.688,0,0,1,2.047.867,3.566,3.566,0,0,1,.813,2.266,6.621,6.621,0,0,1-.031,1.016l-.086.648h-5.523a2.855,2.855,0,0,0,.379,1.953,1.8,1.8,0,0,0,1.551.836,3.007,3.007,0,0,0,2.313-1.125l.813.688a3.718,3.718,0,0,1-1.371,1.2A3.886,3.886,0,0,1,175.453,17.156Zm.9-7.586a2.066,2.066,0,0,0-1.527.594A4.22,4.22,0,0,0,173.789,12l4.109.008.031-.125a2.313,2.313,0,0,0-.316-1.637A1.488,1.488,0,0,0,176.352,9.57ZM180.313,17l1.977-11.375,2.953.008a4.1,4.1,0,0,1,2.395.7,3.835,3.835,0,0,1,1.441,1.918,5.962,5.962,0,0,1,.258,2.738l-.078.57a6.432,6.432,0,0,1-1.93,3.965A5.612,5.612,0,0,1,183.344,17Zm3.227-10.148-1.547,8.914,1.445.008a4.061,4.061,0,0,0,2.809-1.031,4.9,4.9,0,0,0,1.5-2.828,9.2,9.2,0,0,0,.188-2.445,2.978,2.978,0,0,0-.8-1.895,2.605,2.605,0,0,0-1.844-.715ZM195.523,17a1.894,1.894,0,0,1-.055-.445l.023-.445a3.465,3.465,0,0,1-2.469,1.047,2.526,2.526,0,0,1-1.816-.707,2.14,2.14,0,0,1-.637-1.73,2.6,2.6,0,0,1,1.176-2.1,5.005,5.005,0,0,1,2.887-.754l1.477.008.094-.672a1.545,1.545,0,0,0-.293-1.2,1.414,1.414,0,0,0-1.113-.457,2.181,2.181,0,0,0-1.285.355,1.513,1.513,0,0,0-.684.98l-1.422.008a2.266,2.266,0,0,1,.578-1.316,3.363,3.363,0,0,1,1.3-.891,4.215,4.215,0,0,1,1.648-.3,2.8,2.8,0,0,1,2.055.8,2.484,2.484,0,0,1,.617,2.043l-.687,4.188-.039.6a2.949,2.949,0,0,0,.094.852l-.016.133ZM193.3,15.906a2.466,2.466,0,0,0,1.285-.324,3.254,3.254,0,0,0,1.043-.941l.3-1.742-1.07-.008a4.054,4.054,0,0,0-2.047.422,1.554,1.554,0,0,0-.8,1.2,1.21,1.21,0,0,0,.277.988A1.321,1.321,0,0,0,193.3,15.906Zm9.3-9.406-.359,2.047h1.539l-.2,1.117h-1.531l-.883,5.258a1.833,1.833,0,0,0-.008.375.6.6,0,0,0,.664.609,4.05,4.05,0,0,0,.688-.078l-.109,1.18a3.847,3.847,0,0,1-1.031.141,1.476,1.476,0,0,1-1.266-.621,2.4,2.4,0,0,1-.328-1.629l.859-5.234h-1.492l.2-1.117h1.492L201.2,6.5ZM209.2,17a1.894,1.894,0,0,1-.055-.445l.023-.445a3.465,3.465,0,0,1-2.469,1.047,2.526,2.526,0,0,1-1.816-.707,2.14,2.14,0,0,1-.637-1.73,2.6,2.6,0,0,1,1.176-2.1,5.005,5.005,0,0,1,2.887-.754l1.477.008.094-.672a1.545,1.545,0,0,0-.293-1.2,1.414,1.414,0,0,0-1.113-.457,2.181,2.181,0,0,0-1.285.355,1.513,1.513,0,0,0-.684.98l-1.422.008a2.266,2.266,0,0,1,.578-1.316,3.363,3.363,0,0,1,1.3-.891,4.215,4.215,0,0,1,1.648-.3,2.8,2.8,0,0,1,2.055.8,2.484,2.484,0,0,1,.617,2.043l-.687,4.188-.039.6a2.949,2.949,0,0,0,.094.852l-.016.133Zm-2.219-1.094a2.466,2.466,0,0,0,1.285-.324,3.254,3.254,0,0,0,1.043-.941l.3-1.742-1.07-.008a4.054,4.054,0,0,0-2.047.422,1.554,1.554,0,0,0-.8,1.2,1.21,1.21,0,0,0,.277.988A1.321,1.321,0,0,0,206.977,15.906Zm13.242-3.094a6.586,6.586,0,0,1-.711,2.336,3.982,3.982,0,0,1-1.344,1.539,3.058,3.058,0,0,1-1.75.477,2.61,2.61,0,0,1-2.273-1.148l-.289.984h-1.3l2.086-12h1.414L215.2,9.484a3.107,3.107,0,0,1,2.469-1.094,2.358,2.358,0,0,1,1.9.9,3.954,3.954,0,0,1,.719,2.391,7.364,7.364,0,0,1-.047.969ZM218.875,12a3.009,3.009,0,0,0-.383-1.744,1.465,1.465,0,0,0-1.242-.636,2.574,2.574,0,0,0-2.234,1.327l-.633,3.675a1.8,1.8,0,0,0,1.758,1.319,2.054,2.054,0,0,0,1.449-.492,3.212,3.212,0,0,0,.941-1.463A6.578,6.578,0,0,0,218.875,12Zm7.633,5a1.894,1.894,0,0,1-.055-.445l.023-.445a3.465,3.465,0,0,1-2.469,1.047,2.526,2.526,0,0,1-1.816-.707,2.14,2.14,0,0,1-.637-1.73,2.6,2.6,0,0,1,1.176-2.1,5.005,5.005,0,0,1,2.887-.754l1.477.008.094-.672a1.545,1.545,0,0,0-.293-1.2,1.414,1.414,0,0,0-1.113-.457A2.181,2.181,0,0,0,224.5,9.9a1.513,1.513,0,0,0-.684.98l-1.422.008a2.266,2.266,0,0,1,.578-1.316,3.363,3.363,0,0,1,1.3-.891,4.215,4.215,0,0,1,1.648-.3,2.8,2.8,0,0,1,2.055.8,2.484,2.484,0,0,1,.617,2.043l-.687,4.188-.039.6a2.949,2.949,0,0,0,.094.852l-.016.133Zm-2.219-1.094a2.466,2.466,0,0,0,1.285-.324,3.254,3.254,0,0,0,1.043-.941l.3-1.742-1.07-.008a4.054,4.054,0,0,0-2.047.422,1.554,1.554,0,0,0-.8,1.2,1.21,1.21,0,0,0,.277.988A1.321,1.321,0,0,0,224.289,15.906Zm10.8-1.2q.117-.875-.961-1.234l-1.469-.43q-1.859-.641-1.8-2.125a2.341,2.341,0,0,1,1.02-1.832,3.631,3.631,0,0,1,2.27-.7,3.027,3.027,0,0,1,2.082.746,2.363,2.363,0,0,1,.77,1.9l-1.406-.008A1.319,1.319,0,0,0,235.2,10a1.576,1.576,0,0,0-1.1-.414,2.059,2.059,0,0,0-1.266.359,1.316,1.316,0,0,0-.57.922q-.1.734.9,1.07l.711.2a4.577,4.577,0,0,1,2.063.977A1.865,1.865,0,0,1,236.5,14.6a2.37,2.37,0,0,1-.516,1.375,2.948,2.948,0,0,1-1.25.895,4.18,4.18,0,0,1-1.664.285,3.3,3.3,0,0,1-2.219-.785,2.427,2.427,0,0,1-.844-1.98l1.414.008a1.5,1.5,0,0,0,.453,1.141,1.732,1.732,0,0,0,1.242.43,2.436,2.436,0,0,0,1.336-.324A1.247,1.247,0,0,0,235.094,14.711Zm6.5,2.445a3.048,3.048,0,0,1-2.469-1.164,4.006,4.006,0,0,1-.75-2.9l.039-.336a5.624,5.624,0,0,1,.746-2.3,4.339,4.339,0,0,1,1.5-1.566,3.491,3.491,0,0,1,1.906-.5,2.688,2.688,0,0,1,2.047.867,3.566,3.566,0,0,1,.813,2.266,6.621,6.621,0,0,1-.031,1.016l-.086.648h-5.523a2.855,2.855,0,0,0,.379,1.953,1.8,1.8,0,0,0,1.551.836,3.007,3.007,0,0,0,2.313-1.125l.813.688a3.718,3.718,0,0,1-1.371,1.2A3.886,3.886,0,0,1,241.594,17.156Zm.9-7.586a2.066,2.066,0,0,0-1.527.594A4.22,4.22,0,0,0,239.93,12l4.109.008.031-.125a2.313,2.313,0,0,0-.316-1.637A1.488,1.488,0,0,0,242.492,9.57ZM3.313,39.023l3.047-6.477H7.852L3.594,41H2.516L.859,32.547H2.25ZM12.891,41a1.894,1.894,0,0,1-.055-.445l.023-.445a3.465,3.465,0,0,1-2.469,1.047,2.526,2.526,0,0,1-1.816-.707,2.14,2.14,0,0,1-.637-1.73,2.6,2.6,0,0,1,1.176-2.1A5.005,5.005,0,0,1,12,35.867l1.477.008.094-.672a1.545,1.545,0,0,0-.293-1.2,1.414,1.414,0,0,0-1.113-.457,2.181,2.181,0,0,0-1.285.355,1.513,1.513,0,0,0-.684.98l-1.422.008a2.266,2.266,0,0,1,.578-1.316,3.363,3.363,0,0,1,1.3-.891,4.215,4.215,0,0,1,1.648-.3,2.8,2.8,0,0,1,2.055.8,2.484,2.484,0,0,1,.617,2.043l-.687,4.188-.039.6a2.949,2.949,0,0,0,.094.852L14.328,41Zm-2.219-1.094a2.466,2.466,0,0,0,1.285-.324A3.254,3.254,0,0,0,13,38.641l.3-1.742-1.07-.008a4.054,4.054,0,0,0-2.047.422,1.554,1.554,0,0,0-.8,1.2,1.21,1.21,0,0,0,.277.988A1.321,1.321,0,0,0,10.672,39.906ZM17.773,41H16.367l2.078-12h1.414Zm9.3-1.977,3.047-6.477h1.492L27.359,41H26.281l-1.656-8.453h1.391ZM36.656,41a1.894,1.894,0,0,1-.055-.445l.023-.445a3.465,3.465,0,0,1-2.469,1.047,2.526,2.526,0,0,1-1.816-.707,2.14,2.14,0,0,1-.637-1.73,2.6,2.6,0,0,1,1.176-2.1,5.005,5.005,0,0,1,2.887-.754l1.477.008.094-.672a1.545,1.545,0,0,0-.293-1.2,1.414,1.414,0,0,0-1.113-.457,2.181,2.181,0,0,0-1.285.355,1.513,1.513,0,0,0-.684.98l-1.422.008a2.266,2.266,0,0,1,.578-1.316,3.363,3.363,0,0,1,1.3-.891,4.215,4.215,0,0,1,1.648-.3,2.8,2.8,0,0,1,2.055.8,2.484,2.484,0,0,1,.617,2.043l-.687,4.188-.039.6a2.949,2.949,0,0,0,.094.852L38.094,41Zm-2.219-1.094a2.466,2.466,0,0,0,1.285-.324,3.254,3.254,0,0,0,1.043-.941l.3-1.742L36,36.891a4.054,4.054,0,0,0-2.047.422,1.554,1.554,0,0,0-.8,1.2,1.21,1.21,0,0,0,.277.988A1.321,1.321,0,0,0,34.438,39.906ZM41.539,41H40.133l2.078-12h1.414Zm7.68-.836a3.265,3.265,0,0,1-2.523.992,2.107,2.107,0,0,1-1.793-.867,3.317,3.317,0,0,1-.434-2.281l.906-5.461h1.414l-.914,5.484a3.642,3.642,0,0,0-.016.672,1.4,1.4,0,0,0,.336.883,1.146,1.146,0,0,0,.828.344A2.537,2.537,0,0,0,49.367,38.7l1.063-6.156h1.414L50.375,41H49.039Zm6.922.992a3.048,3.048,0,0,1-2.469-1.164,4.006,4.006,0,0,1-.75-2.9l.039-.336a5.624,5.624,0,0,1,.746-2.3,4.339,4.339,0,0,1,1.5-1.566,3.491,3.491,0,0,1,1.906-.5,2.688,2.688,0,0,1,2.047.867,3.566,3.566,0,0,1,.813,2.266,6.621,6.621,0,0,1-.031,1.016l-.086.648H54.328a2.856,2.856,0,0,0,.379,1.953,1.8,1.8,0,0,0,1.551.836,3.007,3.007,0,0,0,2.313-1.125l.813.688a3.718,3.718,0,0,1-1.371,1.2A3.886,3.886,0,0,1,56.141,41.156Zm.9-7.586a2.066,2.066,0,0,0-1.527.594A4.22,4.22,0,0,0,54.477,36l4.109.008.031-.125a2.313,2.313,0,0,0-.316-1.637A1.488,1.488,0,0,0,57.039,33.57Zm8.977,5.141q.117-.875-.961-1.234l-1.469-.43q-1.859-.641-1.8-2.125a2.341,2.341,0,0,1,1.02-1.832,3.631,3.631,0,0,1,2.27-.7,3.027,3.027,0,0,1,2.082.746,2.363,2.363,0,0,1,.77,1.9l-1.406-.008a1.319,1.319,0,0,0-.4-1.031,1.576,1.576,0,0,0-1.1-.414,2.059,2.059,0,0,0-1.266.359,1.316,1.316,0,0,0-.57.922q-.1.734.9,1.07l.711.2a4.577,4.577,0,0,1,2.063.977,1.865,1.865,0,0,1,.563,1.492,2.37,2.37,0,0,1-.516,1.375,2.948,2.948,0,0,1-1.25.895,4.18,4.18,0,0,1-1.664.285,3.3,3.3,0,0,1-2.219-.785,2.427,2.427,0,0,1-.844-1.98l1.414.008a1.5,1.5,0,0,0,.453,1.141,1.732,1.732,0,0,0,1.242.43,2.436,2.436,0,0,0,1.336-.324A1.247,1.247,0,0,0,66.016,38.711ZM80.3,34.641H73.977l.219-1.258h6.336Zm-.562,3.242H73.414l.219-1.25h6.336Zm14.445-.508a4.535,4.535,0,0,1-1.6,2.8,4.476,4.476,0,0,1-3.043.984,3.544,3.544,0,0,1-1.844-.52,3.283,3.283,0,0,1-1.227-1.43,5.34,5.34,0,0,1-.484-2.066,6.623,6.623,0,0,1,.055-1.25l.133-.937a7.076,7.076,0,0,1,1.8-4.043,4.544,4.544,0,0,1,3.488-1.441A3.4,3.4,0,0,1,94.008,30.5,4.117,4.117,0,0,1,95,33.289H93.539q-.1-2.391-1.875-2.578l-.258-.016a3.019,3.019,0,0,0-2.465,1.1A5.942,5.942,0,0,0,87.664,34.9l-.172,1.18-.047.688a3.867,3.867,0,0,0,.512,2.285,1.929,1.929,0,0,0,1.66.879,2.924,2.924,0,0,0,1.965-.57A3.8,3.8,0,0,0,92.766,37.4Zm5.984-4.984a3.047,3.047,0,0,1,1.82.578,3.285,3.285,0,0,1,1.121,1.551,4.8,4.8,0,0,1,.246,2.16l-.016.172a5.685,5.685,0,0,1-.734,2.23,4.309,4.309,0,0,1-1.516,1.551,3.7,3.7,0,0,1-2.039.523,3.052,3.052,0,0,1-1.816-.578,3.21,3.21,0,0,1-1.113-1.531,4.931,4.931,0,0,1-.25-2.133,5.76,5.76,0,0,1,.711-2.359,4.409,4.409,0,0,1,1.527-1.621A3.652,3.652,0,0,1,100.172,32.391ZM97.3,36.922a4.8,4.8,0,0,0,0,1.023,2.507,2.507,0,0,0,.551,1.469,1.653,1.653,0,0,0,1.262.57,2.253,2.253,0,0,0,1.3-.348,2.919,2.919,0,0,0,1-1.121,4.721,4.721,0,0,0,.523-1.664,7.5,7.5,0,0,0,.023-1.211,2.6,2.6,0,0,0-.57-1.492,1.69,1.69,0,0,0-1.266-.578,2.3,2.3,0,0,0-1.859.859,4.245,4.245,0,0,0-.945,2.313Zm9.914-4.383-.2,1.07a3.333,3.333,0,0,1,2.594-1.219,2.1,2.1,0,0,1,1.766.828,3.217,3.217,0,0,1,.422,2.242L110.867,41h-1.414l.93-5.557a2.962,2.962,0,0,0,.008-.71,1.168,1.168,0,0,0-1.289-1.116,2.661,2.661,0,0,0-2.234,1.358L105.82,41h-1.414l1.469-8.453Zm9.57-2.039-.359,2.047h1.539l-.2,1.117h-1.531l-.883,5.258a1.833,1.833,0,0,0-.008.375.6.6,0,0,0,.664.609,4.05,4.05,0,0,0,.688-.078l-.109,1.18a3.847,3.847,0,0,1-1.031.141,1.476,1.476,0,0,1-1.266-.621,2.4,2.4,0,0,1-.328-1.629l.859-5.234h-1.492l.2-1.117h1.492l.359-2.047Zm5.07,10.656a3.048,3.048,0,0,1-2.469-1.164,4.006,4.006,0,0,1-.75-2.9l.039-.336a5.624,5.624,0,0,1,.746-2.3,4.339,4.339,0,0,1,1.5-1.566,3.491,3.491,0,0,1,1.906-.5,2.688,2.688,0,0,1,2.047.867,3.566,3.566,0,0,1,.813,2.266,6.62,6.62,0,0,1-.031,1.016l-.086.648h-5.523a2.856,2.856,0,0,0,.379,1.953,1.8,1.8,0,0,0,1.551.836,3.007,3.007,0,0,0,2.313-1.125l.813.688a3.718,3.718,0,0,1-1.371,1.2A3.886,3.886,0,0,1,121.852,41.156Zm.9-7.586a2.066,2.066,0,0,0-1.527.594A4.22,4.22,0,0,0,120.188,36l4.109.008.031-.125a2.313,2.313,0,0,0-.316-1.637A1.488,1.488,0,0,0,122.75,33.57Zm6.547-1.031-.2,1.07a3.333,3.333,0,0,1,2.594-1.219,2.1,2.1,0,0,1,1.766.828,3.217,3.217,0,0,1,.422,2.242L132.953,41h-1.414l.93-5.557a2.962,2.962,0,0,0,.008-.71,1.168,1.168,0,0,0-1.289-1.116,2.661,2.661,0,0,0-2.234,1.358L127.906,41h-1.414l1.469-8.453Zm9.57-2.039-.359,2.047h1.539l-.2,1.117H138.32l-.883,5.258a1.833,1.833,0,0,0-.008.375.6.6,0,0,0,.664.609,4.05,4.05,0,0,0,.688-.078l-.109,1.18a3.847,3.847,0,0,1-1.031.141,1.476,1.476,0,0,1-1.266-.621,2.4,2.4,0,0,1-.328-1.629l.859-5.234h-1.492l.2-1.117H137.1l.359-2.047Zm5.656,8.492,4.617-9.367H150.8L144.922,41h-1.3l-2.3-11.375h1.539ZM155.047,41a1.894,1.894,0,0,1-.055-.445l.023-.445a3.465,3.465,0,0,1-2.469,1.047,2.526,2.526,0,0,1-1.816-.707,2.14,2.14,0,0,1-.637-1.73,2.6,2.6,0,0,1,1.176-2.1,5.005,5.005,0,0,1,2.887-.754l1.477.008.094-.672a1.545,1.545,0,0,0-.293-1.2,1.414,1.414,0,0,0-1.113-.457,2.181,2.181,0,0,0-1.285.355,1.513,1.513,0,0,0-.684.98l-1.422.008a2.266,2.266,0,0,1,.578-1.316,3.363,3.363,0,0,1,1.3-.891,4.215,4.215,0,0,1,1.648-.3,2.8,2.8,0,0,1,2.055.8,2.484,2.484,0,0,1,.617,2.043l-.687,4.188-.039.6a2.949,2.949,0,0,0,.094.852l-.016.133Zm-2.219-1.094a2.466,2.466,0,0,0,1.285-.324,3.254,3.254,0,0,0,1.043-.941l.3-1.742-1.07-.008a4.054,4.054,0,0,0-2.047.422,1.554,1.554,0,0,0-.8,1.2,1.21,1.21,0,0,0,.277.988A1.321,1.321,0,0,0,152.828,39.906ZM159.93,41h-1.406L160.6,29h1.414Zm7.68-.836a3.265,3.265,0,0,1-2.523.992,2.106,2.106,0,0,1-1.793-.867,3.317,3.317,0,0,1-.434-2.281l.906-5.461h1.414l-.914,5.484a3.642,3.642,0,0,0-.016.672,1.4,1.4,0,0,0,.336.883,1.146,1.146,0,0,0,.828.344,2.536,2.536,0,0,0,2.344-1.227l1.063-6.156h1.414L168.766,41H167.43Zm6.922.992a3.048,3.048,0,0,1-2.469-1.164,4.006,4.006,0,0,1-.75-2.9l.039-.336a5.624,5.624,0,0,1,.746-2.3,4.339,4.339,0,0,1,1.5-1.566,3.491,3.491,0,0,1,1.906-.5,2.688,2.688,0,0,1,2.047.867,3.566,3.566,0,0,1,.813,2.266,6.621,6.621,0,0,1-.031,1.016l-.086.648h-5.523a2.855,2.855,0,0,0,.379,1.953,1.8,1.8,0,0,0,1.551.836,3.007,3.007,0,0,0,2.313-1.125l.813.688a3.718,3.718,0,0,1-1.371,1.2A3.886,3.886,0,0,1,174.531,41.156Zm.9-7.586a2.066,2.066,0,0,0-1.527.594A4.22,4.22,0,0,0,172.867,36l4.109.008.031-.125a2.313,2.313,0,0,0-.316-1.637A1.488,1.488,0,0,0,175.43,33.57Zm8.977,5.141q.117-.875-.961-1.234l-1.469-.43q-1.859-.641-1.8-2.125a2.341,2.341,0,0,1,1.02-1.832,3.631,3.631,0,0,1,2.27-.7,3.027,3.027,0,0,1,2.082.746,2.363,2.363,0,0,1,.77,1.9l-1.406-.008a1.319,1.319,0,0,0-.4-1.031,1.576,1.576,0,0,0-1.1-.414,2.059,2.059,0,0,0-1.266.359,1.316,1.316,0,0,0-.57.922q-.1.734.9,1.07l.711.2a4.577,4.577,0,0,1,2.063.977,1.865,1.865,0,0,1,.563,1.492,2.37,2.37,0,0,1-.516,1.375,2.948,2.948,0,0,1-1.25.895,4.18,4.18,0,0,1-1.664.285,3.3,3.3,0,0,1-2.219-.785,2.427,2.427,0,0,1-.844-1.98l1.414.008a1.5,1.5,0,0,0,.453,1.141,1.732,1.732,0,0,0,1.242.43,2.436,2.436,0,0,0,1.336-.324A1.247,1.247,0,0,0,184.406,38.711Zm3.641-2.3A14.79,14.79,0,0,1,189,32.9a10.894,10.894,0,0,1,1.715-2.918,7.045,7.045,0,0,1,2.266-1.824l.211.969a8.108,8.108,0,0,0-2.105,2.387,12.281,12.281,0,0,0-1.355,3.5,16.834,16.834,0,0,0-.461,4,8.85,8.85,0,0,0,.418,2.848A4.494,4.494,0,0,0,190.9,43.8l-.352.875a5.641,5.641,0,0,1-2-2.68,10.335,10.335,0,0,1-.629-4.062,12.352,12.352,0,0,1,.109-1.43Zm8.617.016a14.5,14.5,0,0,1-.992,3.605,10.841,10.841,0,0,1-1.723,2.867,7.163,7.163,0,0,1-2.223,1.777l-.219-.9q2.68-2.016,3.578-6.477a16.834,16.834,0,0,0,.344-3.461q-.039-3.352-1.625-4.8l.367-.875a5.179,5.179,0,0,1,1.48,1.621,7.645,7.645,0,0,1,.891,2.352,12.043,12.043,0,0,1,.254,2.777,13.344,13.344,0,0,1-.117,1.43Zm2.484,2.93a.846.846,0,0,1,.633.234.807.807,0,0,1,.242.625.844.844,0,0,1-.258.621.929.929,0,0,1-.625.254.788.788,0,0,1-.859-.828.874.874,0,0,1,.867-.906Zm8.3,1.641a1.894,1.894,0,0,1-.055-.445l.023-.445a3.465,3.465,0,0,1-2.469,1.047,2.526,2.526,0,0,1-1.816-.707,2.14,2.14,0,0,1-.637-1.73,2.6,2.6,0,0,1,1.176-2.1,5.005,5.005,0,0,1,2.887-.754l1.477.008.094-.672a1.545,1.545,0,0,0-.293-1.2,1.414,1.414,0,0,0-1.113-.457,2.181,2.181,0,0,0-1.285.355,1.513,1.513,0,0,0-.684.98l-1.422.008a2.266,2.266,0,0,1,.578-1.316,3.363,3.363,0,0,1,1.3-.891,4.215,4.215,0,0,1,1.648-.3,2.8,2.8,0,0,1,2.055.8,2.484,2.484,0,0,1,.617,2.043l-.687,4.188-.039.6a2.949,2.949,0,0,0,.094.852l-.016.133Zm-2.219-1.094a2.466,2.466,0,0,0,1.285-.324,3.254,3.254,0,0,0,1.043-.941l.3-1.742-1.07-.008a4.054,4.054,0,0,0-2.047.422,1.554,1.554,0,0,0-.8,1.2,1.21,1.21,0,0,0,.277.988A1.321,1.321,0,0,0,205.227,39.906Zm13.227-3.094a6.707,6.707,0,0,1-.7,2.32,3.949,3.949,0,0,1-1.336,1.543,3.058,3.058,0,0,1-1.766.488,2.815,2.815,0,0,1-2.25-.992l-.758,4.078h-1.414l2.031-11.7,1.281-.008-.156.945a3.207,3.207,0,0,1,2.508-1.094,2.358,2.358,0,0,1,1.9.9,3.954,3.954,0,0,1,.719,2.391,8.414,8.414,0,0,1-.039.969Zm-1.391-.16L217.1,36a2.969,2.969,0,0,0-.434-1.744,1.525,1.525,0,0,0-1.254-.636A2.508,2.508,0,0,0,213.3,34.78l-.711,4.05a1.769,1.769,0,0,0,1.711,1.155,2.224,2.224,0,0,0,1.793-.823A4.777,4.777,0,0,0,217.063,36.652Zm10.18.16a6.707,6.707,0,0,1-.7,2.32,3.949,3.949,0,0,1-1.336,1.543,3.058,3.058,0,0,1-1.766.488,2.815,2.815,0,0,1-2.25-.992l-.758,4.078h-1.414l2.031-11.7,1.281-.008-.156.945a3.207,3.207,0,0,1,2.508-1.094,2.358,2.358,0,0,1,1.9.9,3.954,3.954,0,0,1,.719,2.391,8.414,8.414,0,0,1-.039.969Zm-1.391-.16.039-.655a2.969,2.969,0,0,0-.434-1.744,1.525,1.525,0,0,0-1.254-.636,2.508,2.508,0,0,0-2.117,1.163l-.711,4.05a1.769,1.769,0,0,0,1.711,1.155,2.224,2.224,0,0,0,1.793-.823A4.777,4.777,0,0,0,225.852,36.652ZM229.906,41H228.5l2.078-12h1.414Zm5.344-2.133,3.008-6.32h1.563L234.8,42.406q-1.047,2.055-2.687,2.031a4.6,4.6,0,0,1-.852-.141l.125-1.172.367.039a1.853,1.853,0,0,0,1.16-.3,2.772,2.772,0,0,0,.863-1.074l.508-.969-1.461-8.273H234.3Zm11.8,4.984a3.249,3.249,0,0,1-1.812-1.348,3.487,3.487,0,0,1-.43-2.277l.219-1.617a2.968,2.968,0,0,0,.008-.711,1.2,1.2,0,0,0-1.281-1.125l.125-1.133a1.925,1.925,0,0,0,1.945-1.914l.242-1.781a4.125,4.125,0,0,1,3.2-3.437l.211.914a3.018,3.018,0,0,0-2.008,2.633l-.266,1.875a3.024,3.024,0,0,1-1.648,2.3,2.218,2.218,0,0,1,.883,1.711,4.225,4.225,0,0,1-.008.68l-.242,1.9-.016.555.016.242a1.839,1.839,0,0,0,1.18,1.656ZM23.586,60.813a6.707,6.707,0,0,1-.7,2.32,3.949,3.949,0,0,1-1.336,1.543,3.058,3.058,0,0,1-1.766.488,2.815,2.815,0,0,1-2.25-.992l-.758,4.078H15.367l2.031-11.7,1.281-.008-.156.945a3.207,3.207,0,0,1,2.508-1.094,2.358,2.358,0,0,1,1.9.9,3.954,3.954,0,0,1,.719,2.391,8.413,8.413,0,0,1-.039.969Zm-1.391-.16L22.234,60a2.969,2.969,0,0,0-.434-1.744,1.525,1.525,0,0,0-1.254-.636A2.508,2.508,0,0,0,18.43,58.78l-.711,4.05a1.769,1.769,0,0,0,1.711,1.155,2.224,2.224,0,0,0,1.793-.823A4.777,4.777,0,0,0,22.2,60.652Zm7.891,3.512a3.265,3.265,0,0,1-2.523.992,2.107,2.107,0,0,1-1.793-.867,3.317,3.317,0,0,1-.434-2.281l.906-5.461h1.414l-.914,5.484a3.643,3.643,0,0,0-.016.672,1.4,1.4,0,0,0,.336.883,1.146,1.146,0,0,0,.828.344A2.537,2.537,0,0,0,30.234,62.7L31.3,56.547h1.414L31.242,65H29.906Zm7-9.664-.359,2.047h1.539l-.2,1.117H36.539l-.883,5.258a1.833,1.833,0,0,0-.008.375.6.6,0,0,0,.664.609A4.05,4.05,0,0,0,37,63.828l-.109,1.18a3.847,3.847,0,0,1-1.031.141,1.476,1.476,0,0,1-1.266-.621,2.4,2.4,0,0,1-.328-1.629l.859-5.234H33.633l.2-1.117H35.32L35.68,54.5ZM39.3,60.414a14.789,14.789,0,0,1,.957-3.516,10.894,10.894,0,0,1,1.715-2.918,7.045,7.045,0,0,1,2.266-1.824l.211.969a8.108,8.108,0,0,0-2.105,2.387,12.281,12.281,0,0,0-1.355,3.5,16.834,16.834,0,0,0-.461,4,8.85,8.85,0,0,0,.418,2.848A4.494,4.494,0,0,0,42.148,67.8l-.352.875a5.641,5.641,0,0,1-2-2.68,10.335,10.335,0,0,1-.629-4.062,12.351,12.351,0,0,1,.109-1.43Zm7.664-7.562.781.578a5.092,5.092,0,0,0-1.086,2.141l-.187,1.047H45.063l.141-.875A4.494,4.494,0,0,1,46.961,52.852Zm2.383,0,.781.578a5.092,5.092,0,0,0-1.086,2.141l-.187,1.047H47.445l.141-.875A4.494,4.494,0,0,1,49.344,52.852Zm2.75,3.688-.2,1.07a3.333,3.333,0,0,1,2.594-1.219,2.1,2.1,0,0,1,1.766.828,3.217,3.217,0,0,1,.422,2.242L55.75,65H54.336l.93-5.557a2.962,2.962,0,0,0,.008-.71,1.168,1.168,0,0,0-1.289-1.116,2.661,2.661,0,0,0-2.234,1.358L50.7,65H49.289l1.469-8.453Zm10.531-.148a3.047,3.047,0,0,1,1.82.578,3.285,3.285,0,0,1,1.121,1.551,4.8,4.8,0,0,1,.246,2.16l-.016.172a5.685,5.685,0,0,1-.734,2.23,4.309,4.309,0,0,1-1.516,1.551,3.7,3.7,0,0,1-2.039.523,3.052,3.052,0,0,1-1.816-.578,3.21,3.21,0,0,1-1.113-1.531,4.931,4.931,0,0,1-.25-2.133,5.76,5.76,0,0,1,.711-2.359,4.409,4.409,0,0,1,1.527-1.621A3.652,3.652,0,0,1,62.625,56.391ZM59.75,60.922a4.8,4.8,0,0,0,0,1.023,2.507,2.507,0,0,0,.551,1.469,1.653,1.653,0,0,0,1.262.57,2.253,2.253,0,0,0,1.3-.348,2.919,2.919,0,0,0,1-1.121,4.721,4.721,0,0,0,.523-1.664,7.5,7.5,0,0,0,.023-1.211,2.6,2.6,0,0,0-.57-1.492,1.69,1.69,0,0,0-1.266-.578,2.3,2.3,0,0,0-1.859.859,4.245,4.245,0,0,0-.945,2.313Zm9.9-4.383-.18.945a3.305,3.305,0,0,1,2.57-1.094,2.608,2.608,0,0,1,1.363.367,1.8,1.8,0,0,1,.77.992,3.49,3.49,0,0,1,2.8-1.359,2.235,2.235,0,0,1,1.867.852,3.042,3.042,0,0,1,.445,2.2L78.359,65H76.953l.922-5.57a2.943,2.943,0,0,0,0-.742q-.148-1.062-1.391-1.086a2.136,2.136,0,0,0-1.4.48,2.222,2.222,0,0,0-.809,1.3L73.313,65H71.891l.938-5.562a1.786,1.786,0,0,0-.262-1.336,1.377,1.377,0,0,0-1.129-.484,2.315,2.315,0,0,0-2.1,1.2L68.266,65H66.852l1.469-8.453Zm18.563,4.273a6.586,6.586,0,0,1-.711,2.336,3.982,3.982,0,0,1-1.344,1.539,3.058,3.058,0,0,1-1.75.477,2.61,2.61,0,0,1-2.273-1.148L81.844,65h-1.3l2.086-12h1.414l-.852,4.484a3.107,3.107,0,0,1,2.469-1.094,2.358,2.358,0,0,1,1.9.9,3.954,3.954,0,0,1,.719,2.391,7.362,7.362,0,0,1-.047.969ZM86.867,60a3.009,3.009,0,0,0-.383-1.744,1.465,1.465,0,0,0-1.242-.636,2.574,2.574,0,0,0-2.234,1.327l-.633,3.675a1.8,1.8,0,0,0,1.758,1.319,2.054,2.054,0,0,0,1.449-.492,3.212,3.212,0,0,0,.941-1.463A6.578,6.578,0,0,0,86.867,60Zm7.719-2.161-.664-.07a2.42,2.42,0,0,0-2.141,1.227L90.742,65H89.328L90.8,56.547l1.367-.008-.211.984a2.527,2.527,0,0,1,2.117-1.148,2.594,2.594,0,0,1,.672.117Zm3.727,7.32a3.048,3.048,0,0,1-2.469-1.164,4.006,4.006,0,0,1-.75-2.9l.039-.336a5.624,5.624,0,0,1,.746-2.3,4.339,4.339,0,0,1,1.5-1.566,3.491,3.491,0,0,1,1.906-.5,2.688,2.688,0,0,1,2.047.867,3.566,3.566,0,0,1,.813,2.266,6.62,6.62,0,0,1-.031,1.016l-.086.648H96.5a2.856,2.856,0,0,0,.379,1.953,1.8,1.8,0,0,0,1.551.836,3.007,3.007,0,0,0,2.313-1.125l.813.688a3.718,3.718,0,0,1-1.371,1.2A3.886,3.886,0,0,1,98.313,65.156Zm.9-7.586a2.066,2.066,0,0,0-1.527.594A4.22,4.22,0,0,0,96.648,60l4.109.008.031-.125a2.313,2.313,0,0,0-.316-1.637A1.488,1.488,0,0,0,99.211,57.57Zm5.336-.742-.781-.578a4.992,4.992,0,0,0,1.109-2.227l.18-1.023h1.391l-.148.945A4.4,4.4,0,0,1,104.547,56.828Zm2.32,0-.781-.578a4.992,4.992,0,0,0,1.109-2.227l.18-1.023h1.391l-.148.945A4.4,4.4,0,0,1,106.867,56.828Zm1.281,10.445-.812-.586a5.16,5.16,0,0,0,1.125-2.219l.2-1.18h1.383l-.164,1.055A4.521,4.521,0,0,1,108.148,67.273Zm10.438-14.422.781.578a5.091,5.091,0,0,0-1.086,2.141l-.187,1.047h-1.406l.141-.875A4.494,4.494,0,0,1,118.586,52.852Zm2.383,0,.781.578a5.091,5.091,0,0,0-1.086,2.141l-.187,1.047H119.07l.141-.875A4.494,4.494,0,0,1,120.969,52.852Zm8.992,8.523a4.535,4.535,0,0,1-1.6,2.8,4.476,4.476,0,0,1-3.043.984,3.544,3.544,0,0,1-1.844-.52,3.283,3.283,0,0,1-1.227-1.43,5.34,5.34,0,0,1-.484-2.066,6.623,6.623,0,0,1,.055-1.25l.133-.937a7.076,7.076,0,0,1,1.8-4.043,4.544,4.544,0,0,1,3.488-1.441,3.4,3.4,0,0,1,2.539,1.035,4.117,4.117,0,0,1,.992,2.785h-1.461q-.1-2.391-1.875-2.578l-.258-.016a3.019,3.019,0,0,0-2.465,1.1,5.942,5.942,0,0,0-1.277,3.105l-.172,1.18-.047.688a3.867,3.867,0,0,0,.512,2.285,1.929,1.929,0,0,0,1.66.879,2.924,2.924,0,0,0,1.965-.57,3.8,3.8,0,0,0,1.184-1.961ZM136.422,65a1.894,1.894,0,0,1-.055-.445l.023-.445a3.465,3.465,0,0,1-2.469,1.047,2.526,2.526,0,0,1-1.816-.707,2.14,2.14,0,0,1-.637-1.73,2.6,2.6,0,0,1,1.176-2.1,5.005,5.005,0,0,1,2.887-.754l1.477.008.094-.672a1.545,1.545,0,0,0-.293-1.2,1.414,1.414,0,0,0-1.113-.457,2.181,2.181,0,0,0-1.285.355,1.513,1.513,0,0,0-.684.98l-1.422.008a2.266,2.266,0,0,1,.578-1.316,3.363,3.363,0,0,1,1.3-.891,4.215,4.215,0,0,1,1.648-.3,2.8,2.8,0,0,1,2.055.8,2.484,2.484,0,0,1,.617,2.043l-.687,4.188-.039.6a2.949,2.949,0,0,0,.094.852l-.016.133ZM134.2,63.906a2.466,2.466,0,0,0,1.285-.324,3.254,3.254,0,0,0,1.043-.941l.3-1.742-1.07-.008a4.054,4.054,0,0,0-2.047.422,1.554,1.554,0,0,0-.8,1.2,1.21,1.21,0,0,0,.277.988A1.321,1.321,0,0,0,134.2,63.906Zm10.828-6.07-.664-.07a2.42,2.42,0,0,0-2.141,1.227L141.188,65h-1.414l1.469-8.453,1.367-.008-.211.984a2.527,2.527,0,0,1,2.117-1.148,2.594,2.594,0,0,1,.672.117Zm1.6,7.164h-1.406L147.3,53h1.414Zm7.008-8.609a3.047,3.047,0,0,1,1.82.578,3.285,3.285,0,0,1,1.121,1.551,4.8,4.8,0,0,1,.246,2.16l-.016.172a5.685,5.685,0,0,1-.734,2.23,4.309,4.309,0,0,1-1.516,1.551,3.7,3.7,0,0,1-2.039.523,3.052,3.052,0,0,1-1.816-.578,3.21,3.21,0,0,1-1.113-1.531,4.931,4.931,0,0,1-.25-2.133,5.76,5.76,0,0,1,.711-2.359,4.409,4.409,0,0,1,1.527-1.621A3.652,3.652,0,0,1,153.641,56.391Zm-2.875,4.531a4.8,4.8,0,0,0,0,1.023,2.507,2.507,0,0,0,.551,1.469,1.653,1.653,0,0,0,1.262.57,2.253,2.253,0,0,0,1.3-.348,2.919,2.919,0,0,0,1-1.121,4.721,4.721,0,0,0,.523-1.664,7.493,7.493,0,0,0,.023-1.211,2.6,2.6,0,0,0-.57-1.492,1.69,1.69,0,0,0-1.266-.578,2.3,2.3,0,0,0-1.859.859,4.245,4.245,0,0,0-.945,2.313Zm12.344,1.789q.117-.875-.961-1.234l-1.469-.43q-1.859-.641-1.8-2.125a2.341,2.341,0,0,1,1.02-1.832,3.631,3.631,0,0,1,2.27-.7,3.027,3.027,0,0,1,2.082.746,2.363,2.363,0,0,1,.77,1.9l-1.406-.008a1.319,1.319,0,0,0-.4-1.031,1.576,1.576,0,0,0-1.1-.414,2.059,2.059,0,0,0-1.266.359,1.316,1.316,0,0,0-.57.922q-.1.734.9,1.07l.711.2a4.577,4.577,0,0,1,2.063.977,1.865,1.865,0,0,1,.563,1.492A2.37,2.37,0,0,1,164,63.977a2.948,2.948,0,0,1-1.25.895,4.18,4.18,0,0,1-1.664.285,3.3,3.3,0,0,1-2.219-.785,2.427,2.427,0,0,1-.844-1.98l1.414.008a1.5,1.5,0,0,0,.453,1.141,1.732,1.732,0,0,0,1.242.43,2.436,2.436,0,0,0,1.336-.324A1.247,1.247,0,0,0,163.109,62.711Zm13.375-.641q.172-1.25-1.3-1.828l-1.352-.492-.453-.2q-2.281-1.039-2.133-2.922a3.056,3.056,0,0,1,.648-1.672,3.69,3.69,0,0,1,1.512-1.121,4.849,4.849,0,0,1,2-.371,4,4,0,0,1,1.84.461,2.962,2.962,0,0,1,1.23,1.223,3.333,3.333,0,0,1,.375,1.77l-1.477-.008a2.037,2.037,0,0,0-.469-1.627,2.1,2.1,0,0,0-1.562-.592,2.91,2.91,0,0,0-1.789.5,1.955,1.955,0,0,0-.828,1.409q-.156,1.166,1.43,1.769l1.164.415.586.25a2.941,2.941,0,0,1,2.039,3.016,3.012,3.012,0,0,1-.648,1.66,3.626,3.626,0,0,1-1.527,1.082,5.266,5.266,0,0,1-2.074.359,4.34,4.34,0,0,1-1.957-.457,3.193,3.193,0,0,1-1.348-1.23,3.078,3.078,0,0,1-.406-1.773l1.469.008a1.935,1.935,0,0,0,.551,1.613,2.479,2.479,0,0,0,1.754.613,3.131,3.131,0,0,0,1.867-.492A1.916,1.916,0,0,0,176.484,62.07ZM184.336,65a1.894,1.894,0,0,1-.055-.445l.023-.445a3.465,3.465,0,0,1-2.469,1.047,2.526,2.526,0,0,1-1.816-.707,2.14,2.14,0,0,1-.637-1.73,2.6,2.6,0,0,1,1.176-2.1,5.005,5.005,0,0,1,2.887-.754l1.477.008.094-.672a1.545,1.545,0,0,0-.293-1.2,1.414,1.414,0,0,0-1.113-.457,2.181,2.181,0,0,0-1.285.355,1.513,1.513,0,0,0-.684.98l-1.422.008a2.266,2.266,0,0,1,.578-1.316,3.363,3.363,0,0,1,1.3-.891,4.215,4.215,0,0,1,1.648-.3,2.8,2.8,0,0,1,2.055.8,2.484,2.484,0,0,1,.617,2.043l-.687,4.188-.039.6a2.949,2.949,0,0,0,.094.852l-.016.133Zm-2.219-1.094a2.466,2.466,0,0,0,1.285-.324,3.254,3.254,0,0,0,1.043-.941l.3-1.742-1.07-.008a4.054,4.054,0,0,0-2.047.422,1.554,1.554,0,0,0-.8,1.2,1.21,1.21,0,0,0,.277.988A1.321,1.321,0,0,0,182.117,63.906ZM185.2,53h1.8l-2.391,2.3-1.242,0Zm5.289,3.539-.2,1.07a3.333,3.333,0,0,1,2.594-1.219,2.1,2.1,0,0,1,1.766.828,3.217,3.217,0,0,1,.422,2.242L194.148,65h-1.414l.93-5.557a2.962,2.962,0,0,0,.008-.71,1.168,1.168,0,0,0-1.289-1.116,2.661,2.661,0,0,0-2.234,1.358L189.1,65h-1.414l1.469-8.453Zm9.406,7.445a2.145,2.145,0,0,0,1.367-.441,2.1,2.1,0,0,0,.8-1.2l1.336-.008a3.014,3.014,0,0,1-.637,1.453,3.68,3.68,0,0,1-2.926,1.367,3.017,3.017,0,0,1-1.785-.551,3.084,3.084,0,0,1-1.074-1.492,4.972,4.972,0,0,1-.234-2.152l.039-.391a5.605,5.605,0,0,1,.711-2.18,4.11,4.11,0,0,1,1.469-1.5,3.648,3.648,0,0,1,2-.5,2.857,2.857,0,0,1,2.125.891,3.08,3.08,0,0,1,.8,2.18l-1.32-.008a2.029,2.029,0,0,0-.461-1.34,1.607,1.607,0,0,0-1.2-.543,2.254,2.254,0,0,0-1.832.82,4.3,4.3,0,0,0-.91,2.359l-.023.2a6.777,6.777,0,0,0-.016,1.031,2.355,2.355,0,0,0,.516,1.445A1.656,1.656,0,0,0,199.9,63.984Zm7.273-6.406a3.275,3.275,0,0,1,2.555-1.18,2.058,2.058,0,0,1,1.762.816,3.217,3.217,0,0,1,.426,2.246L210.992,65h-1.414l.93-5.562a2.968,2.968,0,0,0,.008-.711,1.168,1.168,0,0,0-1.289-1.117,2.6,2.6,0,0,0-2.234,1.359L205.945,65h-1.414l2.086-12h1.414Zm9.641,7.578a3.048,3.048,0,0,1-2.469-1.164,4.006,4.006,0,0,1-.75-2.9l.039-.336a5.624,5.624,0,0,1,.746-2.3,4.339,4.339,0,0,1,1.5-1.566,3.491,3.491,0,0,1,1.906-.5,2.688,2.688,0,0,1,2.047.867,3.566,3.566,0,0,1,.813,2.266,6.621,6.621,0,0,1-.031,1.016l-.086.648H215a2.855,2.855,0,0,0,.379,1.953,1.8,1.8,0,0,0,1.551.836,3.007,3.007,0,0,0,2.313-1.125l.813.688a3.718,3.718,0,0,1-1.371,1.2A3.886,3.886,0,0,1,216.813,65.156Zm.9-7.586a2.066,2.066,0,0,0-1.527.594A4.22,4.22,0,0,0,215.148,60l4.109.008.031-.125a2.313,2.313,0,0,0-.316-1.637A1.488,1.488,0,0,0,217.711,57.57Zm5.328,6.25h4.75L227.578,65h-6.516l.2-1.133,5.539-6.125h-4.414l.219-1.2h6.219l-.187,1.094Zm7.891-6.992-.781-.578a4.992,4.992,0,0,0,1.109-2.227l.18-1.023h1.391l-.148.945A4.4,4.4,0,0,1,230.93,56.828Zm2.32,0-.781-.578a4.992,4.992,0,0,0,1.109-2.227l.18-1.023h1.391l-.148.945A4.4,4.4,0,0,1,233.25,56.828Zm5.625,3.6a14.5,14.5,0,0,1-.992,3.605A10.841,10.841,0,0,1,236.16,66.9a7.163,7.163,0,0,1-2.223,1.777l-.219-.9q2.68-2.016,3.578-6.477a16.834,16.834,0,0,0,.344-3.461q-.039-3.352-1.625-4.8l.367-.875a5.179,5.179,0,0,1,1.48,1.621,7.645,7.645,0,0,1,.891,2.352,12.043,12.043,0,0,1,.254,2.777,13.344,13.344,0,0,1-.117,1.43ZM23.586,84.813a6.707,6.707,0,0,1-.7,2.32,3.949,3.949,0,0,1-1.336,1.543,3.058,3.058,0,0,1-1.766.488,2.815,2.815,0,0,1-2.25-.992l-.758,4.078H15.367l2.031-11.7,1.281-.008-.156.945a3.207,3.207,0,0,1,2.508-1.094,2.358,2.358,0,0,1,1.9.9,3.954,3.954,0,0,1,.719,2.391,8.413,8.413,0,0,1-.039.969Zm-1.391-.16L22.234,84a2.969,2.969,0,0,0-.434-1.744,1.525,1.525,0,0,0-1.254-.636A2.508,2.508,0,0,0,18.43,82.78l-.711,4.05a1.769,1.769,0,0,0,1.711,1.155,2.224,2.224,0,0,0,1.793-.823A4.777,4.777,0,0,0,22.2,84.652Zm7.891,3.512a3.265,3.265,0,0,1-2.523.992,2.107,2.107,0,0,1-1.793-.867,3.317,3.317,0,0,1-.434-2.281l.906-5.461h1.414l-.914,5.484a3.643,3.643,0,0,0-.016.672,1.4,1.4,0,0,0,.336.883,1.146,1.146,0,0,0,.828.344A2.537,2.537,0,0,0,30.234,86.7L31.3,80.547h1.414L31.242,89H29.906Zm7-9.664-.359,2.047h1.539l-.2,1.117H36.539l-.883,5.258a1.833,1.833,0,0,0-.008.375.6.6,0,0,0,.664.609A4.05,4.05,0,0,0,37,87.828l-.109,1.18a3.847,3.847,0,0,1-1.031.141,1.476,1.476,0,0,1-1.266-.621,2.4,2.4,0,0,1-.328-1.629l.859-5.234H33.633l.2-1.117H35.32L35.68,78.5ZM39.3,84.414a14.789,14.789,0,0,1,.957-3.516,10.894,10.894,0,0,1,1.715-2.918,7.045,7.045,0,0,1,2.266-1.824l.211.969a8.108,8.108,0,0,0-2.105,2.387,12.281,12.281,0,0,0-1.355,3.5,16.834,16.834,0,0,0-.461,4,8.85,8.85,0,0,0,.418,2.848A4.494,4.494,0,0,0,42.148,91.8l-.352.875a5.641,5.641,0,0,1-2-2.68,10.335,10.335,0,0,1-.629-4.062,12.351,12.351,0,0,1,.109-1.43Zm7.664-7.562.781.578a5.092,5.092,0,0,0-1.086,2.141l-.187,1.047H45.063l.141-.875A4.494,4.494,0,0,1,46.961,76.852Zm2.383,0,.781.578a5.092,5.092,0,0,0-1.086,2.141l-.187,1.047H47.445l.141-.875A4.494,4.494,0,0,1,49.344,76.852Zm3.758,12.3a3.048,3.048,0,0,1-2.469-1.164,4.006,4.006,0,0,1-.75-2.9l.039-.336a5.624,5.624,0,0,1,.746-2.3,4.339,4.339,0,0,1,1.5-1.566,3.491,3.491,0,0,1,1.906-.5,2.688,2.688,0,0,1,2.047.867,3.566,3.566,0,0,1,.813,2.266,6.621,6.621,0,0,1-.031,1.016l-.086.648H51.289a2.856,2.856,0,0,0,.379,1.953,1.8,1.8,0,0,0,1.551.836,3.007,3.007,0,0,0,2.313-1.125l.813.688a3.718,3.718,0,0,1-1.371,1.2A3.886,3.886,0,0,1,53.1,89.156ZM54,81.57a2.066,2.066,0,0,0-1.527.594A4.22,4.22,0,0,0,51.438,84l4.109.008.031-.125a2.313,2.313,0,0,0-.316-1.637A1.488,1.488,0,0,0,54,81.57Zm6.531-1.031-.18.945a3.305,3.305,0,0,1,2.57-1.094,2.608,2.608,0,0,1,1.363.367,1.8,1.8,0,0,1,.77.992,3.49,3.49,0,0,1,2.8-1.359,2.235,2.235,0,0,1,1.867.852,3.042,3.042,0,0,1,.445,2.2L69.242,89H67.836l.922-5.57a2.943,2.943,0,0,0,0-.742q-.148-1.063-1.391-1.086a2.136,2.136,0,0,0-1.4.48,2.222,2.222,0,0,0-.809,1.3L64.2,89H62.773l.938-5.562a1.786,1.786,0,0,0-.262-1.336,1.377,1.377,0,0,0-1.129-.484,2.315,2.315,0,0,0-2.1,1.2L59.148,89H57.734L59.2,80.547ZM76.594,89a1.893,1.893,0,0,1-.055-.445l.023-.445a3.465,3.465,0,0,1-2.469,1.047,2.526,2.526,0,0,1-1.816-.707,2.14,2.14,0,0,1-.637-1.73,2.6,2.6,0,0,1,1.176-2.1,5.005,5.005,0,0,1,2.887-.754l1.477.008.094-.672A1.545,1.545,0,0,0,76.98,82a1.414,1.414,0,0,0-1.113-.457,2.181,2.181,0,0,0-1.285.355,1.513,1.513,0,0,0-.684.98l-1.422.008a2.266,2.266,0,0,1,.578-1.316,3.363,3.363,0,0,1,1.3-.891,4.215,4.215,0,0,1,1.648-.3,2.8,2.8,0,0,1,2.055.8,2.484,2.484,0,0,1,.617,2.043l-.687,4.188-.039.6a2.949,2.949,0,0,0,.094.852L78.031,89Zm-2.219-1.094a2.466,2.466,0,0,0,1.285-.324,3.254,3.254,0,0,0,1.043-.941l.3-1.742-1.07-.008a4.054,4.054,0,0,0-2.047.422,1.554,1.554,0,0,0-.8,1.2,1.21,1.21,0,0,0,.277.988A1.321,1.321,0,0,0,74.375,87.906ZM81.477,89H80.07l1.469-8.453h1.406Zm1.164-11.539a.774.774,0,0,1,.6.215.8.8,0,0,1,.238.605.834.834,0,0,1-.836.852.779.779,0,0,1-.6-.211.764.764,0,0,1-.227-.594.886.886,0,0,1,.234-.609A.826.826,0,0,1,82.641,77.461ZM85.32,89H83.914l2.078-12h1.414Zm4.016-8.172-.781-.578a4.992,4.992,0,0,0,1.109-2.227L89.844,77h1.391l-.148.945A4.4,4.4,0,0,1,89.336,80.828Zm2.32,0-.781-.578a4.992,4.992,0,0,0,1.109-2.227L92.164,77h1.391l-.148.945A4.4,4.4,0,0,1,91.656,80.828Zm1.281,10.445-.812-.586a5.16,5.16,0,0,0,1.125-2.219l.2-1.18h1.383l-.164,1.055A4.521,4.521,0,0,1,92.938,91.273Zm10.438-14.422.781.578a5.091,5.091,0,0,0-1.086,2.141l-.187,1.047h-1.406l.141-.875A4.494,4.494,0,0,1,103.375,76.852Zm2.383,0,.781.578a5.091,5.091,0,0,0-1.086,2.141l-.187,1.047h-1.406l.141-.875A4.494,4.494,0,0,1,105.758,76.852Zm3.211,11.133a2.145,2.145,0,0,0,1.367-.441,2.1,2.1,0,0,0,.8-1.2l1.336-.008a3.014,3.014,0,0,1-.637,1.453,3.68,3.68,0,0,1-2.926,1.367,3.017,3.017,0,0,1-1.785-.551,3.084,3.084,0,0,1-1.074-1.492,4.972,4.972,0,0,1-.234-2.152l.039-.391a5.605,5.605,0,0,1,.711-2.18,4.11,4.11,0,0,1,1.469-1.5,3.648,3.648,0,0,1,2-.5,2.857,2.857,0,0,1,2.125.891,3.08,3.08,0,0,1,.8,2.18l-1.32-.008a2.029,2.029,0,0,0-.461-1.34,1.607,1.607,0,0,0-1.2-.543,2.254,2.254,0,0,0-1.832.82,4.3,4.3,0,0,0-.91,2.359l-.023.2a6.776,6.776,0,0,0-.016,1.031,2.355,2.355,0,0,0,.516,1.445A1.656,1.656,0,0,0,108.969,87.984Zm9.8,1.016a1.893,1.893,0,0,1-.055-.445l.023-.445a3.465,3.465,0,0,1-2.469,1.047,2.526,2.526,0,0,1-1.816-.707,2.14,2.14,0,0,1-.637-1.73,2.6,2.6,0,0,1,1.176-2.1,5.005,5.005,0,0,1,2.887-.754l1.477.008.094-.672a1.545,1.545,0,0,0-.293-1.2,1.414,1.414,0,0,0-1.113-.457,2.181,2.181,0,0,0-1.285.355,1.513,1.513,0,0,0-.684.98l-1.422.008a2.266,2.266,0,0,1,.578-1.316,3.363,3.363,0,0,1,1.3-.891,4.215,4.215,0,0,1,1.648-.3,2.8,2.8,0,0,1,2.055.8,2.484,2.484,0,0,1,.617,2.043l-.687,4.188-.039.6a2.949,2.949,0,0,0,.094.852l-.016.133Zm-2.219-1.094a2.466,2.466,0,0,0,1.285-.324,3.254,3.254,0,0,0,1.043-.941l.3-1.742-1.07-.008a4.054,4.054,0,0,0-2.047.422,1.554,1.554,0,0,0-.8,1.2,1.21,1.21,0,0,0,.277.988A1.321,1.321,0,0,0,116.555,87.906Zm10.828-6.07-.664-.07a2.42,2.42,0,0,0-2.141,1.227L123.539,89h-1.414l1.469-8.453,1.367-.008-.211.984a2.527,2.527,0,0,1,2.117-1.148,2.594,2.594,0,0,1,.672.117Zm1.6,7.164h-1.406l2.078-12h1.414Zm7.008-8.609a3.047,3.047,0,0,1,1.82.578,3.285,3.285,0,0,1,1.121,1.551,4.8,4.8,0,0,1,.246,2.16l-.016.172a5.685,5.685,0,0,1-.734,2.23,4.309,4.309,0,0,1-1.516,1.551,3.7,3.7,0,0,1-2.039.523,3.052,3.052,0,0,1-1.816-.578,3.21,3.21,0,0,1-1.113-1.531,4.931,4.931,0,0,1-.25-2.133,5.76,5.76,0,0,1,.711-2.359,4.409,4.409,0,0,1,1.527-1.621A3.652,3.652,0,0,1,135.992,80.391Zm-2.875,4.531a4.8,4.8,0,0,0,0,1.023,2.507,2.507,0,0,0,.551,1.469,1.653,1.653,0,0,0,1.262.57,2.253,2.253,0,0,0,1.3-.348,2.919,2.919,0,0,0,1-1.121,4.721,4.721,0,0,0,.523-1.664,7.493,7.493,0,0,0,.023-1.211,2.6,2.6,0,0,0-.57-1.492,1.69,1.69,0,0,0-1.266-.578,2.3,2.3,0,0,0-1.859.859,4.245,4.245,0,0,0-.945,2.313Zm12.344,1.789q.117-.875-.961-1.234l-1.469-.43q-1.859-.641-1.8-2.125a2.341,2.341,0,0,1,1.02-1.832,3.631,3.631,0,0,1,2.27-.7,3.027,3.027,0,0,1,2.082.746,2.363,2.363,0,0,1,.77,1.9l-1.406-.008a1.319,1.319,0,0,0-.4-1.031,1.576,1.576,0,0,0-1.1-.414,2.059,2.059,0,0,0-1.266.359,1.316,1.316,0,0,0-.57.922q-.1.734.9,1.07l.711.2a4.578,4.578,0,0,1,2.063.977,1.865,1.865,0,0,1,.563,1.492,2.37,2.37,0,0,1-.516,1.375,2.948,2.948,0,0,1-1.25.895,4.18,4.18,0,0,1-1.664.285,3.3,3.3,0,0,1-2.219-.785,2.427,2.427,0,0,1-.844-1.98l1.414.008a1.5,1.5,0,0,0,.453,1.141,1.732,1.732,0,0,0,1.242.43,2.436,2.436,0,0,0,1.336-.324A1.247,1.247,0,0,0,145.461,86.711Zm11.969,2.445a1.783,1.783,0,0,1-1.121-.363,1.5,1.5,0,0,1-.527-.949,2.82,2.82,0,0,1-2.18,1.32,1.5,1.5,0,0,1-1.344-.727,3.183,3.183,0,0,1-.344-1.93,7.294,7.294,0,0,1,.672-2.566,5.337,5.337,0,0,1,1.453-2,2.854,2.854,0,0,1,1.875-.676,3.6,3.6,0,0,1,2.125.82L157,86.445a5.658,5.658,0,0,0-.078.727q-.039,1.055.719,1.078a2.007,2.007,0,0,0,1.859-1.289,8.023,8.023,0,0,0,.8-3.445,6.161,6.161,0,0,0-.359-2.477,3.153,3.153,0,0,0-1.316-1.617,4.371,4.371,0,0,0-2.223-.57,5.446,5.446,0,0,0-3.2.961,7.383,7.383,0,0,0-2.434,2.891,9.9,9.9,0,0,0-1.051,4.078,6.178,6.178,0,0,0,.367,2.523,3.374,3.374,0,0,0,1.3,1.676,3.9,3.9,0,0,0,2.141.574,5.732,5.732,0,0,0,2.648-.609l.211.914a5.363,5.363,0,0,1-2.875.68,5.05,5.05,0,0,1-2.594-.66,4.318,4.318,0,0,1-1.7-1.906,6.617,6.617,0,0,1-.6-2.895,10.6,10.6,0,0,1,2.332-6.559,7.593,7.593,0,0,1,2.516-2.031,6.442,6.442,0,0,1,2.973-.668,5.116,5.116,0,0,1,2.605.68,4.2,4.2,0,0,1,1.664,1.914,6.793,6.793,0,0,1,.574,2.852,8.942,8.942,0,0,1-.512,3.133,4.764,4.764,0,0,1-1.375,2.082A2.869,2.869,0,0,1,157.43,89.156Zm-4.3-2.451q-.039,1.334.875,1.358.836.039,1.563-1.124l.25-.413.008-.086,1.039-3.948a1.816,1.816,0,0,0-.836-.226,2.1,2.1,0,0,0-1.84,1.053,6.868,6.868,0,0,0-1.02,2.941Zm12.844,2.451a3.048,3.048,0,0,1-2.469-1.164,4.006,4.006,0,0,1-.75-2.9l.039-.336a5.624,5.624,0,0,1,.746-2.3,4.339,4.339,0,0,1,1.5-1.566,3.491,3.491,0,0,1,1.906-.5,2.688,2.688,0,0,1,2.047.867,3.566,3.566,0,0,1,.813,2.266,6.621,6.621,0,0,1-.031,1.016l-.086.648h-5.523a2.855,2.855,0,0,0,.379,1.953,1.8,1.8,0,0,0,1.551.836,3.007,3.007,0,0,0,2.313-1.125l.813.688a3.718,3.718,0,0,1-1.371,1.2A3.886,3.886,0,0,1,165.977,89.156Zm.9-7.586a2.066,2.066,0,0,0-1.527.594A4.22,4.22,0,0,0,164.313,84l4.109.008.031-.125a2.313,2.313,0,0,0-.316-1.637A1.488,1.488,0,0,0,166.875,81.57Zm7.375,2.055,2.3-3.078h1.734l-3.391,4.25,2.063,4.2h-1.539l-1.4-3.156L171.633,89h-1.727l3.492-4.344-2-4.109h1.547ZM183.563,89a1.894,1.894,0,0,1-.055-.445l.023-.445a3.465,3.465,0,0,1-2.469,1.047,2.526,2.526,0,0,1-1.816-.707,2.14,2.14,0,0,1-.637-1.73,2.6,2.6,0,0,1,1.176-2.1,5.005,5.005,0,0,1,2.887-.754l1.477.008.094-.672a1.545,1.545,0,0,0-.293-1.2,1.414,1.414,0,0,0-1.113-.457,2.181,2.181,0,0,0-1.285.355,1.513,1.513,0,0,0-.684.98l-1.422.008a2.266,2.266,0,0,1,.578-1.316,3.363,3.363,0,0,1,1.3-.891,4.215,4.215,0,0,1,1.648-.3,2.8,2.8,0,0,1,2.055.8,2.484,2.484,0,0,1,.617,2.043l-.687,4.188-.039.6a2.949,2.949,0,0,0,.094.852L185,89Zm-2.219-1.094a2.466,2.466,0,0,0,1.285-.324,3.254,3.254,0,0,0,1.043-.941l.3-1.742-1.07-.008a4.054,4.054,0,0,0-2.047.422,1.554,1.554,0,0,0-.8,1.2,1.21,1.21,0,0,0,.277.988A1.321,1.321,0,0,0,181.344,87.906Zm8.359-7.367-.18.945a3.305,3.305,0,0,1,2.57-1.094,2.608,2.608,0,0,1,1.363.367,1.8,1.8,0,0,1,.77.992,3.49,3.49,0,0,1,2.8-1.359,2.235,2.235,0,0,1,1.867.852,3.042,3.042,0,0,1,.445,2.2L198.414,89h-1.406l.922-5.57a2.943,2.943,0,0,0,0-.742q-.148-1.063-1.391-1.086a2.136,2.136,0,0,0-1.4.48,2.222,2.222,0,0,0-.809,1.3L193.367,89h-1.422l.938-5.562a1.786,1.786,0,0,0-.262-1.336,1.377,1.377,0,0,0-1.129-.484,2.315,2.315,0,0,0-2.1,1.2L188.32,89h-1.414l1.469-8.453Zm18.547,4.273a6.707,6.707,0,0,1-.7,2.32,3.949,3.949,0,0,1-1.336,1.543,3.058,3.058,0,0,1-1.766.488,2.815,2.815,0,0,1-2.25-.992l-.758,4.078h-1.414l2.031-11.7,1.281-.008-.156.945a3.207,3.207,0,0,1,2.508-1.094,2.358,2.358,0,0,1,1.9.9,3.954,3.954,0,0,1,.719,2.391,8.414,8.414,0,0,1-.039.969Zm-1.391-.16L206.9,84a2.969,2.969,0,0,0-.434-1.744,1.525,1.525,0,0,0-1.254-.636,2.508,2.508,0,0,0-2.117,1.163l-.711,4.05a1.769,1.769,0,0,0,1.711,1.155,2.224,2.224,0,0,0,1.793-.823A4.777,4.777,0,0,0,206.859,84.652ZM210.914,89h-1.406l2.078-12H213Zm5.969.156a3.048,3.048,0,0,1-2.469-1.164,4.006,4.006,0,0,1-.75-2.9l.039-.336a5.624,5.624,0,0,1,.746-2.3,4.339,4.339,0,0,1,1.5-1.566,3.491,3.491,0,0,1,1.906-.5,2.688,2.688,0,0,1,2.047.867,3.566,3.566,0,0,1,.813,2.266,6.621,6.621,0,0,1-.031,1.016l-.086.648H215.07a2.855,2.855,0,0,0,.379,1.953,1.8,1.8,0,0,0,1.551.836,3.007,3.007,0,0,0,2.313-1.125l.813.688a3.718,3.718,0,0,1-1.371,1.2A3.886,3.886,0,0,1,216.883,89.156Zm.9-7.586a2.066,2.066,0,0,0-1.527.594A4.22,4.22,0,0,0,215.219,84l4.109.008.031-.125a2.313,2.313,0,0,0-.316-1.637A1.488,1.488,0,0,0,217.781,81.57Zm4.781,5.789a.846.846,0,0,1,.633.234.807.807,0,0,1,.242.625.844.844,0,0,1-.258.621.929.929,0,0,1-.625.254.788.788,0,0,1-.859-.828.874.874,0,0,1,.867-.906Zm6.7.625a2.145,2.145,0,0,0,1.367-.441,2.1,2.1,0,0,0,.8-1.2l1.336-.008a3.014,3.014,0,0,1-.637,1.453,3.68,3.68,0,0,1-2.926,1.367,3.017,3.017,0,0,1-1.785-.551,3.084,3.084,0,0,1-1.074-1.492,4.972,4.972,0,0,1-.234-2.152l.039-.391a5.605,5.605,0,0,1,.711-2.18,4.11,4.11,0,0,1,1.469-1.5,3.648,3.648,0,0,1,2-.5,2.857,2.857,0,0,1,2.125.891,3.08,3.08,0,0,1,.8,2.18l-1.32-.008a2.029,2.029,0,0,0-.461-1.34,1.607,1.607,0,0,0-1.2-.543,2.254,2.254,0,0,0-1.832.82,4.3,4.3,0,0,0-.91,2.359l-.023.2a6.777,6.777,0,0,0-.016,1.031,2.355,2.355,0,0,0,.516,1.445A1.656,1.656,0,0,0,229.258,87.984Zm9.328-7.594a3.047,3.047,0,0,1,1.82.578,3.285,3.285,0,0,1,1.121,1.551,4.8,4.8,0,0,1,.246,2.16l-.016.172a5.685,5.685,0,0,1-.734,2.23,4.309,4.309,0,0,1-1.516,1.551,3.7,3.7,0,0,1-2.039.523,3.052,3.052,0,0,1-1.816-.578,3.21,3.21,0,0,1-1.113-1.531,4.931,4.931,0,0,1-.25-2.133A5.76,5.76,0,0,1,235,82.555a4.409,4.409,0,0,1,1.527-1.621A3.652,3.652,0,0,1,238.586,80.391Zm-2.875,4.531a4.8,4.8,0,0,0,0,1.023,2.507,2.507,0,0,0,.551,1.469,1.653,1.653,0,0,0,1.262.57,2.253,2.253,0,0,0,1.3-.348,2.919,2.919,0,0,0,1-1.121,4.721,4.721,0,0,0,.523-1.664,7.493,7.493,0,0,0,.023-1.211,2.6,2.6,0,0,0-.57-1.492,1.69,1.69,0,0,0-1.266-.578,2.3,2.3,0,0,0-1.859.859,4.245,4.245,0,0,0-.945,2.313Zm9.9-4.383-.18.945A3.305,3.305,0,0,1,248,80.391a2.608,2.608,0,0,1,1.363.367,1.8,1.8,0,0,1,.77.992,3.49,3.49,0,0,1,2.8-1.359,2.235,2.235,0,0,1,1.867.852,3.042,3.042,0,0,1,.445,2.2L254.32,89h-1.406l.922-5.57a2.943,2.943,0,0,0,0-.742q-.148-1.063-1.391-1.086a2.136,2.136,0,0,0-1.4.48,2.222,2.222,0,0,0-.809,1.3L249.273,89h-1.422l.938-5.562a1.786,1.786,0,0,0-.262-1.336,1.377,1.377,0,0,0-1.129-.484,2.315,2.315,0,0,0-2.1,1.2L244.227,89h-1.414l1.469-8.453Zm12.594.289-.781-.578a4.992,4.992,0,0,0,1.109-2.227l.18-1.023H260.1l-.148.945A4.4,4.4,0,0,1,258.2,80.828Zm2.32,0-.781-.578a4.992,4.992,0,0,0,1.109-2.227l.18-1.023h1.391l-.148.945A4.4,4.4,0,0,1,260.523,80.828Zm5.625,3.6a14.5,14.5,0,0,1-.992,3.605,10.84,10.84,0,0,1-1.723,2.867,7.163,7.163,0,0,1-2.223,1.777l-.219-.9q2.68-2.016,3.578-6.477a16.834,16.834,0,0,0,.344-3.461q-.039-3.352-1.625-4.8l.367-.875a5.179,5.179,0,0,1,1.48,1.621,7.644,7.644,0,0,1,.891,2.352,12.043,12.043,0,0,1,.254,2.777,13.344,13.344,0,0,1-.117,1.43ZM-.906,114.961a3.032,3.032,0,0,0,2.031-2.687l.242-1.766a2.96,2.96,0,0,1,1.766-2.352,2.064,2.064,0,0,1-.984-1.687,3.306,3.306,0,0,1,.008-.68l.242-1.922.016-.555a1.856,1.856,0,0,0-1.187-1.891l.352-.883a3.174,3.174,0,0,1,1.781,1.348,3.534,3.534,0,0,1,.414,2.27l-.211,1.625a2.971,2.971,0,0,0-.008.711,1.187,1.187,0,0,0,1.273,1.117l-.117,1.133a1.938,1.938,0,0,0-1.953,1.938L2.539,112.3a4.117,4.117,0,0,1-3.227,3.578Zm1.555,17.8a6.577,6.577,0,0,1,.711-2.328,4.03,4.03,0,0,1,1.367-1.555,3.127,3.127,0,0,1,1.789-.492,2.64,2.64,0,0,1,2.172,1.031L7.5,125H8.914L6.836,137H5.547l.148-.906a3.116,3.116,0,0,1-2.469,1.063,2.335,2.335,0,0,1-1.867-.918,4,4,0,0,1-.75-2.379A7.6,7.6,0,0,1,.648,132.758Zm1.359.808a2.929,2.929,0,0,0,.4,1.732,1.437,1.437,0,0,0,1.234.632A2.554,2.554,0,0,0,5.82,134.7l.672-3.9a1.754,1.754,0,0,0-1.7-1.186,2.143,2.143,0,0,0-1.473.5,3.256,3.256,0,0,0-.969,1.475A6.082,6.082,0,0,0,2.008,133.565Zm14.734-.753a6.586,6.586,0,0,1-.711,2.336,3.982,3.982,0,0,1-1.344,1.539,3.058,3.058,0,0,1-1.75.477,2.61,2.61,0,0,1-2.273-1.148l-.289.984H9.07l2.086-12H12.57l-.852,4.484a3.107,3.107,0,0,1,2.469-1.094,2.358,2.358,0,0,1,1.9.9,3.954,3.954,0,0,1,.719,2.391,7.362,7.362,0,0,1-.047.969ZM15.4,132a3.009,3.009,0,0,0-.383-1.744,1.465,1.465,0,0,0-1.242-.636,2.574,2.574,0,0,0-2.234,1.327l-.633,3.675a1.8,1.8,0,0,0,1.758,1.319,2.054,2.054,0,0,0,1.449-.492,3.212,3.212,0,0,0,.941-1.463A6.578,6.578,0,0,0,15.4,132Zm3.5,3.362a.846.846,0,0,1,.633.234.807.807,0,0,1,.242.625.844.844,0,0,1-.258.621.929.929,0,0,1-.625.254.788.788,0,0,1-.859-.828.874.874,0,0,1,.867-.906ZM23.555,137H22.148l1.469-8.453h1.406Zm1.164-11.539a.774.774,0,0,1,.6.215.8.8,0,0,1,.238.605.834.834,0,0,1-.836.852.779.779,0,0,1-.6-.211.764.764,0,0,1-.227-.594.886.886,0,0,1,.234-.609A.826.826,0,0,1,24.719,125.461Zm3.953,3.078-.2,1.07a3.333,3.333,0,0,1,2.594-1.219,2.1,2.1,0,0,1,1.766.828,3.217,3.217,0,0,1,.422,2.242L32.328,137H30.914l.93-5.557a2.962,2.962,0,0,0,.008-.71,1.168,1.168,0,0,0-1.289-1.116,2.661,2.661,0,0,0-2.234,1.358L27.281,137H25.867l1.469-8.453Zm11.07,6.172q.117-.875-.961-1.234l-1.469-.43q-1.859-.641-1.8-2.125a2.341,2.341,0,0,1,1.02-1.832,3.631,3.631,0,0,1,2.27-.7,3.027,3.027,0,0,1,2.082.746,2.363,2.363,0,0,1,.77,1.9l-1.406-.008a1.319,1.319,0,0,0-.4-1.031,1.576,1.576,0,0,0-1.1-.414,2.059,2.059,0,0,0-1.266.359,1.316,1.316,0,0,0-.57.922q-.1.734.9,1.07l.711.2a4.577,4.577,0,0,1,2.063.977,1.865,1.865,0,0,1,.563,1.492,2.37,2.37,0,0,1-.516,1.375,2.948,2.948,0,0,1-1.25.895,4.18,4.18,0,0,1-1.664.285,3.3,3.3,0,0,1-2.219-.785,2.427,2.427,0,0,1-.844-1.98l1.414.008a1.5,1.5,0,0,0,.453,1.141,1.732,1.732,0,0,0,1.242.43,2.436,2.436,0,0,0,1.336-.324A1.247,1.247,0,0,0,39.742,134.711Zm6.5,2.445a3.048,3.048,0,0,1-2.469-1.164,4.006,4.006,0,0,1-.75-2.9l.039-.336a5.624,5.624,0,0,1,.746-2.3,4.339,4.339,0,0,1,1.5-1.566,3.491,3.491,0,0,1,1.906-.5,2.688,2.688,0,0,1,2.047.867,3.566,3.566,0,0,1,.813,2.266,6.621,6.621,0,0,1-.031,1.016l-.086.648H44.43a2.855,2.855,0,0,0,.379,1.953,1.8,1.8,0,0,0,1.551.836,3.007,3.007,0,0,0,2.313-1.125l.813.688a3.718,3.718,0,0,1-1.371,1.2A3.886,3.886,0,0,1,46.242,137.156Zm.9-7.586a2.066,2.066,0,0,0-1.527.594A4.22,4.22,0,0,0,44.578,132l4.109.008.031-.125a2.313,2.313,0,0,0-.316-1.637A1.488,1.488,0,0,0,47.141,129.57Zm9,.266-.664-.07a2.42,2.42,0,0,0-2.141,1.227L52.3,137H50.883l1.469-8.453,1.367-.008-.211.984a2.527,2.527,0,0,1,2.117-1.148,2.594,2.594,0,0,1,.672.117Zm4.2-3.336-.359,2.047h1.539l-.2,1.117H59.789l-.883,5.258a1.833,1.833,0,0,0-.008.375.6.6,0,0,0,.664.609,4.05,4.05,0,0,0,.688-.078l-.109,1.18a3.847,3.847,0,0,1-1.031.141,1.476,1.476,0,0,1-1.266-.621,2.4,2.4,0,0,1-.328-1.629l.859-5.234H56.883l.2-1.117H58.57l.359-2.047Zm2.211,5.914A14.789,14.789,0,0,1,63.5,128.9a10.894,10.894,0,0,1,1.715-2.918,7.045,7.045,0,0,1,2.266-1.824l.211.969a8.108,8.108,0,0,0-2.105,2.387,12.281,12.281,0,0,0-1.355,3.5,16.834,16.834,0,0,0-.461,4,8.85,8.85,0,0,0,.418,2.848A4.494,4.494,0,0,0,65.4,139.8l-.352.875a5.641,5.641,0,0,1-2-2.68,10.335,10.335,0,0,1-.629-4.062,12.351,12.351,0,0,1,.109-1.43Zm7.664-7.562.781.578a5.091,5.091,0,0,0-1.086,2.141l-.187,1.047H68.313l.141-.875A4.494,4.494,0,0,1,70.211,124.852Zm2.383,0,.781.578a5.091,5.091,0,0,0-1.086,2.141l-.187,1.047H70.7l.141-.875A4.494,4.494,0,0,1,72.594,124.852Zm5.469,11.313a3.265,3.265,0,0,1-2.523.992,2.106,2.106,0,0,1-1.793-.867,3.317,3.317,0,0,1-.434-2.281l.906-5.461h1.414l-.914,5.484a3.643,3.643,0,0,0-.016.672,1.4,1.4,0,0,0,.336.883,1.146,1.146,0,0,0,.828.344,2.537,2.537,0,0,0,2.344-1.227l1.063-6.156h1.414L79.219,137H77.883Zm8.5-1.453q.117-.875-.961-1.234l-1.469-.43q-1.859-.641-1.8-2.125a2.341,2.341,0,0,1,1.02-1.832,3.631,3.631,0,0,1,2.27-.7,3.027,3.027,0,0,1,2.082.746,2.363,2.363,0,0,1,.77,1.9l-1.406-.008a1.319,1.319,0,0,0-.4-1.031,1.576,1.576,0,0,0-1.1-.414,2.059,2.059,0,0,0-1.266.359,1.316,1.316,0,0,0-.57.922q-.1.734.9,1.07l.711.2a4.577,4.577,0,0,1,2.063.977,1.865,1.865,0,0,1,.563,1.492,2.37,2.37,0,0,1-.516,1.375,2.948,2.948,0,0,1-1.25.895,4.18,4.18,0,0,1-1.664.285,3.3,3.3,0,0,1-2.219-.785,2.427,2.427,0,0,1-.844-1.98l1.414.008a1.5,1.5,0,0,0,.453,1.141,1.732,1.732,0,0,0,1.242.43,2.436,2.436,0,0,0,1.336-.324A1.247,1.247,0,0,0,86.563,134.711Zm8.211,1.453a3.265,3.265,0,0,1-2.523.992,2.106,2.106,0,0,1-1.793-.867,3.317,3.317,0,0,1-.434-2.281l.906-5.461h1.414l-.914,5.484a3.643,3.643,0,0,0-.016.672,1.4,1.4,0,0,0,.336.883,1.146,1.146,0,0,0,.828.344,2.537,2.537,0,0,0,2.344-1.227l1.063-6.156H97.4L95.93,137H94.594Zm8.438.836a1.893,1.893,0,0,1-.055-.445l.023-.445a3.465,3.465,0,0,1-2.469,1.047,2.526,2.526,0,0,1-1.816-.707,2.14,2.14,0,0,1-.637-1.73,2.6,2.6,0,0,1,1.176-2.1,5.005,5.005,0,0,1,2.887-.754l1.477.008.094-.672a1.545,1.545,0,0,0-.293-1.2,1.414,1.414,0,0,0-1.113-.457,2.181,2.181,0,0,0-1.285.355,1.513,1.513,0,0,0-.684.98l-1.422.008a2.266,2.266,0,0,1,.578-1.316,3.363,3.363,0,0,1,1.3-.891,4.215,4.215,0,0,1,1.648-.3,2.8,2.8,0,0,1,2.055.8,2.484,2.484,0,0,1,.617,2.043l-.687,4.188-.039.6a2.949,2.949,0,0,0,.094.852l-.016.133Zm-2.219-1.094a2.466,2.466,0,0,0,1.285-.324,3.254,3.254,0,0,0,1.043-.941l.3-1.742-1.07-.008a4.054,4.054,0,0,0-2.047.422,1.554,1.554,0,0,0-.8,1.2,1.21,1.21,0,0,0,.277.988A1.321,1.321,0,0,0,100.992,135.906Zm10.828-6.07-.664-.07a2.42,2.42,0,0,0-2.141,1.227L107.977,137h-1.414l1.469-8.453,1.367-.008-.211.984a2.527,2.527,0,0,1,2.117-1.148,2.594,2.594,0,0,1,.672.117Zm1.6,7.164h-1.406l1.469-8.453h1.406Zm1.164-11.539a.774.774,0,0,1,.6.215.8.8,0,0,1,.238.605.834.834,0,0,1-.836.852.779.779,0,0,1-.6-.211.764.764,0,0,1-.227-.594.886.886,0,0,1,.234-.609A.826.826,0,0,1,114.586,125.461Zm5.844,2.93a3.047,3.047,0,0,1,1.82.578,3.285,3.285,0,0,1,1.121,1.551,4.8,4.8,0,0,1,.246,2.16l-.016.172a5.685,5.685,0,0,1-.734,2.23,4.309,4.309,0,0,1-1.516,1.551,3.7,3.7,0,0,1-2.039.523,3.052,3.052,0,0,1-1.816-.578,3.21,3.21,0,0,1-1.113-1.531,4.931,4.931,0,0,1-.25-2.133,5.76,5.76,0,0,1,.711-2.359,4.409,4.409,0,0,1,1.527-1.621A3.652,3.652,0,0,1,120.43,128.391Zm-2.875,4.531a4.8,4.8,0,0,0,0,1.023,2.507,2.507,0,0,0,.551,1.469,1.653,1.653,0,0,0,1.262.57,2.253,2.253,0,0,0,1.3-.348,2.919,2.919,0,0,0,1-1.121,4.721,4.721,0,0,0,.523-1.664,7.5,7.5,0,0,0,.023-1.211,2.6,2.6,0,0,0-.57-1.492,1.69,1.69,0,0,0-1.266-.578,2.3,2.3,0,0,0-1.859.859,4.245,4.245,0,0,0-.945,2.313Zm12.344,1.789q.117-.875-.961-1.234l-1.469-.43q-1.859-.641-1.8-2.125a2.341,2.341,0,0,1,1.02-1.832,3.631,3.631,0,0,1,2.27-.7,3.027,3.027,0,0,1,2.082.746,2.363,2.363,0,0,1,.77,1.9l-1.406-.008a1.319,1.319,0,0,0-.4-1.031,1.576,1.576,0,0,0-1.1-.414,2.059,2.059,0,0,0-1.266.359,1.316,1.316,0,0,0-.57.922q-.1.734.9,1.07l.711.2a4.577,4.577,0,0,1,2.063.977,1.865,1.865,0,0,1,.563,1.492,2.37,2.37,0,0,1-.516,1.375,2.948,2.948,0,0,1-1.25.895,4.18,4.18,0,0,1-1.664.285,3.3,3.3,0,0,1-2.219-.785,2.427,2.427,0,0,1-.844-1.98l1.414.008a1.5,1.5,0,0,0,.453,1.141,1.732,1.732,0,0,0,1.242.43,2.436,2.436,0,0,0,1.336-.324A1.247,1.247,0,0,0,129.9,134.711Zm4.547-5.883-.781-.578a4.992,4.992,0,0,0,1.109-2.227l.18-1.023h1.391l-.148.945A4.4,4.4,0,0,1,134.445,128.828Zm2.32,0-.781-.578a4.992,4.992,0,0,0,1.109-2.227l.18-1.023h1.391l-.148.945A4.4,4.4,0,0,1,136.766,128.828Zm1.281,10.445-.812-.586a5.16,5.16,0,0,0,1.125-2.219l.2-1.18h1.383l-.164,1.055A4.521,4.521,0,0,1,138.047,139.273Zm10.164-10.734-.2,1.07a3.333,3.333,0,0,1,2.594-1.219,2.1,2.1,0,0,1,1.766.828,3.217,3.217,0,0,1,.422,2.242L151.867,137h-1.414l.93-5.557a2.962,2.962,0,0,0,.008-.71,1.168,1.168,0,0,0-1.289-1.116,2.661,2.661,0,0,0-2.234,1.358L146.82,137h-1.414l1.469-8.453Zm11.2,7.625a3.265,3.265,0,0,1-2.523.992,2.106,2.106,0,0,1-1.793-.867,3.317,3.317,0,0,1-.434-2.281l.906-5.461h1.414l-.914,5.484a3.642,3.642,0,0,0-.016.672,1.4,1.4,0,0,0,.336.883,1.146,1.146,0,0,0,.828.344,2.537,2.537,0,0,0,2.344-1.227l1.063-6.156h1.414L160.57,137h-1.336Zm4.8.836H162.8l2.078-12H166.3Zm3.844,0h-1.406l2.078-12h1.414Zm2,2.273-.812-.586a5.16,5.16,0,0,0,1.125-2.219l.2-1.18h1.383l-.164,1.055A4.521,4.521,0,0,1,170.055,139.273Zm10.43-4.25,3.047-6.477h1.492L180.766,137h-1.078l-1.656-8.453h1.391ZM190.063,137a1.894,1.894,0,0,1-.055-.445l.023-.445a3.465,3.465,0,0,1-2.469,1.047,2.526,2.526,0,0,1-1.816-.707,2.14,2.14,0,0,1-.637-1.73,2.6,2.6,0,0,1,1.176-2.1,5.005,5.005,0,0,1,2.887-.754l1.477.008.094-.672a1.545,1.545,0,0,0-.293-1.2,1.414,1.414,0,0,0-1.113-.457,2.181,2.181,0,0,0-1.285.355,1.513,1.513,0,0,0-.684.98l-1.422.008a2.266,2.266,0,0,1,.578-1.316,3.363,3.363,0,0,1,1.3-.891,4.215,4.215,0,0,1,1.648-.3,2.8,2.8,0,0,1,2.055.8,2.484,2.484,0,0,1,.617,2.043l-.687,4.188-.039.6a2.949,2.949,0,0,0,.094.852L191.5,137Zm-2.219-1.094a2.466,2.466,0,0,0,1.285-.324,3.254,3.254,0,0,0,1.043-.941l.3-1.742-1.07-.008a4.054,4.054,0,0,0-2.047.422,1.554,1.554,0,0,0-.8,1.2,1.21,1.21,0,0,0,.277.988A1.321,1.321,0,0,0,187.844,135.906Zm7.1,1.094h-1.406l2.078-12h1.414Zm7.68-.836a3.265,3.265,0,0,1-2.523.992,2.106,2.106,0,0,1-1.793-.867,3.317,3.317,0,0,1-.434-2.281l.906-5.461H200.2l-.914,5.484a3.642,3.642,0,0,0-.016.672,1.4,1.4,0,0,0,.336.883,1.146,1.146,0,0,0,.828.344,2.537,2.537,0,0,0,2.344-1.227l1.063-6.156h1.414L203.781,137h-1.336Zm6.922.992a3.048,3.048,0,0,1-2.469-1.164,4.006,4.006,0,0,1-.75-2.9l.039-.336a5.624,5.624,0,0,1,.746-2.3,4.339,4.339,0,0,1,1.5-1.566,3.491,3.491,0,0,1,1.906-.5,2.688,2.688,0,0,1,2.047.867,3.566,3.566,0,0,1,.813,2.266,6.621,6.621,0,0,1-.031,1.016l-.086.648h-5.523a2.855,2.855,0,0,0,.379,1.953,1.8,1.8,0,0,0,1.551.836,3.007,3.007,0,0,0,2.313-1.125l.813.688a3.718,3.718,0,0,1-1.371,1.2A3.886,3.886,0,0,1,209.547,137.156Zm.9-7.586a2.066,2.066,0,0,0-1.527.594A4.22,4.22,0,0,0,207.883,132l4.109.008.031-.125a2.313,2.313,0,0,0-.316-1.637A1.488,1.488,0,0,0,210.445,129.57Zm8.977,5.141q.117-.875-.961-1.234l-1.469-.43q-1.859-.641-1.8-2.125a2.341,2.341,0,0,1,1.02-1.832,3.631,3.631,0,0,1,2.27-.7,3.027,3.027,0,0,1,2.082.746,2.363,2.363,0,0,1,.77,1.9l-1.406-.008a1.319,1.319,0,0,0-.4-1.031,1.576,1.576,0,0,0-1.1-.414,2.059,2.059,0,0,0-1.266.359,1.316,1.316,0,0,0-.57.922q-.1.734.9,1.07l.711.2a4.577,4.577,0,0,1,2.063.977,1.865,1.865,0,0,1,.563,1.492,2.37,2.37,0,0,1-.516,1.375,2.948,2.948,0,0,1-1.25.895,4.18,4.18,0,0,1-1.664.285,3.3,3.3,0,0,1-2.219-.785,2.427,2.427,0,0,1-.844-1.98l1.414.008a1.5,1.5,0,0,0,.453,1.141,1.732,1.732,0,0,0,1.242.43,2.436,2.436,0,0,0,1.336-.324A1.247,1.247,0,0,0,219.422,134.711Zm6.875-2.281a14.5,14.5,0,0,1-.992,3.605,10.841,10.841,0,0,1-1.723,2.867,7.163,7.163,0,0,1-2.223,1.777l-.219-.9q2.68-2.016,3.578-6.477a16.834,16.834,0,0,0,.344-3.461q-.039-3.352-1.625-4.8l.367-.875a5.179,5.179,0,0,1,1.48,1.621,7.645,7.645,0,0,1,.891,2.352,12.043,12.043,0,0,1,.254,2.777,13.344,13.344,0,0,1-.117,1.43Z" transform="translate(260.051 2345.711)" fill="#fff"/>
    <path id="Trazado_881217" data-name="Trazado 881217" d="M9,0H540.01a9,9,0,0,1,9,9V55H0V9A9,9,0,0,1,9,0Z" transform="translate(212.051 2275.351)" fill="#3a1d71"/>
    <path id="Trazado_881218" data-name="Trazado 881218" d="M8,0A8,8,0,1,1,0,8,8,8,0,0,1,8,0Z" transform="translate(244.051 2294.351)" fill="#fb130d"/>
    <path id="Trazado_881219" data-name="Trazado 881219" d="M8,0A8,8,0,1,1,0,8,8,8,0,0,1,8,0Z" transform="translate(279.051 2294.351)" fill="#fecd02"/>
    <path id="Trazado_881220" data-name="Trazado 881220" d="M8,0A8,8,0,1,1,0,8,8,8,0,0,1,8,0Z" transform="translate(314.051 2294.351)" fill="#43dfaa"/>
  </g>
</svg>
