<svg xmlns="http://www.w3.org/2000/svg" width="83.477" height="83.477" viewBox="0 0 83.477 83.477">
  <g id="Grupo_1102506" data-name="Grupo 1102506" transform="translate(-185.051 -3392)">
    <circle id="Elipse_11542" data-name="Elipse 11542" cx="41.738" cy="41.738" r="41.738" transform="translate(185.051 3392)" fill="#13de61"/>
    <g id="cloud-service" transform="translate(169.407 3396)">
      <g id="Grupo_1102505" data-name="Grupo 1102505" transform="translate(28.435 5.786)">
        <path id="Trazado_881073" data-name="Trazado 881073" d="M62.754,21.916a11.89,11.89,0,0,1,23.719,1.677,11.285,11.285,0,0,1,0,22.569H49.625a8.18,8.18,0,0,1,0-16.36,7.954,7.954,0,0,1,13.129-7.887Z" transform="translate(-40.482 -10.993)" fill="#2a93fc" fill-rule="evenodd"/>
        <path id="Trazado_881074" data-name="Trazado 881074" d="M112.431,40.737a11.285,11.285,0,0,1,0,22.569H79.5a8.18,8.18,0,0,1,0-16.36c-1.274-8.187,8.1-9.873,11.106-5.218C92.234,26.8,111.522,27.643,112.431,40.737Z" transform="translate(-66.441 -28.138)" fill="#5caeff" fill-rule="evenodd"/>
        <path id="Trazado_881075" data-name="Trazado 881075" d="M108.534,393.1a2.432,2.432,0,1,0-2.432-2.432A2.437,2.437,0,0,0,108.534,393.1Z" transform="translate(-96.606 -338.776)" fill="#2dd62d" fill-rule="evenodd"/>
        <circle id="Elipse_11560" data-name="Elipse 11560" cx="2.065" cy="2.065" r="2.065" transform="translate(0 45.423)" fill="#2dd62d"/>
        <path id="Trazado_881076" data-name="Trazado 881076" d="M371.293,393.1a2.432,2.432,0,1,0-2.432-2.432A2.437,2.437,0,0,0,371.293,393.1Z" transform="translate(-324.913 -338.776)" fill="#2dd62d" fill-rule="evenodd"/>
        <circle id="Elipse_11561" data-name="Elipse 11561" cx="2.065" cy="2.065" r="2.065" transform="translate(54.178 45.423)" fill="#2dd62d"/>
        <g id="Grupo_1102504" data-name="Grupo 1102504" transform="translate(15.382 8.9)">
          <path id="Trazado_881077" data-name="Trazado 881077" d="M284.407,83a2.065,2.065,0,1,0-2.065-2.065A2.069,2.069,0,0,0,284.407,83Z" transform="translate(-265.12 -78.873)" fill="#fff" fill-rule="evenodd"/>
          <path id="Trazado_881078" data-name="Trazado 881078" d="M239.913,468.733a2.432,2.432,0,1,0-2.432-2.432A2.437,2.437,0,0,0,239.913,468.733Z" transform="translate(-226.141 -413.389)" fill="#2dd62d" fill-rule="evenodd"/>
          <path id="Trazado_881079" data-name="Trazado 881079" d="M167.6,177.254l2.931,1.216,2.345-1.573,3.242,3.242-1.573,2.345,1.216,2.931,2.768.546v4.584l-2.768.546-1.216,2.931,1.573,2.345-3.242,3.242-2.345-1.573-2.931,1.216-.546,2.768h-4.584l-.546-2.768-2.931-1.216-2.345,1.573-3.242-3.242,1.573-2.345-1.216-2.931-2.768-.546V185.96l2.768-.546,1.216-2.931-1.573-2.345,3.242-3.242,2.345,1.573,2.931-1.216.546-2.768h4.584Z" transform="translate(-150.992 -161.949)" fill="#e68207" fill-rule="evenodd"/>
          <path id="Trazado_881080" data-name="Trazado 881080" d="M175.194,177.254l2.931,1.216,2.345-1.573,3.242,3.242-1.573,2.345,1.216,2.931,2.768.546v4.584l-2.768.546-1.216,2.931,1.573,2.345-3.242,3.242-2.345-1.573-2.931,1.216-.546,2.768H171.21l-.546-2.768-3.639-1.51-1.615,1.083-.482.323-2.781-2.781,1.573-2.345L162.5,191.09l-2.768-.546V185.96l2.768-.546,1.216-2.931-1.573-2.345,2.781-2.781.482.323,1.615,1.083,3.639-1.51.546-2.768h3.438Z" transform="translate(-158.589 -161.949)" fill="#fda02f" fill-rule="evenodd"/>
        </g>
        <circle id="Elipse_11562" data-name="Elipse 11562" cx="7.206" cy="7.206" r="7.206" transform="translate(22.211 41.866) rotate(-85.755)" fill="#e68207"/>
        <circle id="Elipse_11563" data-name="Elipse 11563" cx="7.206" cy="7.206" r="7.206" transform="matrix(0.873, -0.487, 0.487, 0.873, 19.335, 32.409)" fill="#fff"/>
      </g>
      <path id="Trazado_881081" data-name="Trazado 881081" d="M57.585,47.364a6.4,6.4,0,1,1,6.4-6.4A6.41,6.41,0,0,1,57.585,47.364Zm0-14.379a7.976,7.976,0,1,0,7.976,7.976,7.985,7.985,0,0,0-7.976-7.976ZM71.6,15.3a.787.787,0,1,1-1.52.407,8.032,8.032,0,0,0-7.442-5.874.786.786,0,1,1,.1-1.57A9.584,9.584,0,0,1,71.6,15.3Zm13.981,38.88a1.279,1.279,0,1,1,.374-.9A1.281,1.281,0,0,1,85.578,54.183Zm-9.122,3.5a1.646,1.646,0,1,1-1.646-1.645A1.647,1.647,0,0,1,76.456,57.684ZM61.821,16.756A1.279,1.279,0,1,0,63.1,15.476,1.28,1.28,0,0,0,61.821,16.756ZM71.472,37.9a.787.787,0,0,1,.635.772v1.5h2.32a10.5,10.5,0,1,0,0-21,.787.787,0,0,1-.785-.834,11.105,11.105,0,0,0-22.153-1.566.786.786,0,0,1-1.313.518,7.463,7.463,0,0,0-6.632-1.757,7.042,7.042,0,0,0-4.307,3.252,7.417,7.417,0,0,0-.9,5.619.786.786,0,0,1-.757.979,7.4,7.4,0,0,0,0,14.79h5.483v-1.5A.787.787,0,0,1,43.7,37.9l2.349-.463.89-2.146L45.6,33.3a.786.786,0,0,1,.1-.994l3.234-3.234a.787.787,0,0,1,.994-.1l1.99,1.334,2.146-.891.463-2.348a.787.787,0,0,1,.772-.635h1.5V22.271a.788.788,0,0,1,.23-.556l3.577-3.577a2.855,2.855,0,1,1,1.113,1.112L58.372,22.6v3.844h1.5a.787.787,0,0,1,.772.635l.463,2.348,2.146.891,1.989-1.334a.787.787,0,0,1,.995.1l3.234,3.234a.787.787,0,0,1,.1.994l-1.334,1.99.89,2.146,2.349.463Zm-.939,4.7V39.321l-2.127-.42a.785.785,0,0,1-.575-.47l-1.213-2.924a.788.788,0,0,1,.073-.74l1.209-1.8-2.319-2.32-1.8,1.208a.786.786,0,0,1-.74.073l-2.924-1.213a.786.786,0,0,1-.471-.574l-.419-2.128h-3.28l-.42,2.128a.786.786,0,0,1-.47.574l-2.924,1.213a.786.786,0,0,1-.74-.073l-1.8-1.208-2.32,2.32,1.209,1.8a.787.787,0,0,1,.073.74l-1.213,2.924a.786.786,0,0,1-.575.47l-2.127.42V42.6l2.127.419a.787.787,0,0,1,.575.471l1.213,2.924a.786.786,0,0,1-.073.739l-1.209,1.8,2.32,2.319,1.8-1.208a.786.786,0,0,1,.74-.073l2.924,1.213a.785.785,0,0,1,.47.575l.42,2.127h3.28l.419-2.127a.786.786,0,0,1,.471-.575L63.039,50a.786.786,0,0,1,.74.073l1.8,1.208L67.9,48.958l-1.209-1.8a.786.786,0,0,1-.073-.739l1.213-2.924a.787.787,0,0,1,.575-.471Zm-11.3,25a1.646,1.646,0,1,1-1.646-1.646A1.647,1.647,0,0,1,59.23,67.6ZM42,57.684a1.646,1.646,0,1,1-1.646-1.645A1.647,1.647,0,0,1,42,57.684Zm-10.23-4.406a1.278,1.278,0,1,1-.374-.9A1.271,1.271,0,0,1,31.775,53.279ZM86.69,51.262a2.825,2.825,0,0,0-1.23-.723v-5.06a.785.785,0,0,0-.23-.556l-4.785-4.785a12.071,12.071,0,0,0-5.21-22.51,12.68,12.68,0,0,0-25.126-2.367A9.029,9.029,0,0,0,43.182,14a8.622,8.622,0,0,0-5.29,3.967,9.08,9.08,0,0,0-1.259,5.9,8.963,8.963,0,0,0-2.706,17.068L29.94,44.924a.785.785,0,0,0-.23.556v5.06a2.857,2.857,0,1,0,1.573,0V45.805l4.3-4.3a8.945,8.945,0,0,0,1.991.242h2V54.564a3.219,3.219,0,1,0,1.573,0V41.748h1.917v1.5a.787.787,0,0,0,.635.772l2.349.463.89,2.145L45.6,48.618a.786.786,0,0,0,.1.994l3.234,3.235a.787.787,0,0,0,.994.1l1.99-1.334,2.146.89.463,2.349a.787.787,0,0,0,.772.635h1.5v9a3.219,3.219,0,1,0,1.573,0v-9h1.5a.787.787,0,0,0,.772-.635l.463-2.349,2.146-.89,1.989,1.334a.787.787,0,0,0,.995-.1l3.234-3.235a.787.787,0,0,0,.1-.994l-1.334-1.989.89-2.145,2.349-.463a.787.787,0,0,0,.635-.772v-1.5h1.917V54.564a3.219,3.219,0,1,0,1.573,0V41.691a11.994,11.994,0,0,0,3.353-.823l4.937,4.937v4.734a2.85,2.85,0,1,0,2.8.723Z" fill-rule="evenodd"/>
    </g>
  </g>
</svg>
