<svg xmlns="http://www.w3.org/2000/svg" xmlns:xlink="http://www.w3.org/1999/xlink" width="400" height="196" viewBox="0 0 400 196">
  <defs>
    <clipPath id="clip-path">
      <rect id="Rectángulo_39311" data-name="Rectángulo 39311" width="190.758" height="166.24" transform="translate(0 0)" fill="none"/>
    </clipPath>
  </defs>
  <g id="Grupo_1102532" data-name="Grupo 1102532" transform="translate(-1020.051 -6247)">
    <rect id="Rectángulo_405482" data-name="Rectángulo 405482" width="400" height="196" transform="translate(1020.051 6247)" fill="#1169e3"/>
    <g id="Grupo_1102531" data-name="Grupo 1102531" transform="translate(1125.051 6261.996)">
      <g id="Grupo_143425" data-name="Grupo 143425" transform="translate(0 0.004)" clip-path="url(#clip-path)">
        <path id="Trazado_159849" data-name="Trazado 159849" d="M689.5,170.459h81.239a3.006,3.006,0,0,1,3.006,3.006V317.241a3.006,3.006,0,0,1-3.006,3.006H689.5a3.006,3.006,0,0,1-3.006-3.006V173.465a3.006,3.006,0,0,1,3.006-3.006" transform="translate(-620.783 -154.144)" fill="#fff"/>
        <path id="Rectángulo_39295" data-name="Rectángulo 39295" d="M1.72-1.422H82.959A3.14,3.14,0,0,1,86.1,1.72V145.5a3.14,3.14,0,0,1-3.142,3.142H1.72A3.14,3.14,0,0,1-1.422,145.5V1.72A3.14,3.14,0,0,1,1.72-1.422ZM82.959,148.366a2.868,2.868,0,0,0,2.87-2.87V1.72a2.868,2.868,0,0,0-2.87-2.87H1.72A2.868,2.868,0,0,0-1.15,1.72V145.5a2.867,2.867,0,0,0,2.87,2.87Z" transform="translate(66.995 17.601)" fill="#231f1f"/>
        <path id="Trazado_159850" data-name="Trazado 159850" d="M715.348,197.483H791.5a3.006,3.006,0,0,1,3.006,3.006v138.6A3.006,3.006,0,0,1,791.5,342.1H715.348a3.006,3.006,0,0,1-3.006-3.006v-138.6a3.006,3.006,0,0,1,3.006-3.006" transform="translate(-644.159 -178.581)" fill="#1169e3"/>
        <path id="Rectángulo_39296" data-name="Rectángulo 39296" d="M1.72-1.422H77.872A3.14,3.14,0,0,1,81.015,1.72v138.6a3.14,3.14,0,0,1-3.142,3.142H1.72a3.14,3.14,0,0,1-3.142-3.142V1.72A3.14,3.14,0,0,1,1.72-1.422ZM77.872,143.193a2.868,2.868,0,0,0,2.87-2.87V1.72a2.867,2.867,0,0,0-2.87-2.87H1.72A2.867,2.867,0,0,0-1.15,1.72v138.6a2.868,2.868,0,0,0,2.87,2.87Z" transform="translate(69.469 20.188)" fill="#231f1f"/>
        <path id="Trazado_159851" data-name="Trazado 159851" d="M1119.961,240.282a.717.717,0,1,1-.717-.717.717.717,0,0,1,.717.717" transform="translate(-1011.465 -216.635)" fill="#f4780e"/>
        <path id="Trazado_159852" data-name="Trazado 159852" d="M596.91,88.211h81.239a3.006,3.006,0,0,1,3.006,3.006V234.993A3.006,3.006,0,0,1,678.149,238H596.91a3.006,3.006,0,0,1-3.006-3.006V91.217a3.006,3.006,0,0,1,3.006-3.006" transform="translate(-537.057 -79.768)" fill="#fff"/>
        <path id="Rectángulo_39297" data-name="Rectángulo 39297" d="M1.72-1.422H82.959A3.14,3.14,0,0,1,86.1,1.72V145.5a3.14,3.14,0,0,1-3.142,3.142H1.72A3.14,3.14,0,0,1-1.422,145.5V1.72A3.14,3.14,0,0,1,1.72-1.422ZM82.959,148.366a2.867,2.867,0,0,0,2.87-2.87V1.72a2.867,2.867,0,0,0-2.87-2.87H1.72A2.868,2.868,0,0,0-1.15,1.72V145.5a2.867,2.867,0,0,0,2.87,2.87Z" transform="translate(58.132 9.729)" fill="#231f1f"/>
        <path id="Trazado_159853" data-name="Trazado 159853" d="M622.76,115.234h76.152a3.006,3.006,0,0,1,3.006,3.006v138.6a3.006,3.006,0,0,1-3.006,3.006H622.76a3.006,3.006,0,0,1-3.006-3.006V118.24a3.006,3.006,0,0,1,3.006-3.006" transform="translate(-560.433 -104.205)" fill="#f4780e"/>
        <path id="Rectángulo_39298" data-name="Rectángulo 39298" d="M1.72-1.422H77.872A3.14,3.14,0,0,1,81.014,1.72v138.6a3.14,3.14,0,0,1-3.142,3.142H1.72a3.14,3.14,0,0,1-3.142-3.142V1.72A3.14,3.14,0,0,1,1.72-1.422ZM77.872,143.193a2.867,2.867,0,0,0,2.87-2.87V1.72a2.867,2.867,0,0,0-2.87-2.87H1.72A2.867,2.867,0,0,0-1.15,1.72v138.6a2.868,2.868,0,0,0,2.87,2.87Z" transform="translate(60.607 12.315)" fill="#231f1f"/>
        <path id="Trazado_159854" data-name="Trazado 159854" d="M1027.373,158.034a.717.717,0,1,1-.717-.717.717.717,0,0,1,.717.717" transform="translate(-927.74 -142.259)" fill="#f4780e"/>
        <path id="Trazado_159855" data-name="Trazado 159855" d="M64.3,569.813V611a2.454,2.454,0,0,1-2.519,2.384H2.519A2.454,2.454,0,0,1,0,611V569.813a2.454,2.454,0,0,1,2.519-2.384h59.26a2.454,2.454,0,0,1,2.519,2.384" transform="translate(0 -513.117)" fill="#fff"/>
        <path id="Trazado_159856" data-name="Trazado 159856" d="M64.3,569.813v4.453H0v-4.453a2.454,2.454,0,0,1,2.519-2.384h59.26a2.454,2.454,0,0,1,2.519,2.384" transform="translate(0 -513.117)" fill="#f4780e"/>
        <path id="Trazado_159857" data-name="Trazado 159857" d="M609.489,592.886a1.075,1.075,0,1,1-1.075-1.086,1.08,1.08,0,0,1,1.075,1.086" transform="translate(-549.207 -535.155)" fill="#fff"/>
        <path id="Trazado_159858" data-name="Trazado 159858" d="M565.817,592.886a1.075,1.075,0,1,1-1.075-1.086,1.08,1.08,0,0,1,1.075,1.086" transform="translate(-509.716 -535.155)" fill="#fff"/>
        <path id="Trazado_159859" data-name="Trazado 159859" d="M519.154,592.886a1.075,1.075,0,1,1-1.074-1.086,1.08,1.08,0,0,1,1.074,1.086" transform="translate(-467.519 -535.155)" fill="#fff"/>
        <path id="Trazado_159860" data-name="Trazado 159860" d="M134.132,875.54H89.48c-1.5,0-2.77-1.627-2.978-3.815-.253-2.664,1.152-5.043,2.978-5.043h44.653c1.827,0,3.232,2.379,2.978,5.043-.208,2.188-1.479,3.815-2.978,3.815" transform="translate(-78.195 -783.726)" fill="#fff"/>
        <path id="Trazado_159861" data-name="Trazado 159861" d="M132.837,874.38H88.184a2.3,2.3,0,0,1-1.136-.306,3.191,3.191,0,0,1-.946-.834,4.673,4.673,0,0,1-.683-1.245,6.092,6.092,0,0,1-.35-1.554,6.49,6.49,0,0,1,.219-2.415,4.746,4.746,0,0,1,1-1.858,2.987,2.987,0,0,1,.871-.674,2.287,2.287,0,0,1,1.027-.247h44.653a2.287,2.287,0,0,1,1.027.247,2.985,2.985,0,0,1,.871.674,4.746,4.746,0,0,1,1,1.858,6.49,6.49,0,0,1,.219,2.416,6.093,6.093,0,0,1-.35,1.554,4.672,4.672,0,0,1-.683,1.245,3.191,3.191,0,0,1-.946.834A2.3,2.3,0,0,1,132.837,874.38Zm-44.653-8.859a2.291,2.291,0,0,0-1.694.831,4.471,4.471,0,0,0-.937,1.75,6.212,6.212,0,0,0-.21,2.312,5.144,5.144,0,0,0,.976,2.656,2.917,2.917,0,0,0,.864.763,2.031,2.031,0,0,0,1,.271h44.653a2.031,2.031,0,0,0,1-.271,2.917,2.917,0,0,0,.864-.763,5.144,5.144,0,0,0,.976-2.656,6.213,6.213,0,0,0-.21-2.312,4.471,4.471,0,0,0-.938-1.75,2.291,2.291,0,0,0-1.694-.831Z" transform="translate(-76.899 -782.428)" fill="#231f1f"/>
        <path id="Trazado_159862" data-name="Trazado 159862" d="M145.639,901.67a1.043,1.043,0,1,1-1.043-1.043,1.043,1.043,0,0,1,1.043,1.043" transform="translate(-129.813 -814.422)" fill="#f4780e"/>
        <path id="Trazado_159863" data-name="Trazado 159863" d="M187.807,901.67a1.043,1.043,0,1,1-1.043-1.043,1.043,1.043,0,0,1,1.043,1.043" transform="translate(-167.944 -814.422)" fill="#f4780e"/>
        <path id="Trazado_159864" data-name="Trazado 159864" d="M229.975,901.67a1.043,1.043,0,1,1-1.043-1.043,1.043,1.043,0,0,1,1.043,1.043" transform="translate(-206.076 -814.422)" fill="#f4780e"/>
        <path id="Trazado_159865" data-name="Trazado 159865" d="M272.143,901.67a1.043,1.043,0,1,1-1.043-1.043,1.043,1.043,0,0,1,1.043,1.043" transform="translate(-244.208 -814.422)" fill="#f4780e"/>
        <path id="Trazado_159866" data-name="Trazado 159866" d="M314.311,901.67a1.043,1.043,0,1,1-1.043-1.043,1.043,1.043,0,0,1,1.043,1.043" transform="translate(-282.34 -814.422)" fill="#f4780e"/>
        <path id="Trazado_159867" data-name="Trazado 159867" d="M356.479,901.67a1.043,1.043,0,1,1-1.043-1.043,1.043,1.043,0,0,1,1.043,1.043" transform="translate(-320.472 -814.422)" fill="#f4780e"/>
        <path id="Trazado_159868" data-name="Trazado 159868" d="M398.647,901.67a1.043,1.043,0,1,1-1.043-1.043,1.043,1.043,0,0,1,1.043,1.043" transform="translate(-358.603 -814.422)" fill="#f4780e"/>
        <path id="Trazado_159869" data-name="Trazado 159869" d="M440.815,901.67a1.043,1.043,0,1,1-1.043-1.043,1.043,1.043,0,0,1,1.043,1.043" transform="translate(-396.735 -814.422)" fill="#f4780e"/>
        <path id="Trazado_159870" data-name="Trazado 159870" d="M482.983,901.67a1.043,1.043,0,1,1-1.043-1.043,1.043,1.043,0,0,1,1.043,1.043" transform="translate(-434.867 -814.422)" fill="#f4780e"/>
        <path id="Trazado_159871" data-name="Trazado 159871" d="M525.151,901.67a1.043,1.043,0,1,1-1.043-1.043,1.043,1.043,0,0,1,1.043,1.043" transform="translate(-472.999 -814.422)" fill="#f4780e"/>
        <path id="Trazado_159872" data-name="Trazado 159872" d="M301.152,749.584h-6.459a2.28,2.28,0,0,1-2.281-2.282v-7.018a.173.173,0,0,1,.173-.173h10.677a.173.173,0,0,1,.173.173V747.3a2.28,2.28,0,0,1-2.282,2.282Zm-8.4-9.127V747.3a1.934,1.934,0,0,0,1.936,1.937h6.459a1.935,1.935,0,0,0,1.936-1.937v-6.845Z" transform="translate(-264.423 -669.271)" fill="#f4780e"/>
        <path id="Trazado_159873" data-name="Trazado 159873" d="M292.585,680.716a.173.173,0,0,1-.173-.173v-3.411a3.083,3.083,0,0,1,3.085-3.085h4.851a3.083,3.083,0,0,1,3.085,3.085.173.173,0,0,1-.345,0,2.738,2.738,0,0,0-2.74-2.74H295.5a2.738,2.738,0,0,0-2.74,2.74v3.411A.173.173,0,0,1,292.585,680.716Z" transform="translate(-264.423 -609.53)" fill="#f4780e"/>
        <path id="Trazado_159874" data-name="Trazado 159874" d="M340.559,768.983a1.116,1.116,0,1,0-1.866.827v2.215h1.5V769.81a1.113,1.113,0,0,0,.367-.827" transform="translate(-305.943 -694.369)" fill="#f4780e"/>
        <path id="Trazado_159875" data-name="Trazado 159875" d="M1385.486,598.737v41.182a2.454,2.454,0,0,1-2.519,2.384h-59.26a2.454,2.454,0,0,1-2.519-2.384V598.737a2.454,2.454,0,0,1,2.519-2.384h59.26a2.454,2.454,0,0,1,2.519,2.384" transform="translate(-1194.728 -539.272)" fill="#fff"/>
        <path id="Trazado_159876" data-name="Trazado 159876" d="M1385.486,598.737v4.453h-64.3v-4.453a2.454,2.454,0,0,1,2.519-2.384h59.26a2.454,2.454,0,0,1,2.519,2.384" transform="translate(-1194.728 -539.272)" fill="#f4780e"/>
        <path id="Trazado_159877" data-name="Trazado 159877" d="M1930.678,621.81a1.075,1.075,0,1,1-1.074-1.086,1.08,1.08,0,0,1,1.074,1.086" transform="translate(-1743.936 -561.311)" fill="#fff"/>
        <path id="Trazado_159878" data-name="Trazado 159878" d="M1887.006,621.81a1.075,1.075,0,1,1-1.075-1.086,1.08,1.08,0,0,1,1.075,1.086" transform="translate(-1704.444 -561.311)" fill="#fff"/>
        <path id="Trazado_159879" data-name="Trazado 159879" d="M1840.342,621.81a1.075,1.075,0,1,1-1.074-1.086,1.08,1.08,0,0,1,1.074,1.086" transform="translate(-1662.247 -561.311)" fill="#fff"/>
        <path id="Trazado_159880" data-name="Trazado 159880" d="M486.1,1.426h81.239a3.006,3.006,0,0,1,3.006,3.006V148.208a3.006,3.006,0,0,1-3.006,3.006H486.1a3.006,3.006,0,0,1-3.006-3.006V4.432A3.006,3.006,0,0,1,486.1,1.426" transform="translate(-436.852 -1.29)" fill="#fff"/>
        <path id="Rectángulo_39299" data-name="Rectángulo 39299" d="M1.72-1.422H82.959A3.14,3.14,0,0,1,86.1,1.72V145.5a3.14,3.14,0,0,1-3.142,3.142H1.72A3.14,3.14,0,0,1-1.422,145.5V1.72A3.14,3.14,0,0,1,1.72-1.422ZM82.959,148.366a2.868,2.868,0,0,0,2.87-2.87V1.72a2.867,2.867,0,0,0-2.87-2.87H1.72A2.868,2.868,0,0,0-1.15,1.72V145.5a2.867,2.867,0,0,0,2.87,2.87Z" transform="translate(47.526 1.422)" fill="#231f1f"/>
        <path id="Trazado_159881" data-name="Trazado 159881" d="M511.949,28.45H588.1a3.006,3.006,0,0,1,3.006,3.006v138.6a3.006,3.006,0,0,1-3.006,3.006H511.949a3.006,3.006,0,0,1-3.006-3.006V31.456a3.006,3.006,0,0,1,3.006-3.006" transform="translate(-460.229 -25.727)" fill="#fff"/>
        <path id="Rectángulo_39300" data-name="Rectángulo 39300" d="M1.72-1.422H77.872A3.14,3.14,0,0,1,81.014,1.72v138.6a3.14,3.14,0,0,1-3.142,3.142H1.72a3.14,3.14,0,0,1-3.142-3.142V1.72A3.14,3.14,0,0,1,1.72-1.422ZM77.872,143.193a2.867,2.867,0,0,0,2.87-2.87V1.72a2.867,2.867,0,0,0-2.87-2.87H1.72A2.867,2.867,0,0,0-1.15,1.72v138.6a2.868,2.868,0,0,0,2.87,2.87Z" transform="translate(50 4.009)" fill="#231f1f"/>
        <path id="Trazado_159882" data-name="Trazado 159882" d="M932.814,71.249a.717.717,0,1,1-.717-.717.717.717,0,0,1,.717.717" transform="translate(-842.231 -63.781)" fill="#f4780e"/>
        <path id="Trazado_159883" data-name="Trazado 159883" d="M1043.211,795.4V853.27a1.208,1.208,0,0,1-1.208,1.208H970.774a1.208,1.208,0,0,1-1.208-1.208V795.4a1.208,1.208,0,0,1,1.208-1.208H1042a1.208,1.208,0,0,1,1.208,1.208" transform="translate(-876.762 -718.172)" fill="#fff"/>
        <path id="Rectángulo_39301" data-name="Rectángulo 39301" d="M-.09-1.435H71.139a1.337,1.337,0,0,1,.951.394,1.337,1.337,0,0,1,.394.951V57.783a1.345,1.345,0,0,1-1.345,1.345H-.09a1.337,1.337,0,0,1-.951-.394,1.337,1.337,0,0,1-.394-.951V-.09a1.337,1.337,0,0,1,.394-.951A1.337,1.337,0,0,1-.09-1.435ZM71.139,58.853a1.071,1.071,0,0,0,1.071-1.071V-.09A1.064,1.064,0,0,0,71.9-.847a1.063,1.063,0,0,0-.757-.314H-.09a1.064,1.064,0,0,0-.757.314,1.064,1.064,0,0,0-.314.757V57.783a1.064,1.064,0,0,0,.314.757,1.064,1.064,0,0,0,.757.314Z" transform="translate(94.102 77.315)" fill="#231f1f"/>
        <path id="Trazado_159884" data-name="Trazado 159884" d="M1049.681,1036.052l9.683-13.573a4.125,4.125,0,0,1,6.426-.561l11.876,12.1,11.881-20.911a4.2,4.2,0,0,1,7.594.307l10.848,22.639Z" transform="translate(-949.209 -914.085)" fill="#fff"/>
        <path id="Trazado_159885" data-name="Trazado 159885" d="M1266.927,968.406a4.492,4.492,0,1,1-4.491-4.492,4.492,4.492,0,0,1,4.491,4.492" transform="translate(-1137.537 -871.652)" fill="#fff"/>
        <path id="Trazado_159886" data-name="Trazado 159886" d="M1106.692,1034.892h-58.309a.137.137,0,0,1-.112-.217l9.683-13.573a4.8,4.8,0,0,1,.745-.826,4.446,4.446,0,0,1,.869-.6,4.259,4.259,0,0,1,.953-.36,4.172,4.172,0,0,1,1-.121,4.294,4.294,0,0,1,3.073,1.325l11.749,11.969,11.791-20.753a4.986,4.986,0,0,1,.765-1.023,4.456,4.456,0,0,1,.931-.73,4.22,4.22,0,0,1,4.419.086,4.512,4.512,0,0,1,.966.83,5.063,5.063,0,0,1,.756,1.153l10.848,22.639a.137.137,0,0,1-.124.2Zm-58.042-.275h57.824l-10.754-22.442a4.786,4.786,0,0,0-.715-1.091,4.237,4.237,0,0,0-.907-.78,3.945,3.945,0,0,0-4.133-.081,4.182,4.182,0,0,0-.874.686,4.706,4.706,0,0,0-.723.967l-11.881,20.911a.138.138,0,0,1-.218.028l-11.876-12.1a4.189,4.189,0,0,0-1.363-.935,3.885,3.885,0,0,0-2.445-.195,3.993,3.993,0,0,0-.891.337,4.173,4.173,0,0,0-.815.559,4.521,4.521,0,0,0-.7.779Z" transform="translate(-947.911 -912.787)" fill="#231f1f"/>
        <path id="Trazado_159887" data-name="Trazado 159887" d="M1261.137,971.736a4.615,4.615,0,1,1,1.8-.364A4.6,4.6,0,0,1,1261.137,971.736Zm0-8.983a4.34,4.34,0,1,0,1.695.342A4.328,4.328,0,0,0,1261.137,962.753Z" transform="translate(-1136.239 -870.353)" fill="#231f1f"/>
        <path id="Elipse_5467" data-name="Elipse 5467" d="M3.743,0A3.744,3.744,0,0,1,5.2,7.191,3.744,3.744,0,0,1,2.286.294,3.719,3.719,0,0,1,3.743,0Zm0,7.21A3.469,3.469,0,0,0,5.092.547a3.469,3.469,0,0,0-2.7,6.391A3.446,3.446,0,0,0,3.743,7.21Z" transform="translate(153.891 81.444) rotate(-22.5)" fill="#231f1f"/>
        <path id="Línea_995" data-name="Línea 995" d="M-1.3,3.049a.137.137,0,0,1-.137-.137V-1.3A.137.137,0,0,1-1.3-1.436a.137.137,0,0,1,.137.137v4.21A.137.137,0,0,1-1.3,3.049Z" transform="translate(160.079 82.586)" fill="#231f1f"/>
        <path id="Línea_996" data-name="Línea 996" d="M2.912-1.161H-1.3A.137.137,0,0,1-1.436-1.3.137.137,0,0,1-1.3-1.436h4.21a.137.137,0,0,1,.137.137A.137.137,0,0,1,2.912-1.161Z" transform="translate(157.974 84.691)" fill="#231f1f"/>
        <path id="Trazado_159888" data-name="Trazado 159888" d="M337.211,983.271v23.946c0,.593-.686,1.074-1.532,1.074H280.341c-.846,0-1.533-.48-1.533-1.074V983.271c0-.593.686-1.074,1.533-1.074h55.338c.846,0,1.532.481,1.532,1.074" transform="translate(-252.122 -888.184)" fill="#fff"/>
        <path id="Trazado_159889" data-name="Trazado 159889" d="M279.043,980.761h55.338a2.036,2.036,0,0,1,1.162.34,1.279,1.279,0,0,1,.367.383.935.935,0,0,1,.14.489v23.946a.935.935,0,0,1-.14.489,1.278,1.278,0,0,1-.367.383,2.037,2.037,0,0,1-1.162.339H279.043a2.038,2.038,0,0,1-1.162-.339,1.279,1.279,0,0,1-.367-.383.936.936,0,0,1-.14-.489V981.973a.936.936,0,0,1,.14-.489,1.28,1.28,0,0,1,.367-.383A2.038,2.038,0,0,1,279.043,980.761Zm55.338,26.093a1.762,1.762,0,0,0,1-.289.808.808,0,0,0,.39-.647V981.973a.808.808,0,0,0-.39-.647,1.761,1.761,0,0,0-1-.29H279.043a1.762,1.762,0,0,0-1,.29.808.808,0,0,0-.39.647v23.946a.808.808,0,0,0,.39.647,1.763,1.763,0,0,0,1,.289Z" transform="translate(-250.824 -886.886)" fill="#231f1f"/>
        <path id="Trazado_159890" data-name="Trazado 159890" d="M337.211,983.271v3.717h-58.4v-3.717c0-.593.686-1.074,1.533-1.074h55.338c.846,0,1.532.481,1.532,1.074" transform="translate(-252.122 -888.184)" fill="#f4780e"/>
        <path id="Trazado_159891" data-name="Trazado 159891" d="M849.7,1004.418a.586.586,0,1,1-.586-.586.586.586,0,0,1,.586.586" transform="translate(-767.309 -907.749)" fill="#fff"/>
        <path id="Trazado_159892" data-name="Trazado 159892" d="M793.418,1004.418a.586.586,0,1,1-.586-.586.586.586,0,0,1,.586.586" transform="translate(-716.414 -907.749)" fill="#fff"/>
        <path id="Trazado_159893" data-name="Trazado 159893" d="M821.559,1004.418a.586.586,0,1,1-.586-.586.586.586,0,0,1,.586.586" transform="translate(-741.861 -907.749)" fill="#fff"/>
        <path id="Trazado_159894" data-name="Trazado 159894" d="M328.873,1071.936a7.036,7.036,0,1,1-7.036-7.036,7.036,7.036,0,0,1,7.036,7.036" transform="translate(-284.668 -962.972)" fill="#f4780e"/>
        <path id="Trazado_159895" data-name="Trazado 159895" d="M373.452,1099.334a1.759,1.759,0,1,1-1.759-1.759,1.759,1.759,0,0,1,1.759,1.759" transform="translate(-334.525 -992.519)" fill="#fff"/>
        <path id="Trazado_159896" data-name="Trazado 159896" d="M359.011,1139.813a3.518,3.518,0,0,0-6.937,0Z" transform="translate(-318.375 -1028.063)" fill="#fff"/>
        <rect id="Rectángulo_39302" data-name="Rectángulo 39302" width="34.449" height="1.132" transform="translate(47.283 102.661)" fill="#f4780e"/>
        <rect id="Rectángulo_39303" data-name="Rectángulo 39303" width="34.449" height="1.132" transform="translate(47.283 106.705)" fill="#f4780e"/>
        <rect id="Rectángulo_39304" data-name="Rectángulo 39304" width="5.241" height="1.132" transform="translate(47.283 115.236)" fill="#f4780e"/>
        <rect id="Rectángulo_39305" data-name="Rectángulo 39305" width="5.241" height="1.132" transform="translate(53.953 115.236)" fill="#f4780e"/>
        <rect id="Rectángulo_39306" data-name="Rectángulo 39306" width="3.628" height="1.132" transform="translate(77.993 115.236)" fill="#f4780e"/>
        <rect id="Rectángulo_39307" data-name="Rectángulo 39307" width="15.685" height="1.132" transform="translate(60.952 115.236)" fill="#f4780e"/>
        <rect id="Rectángulo_39308" data-name="Rectángulo 39308" width="10.884" height="1.132" transform="translate(47.283 110.909)" fill="#f4780e"/>
        <rect id="Rectángulo_39309" data-name="Rectángulo 39309" width="14.146" height="1.132" transform="translate(59.45 110.909)" fill="#f4780e"/>
        <rect id="Rectángulo_39310" data-name="Rectángulo 39310" width="6.633" height="1.132" transform="translate(74.915 110.909)" fill="#f4780e"/>
        <path id="Trazado_159897" data-name="Trazado 159897" d="M573.165,71.389,568.1,67.2l-2.817,5.942L564.1,66.67l-5.977,2.741,3.249-5.717-6.341-1.743,6.164-2.291-3.737-5.41,6.194,2.207.615-6.547,3.327,5.672,4.679-4.62-1.1,6.483,6.554-.531-5.009,4.261,5.362,3.806-6.576.045Z" transform="translate(-501.902 -45.134)" fill="#fff"/>
        <path id="Trazado_159898" data-name="Trazado 159898" d="M563.984,71.978h-.018a.137.137,0,0,1-.117-.111L562.7,65.571l-5.817,2.667a.137.137,0,0,1-.177-.193l3.162-5.563-6.17-1.7a.137.137,0,0,1-.011-.261l6-2.229-3.637-5.265a.137.137,0,0,1,.159-.208l6.028,2.148.6-6.371a.137.137,0,0,1,.255-.057l3.237,5.52,4.554-4.5a.137.137,0,0,1,.232.121L570.039,56l6.378-.517a.137.137,0,0,1,.1.242l-4.874,4.146,5.218,3.7a.137.137,0,0,1-.079.249l-6.4.044L572,70.056a.137.137,0,0,1-.221.141l-4.93-4.08L564.109,71.9A.137.137,0,0,1,563.984,71.978ZM562.8,65.235a.137.137,0,0,1,.135.113l1.109,6.049,2.635-5.557a.137.137,0,0,1,.212-.047l4.738,3.921-1.554-5.95a.137.137,0,0,1,.132-.172l6.15-.042-5.015-3.56a.137.137,0,0,1-.009-.217l4.684-3.985-6.13.5a.137.137,0,0,1-.147-.16l1.027-6.063-4.376,4.321a.137.137,0,0,1-.215-.028l-3.111-5.3-.575,6.123a.137.137,0,0,1-.183.117l-5.793-2.064,3.5,5.06a.137.137,0,0,1-.065.207l-5.765,2.143,5.93,1.63a.138.138,0,0,1,.083.2l-3.039,5.347,5.59-2.563A.137.137,0,0,1,562.8,65.235Z" transform="translate(-500.604 -43.835)" fill="#231f1f"/>
        <path id="Trazado_159899" data-name="Trazado 159899" d="M556.364,1292.73a4.574,4.574,0,0,0-2.3.657,6.1,6.1,0,0,0-2.108,7.724c.625,1.338,1.339,2.862,2.121,4.529a13.479,13.479,0,0,0,4.8,5.636,11.432,11.432,0,0,0,6.264,1.868h.094a11.4,11.4,0,0,0,6.151-1.906,13.408,13.408,0,0,0,4.743-5.666,2.227,2.227,0,0,1,1.939-1.411,2.173,2.173,0,0,1,2.064,1.177l1.585,2.7a13.105,13.105,0,0,0,4.957,4.915,11.315,11.315,0,0,0,6.082,1.386,11.492,11.492,0,0,0,5.917-2.077,13.492,13.492,0,0,0,4.464-5.458l.741-1.612a2.227,2.227,0,0,1,1.936-1.407,2.173,2.173,0,0,1,2.062,1.172l3.856,6.544a4.723,4.723,0,0,0,7.02,1.606,6.184,6.184,0,0,0,1.4-7.929l-3.856-6.544a13.1,13.1,0,0,0-4.96-4.9,11.317,11.317,0,0,0-6.077-1.375,11.5,11.5,0,0,0-5.909,2.08,13.494,13.494,0,0,0-4.457,5.453l-.741,1.612a2.225,2.225,0,0,1-1.939,1.407,2.173,2.173,0,0,1-2.062-1.176l-1.585-2.7a13.1,13.1,0,0,0-4.962-4.918,11.309,11.309,0,0,0-6.087-1.383,11.493,11.493,0,0,0-5.919,2.085,13.5,13.5,0,0,0-4.46,5.469,2.21,2.21,0,0,1-4.119.012c-.779-1.66-1.49-3.178-2.112-4.51a5.025,5.025,0,0,0-4.545-3.062" transform="translate(-498.596 -1168.645)" fill="#fff"/>
        <path id="Trazado_159900" data-name="Trazado 159900" d="M604.61,1290.908a11.365,11.365,0,0,1,2.821.357,11.645,11.645,0,0,1,2.673,1.054,13.237,13.237,0,0,1,5.013,4.95l3.856,6.544a6.272,6.272,0,0,1,.78,2.151,6.568,6.568,0,0,1-.009,2.24,6.438,6.438,0,0,1-.286,1.073,6.117,6.117,0,0,1-.467,1,5.525,5.525,0,0,1-1.454,1.646,4.762,4.762,0,0,1-2.873.981,4.679,4.679,0,0,1-1.252-.172,4.881,4.881,0,0,1-1.181-.505,5.221,5.221,0,0,1-1.051-.824,5.765,5.765,0,0,1-.864-1.127l-3.856-6.544a2.246,2.246,0,0,0-.935-.908,1.974,1.974,0,0,0-.877-.2c-.041,0-.082,0-.123,0a2.058,2.058,0,0,0-.894.263,2.283,2.283,0,0,0-.926,1.065l-.741,1.612a13.628,13.628,0,0,1-4.51,5.513,11.629,11.629,0,0,1-5.988,2.1c-.214.012-.43.019-.644.019a11.343,11.343,0,0,1-2.831-.36,11.653,11.653,0,0,1-2.68-1.061,13.243,13.243,0,0,1-5.01-4.966l-1.585-2.7a2.247,2.247,0,0,0-.935-.912,1.971,1.971,0,0,0-.879-.2c-.041,0-.082,0-.123,0a2.056,2.056,0,0,0-.9.263,2.279,2.279,0,0,0-.926,1.068,13.542,13.542,0,0,1-4.792,5.723,11.544,11.544,0,0,1-6.225,1.929h-.13a11.573,11.573,0,0,1-6.3-1.89,13.617,13.617,0,0,1-4.849-5.693c-.8-1.712-1.517-3.236-2.121-4.529a6.4,6.4,0,0,1-.582-2.228,6.541,6.541,0,0,1,.211-2.226,6.31,6.31,0,0,1,.382-1.035,5.931,5.931,0,0,1,.555-.94,5.326,5.326,0,0,1,1.6-1.471,4.858,4.858,0,0,1,1.165-.5,4.629,4.629,0,0,1,1.2-.174h.053a4.791,4.791,0,0,1,2.664.824,5.338,5.338,0,0,1,1.1.986,5.923,5.923,0,0,1,.85,1.331c.611,1.308,1.321,2.825,2.112,4.51a2.276,2.276,0,0,0,.986,1.094,2.059,2.059,0,0,0,.949.228h.007a2.057,2.057,0,0,0,.949-.232,2.262,2.262,0,0,0,.979-1.1,13.635,13.635,0,0,1,4.507-5.524,11.627,11.627,0,0,1,5.99-2.11c.218-.013.438-.019.657-.019a11.332,11.332,0,0,1,2.827.359,11.64,11.64,0,0,1,2.677,1.059,13.24,13.24,0,0,1,5.015,4.969l1.585,2.7a2.248,2.248,0,0,0,.936.913,1.978,1.978,0,0,0,.879.2c.04,0,.08,0,.12,0a2.06,2.06,0,0,0,.9-.262,2.281,2.281,0,0,0,.927-1.065l.741-1.612a13.633,13.633,0,0,1,4.5-5.508,11.63,11.63,0,0,1,5.98-2.1C604.171,1290.915,604.392,1290.908,604.61,1290.908Zm10.053,21.72a4.488,4.488,0,0,0,2.708-.926,5.246,5.246,0,0,0,1.382-1.564,5.978,5.978,0,0,0,.72-1.981,6.3,6.3,0,0,0,.009-2.146,6,6,0,0,0-.746-2.057l-3.856-6.544a12.959,12.959,0,0,0-4.907-4.848,11.372,11.372,0,0,0-2.609-1.029,11.084,11.084,0,0,0-2.753-.349c-.213,0-.429.006-.641.019a11.354,11.354,0,0,0-5.839,2.056,13.357,13.357,0,0,0-4.411,5.4l-.741,1.612a2.548,2.548,0,0,1-1.04,1.189,2.332,2.332,0,0,1-1.016.3c-.045,0-.091,0-.136,0a2.246,2.246,0,0,1-1-.229,2.513,2.513,0,0,1-1.052-1.02l-1.585-2.7a12.965,12.965,0,0,0-4.909-4.866,11.389,11.389,0,0,0-2.614-1.034,11.074,11.074,0,0,0-2.758-.351c-.213,0-.428.006-.641.019a11.356,11.356,0,0,0-5.848,2.06,13.36,13.36,0,0,0-4.414,5.413,2.527,2.527,0,0,1-1.1,1.23,2.332,2.332,0,0,1-1.077.264h-.008a2.331,2.331,0,0,1-1.077-.26,2.544,2.544,0,0,1-1.107-1.221c-.791-1.685-1.5-3.2-2.112-4.51a5.653,5.653,0,0,0-.81-1.27,5.084,5.084,0,0,0-1.047-.936,4.519,4.519,0,0,0-2.512-.777h-.05a4.353,4.353,0,0,0-1.128.163,4.594,4.594,0,0,0-1.1.475,5.05,5.05,0,0,0-1.515,1.4,5.815,5.815,0,0,0-.894,1.886,6.265,6.265,0,0,0-.2,2.133,6.128,6.128,0,0,0,.557,2.133c.6,1.293,1.318,2.817,2.121,4.529a13.339,13.339,0,0,0,4.75,5.579,11.3,11.3,0,0,0,6.155,1.846h.127a11.272,11.272,0,0,0,6.077-1.883,13.269,13.269,0,0,0,4.694-5.608,2.55,2.55,0,0,1,1.039-1.192,2.333,2.333,0,0,1,1.016-.3c.046,0,.093,0,.139,0a2.244,2.244,0,0,1,1,.229,2.515,2.515,0,0,1,1.051,1.02l1.585,2.7a12.971,12.971,0,0,0,4.9,4.864,11.38,11.38,0,0,0,2.617,1.036,11.083,11.083,0,0,0,2.762.351c.209,0,.42-.006.629-.018a11.353,11.353,0,0,0,5.846-2.052,13.353,13.353,0,0,0,4.418-5.4l.741-1.611a2.546,2.546,0,0,1,1.039-1.188,2.332,2.332,0,0,1,1.014-.3c.046,0,.093,0,.139,0a2.242,2.242,0,0,1,1,.228,2.516,2.516,0,0,1,1.051,1.016l3.856,6.544a5.484,5.484,0,0,0,.822,1.074,4.968,4.968,0,0,0,1,.78A4.506,4.506,0,0,0,614.663,1312.628Z" transform="translate(-497.296 -1167.347)" fill="#231f1f"/>
        <path id="Trazado_159901" data-name="Trazado 159901" d="M285.327,303.041a22.064,22.064,0,0,0,20.4,7.071,18.184,18.184,0,0,1,3.338-.515,12.848,12.848,0,0,1,5.091,1.439l4.177,1.837c1.771.779,3.752,1.57,5.583.946a2.355,2.355,0,0,0,1.581-1.829c.075-1.048-.936-1.406-1.662-1.922-2.449-1.74-4.889-3.473-7.434-5.073A118.984,118.984,0,0,0,300.5,296.6a9.788,9.788,0,0,0-6.3-.884,16.308,16.308,0,0,0-6.355,3.04c-1.348,1-2.706,2.617-2.513,4.281" transform="translate(-257.999 -267.239)" fill="#f49a89"/>
        <path id="Trazado_159902" data-name="Trazado 159902" d="M294.761,294.09h0a8.948,8.948,0,0,1,2.235.29,14.8,14.8,0,0,1,2.259.8c2.741,1.19,5.473,2.5,8.122,3.9s5.271,2.91,7.8,4.5c2.557,1.607,5.04,3.371,7.44,5.077.14.1.295.2.445.288a4.149,4.149,0,0,1,.893.67,1.389,1.389,0,0,1,.382,1.086,1.76,1.76,0,0,1-.181.648,2.4,2.4,0,0,1-.389.563,2.761,2.761,0,0,1-1.1.738,4.5,4.5,0,0,1-1.455.232,7.218,7.218,0,0,1-2.159-.374,20.3,20.3,0,0,1-2.069-.809l-4.177-1.837a25.738,25.738,0,0,0-2.467-.982,8.335,8.335,0,0,0-2.551-.446h-.017a12.773,12.773,0,0,0-2.554.358c-.248.052-.505.106-.758.154a20.821,20.821,0,0,1-3.906.367,22.081,22.081,0,0,1-4.66-.5,22.743,22.743,0,0,1-4.459-1.461,22.258,22.258,0,0,1-4.057-2.35,20.918,20.918,0,0,1-3.453-3.169.137.137,0,0,1-.033-.074,3.172,3.172,0,0,1,.127-1.287,4.65,4.65,0,0,1,.574-1.2,6.915,6.915,0,0,1,.863-1.056,8.562,8.562,0,0,1,1-.869c.5-.367.994-.706,1.479-1.009.523-.326,1.049-.621,1.563-.876a15.046,15.046,0,0,1,1.645-.7,12.694,12.694,0,0,1,1.723-.48A9.472,9.472,0,0,1,294.761,294.09Zm26.451,18.518a4.226,4.226,0,0,0,1.366-.218,2.478,2.478,0,0,0,.99-.663,2.125,2.125,0,0,0,.345-.5,1.488,1.488,0,0,0,.154-.547,1.113,1.113,0,0,0-.311-.881,3.954,3.954,0,0,0-.835-.621c-.154-.1-.313-.194-.459-.3-2.4-1.7-4.877-3.466-7.427-5.068-2.527-1.588-5.147-3.1-7.786-4.491s-5.368-2.7-8.1-3.89a14.545,14.545,0,0,0-2.217-.786,8.68,8.68,0,0,0-2.167-.281h0a9.2,9.2,0,0,0-1.836.192,12.409,12.409,0,0,0-1.686.469,14.771,14.771,0,0,0-1.615.687c-.506.251-1.025.541-1.54.863-.479.3-.971.634-1.461,1a8.292,8.292,0,0,0-.972.841,6.644,6.644,0,0,0-.829,1.014,4.375,4.375,0,0,0-.54,1.125,2.914,2.914,0,0,0-.121,1.134,20.651,20.651,0,0,0,3.38,3.1,21.989,21.989,0,0,0,4.007,2.321,22.475,22.475,0,0,0,4.4,1.443,21.81,21.81,0,0,0,4.6.5,20.542,20.542,0,0,0,3.854-.362c.251-.048.507-.1.754-.153a12.972,12.972,0,0,1,2.61-.364h.018a8.6,8.6,0,0,1,2.634.459,25.956,25.956,0,0,1,2.494.992l4.177,1.837a20.075,20.075,0,0,0,2.04.8A6.95,6.95,0,0,0,321.212,312.608Z" transform="translate(-256.702 -265.941)" fill="#231f1f"/>
        <path id="Trazado_159903" data-name="Trazado 159903" d="M526.947,413l-.223,43.356a1.944,1.944,0,0,1-1.955,1.934l-70.24-.361a1.944,1.944,0,0,1-1.935-1.954l.223-43.356a1.945,1.945,0,0,1,1.955-1.935l70.24.361A1.945,1.945,0,0,1,526.947,413" transform="translate(-409.274 -371.374)" fill="#1169e3"/>
        <path id="Trazado_159904" data-name="Trazado 159904" d="M453.132,408.88h.011l70.24.361a2.116,2.116,0,0,1,2.107,2.128l-.223,43.356a2.116,2.116,0,0,1-2.128,2.106l-70.24-.361a2.115,2.115,0,0,1-2.107-2.127l.223-43.356a2.116,2.116,0,0,1,2.117-2.107Zm70.017,47.606a1.772,1.772,0,0,0,1.772-1.762l.223-43.356a1.772,1.772,0,0,0-1.763-1.781l-70.249-.361a1.773,1.773,0,0,0-1.772,1.763l-.223,43.356a1.772,1.772,0,0,0,1.763,1.78l70.24.361Z" transform="translate(-407.643 -369.743)" fill="#f4780e"/>
        <path id="Trazado_159905" data-name="Trazado 159905" d="M528.832,413l-.023,4.568-74.13-.381.023-4.568a1.945,1.945,0,0,1,1.955-1.935l70.24.361A1.945,1.945,0,0,1,528.832,413" transform="translate(-411.158 -371.374)" fill="#fff"/>
        <path id="Trazado_159906" data-name="Trazado 159906" d="M455.349,409.247h.011l70.24.361a2.081,2.081,0,0,1,2.072,2.093l-.023,4.568a.137.137,0,0,1-.138.137l-74.13-.381a.137.137,0,0,1-.137-.138l.023-4.568a2.081,2.081,0,0,1,2.082-2.072Zm72.025,6.883.023-4.43a1.808,1.808,0,0,0-1.8-1.817l-70.249-.361a1.808,1.808,0,0,0-1.807,1.8l-.023,4.43Z" transform="translate(-409.86 -370.076)" fill="#231f1f"/>
        <path id="Trazado_159907" data-name="Trazado 159907" d="M728.973,567.164a10.792,10.792,0,1,1-10.736-10.847,10.792,10.792,0,0,1,10.736,10.847" transform="translate(-639.68 -503.068)" fill="#fff"/>
        <path id="Trazado_159908" data-name="Trazado 159908" d="M792.753,602l6.214,5.1a1.37,1.37,0,0,1,0,2.118l-6.266,5.154a1.37,1.37,0,0,1-2.241-1.065l.053-10.253a1.37,1.37,0,0,1,2.24-1.052" transform="translate(-714.8 -544.099)" fill="#f4780e"/>
        <path id="Trazado_159909" data-name="Trazado 159909" d="M1177.434,442.127h0a.882.882,0,0,1,0-1.763h0a.882.882,0,0,1,0,1.763Zm0-1.489a.607.607,0,0,0,0,1.214h0a.607.607,0,0,0,0-1.214Z" transform="translate(-1063.937 -398.214)" fill="#231f1f"/>
        <path id="Trazado_159910" data-name="Trazado 159910" d="M1106,441.76h0a.882.882,0,0,1,0-1.763h0a.882.882,0,0,1,0,1.763Zm0-1.489a.607.607,0,0,0,0,1.214h0a.607.607,0,0,0,0-1.214Z" transform="translate(-999.336 -397.882)" fill="#231f1f"/>
        <path id="Trazado_159911" data-name="Trazado 159911" d="M1141.714,441.944h0a.882.882,0,0,1,0-1.763h0a.882.882,0,0,1,0,1.763Zm0-1.489a.607.607,0,0,0,0,1.214h0a.607.607,0,0,0,0-1.214Z" transform="translate(-1031.635 -398.048)" fill="#231f1f"/>
        <path id="Trazado_159912" data-name="Trazado 159912" d="M483.787,401.254l-9.658-3.774a2.385,2.385,0,1,1,1.778-4.427l8.421,2.393Z" transform="translate(-427.375 -355.268)" fill="#f49a89"/>
        <path id="Trazado_159913" data-name="Trazado 159913" d="M413.3,413.735l-9.732-3.555a2.385,2.385,0,1,1,1.778-4.426l8.421,2.393Z" transform="translate(-363.572 -366.752)" fill="#f49a89"/>
        <path id="Trazado_159914" data-name="Trazado 159914" d="M367.34,429.143,359.2,425.7a2.546,2.546,0,0,1-1.163-2.956,1.912,1.912,0,0,1,2.639-1.471l6.99,2.393Z" transform="translate(-323.682 -380.79)" fill="#f49a89"/>
        <path id="Trazado_159915" data-name="Trazado 159915" d="M482.488,400.094a.138.138,0,0,1-.05-.009l-9.658-3.775a2.523,2.523,0,1,1,1.873-4.685l8.413,2.391a.137.137,0,0,1,.1.145l-.54,5.808a.137.137,0,0,1-.137.125Zm-8.789-8.382a2.248,2.248,0,0,0-.819,4.342l9.488,3.708.513-5.513-8.311-2.362-.015-.005A2.235,2.235,0,0,0,473.7,391.711Z" transform="translate(-426.075 -353.97)" fill="#231f1f"/>
        <path id="Trazado_159916" data-name="Trazado 159916" d="M412,412.574a.137.137,0,0,1-.047-.008l-9.732-3.555h0a2.523,2.523,0,1,1,1.873-4.685l8.413,2.391a.137.137,0,0,1,.1.144l-.467,5.589a.137.137,0,0,1-.137.126Zm-9.683-3.821,9.561,3.493.442-5.3-8.312-2.362-.015-.005a2.235,2.235,0,0,0-1.545-.062,2.264,2.264,0,0,0-.619.311,2.248,2.248,0,0,0,.487,3.922Z" transform="translate(-362.272 -365.454)" fill="#231f1f"/>
        <path id="Trazado_159917" data-name="Trazado 159917" d="M366.041,427.982a.137.137,0,0,1-.054-.011l-8.137-3.44-.005,0a2.313,2.313,0,0,1-1.138-1.274,2.964,2.964,0,0,1-.1-1.842,2.525,2.525,0,0,1,.776-1.276,2.019,2.019,0,0,1,.585-.353,1.8,1.8,0,0,1,1.464.067l6.981,2.39a.137.137,0,0,1,.093.138l-.329,5.473a.137.137,0,0,1-.137.129Zm-8.081-3.7,7.955,3.363.311-5.175-6.891-2.359-.017-.007a1.521,1.521,0,0,0-1.25-.061,1.747,1.747,0,0,0-.505.306,2.252,2.252,0,0,0-.69,1.138A2.41,2.41,0,0,0,357.96,424.279Z" transform="translate(-322.383 -379.492)" fill="#231f1f"/>
        <path id="Trazado_159918" data-name="Trazado 159918" d="M26.317,261.218c3.233.428,4.415.4,7.471-.734,3.993-1.484,4.231-.654,7.549,2.145,1.15.969,6.926,5.263,6.713.842a4.912,4.912,0,0,0-1-2.4,29.839,29.839,0,0,0-4.066-4.75,63.5,63.5,0,0,0,7.662,6.775c.7.525,1.55,1.067,2.406.647a1.675,1.675,0,0,0,.838-1.028,3.832,3.832,0,0,0-.389-2.646,21.032,21.032,0,0,0-5.267-7.395l7.779,8.373c.994,1.069,2.418,2.242,3.75,1.525a2.045,2.045,0,0,0,.989-1.337A4.955,4.955,0,0,0,60.132,258a48.074,48.074,0,0,0-5.383-9.138,130.041,130.041,0,0,1,10.617,11.284,12.835,12.835,0,0,0,2.924,2.857,5.056,5.056,0,0,0,1.4.6,2.057,2.057,0,0,0,2.486-2.527,11.61,11.61,0,0,0-1.92-3.591,132.65,132.65,0,0,0-10.291-12.562,13.913,13.913,0,0,0-4.743-3.742c-3.692-2.071-5.714-1.328-9.239-.817-9.4,1.364-11.362.751-20.645,2.776l-23.07,6.434,9.725,15.668Z" transform="translate(-2.051 -216.853)" fill="#f49a89"/>
        <path id="Trazado_159919" data-name="Trazado 159919" d="M45.4,264.273a4.173,4.173,0,0,1-1.511-.357,11.616,11.616,0,0,1-1.6-.821,20.18,20.18,0,0,1-2.341-1.659c-.372-.314-.711-.608-1.01-.867a15.981,15.981,0,0,0-1.866-1.483,3.4,3.4,0,0,0-.783-.366,2.808,2.808,0,0,0-.839-.122,5.161,5.161,0,0,0-1.235.176,15.933,15.933,0,0,0-1.68.541,18.781,18.781,0,0,1-2.466.768,9.43,9.43,0,0,1-2.1.23,23,23,0,0,1-2.944-.253l-14.3,4.019a.137.137,0,0,1-.154-.06L.853,248.351a.137.137,0,0,1,.08-.2L24,241.712l.008,0c2.565-.56,4.727-.953,6.806-1.239,1.873-.258,3.507-.4,5.237-.559,2.285-.2,4.874-.437,8.612-.979.471-.068.913-.14,1.34-.21a19.714,19.714,0,0,1,3.176-.352,8.323,8.323,0,0,1,2.241.3,11.486,11.486,0,0,1,2.565,1.093,12.809,12.809,0,0,1,2.723,1.721,19.7,19.7,0,0,1,1.872,1.85l.186.2c1.835,1.979,3.632,4.041,5.343,6.13s3.379,4.257,4.958,6.445a17.852,17.852,0,0,1,1.135,1.74,8.189,8.189,0,0,1,.806,1.9,2.172,2.172,0,0,1,.029,1.025,2.21,2.21,0,0,1-.407.878,2.239,2.239,0,0,1-.751.627,2.125,2.125,0,0,1-.977.236,2.212,2.212,0,0,1-.547-.069,5.223,5.223,0,0,1-1.438-.616,12.474,12.474,0,0,1-2.86-2.77l-.1-.116c-1.646-1.973-3.374-3.922-5.135-5.794-1.4-1.484-2.843-2.951-4.314-4.373.666.947,1.335,2,2,3.142.87,1.5,1.716,3.135,2.447,4.733a9.094,9.094,0,0,1,.6,1.593,3.6,3.6,0,0,1,.034,1.731,2.182,2.182,0,0,1-1.058,1.426,1.937,1.937,0,0,1-.927.236,2.376,2.376,0,0,1-.837-.163,3.889,3.889,0,0,1-.788-.418,8,8,0,0,1-1.364-1.208l-3.912-4.21q.212.335.412.679a22.375,22.375,0,0,1,1.215,2.4,6.647,6.647,0,0,1,.443,1.323,2.856,2.856,0,0,1-.048,1.418,1.952,1.952,0,0,1-.339.648,1.663,1.663,0,0,1-.57.463,1.577,1.577,0,0,1-.7.164,3.277,3.277,0,0,1-1.85-.824c-1.538-1.153-3.033-2.385-4.467-3.679.386.491.741.978,1.067,1.467a8.635,8.635,0,0,1,.676,1.162,3.527,3.527,0,0,1,.346,1.306A3.454,3.454,0,0,1,46.8,263.2a1.535,1.535,0,0,1-.358.68A1.379,1.379,0,0,1,45.4,264.273Zm-9.951-5.95a3.078,3.078,0,0,1,.92.134,3.672,3.672,0,0,1,.846.395,16.13,16.13,0,0,1,1.9,1.509c.3.259.636.552,1.007.864a19.878,19.878,0,0,0,2.306,1.634,11.336,11.336,0,0,0,1.562.8A3.91,3.91,0,0,0,45.4,264a1.418,1.418,0,0,0,.48-.075.936.936,0,0,0,.365-.235,2.027,2.027,0,0,0,.366-1.508,4.816,4.816,0,0,0-.975-2.329,26.587,26.587,0,0,0-2.85-3.516c-.4-.4-.808-.807-1.2-1.215a.137.137,0,0,1,.195-.194c.434.422.827.82,1.2,1.216a63.567,63.567,0,0,0,6.446,5.547,3.052,3.052,0,0,0,1.685.769,1.287,1.287,0,0,0,.579-.136,1.541,1.541,0,0,0,.767-.945,2.589,2.589,0,0,0,.041-1.285,6.4,6.4,0,0,0-.425-1.267,22.1,22.1,0,0,0-1.2-2.375,21.8,21.8,0,0,0-1.5-2.242l-2.544-2.738a.137.137,0,0,1,.191-.2,18.822,18.822,0,0,1,2.564,2.758l5.226,5.625a7.733,7.733,0,0,0,1.316,1.168,3.615,3.615,0,0,0,.732.388,2.1,2.1,0,0,0,.74.146,1.666,1.666,0,0,0,.8-.2,1.907,1.907,0,0,0,.921-1.249,3.328,3.328,0,0,0-.033-1.6,8.858,8.858,0,0,0-.58-1.544c-.728-1.59-1.57-3.219-2.435-4.709a38.847,38.847,0,0,0-2.932-4.4.137.137,0,0,1,.2-.185c1.873,1.766,3.717,3.613,5.483,5.49s3.5,3.83,5.146,5.806l.1.116a12.271,12.271,0,0,0,2.794,2.712,4.945,4.945,0,0,0,1.362.583,1.938,1.938,0,0,0,.479.061,1.853,1.853,0,0,0,.851-.206,1.963,1.963,0,0,0,.658-.549,1.933,1.933,0,0,0,.356-.768,1.9,1.9,0,0,0-.025-.9,7.92,7.92,0,0,0-.78-1.832,18.694,18.694,0,0,0-1.119-1.714c-1.576-2.184-3.24-4.348-4.948-6.432s-3.5-4.142-5.332-6.117l-.186-.2a13.3,13.3,0,0,0-4.516-3.511l-.008,0a11.228,11.228,0,0,0-2.507-1.07,8.053,8.053,0,0,0-2.168-.29,19.522,19.522,0,0,0-3.132.348c-.429.07-.872.142-1.345.211-3.745.543-6.339.776-8.627.981-1.726.155-3.357.3-5.224.558-2.07.285-4.225.677-6.781,1.235l-22.89,6.384,9.574,15.425,14.224-4a.138.138,0,0,1,.055,0,22.938,22.938,0,0,0,2.936.254,9.16,9.16,0,0,0,2.039-.224,18.515,18.515,0,0,0,2.43-.757,16.187,16.187,0,0,1,1.709-.55A5.421,5.421,0,0,1,35.452,258.323Z" transform="translate(-0.753 -215.555)" fill="#231f1f"/>
        <path id="Trazado_159920" data-name="Trazado 159920" d="M1437.874,15.531a41.064,41.064,0,0,0-3.333,9.6c-.347,1.631-.258,3.862,1.347,4.319,1.192.339,2.347-.642,3.056-1.658s1.328-2.224,2.473-2.7c2.794,3.44,7.657,4.867,11.864,5.518,1.819.281,4.934.958,6.713.27,2.629-1.016,1.166-2.807-.147-4.6a104.93,104.93,0,0,0-9.076-10.643,34.208,34.208,0,0,0-3.89-4.061c-1.723-1.289-3.555-2.423-5.39-3.542-1.44-.878-2.453-2.089-4.378-1.587-.328.086-.641.225-.974.287-1.4.264-2.726-.846-4.149-.809-1.341.034-2.137,1.111-2.794,2.14-.873,1.367-1.607,2.826-2.371,4.264A44.434,44.434,0,0,0,1422.9,22.6a2.646,2.646,0,0,0-.093,1.246c.3,1.224,2,1.433,2.942.916a4.427,4.427,0,0,0,1.464-1.643l5.839-9.326c-1.144,1.737-2.224,3.522-3.209,5.354a11.684,11.684,0,0,0-1.714,5.284,2.02,2.02,0,0,0,.448,1.452,1.73,1.73,0,0,0,1.677.319,4.735,4.735,0,0,0,2.634-2.394c1.613-2.8,3.24-5.544,4.988-8.272" transform="translate(-1286.578 -5.364)" fill="#f49a89"/>
        <path id="Trazado_159921" data-name="Trazado 159921" d="M1430.757,4.5a5.745,5.745,0,0,1,1.886.437,5.364,5.364,0,0,0,1.75.414,2.263,2.263,0,0,0,.419-.038,4.219,4.219,0,0,0,.555-.158c.133-.044.27-.09.41-.127a3.6,3.6,0,0,1,.906-.122,4.652,4.652,0,0,1,2.715,1.146c.276.194.562.4.864.579,1.871,1.141,3.692,2.27,5.4,3.549a11.419,11.419,0,0,1,1.4,1.256c.427.445.835.922,1.229,1.382.408.477.83.97,1.281,1.438a104.613,104.613,0,0,1,9.088,10.657l.16.217a13.639,13.639,0,0,1,1.124,1.688,3.252,3.252,0,0,1,.31.816,1.61,1.61,0,0,1-.014.788,1.536,1.536,0,0,1-.478.72,3.375,3.375,0,0,1-1.017.578,4.383,4.383,0,0,1-.965.239,7.947,7.947,0,0,1-1.093.069,24.8,24.8,0,0,1-3.928-.44c-.284-.048-.553-.093-.8-.131-1.15-.178-2.243-.4-3.248-.656a24.039,24.039,0,0,1-3.245-1.066,16.393,16.393,0,0,1-2.986-1.6,12.556,12.556,0,0,1-1.316-1.035,10.991,10.991,0,0,1-1.088-1.133,2.7,2.7,0,0,0-.522.32,3.839,3.839,0,0,0-.526.5,11.062,11.062,0,0,0-.9,1.239c-.12.182-.245.371-.37.551a5.312,5.312,0,0,1-1.165,1.224,2.571,2.571,0,0,1-1.515.561,1.925,1.925,0,0,1-.527-.074,1.9,1.9,0,0,1-1.008-.687,2.86,2.86,0,0,1-.494-1.135,5.391,5.391,0,0,1-.106-1.335,7.734,7.734,0,0,1,.165-1.323,41.2,41.2,0,0,1,2.459-7.718c-1.172,1.886-2.406,3.959-3.861,6.486a6.975,6.975,0,0,1-1.127,1.5,3.657,3.657,0,0,1-1.589.956,2.406,2.406,0,0,1-.632.086,1.908,1.908,0,0,1-.632-.1,1.416,1.416,0,0,1-.546-.34,2.1,2.1,0,0,1-.488-1.55,8.282,8.282,0,0,1,.544-2.783c.137-.382.295-.757.458-1.114l-1.664,2.658a8.9,8.9,0,0,1-.647.937,3.018,3.018,0,0,1-.868.753,2.483,2.483,0,0,1-1.182.282,2.669,2.669,0,0,1-.629-.074,2.166,2.166,0,0,1-.581-.23,1.547,1.547,0,0,1-.75-.982,2.74,2.74,0,0,1,.093-1.311,44.443,44.443,0,0,1,1.65-5.267,45.116,45.116,0,0,1,2.29-5.025c.14-.264.282-.533.419-.794.611-1.16,1.242-2.359,1.958-3.48a7.03,7.03,0,0,1,1.165-1.471,2.978,2.978,0,0,1,.779-.516,2.511,2.511,0,0,1,.963-.216Zm3.636,1.125a5.648,5.648,0,0,1-1.841-.429,5.543,5.543,0,0,0-1.794-.421h-.065a2.375,2.375,0,0,0-1.566.662,6.788,6.788,0,0,0-1.116,1.414c-.709,1.111-1.338,2.3-1.946,3.46-.137.261-.279.53-.42.795a44.833,44.833,0,0,0-2.276,4.994,44.21,44.21,0,0,0-1.64,5.235,2.523,2.523,0,0,0-.093,1.18,1.232,1.232,0,0,0,.231.476,1.381,1.381,0,0,0,.391.334,2.158,2.158,0,0,0,1.071.266,2.206,2.206,0,0,0,1.049-.248,2.751,2.751,0,0,0,.788-.687,8.722,8.722,0,0,0,.626-.909l3.959-6.323c.584-.985,1.217-2,1.882-3.005a.137.137,0,0,1,.231.149l-1.878,3c-.465.784-.911,1.574-1.326,2.347a19.269,19.269,0,0,0-1.17,2.529,8.01,8.01,0,0,0-.528,2.691,1.848,1.848,0,0,0,.409,1.355,1.146,1.146,0,0,0,.441.273,1.635,1.635,0,0,0,.541.086,2.133,2.133,0,0,0,.56-.076,3,3,0,0,0,.786-.345,3.942,3.942,0,0,0,.684-.542,6.7,6.7,0,0,0,1.081-1.443c1.929-3.348,3.469-5.9,4.992-8.278a.137.137,0,0,1,.239.135,40.908,40.908,0,0,0-3.322,9.569,7.437,7.437,0,0,0-.159,1.275,5.125,5.125,0,0,0,.1,1.267,2.59,2.59,0,0,0,.444,1.027,1.629,1.629,0,0,0,.865.589,1.652,1.652,0,0,0,.452.063,2.3,2.3,0,0,0,1.353-.508,5.031,5.031,0,0,0,1.1-1.16c.124-.177.247-.364.367-.545a5.251,5.251,0,0,1,2.167-2.2.138.138,0,0,1,.159.04,10.687,10.687,0,0,0,1.125,1.183,12.313,12.313,0,0,0,1.287,1.013,16.122,16.122,0,0,0,2.936,1.569,23.754,23.754,0,0,0,3.207,1.054c1,.255,2.081.474,3.222.65.246.038.515.083.8.131a24.59,24.59,0,0,0,3.882.436,7.67,7.67,0,0,0,1.054-.066,4.111,4.111,0,0,0,.9-.223,3.1,3.1,0,0,0,.934-.528,1.248,1.248,0,0,0,.4-.591,1.322,1.322,0,0,0,.009-.654,2.989,2.989,0,0,0-.285-.747,13.5,13.5,0,0,0-1.1-1.651l-.16-.218a104.366,104.366,0,0,0-9.064-10.629c-.456-.474-.881-.97-1.292-1.45-.392-.458-.8-.931-1.219-1.371a11.154,11.154,0,0,0-1.363-1.226c-1.7-1.272-3.514-2.4-5.379-3.535-.309-.188-.6-.392-.879-.589a9.168,9.168,0,0,0-1.218-.767,2.966,2.966,0,0,0-1.339-.329,3.279,3.279,0,0,0-.836.113c-.131.034-.264.079-.392.122a4.5,4.5,0,0,1-.591.168A2.543,2.543,0,0,1,1434.393,5.621Z" transform="translate(-1285.277 -4.065)" fill="#231f1f"/>
        <path id="Trazado_159922" data-name="Trazado 159922" d="M1391.534,65.916l-19.14,8.157-4.984-9.03-.475-.86-1.281-2.321-.191-.345c-2.29-.265-4.01.5-6.292.633-2.517.148-5.031-.31-7.55-.165-2.689.156-5.3.969-7.97,1.308s-5.592.129-7.726-1.513a2.128,2.128,0,0,1-.746-.884c-.316-.843.337-1.742,1.061-2.277q.12-.089.243-.17c2.459-1.654,5.707-1.456,8.679-1.989a10.158,10.158,0,0,0,3.215-1.066c2.4-1.342,3.783-3.836,5.266-6.06.092-.139.184-.276.278-.413a9.214,9.214,0,0,0,.736-1.262l0,0a7.093,7.093,0,0,0,.648-3.5v-.006c-.029-.86-.141-1.793-.235-2.89-.007-.074-.013-.148-.018-.222a6.113,6.113,0,0,0-.1-.785c-.021-.1-.046-.191-.076-.284-.021-.061-.044-.122-.07-.18a1.678,1.678,0,0,0-.089-.174c-.017-.027-.034-.055-.052-.083s-.035-.05-.053-.074l0-.005a1.685,1.685,0,0,0-.126-.147c-.022-.023-.045-.047-.069-.068s-.048-.044-.072-.065-.048-.041-.073-.061l-.006,0-.073-.056,0,0L1354.11,39h0c-.062-.043-.126-.085-.192-.124l-.015-.009-.058-.035c-.073-.043-.148-.084-.222-.125l-.108-.058-.549-.3-.861-.471c-.653-.359-1.3-.715-1.95-1.063l-.278-.148-.276-.146c-.134-.071-.269-.142-.4-.211l-.008,0c-.112-.058-.223-.116-.336-.173l-.1-.051-.142-.072-.261-.131-.164-.081c-.1-.051-.2-.1-.308-.15l-.14-.068-.03-.014c-.129-.063-.259-.123-.391-.184q-.485-.225-.984-.44l-.224-.1q-.368-.154-.743-.3c-.91,1.047-1.8,2.088-2.7,3.1l-.031.034q-.378.419-.76.832l0,0a33.676,33.676,0,0,1-4.122,3.823c-.165.127-.336.254-.51.376-1.284.911-2.787,1.659-4.266,1.24a1.574,1.574,0,0,1-.979-.682,1.179,1.179,0,0,1-.138-.518,2.6,2.6,0,0,1,.212-1.025,15.443,15.443,0,0,1,2.8-4.171c2.107-2.5,7.348-9.243,8.438-9.5a8.052,8.052,0,0,1,3.33.133l.19.037h0q.273.051.545.105c.116.022.232.045.347.069l.362.073c.053.01.1.021.156.033l.544.113.643.139.029.007.624.14q.324.074.647.15l.626.149.084.021.58.143c.214.053.43.109.643.164l.642.169c.215.057.428.115.642.174q1.6.438,3.186.934c8.237,4.3,15.214,10.467,21.634,17.453l.458.633h0Z" transform="translate(-1204.37 -25.256)" fill="#f49a89"/>
        <path id="Trazado_159923" data-name="Trazado 159923" d="M1371.1,72.912a.138.138,0,0,1-.12-.071l-5.459-9.89-1.281-2.321-.157-.283a12.152,12.152,0,0,0-3.68.29,19.773,19.773,0,0,1-2.518.351,31.679,31.679,0,0,1-3.8-.082,31.643,31.643,0,0,0-3.753-.083,32.9,32.9,0,0,0-4.606.712c-1.095.223-2.227.453-3.355.6a14.465,14.465,0,0,1-4.1-.014,9.324,9.324,0,0,1-1.958-.531,7.346,7.346,0,0,1-1.765-1,2.275,2.275,0,0,1-.791-.945,1.441,1.441,0,0,1-.077-.7,1.95,1.95,0,0,1,.225-.665,3.378,3.378,0,0,1,.96-1.068c.081-.06.164-.118.248-.174h0a7.385,7.385,0,0,1,1.42-.74,10.382,10.382,0,0,1,1.53-.464,28.383,28.383,0,0,1,3.234-.472c.843-.09,1.713-.184,2.547-.333a9.916,9.916,0,0,0,3.172-1.051,8.042,8.042,0,0,0,1.4-1,11.224,11.224,0,0,0,1.2-1.243,30.023,30.023,0,0,0,2.029-2.868c.193-.3.394-.605.592-.9.081-.122.169-.254.279-.414a8.99,8.99,0,0,0,.725-1.244l.005-.01a6.429,6.429,0,0,0,.538-1.7,8.457,8.457,0,0,0,.093-1.727s0,0,0,0v0c-.02-.593-.082-1.238-.147-1.92-.029-.308-.059-.626-.088-.96-.007-.072-.012-.144-.018-.223a5.884,5.884,0,0,0-.1-.767,2.721,2.721,0,0,0-.072-.269c-.021-.06-.043-.117-.066-.168h0a1.425,1.425,0,0,0-.08-.158c-.016-.026-.032-.051-.049-.077l-.045-.063,0,0-.005-.006a1.592,1.592,0,0,0-.115-.135c-.019-.02-.041-.042-.062-.061l0,0c-.019-.018-.04-.037-.066-.06l0,0-.062-.052-.005,0,0,0-.037-.029-.03-.023-.008-.005-.073-.051-.008-.006c-.059-.041-.118-.08-.178-.115l-.006,0,0,0-.007,0-.056-.034h0c-.073-.043-.146-.083-.217-.123l-.066-.036-.042-.022-.542-.292-.007,0h0l-.035-.019-.827-.452-.135-.074c-.595-.327-1.21-.665-1.815-.988h0l-.261-.139-.016-.009h0l-.193-.1-.082-.043c-.125-.066-.266-.14-.4-.21l0,0-.006,0c-.118-.062-.228-.118-.334-.172l0,0-.092-.047,0,0h0l-.036-.018-.1-.053h0l-.26-.13h0l-.162-.08h0c-.089-.044-.2-.1-.306-.149h0l-.137-.066h0l0,0-.017-.008-.008,0c-.122-.059-.244-.116-.388-.183-.328-.152-.658-.3-.98-.438l-.166-.07-.057-.024h0c-.231-.1-.444-.184-.65-.265l-.7.806c-.635.734-1.291,1.493-1.945,2.222l-.031.034c-.267.3-.516.568-.761.833h0a33.577,33.577,0,0,1-4.139,3.838c-.187.144-.356.268-.514.38a8.424,8.424,0,0,1-2.094,1.136,4.423,4.423,0,0,1-1.131.239,3.376,3.376,0,0,1-1.157-.116,1.721,1.721,0,0,1-1.061-.748,1.319,1.319,0,0,1-.155-.578,2.686,2.686,0,0,1,.221-1.082,10.34,10.34,0,0,1,1.239-2.22c.5-.705,1.076-1.387,1.584-1.989.467-.554,1.079-1.305,1.787-2.175,1.191-1.462,2.673-3.282,3.926-4.715.687-.786,1.237-1.379,1.681-1.813a3.205,3.205,0,0,1,1.117-.843,8.143,8.143,0,0,1,3.387.132l.18.035.02,0,.537.1a.137.137,0,1,1-.053.27l-.538-.1h-.008l-.188-.036h0a14.845,14.845,0,0,0-1.654-.239,5.316,5.316,0,0,0-1.619.1c-.1.023-.357.154-.989.772-.438.429-.983,1.017-1.666,1.8-1.25,1.429-2.73,3.247-3.92,4.708-.709.871-1.321,1.622-1.79,2.179-.5.6-1.075,1.276-1.57,1.971a10.074,10.074,0,0,0-1.207,2.161,2.428,2.428,0,0,0-.2.969,1.038,1.038,0,0,0,.121.458,1.458,1.458,0,0,0,.9.616,3.1,3.1,0,0,0,1.062.106,4.147,4.147,0,0,0,1.061-.225,8.163,8.163,0,0,0,2.025-1.1h0c.156-.109.321-.231.505-.373a33.292,33.292,0,0,0,4.105-3.807h0c.245-.264.493-.535.758-.83l.031-.034c.652-.726,1.307-1.484,1.941-2.218.249-.288.506-.586.762-.88a.137.137,0,0,1,.153-.038c.235.092.48.191.746.3h0l.058.024.167.071c.325.14.657.288.988.441.145.067.266.124.389.184l.031.015h0l.141.068c.112.053.218.106.308.15l.165.081h0l.261.131.107.054.035.018,0,0,.1.05c.106.053.214.109.331.17l.017.009c.137.07.277.144.4.21l.082.043.195.1.016.009.262.14h0c.606.324,1.222.663,1.818.99l.134.074.826.452.034.019h0l.008,0,.541.292.042.023.066.035h0c.07.038.149.082.226.127l.056.034.021.013c.063.038.126.078.188.121l.02.014.062.044.016.011.035.027.033.025h0l.009.007c.021.017.049.04.077.065s.053.047.075.068.054.052.075.074h0a1.9,1.9,0,0,1,.131.152l.013.017,0,0c.017.023.034.047.051.072s.038.058.056.088v0a1.7,1.7,0,0,1,.1.188c.026.059.051.123.074.191v0a2.994,2.994,0,0,1,.079.3,6.131,6.131,0,0,1,.1.8c.006.078.012.149.018.221.029.334.059.651.088.958.065.687.127,1.337.148,1.939,0,0,0,0,0,0v0a8.727,8.727,0,0,1-.1,1.78,6.7,6.7,0,0,1-.564,1.777l-.005.01a9.277,9.277,0,0,1-.743,1.273c-.108.159-.2.289-.276.411h0c-.2.3-.4.6-.591.9-1.286,1.979-2.617,4.025-4.723,5.2a10.176,10.176,0,0,1-3.257,1.082c-.843.151-1.719.245-2.566.336a28.175,28.175,0,0,0-3.2.467,10.108,10.108,0,0,0-1.49.452,7.125,7.125,0,0,0-1.368.713h0c-.08.053-.16.109-.237.166a3.1,3.1,0,0,0-.882.977,1.677,1.677,0,0,0-.195.571,1.169,1.169,0,0,0,.062.57,2.029,2.029,0,0,0,.7.824,7.081,7.081,0,0,0,1.7.958,9.05,9.05,0,0,0,1.9.515,14.191,14.191,0,0,0,4.026.013c1.118-.142,2.245-.371,3.334-.592a33.117,33.117,0,0,1,4.645-.717,31.846,31.846,0,0,1,3.786.083,31.48,31.48,0,0,0,3.765.082,19.562,19.562,0,0,0,2.484-.347c.626-.116,1.217-.225,1.844-.289a9,9,0,0,1,1.988,0,.137.137,0,0,1,.1.07l.191.345,1.756,3.181,4.924,8.921,18.867-8.041-12.216-16.883a.143.143,0,0,1-.019-.038l-.19-.589a.137.137,0,0,1,.262-.084l.184.568,12.3,17a.137.137,0,0,1-.057.207l-19.14,8.157A.137.137,0,0,1,1371.1,72.912Z" transform="translate(-1203.073 -23.957)" fill="#231f1f"/>
        <path id="Trazado_159924" data-name="Trazado 159924" d="M904.482,197.91l-46.348.338a7.865,7.865,0,0,1-7.922-7.807h0a7.865,7.865,0,0,1,7.807-7.922l46.349-.338a7.864,7.864,0,1,1,.115,15.729" transform="translate(-768.832 -164.743)" fill="#fff"/>
        <path id="Trazado_159925" data-name="Trazado 159925" d="M1375.953,223.128a2.637,2.637,0,0,1,2.233,1.23,2.639,2.639,0,0,1-2.229,4.049,2.636,2.636,0,0,1-2.233-1.23,2.639,2.639,0,0,1,2.229-4.049Zm0,5a2.362,2.362,0,1,0-1.126-.284A2.357,2.357,0,0,0,1375.958,228.132Z" transform="translate(-1241.866 -201.772)" fill="#231f1f"/>
        <path id="Línea_997" data-name="Línea 997" d="M.757,2.093a.137.137,0,0,1-.116-.064L-1.414-1.225a.137.137,0,0,1,.043-.19.137.137,0,0,1,.19.043L.873,1.882a.137.137,0,0,1-.116.211Z" transform="translate(136.723 27.409)" fill="#231f1f"/>
        <path id="Trazado_159926" data-name="Trazado 159926" d="M1355.949,215.919a5.619,5.619,0,0,1-1.235-.138,5.562,5.562,0,0,1-2.837-1.618,5.606,5.606,0,0,1-1.433-2.843,5.589,5.589,0,0,1,5.495-6.576,5.618,5.618,0,0,1,1.235.138,5.578,5.578,0,0,1,3.493,2.466,5.6,5.6,0,0,1,.777,2,5.59,5.59,0,0,1-5.5,6.576Zm-.01-10.9a5.267,5.267,0,0,0-1.754.3,5.314,5.314,0,0,0,1.764,10.326,5.27,5.27,0,0,0,1.755-.3,5.314,5.314,0,0,0-1.765-10.325Z" transform="translate(-1221.105 -185.147)" fill="#231f1f"/>
        <path id="Trazado_159927" data-name="Trazado 159927" d="M856.777,197.087a8.054,8.054,0,0,1-1.6-.161,7.96,7.96,0,0,1-2.85-1.193,8.022,8.022,0,0,1-2.9-3.493,7.962,7.962,0,0,1-.473-1.493,8.065,8.065,0,0,1-.173-1.6h0a8.057,8.057,0,0,1,.151-1.614,7.96,7.96,0,0,1,1.183-2.87,8.024,8.024,0,0,1,3.5-2.925,7.965,7.965,0,0,1,1.5-.477,8.059,8.059,0,0,1,1.611-.174l46.348-.338h.06a8.057,8.057,0,0,1,1.6.161,7.962,7.962,0,0,1,2.85,1.193,8.026,8.026,0,0,1,2.9,3.493,7.968,7.968,0,0,1,.473,1.493,8.078,8.078,0,0,1,.022,3.218,7.96,7.96,0,0,1-1.183,2.87,8.024,8.024,0,0,1-3.5,2.925,7.959,7.959,0,0,1-1.5.477,8.06,8.06,0,0,1-1.611.174l-46.349.338Zm-7.726-7.945a7.785,7.785,0,0,0,.167,1.549,7.687,7.687,0,0,0,1.173,2.744,7.751,7.751,0,0,0,3.394,2.776,7.692,7.692,0,0,0,1.444.446,7.781,7.781,0,0,0,1.549.155h.058l46.349-.338a7.786,7.786,0,0,0,1.556-.168,7.685,7.685,0,0,0,2.754-1.183,7.75,7.75,0,0,0,2.775-3.42,7.694,7.694,0,0,0,.44-1.454,7.8,7.8,0,0,0-.021-3.108,7.684,7.684,0,0,0-1.173-2.744,7.748,7.748,0,0,0-3.394-2.776,7.683,7.683,0,0,0-1.443-.446,7.778,7.778,0,0,0-1.549-.155h-.058l-46.348.338a7.784,7.784,0,0,0-1.556.168,7.683,7.683,0,0,0-2.754,1.183,7.748,7.748,0,0,0-2.775,3.42,7.69,7.69,0,0,0-.44,1.453,7.778,7.778,0,0,0-.146,1.559Z" transform="translate(-767.534 -163.445)" fill="#231f1f"/>
        <path id="Trazado_159928" data-name="Trazado 159928" d="M1689.722,378.846l-4.914,3.239-1.794-3.248Z" transform="translate(-1521.922 -342.576)" fill="#f4780e"/>
      </g>
    </g>
  </g>
</svg>
