<svg xmlns="http://www.w3.org/2000/svg" width="85" height="85" viewBox="0 0 85 85">
  <g id="Grupo_1102530" data-name="Grupo 1102530" transform="translate(-600.051 -6459)">
    <circle id="Elipse_11544" data-name="Elipse 11544" cx="42.5" cy="42.5" r="42.5" transform="translate(600.051 6459)" fill="#13de61"/>
    <g id="_07-Landing_Page" data-name="07-Landing Page" transform="translate(618.051 6477.003)">
      <path id="Trazado_881090" data-name="Trazado 881090" d="M18.783,1a3.029,3.029,0,0,1,3.093,3.093V7.186H1V4.093A3.093,3.093,0,0,1,4.093,1Z" transform="translate(-0.227 -0.228)" fill="#f2f2f2"/>
      <path id="Trazado_881091" data-name="Trazado 881091" d="M51.062,1a3.093,3.093,0,0,1,3.093,3.093V7.186H27.093V4.093A3.029,3.029,0,0,0,24,1Z" transform="translate(-5.443 -0.228)" fill="#1c99eb"/>
      <path id="Trazado_881092" data-name="Trazado 881092" d="M48.938,9V47.66a3.093,3.093,0,0,1-3.093,3.093H4.093A3.093,3.093,0,0,1,1,47.66V9Z" transform="translate(-0.227 -2.042)" fill="#dedede"/>
      <path id="Trazado_881093" data-name="Trazado 881093" d="M31.433,2.933a1.933,1.933,0,0,0,1.933,1.933H55.4V4.093A3.093,3.093,0,0,0,52.309,1H29.5A1.933,1.933,0,0,1,31.433,2.933Z" transform="translate(-6.691 -0.228)" fill="#5acafa"/>
      <path id="Trazado_881094" data-name="Trazado 881094" d="M46.3,49.206H4.546A1.546,1.546,0,0,1,3,47.66V9H47.845V47.66A1.546,1.546,0,0,1,46.3,49.206Z" transform="translate(-0.68 -2.042)" fill="#f2f2f2"/>
      <path id="Trazado_881095" data-name="Trazado 881095" d="M47.113,46.113h2.32V9H10A37.113,37.113,0,0,0,47.113,46.113Z" transform="translate(-2.268 -2.042)" fill="#fff"/>
      <path id="Trazado_881096" data-name="Trazado 881096" d="M21.876,4.093A3.029,3.029,0,0,0,18.783,1H4.093A3.093,3.093,0,0,0,1,4.093V7.186H2.546V4.093A1.546,1.546,0,0,1,4.093,2.546H18.783A1.546,1.546,0,0,1,20.33,4.093V7.186h1.546Z" transform="translate(-0.227 -0.228)" fill="#dedede"/>
      <path id="Trazado_881097" data-name="Trazado 881097" d="M41,35H54.917V53.557H41Z" transform="translate(-9.299 -7.939)" fill="#3db6fd"/>
      <g id="Grupo_1102529" data-name="Grupo 1102529" transform="translate(3.866 37.886)">
        <path id="Trazado_881098" data-name="Trazado 881098" d="M10.412,52.866,5,56.732V49Z" transform="translate(-5 -49)" fill="#f2f2f2"/>
        <path id="Trazado_881099" data-name="Trazado 881099" d="M17.412,49v7.732L12,52.866Z" transform="translate(-6.588 -49)" fill="#f2f2f2"/>
        <path id="Trazado_881100" data-name="Trazado 881100" d="M28.412,52.866,23,56.732V49Z" transform="translate(-9.083 -49)" fill="#f2f2f2"/>
        <path id="Trazado_881101" data-name="Trazado 881101" d="M35.412,49v7.732L30,52.866Z" transform="translate(-10.67 -49)" fill="#f2f2f2"/>
      </g>
      <path id="Trazado_881102" data-name="Trazado 881102" d="M33.825,57.866H23L28.412,54Z" transform="translate(-5.217 -12.248)" fill="#fff"/>
      <path id="Trazado_881103" data-name="Trazado 881103" d="M15.825,57.866H5L10.412,54Z" transform="translate(-1.134 -12.248)" fill="#fff"/>
      <path id="Trazado_881104" data-name="Trazado 881104" d="M15.825,49l-5.412,3.866L5,49Z" transform="translate(-1.134 -11.114)" fill="#fff"/>
      <path id="Trazado_881105" data-name="Trazado 881105" d="M33.825,49l-5.412,3.866L23,49Z" transform="translate(-5.217 -11.114)" fill="#fff"/>
      <path id="Trazado_881106" data-name="Trazado 881106" d="M5,35H29.742v7.732H5Z" transform="translate(-1.134 -7.939)" fill="#0af"/>
      <circle id="Elipse_11565" data-name="Elipse 11565" cx="2" cy="2" r="2" transform="translate(5 10.48)" fill="#ffdf64"/>
      <path id="Trazado_881107" data-name="Trazado 881107" d="M23.557,22.278,32.835,13,46.752,26.917H5l11.6-11.6Z" transform="translate(-1.134 -2.949)" fill="#12a32c"/>
      <path id="Trazado_881108" data-name="Trazado 881108" d="M48.938,9V26.01H45.845L31.928,12.093l-9.278,9.278-6.959-6.959-11.6,11.6H1V9ZM9.505,14.412a2.32,2.32,0,1,0-2.32,2.32A2.32,2.32,0,0,0,9.505,14.412Z" transform="translate(-0.227 -2.042)" fill="#3db6fd"/>
      <path id="Trazado_881109" data-name="Trazado 881109" d="M41,35V49.607a37.01,37.01,0,0,0,13.144,2.4h.773V35Z" transform="translate(-9.299 -7.939)" fill="#5acafa"/>
      <path id="Trazado_881110" data-name="Trazado 881110" d="M24.316,42.732h8.3V35H17.661a37.282,37.282,0,0,0,6.655,7.732Z" transform="translate(-4.006 -7.939)" fill="#5acafa"/>
      <path id="Trazado_881111" data-name="Trazado 881111" d="M11.592,15.377A2.315,2.315,0,0,0,10.2,13.251a37.009,37.009,0,0,0,.549,3.9A2.3,2.3,0,0,0,11.592,15.377Z" transform="translate(-2.313 -3.006)" fill="#ffdf64"/>
      <path id="Trazado_881112" data-name="Trazado 881112" d="M34.491,13l-9.278,9.278L18.254,15.32,12.3,21.273a36.764,36.764,0,0,0,2.353,5.644H48.408Z" transform="translate(-2.79 -2.949)" fill="#16cd37"/>
      <path id="Trazado_881113" data-name="Trazado 881113" d="M49.433,9H10c0,1.109.058,2.2.155,3.287a2.307,2.307,0,0,1,.549,3.9,36.951,36.951,0,0,0,1.075,4.176l5.954-5.954,6.959,6.959,9.278-9.278L47.886,26.01h3.093V9Z" transform="translate(-2.268 -2.042)" fill="#5acafa"/>
      <path id="Trazado_881114" data-name="Trazado 881114" d="M29.515,34H4.773A.773.773,0,0,0,4,34.773v7.732a.773.773,0,0,0,.773.773H29.515a.773.773,0,0,0,.773-.773V34.773A.773.773,0,0,0,29.515,34Zm-.773,7.732H5.546V35.546h23.2Z" transform="translate(-0.907 -7.712)"/>
      <path id="Trazado_881115" data-name="Trazado 881115" d="M15.6,48H4.773A.773.773,0,0,0,4,48.773v7.732a.773.773,0,0,0,.773.773H15.6a.773.773,0,0,0,.773-.773V48.773A.773.773,0,0,0,15.6,48ZM8.855,52.639,5.546,55V50.276ZM7.186,49.546h6l-3,2.143Zm3,4.043,3,2.143h-6Zm1.331-.95,3.308-2.364V55Z" transform="translate(-0.907 -10.888)"/>
      <path id="Trazado_881116" data-name="Trazado 881116" d="M33.6,48H22.773a.773.773,0,0,0-.773.773v7.732a.773.773,0,0,0,.773.773H33.6a.773.773,0,0,0,.773-.773V48.773A.773.773,0,0,0,33.6,48Zm-6.743,4.639L23.546,55V50.276Zm-1.669-3.093h6l-3,2.143Zm3,4.043,3,2.143h-6Zm1.331-.95,3.308-2.364V55Z" transform="translate(-4.99 -10.888)"/>
      <path id="Trazado_881117" data-name="Trazado 881117" d="M54.691,34H40.773a.773.773,0,0,0-.773.773V53.33a.773.773,0,0,0,.773.773H54.691a.773.773,0,0,0,.773-.773V34.773A.773.773,0,0,0,54.691,34Zm-.773,18.557H41.546V35.546H53.917Z" transform="translate(-9.072 -7.712)"/>
      <path id="Trazado_881118" data-name="Trazado 881118" d="M5,15.093A3.093,3.093,0,1,0,8.093,12,3.093,3.093,0,0,0,5,15.093Zm4.639,0a1.546,1.546,0,1,1-1.546-1.546A1.546,1.546,0,0,1,9.639,15.093Z" transform="translate(-1.134 -2.722)"/>
      <path id="Trazado_881119" data-name="Trazado 881119" d="M22,12h1.546v1.546H22Z" transform="translate(-4.99 -2.722)"/>
      <path id="Trazado_881120" data-name="Trazado 881120" d="M26,12h7.732v1.546H26Z" transform="translate(-5.897 -2.722)"/>
      <path id="Trazado_881121" data-name="Trazado 881121" d="M47,12H57.052v1.546H47Z" transform="translate(-10.66 -2.722)"/>
      <path id="Trazado_881122" data-name="Trazado 881122" d="M44,38h1.546v1.546H44Z" transform="translate(-9.979 -8.619)"/>
      <path id="Trazado_881123" data-name="Trazado 881123" d="M48,38h6.186v1.546H48Z" transform="translate(-10.887 -8.619)"/>
      <path id="Trazado_881124" data-name="Trazado 881124" d="M44,42h9.278v1.546H44Z" transform="translate(-9.979 -9.527)"/>
      <path id="Trazado_881125" data-name="Trazado 881125" d="M46,46h7.732v1.546H46Z" transform="translate(-10.433 -10.434)"/>
      <path id="Trazado_881126" data-name="Trazado 881126" d="M44,50h9.278v1.546H44Z" transform="translate(-9.979 -11.341)"/>
      <path id="Trazado_881127" data-name="Trazado 881127" d="M44,54h9.278v1.546H44Z" transform="translate(-9.979 -12.248)"/>
      <path id="Trazado_881128" data-name="Trazado 881128" d="M1.546,7.731H23.969V6.185H22.423V3.865A3.728,3.728,0,0,0,18.557,0H3.866A3.871,3.871,0,0,0,0,3.865V9.278H1.546Zm2.32-6.186H18.557a2.205,2.205,0,0,1,2.32,2.32v2.32H1.546V3.865a2.32,2.32,0,0,1,2.32-2.32Z" transform="translate(0 0)"/>
      <path id="Trazado_881129" data-name="Trazado 881129" d="M45.618,0H27.062V1.546H45.618a2.32,2.32,0,0,1,2.32,2.32v2.32H25.515V7.732H47.938V23.2h-2L32.248,9.5a.773.773,0,0,0-1.093,0l-8.732,8.732-6.412-6.412a.773.773,0,0,0-1.093,0L3.546,23.2h-2V10.825H0V45.618a3.871,3.871,0,0,0,3.866,3.866H45.618a3.871,3.871,0,0,0,3.866-3.866V3.866A3.871,3.871,0,0,0,45.618,0ZM15.464,13.464,24.2,22.2,25.289,21.1,23.516,19.33,31.7,11.145,43.752,23.2H5.732ZM45.618,47.938H3.866a2.32,2.32,0,0,1-2.32-2.32V24.742H47.938V45.618a2.32,2.32,0,0,1-2.32,2.32Z" transform="translate(0 -0.001)"/>
      <path id="Trazado_881130" data-name="Trazado 881130" d="M31,0h1.546V1.546H31Z" transform="translate(-7.031 -0.001)"/>
      <path id="Trazado_881131" data-name="Trazado 881131" d="M4,4H17.144V5.546H4Z" transform="translate(-0.907 -0.908)"/>
      <path id="Trazado_881132" data-name="Trazado 881132" d="M23,4h1.546V5.546H23Z" transform="translate(-5.217 -0.908)"/>
      <path id="Trazado_881133" data-name="Trazado 881133" d="M58,4h1.546V5.546H58Z" transform="translate(-13.155 -0.908)"/>
      <path id="Trazado_881134" data-name="Trazado 881134" d="M54,4h1.546V5.546H54Z" transform="translate(-12.248 -0.908)"/>
      <path id="Trazado_881135" data-name="Trazado 881135" d="M50,4h1.546V5.546H50Z" transform="translate(-11.34 -0.908)"/>
    </g>
  </g>
</svg>
