<svg xmlns="http://www.w3.org/2000/svg" width="85" height="91" viewBox="0 0 85 91">
  <g id="Grupo_1102472" data-name="Grupo 1102472" transform="translate(-179.523 -4787)">
    <rect id="Rectángulo_405369" data-name="Rectángulo 405369" width="85" height="91" rx="10" transform="translate(179.523 4787)" fill="#13de61"/>
    <g id="aplicaciones" transform="translate(189.423 4800)">
      <g id="Grupo_1102445" data-name="Grupo 1102445">
        <path id="Trazado_880705" data-name="Trazado 880705" d="M24.4,7.3H16.3a2.26,2.26,0,0,1-2.1-1.4L12.6,2H28.1L26.5,5.9a2.428,2.428,0,0,1-2.1,1.4Z" fill="#ef6561"/>
        <path id="Trazado_880706" data-name="Trazado 880706" d="M24.4,8.3H16.3a3.275,3.275,0,0,1-3-2L11.7,2.4a.94.94,0,0,1,.1-.9,1.02,1.02,0,0,1,.8-.5H28.1a1.234,1.234,0,0,1,.8.4.972.972,0,0,1,.1.9L27.4,6.2a3.218,3.218,0,0,1-3,2.1ZM14.1,3l1.1,2.5a1.206,1.206,0,0,0,1.2.8h8.1a1.3,1.3,0,0,0,1.2-.8L26.6,3Z" fill="#101f2d"/>
      </g>
      <g id="Grupo_1102446" data-name="Grupo 1102446">
        <path id="Trazado_880707" data-name="Trazado 880707" d="M34.6,65H6.1a4.951,4.951,0,0,1-5-5V6a4.951,4.951,0,0,1,5-5H34.6a4.951,4.951,0,0,1,5,5V18a1,1,0,0,1-2,0V6a2.946,2.946,0,0,0-3-3H6.1a2.946,2.946,0,0,0-3,3V60a2.946,2.946,0,0,0,3,3H34.6a2.946,2.946,0,0,0,3-3V48.5a1,1,0,0,1,2,0V60A4.951,4.951,0,0,1,34.6,65Z" fill="#101f2d"/>
      </g>
      <g id="Grupo_1102447" data-name="Grupo 1102447">
        <path id="Trazado_880708" data-name="Trazado 880708" d="M22.6,60.1H18.1a1,1,0,0,1,0-2h4.5a1,1,0,1,1,0,2Z" fill="#101f2d"/>
      </g>
      <g id="Grupo_1102451" data-name="Grupo 1102451">
        <g id="Grupo_1102448" data-name="Grupo 1102448">
          <path id="Trazado_880709" data-name="Trazado 880709" d="M12.9,30.6H8.3a1.155,1.155,0,0,1-1.2-1.2V24.8a1.155,1.155,0,0,1,1.2-1.2h4.6a1.155,1.155,0,0,1,1.2,1.2v4.6A1.216,1.216,0,0,1,12.9,30.6Z" fill="#ef6561"/>
          <path id="Trazado_880710" data-name="Trazado 880710" d="M12.9,31.6H8.3a2.22,2.22,0,0,1-2.2-2.2V24.8a2.22,2.22,0,0,1,2.2-2.2h4.6a2.22,2.22,0,0,1,2.2,2.2v4.6A2.156,2.156,0,0,1,12.9,31.6ZM8.3,24.7a.215.215,0,0,0-.2.2v4.6a.215.215,0,0,0,.2.2h4.6a.215.215,0,0,0,.2-.2V24.9a.215.215,0,0,0-.2-.2Z" fill="#ef6561"/>
        </g>
        <g id="Grupo_1102449" data-name="Grupo 1102449">
          <path id="Trazado_880711" data-name="Trazado 880711" d="M12.9,43.3H8.3a2.22,2.22,0,0,1-2.2-2.2V36.5a2.22,2.22,0,0,1,2.2-2.2h4.6a2.22,2.22,0,0,1,2.2,2.2v4.6A2.22,2.22,0,0,1,12.9,43.3ZM8.3,36.4a.215.215,0,0,0-.2.2v4.6a.215.215,0,0,0,.2.2h4.6a.215.215,0,0,0,.2-.2V36.6a.215.215,0,0,0-.2-.2Z" fill="#101f2d"/>
        </g>
        <g id="Grupo_1102450" data-name="Grupo 1102450">
          <path id="Trazado_880712" data-name="Trazado 880712" d="M12.9,54H8.3a1.155,1.155,0,0,1-1.2-1.2V48.2A1.155,1.155,0,0,1,8.3,47h4.6a1.155,1.155,0,0,1,1.2,1.2v4.6A1.216,1.216,0,0,1,12.9,54Z" fill="#64c4f6"/>
          <path id="Trazado_880713" data-name="Trazado 880713" d="M12.9,55H8.3a2.22,2.22,0,0,1-2.2-2.2V48.2A2.22,2.22,0,0,1,8.3,46h4.6a2.22,2.22,0,0,1,2.2,2.2v4.6A2.22,2.22,0,0,1,12.9,55ZM8.3,48a.215.215,0,0,0-.2.2v4.6a.215.215,0,0,0,.2.2h4.6a.215.215,0,0,0,.2-.2V48.2a.215.215,0,0,0-.2-.2Z" fill="#101f2d"/>
        </g>
      </g>
      <g id="Grupo_1102453" data-name="Grupo 1102453">
        <g id="Grupo_1102452" data-name="Grupo 1102452">
          <path id="Trazado_880714" data-name="Trazado 880714" d="M12.9,20H8.3a2.22,2.22,0,0,1-2.2-2.2V13.2A2.22,2.22,0,0,1,8.3,11h4.6a2.22,2.22,0,0,1,2.2,2.2v4.6A2.22,2.22,0,0,1,12.9,20ZM8.3,13a.215.215,0,0,0-.2.2v4.6a.215.215,0,0,0,.2.2h4.6a.215.215,0,0,0,.2-.2V13.2a.215.215,0,0,0-.2-.2Z" fill="#101f2d"/>
        </g>
      </g>
      <g id="Grupo_1102454" data-name="Grupo 1102454">
        <path id="Trazado_880715" data-name="Trazado 880715" d="M50.2,21.3v24a3.329,3.329,0,0,1-3.3,3.3H23a3.329,3.329,0,0,1-3.3-3.3v-24A3.329,3.329,0,0,1,23,18H47A3.244,3.244,0,0,1,50.2,21.3Z" fill="#64c4f6"/>
        <path id="Trazado_880716" data-name="Trazado 880716" d="M47,49.5H23a4.332,4.332,0,0,1-4.3-4.3v-24A4.332,4.332,0,0,1,23,16.9H47a4.332,4.332,0,0,1,4.3,4.3v24A4.4,4.4,0,0,1,47,49.5ZM23,19a2.326,2.326,0,0,0-2.3,2.3v24A2.326,2.326,0,0,0,23,47.6H47a2.326,2.326,0,0,0,2.3-2.3v-24A2.326,2.326,0,0,0,47,19Z" fill="#101f2d"/>
      </g>
      <g id="Grupo_1102455" data-name="Grupo 1102455">
        <path id="Trazado_880717" data-name="Trazado 880717" d="M34.2,22.2a11.691,11.691,0,0,0-4.5,1.3,2.341,2.341,0,0,1-.4,2.7,2.278,2.278,0,0,1-2.7-.2,10.187,10.187,0,0,0-2.2,4.1A2.254,2.254,0,0,1,26,32.3a2.261,2.261,0,0,1-2.1,1.8,11.691,11.691,0,0,0,1.3,4.5,2.341,2.341,0,0,1,2.7.4,2.278,2.278,0,0,1-.2,2.7,10.187,10.187,0,0,0,4.1,2.2A2.254,2.254,0,0,1,34,42.3a2.261,2.261,0,0,1,1.8,2.1,11.691,11.691,0,0,0,4.5-1.3,2.341,2.341,0,0,1,.4-2.7,2.278,2.278,0,0,1,2.7.2,10.187,10.187,0,0,0,2.2-4.1A2.254,2.254,0,0,1,44,34.3a2.261,2.261,0,0,1,2.1-1.8A11.691,11.691,0,0,0,44.8,28a2.341,2.341,0,0,1-2.7-.4,2.278,2.278,0,0,1,.2-2.7,10.187,10.187,0,0,0-4.1-2.2A2.254,2.254,0,0,1,36,24.3a2.367,2.367,0,0,1-1.8-2.1Z" fill="#fff"/>
        <path id="Trazado_880718" data-name="Trazado 880718" d="M35.8,45.3a.974.974,0,0,1-1-.8,1.5,1.5,0,0,0-.9-1.3,1.618,1.618,0,0,0-1.2,1,1.02,1.02,0,0,1-1.2.6,12.616,12.616,0,0,1-4.4-2.4.948.948,0,0,1-.2-1.3c.4-.6.5-1.2.2-1.5a1.457,1.457,0,0,0-1.6-.1.883.883,0,0,1-1.2-.5,11.6,11.6,0,0,1-1.4-4.9,1.084,1.084,0,0,1,.8-1.1,1.5,1.5,0,0,0,1.3-.9,1.618,1.618,0,0,0-1-1.2,1.02,1.02,0,0,1-.6-1.2,12.616,12.616,0,0,1,2.4-4.4.948.948,0,0,1,1.3-.2c.6.4,1.2.5,1.5.2a1.457,1.457,0,0,0,.1-1.6.883.883,0,0,1,.5-1.2,11.6,11.6,0,0,1,4.9-1.4,1.084,1.084,0,0,1,1.1.8,1.5,1.5,0,0,0,.9,1.3c.4.1.9-.4,1.2-1a1.02,1.02,0,0,1,1.2-.6A12.616,12.616,0,0,1,42.9,24a.948.948,0,0,1,.2,1.3c-.4.6-.5,1.2-.2,1.5a1.457,1.457,0,0,0,1.6.1.883.883,0,0,1,1.2.5,11.6,11.6,0,0,1,1.4,4.9,1.084,1.084,0,0,1-.8,1.1,1.5,1.5,0,0,0-1.3.9,1.618,1.618,0,0,0,1,1.2,1.02,1.02,0,0,1,.6,1.2,12.616,12.616,0,0,1-2.4,4.4.948.948,0,0,1-1.3.2c-.6-.4-1.2-.5-1.5-.2a1.457,1.457,0,0,0-.1,1.6.883.883,0,0,1-.5,1.2A12.481,12.481,0,0,1,35.8,45.3Zm-2-4.1h.3a3.035,3.035,0,0,1,2.4,2,12.547,12.547,0,0,0,2.6-.7,3,3,0,0,1,1-3,2.868,2.868,0,0,1,3.1-.3,10.46,10.46,0,0,0,1.3-2.3,2.857,2.857,0,0,1,.6-5.2,12.547,12.547,0,0,0-.7-2.6,3,3,0,0,1-3-1,2.868,2.868,0,0,1-.3-3.1,10.46,10.46,0,0,0-2.3-1.3,2.857,2.857,0,0,1-5.2-.6,12.547,12.547,0,0,0-2.6.7,3,3,0,0,1-1,3,2.868,2.868,0,0,1-3.1.3,10.46,10.46,0,0,0-1.3,2.3,2.857,2.857,0,0,1-.6,5.2,12.547,12.547,0,0,0,.7,2.6,3,3,0,0,1,3,1,2.868,2.868,0,0,1,.3,3.1,10.46,10.46,0,0,0,2.3,1.3,3.578,3.578,0,0,1,2.5-1.4Z" fill="#101f2d"/>
      </g>
      <g id="Grupo_1102456" data-name="Grupo 1102456">
        <circle id="Elipse_11555" data-name="Elipse 11555" cx="4.5" cy="4.5" r="4.5" transform="translate(30.043 29.204) rotate(-6.315)" fill="#ef6561"/>
      </g>
      <g id="Grupo_1102461" data-name="Grupo 1102461">
        <g id="Grupo_1102457" data-name="Grupo 1102457">
          <path id="Trazado_880719" data-name="Trazado 880719" d="M49.7,8.6A3.757,3.757,0,0,1,46,4.9a3.7,3.7,0,0,1,7.4,0A3.691,3.691,0,0,1,49.7,8.6Zm0-5.4A1.752,1.752,0,0,0,48,4.9a1.7,1.7,0,0,0,3.4,0,1.685,1.685,0,0,0-1.7-1.7Z" fill="#101f2d"/>
        </g>
        <g id="Grupo_1102458" data-name="Grupo 1102458">
          <path id="Trazado_880720" data-name="Trazado 880720" d="M44,18.2a.945.945,0,0,1-1-1V10.8a.908.908,0,0,1,.3-.7L47,6.4a.99.99,0,0,1,1.4,1.4L45,11.2v6A1,1,0,0,1,44,18.2Z" fill="#101f2d"/>
        </g>
        <g id="Grupo_1102459" data-name="Grupo 1102459">
          <path id="Trazado_880721" data-name="Trazado 880721" d="M49.5,64.8a3.7,3.7,0,1,1,3.7-3.7A3.691,3.691,0,0,1,49.5,64.8Zm0-5.4a1.7,1.7,0,1,0,1.7,1.7A1.685,1.685,0,0,0,49.5,59.4Z" fill="#101f2d"/>
        </g>
        <g id="Grupo_1102460" data-name="Grupo 1102460">
          <path id="Trazado_880722" data-name="Trazado 880722" d="M47.8,60a.908.908,0,0,1-.7-.3l-3.8-3.8a.908.908,0,0,1-.3-.7V48.8a1,1,0,0,1,2,0v6l3.5,3.5a.967.967,0,0,1,0,1.4A.908.908,0,0,1,47.8,60Z" fill="#101f2d"/>
        </g>
      </g>
      <g id="Grupo_1102462" data-name="Grupo 1102462">
        <path id="Trazado_880723" data-name="Trazado 880723" d="M52.6,34.3H50.5a1,1,0,0,1,0-2h2.1a1,1,0,1,1,0,2Z" fill="#101f2d"/>
      </g>
      <g id="Grupo_1102463" data-name="Grupo 1102463">
        <path id="Trazado_880724" data-name="Trazado 880724" d="M56.6,36.2a2.9,2.9,0,1,1,2.9-2.9A2.9,2.9,0,0,1,56.6,36.2Z" fill="#ef6561"/>
        <path id="Trazado_880725" data-name="Trazado 880725" d="M56.6,37.2a3.9,3.9,0,0,1-3.9-3.9,3.9,3.9,0,1,1,3.9,3.9Zm0-5.8a1.9,1.9,0,0,0-1.9,1.9,1.967,1.967,0,0,0,1.9,1.9,1.9,1.9,0,0,0,1.9-1.9,1.967,1.967,0,0,0-1.9-1.9Z" fill="#101f2d"/>
      </g>
      <g id="Grupo_1102464" data-name="Grupo 1102464">
        <path id="Trazado_880726" data-name="Trazado 880726" d="M61,45.8a3.9,3.9,0,1,1,3.9-3.9A3.971,3.971,0,0,1,61,45.8ZM61,40a1.9,1.9,0,1,0,0,3.8,1.967,1.967,0,0,0,1.9-1.9A1.9,1.9,0,0,0,61,40Z" fill="#101f2d"/>
      </g>
      <g id="Grupo_1102465" data-name="Grupo 1102465">
        <path id="Trazado_880727" data-name="Trazado 880727" d="M58,42.9H54.3a.908.908,0,0,1-.7-.3l-3.9-3.9a.99.99,0,0,1,1.4-1.4l3.6,3.6H58a1,1,0,1,1,0,2Z" fill="#101f2d"/>
      </g>
      <g id="Grupo_1102466" data-name="Grupo 1102466">
        <path id="Trazado_880728" data-name="Trazado 880728" d="M61,28.6a3.9,3.9,0,0,1-3.9-3.9A3.9,3.9,0,1,1,61,28.6Zm0-5.9a1.9,1.9,0,0,0-1.9,1.9A1.9,1.9,0,1,0,61,22.7Z" fill="#101f2d"/>
      </g>
      <g id="Grupo_1102467" data-name="Grupo 1102467">
        <path id="Trazado_880729" data-name="Trazado 880729" d="M50.2,29.7a.908.908,0,0,1-.7-.3.967.967,0,0,1,0-1.4l4-4a.908.908,0,0,1,.7-.3H58a1,1,0,0,1,0,2H54.7L51,29.4a1.33,1.33,0,0,1-.8.3Z" fill="#101f2d"/>
      </g>
      <g id="Grupo_1102468" data-name="Grupo 1102468">
        <path id="Trazado_880730" data-name="Trazado 880730" d="M54.9,9.7a2.9,2.9,0,1,0,2.9,2.9,2.782,2.782,0,0,0-2.9-2.9Z" fill="#64c4f6"/>
        <path id="Trazado_880731" data-name="Trazado 880731" d="M54.9,16.5A3.9,3.9,0,0,1,51,12.6a3.9,3.9,0,0,1,7.8,0A3.9,3.9,0,0,1,54.9,16.5Zm0-5.8A1.9,1.9,0,0,0,53,12.6a1.9,1.9,0,0,0,3.8,0A1.9,1.9,0,0,0,54.9,10.7Z" fill="#101f2d"/>
      </g>
      <g id="Grupo_1102469" data-name="Grupo 1102469">
        <path id="Trazado_880732" data-name="Trazado 880732" d="M50.6,24.1a.908.908,0,0,1-.7-.3.967.967,0,0,1,0-1.4L54,18.3V15.6a1,1,0,1,1,2,0v3.2a.908.908,0,0,1-.3.7l-4.4,4.4a1.854,1.854,0,0,1-.7.2Z" fill="#101f2d"/>
      </g>
      <g id="Grupo_1102470" data-name="Grupo 1102470">
        <path id="Trazado_880733" data-name="Trazado 880733" d="M54.9,56.4a2.9,2.9,0,1,1,2.9-2.9A2.838,2.838,0,0,1,54.9,56.4Z" fill="#64c4f6"/>
        <path id="Trazado_880734" data-name="Trazado 880734" d="M54.9,57.4A3.9,3.9,0,0,1,51,53.5a3.9,3.9,0,1,1,7.8,0A3.9,3.9,0,0,1,54.9,57.4Zm0-5.9A1.9,1.9,0,0,0,53,53.4a1.9,1.9,0,0,0,3.8,0A1.9,1.9,0,0,0,54.9,51.5Z" fill="#101f2d"/>
      </g>
      <g id="Grupo_1102471" data-name="Grupo 1102471">
        <path id="Trazado_880735" data-name="Trazado 880735" d="M54.9,51.5a.945.945,0,0,1-1-1V47.8l-4-4a.99.99,0,1,1,1.4-1.4l4.3,4.3a.908.908,0,0,1,.3.7v3.2A.988.988,0,0,1,54.9,51.5Z" fill="#101f2d"/>
      </g>
    </g>
  </g>
</svg>
