<svg xmlns="http://www.w3.org/2000/svg" width="114" height="114" viewBox="0 0 114 114">
  <g id="Grupo_1102510" data-name="Grupo 1102510" transform="translate(-612.051 -4355)">
    <circle id="Elipse_11543" data-name="Elipse 11543" cx="57" cy="57" r="57" transform="translate(612.051 4355)" fill="#5e3552"/>
    <g id="cloud-service_1_" data-name="cloud-service (1)" transform="translate(619.045 4362.001)">
      <g id="Grupo_1102509" data-name="Grupo 1102509" transform="translate(10.972 10.147)">
        <path id="Trazado_881082" data-name="Trazado 881082" d="M74.7,32.1A13.635,13.635,0,0,0,64.3,45.263,13.5,13.5,0,0,0,77.754,58.719h35.965a13.455,13.455,0,1,0,0-26.911h-6.954A16.032,16.032,0,0,0,74.7,32.1Z" transform="translate(-57.198 -16)" fill="#a4d4ff" fill-rule="evenodd"/>
        <g id="Grupo_1102507" data-name="Grupo 1102507" transform="translate(11.699 15.967)">
          <circle id="Elipse_11564" data-name="Elipse 11564" cx="18.975" cy="18.975" r="18.975" transform="translate(0 26.83) rotate(-45)" fill="#66d4f1"/>
        </g>
        <g id="Grupo_1102508" data-name="Grupo 1102508" transform="translate(0 56.446)">
          <path id="Trazado_881083" data-name="Trazado 881083" d="M397.279,369.7h-3.345v13.09a.493.493,0,0,1-.492.492h-9.628a.493.493,0,0,1-.492-.492V369.7h-3.345a.492.492,0,0,1-.323-.863l8.651-7.544a.489.489,0,0,1,.647,0l8.651,7.544a.492.492,0,0,1-.323.863Z" transform="translate(-320.694 -361.011)" fill="#c6ea94" fill-rule="evenodd"/>
          <path id="Trazado_881084" data-name="Trazado 881084" d="M38.792,373.778H35.447v-13.09a.493.493,0,0,0-.492-.492H25.327a.493.493,0,0,0-.492.492v13.09H21.49a.492.492,0,0,0-.323.863l8.651,7.544a.489.489,0,0,0,.647,0l8.651-7.544a.492.492,0,0,0-.323-.863Z" transform="translate(-20.997 -360.196)" fill="#f76c82" fill-rule="evenodd"/>
        </g>
      </g>
      <path id="Trazado_881085" data-name="Trazado 881085" d="M66.786,51.8a17.244,17.244,0,0,0-4-9.951,27.4,27.4,0,0,1-4.195,1.382A31.544,31.544,0,0,1,59.95,51.8h6.835ZM62.891,63.921a17.233,17.233,0,0,0,3.895-9.828H59.937a31.226,31.226,0,0,1-1.407,8.386,27.148,27.148,0,0,1,4.361,1.442ZM54.47,69.533A17.311,17.311,0,0,0,61.2,65.7a26.474,26.474,0,0,0-3.483-1.063,15.138,15.138,0,0,1-3.245,4.89ZM37.826,65.7a17.305,17.305,0,0,0,6.729,3.828,15.128,15.128,0,0,1-3.245-4.89A26.518,26.518,0,0,0,37.826,65.7ZM32.239,54.093a17.229,17.229,0,0,0,3.895,9.828,27.131,27.131,0,0,1,4.361-1.442,31.2,31.2,0,0,1-1.407-8.386Zm4-12.247a17.245,17.245,0,0,0-4,9.951h6.835a31.539,31.539,0,0,1,1.358-8.569,27.4,27.4,0,0,1-4.195-1.382Zm7.786-5.32a17.316,17.316,0,0,0-6.064,3.539,26.22,26.22,0,0,0,3.269,1,16.153,16.153,0,0,1,2.8-4.534ZM57.8,41.06a26.252,26.252,0,0,0,3.268-1A17.3,17.3,0,0,0,55,36.526a16.154,16.154,0,0,1,2.8,4.534Zm-2.319.461a37.21,37.21,0,0,1-4.818.446V36.252C52.536,36.819,54.227,38.751,55.478,41.521ZM57.651,51.8a29.343,29.343,0,0,0-1.333-8.09,39.427,39.427,0,0,1-5.658.558V51.8ZM56.252,62a29.045,29.045,0,0,0,1.386-7.911H50.66v7.365A39.235,39.235,0,0,1,56.252,62Zm-.863,2.184c-1.243,2.665-2.9,4.518-4.73,5.072V63.755A37.218,37.218,0,0,1,55.389,64.188Zm-11.755,0a37.2,37.2,0,0,1,4.73-.433V69.26C46.532,68.706,44.878,66.853,43.635,64.188Zm-2.248-10.1A29.046,29.046,0,0,0,42.771,62a39.248,39.248,0,0,1,5.593-.546V54.093Zm1.32-10.386a29.338,29.338,0,0,0-1.333,8.09h6.991V44.265A39.45,39.45,0,0,1,42.707,43.707Zm5.658-7.455v5.715a37.2,37.2,0,0,1-4.818-.446C44.8,38.751,46.488,36.819,48.364,36.252ZM69.12,52.945A19.609,19.609,0,1,1,49.512,33.338,19.63,19.63,0,0,1,69.12,52.945Zm-42.1,28.379h-1.6a1.149,1.149,0,0,1-1.148-1.148V67.742H15.959V80.176a1.148,1.148,0,0,1-1.148,1.148H13.217l6.9,6.017Zm4.138-1.551a1.15,1.15,0,0,0-1.076-.745h-3.51V66.594a1.147,1.147,0,0,0-1.148-1.148H14.811a1.148,1.148,0,0,0-1.147,1.148V79.028h-3.51A1.148,1.148,0,0,0,9.4,81.04l9.965,8.69a1.149,1.149,0,0,0,1.508,0l9.962-8.69A1.147,1.147,0,0,0,31.156,79.772Zm54.65-5.638-6.9-6.017-6.9,6.017H73.6a1.148,1.148,0,0,1,1.148,1.148V87.716h8.318V75.282a1.145,1.145,0,0,1,1.15-1.148Zm4.136,1.55a1.14,1.14,0,0,0-.316-1.268L79.66,65.728a1.147,1.147,0,0,0-1.508,0l-9.963,8.689a1.148,1.148,0,0,0,.755,2.014h3.51V88.864A1.147,1.147,0,0,0,73.6,90.012H84.217a1.143,1.143,0,0,0,1.142-1.148V76.43h3.511a1.138,1.138,0,0,0,1.073-.746ZM16.926,39.41a14.656,14.656,0,0,1,3.226-9.138,14.97,14.97,0,0,1,7.2-4.907,17.18,17.18,0,0,1,34.286-.557h5.858a14.6,14.6,0,0,1,5.479,28.133,1.148,1.148,0,0,1-.867-2.125A12.3,12.3,0,0,0,67.494,27.1H60.54a1.149,1.149,0,0,1-1.148-1.133A14.943,14.943,0,0,0,44.51,11.3,14.9,14.9,0,0,0,29.625,26.243a1.146,1.146,0,0,1-.874,1.115A12.417,12.417,0,0,0,19.222,39.41a12.284,12.284,0,0,0,7.7,11.406,1.149,1.149,0,0,1-.868,2.127A14.576,14.576,0,0,1,16.926,39.41Z" fill-rule="evenodd"/>
    </g>
  </g>
</svg>
