<svg xmlns="http://www.w3.org/2000/svg" width="549.01" height="275.233" viewBox="0 0 549.01 275.233">
  <g id="Grupo_1102588" data-name="Grupo 1102588" transform="translate(-212.051 -5800.381)">
    <path id="Trazado_881268" data-name="Trazado 881268" d="M13,0H536.01a13,13,0,0,1,13,13V229a13,13,0,0,1-13,13H13A13,13,0,0,1,0,229V13A13,13,0,0,1,13,0Z" transform="translate(212.051 5833.614)" fill="#110628"/>
    <path id="Trazado_881269" data-name="Trazado 881269" d="M9.367,17.156a1.783,1.783,0,0,1-1.121-.363,1.5,1.5,0,0,1-.527-.949,2.82,2.82,0,0,1-2.18,1.32A1.5,1.5,0,0,1,4.2,16.438a3.183,3.183,0,0,1-.344-1.93,7.294,7.294,0,0,1,.672-2.566,5.337,5.337,0,0,1,1.453-2,2.854,2.854,0,0,1,1.875-.676,3.6,3.6,0,0,1,2.125.82L8.938,14.445a5.657,5.657,0,0,0-.078.727q-.039,1.055.719,1.078a2.007,2.007,0,0,0,1.859-1.289,8.023,8.023,0,0,0,.8-3.445,6.161,6.161,0,0,0-.359-2.477,3.153,3.153,0,0,0-1.316-1.617,4.371,4.371,0,0,0-2.223-.57,5.446,5.446,0,0,0-3.2.961A7.383,7.383,0,0,0,2.7,10.7a9.9,9.9,0,0,0-1.051,4.078A6.178,6.178,0,0,0,2.016,17.3a3.374,3.374,0,0,0,1.3,1.676,3.9,3.9,0,0,0,2.141.574,5.732,5.732,0,0,0,2.648-.609l.211.914a5.363,5.363,0,0,1-2.875.68,5.05,5.05,0,0,1-2.594-.66,4.318,4.318,0,0,1-1.7-1.906,6.617,6.617,0,0,1-.6-2.895,10.074,10.074,0,0,1,.605-3.457,10.1,10.1,0,0,1,1.727-3.1A7.593,7.593,0,0,1,5.395,6.488,6.442,6.442,0,0,1,8.367,5.82a5.116,5.116,0,0,1,2.605.68,4.2,4.2,0,0,1,1.664,1.914,6.793,6.793,0,0,1,.574,2.852A8.942,8.942,0,0,1,12.7,14.4a4.764,4.764,0,0,1-1.375,2.082A2.869,2.869,0,0,1,9.367,17.156ZM5.07,14.7q-.039,1.334.875,1.358.836.039,1.563-1.124l.25-.413.008-.086L8.8,10.492a1.816,1.816,0,0,0-.836-.226,2.1,2.1,0,0,0-1.84,1.053,6.868,6.868,0,0,0-1.02,2.941ZM14.477,17,16.453,5.625l2.953.008a4.1,4.1,0,0,1,2.395.7,3.835,3.835,0,0,1,1.441,1.918,5.962,5.962,0,0,1,.258,2.738l-.078.57a6.432,6.432,0,0,1-1.93,3.965A5.611,5.611,0,0,1,17.508,17ZM17.7,6.852l-1.547,8.914,1.445.008a4.061,4.061,0,0,0,2.809-1.031,4.9,4.9,0,0,0,1.5-2.828,9.2,9.2,0,0,0,.188-2.445,2.978,2.978,0,0,0-.8-1.895,2.605,2.605,0,0,0-1.844-.715ZM29.688,17a1.893,1.893,0,0,1-.055-.445l.023-.445a3.465,3.465,0,0,1-2.469,1.047,2.526,2.526,0,0,1-1.816-.707,2.14,2.14,0,0,1-.637-1.73,2.6,2.6,0,0,1,1.176-2.1,5.005,5.005,0,0,1,2.887-.754l1.477.008.094-.672a1.545,1.545,0,0,0-.293-1.2,1.414,1.414,0,0,0-1.113-.457,2.181,2.181,0,0,0-1.285.355,1.513,1.513,0,0,0-.684.98l-1.422.008a2.266,2.266,0,0,1,.578-1.316,3.363,3.363,0,0,1,1.3-.891,4.215,4.215,0,0,1,1.648-.3,2.8,2.8,0,0,1,2.055.8,2.484,2.484,0,0,1,.617,2.043l-.687,4.188-.039.6a2.949,2.949,0,0,0,.094.852L31.125,17Zm-2.219-1.094a2.466,2.466,0,0,0,1.285-.324,3.254,3.254,0,0,0,1.043-.941l.3-1.742-1.07-.008a4.054,4.054,0,0,0-2.047.422,1.554,1.554,0,0,0-.8,1.2,1.21,1.21,0,0,0,.277.988A1.321,1.321,0,0,0,27.469,15.906ZM37.734,8.391a3.047,3.047,0,0,1,1.82.578,3.285,3.285,0,0,1,1.121,1.551,4.8,4.8,0,0,1,.246,2.16l-.016.172a5.685,5.685,0,0,1-.734,2.23,4.309,4.309,0,0,1-1.516,1.551,3.7,3.7,0,0,1-2.039.523,3.052,3.052,0,0,1-1.816-.578,3.21,3.21,0,0,1-1.113-1.531,4.931,4.931,0,0,1-.25-2.133,5.76,5.76,0,0,1,.711-2.359,4.409,4.409,0,0,1,1.527-1.621A3.652,3.652,0,0,1,37.734,8.391Zm-2.875,4.531a4.8,4.8,0,0,0,0,1.023,2.507,2.507,0,0,0,.551,1.469,1.653,1.653,0,0,0,1.262.57,2.253,2.253,0,0,0,1.3-.348,2.919,2.919,0,0,0,1-1.121,4.721,4.721,0,0,0,.523-1.664,7.494,7.494,0,0,0,.023-1.211,2.6,2.6,0,0,0-.57-1.492A1.69,1.69,0,0,0,37.68,9.57a2.3,2.3,0,0,0-1.859.859,4.245,4.245,0,0,0-.945,2.313ZM1.773,41H.367l1.469-8.453H3.242ZM2.938,29.461a.774.774,0,0,1,.6.215.8.8,0,0,1,.238.605.834.834,0,0,1-.836.852.779.779,0,0,1-.6-.211.764.764,0,0,1-.227-.594.886.886,0,0,1,.234-.609A.826.826,0,0,1,2.938,29.461Zm3.953,3.078-.2,1.07a3.333,3.333,0,0,1,2.594-1.219,2.1,2.1,0,0,1,1.766.828,3.217,3.217,0,0,1,.422,2.242L10.547,41H9.133l.93-5.557a2.962,2.962,0,0,0,.008-.71,1.168,1.168,0,0,0-1.289-1.116,2.661,2.661,0,0,0-2.234,1.358L5.5,41H4.086l1.469-8.453Zm9.57-2.039L16.1,32.547h1.539l-.2,1.117H15.914l-.883,5.258a1.833,1.833,0,0,0-.008.375.6.6,0,0,0,.664.609,4.05,4.05,0,0,0,.688-.078l-.109,1.18a3.847,3.847,0,0,1-1.031.141,1.476,1.476,0,0,1-1.266-.621,2.4,2.4,0,0,1-.328-1.629l.859-5.234H13.008l.2-1.117H14.7l.359-2.047Zm5.07,10.656a3.048,3.048,0,0,1-2.469-1.164,4.006,4.006,0,0,1-.75-2.9l.039-.336a5.624,5.624,0,0,1,.746-2.3,4.339,4.339,0,0,1,1.5-1.566,3.491,3.491,0,0,1,1.906-.5,2.688,2.688,0,0,1,2.047.867,3.566,3.566,0,0,1,.813,2.266,6.621,6.621,0,0,1-.031,1.016l-.086.648H19.719a2.856,2.856,0,0,0,.379,1.953,1.8,1.8,0,0,0,1.551.836,3.007,3.007,0,0,0,2.313-1.125l.813.688a3.718,3.718,0,0,1-1.371,1.2A3.886,3.886,0,0,1,21.531,41.156Zm.9-7.586a2.066,2.066,0,0,0-1.527.594A4.22,4.22,0,0,0,19.867,36l4.109.008.031-.125a2.313,2.313,0,0,0-.316-1.637A1.488,1.488,0,0,0,22.43,33.57Zm9,.266-.664-.07a2.42,2.42,0,0,0-2.141,1.227L27.586,41H26.172l1.469-8.453,1.367-.008-.211.984a2.527,2.527,0,0,1,2.117-1.148,2.594,2.594,0,0,1,.672.117ZM32.3,41l1.281-7.336h-1.3l.2-1.117h1.3l.141-1a3.318,3.318,0,0,1,.984-1.992,2.926,2.926,0,0,1,2.094-.734A4.884,4.884,0,0,1,38,28.954l-.172,1.187a4.636,4.636,0,0,0-.758-.094,1.614,1.614,0,0,0-1.191.456,2.073,2.073,0,0,0-.566,1.211l-.125.833h1.75l-.2,1.117h-1.75L33.719,41Zm9.953,0a1.894,1.894,0,0,1-.055-.445l.023-.445a3.465,3.465,0,0,1-2.469,1.047,2.526,2.526,0,0,1-1.816-.707,2.14,2.14,0,0,1-.637-1.73,2.6,2.6,0,0,1,1.176-2.1,5.005,5.005,0,0,1,2.887-.754l1.477.008.094-.672a1.545,1.545,0,0,0-.293-1.2,1.414,1.414,0,0,0-1.113-.457,2.181,2.181,0,0,0-1.285.355,1.513,1.513,0,0,0-.684.98l-1.422.008a2.266,2.266,0,0,1,.578-1.316,3.363,3.363,0,0,1,1.3-.891,4.215,4.215,0,0,1,1.648-.3,2.8,2.8,0,0,1,2.055.8,2.484,2.484,0,0,1,.617,2.043l-.687,4.188-.039.6a2.949,2.949,0,0,0,.094.852L43.7,41Zm-2.219-1.094a2.466,2.466,0,0,0,1.285-.324,3.254,3.254,0,0,0,1.043-.941l.3-1.742-1.07-.008a4.054,4.054,0,0,0-2.047.422,1.554,1.554,0,0,0-.8,1.2,1.21,1.21,0,0,0,.277.988A1.321,1.321,0,0,0,40.039,39.906Zm9.141.078a2.145,2.145,0,0,0,1.367-.441,2.1,2.1,0,0,0,.8-1.2l1.336-.008a3.014,3.014,0,0,1-.637,1.453,3.68,3.68,0,0,1-2.926,1.367,3.017,3.017,0,0,1-1.785-.551,3.084,3.084,0,0,1-1.074-1.492,4.972,4.972,0,0,1-.234-2.152l.039-.391a5.605,5.605,0,0,1,.711-2.18,4.11,4.11,0,0,1,1.469-1.5,3.648,3.648,0,0,1,2-.5,2.857,2.857,0,0,1,2.125.891,3.08,3.08,0,0,1,.8,2.18l-1.32-.008a2.029,2.029,0,0,0-.461-1.34,1.607,1.607,0,0,0-1.2-.543,2.254,2.254,0,0,0-1.832.82,4.3,4.3,0,0,0-.91,2.359l-.023.2a6.776,6.776,0,0,0-.016,1.031,2.355,2.355,0,0,0,.516,1.445A1.656,1.656,0,0,0,49.18,39.984Zm8.289,1.172A3.048,3.048,0,0,1,55,39.992a4.006,4.006,0,0,1-.75-2.9l.039-.336a5.624,5.624,0,0,1,.746-2.3,4.339,4.339,0,0,1,1.5-1.566,3.491,3.491,0,0,1,1.906-.5,2.688,2.688,0,0,1,2.047.867,3.566,3.566,0,0,1,.813,2.266,6.621,6.621,0,0,1-.031,1.016l-.086.648H55.656a2.856,2.856,0,0,0,.379,1.953,1.8,1.8,0,0,0,1.551.836A3.007,3.007,0,0,0,59.9,38.852l.813.688a3.718,3.718,0,0,1-1.371,1.2A3.886,3.886,0,0,1,57.469,41.156Zm.9-7.586a2.066,2.066,0,0,0-1.527.594A4.22,4.22,0,0,0,55.8,36l4.109.008.031-.125a2.313,2.313,0,0,0-.316-1.637A1.488,1.488,0,0,0,58.367,33.57Zm17.672-3.945-1.312,7.7A4.368,4.368,0,0,1,73.2,40.145a4.5,4.5,0,0,1-3.055,1.02,3.956,3.956,0,0,1-1.941-.5,2.9,2.9,0,0,1-1.215-1.352,3.69,3.69,0,0,1-.258-1.98l1.313-7.7h1.445l-1.3,7.717a2.5,2.5,0,0,0,.406,1.88,2.031,2.031,0,0,0,1.633.715,2.812,2.812,0,0,0,2-.645A3.125,3.125,0,0,0,73.25,37.35l1.313-7.725Zm5.367,9.086q.117-.875-.961-1.234l-1.469-.43q-1.859-.641-1.8-2.125A2.341,2.341,0,0,1,78.2,33.09a3.631,3.631,0,0,1,2.27-.7,3.027,3.027,0,0,1,2.082.746,2.363,2.363,0,0,1,.77,1.9l-1.406-.008a1.319,1.319,0,0,0-.4-1.031,1.576,1.576,0,0,0-1.1-.414,2.059,2.059,0,0,0-1.266.359,1.316,1.316,0,0,0-.57.922q-.1.734.9,1.07l.711.2a4.577,4.577,0,0,1,2.063.977,1.865,1.865,0,0,1,.563,1.492,2.37,2.37,0,0,1-.516,1.375,2.948,2.948,0,0,1-1.25.895,4.18,4.18,0,0,1-1.664.285,3.3,3.3,0,0,1-2.219-.785,2.427,2.427,0,0,1-.844-1.98l1.414.008a1.5,1.5,0,0,0,.453,1.141,1.732,1.732,0,0,0,1.242.43,2.436,2.436,0,0,0,1.336-.324A1.247,1.247,0,0,0,81.406,38.711Zm8.211,1.453a3.265,3.265,0,0,1-2.523.992,2.107,2.107,0,0,1-1.793-.867,3.317,3.317,0,0,1-.434-2.281l.906-5.461h1.414l-.914,5.484a3.643,3.643,0,0,0-.016.672,1.4,1.4,0,0,0,.336.883,1.146,1.146,0,0,0,.828.344A2.537,2.537,0,0,0,89.766,38.7l1.063-6.156h1.414L90.773,41H89.438ZM98.055,41A1.893,1.893,0,0,1,98,40.555l.023-.445a3.465,3.465,0,0,1-2.469,1.047,2.526,2.526,0,0,1-1.816-.707,2.14,2.14,0,0,1-.637-1.73,2.6,2.6,0,0,1,1.176-2.1,5.005,5.005,0,0,1,2.887-.754l1.477.008.094-.672a1.545,1.545,0,0,0-.293-1.2,1.414,1.414,0,0,0-1.113-.457,2.181,2.181,0,0,0-1.285.355,1.513,1.513,0,0,0-.684.98l-1.422.008a2.266,2.266,0,0,1,.578-1.316,3.363,3.363,0,0,1,1.3-.891,4.215,4.215,0,0,1,1.648-.3,2.8,2.8,0,0,1,2.055.8,2.484,2.484,0,0,1,.617,2.043l-.687,4.188-.039.6a2.949,2.949,0,0,0,.094.852L99.492,41Zm-2.219-1.094a2.466,2.466,0,0,0,1.285-.324,3.254,3.254,0,0,0,1.043-.941l.3-1.742-1.07-.008a4.054,4.054,0,0,0-2.047.422,1.554,1.554,0,0,0-.8,1.2,1.21,1.21,0,0,0,.277.988A1.321,1.321,0,0,0,95.836,39.906Zm10.828-6.07-.664-.07a2.42,2.42,0,0,0-2.141,1.227L102.82,41h-1.414l1.469-8.453,1.367-.008-.211.984a2.527,2.527,0,0,1,2.117-1.148,2.594,2.594,0,0,1,.672.117Zm1.6,7.164h-1.406l1.469-8.453h1.406Zm1.164-11.539a.774.774,0,0,1,.6.215.8.8,0,0,1,.238.605.834.834,0,0,1-.836.852.779.779,0,0,1-.6-.211.764.764,0,0,1-.227-.594.886.886,0,0,1,.234-.609A.826.826,0,0,1,109.43,29.461Zm5.844,2.93a3.047,3.047,0,0,1,1.82.578,3.285,3.285,0,0,1,1.121,1.551,4.8,4.8,0,0,1,.246,2.16l-.016.172a5.685,5.685,0,0,1-.734,2.23,4.309,4.309,0,0,1-1.516,1.551,3.7,3.7,0,0,1-2.039.523,3.052,3.052,0,0,1-1.816-.578,3.21,3.21,0,0,1-1.113-1.531,4.931,4.931,0,0,1-.25-2.133,5.76,5.76,0,0,1,.711-2.359,4.409,4.409,0,0,1,1.527-1.621A3.652,3.652,0,0,1,115.273,32.391ZM112.4,36.922a4.8,4.8,0,0,0,0,1.023,2.507,2.507,0,0,0,.551,1.469,1.653,1.653,0,0,0,1.262.57,2.253,2.253,0,0,0,1.3-.348,2.919,2.919,0,0,0,1-1.121,4.721,4.721,0,0,0,.523-1.664,7.5,7.5,0,0,0,.023-1.211,2.6,2.6,0,0,0-.57-1.492,1.69,1.69,0,0,0-1.266-.578,2.3,2.3,0,0,0-1.859.859,4.245,4.245,0,0,0-.945,2.313ZM119.727,41,121.7,29.625l2.953.008a4.1,4.1,0,0,1,2.395.7,3.835,3.835,0,0,1,1.441,1.918,5.962,5.962,0,0,1,.258,2.738l-.078.57a6.432,6.432,0,0,1-1.93,3.965A5.611,5.611,0,0,1,122.758,41Zm3.227-10.148-1.547,8.914,1.445.008a4.061,4.061,0,0,0,2.809-1.031,4.9,4.9,0,0,0,1.5-2.828,9.2,9.2,0,0,0,.188-2.445,2.978,2.978,0,0,0-.8-1.895,2.605,2.605,0,0,0-1.844-.715ZM134.938,41a1.894,1.894,0,0,1-.055-.445l.023-.445a3.465,3.465,0,0,1-2.469,1.047,2.526,2.526,0,0,1-1.816-.707,2.14,2.14,0,0,1-.637-1.73,2.6,2.6,0,0,1,1.176-2.1,5.005,5.005,0,0,1,2.887-.754l1.477.008.094-.672a1.545,1.545,0,0,0-.293-1.2,1.414,1.414,0,0,0-1.113-.457,2.181,2.181,0,0,0-1.285.355,1.513,1.513,0,0,0-.684.98l-1.422.008a2.266,2.266,0,0,1,.578-1.316,3.363,3.363,0,0,1,1.3-.891,4.215,4.215,0,0,1,1.648-.3,2.8,2.8,0,0,1,2.055.8,2.484,2.484,0,0,1,.617,2.043l-.687,4.188-.039.6a2.949,2.949,0,0,0,.094.852l-.016.133Zm-2.219-1.094A2.466,2.466,0,0,0,134,39.582a3.254,3.254,0,0,0,1.043-.941l.3-1.742-1.07-.008a4.054,4.054,0,0,0-2.047.422,1.554,1.554,0,0,0-.8,1.2,1.21,1.21,0,0,0,.277.988A1.321,1.321,0,0,0,132.719,39.906Zm10.266-7.516a3.047,3.047,0,0,1,1.82.578,3.285,3.285,0,0,1,1.121,1.551,4.8,4.8,0,0,1,.246,2.16l-.016.172a5.685,5.685,0,0,1-.734,2.23,4.309,4.309,0,0,1-1.516,1.551,3.7,3.7,0,0,1-2.039.523,3.052,3.052,0,0,1-1.816-.578,3.21,3.21,0,0,1-1.113-1.531,4.931,4.931,0,0,1-.25-2.133,5.76,5.76,0,0,1,.711-2.359,4.409,4.409,0,0,1,1.527-1.621A3.652,3.652,0,0,1,142.984,32.391Zm-2.875,4.531a4.8,4.8,0,0,0,0,1.023,2.507,2.507,0,0,0,.551,1.469,1.653,1.653,0,0,0,1.262.57,2.253,2.253,0,0,0,1.3-.348,2.919,2.919,0,0,0,1-1.121,4.721,4.721,0,0,0,.523-1.664,7.493,7.493,0,0,0,.023-1.211,2.6,2.6,0,0,0-.57-1.492,1.69,1.69,0,0,0-1.266-.578,2.3,2.3,0,0,0-1.859.859,4.245,4.245,0,0,0-.945,2.313Zm14.523,6.93A3.249,3.249,0,0,1,152.82,42.5a3.487,3.487,0,0,1-.43-2.277l.219-1.617a2.968,2.968,0,0,0,.008-.711,1.2,1.2,0,0,0-1.281-1.125l.125-1.133a1.925,1.925,0,0,0,1.945-1.914l.242-1.781a4.125,4.125,0,0,1,3.2-3.437l.211.914a3.018,3.018,0,0,0-2.008,2.633l-.266,1.875a3.024,3.024,0,0,1-1.648,2.3,2.218,2.218,0,0,1,.883,1.711,4.225,4.225,0,0,1-.008.68l-.242,1.9-.016.555.016.242a1.839,1.839,0,0,0,1.18,1.656ZM25.055,65.156a1.783,1.783,0,0,1-1.121-.363,1.5,1.5,0,0,1-.527-.949,2.82,2.82,0,0,1-2.18,1.32,1.5,1.5,0,0,1-1.344-.727,3.183,3.183,0,0,1-.344-1.93,7.294,7.294,0,0,1,.672-2.566,5.337,5.337,0,0,1,1.453-2,2.854,2.854,0,0,1,1.875-.676,3.6,3.6,0,0,1,2.125.82l-1.039,4.359a5.657,5.657,0,0,0-.078.727q-.039,1.055.719,1.078a2.007,2.007,0,0,0,1.859-1.289,8.023,8.023,0,0,0,.8-3.445,6.161,6.161,0,0,0-.359-2.477,3.153,3.153,0,0,0-1.316-1.617,4.371,4.371,0,0,0-2.223-.57,5.446,5.446,0,0,0-3.2.961A7.383,7.383,0,0,0,18.387,58.7a9.9,9.9,0,0,0-1.051,4.078A6.178,6.178,0,0,0,17.7,65.3a3.374,3.374,0,0,0,1.3,1.676,3.9,3.9,0,0,0,2.141.574,5.732,5.732,0,0,0,2.648-.609l.211.914a5.363,5.363,0,0,1-2.875.68,5.05,5.05,0,0,1-2.594-.66,4.318,4.318,0,0,1-1.7-1.906,6.617,6.617,0,0,1-.6-2.895,10.6,10.6,0,0,1,2.332-6.559,7.593,7.593,0,0,1,2.516-2.031,6.442,6.442,0,0,1,2.973-.668,5.116,5.116,0,0,1,2.605.68,4.2,4.2,0,0,1,1.664,1.914,6.793,6.793,0,0,1,.574,2.852,8.942,8.942,0,0,1-.512,3.133,4.764,4.764,0,0,1-1.375,2.082A2.869,2.869,0,0,1,25.055,65.156Zm-4.3-2.451q-.039,1.334.875,1.358.836.039,1.563-1.124l.25-.413.008-.086,1.039-3.948a1.816,1.816,0,0,0-.836-.226,2.1,2.1,0,0,0-1.84,1.053A6.868,6.868,0,0,0,20.8,62.26ZM31.734,65H30.273L32.25,53.625h1.461Zm5.313-8.461-.2,1.07a3.333,3.333,0,0,1,2.594-1.219,2.1,2.1,0,0,1,1.766.828,3.217,3.217,0,0,1,.422,2.242L40.7,65H39.289l.93-5.557a2.962,2.962,0,0,0,.008-.71,1.168,1.168,0,0,0-1.289-1.116A2.661,2.661,0,0,0,36.7,58.975L35.656,65H34.242l1.469-8.453Zm11.07,6.172q.117-.875-.961-1.234l-1.469-.43q-1.859-.641-1.8-2.125a2.341,2.341,0,0,1,1.02-1.832,3.631,3.631,0,0,1,2.27-.7,3.027,3.027,0,0,1,2.082.746,2.363,2.363,0,0,1,.77,1.9l-1.406-.008a1.319,1.319,0,0,0-.4-1.031,1.576,1.576,0,0,0-1.1-.414,2.059,2.059,0,0,0-1.266.359,1.316,1.316,0,0,0-.57.922q-.1.734.9,1.07l.711.2a4.577,4.577,0,0,1,2.063.977,1.865,1.865,0,0,1,.563,1.492,2.37,2.37,0,0,1-.516,1.375,2.948,2.948,0,0,1-1.25.895,4.18,4.18,0,0,1-1.664.285,3.3,3.3,0,0,1-2.219-.785,2.427,2.427,0,0,1-.844-1.98l1.414.008a1.5,1.5,0,0,0,.453,1.141,1.732,1.732,0,0,0,1.242.43,2.436,2.436,0,0,0,1.336-.324A1.247,1.247,0,0,0,48.117,62.711Zm6.5,2.445a3.048,3.048,0,0,1-2.469-1.164,4.006,4.006,0,0,1-.75-2.9l.039-.336a5.624,5.624,0,0,1,.746-2.3,4.339,4.339,0,0,1,1.5-1.566,3.491,3.491,0,0,1,1.906-.5,2.688,2.688,0,0,1,2.047.867,3.566,3.566,0,0,1,.813,2.266,6.621,6.621,0,0,1-.031,1.016l-.086.648H52.8a2.856,2.856,0,0,0,.379,1.953,1.8,1.8,0,0,0,1.551.836,3.007,3.007,0,0,0,2.313-1.125l.813.688a3.718,3.718,0,0,1-1.371,1.2A3.886,3.886,0,0,1,54.617,65.156Zm.9-7.586a2.066,2.066,0,0,0-1.527.594A4.22,4.22,0,0,0,52.953,60l4.109.008.031-.125a2.313,2.313,0,0,0-.316-1.637A1.488,1.488,0,0,0,55.516,57.57Zm9,.266-.664-.07a2.42,2.42,0,0,0-2.141,1.227L60.672,65H59.258l1.469-8.453,1.367-.008-.211.984A2.527,2.527,0,0,1,64,56.375a2.594,2.594,0,0,1,.672.117Zm4.2-3.336-.359,2.047h1.539l-.2,1.117H68.164l-.883,5.258a1.833,1.833,0,0,0-.008.375.6.6,0,0,0,.664.609,4.05,4.05,0,0,0,.688-.078l-.109,1.18a3.847,3.847,0,0,1-1.031.141,1.476,1.476,0,0,1-1.266-.621,2.4,2.4,0,0,1-.328-1.629l.859-5.234H65.258l.2-1.117h1.492L67.3,54.5ZM21.164,86.711q.117-.875-.961-1.234l-1.469-.43q-1.859-.641-1.8-2.125a2.341,2.341,0,0,1,1.02-1.832,3.631,3.631,0,0,1,2.27-.7,3.027,3.027,0,0,1,2.082.746,2.363,2.363,0,0,1,.77,1.9l-1.406-.008a1.319,1.319,0,0,0-.4-1.031,1.576,1.576,0,0,0-1.1-.414,2.059,2.059,0,0,0-1.266.359,1.316,1.316,0,0,0-.57.922q-.1.734.9,1.07l.711.2a4.578,4.578,0,0,1,2.063.977A1.865,1.865,0,0,1,22.57,86.6a2.37,2.37,0,0,1-.516,1.375,2.948,2.948,0,0,1-1.25.895,4.18,4.18,0,0,1-1.664.285,3.3,3.3,0,0,1-2.219-.785,2.427,2.427,0,0,1-.844-1.98l1.414.008a1.5,1.5,0,0,0,.453,1.141,1.732,1.732,0,0,0,1.242.43,2.436,2.436,0,0,0,1.336-.324A1.247,1.247,0,0,0,21.164,86.711Zm8.211,1.453a3.265,3.265,0,0,1-2.523.992,2.107,2.107,0,0,1-1.793-.867,3.317,3.317,0,0,1-.434-2.281l.906-5.461h1.414l-.914,5.484a3.643,3.643,0,0,0-.016.672,1.4,1.4,0,0,0,.336.883,1.146,1.146,0,0,0,.828.344A2.537,2.537,0,0,0,29.523,86.7l1.063-6.156H32L30.531,89H29.2Zm8.5-1.453q.117-.875-.961-1.234l-1.469-.43q-1.859-.641-1.8-2.125a2.341,2.341,0,0,1,1.02-1.832,3.631,3.631,0,0,1,2.27-.7,3.027,3.027,0,0,1,2.082.746,2.363,2.363,0,0,1,.77,1.9l-1.406-.008a1.319,1.319,0,0,0-.4-1.031,1.576,1.576,0,0,0-1.1-.414,2.059,2.059,0,0,0-1.266.359,1.316,1.316,0,0,0-.57.922q-.1.734.9,1.07l.711.2a4.578,4.578,0,0,1,2.063.977,1.865,1.865,0,0,1,.563,1.492,2.37,2.37,0,0,1-.516,1.375,2.948,2.948,0,0,1-1.25.895,4.18,4.18,0,0,1-1.664.285,3.3,3.3,0,0,1-2.219-.785,2.427,2.427,0,0,1-.844-1.98L34.2,86.4a1.5,1.5,0,0,0,.453,1.141,1.732,1.732,0,0,0,1.242.43,2.436,2.436,0,0,0,1.336-.324A1.247,1.247,0,0,0,37.875,86.711Zm10.5-1.9a6.707,6.707,0,0,1-.7,2.32,3.949,3.949,0,0,1-1.336,1.543,3.058,3.058,0,0,1-1.766.488,2.815,2.815,0,0,1-2.25-.992L41.57,92.25H40.156l2.031-11.7,1.281-.008-.156.945a3.207,3.207,0,0,1,2.508-1.094,2.358,2.358,0,0,1,1.9.9,3.954,3.954,0,0,1,.719,2.391,8.413,8.413,0,0,1-.039.969Zm-1.391-.16L47.023,84a2.969,2.969,0,0,0-.434-1.744,1.525,1.525,0,0,0-1.254-.636,2.508,2.508,0,0,0-2.117,1.163l-.711,4.05a1.769,1.769,0,0,0,1.711,1.155,2.224,2.224,0,0,0,1.793-.823A4.777,4.777,0,0,0,46.984,84.652Zm6.18,4.5A3.048,3.048,0,0,1,50.7,87.992a4.006,4.006,0,0,1-.75-2.9l.039-.336a5.624,5.624,0,0,1,.746-2.3,4.339,4.339,0,0,1,1.5-1.566,3.491,3.491,0,0,1,1.906-.5,2.688,2.688,0,0,1,2.047.867,3.566,3.566,0,0,1,.813,2.266,6.621,6.621,0,0,1-.031,1.016l-.086.648H51.352a2.856,2.856,0,0,0,.379,1.953,1.8,1.8,0,0,0,1.551.836,3.007,3.007,0,0,0,2.313-1.125l.813.688a3.718,3.718,0,0,1-1.371,1.2A3.886,3.886,0,0,1,53.164,89.156Zm.9-7.586a2.066,2.066,0,0,0-1.527.594A4.22,4.22,0,0,0,51.5,84l4.109.008.031-.125a2.313,2.313,0,0,0-.316-1.637A1.488,1.488,0,0,0,54.063,81.57Zm6.547-1.031-.2,1.07A3.333,3.333,0,0,1,63,80.391a2.1,2.1,0,0,1,1.766.828,3.217,3.217,0,0,1,.422,2.242L64.266,89H62.852l.93-5.557a2.962,2.962,0,0,0,.008-.71A1.168,1.168,0,0,0,62.5,81.617a2.661,2.661,0,0,0-2.234,1.358L59.219,89H57.8l1.469-8.453Zm6.242,4.219a6.578,6.578,0,0,1,.711-2.328,4.03,4.03,0,0,1,1.367-1.555,3.127,3.127,0,0,1,1.789-.492,2.641,2.641,0,0,1,2.172,1.031L73.7,77h1.414L73.039,89H71.75l.148-.906a3.116,3.116,0,0,1-2.469,1.063,2.335,2.335,0,0,1-1.867-.918,4,4,0,0,1-.75-2.379A7.6,7.6,0,0,1,66.852,84.758Zm1.359.808a2.929,2.929,0,0,0,.4,1.732,1.437,1.437,0,0,0,1.234.632,2.554,2.554,0,0,0,2.18-1.233l.672-3.9a1.754,1.754,0,0,0-1.7-1.186,2.143,2.143,0,0,0-1.473.5,3.256,3.256,0,0,0-.969,1.475A6.082,6.082,0,0,0,68.211,85.565ZM79.883,89l1.281-7.336h-1.3l.2-1.117h1.3l.141-1a3.318,3.318,0,0,1,.984-1.992,2.926,2.926,0,0,1,2.094-.734,4.884,4.884,0,0,1,1.008.134l-.172,1.187a4.636,4.636,0,0,0-.758-.094,1.614,1.614,0,0,0-1.191.456,2.073,2.073,0,0,0-.566,1.211l-.125.833h1.75l-.2,1.117H82.57L81.3,89Zm10.148-.836a3.265,3.265,0,0,1-2.523.992,2.107,2.107,0,0,1-1.793-.867,3.317,3.317,0,0,1-.434-2.281l.906-5.461H87.6l-.914,5.484a3.643,3.643,0,0,0-.016.672,1.4,1.4,0,0,0,.336.883,1.146,1.146,0,0,0,.828.344A2.537,2.537,0,0,0,90.18,86.7l1.063-6.156h1.414L91.188,89H89.852Zm6.07-7.625-.2,1.07a3.333,3.333,0,0,1,2.594-1.219,2.1,2.1,0,0,1,1.766.828,3.217,3.217,0,0,1,.422,2.242L99.758,89H98.344l.93-5.557a2.962,2.962,0,0,0,.008-.71,1.168,1.168,0,0,0-1.289-1.116,2.661,2.661,0,0,0-2.234,1.358L94.711,89H93.3l1.469-8.453ZM107.391,89h-1.406l1.469-8.453h1.406Zm1.164-11.539a.774.774,0,0,1,.6.215.8.8,0,0,1,.238.605.834.834,0,0,1-.836.852.779.779,0,0,1-.6-.211.764.764,0,0,1-.227-.594.886.886,0,0,1,.234-.609A.826.826,0,0,1,108.555,77.461Zm3.953,3.078-.2,1.07a3.333,3.333,0,0,1,2.594-1.219,2.1,2.1,0,0,1,1.766.828,3.217,3.217,0,0,1,.422,2.242L116.164,89H114.75l.93-5.557a2.962,2.962,0,0,0,.008-.71,1.168,1.168,0,0,0-1.289-1.116,2.661,2.661,0,0,0-2.234,1.358L111.117,89H109.7l1.469-8.453Zm11.07,6.172q.117-.875-.961-1.234l-1.469-.43q-1.859-.641-1.8-2.125a2.341,2.341,0,0,1,1.02-1.832,3.631,3.631,0,0,1,2.27-.7,3.027,3.027,0,0,1,2.082.746,2.363,2.363,0,0,1,.77,1.9l-1.406-.008a1.319,1.319,0,0,0-.4-1.031,1.576,1.576,0,0,0-1.1-.414,2.059,2.059,0,0,0-1.266.359,1.316,1.316,0,0,0-.57.922q-.1.734.9,1.07l.711.2a4.578,4.578,0,0,1,2.063.977,1.865,1.865,0,0,1,.563,1.492,2.37,2.37,0,0,1-.516,1.375,2.948,2.948,0,0,1-1.25.895,4.18,4.18,0,0,1-1.664.285,3.3,3.3,0,0,1-2.219-.785,2.427,2.427,0,0,1-.844-1.98l1.414.008a1.5,1.5,0,0,0,.453,1.141,1.732,1.732,0,0,0,1.242.43,2.436,2.436,0,0,0,1.336-.324A1.247,1.247,0,0,0,123.578,86.711Zm6.5,2.445a3.048,3.048,0,0,1-2.469-1.164,4.006,4.006,0,0,1-.75-2.9l.039-.336a5.624,5.624,0,0,1,.746-2.3,4.339,4.339,0,0,1,1.5-1.566,3.491,3.491,0,0,1,1.906-.5,2.688,2.688,0,0,1,2.047.867,3.566,3.566,0,0,1,.813,2.266,6.621,6.621,0,0,1-.031,1.016l-.086.648h-5.523a2.855,2.855,0,0,0,.379,1.953,1.8,1.8,0,0,0,1.551.836,3.007,3.007,0,0,0,2.313-1.125l.813.688a3.718,3.718,0,0,1-1.371,1.2A3.886,3.886,0,0,1,130.078,89.156Zm.9-7.586a2.066,2.066,0,0,0-1.527.594A4.22,4.22,0,0,0,128.414,84l4.109.008.031-.125a2.313,2.313,0,0,0-.316-1.637A1.488,1.488,0,0,0,130.977,81.57Zm9,.266-.664-.07a2.42,2.42,0,0,0-2.141,1.227L136.133,89h-1.414l1.469-8.453,1.367-.008-.211.984a2.527,2.527,0,0,1,2.117-1.148,2.594,2.594,0,0,1,.672.117Zm4.2-3.336-.359,2.047h1.539l-.2,1.117h-1.531l-.883,5.258a1.833,1.833,0,0,0-.008.375.6.6,0,0,0,.664.609,4.05,4.05,0,0,0,.688-.078l-.109,1.18a3.847,3.847,0,0,1-1.031.141,1.476,1.476,0,0,1-1.266-.621,2.4,2.4,0,0,1-.328-1.629l.859-5.234h-1.492l.2-1.117h1.492l.359-2.047ZM150.758,89a1.894,1.894,0,0,1-.055-.445l.023-.445a3.465,3.465,0,0,1-2.469,1.047,2.526,2.526,0,0,1-1.816-.707,2.14,2.14,0,0,1-.637-1.73,2.6,2.6,0,0,1,1.176-2.1,5.005,5.005,0,0,1,2.887-.754l1.477.008.094-.672a1.545,1.545,0,0,0-.293-1.2,1.414,1.414,0,0,0-1.113-.457,2.181,2.181,0,0,0-1.285.355,1.513,1.513,0,0,0-.684.98l-1.422.008a2.266,2.266,0,0,1,.578-1.316,3.363,3.363,0,0,1,1.3-.891,4.215,4.215,0,0,1,1.648-.3,2.8,2.8,0,0,1,2.055.8,2.484,2.484,0,0,1,.617,2.043l-.687,4.188-.039.6a2.949,2.949,0,0,0,.094.852L152.2,89Zm-2.219-1.094a2.466,2.466,0,0,0,1.285-.324,3.254,3.254,0,0,0,1.043-.941l.3-1.742-1.07-.008a4.054,4.054,0,0,0-2.047.422,1.554,1.554,0,0,0-.8,1.2,1.21,1.21,0,0,0,.277.988A1.321,1.321,0,0,0,148.539,87.906Zm10.828-6.07-.664-.07a2.42,2.42,0,0,0-2.141,1.227L155.523,89h-1.414l1.469-8.453,1.367-.008-.211.984a2.527,2.527,0,0,1,2.117-1.148,2.594,2.594,0,0,1,.672.117Zm10.078-4.211-1.312,7.7a4.368,4.368,0,0,1-1.531,2.824,4.5,4.5,0,0,1-3.055,1.02,3.956,3.956,0,0,1-1.941-.5,2.9,2.9,0,0,1-1.215-1.352,3.69,3.69,0,0,1-.258-1.98l1.313-7.7h1.445l-1.3,7.717a2.5,2.5,0,0,0,.406,1.88,2.031,2.031,0,0,0,1.633.715,2.812,2.812,0,0,0,2-.645,3.125,3.125,0,0,0,1.027-1.943l1.313-7.725Zm5.367,9.086q.117-.875-.961-1.234l-1.469-.43q-1.859-.641-1.8-2.125a2.341,2.341,0,0,1,1.02-1.832,3.631,3.631,0,0,1,2.27-.7,3.027,3.027,0,0,1,2.082.746,2.363,2.363,0,0,1,.77,1.9l-1.406-.008a1.319,1.319,0,0,0-.4-1.031,1.576,1.576,0,0,0-1.1-.414,2.059,2.059,0,0,0-1.266.359,1.316,1.316,0,0,0-.57.922q-.1.734.9,1.07l.711.2a4.578,4.578,0,0,1,2.063.977,1.865,1.865,0,0,1,.563,1.492,2.37,2.37,0,0,1-.516,1.375,2.948,2.948,0,0,1-1.25.895,4.18,4.18,0,0,1-1.664.285,3.3,3.3,0,0,1-2.219-.785,2.427,2.427,0,0,1-.844-1.98l1.414.008a1.5,1.5,0,0,0,.453,1.141,1.732,1.732,0,0,0,1.242.43,2.436,2.436,0,0,0,1.336-.324A1.247,1.247,0,0,0,174.813,86.711Zm8.211,1.453a3.265,3.265,0,0,1-2.523.992,2.107,2.107,0,0,1-1.793-.867,3.317,3.317,0,0,1-.434-2.281l.906-5.461h1.414l-.914,5.484a3.642,3.642,0,0,0-.016.672,1.4,1.4,0,0,0,.336.883,1.146,1.146,0,0,0,.828.344,2.536,2.536,0,0,0,2.344-1.227l1.063-6.156h1.414L184.18,89h-1.336Zm8.438.836a1.894,1.894,0,0,1-.055-.445l.023-.445a3.465,3.465,0,0,1-2.469,1.047,2.526,2.526,0,0,1-1.816-.707,2.14,2.14,0,0,1-.637-1.73,2.6,2.6,0,0,1,1.176-2.1,5.005,5.005,0,0,1,2.887-.754l1.477.008.094-.672a1.545,1.545,0,0,0-.293-1.2,1.414,1.414,0,0,0-1.113-.457,2.181,2.181,0,0,0-1.285.355,1.513,1.513,0,0,0-.684.98l-1.422.008a2.266,2.266,0,0,1,.578-1.316,3.363,3.363,0,0,1,1.3-.891,4.215,4.215,0,0,1,1.648-.3,2.8,2.8,0,0,1,2.055.8,2.484,2.484,0,0,1,.617,2.043l-.687,4.188-.039.6a2.949,2.949,0,0,0,.094.852L192.9,89Zm-2.219-1.094a2.466,2.466,0,0,0,1.285-.324,3.254,3.254,0,0,0,1.043-.941l.3-1.742-1.07-.008a4.054,4.054,0,0,0-2.047.422,1.554,1.554,0,0,0-.8,1.2,1.21,1.21,0,0,0,.277.988A1.321,1.321,0,0,0,189.242,87.906Zm10.828-6.07-.664-.07a2.42,2.42,0,0,0-2.141,1.227L196.227,89h-1.414l1.469-8.453,1.367-.008-.211.984a2.527,2.527,0,0,1,2.117-1.148,2.594,2.594,0,0,1,.672.117Zm1.6,7.164h-1.406l1.469-8.453h1.406Zm1.164-11.539a.774.774,0,0,1,.6.215.8.8,0,0,1,.238.605.834.834,0,0,1-.836.852.779.779,0,0,1-.6-.211.764.764,0,0,1-.227-.594.886.886,0,0,1,.234-.609A.826.826,0,0,1,202.836,77.461Zm5.844,2.93a3.047,3.047,0,0,1,1.82.578,3.285,3.285,0,0,1,1.121,1.551,4.8,4.8,0,0,1,.246,2.16l-.016.172a5.685,5.685,0,0,1-.734,2.23,4.309,4.309,0,0,1-1.516,1.551,3.7,3.7,0,0,1-2.039.523,3.052,3.052,0,0,1-1.816-.578,3.21,3.21,0,0,1-1.113-1.531,4.931,4.931,0,0,1-.25-2.133,5.76,5.76,0,0,1,.711-2.359,4.409,4.409,0,0,1,1.527-1.621A3.652,3.652,0,0,1,208.68,80.391ZM205.8,84.922a4.8,4.8,0,0,0,0,1.023,2.507,2.507,0,0,0,.551,1.469,1.653,1.653,0,0,0,1.262.57,2.253,2.253,0,0,0,1.3-.348,2.919,2.919,0,0,0,1-1.121,4.721,4.721,0,0,0,.523-1.664,7.493,7.493,0,0,0,.023-1.211,2.6,2.6,0,0,0-.57-1.492,1.69,1.69,0,0,0-1.266-.578,2.3,2.3,0,0,0-1.859.859,4.245,4.245,0,0,0-.945,2.313Zm7.906-.508a14.79,14.79,0,0,1,.957-3.516,10.894,10.894,0,0,1,1.715-2.918,7.045,7.045,0,0,1,2.266-1.824l.211.969a8.108,8.108,0,0,0-2.105,2.387,12.281,12.281,0,0,0-1.355,3.5,16.834,16.834,0,0,0-.461,4,8.85,8.85,0,0,0,.418,2.848,4.494,4.494,0,0,0,1.207,1.941l-.352.875a5.641,5.641,0,0,1-2-2.68,10.335,10.335,0,0,1-.629-4.062,12.352,12.352,0,0,1,.109-1.43Zm9.953,3.75a3.265,3.265,0,0,1-2.523.992,2.107,2.107,0,0,1-1.793-.867,3.317,3.317,0,0,1-.434-2.281l.906-5.461h1.414l-.914,5.484a3.642,3.642,0,0,0-.016.672,1.4,1.4,0,0,0,.336.883,1.146,1.146,0,0,0,.828.344,2.536,2.536,0,0,0,2.344-1.227l1.063-6.156h1.414L224.82,89h-1.336Zm8.5-1.453q.117-.875-.961-1.234l-1.469-.43q-1.859-.641-1.8-2.125a2.341,2.341,0,0,1,1.02-1.832,3.631,3.631,0,0,1,2.27-.7,3.027,3.027,0,0,1,2.082.746,2.363,2.363,0,0,1,.77,1.9l-1.406-.008a1.319,1.319,0,0,0-.4-1.031,1.576,1.576,0,0,0-1.1-.414,2.059,2.059,0,0,0-1.266.359,1.316,1.316,0,0,0-.57.922q-.1.734.9,1.07l.711.2a4.578,4.578,0,0,1,2.063.977,1.865,1.865,0,0,1,.563,1.492,2.37,2.37,0,0,1-.516,1.375,2.948,2.948,0,0,1-1.25.895,4.18,4.18,0,0,1-1.664.285,3.3,3.3,0,0,1-2.219-.785,2.427,2.427,0,0,1-.844-1.98l1.414.008a1.5,1.5,0,0,0,.453,1.141,1.732,1.732,0,0,0,1.242.43,2.436,2.436,0,0,0,1.336-.324A1.247,1.247,0,0,0,232.164,86.711Zm8.211,1.453a3.265,3.265,0,0,1-2.523.992,2.107,2.107,0,0,1-1.793-.867,3.317,3.317,0,0,1-.434-2.281l.906-5.461h1.414l-.914,5.484a3.642,3.642,0,0,0-.016.672,1.4,1.4,0,0,0,.336.883,1.146,1.146,0,0,0,.828.344,2.536,2.536,0,0,0,2.344-1.227l1.063-6.156H243L241.531,89H240.2Zm8.438.836a1.894,1.894,0,0,1-.055-.445l.023-.445a3.465,3.465,0,0,1-2.469,1.047,2.526,2.526,0,0,1-1.816-.707,2.14,2.14,0,0,1-.637-1.73,2.6,2.6,0,0,1,1.176-2.1,5.005,5.005,0,0,1,2.887-.754l1.477.008.094-.672A1.545,1.545,0,0,0,249.2,82a1.414,1.414,0,0,0-1.113-.457,2.181,2.181,0,0,0-1.285.355,1.513,1.513,0,0,0-.684.98l-1.422.008a2.266,2.266,0,0,1,.578-1.316,3.363,3.363,0,0,1,1.3-.891,4.215,4.215,0,0,1,1.648-.3,2.8,2.8,0,0,1,2.055.8,2.484,2.484,0,0,1,.617,2.043l-.687,4.188-.039.6a2.949,2.949,0,0,0,.094.852L250.25,89Zm-2.219-1.094a2.466,2.466,0,0,0,1.285-.324,3.254,3.254,0,0,0,1.043-.941l.3-1.742-1.07-.008a4.054,4.054,0,0,0-2.047.422,1.554,1.554,0,0,0-.8,1.2,1.21,1.21,0,0,0,.277.988A1.321,1.321,0,0,0,246.594,87.906Zm10.828-6.07-.664-.07a2.42,2.42,0,0,0-2.141,1.227L253.578,89h-1.414l1.469-8.453L255,80.539l-.211.984a2.527,2.527,0,0,1,2.117-1.148,2.594,2.594,0,0,1,.672.117Zm1.6,7.164h-1.406l1.469-8.453h1.406Zm1.164-11.539a.774.774,0,0,1,.6.215.8.8,0,0,1,.238.605.834.834,0,0,1-.836.852.779.779,0,0,1-.6-.211.764.764,0,0,1-.227-.594.886.886,0,0,1,.234-.609A.826.826,0,0,1,260.188,77.461Zm5.844,2.93a3.047,3.047,0,0,1,1.82.578,3.285,3.285,0,0,1,1.121,1.551,4.8,4.8,0,0,1,.246,2.16l-.016.172a5.685,5.685,0,0,1-.734,2.23,4.309,4.309,0,0,1-1.516,1.551,3.7,3.7,0,0,1-2.039.523,3.052,3.052,0,0,1-1.816-.578,3.21,3.21,0,0,1-1.113-1.531,4.931,4.931,0,0,1-.25-2.133,5.76,5.76,0,0,1,.711-2.359,4.409,4.409,0,0,1,1.527-1.621A3.652,3.652,0,0,1,266.031,80.391Zm-2.875,4.531a4.8,4.8,0,0,0,0,1.023,2.507,2.507,0,0,0,.551,1.469,1.653,1.653,0,0,0,1.262.57,2.253,2.253,0,0,0,1.3-.348,2.919,2.919,0,0,0,1-1.121,4.721,4.721,0,0,0,.523-1.664,7.5,7.5,0,0,0,.023-1.211,2.6,2.6,0,0,0-.57-1.492,1.69,1.69,0,0,0-1.266-.578,2.3,2.3,0,0,0-1.859.859,4.245,4.245,0,0,0-.945,2.313Zm8.07,2.438a.846.846,0,0,1,.633.234.807.807,0,0,1,.242.625.844.844,0,0,1-.258.621.929.929,0,0,1-.625.254.788.788,0,0,1-.859-.828.874.874,0,0,1,.867-.906Zm1.2-6.9a.846.846,0,0,1,.633.234.807.807,0,0,1,.242.625.844.844,0,0,1-.258.621.929.929,0,0,1-.625.254.788.788,0,0,1-.859-.828.874.874,0,0,1,.867-.906Zm15.609-2.836-1.312,7.7a4.368,4.368,0,0,1-1.531,2.824,4.5,4.5,0,0,1-3.055,1.02,3.956,3.956,0,0,1-1.941-.5,2.9,2.9,0,0,1-1.215-1.352,3.69,3.69,0,0,1-.258-1.98l1.313-7.7h1.445l-1.3,7.717a2.5,2.5,0,0,0,.406,1.88,2.031,2.031,0,0,0,1.633.715,2.812,2.812,0,0,0,2-.645,3.125,3.125,0,0,0,1.027-1.943l1.313-7.725Zm5.367,9.086q.117-.875-.961-1.234l-1.469-.43q-1.859-.641-1.8-2.125a2.341,2.341,0,0,1,1.02-1.832,3.631,3.631,0,0,1,2.27-.7,3.027,3.027,0,0,1,2.082.746,2.363,2.363,0,0,1,.77,1.9l-1.406-.008a1.319,1.319,0,0,0-.4-1.031,1.576,1.576,0,0,0-1.1-.414,2.059,2.059,0,0,0-1.266.359,1.316,1.316,0,0,0-.57.922q-.1.734.9,1.07l.711.2a4.578,4.578,0,0,1,2.063.977A1.865,1.865,0,0,1,294.8,86.6a2.37,2.37,0,0,1-.516,1.375,2.948,2.948,0,0,1-1.25.895,4.181,4.181,0,0,1-1.664.285,3.3,3.3,0,0,1-2.219-.785,2.427,2.427,0,0,1-.844-1.98l1.414.008a1.5,1.5,0,0,0,.453,1.141,1.732,1.732,0,0,0,1.242.43,2.436,2.436,0,0,0,1.336-.324A1.247,1.247,0,0,0,293.4,86.711Zm8.211,1.453a3.265,3.265,0,0,1-2.523.992,2.107,2.107,0,0,1-1.793-.867,3.316,3.316,0,0,1-.434-2.281l.906-5.461h1.414l-.914,5.484a3.643,3.643,0,0,0-.016.672,1.4,1.4,0,0,0,.336.883,1.146,1.146,0,0,0,.828.344,2.537,2.537,0,0,0,2.344-1.227l1.063-6.156h1.414L302.766,89H301.43Zm8.438.836a1.893,1.893,0,0,1-.055-.445l.023-.445a3.465,3.465,0,0,1-2.469,1.047,2.526,2.526,0,0,1-1.816-.707,2.14,2.14,0,0,1-.637-1.73,2.6,2.6,0,0,1,1.176-2.1,5.005,5.005,0,0,1,2.887-.754l1.477.008.094-.672a1.545,1.545,0,0,0-.293-1.2,1.414,1.414,0,0,0-1.113-.457,2.181,2.181,0,0,0-1.285.355,1.513,1.513,0,0,0-.684.98l-1.422.008a2.266,2.266,0,0,1,.578-1.316,3.363,3.363,0,0,1,1.3-.891,4.215,4.215,0,0,1,1.648-.3,2.8,2.8,0,0,1,2.055.8,2.484,2.484,0,0,1,.617,2.043l-.687,4.188-.039.6a2.95,2.95,0,0,0,.094.852l-.016.133Zm-2.219-1.094a2.466,2.466,0,0,0,1.285-.324,3.254,3.254,0,0,0,1.043-.941l.3-1.742-1.07-.008a4.054,4.054,0,0,0-2.047.422,1.554,1.554,0,0,0-.8,1.2,1.21,1.21,0,0,0,.277.988A1.321,1.321,0,0,0,307.828,87.906Zm10.828-6.07-.664-.07a2.42,2.42,0,0,0-2.141,1.227L314.813,89H313.4l1.469-8.453,1.367-.008-.211.984a2.527,2.527,0,0,1,2.117-1.148,2.594,2.594,0,0,1,.672.117Zm1.6,7.164h-1.406l1.469-8.453h1.406Zm1.164-11.539a.774.774,0,0,1,.6.215.8.8,0,0,1,.238.605.834.834,0,0,1-.836.852.779.779,0,0,1-.6-.211.764.764,0,0,1-.227-.594.886.886,0,0,1,.234-.609A.826.826,0,0,1,321.422,77.461Zm5.844,2.93a3.047,3.047,0,0,1,1.82.578,3.285,3.285,0,0,1,1.121,1.551,4.8,4.8,0,0,1,.246,2.16l-.016.172a5.685,5.685,0,0,1-.734,2.23,4.309,4.309,0,0,1-1.516,1.551,3.7,3.7,0,0,1-2.039.523,3.052,3.052,0,0,1-1.816-.578,3.21,3.21,0,0,1-1.113-1.531,4.931,4.931,0,0,1-.25-2.133,5.76,5.76,0,0,1,.711-2.359,4.409,4.409,0,0,1,1.527-1.621A3.652,3.652,0,0,1,327.266,80.391Zm-2.875,4.531a4.8,4.8,0,0,0,0,1.023,2.507,2.507,0,0,0,.551,1.469,1.653,1.653,0,0,0,1.262.57,2.253,2.253,0,0,0,1.3-.348,2.919,2.919,0,0,0,1-1.121,4.721,4.721,0,0,0,.523-1.664,7.5,7.5,0,0,0,.023-1.211,2.6,2.6,0,0,0-.57-1.492,1.69,1.69,0,0,0-1.266-.578,2.3,2.3,0,0,0-1.859.859,4.245,4.245,0,0,0-.945,2.313Zm11.141-.492a14.5,14.5,0,0,1-.992,3.605,10.84,10.84,0,0,1-1.723,2.867,7.163,7.163,0,0,1-2.223,1.777l-.219-.9q2.68-2.016,3.578-6.477a16.834,16.834,0,0,0,.344-3.461q-.039-3.352-1.625-4.8l.367-.875a5.179,5.179,0,0,1,1.48,1.621,7.644,7.644,0,0,1,.891,2.352,12.043,12.043,0,0,1,.254,2.777,13.344,13.344,0,0,1-.117,1.43ZM25.055,137.156a1.784,1.784,0,0,1-1.121-.363,1.5,1.5,0,0,1-.527-.949,2.82,2.82,0,0,1-2.18,1.32,1.5,1.5,0,0,1-1.344-.727,3.183,3.183,0,0,1-.344-1.93,7.294,7.294,0,0,1,.672-2.566,5.337,5.337,0,0,1,1.453-2,2.854,2.854,0,0,1,1.875-.676,3.6,3.6,0,0,1,2.125.82l-1.039,4.359a5.657,5.657,0,0,0-.078.727q-.039,1.055.719,1.078a2.007,2.007,0,0,0,1.859-1.289,8.023,8.023,0,0,0,.8-3.445,6.161,6.161,0,0,0-.359-2.477,3.153,3.153,0,0,0-1.316-1.617,4.371,4.371,0,0,0-2.223-.57,5.446,5.446,0,0,0-3.2.961,7.383,7.383,0,0,0-2.434,2.891,9.9,9.9,0,0,0-1.051,4.078A6.178,6.178,0,0,0,17.7,137.3a3.374,3.374,0,0,0,1.3,1.676,3.9,3.9,0,0,0,2.141.574,5.732,5.732,0,0,0,2.648-.609l.211.914a5.363,5.363,0,0,1-2.875.68,5.05,5.05,0,0,1-2.594-.66,4.318,4.318,0,0,1-1.7-1.906,6.617,6.617,0,0,1-.6-2.895,10.6,10.6,0,0,1,2.332-6.559,7.593,7.593,0,0,1,2.516-2.031,6.442,6.442,0,0,1,2.973-.668,5.116,5.116,0,0,1,2.605.68,4.2,4.2,0,0,1,1.664,1.914,6.793,6.793,0,0,1,.574,2.852,8.942,8.942,0,0,1-.512,3.133,4.764,4.764,0,0,1-1.375,2.082A2.869,2.869,0,0,1,25.055,137.156Zm-4.3-2.451q-.039,1.334.875,1.358.836.039,1.563-1.124l.25-.413.008-.086,1.039-3.948a1.815,1.815,0,0,0-.836-.226,2.1,2.1,0,0,0-1.84,1.053,6.868,6.868,0,0,0-1.02,2.941Zm16.031,1.7,1.7,1.633-1.086.883-1.984-1.9a5.457,5.457,0,0,1-1.156.125,3.507,3.507,0,0,1-1.883-.52,3.375,3.375,0,0,1-1.262-1.477,5.638,5.638,0,0,1-.5-2.184,10.385,10.385,0,0,1,.207-2.348,7.953,7.953,0,0,1,.871-2.461,5.733,5.733,0,0,1,1.492-1.77,4.44,4.44,0,0,1,2.859-.922,3.69,3.69,0,0,1,1.914.531,3.325,3.325,0,0,1,1.258,1.473,5.684,5.684,0,0,1,.492,2.184,8.388,8.388,0,0,1-.055,1.3l-.094.664A6.3,6.3,0,0,1,36.789,136.406Zm1.469-6.391a3.866,3.866,0,0,0-.539-2.4,2.068,2.068,0,0,0-1.734-.867,2.963,2.963,0,0,0-1.871.563,4.258,4.258,0,0,0-1.352,1.777,9.158,9.158,0,0,0-.668,3l-.023.508a5.045,5.045,0,0,0,.211,1.68,2.307,2.307,0,0,0,.77,1.188,2.169,2.169,0,0,0,1.293.43,2.957,2.957,0,0,0,2.418-1.039,5.983,5.983,0,0,0,1.309-3.086A13.433,13.433,0,0,0,38.258,130.016Zm7.8,6.148a3.265,3.265,0,0,1-2.523.992,2.106,2.106,0,0,1-1.793-.867,3.317,3.317,0,0,1-.434-2.281l.906-5.461h1.414l-.914,5.484a3.642,3.642,0,0,0-.016.672,1.4,1.4,0,0,0,.336.883,1.146,1.146,0,0,0,.828.344,2.537,2.537,0,0,0,2.344-1.227l1.063-6.156h1.414L47.219,137H45.883Zm6.922.992a3.048,3.048,0,0,1-2.469-1.164,4.006,4.006,0,0,1-.75-2.9l.039-.336a5.624,5.624,0,0,1,.746-2.3,4.339,4.339,0,0,1,1.5-1.566,3.491,3.491,0,0,1,1.906-.5,2.688,2.688,0,0,1,2.047.867,3.566,3.566,0,0,1,.813,2.266,6.621,6.621,0,0,1-.031,1.016l-.086.648H51.172a2.855,2.855,0,0,0,.379,1.953,1.8,1.8,0,0,0,1.551.836,3.007,3.007,0,0,0,2.313-1.125l.813.688a3.718,3.718,0,0,1-1.371,1.2A3.886,3.886,0,0,1,52.984,137.156Zm.9-7.586a2.066,2.066,0,0,0-1.527.594A4.22,4.22,0,0,0,51.32,132l4.109.008.031-.125a2.313,2.313,0,0,0-.316-1.637A1.488,1.488,0,0,0,53.883,129.57Zm9,.266-.664-.07a2.42,2.42,0,0,0-2.141,1.227L59.039,137H57.625l1.469-8.453,1.367-.008-.211.984a2.527,2.527,0,0,1,2.117-1.148,2.594,2.594,0,0,1,.672.117Zm3.1,5.031,3.008-6.32h1.563l-5.016,9.859q-1.047,2.055-2.687,2.031A4.6,4.6,0,0,1,62,140.3l.125-1.172.367.039a1.853,1.853,0,0,0,1.16-.3,2.772,2.772,0,0,0,.863-1.074l.508-.969-1.461-8.273h1.477Zm5.188-2.453a14.789,14.789,0,0,1,.957-3.516,10.894,10.894,0,0,1,1.715-2.918,7.045,7.045,0,0,1,2.266-1.824l.211.969a8.108,8.108,0,0,0-2.105,2.387,12.281,12.281,0,0,0-1.355,3.5,16.834,16.834,0,0,0-.461,4,8.85,8.85,0,0,0,.418,2.848,4.494,4.494,0,0,0,1.207,1.941l-.352.875a5.641,5.641,0,0,1-2-2.68,10.335,10.335,0,0,1-.629-4.062,12.35,12.35,0,0,1,.109-1.43Zm7.664-7.562.781.578a5.091,5.091,0,0,0-1.086,2.141l-.187,1.047H76.938l.141-.875A4.494,4.494,0,0,1,78.836,124.852Zm2.383,0,.781.578a5.091,5.091,0,0,0-1.086,2.141l-.187,1.047H79.32l.141-.875A4.494,4.494,0,0,1,81.219,124.852Zm6.711,9.219q.172-1.25-1.3-1.828l-1.352-.492-.453-.2q-2.281-1.039-2.133-2.922a3.056,3.056,0,0,1,.648-1.672,3.69,3.69,0,0,1,1.512-1.121,4.849,4.849,0,0,1,2-.371,4,4,0,0,1,1.84.461,2.962,2.962,0,0,1,1.23,1.223,3.333,3.333,0,0,1,.375,1.77l-1.477-.008a2.037,2.037,0,0,0-.469-1.627A2.1,2.1,0,0,0,86.8,126.7a2.91,2.91,0,0,0-1.789.5,1.955,1.955,0,0,0-.828,1.409q-.156,1.166,1.43,1.769l1.164.415.586.25a2.941,2.941,0,0,1,2.039,3.016,3.012,3.012,0,0,1-.648,1.66,3.626,3.626,0,0,1-1.527,1.082,5.266,5.266,0,0,1-2.074.359,4.339,4.339,0,0,1-1.957-.457,3.193,3.193,0,0,1-1.348-1.23,3.078,3.078,0,0,1-.406-1.773l1.469.008a1.935,1.935,0,0,0,.551,1.613,2.479,2.479,0,0,0,1.754.613,3.131,3.131,0,0,0,1.867-.492A1.916,1.916,0,0,0,87.93,134.07Zm10.063-2.328H93.211l-.7,4.031H98.07L97.852,137H90.828L92.8,125.625H99.75l-.219,1.227H94.055l-.633,3.664H98.2Zm3.422,4.031h5.234L106.43,137h-6.7l1.977-11.375h1.477Zm13.906-4.031h-4.781l-.7,4.031H115.4L115.18,137h-7.023l1.977-11.375h6.945l-.219,1.227h-5.477l-.633,3.664h4.781Zm10.406,1.633a4.535,4.535,0,0,1-1.6,2.8,4.476,4.476,0,0,1-3.043.984,3.544,3.544,0,0,1-1.844-.52,3.283,3.283,0,0,1-1.227-1.43,5.34,5.34,0,0,1-.484-2.066,6.623,6.623,0,0,1,.055-1.25l.133-.937a7.076,7.076,0,0,1,1.8-4.043,4.544,4.544,0,0,1,3.488-1.441,3.4,3.4,0,0,1,2.539,1.035,4.117,4.117,0,0,1,.992,2.785h-1.461q-.1-2.391-1.875-2.578l-.258-.016a3.019,3.019,0,0,0-2.465,1.1A5.942,5.942,0,0,0,119.2,130.9l-.172,1.18-.047.688a3.867,3.867,0,0,0,.512,2.285,1.929,1.929,0,0,0,1.66.879,2.924,2.924,0,0,0,1.965-.57A3.8,3.8,0,0,0,124.3,133.4Zm10.672-6.523h-3.539L131.1,137h-1.461l1.758-10.148h-3.539l.219-1.227h8.539Zm6.094,2.434-2.164-.7.531-1.124,2.172.882.4-2.716H144.6l-.547,2.685,2.367-.843.148,1.241-2.461.71,1.148,2.148-1,.688-1.023-2.266-1.734,2.188-.891-.766Zm15.117,2.691h-4.625L152.109,137h-1.469l1.977-11.375h6.844l-.219,1.227h-5.375l-.672,3.9h4.633Zm6.578.43h-2.625l-.8,4.594h-1.477l1.977-11.375,3.422.008a3.814,3.814,0,0,1,2.727.907,2.83,2.83,0,0,1,.789,2.448,3.241,3.241,0,0,1-.777,1.885,4.247,4.247,0,0,1-1.84,1.228l1.766,4.8-.008.1h-1.562Zm-2.414-1.234,2.156.008a3.012,3.012,0,0,0,1.9-.6,2.326,2.326,0,0,0,.906-1.6,1.837,1.837,0,0,0-.391-1.531,2.087,2.087,0,0,0-1.547-.586l-2.273-.008Zm11.328,5.984a3.642,3.642,0,0,1-1.887-.523,3.391,3.391,0,0,1-1.262-1.473,5.547,5.547,0,0,1-.508-2.184,10.371,10.371,0,0,1,.211-2.336,8.011,8.011,0,0,1,.891-2.508,5.651,5.651,0,0,1,1.539-1.789,4.43,4.43,0,0,1,2.8-.875,3.365,3.365,0,0,1,2.625,1.152,4.792,4.792,0,0,1,1.031,3.035,11.176,11.176,0,0,1-.168,2.086,8.636,8.636,0,0,1-.711,2.352,5.869,5.869,0,0,1-1.3,1.82A4.474,4.474,0,0,1,173.1,137.156Zm3.992-7.141a3.942,3.942,0,0,0-.539-2.387,2.052,2.052,0,0,0-1.742-.879,2.963,2.963,0,0,0-1.871.563,4.258,4.258,0,0,0-1.352,1.777,9.158,9.158,0,0,0-.668,3l-.023.508a3.976,3.976,0,0,0,.547,2.4,2.035,2.035,0,0,0,1.727.9,3.009,3.009,0,0,0,2.449-1.066,6.057,6.057,0,0,0,1.293-3.105A13.992,13.992,0,0,0,177.094,130.016Zm6.414-4.391,1.992,9.266,5.219-9.266h1.93L190.672,137h-1.461l.781-4.5.93-4.578L185.766,137h-1.125l-2.031-9.258-.7,4.906L181.148,137H179.68l1.977-11.375Zm18.867,10.539a3.265,3.265,0,0,1-2.523.992,2.106,2.106,0,0,1-1.793-.867,3.317,3.317,0,0,1-.434-2.281l.906-5.461h1.414l-.914,5.484a3.642,3.642,0,0,0-.016.672,1.4,1.4,0,0,0,.336.883,1.146,1.146,0,0,0,.828.344,2.537,2.537,0,0,0,2.344-1.227l1.063-6.156H205L203.531,137H202.2Zm8.5-1.453q.117-.875-.961-1.234l-1.469-.43q-1.859-.641-1.8-2.125a2.341,2.341,0,0,1,1.02-1.832,3.631,3.631,0,0,1,2.27-.7,3.027,3.027,0,0,1,2.082.746,2.363,2.363,0,0,1,.77,1.9l-1.406-.008a1.319,1.319,0,0,0-.4-1.031,1.576,1.576,0,0,0-1.1-.414,2.059,2.059,0,0,0-1.266.359,1.316,1.316,0,0,0-.57.922q-.1.734.9,1.07l.711.2a4.577,4.577,0,0,1,2.063.977,1.865,1.865,0,0,1,.563,1.492,2.37,2.37,0,0,1-.516,1.375,2.948,2.948,0,0,1-1.25.895,4.18,4.18,0,0,1-1.664.285,3.3,3.3,0,0,1-2.219-.785,2.427,2.427,0,0,1-.844-1.98l1.414.008a1.5,1.5,0,0,0,.453,1.141,1.732,1.732,0,0,0,1.242.43,2.436,2.436,0,0,0,1.336-.324A1.247,1.247,0,0,0,210.875,134.711Zm8.211,1.453a3.265,3.265,0,0,1-2.523.992,2.106,2.106,0,0,1-1.793-.867,3.317,3.317,0,0,1-.434-2.281l.906-5.461h1.414l-.914,5.484a3.642,3.642,0,0,0-.016.672,1.4,1.4,0,0,0,.336.883,1.146,1.146,0,0,0,.828.344,2.537,2.537,0,0,0,2.344-1.227l1.063-6.156h1.414L220.242,137h-1.336Zm8.438.836a1.894,1.894,0,0,1-.055-.445l.023-.445a3.465,3.465,0,0,1-2.469,1.047,2.526,2.526,0,0,1-1.816-.707,2.14,2.14,0,0,1-.637-1.73,2.6,2.6,0,0,1,1.176-2.1,5.005,5.005,0,0,1,2.887-.754l1.477.008.094-.672a1.545,1.545,0,0,0-.293-1.2,1.414,1.414,0,0,0-1.113-.457,2.181,2.181,0,0,0-1.285.355,1.513,1.513,0,0,0-.684.98l-1.422.008a2.266,2.266,0,0,1,.578-1.316,3.363,3.363,0,0,1,1.3-.891,4.215,4.215,0,0,1,1.648-.3,2.8,2.8,0,0,1,2.055.8,2.484,2.484,0,0,1,.617,2.043l-.687,4.188-.039.6a2.949,2.949,0,0,0,.094.852l-.016.133Zm-2.219-1.094a2.466,2.466,0,0,0,1.285-.324,3.254,3.254,0,0,0,1.043-.941l.3-1.742-1.07-.008a4.054,4.054,0,0,0-2.047.422,1.554,1.554,0,0,0-.8,1.2,1.21,1.21,0,0,0,.277.988A1.321,1.321,0,0,0,225.3,135.906Zm10.828-6.07-.664-.07a2.42,2.42,0,0,0-2.141,1.227L232.289,137h-1.414l1.469-8.453,1.367-.008-.211.984a2.527,2.527,0,0,1,2.117-1.148,2.594,2.594,0,0,1,.672.117Zm1.6,7.164h-1.406l1.469-8.453H239.2Zm1.164-11.539a.774.774,0,0,1,.6.215.8.8,0,0,1,.238.605.834.834,0,0,1-.836.852.779.779,0,0,1-.6-.211.764.764,0,0,1-.227-.594.886.886,0,0,1,.234-.609A.826.826,0,0,1,238.9,125.461Zm5.844,2.93a3.047,3.047,0,0,1,1.82.578,3.285,3.285,0,0,1,1.121,1.551,4.8,4.8,0,0,1,.246,2.16l-.016.172a5.685,5.685,0,0,1-.734,2.23,4.309,4.309,0,0,1-1.516,1.551,3.7,3.7,0,0,1-2.039.523,3.052,3.052,0,0,1-1.816-.578,3.21,3.21,0,0,1-1.113-1.531,4.931,4.931,0,0,1-.25-2.133,5.76,5.76,0,0,1,.711-2.359,4.409,4.409,0,0,1,1.527-1.621A3.652,3.652,0,0,1,244.742,128.391Zm-2.875,4.531a4.8,4.8,0,0,0,0,1.023,2.507,2.507,0,0,0,.551,1.469,1.653,1.653,0,0,0,1.262.57,2.253,2.253,0,0,0,1.3-.348,2.919,2.919,0,0,0,1-1.121,4.721,4.721,0,0,0,.523-1.664,7.493,7.493,0,0,0,.023-1.211,2.6,2.6,0,0,0-.57-1.492,1.69,1.69,0,0,0-1.266-.578,2.3,2.3,0,0,0-1.859.859,4.245,4.245,0,0,0-.945,2.313Zm12.344,1.789q.117-.875-.961-1.234l-1.469-.43q-1.859-.641-1.8-2.125A2.341,2.341,0,0,1,251,129.09a3.631,3.631,0,0,1,2.27-.7,3.027,3.027,0,0,1,2.082.746,2.363,2.363,0,0,1,.77,1.9l-1.406-.008a1.319,1.319,0,0,0-.4-1.031,1.576,1.576,0,0,0-1.1-.414,2.059,2.059,0,0,0-1.266.359,1.316,1.316,0,0,0-.57.922q-.1.734.9,1.07l.711.2a4.577,4.577,0,0,1,2.063.977,1.865,1.865,0,0,1,.563,1.492,2.37,2.37,0,0,1-.516,1.375,2.948,2.948,0,0,1-1.25.895,4.18,4.18,0,0,1-1.664.285,3.3,3.3,0,0,1-2.219-.785,2.427,2.427,0,0,1-.844-1.98l1.414.008a1.5,1.5,0,0,0,.453,1.141,1.732,1.732,0,0,0,1.242.43,2.436,2.436,0,0,0,1.336-.324A1.247,1.247,0,0,0,254.211,134.711Zm4.547-5.883-.781-.578a4.992,4.992,0,0,0,1.109-2.227l.18-1.023h1.391l-.148.945A4.4,4.4,0,0,1,258.758,128.828Zm2.32,0-.781-.578a4.992,4.992,0,0,0,1.109-2.227l.18-1.023h1.391l-.148.945A4.4,4.4,0,0,1,261.078,128.828Zm5.625,3.6a14.5,14.5,0,0,1-.992,3.605,10.84,10.84,0,0,1-1.723,2.867,7.164,7.164,0,0,1-2.223,1.777l-.219-.9q2.68-2.016,3.578-6.477a16.834,16.834,0,0,0,.344-3.461q-.039-3.352-1.625-4.8l.367-.875a5.179,5.179,0,0,1,1.48,1.621,7.644,7.644,0,0,1,.891,2.352,12.043,12.043,0,0,1,.254,2.777,13.344,13.344,0,0,1-.117,1.43ZM21.164,158.711q.117-.875-.961-1.234l-1.469-.43q-1.859-.641-1.8-2.125a2.341,2.341,0,0,1,1.02-1.832,3.631,3.631,0,0,1,2.27-.7,3.027,3.027,0,0,1,2.082.746,2.363,2.363,0,0,1,.77,1.9l-1.406-.008a1.319,1.319,0,0,0-.4-1.031,1.576,1.576,0,0,0-1.1-.414,2.059,2.059,0,0,0-1.266.359,1.316,1.316,0,0,0-.57.922q-.1.734.9,1.07l.711.2a4.577,4.577,0,0,1,2.063.977,1.865,1.865,0,0,1,.563,1.492,2.37,2.37,0,0,1-.516,1.375,2.948,2.948,0,0,1-1.25.895,4.18,4.18,0,0,1-1.664.285,3.3,3.3,0,0,1-2.219-.785,2.427,2.427,0,0,1-.844-1.98l1.414.008a1.5,1.5,0,0,0,.453,1.141,1.732,1.732,0,0,0,1.242.43,2.436,2.436,0,0,0,1.336-.324A1.247,1.247,0,0,0,21.164,158.711Zm8.211,1.453a3.265,3.265,0,0,1-2.523.992,2.106,2.106,0,0,1-1.793-.867,3.317,3.317,0,0,1-.434-2.281l.906-5.461h1.414l-.914,5.484a3.643,3.643,0,0,0-.016.672,1.4,1.4,0,0,0,.336.883,1.146,1.146,0,0,0,.828.344,2.537,2.537,0,0,0,2.344-1.227l1.063-6.156H32L30.531,161H29.2Zm8.5-1.453q.117-.875-.961-1.234l-1.469-.43q-1.859-.641-1.8-2.125a2.341,2.341,0,0,1,1.02-1.832,3.631,3.631,0,0,1,2.27-.7,3.027,3.027,0,0,1,2.082.746,2.363,2.363,0,0,1,.77,1.9l-1.406-.008a1.319,1.319,0,0,0-.4-1.031,1.576,1.576,0,0,0-1.1-.414,2.059,2.059,0,0,0-1.266.359,1.316,1.316,0,0,0-.57.922q-.1.734.9,1.07l.711.2a4.577,4.577,0,0,1,2.063.977,1.865,1.865,0,0,1,.563,1.492,2.37,2.37,0,0,1-.516,1.375,2.948,2.948,0,0,1-1.25.895,4.18,4.18,0,0,1-1.664.285,3.3,3.3,0,0,1-2.219-.785,2.427,2.427,0,0,1-.844-1.98l1.414.008a1.5,1.5,0,0,0,.453,1.141,1.732,1.732,0,0,0,1.242.43,2.436,2.436,0,0,0,1.336-.324A1.247,1.247,0,0,0,37.875,158.711Zm10.5-1.9a6.707,6.707,0,0,1-.7,2.32,3.949,3.949,0,0,1-1.336,1.543,3.058,3.058,0,0,1-1.766.488,2.815,2.815,0,0,1-2.25-.992l-.758,4.078H40.156l2.031-11.7,1.281-.008-.156.945a3.207,3.207,0,0,1,2.508-1.094,2.358,2.358,0,0,1,1.9.9,3.954,3.954,0,0,1,.719,2.391,8.413,8.413,0,0,1-.039.969Zm-1.391-.16.039-.655a2.969,2.969,0,0,0-.434-1.744,1.525,1.525,0,0,0-1.254-.636,2.508,2.508,0,0,0-2.117,1.163l-.711,4.05a1.769,1.769,0,0,0,1.711,1.155,2.224,2.224,0,0,0,1.793-.823A4.777,4.777,0,0,0,46.984,156.652Zm6.18,4.5a3.048,3.048,0,0,1-2.469-1.164,4.006,4.006,0,0,1-.75-2.9l.039-.336a5.624,5.624,0,0,1,.746-2.3,4.339,4.339,0,0,1,1.5-1.566,3.491,3.491,0,0,1,1.906-.5,2.688,2.688,0,0,1,2.047.867,3.566,3.566,0,0,1,.813,2.266,6.621,6.621,0,0,1-.031,1.016l-.086.648H51.352a2.855,2.855,0,0,0,.379,1.953,1.8,1.8,0,0,0,1.551.836,3.007,3.007,0,0,0,2.313-1.125l.813.688a3.718,3.718,0,0,1-1.371,1.2A3.886,3.886,0,0,1,53.164,161.156Zm.9-7.586a2.066,2.066,0,0,0-1.527.594A4.22,4.22,0,0,0,51.5,156l4.109.008.031-.125a2.313,2.313,0,0,0-.316-1.637A1.488,1.488,0,0,0,54.063,153.57Zm6.547-1.031-.2,1.07A3.333,3.333,0,0,1,63,152.391a2.1,2.1,0,0,1,1.766.828,3.217,3.217,0,0,1,.422,2.242L64.266,161H62.852l.93-5.557a2.962,2.962,0,0,0,.008-.71,1.168,1.168,0,0,0-1.289-1.116,2.661,2.661,0,0,0-2.234,1.358L59.219,161H57.8l1.469-8.453Zm6.242,4.219a6.577,6.577,0,0,1,.711-2.328,4.03,4.03,0,0,1,1.367-1.555,3.127,3.127,0,0,1,1.789-.492,2.64,2.64,0,0,1,2.172,1.031L73.7,149h1.414l-2.078,12H71.75l.148-.906a3.116,3.116,0,0,1-2.469,1.063,2.335,2.335,0,0,1-1.867-.918,4,4,0,0,1-.75-2.379A7.6,7.6,0,0,1,66.852,156.758Zm1.359.808a2.929,2.929,0,0,0,.4,1.732,1.437,1.437,0,0,0,1.234.632,2.554,2.554,0,0,0,2.18-1.233l.672-3.9a1.754,1.754,0,0,0-1.7-1.186,2.143,2.143,0,0,0-1.473.5,3.256,3.256,0,0,0-.969,1.475A6.082,6.082,0,0,0,68.211,157.565ZM79.883,161l1.281-7.336h-1.3l.2-1.117h1.3l.141-1a3.318,3.318,0,0,1,.984-1.992,2.926,2.926,0,0,1,2.094-.734,4.884,4.884,0,0,1,1.008.134l-.172,1.187a4.637,4.637,0,0,0-.758-.094,1.614,1.614,0,0,0-1.191.456,2.073,2.073,0,0,0-.566,1.211l-.125.833h1.75l-.2,1.117H82.57L81.3,161Zm10.148-.836a3.265,3.265,0,0,1-2.523.992,2.106,2.106,0,0,1-1.793-.867,3.317,3.317,0,0,1-.434-2.281l.906-5.461H87.6l-.914,5.484a3.643,3.643,0,0,0-.016.672,1.4,1.4,0,0,0,.336.883,1.146,1.146,0,0,0,.828.344A2.537,2.537,0,0,0,90.18,158.7l1.063-6.156h1.414L91.188,161H89.852Zm6.07-7.625-.2,1.07a3.333,3.333,0,0,1,2.594-1.219,2.1,2.1,0,0,1,1.766.828,3.217,3.217,0,0,1,.422,2.242L99.758,161H98.344l.93-5.557a2.962,2.962,0,0,0,.008-.71,1.168,1.168,0,0,0-1.289-1.116,2.661,2.661,0,0,0-2.234,1.358L94.711,161H93.3l1.469-8.453Zm14.453-.148a3.047,3.047,0,0,1,1.82.578,3.285,3.285,0,0,1,1.121,1.551,4.8,4.8,0,0,1,.246,2.16l-.016.172a5.685,5.685,0,0,1-.734,2.23,4.309,4.309,0,0,1-1.516,1.551,3.7,3.7,0,0,1-2.039.523,3.052,3.052,0,0,1-1.816-.578,3.21,3.21,0,0,1-1.113-1.531,4.931,4.931,0,0,1-.25-2.133,5.76,5.76,0,0,1,.711-2.359,4.409,4.409,0,0,1,1.527-1.621A3.652,3.652,0,0,1,110.555,152.391Zm-2.875,4.531a4.8,4.8,0,0,0,0,1.023,2.507,2.507,0,0,0,.551,1.469,1.653,1.653,0,0,0,1.262.57,2.253,2.253,0,0,0,1.3-.348,2.919,2.919,0,0,0,1-1.121,4.721,4.721,0,0,0,.523-1.664,7.5,7.5,0,0,0,.023-1.211,2.6,2.6,0,0,0-.57-1.492,1.69,1.69,0,0,0-1.266-.578,2.3,2.3,0,0,0-1.859.859,4.245,4.245,0,0,0-.945,2.313Zm14.781-.109a6.586,6.586,0,0,1-.711,2.336,3.982,3.982,0,0,1-1.344,1.539,3.058,3.058,0,0,1-1.75.477,2.61,2.61,0,0,1-2.273-1.148l-.289.984h-1.3l2.086-12h1.414l-.852,4.484a3.107,3.107,0,0,1,2.469-1.094,2.358,2.358,0,0,1,1.9.9,3.954,3.954,0,0,1,.719,2.391,7.362,7.362,0,0,1-.047.969ZM121.117,156a3.009,3.009,0,0,0-.383-1.744,1.465,1.465,0,0,0-1.242-.636,2.574,2.574,0,0,0-2.234,1.327l-.633,3.675a1.8,1.8,0,0,0,1.758,1.319,2.054,2.054,0,0,0,1.449-.492,3.212,3.212,0,0,0,.941-1.463A6.578,6.578,0,0,0,121.117,156Zm6.2-5.5-.359,2.047h1.539l-.2,1.117h-1.531l-.883,5.258a1.833,1.833,0,0,0-.008.375.6.6,0,0,0,.664.609,4.051,4.051,0,0,0,.688-.078l-.109,1.18a3.847,3.847,0,0,1-1.031.141,1.476,1.476,0,0,1-1.266-.621,2.4,2.4,0,0,1-.328-1.629l.859-5.234h-1.492l.2-1.117h1.492l.359-2.047Zm5.07,10.656a3.048,3.048,0,0,1-2.469-1.164,4.006,4.006,0,0,1-.75-2.9l.039-.336a5.624,5.624,0,0,1,.746-2.3,4.339,4.339,0,0,1,1.5-1.566,3.491,3.491,0,0,1,1.906-.5,2.688,2.688,0,0,1,2.047.867,3.566,3.566,0,0,1,.813,2.266,6.621,6.621,0,0,1-.031,1.016l-.086.648H130.57a2.855,2.855,0,0,0,.379,1.953,1.8,1.8,0,0,0,1.551.836,3.007,3.007,0,0,0,2.313-1.125l.813.688a3.718,3.718,0,0,1-1.371,1.2A3.886,3.886,0,0,1,132.383,161.156Zm.9-7.586a2.066,2.066,0,0,0-1.527.594A4.22,4.22,0,0,0,130.719,156l4.109.008.031-.125a2.313,2.313,0,0,0-.316-1.637A1.488,1.488,0,0,0,133.281,153.57Zm6.547-1.031-.2,1.07a3.333,3.333,0,0,1,2.594-1.219,2.1,2.1,0,0,1,1.766.828,3.217,3.217,0,0,1,.422,2.242L143.484,161H142.07l.93-5.557a2.962,2.962,0,0,0,.008-.71,1.168,1.168,0,0,0-1.289-1.116,2.661,2.661,0,0,0-2.234,1.358L138.438,161h-1.414l1.469-8.453Zm9.492,8.617a3.048,3.048,0,0,1-2.469-1.164,4.006,4.006,0,0,1-.75-2.9l.039-.336a5.624,5.624,0,0,1,.746-2.3,4.339,4.339,0,0,1,1.5-1.566,3.491,3.491,0,0,1,1.906-.5,2.688,2.688,0,0,1,2.047.867,3.566,3.566,0,0,1,.813,2.266,6.621,6.621,0,0,1-.031,1.016l-.086.648h-5.523a2.855,2.855,0,0,0,.379,1.953,1.8,1.8,0,0,0,1.551.836,3.007,3.007,0,0,0,2.313-1.125l.813.688a3.718,3.718,0,0,1-1.371,1.2A3.886,3.886,0,0,1,149.32,161.156Zm.9-7.586a2.066,2.066,0,0,0-1.527.594A4.22,4.22,0,0,0,147.656,156l4.109.008.031-.125a2.313,2.313,0,0,0-.316-1.637A1.488,1.488,0,0,0,150.219,153.57Zm9,.266-.664-.07a2.42,2.42,0,0,0-2.141,1.227L155.375,161h-1.414l1.469-8.453,1.367-.008-.211.984a2.527,2.527,0,0,1,2.117-1.148,2.594,2.594,0,0,1,.672.117Zm10.078-4.211-1.312,7.7a4.368,4.368,0,0,1-1.531,2.824,4.5,4.5,0,0,1-3.055,1.02,3.956,3.956,0,0,1-1.941-.5,2.9,2.9,0,0,1-1.215-1.352,3.69,3.69,0,0,1-.258-1.98l1.313-7.7h1.445l-1.3,7.717a2.5,2.5,0,0,0,.406,1.88,2.031,2.031,0,0,0,1.633.715,2.812,2.812,0,0,0,2-.645,3.125,3.125,0,0,0,1.027-1.943l1.313-7.725Zm5.367,9.086q.117-.875-.961-1.234l-1.469-.43q-1.859-.641-1.8-2.125a2.341,2.341,0,0,1,1.02-1.832,3.631,3.631,0,0,1,2.27-.7,3.027,3.027,0,0,1,2.082.746,2.363,2.363,0,0,1,.77,1.9l-1.406-.008a1.319,1.319,0,0,0-.4-1.031,1.576,1.576,0,0,0-1.1-.414,2.059,2.059,0,0,0-1.266.359,1.316,1.316,0,0,0-.57.922q-.1.734.9,1.07l.711.2a4.577,4.577,0,0,1,2.063.977,1.865,1.865,0,0,1,.563,1.492,2.37,2.37,0,0,1-.516,1.375,2.948,2.948,0,0,1-1.25.895,4.18,4.18,0,0,1-1.664.285,3.3,3.3,0,0,1-2.219-.785,2.427,2.427,0,0,1-.844-1.98l1.414.008a1.5,1.5,0,0,0,.453,1.141,1.732,1.732,0,0,0,1.242.43,2.436,2.436,0,0,0,1.336-.324A1.247,1.247,0,0,0,174.664,158.711Zm8.211,1.453a3.265,3.265,0,0,1-2.523.992,2.106,2.106,0,0,1-1.793-.867,3.317,3.317,0,0,1-.434-2.281l.906-5.461h1.414l-.914,5.484a3.642,3.642,0,0,0-.016.672,1.4,1.4,0,0,0,.336.883,1.146,1.146,0,0,0,.828.344,2.537,2.537,0,0,0,2.344-1.227l1.063-6.156H185.5L184.031,161H182.7Zm8.438.836a1.894,1.894,0,0,1-.055-.445l.023-.445a3.465,3.465,0,0,1-2.469,1.047,2.526,2.526,0,0,1-1.816-.707,2.14,2.14,0,0,1-.637-1.73,2.6,2.6,0,0,1,1.176-2.1,5.005,5.005,0,0,1,2.887-.754l1.477.008.094-.672a1.545,1.545,0,0,0-.293-1.2,1.414,1.414,0,0,0-1.113-.457,2.181,2.181,0,0,0-1.285.355,1.513,1.513,0,0,0-.684.98l-1.422.008a2.266,2.266,0,0,1,.578-1.316,3.363,3.363,0,0,1,1.3-.891,4.215,4.215,0,0,1,1.648-.3,2.8,2.8,0,0,1,2.055.8,2.484,2.484,0,0,1,.617,2.043l-.687,4.188-.039.6a2.949,2.949,0,0,0,.094.852l-.016.133Zm-2.219-1.094a2.466,2.466,0,0,0,1.285-.324,3.254,3.254,0,0,0,1.043-.941l.3-1.742-1.07-.008a4.054,4.054,0,0,0-2.047.422,1.554,1.554,0,0,0-.8,1.2,1.21,1.21,0,0,0,.277.988A1.321,1.321,0,0,0,189.094,159.906Zm10.828-6.07-.664-.07a2.42,2.42,0,0,0-2.141,1.227L196.078,161h-1.414l1.469-8.453,1.367-.008-.211.984a2.527,2.527,0,0,1,2.117-1.148,2.594,2.594,0,0,1,.672.117Zm1.6,7.164h-1.406l1.469-8.453h1.406Zm1.164-11.539a.774.774,0,0,1,.6.215.8.8,0,0,1,.238.605.834.834,0,0,1-.836.852.779.779,0,0,1-.6-.211.764.764,0,0,1-.227-.594.886.886,0,0,1,.234-.609A.826.826,0,0,1,202.688,149.461Zm5.844,2.93a3.047,3.047,0,0,1,1.82.578,3.285,3.285,0,0,1,1.121,1.551,4.8,4.8,0,0,1,.246,2.16l-.016.172a5.685,5.685,0,0,1-.734,2.23,4.309,4.309,0,0,1-1.516,1.551,3.7,3.7,0,0,1-2.039.523,3.052,3.052,0,0,1-1.816-.578,3.21,3.21,0,0,1-1.113-1.531,4.931,4.931,0,0,1-.25-2.133,5.76,5.76,0,0,1,.711-2.359,4.409,4.409,0,0,1,1.527-1.621A3.652,3.652,0,0,1,208.531,152.391Zm-2.875,4.531a4.8,4.8,0,0,0,0,1.023,2.507,2.507,0,0,0,.551,1.469,1.653,1.653,0,0,0,1.262.57,2.253,2.253,0,0,0,1.3-.348,2.919,2.919,0,0,0,1-1.121,4.721,4.721,0,0,0,.523-1.664,7.493,7.493,0,0,0,.023-1.211,2.6,2.6,0,0,0-.57-1.492,1.69,1.69,0,0,0-1.266-.578,2.3,2.3,0,0,0-1.859.859,4.245,4.245,0,0,0-.945,2.313ZM218,158.711q.117-.875-.961-1.234l-1.469-.43q-1.859-.641-1.8-2.125a2.341,2.341,0,0,1,1.02-1.832,3.631,3.631,0,0,1,2.27-.7,3.027,3.027,0,0,1,2.082.746,2.363,2.363,0,0,1,.77,1.9l-1.406-.008a1.319,1.319,0,0,0-.4-1.031,1.576,1.576,0,0,0-1.1-.414,2.059,2.059,0,0,0-1.266.359,1.316,1.316,0,0,0-.57.922q-.1.734.9,1.07l.711.2a4.577,4.577,0,0,1,2.063.977,1.865,1.865,0,0,1,.563,1.492,2.37,2.37,0,0,1-.516,1.375,2.948,2.948,0,0,1-1.25.895,4.18,4.18,0,0,1-1.664.285,3.3,3.3,0,0,1-2.219-.785,2.427,2.427,0,0,1-.844-1.98l1.414.008a1.5,1.5,0,0,0,.453,1.141,1.732,1.732,0,0,0,1.242.43,2.436,2.436,0,0,0,1.336-.324A1.247,1.247,0,0,0,218,158.711Zm3.641-2.3a14.79,14.79,0,0,1,.957-3.516,10.894,10.894,0,0,1,1.715-2.918,7.045,7.045,0,0,1,2.266-1.824l.211.969a8.108,8.108,0,0,0-2.105,2.387,12.281,12.281,0,0,0-1.355,3.5,16.834,16.834,0,0,0-.461,4,8.85,8.85,0,0,0,.418,2.848,4.494,4.494,0,0,0,1.207,1.941l-.352.875a5.641,5.641,0,0,1-2-2.68,10.335,10.335,0,0,1-.629-4.062,12.352,12.352,0,0,1,.109-1.43Zm8.617.016a14.5,14.5,0,0,1-.992,3.605,10.841,10.841,0,0,1-1.723,2.867,7.163,7.163,0,0,1-2.223,1.777l-.219-.9q2.68-2.016,3.578-6.477a16.834,16.834,0,0,0,.344-3.461q-.039-3.352-1.625-4.8l.367-.875a5.179,5.179,0,0,1,1.48,1.621,7.645,7.645,0,0,1,.891,2.352,12.043,12.043,0,0,1,.254,2.777,13.344,13.344,0,0,1-.117,1.43Zm2.406,2.93a.846.846,0,0,1,.633.234.807.807,0,0,1,.242.625.844.844,0,0,1-.258.621.929.929,0,0,1-.625.254.788.788,0,0,1-.859-.828.874.874,0,0,1,.867-.906Zm1.2-6.9a.846.846,0,0,1,.633.234.807.807,0,0,1,.242.625.844.844,0,0,1-.258.621.929.929,0,0,1-.625.254.788.788,0,0,1-.859-.828.874.874,0,0,1,.867-.906Zm7.508,7.313H246.6L246.383,161h-6.7l1.977-11.375h1.477ZM249.422,161h-1.406l1.469-8.453h1.406Zm1.164-11.539a.774.774,0,0,1,.6.215.8.8,0,0,1,.238.605.834.834,0,0,1-.836.852.779.779,0,0,1-.6-.211.764.764,0,0,1-.227-.594.886.886,0,0,1,.234-.609A.826.826,0,0,1,250.586,149.461Zm6.383,9.25q.117-.875-.961-1.234l-1.469-.43q-1.859-.641-1.8-2.125a2.341,2.341,0,0,1,1.02-1.832,3.631,3.631,0,0,1,2.27-.7,3.027,3.027,0,0,1,2.082.746,2.363,2.363,0,0,1,.77,1.9l-1.406-.008a1.319,1.319,0,0,0-.4-1.031,1.576,1.576,0,0,0-1.1-.414,2.059,2.059,0,0,0-1.266.359,1.316,1.316,0,0,0-.57.922q-.1.734.9,1.07l.711.2a4.577,4.577,0,0,1,2.063.977,1.865,1.865,0,0,1,.563,1.492,2.37,2.37,0,0,1-.516,1.375,2.948,2.948,0,0,1-1.25.895,4.18,4.18,0,0,1-1.664.285,3.3,3.3,0,0,1-2.219-.785,2.427,2.427,0,0,1-.844-1.98l1.414.008a1.5,1.5,0,0,0,.453,1.141,1.732,1.732,0,0,0,1.242.43,2.436,2.436,0,0,0,1.336-.324A1.247,1.247,0,0,0,256.969,158.711Zm6.578-8.211-.359,2.047h1.539l-.2,1.117H263l-.883,5.258a1.834,1.834,0,0,0-.008.375.6.6,0,0,0,.664.609,4.051,4.051,0,0,0,.688-.078l-.109,1.18a3.847,3.847,0,0,1-1.031.141,1.476,1.476,0,0,1-1.266-.621,2.4,2.4,0,0,1-.328-1.629l.859-5.234h-1.492l.2-1.117h1.492l.359-2.047Zm3.227,5.5,4.414,1.977-.258,1.461-5.7-2.961.2-1.141,6.727-2.953-.281,1.6Zm16.164-6.375-1.312,7.7a4.368,4.368,0,0,1-1.531,2.824,4.5,4.5,0,0,1-3.055,1.02,3.956,3.956,0,0,1-1.941-.5,2.9,2.9,0,0,1-1.215-1.352,3.69,3.69,0,0,1-.258-1.98l1.313-7.7h1.445l-1.3,7.717a2.5,2.5,0,0,0,.406,1.88,2.031,2.031,0,0,0,1.633.715,2.812,2.812,0,0,0,2-.645,3.125,3.125,0,0,0,1.027-1.943l1.313-7.725Zm5.367,9.086q.117-.875-.961-1.234l-1.469-.43q-1.859-.641-1.8-2.125a2.341,2.341,0,0,1,1.02-1.832,3.631,3.631,0,0,1,2.27-.7,3.027,3.027,0,0,1,2.082.746,2.363,2.363,0,0,1,.77,1.9l-1.406-.008a1.319,1.319,0,0,0-.4-1.031,1.576,1.576,0,0,0-1.1-.414,2.059,2.059,0,0,0-1.266.359,1.316,1.316,0,0,0-.57.922q-.1.734.9,1.07l.711.2a4.577,4.577,0,0,1,2.063.977,1.865,1.865,0,0,1,.563,1.492,2.37,2.37,0,0,1-.516,1.375,2.948,2.948,0,0,1-1.25.895,4.18,4.18,0,0,1-1.664.285,3.3,3.3,0,0,1-2.219-.785,2.427,2.427,0,0,1-.844-1.98l1.414.008a1.5,1.5,0,0,0,.453,1.141,1.732,1.732,0,0,0,1.242.43,2.436,2.436,0,0,0,1.336-.324A1.247,1.247,0,0,0,288.3,158.711Zm8.211,1.453a3.265,3.265,0,0,1-2.523.992,2.107,2.107,0,0,1-1.793-.867,3.316,3.316,0,0,1-.434-2.281l.906-5.461h1.414l-.914,5.484a3.643,3.643,0,0,0-.016.672,1.4,1.4,0,0,0,.336.883,1.146,1.146,0,0,0,.828.344,2.537,2.537,0,0,0,2.344-1.227l1.063-6.156h1.414L297.672,161h-1.336Zm8.438.836a1.893,1.893,0,0,1-.055-.445l.023-.445a3.465,3.465,0,0,1-2.469,1.047,2.526,2.526,0,0,1-1.816-.707,2.14,2.14,0,0,1-.637-1.73,2.6,2.6,0,0,1,1.176-2.1,5.005,5.005,0,0,1,2.887-.754l1.477.008.094-.672a1.545,1.545,0,0,0-.293-1.2,1.414,1.414,0,0,0-1.113-.457,2.181,2.181,0,0,0-1.285.355,1.513,1.513,0,0,0-.684.98l-1.422.008a2.266,2.266,0,0,1,.578-1.316,3.363,3.363,0,0,1,1.3-.891,4.215,4.215,0,0,1,1.648-.3,2.8,2.8,0,0,1,2.055.8,2.484,2.484,0,0,1,.617,2.043l-.687,4.188-.039.6a2.95,2.95,0,0,0,.094.852l-.016.133Zm-2.219-1.094a2.466,2.466,0,0,0,1.285-.324,3.254,3.254,0,0,0,1.043-.941l.3-1.742-1.07-.008a4.054,4.054,0,0,0-2.047.422,1.554,1.554,0,0,0-.8,1.2,1.21,1.21,0,0,0,.277.988A1.321,1.321,0,0,0,302.734,159.906Zm10.828-6.07-.664-.07a2.42,2.42,0,0,0-2.141,1.227L309.719,161H308.3l1.469-8.453,1.367-.008-.211.984a2.527,2.527,0,0,1,2.117-1.148,2.594,2.594,0,0,1,.672.117Zm1.6,7.164h-1.406l1.469-8.453h1.406Zm1.164-11.539a.774.774,0,0,1,.6.215.8.8,0,0,1,.238.605.834.834,0,0,1-.836.852.779.779,0,0,1-.6-.211.764.764,0,0,1-.227-.594.886.886,0,0,1,.234-.609A.826.826,0,0,1,316.328,149.461Zm5.844,2.93a3.047,3.047,0,0,1,1.82.578,3.285,3.285,0,0,1,1.121,1.551,4.8,4.8,0,0,1,.246,2.16l-.016.172a5.685,5.685,0,0,1-.734,2.23,4.309,4.309,0,0,1-1.516,1.551,3.7,3.7,0,0,1-2.039.523,3.052,3.052,0,0,1-1.816-.578,3.21,3.21,0,0,1-1.113-1.531,4.931,4.931,0,0,1-.25-2.133,5.76,5.76,0,0,1,.711-2.359,4.409,4.409,0,0,1,1.527-1.621A3.652,3.652,0,0,1,322.172,152.391Zm-2.875,4.531a4.8,4.8,0,0,0,0,1.023,2.507,2.507,0,0,0,.551,1.469,1.653,1.653,0,0,0,1.262.57,2.253,2.253,0,0,0,1.3-.348,2.919,2.919,0,0,0,1-1.121,4.721,4.721,0,0,0,.523-1.664,7.5,7.5,0,0,0,.023-1.211,2.6,2.6,0,0,0-.57-1.492,1.69,1.69,0,0,0-1.266-.578,2.3,2.3,0,0,0-1.859.859,4.245,4.245,0,0,0-.945,2.313Zm12.969-1.031-4.672-2.023.258-1.422,5.969,2.961-.2,1.133-7,2.969.281-1.57ZM-.906,186.961a3.032,3.032,0,0,0,2.031-2.687l.242-1.766a2.96,2.96,0,0,1,1.766-2.352,2.064,2.064,0,0,1-.984-1.687,3.306,3.306,0,0,1,.008-.68l.242-1.922.016-.555a1.856,1.856,0,0,0-1.187-1.891l.352-.883a3.174,3.174,0,0,1,1.781,1.348,3.534,3.534,0,0,1,.414,2.27l-.211,1.625a2.971,2.971,0,0,0-.008.711,1.187,1.187,0,0,0,1.273,1.117l-.117,1.133a1.938,1.938,0,0,0-1.953,1.938L2.539,184.3a4.117,4.117,0,0,1-3.227,3.578Z" transform="translate(260.051 5865.614)" fill="#fff"/>
    <path id="Trazado_881270" data-name="Trazado 881270" d="M9,0H540a9,9,0,0,1,9,9V55H0V9A9,9,0,0,1,9,0Z" transform="translate(212.051 5800.381)" fill="#3a1d71"/>
    <path id="Trazado_881271" data-name="Trazado 881271" d="M8,0A8,8,0,1,1,0,8,8,8,0,0,1,8,0Z" transform="translate(244.051 5819.381)" fill="#fb130d"/>
    <path id="Trazado_881272" data-name="Trazado 881272" d="M8,0A8,8,0,1,1,0,8,8,8,0,0,1,8,0Z" transform="translate(279.051 5819.381)" fill="#fecd02"/>
    <path id="Trazado_881273" data-name="Trazado 881273" d="M8,0A8,8,0,1,1,0,8,8,8,0,0,1,8,0Z" transform="translate(314.049 5819.381)" fill="#43dfaa"/>
  </g>
</svg>
