<svg xmlns="http://www.w3.org/2000/svg" xmlns:xlink="http://www.w3.org/1999/xlink" width="400" height="500" viewBox="0 0 400 500">
  <defs>
    <clipPath id="clip-path">
      <rect id="Rectángulo_405619" data-name="Rectángulo 405619" width="400" height="500" rx="9" transform="translate(180.051 1032)" fill="#febfe9"/>
    </clipPath>
    <clipPath id="clip-path-2">
      <rect id="Rectángulo_375774" data-name="Rectángulo 375774" width="478.402" height="471.416" fill="none"/>
    </clipPath>
    <clipPath id="clip-path-4">
      <rect id="Rectángulo_375764" data-name="Rectángulo 375764" width="170.92" height="70.313" fill="none"/>
    </clipPath>
    <clipPath id="clip-path-5">
      <rect id="Rectángulo_375765" data-name="Rectángulo 375765" width="124.042" height="60.372" fill="none"/>
    </clipPath>
    <clipPath id="clip-path-6">
      <rect id="Rectángulo_375766" data-name="Rectángulo 375766" width="18.335" height="4.432" fill="none"/>
    </clipPath>
    <clipPath id="clip-path-7">
      <rect id="Rectángulo_375767" data-name="Rectángulo 375767" width="64.185" height="22.643" fill="none"/>
    </clipPath>
    <clipPath id="clip-path-8">
      <rect id="Rectángulo_375770" data-name="Rectángulo 375770" width="7.978" height="83.019" fill="none"/>
    </clipPath>
  </defs>
  <g id="Enmascarar_grupo_1098697" data-name="Enmascarar grupo 1098697" transform="translate(-180.051 -1032)" clip-path="url(#clip-path)">
    <g id="Grupo_1102473" data-name="Grupo 1102473" transform="translate(-38.28)">
      <rect id="Rectángulo_401743" data-name="Rectángulo 401743" width="404" height="462" rx="10" transform="translate(210.331 1051)" fill="#e6f0fc"/>
      <rect id="Rectángulo_401666" data-name="Rectángulo 401666" width="374" height="86" rx="43" transform="translate(218.331 1406)" fill="#2b5cf9"/>
      <rect id="Rectángulo_401739" data-name="Rectángulo 401739" width="140" height="144" rx="70" transform="translate(207.331 1032)" fill="#9fc3f4"/>
      <path id="Rectángulo_401740" data-name="Rectángulo 401740" d="M69.64,22.226A47.468,47.468,0,0,1,117.055,69.64v4.445a47.415,47.415,0,1,1-94.83,0V69.64A47.468,47.468,0,0,1,69.64,22.226M69.64,0A69.64,69.64,0,0,0,0,69.64v4.445a69.64,69.64,0,0,0,139.281,0V69.64A69.64,69.64,0,0,0,69.64,0Z" transform="translate(523.264 1425.66)" fill="#fff"/>
      <path id="Rectángulo_401741" data-name="Rectángulo 401741" d="M69.64,22.226A47.468,47.468,0,0,1,117.055,69.64v4.445a47.415,47.415,0,1,1-94.83,0V69.64A47.468,47.468,0,0,1,69.64,22.226M69.64,0A69.64,69.64,0,0,0,0,69.64v4.445a69.64,69.64,0,0,0,139.281,0V69.64A69.64,69.64,0,0,0,69.64,0Z" transform="translate(141.183 1131.63)" fill="#fff"/>
      <g id="Grupo_1072656" data-name="Grupo 1072656" transform="translate(141.183 1068.308)">
        <g id="Grupo_1071867" data-name="Grupo 1071867" clip-path="url(#clip-path-2)">
          <g id="Grupo_1071866" data-name="Grupo 1071866">
            <g id="Grupo_1071865" data-name="Grupo 1071865" clip-path="url(#clip-path-2)">
              <path id="Trazado_818778" data-name="Trazado 818778" d="M201.695,163.116c-.493-18.75-3.19-106.625-3.226-106.624C93.71,60.36,14.2,79.242,14.2,101.951c0,17.776,49.567,81.478,120.126,68.068V167.76c20.752-2.244,43.422-3.833,67.366-4.644" transform="translate(-0.24 -0.956)" fill="#b5a392"/>
              <g id="Grupo_1071852" data-name="Grupo 1071852" transform="translate(29.215 100.59)" opacity="0.15">
                <g id="Grupo_1071851" data-name="Grupo 1071851">
                  <g id="Grupo_1071850" data-name="Grupo 1071850" clip-path="url(#clip-path-4)">
                    <path id="Trazado_818779" data-name="Trazado 818779" d="M134.592,170.795v-2.259c20.367-2.2,42.592-3.769,66.046-4.593-.892-29.533-1.885-61.621-1.907-61.621C121.276,105.183,57.635,116.25,29.718,131c19.856,23.215,57.664,48.763,104.874,39.791" transform="translate(-29.718 -102.322)" fill="#2d2d30"/>
                  </g>
                </g>
              </g>
              <path id="Trazado_818780" data-name="Trazado 818780" d="M172.47,110.674H112.029a2.465,2.465,0,0,1-2.465-2.466V32.645a2.465,2.465,0,0,1,2.465-2.466H172.47a2.466,2.466,0,0,1,2.465,2.466v75.564a2.466,2.466,0,0,1-2.465,2.466" transform="translate(-1.855 -0.511)" fill="#111"/>
              <path id="Trazado_818781" data-name="Trazado 818781" d="M156.934,52.112V39.7A12.416,12.416,0,1,0,169.35,52.112Z" transform="translate(-2.447 -0.672)" fill="#f6eee3"/>
              <path id="Trazado_818782" data-name="Trazado 818782" d="M170.148,48.753a10.61,10.61,0,0,0-10.609-10.609V48.753Z" transform="translate(-2.701 -0.646)" fill="#949af8"/>
              <path id="Trazado_818783" data-name="Trazado 818783" d="M137.823,43.066H117.895a.492.492,0,0,1,0-.983h19.929a.492.492,0,1,1,0,.983" transform="translate(-1.988 -0.713)" fill="#f6eee3"/>
              <path id="Trazado_818784" data-name="Trazado 818784" d="M159.9,100H143.269a.492.492,0,1,1,0-.983H159.9a.492.492,0,1,1,0,.983" transform="translate(-2.417 -1.676)" fill="#f6eee3"/>
              <path id="Trazado_818785" data-name="Trazado 818785" d="M135.767,55.463H117.895a.492.492,0,0,1,0-.983h17.872a.492.492,0,0,1,0,.983" transform="translate(-1.988 -0.922)" fill="#f6eee3"/>
              <path id="Trazado_818786" data-name="Trazado 818786" d="M140.737,65.439H117.895a.492.492,0,0,1,0-.983h22.843a.492.492,0,0,1,0,.983" transform="translate(-1.988 -1.091)" fill="#f6eee3"/>
              <path id="Trazado_818787" data-name="Trazado 818787" d="M159.469,75.515H117.895a.492.492,0,0,1,0-.983h41.575a.492.492,0,1,1,0,.983" transform="translate(-1.988 -1.262)" fill="#f6eee3"/>
              <path id="Trazado_818788" data-name="Trazado 818788" d="M159.469,86.406H117.895a.492.492,0,0,1,0-.983h41.575a.492.492,0,1,1,0,.983" transform="translate(-1.988 -1.446)" fill="#f6eee3"/>
              <path id="Trazado_818789" data-name="Trazado 818789" d="M74.824,155.4a1.474,1.474,0,0,1-1.02-2.538l46.713-44.772a1.884,1.884,0,0,1,2.852.287l9.8,14.176,36.342-46.667a1.883,1.883,0,0,1,3.248.5L178.9,92.754,213.452,50.29a1.475,1.475,0,1,1,2.288,1.863l-35.727,43.9a1.883,1.883,0,0,1-3.223-.529L170.662,79.2,134.6,125.513a1.935,1.935,0,0,1-1.539.725,1.893,1.893,0,0,1-1.5-.813l-9.908-14.34-45.811,43.9a1.468,1.468,0,0,1-1.02.41" transform="translate(-1.242 -0.842)" fill="#5c69ab"/>
              <path id="Trazado_818790" data-name="Trazado 818790" d="M217.59,62.683a1.345,1.345,0,0,1-.177-.011,1.473,1.473,0,0,1-1.289-1.639L217.409,50.3,207,53.709a1.475,1.475,0,0,1-.919-2.8l12-3.934a1.882,1.882,0,0,1,2.456,2.012l-1.483,12.4a1.473,1.473,0,0,1-1.462,1.3" transform="translate(-3.472 -0.794)" fill="#5c69ab"/>
              <path id="Trazado_818791" data-name="Trazado 818791" d="M127.335,125.309H87.506a2.714,2.714,0,0,1-2.714-2.715V87.822a2.714,2.714,0,0,1,2.714-2.714h39.829a2.715,2.715,0,0,1,2.715,2.714v34.771a2.715,2.715,0,0,1-2.715,2.715" transform="translate(-1.436 -1.441)" fill="#5c69ab"/>
              <path id="Trazado_818792" data-name="Trazado 818792" d="M127.327,125.792H87.5a3.21,3.21,0,0,1-3.207-3.206V87.815A3.211,3.211,0,0,1,87.5,84.608h39.829a3.21,3.21,0,0,1,3.206,3.207v34.771a3.21,3.21,0,0,1-3.206,3.206M87.5,85.591a2.227,2.227,0,0,0-2.224,2.224v34.771a2.226,2.226,0,0,0,2.224,2.223h39.829a2.225,2.225,0,0,0,2.223-2.223V87.815a2.226,2.226,0,0,0-2.223-2.224Z" transform="translate(-1.427 -1.433)" fill="#5c69ab"/>
              <path id="Trazado_818793" data-name="Trazado 818793" d="M120.694,114.519H94.809a1.489,1.489,0,0,1-1.489-1.489V95.567a1.489,1.489,0,0,1,1.489-1.488h25.884a1.489,1.489,0,0,1,1.488,1.488V113.03a1.489,1.489,0,0,1-1.488,1.489" transform="translate(-1.58 -1.593)" fill="#f6eee3"/>
              <path id="Trazado_818794" data-name="Trazado 818794" d="M93.313,115.881a.491.491,0,0,1-.316-.868l14.058-11.766a.491.491,0,0,1,.624-.006l14.431,11.63a.492.492,0,0,1-.617.766L107.376,104.26,93.627,115.766a.484.484,0,0,1-.315.115" transform="translate(-1.572 -1.746)" fill="#5c69ab"/>
              <path id="Trazado_818795" data-name="Trazado 818795" d="M93.32,94.543l10.845,8.632a5.43,5.43,0,0,0,6.786-.017l10.859-8.731" transform="translate(-1.58 -1.599)" fill="#f6eee3"/>
              <path id="Trazado_818796" data-name="Trazado 818796" d="M107.539,104.849a5.911,5.911,0,0,1-3.688-1.3L93.006,94.918a.491.491,0,1,1,.612-.769l10.845,8.632a4.913,4.913,0,0,0,6.172-.015l10.858-8.731a.492.492,0,1,1,.616.766l-10.858,8.731a5.908,5.908,0,0,1-3.712,1.316" transform="translate(-1.572 -1.59)" fill="#5c69ab"/>
              <path id="Trazado_818797" data-name="Trazado 818797" d="M467.332,102c0-19.5-58.63-36.18-141.534-42.952-.336-.028-.525,77.955-.5,101.469,24.36,1.97,46.634,4.8,65.966,8.3,46.272-11.653,76.072-53.033,76.072-66.814" transform="translate(-5.508 -1)" fill="#b5a392"/>
              <g id="Grupo_1071855" data-name="Grupo 1071855" transform="translate(319.868 107.438)" opacity="0.15">
                <g id="Grupo_1071854" data-name="Grupo 1071854">
                  <g id="Grupo_1071853" data-name="Grupo 1071853" clip-path="url(#clip-path-5)">
                    <path id="Trazado_818798" data-name="Trazado 818798" d="M449.42,134.116c-23.417-11.3-68.069-20.29-123.621-24.828-.194-.016-.338,25.72-.421,52.081,24.328,1.971,46.574,4.794,65.883,8.291,24.81-6.248,44.874-21.041,58.158-35.544" transform="translate(-325.377 -109.288)" fill="#2d2d30"/>
                  </g>
                </g>
              </g>
              <path id="Trazado_818799" data-name="Trazado 818799" d="M391.7,130.986H356.472a2.464,2.464,0,0,1-2.465-2.465V93.3a2.466,2.466,0,0,1,2.465-2.467H391.7a2.467,2.467,0,0,1,2.466,2.467v35.226a2.465,2.465,0,0,1-2.466,2.465" transform="translate(-5.994 -1.538)" fill="#111"/>
              <path id="Trazado_818800" data-name="Trazado 818800" d="M375.829,122.572a.938.938,0,0,1-.653-.264.965.965,0,0,1-.295-.692V110.2H363.447a.94.94,0,0,1-.674-.287.921.921,0,0,1-.262-.675,12.87,12.87,0,1,1,13.354,13.33h-.036m-.456-13.352h.491v12.4a12.04,12.04,0,0,0,8.514-4.147,11.887,11.887,0,1,0-20.884-8.194Z" transform="translate(-6.138 -1.64)" fill="#f6eee3"/>
              <path id="Trazado_818801" data-name="Trazado 818801" d="M372.437,126.122h-.04a13.89,13.89,0,0,1-13.238-13.236,1.008,1.008,0,0,1,.284-.745,1.046,1.046,0,0,1,.748-.32h12.244a1.026,1.026,0,0,1,1.025,1.024V125.09a1.041,1.041,0,0,1-.319.746,1.012,1.012,0,0,1-.7.286M360.191,112.8l-.049.041a12.9,12.9,0,0,0,12.294,12.294l.041-12.294Z" transform="translate(-6.081 -1.893)" fill="#949af8"/>
              <path id="Trazado_818802" data-name="Trazado 818802" d="M448.343,98.324H391.905a2.714,2.714,0,0,1-2.715-2.715V44.35a2.715,2.715,0,0,1,2.715-2.715h56.438a2.716,2.716,0,0,1,2.715,2.715V95.608a2.715,2.715,0,0,1-2.715,2.715" transform="translate(-6.59 -0.705)" fill="#5c69ab"/>
              <path id="Trazado_818803" data-name="Trazado 818803" d="M448.335,98.808H391.9a3.21,3.21,0,0,1-3.207-3.207V44.343a3.21,3.21,0,0,1,3.207-3.207h56.439a3.21,3.21,0,0,1,3.207,3.207V95.6a3.21,3.21,0,0,1-3.207,3.207M391.9,42.119a2.227,2.227,0,0,0-2.224,2.224V95.6a2.227,2.227,0,0,0,2.224,2.224h56.439a2.227,2.227,0,0,0,2.224-2.224V44.343a2.227,2.227,0,0,0-2.224-2.224Z" transform="translate(-6.581 -0.696)" fill="#5c69ab"/>
              <path id="Trazado_818804" data-name="Trazado 818804" d="M438.442,70.156a18.1,18.1,0,1,1-18.1-18.1,18.1,18.1,0,0,1,18.1,18.1" transform="translate(-6.811 -0.881)" fill="#f6eee3"/>
              <path id="Trazado_818805" data-name="Trazado 818805" d="M426.871,70.777h-6.714V60.2a.492.492,0,0,1,.983,0v9.6h5.731a.492.492,0,1,1,0,.983" transform="translate(-7.114 -1.011)" fill="#5c69ab"/>
              <path id="Trazado_818806" data-name="Trazado 818806" d="M345.164,107.969a12.649,12.649,0,1,1-12.648-12.648,12.648,12.648,0,0,1,12.648,12.648" transform="translate(-5.416 -1.614)" fill="#949af8"/>
              <path id="Trazado_818807" data-name="Trazado 818807" d="M332.379,111.6a1.2,1.2,0,0,1-.847-.349l-4.514-4.515a.491.491,0,0,1,.695-.7l4.514,4.514a.216.216,0,0,0,.3,0l11.824-11.824a.491.491,0,0,1,.695.7l-11.824,11.824a1.2,1.2,0,0,1-.847.35" transform="translate(-5.534 -1.669)" fill="#111"/>
              <path id="Trazado_818808" data-name="Trazado 818808" d="M336.2,38.375a3.469,3.469,0,0,0-3.464,3.465V65.565a3.468,3.468,0,0,0,3.464,3.464h6.332a4.956,4.956,0,0,1,4.95,4.95v5.63a1.688,1.688,0,0,0,2.881,1.192l10.322-10.322a4.985,4.985,0,0,1,3.5-1.45h12.7a3.469,3.469,0,0,0,3.466-3.464V41.84a3.47,3.47,0,0,0-3.466-3.465Z" transform="translate(-5.634 -0.65)" fill="#949af8"/>
              <path id="Trazado_818809" data-name="Trazado 818809" d="M346.089,58.221a3.331,3.331,0,1,1,3.331-3.331,3.336,3.336,0,0,1-3.331,3.331m0-5.678a2.348,2.348,0,1,0,2.348,2.348,2.351,2.351,0,0,0-2.348-2.348" transform="translate(-5.803 -0.873)" fill="#111"/>
              <path id="Trazado_818810" data-name="Trazado 818810" d="M356.839,58.221a3.331,3.331,0,1,1,3.331-3.331,3.335,3.335,0,0,1-3.331,3.331m0-5.678a2.348,2.348,0,1,0,2.347,2.348,2.351,2.351,0,0,0-2.347-2.348" transform="translate(-5.985 -0.873)" fill="#111"/>
              <path id="Trazado_818811" data-name="Trazado 818811" d="M367.466,58.221a3.331,3.331,0,1,1,3.332-3.331,3.335,3.335,0,0,1-3.332,3.331m0-5.678a2.348,2.348,0,1,0,2.349,2.348,2.35,2.35,0,0,0-2.349-2.348" transform="translate(-6.165 -0.873)" fill="#111"/>
              <path id="Trazado_818812" data-name="Trazado 818812" d="M58.52,61.383a2.012,2.012,0,0,0-2.01,2.009V77.149a2.012,2.012,0,0,0,2.01,2.009h7.363a2.893,2.893,0,0,1,2.03.841L73.9,85.985a.978.978,0,0,0,1.67-.691V82.029a2.874,2.874,0,0,1,2.87-2.871h3.672a2.012,2.012,0,0,0,2.009-2.009V63.392a2.012,2.012,0,0,0-2.009-2.009Z" transform="translate(-0.957 -1.039)" fill="#949af8"/>
              <path id="Trazado_818813" data-name="Trazado 818813" d="M76.782,73.1a2.138,2.138,0,1,1,2.138-2.138A2.141,2.141,0,0,1,76.782,73.1m0-3.293a1.155,1.155,0,1,0,1.155,1.155A1.156,1.156,0,0,0,76.782,69.8" transform="translate(-1.264 -1.165)" fill="#111"/>
              <path id="Trazado_818814" data-name="Trazado 818814" d="M70.549,73.1a2.138,2.138,0,1,1,2.137-2.138A2.141,2.141,0,0,1,70.549,73.1m0-3.293A1.155,1.155,0,1,0,71.7,70.957,1.157,1.157,0,0,0,70.549,69.8" transform="translate(-1.158 -1.165)" fill="#111"/>
              <path id="Trazado_818815" data-name="Trazado 818815" d="M64.385,73.1a2.138,2.138,0,1,1,2.138-2.138A2.141,2.141,0,0,1,64.385,73.1m0-3.293a1.155,1.155,0,1,0,1.155,1.155A1.156,1.156,0,0,0,64.385,69.8" transform="translate(-1.054 -1.165)" fill="#111"/>
              <path id="Trazado_818816" data-name="Trazado 818816" d="M209.08,9.566a2.749,2.749,0,1,1-2.749-2.749,2.749,2.749,0,0,1,2.749,2.749" transform="translate(-3.447 -0.115)" fill="#949af8"/>
              <path id="Trazado_818817" data-name="Trazado 818817" d="M16.335,277.608a2.749,2.749,0,1,1-2.749-2.749,2.749,2.749,0,0,1,2.749,2.749" transform="translate(-0.184 -4.654)" fill="#949af8"/>
              <path id="Trazado_818818" data-name="Trazado 818818" d="M407.069,286.663a2.749,2.749,0,1,1-2.749-2.749,2.749,2.749,0,0,1,2.749,2.749" transform="translate(-6.799 -4.807)" fill="#949af8"/>
              <path id="Trazado_818819" data-name="Trazado 818819" d="M472.479,15.158a2.749,2.749,0,1,1-2.749-2.749,2.749,2.749,0,0,1,2.749,2.749" transform="translate(-7.907 -0.21)" fill="#949af8"/>
              <path id="Trazado_818820" data-name="Trazado 818820" d="M485.2,83.413a1.374,1.374,0,1,1-1.374-1.374,1.374,1.374,0,0,1,1.374,1.374" transform="translate(-8.168 -1.389)" fill="#5c69ab"/>
              <path id="Trazado_818821" data-name="Trazado 818821" d="M483.813,85.271a1.866,1.866,0,1,1,1.866-1.866,1.868,1.868,0,0,1-1.866,1.866m0-2.749a.883.883,0,1,0,.883.883.884.884,0,0,0-.883-.883" transform="translate(-8.16 -1.381)" fill="#5c69ab"/>
              <path id="Trazado_818822" data-name="Trazado 818822" d="M96.6,288.084a1.375,1.375,0,1,1-1.375-1.374,1.375,1.375,0,0,1,1.375,1.374" transform="translate(-1.589 -4.854)" fill="#5c69ab"/>
              <path id="Trazado_818823" data-name="Trazado 818823" d="M95.214,289.943a1.866,1.866,0,1,1,1.866-1.867,1.868,1.868,0,0,1-1.866,1.867m0-2.749a.883.883,0,1,0,.883.882.883.883,0,0,0-.883-.882" transform="translate(-1.58 -4.846)" fill="#5c69ab"/>
              <path id="Trazado_818824" data-name="Trazado 818824" d="M3.828,41.676a2.43,2.43,0,1,1-2.43,2.43,2.43,2.43,0,0,1,2.43-2.43" transform="translate(-0.024 -0.706)" fill="#5c69ab"/>
              <path id="Trazado_818825" data-name="Trazado 818825" d="M3.82,47.019A2.922,2.922,0,1,1,6.741,44.1,2.925,2.925,0,0,1,3.82,47.019m0-4.86A1.939,1.939,0,1,0,5.758,44.1,1.941,1.941,0,0,0,3.82,42.159" transform="translate(-0.015 -0.697)" fill="#5c69ab"/>
              <path id="Trazado_818826" data-name="Trazado 818826" d="M124.124.5a.942.942,0,1,1-.944.943A.942.942,0,0,1,124.124.5" transform="translate(-2.086 -0.008)" fill="#5c69ab"/>
              <path id="Trazado_818827" data-name="Trazado 818827" d="M124.115,2.868a1.434,1.434,0,1,1,1.434-1.434,1.435,1.435,0,0,1-1.434,1.434m0-1.885a.451.451,0,1,0,.451.45.452.452,0,0,0-.451-.45" transform="translate(-2.077 0)" fill="#5c69ab"/>
              <path id="Trazado_818828" data-name="Trazado 818828" d="M85.947,36.953a1.374,1.374,0,1,1-1.374-1.374,1.374,1.374,0,0,1,1.374,1.374" transform="translate(-1.409 -0.602)" fill="#111"/>
              <path id="Trazado_818829" data-name="Trazado 818829" d="M2.749,163.092a1.374,1.374,0,1,1-1.374-1.374,1.374,1.374,0,0,1,1.374,1.374" transform="translate(0 -2.738)" fill="#111"/>
              <path id="Trazado_818830" data-name="Trazado 818830" d="M365.987,2.948a1.374,1.374,0,1,1-1.374-1.374,1.375,1.375,0,0,1,1.374,1.374" transform="translate(-6.15 -0.027)" fill="#111"/>
              <path id="Trazado_818831" data-name="Trazado 818831" d="M486.594,254.713a1.374,1.374,0,1,1-1.374-1.374,1.374,1.374,0,0,1,1.374,1.374" transform="translate(-8.192 -4.289)" fill="#111"/>
              <path id="Trazado_818832" data-name="Trazado 818832" d="M352.948,463.371c1.471-22.223-5.793-44.241-20.7-62.73l-8.032-9.965-7.672-9.516-5.505-6.83-54.518,3.251-54.517-3.251-5.505,6.83-7.671,9.516-8.033,9.965a92.628,92.628,0,0,0-20,44.8c-.105.723-1.343,14.5-3.058,31.326H352.567Z" transform="translate(-2.671 -6.338)" fill="#111"/>
              <path id="Trazado_818833" data-name="Trazado 818833" d="M184.756,478.19c-.033,0-.067,0-.1-.005a.983.983,0,0,1-.879-1.078c1.109-10.872,2.011-20.4,2.55-26.1.336-3.55.475-5,.513-5.269a94.051,94.051,0,0,1,20.2-45.28.983.983,0,0,1,1.531,1.234,92.089,92.089,0,0,0-19.787,44.328c-.034.232-.23,2.3-.5,5.172-.54,5.7-1.441,15.233-2.551,26.113a.984.984,0,0,1-.977.883" transform="translate(-3.111 -6.774)" fill="#f6eee3"/>
              <path id="Trazado_818834" data-name="Trazado 818834" d="M326.2,166.7a40.576,40.576,0,0,0-13.431-24.432c-1.647-1.723-3.212-3.273-4.653-4.644-5.007-4.761-11.848-9.524-12.2-16.041-1.2-22.462-36.232-39.617-47.544-29.824-.3.263-9.944-4.758-23.319-1.931a21.823,21.823,0,1,0-31.21,25.315c-.317.956-.634,1.923-.992,2.9-4.286,11.734-11.326,20.232-21.7,29.215l-1.409,1.22c-19.154,16.579-17.61,44.388-2.927,56.513l4.234,3.532q.982.82,2.02,1.564a7.836,7.836,0,0,1,3.471,7.372,37.868,37.868,0,0,0,1.519,16.327c6.565,20.489,29.926,33.888,55.172,31.474,17.51-1.674,32.295-10.162,41.188-21.86,10.631-13.982,23.567-26.621,36.948-38.825C322.3,194.6,328.244,180.86,326.2,166.7" transform="translate(-2.634 -1.254)" fill="#111"/>
              <path id="Trazado_818835" data-name="Trazado 818835" d="M297.661,176.618l-3.543-39.039-17.325-.311-.7-12.787L270.83,136.62l-15.256-1.763-3.515-6.045a3.954,3.954,0,0,0-3.8-1.985c-1.2,14.027-7.849,26.306-14.621,27.4l-9.142-1.989.013-.174-2.885.065a13.8,13.8,0,0,0-13.445,14.061l.008.314a13.8,13.8,0,0,0,14.061,13.445l5.611-.126-2.011,50.43c-.076,13.6,12.115,21.423,24.76,21.493l.524,0c12.644.071,23.051-11,23.127-24.6l.1-17.742a30.913,30.913,0,0,0,23.3-32.785" transform="translate(-3.525 -2.108)" fill="#ffa485"/>
              <path id="Trazado_818836" data-name="Trazado 818836" d="M220.651,171.413a.983.983,0,0,1-.528-1.813l3.557-2.257-3.976-4.535a.983.983,0,1,1,1.479-1.3l4.732,5.4a.982.982,0,0,1-.212,1.477l-4.526,2.872a.974.974,0,0,1-.526.153" transform="translate(-3.716 -2.729)" fill="#ff8563"/>
              <path id="Trazado_818837" data-name="Trazado 818837" d="M274.9,211.024s-26.986,1.113-31.451-8.514h0s-1.311,14.646,31.174,22.468Z" transform="translate(-4.088 -3.356)" fill="#ff8563"/>
              <path id="Trazado_818838" data-name="Trazado 818838" d="M219.913,187.513c-.176,0-.354-.007-.531-.021a7.111,7.111,0,1,1,.531.021m-.009-10.321a3.2,3.2,0,1,0,.237.009c-.08-.006-.158-.009-.237-.009" transform="translate(-3.603 -2.934)" fill="#f6eee3"/>
              <path id="Trazado_818839" data-name="Trazado 818839" d="M294.248,157.05a2.664,2.664,0,1,1-2.6-2.729,2.667,2.667,0,0,1,2.6,2.729" transform="translate(-4.892 -2.613)" fill="#111"/>
              <path id="Trazado_818840" data-name="Trazado 818840" d="M265.577,157.05a2.664,2.664,0,1,1-2.6-2.729,2.665,2.665,0,0,1,2.6,2.729" transform="translate(-4.406 -2.613)" fill="#111"/>
              <path id="Trazado_818841" data-name="Trazado 818841" d="M259.727,171.056c-6.994,0-12.713-6.571-12.764-14.685-.029-4.821,6.355-7.019,12.7-7.06s12.755,2.078,12.786,6.9c.051,8.142-5.622,14.8-12.647,14.846Zm.112-18.8h-.162c-5.489.035-9.779,1.832-9.765,4.092.04,6.493,4.44,11.755,9.815,11.755h.051c5.4-.034,9.758-5.364,9.717-11.878h0c-.014-2.238-4.243-3.97-9.656-3.97" transform="translate(-4.181 -2.528)" fill="#fff"/>
              <path id="Trazado_818842" data-name="Trazado 818842" d="M291.281,170.442a11.868,11.868,0,0,1-9.048-4.356,15.978,15.978,0,0,1-3.715-10.328c-.029-4.822,6.356-7.02,12.7-7.059a21.631,21.631,0,0,1,8.342,1.445c2.85,1.217,4.428,3.154,4.441,5.454a15.967,15.967,0,0,1-3.583,10.373,11.856,11.856,0,0,1-9.063,4.471Zm.113-18.8h-.16c-5.491.034-9.781,1.831-9.767,4.092a13.021,13.021,0,0,0,3,8.425,8.628,8.628,0,0,0,13.683-.086,13.02,13.02,0,0,0,2.9-8.463c-.014-2.237-4.242-3.969-9.656-3.969" transform="translate(-4.716 -2.518)" fill="#fff"/>
              <path id="Trazado_818843" data-name="Trazado 818843" d="M275.12,152.333l.175,8.834a1.973,1.973,0,0,0,2.011,1.934l1.961-.039a2.689,2.689,0,0,1,2.742,2.636,6.66,6.66,0,0,1-6.527,6.79l-3.07.06" transform="translate(-4.612 -2.579)" fill="#ffa485"/>
              <path id="Trazado_818844" data-name="Trazado 818844" d="M272.4,173.513a.983.983,0,0,1-.02-1.966l3.071-.061a5.678,5.678,0,0,0,5.563-5.787,1.707,1.707,0,0,0-1.739-1.672l-1.962.039a2.956,2.956,0,0,1-3.013-2.9l-.175-8.833a.983.983,0,0,1,.963-1h.02a.983.983,0,0,1,.983.962l.175,8.834a.98.98,0,0,0,.3.694.946.946,0,0,0,.706.276l1.962-.039a3.672,3.672,0,0,1,3.743,3.6,7.644,7.644,0,0,1-7.491,7.793l-3.07.061Z" transform="translate(-4.595 -2.562)" fill="#ff8563"/>
              <path id="Trazado_818845" data-name="Trazado 818845" d="M247.962,158.977a1.483,1.483,0,0,1-.43-.064l-20.667-6.284a1.475,1.475,0,1,1,.858-2.821l20.667,6.283a1.475,1.475,0,0,1-.429,2.886" transform="translate(-3.823 -2.535)" fill="#fff"/>
              <path id="Trazado_818846" data-name="Trazado 818846" d="M271.216,159.97a1.474,1.474,0,0,1-.86-2.672c1.925-1.373,6.6-3.143,10.529-.007a1.475,1.475,0,0,1-1.839,2.305c-3.155-2.519-6.827,0-6.983.106a1.466,1.466,0,0,1-.847.267" transform="translate(-4.567 -2.634)" fill="#fff"/>
              <path id="Trazado_818847" data-name="Trazado 818847" d="M277.459,197.225a.552.552,0,0,1-.372-.023,4.722,4.722,0,0,0-5.217,1.057.555.555,0,1,1-.822-.745c2.68-2.941,6.443-1.346,6.481-1.329a.554.554,0,0,1-.071,1.04" transform="translate(-4.587 -3.314)" fill="#ff8563"/>
              <path id="Trazado_818848" data-name="Trazado 818848" d="M253.222,146.419a8.5,8.5,0,0,0,3.492-.471c1.21-.33,2.433-.632,3.506-.856s2.317-.442,3.558-.627a8.43,8.43,0,0,0,3.38-.971c.84-.584.981-1.778-.4-2.923-1.306-1.122-4.292-2.012-7.849-1.274-3.549.754-5.881,2.761-6.585,4.3-.76,1.594-.118,2.625.9,2.818" transform="translate(-4.266 -2.354)" fill="#111"/>
              <path id="Trazado_818849" data-name="Trazado 818849" d="M297.924,145.991a6.676,6.676,0,0,1-2.76-.262c-.961-.222-1.934-.422-2.783-.565s-1.836-.276-2.817-.382a6.63,6.63,0,0,1-2.688-.66c-.678-.433-.826-1.368.223-2.31a7.652,7.652,0,0,1,6.133-1.246c2.814.484,4.71,1.99,5.311,3.181.646,1.23.173,2.061-.619,2.244" transform="translate(-4.848 -2.378)" fill="#111"/>
              <path id="Trazado_818850" data-name="Trazado 818850" d="M271.9,184.073c-.021,0-.04,0-.061,0l-7.67-.472a5.562,5.562,0,0,1-5.218-5.579l0-1.047a.984.984,0,0,1,.983-.979h0a.983.983,0,0,1,.978.988l0,1.048a3.594,3.594,0,0,0,3.373,3.607l7.67.472a.983.983,0,0,1-.06,1.964" transform="translate(-4.384 -2.98)" fill="#ff8563"/>
              <path id="Trazado_818851" data-name="Trazado 818851" d="M226.688,274.614l55.275-.319.341-.856,16.84-42.323a.522.522,0,0,1,.466-.318l-90.363-.015,16.973,42.656Z" transform="translate(-3.543 -3.907)" fill="#ffa485"/>
              <path id="Trazado_818852" data-name="Trazado 818852" d="M296.668,235.919l-18.518,9.057a33.706,33.706,0,0,0-13.868,12.566l-6.638,10.747,2.2,2.048,6.582-10.656a33.7,33.7,0,0,1,13.867-12.566l16.563-8.1,1.508-3.791a15.145,15.145,0,0,0-1.691.7" transform="translate(-4.362 -3.983)" fill="#ff8563"/>
              <path id="Trazado_818853" data-name="Trazado 818853" d="M251.539,337.066a3.19,3.19,0,0,0,6.047,0l24.677-62.021-55.275.319Z" transform="translate(-3.843 -4.657)" fill="#ff8563"/>
              <path id="Trazado_818854" data-name="Trazado 818854" d="M381.916,305.654l-44.852-52.361c-12.924-14.722-19.1-22.039-38.367-22.493h-.045c-.1,0-.19-.008-.288-.01-.011,0-.02.009-.031.009a.524.524,0,0,0-.466.318l-16.84,42.323-.341.856-24.678,62.021a3.189,3.189,0,0,1-6.046,0l-24.551-61.7-.468-1.175L207.97,230.783h0l-.477.008-.115,0c-17.464.3-37.576,7.51-52.889,19.147a53.077,53.077,0,0,0-20.273,48.878,53.836,53.836,0,0,0,2.742,11.2l.982,2.794q4.94,14.043,11.093,27.619c1.487,3.282,2.659,5.859,2.68,5.881l10.9,1.983a.515.515,0,0,0,.768-.016l28.9,36.6a.516.516,0,0,0,.337.481l22.634,8.334a118.565,118.565,0,0,0,75.48,0l28.1-10.948a.514.514,0,0,0,.313-.6s24.02-33.624,24.23-33.851l38.54-41.95a.514.514,0,0,0,.012-.683" transform="translate(-2.265 -3.907)" fill="#5c69ab"/>
              <path id="Trazado_818855" data-name="Trazado 818855" d="M252.013,400.342a112.732,112.732,0,0,1-36.938-6.2l-22.644-8.337a1.017,1.017,0,0,1-.639-.745L163.24,348.9a1.032,1.032,0,0,1-.246.035,1.015,1.015,0,0,1-.617-.195l-10.767-1.959a.5.5,0,0,1-.267-.145c-.084-.087-.085-.089-2.772-6.017-4.09-9.023-7.827-18.328-11.109-27.66l-.982-2.794a53.359,53.359,0,0,1,17.7-60.629c15.222-11.567,35.6-18.943,53.179-19.248l.123.491-.01-.492.478-.008a.489.489,0,0,1,.471.31l41.991,105.533a2.7,2.7,0,0,0,5.133,0l41.859-105.2a1.012,1.012,0,0,1,.842-.624.573.573,0,0,1,.156-.012l.254.007c19.281.454,25.627,7.686,38.27,22.091l.5.57,44.857,52.367a1.008,1.008,0,0,1-.024,1.336l-38.54,41.948c-.361.46-15.851,22.129-24.085,33.655a1.013,1.013,0,0,1-.641.924l-28.1,10.947a112.631,112.631,0,0,1-37.922,6.2q-.479,0-.958,0m.958-.987a111.456,111.456,0,0,0,37.583-6.14l28.079-10.942a.568.568,0,0,1,.091-.431c5.639-7.894,24.055-33.665,24.266-33.9L381.533,306l.375-.351-.373.32-45.35-52.927c-12.455-14.19-18.7-21.313-37.508-21.755l-.271-.008-.039,0-17.231,43.189-24.678,62.021a3.681,3.681,0,0,1-6.96,0L207.63,231.272l-.143,0h-.114c-17.383.3-37.538,7.6-52.6,19.048a52.381,52.381,0,0,0-17.366,59.52l.983,2.794c3.272,9.3,7,18.583,11.076,27.581,1.728,3.813,2.355,5.185,2.568,5.644l10.65,1.939a.486.486,0,0,1,.271.148.54.54,0,0,1,.4-.173.531.531,0,0,1,.394.188l28.9,36.6a.5.5,0,0,1,.105.3l22.65,8.357a111.4,111.4,0,0,0,37.566,6.136" transform="translate(-2.257 -3.899)" fill="#5c69ab"/>
              <path id="Trazado_818856" data-name="Trazado 818856" d="M311.676,391.584h-61a6.872,6.872,0,0,1-6.873-6.872V302.9a6.873,6.873,0,0,1,6.873-6.872h61a6.872,6.872,0,0,1,6.872,6.872v81.81a6.872,6.872,0,0,1-6.872,6.872" transform="translate(-4.128 -5.012)" fill="#231f20"/>
              <path id="Trazado_818857" data-name="Trazado 818857" d="M292.828,296.914H270.321a2.973,2.973,0,0,1-2.973-2.973v-2.487a2.973,2.973,0,0,1,2.973-2.974h22.507a2.973,2.973,0,0,1,2.973,2.974v2.487a2.973,2.973,0,0,1-2.973,2.973" transform="translate(-4.526 -4.884)" fill="#f6eee3"/>
              <path id="Trazado_818858" data-name="Trazado 818858" d="M292.82,297.4H270.312a3.468,3.468,0,0,1-3.464-3.463v-2.488a3.468,3.468,0,0,1,3.464-3.464H292.82a3.468,3.468,0,0,1,3.464,3.464v2.488a3.468,3.468,0,0,1-3.464,3.463m-22.507-8.433a2.484,2.484,0,0,0-2.481,2.481v2.488a2.484,2.484,0,0,0,2.481,2.48H292.82a2.484,2.484,0,0,0,2.481-2.48v-2.488a2.485,2.485,0,0,0-2.481-2.481Z" transform="translate(-4.518 -4.876)" fill="#231f20"/>
              <path id="Trazado_818859" data-name="Trazado 818859" d="M299.734,300.121h-36.49a.945.945,0,0,1-.945-.945v-2.068a.945.945,0,0,1,.945-.945h36.49a.945.945,0,0,1,.945.945v2.068a.944.944,0,0,1-.945.945" transform="translate(-4.441 -5.014)" fill="#f6eee3"/>
              <path id="Trazado_818860" data-name="Trazado 818860" d="M299.726,300.6h-36.49a1.437,1.437,0,0,1-1.436-1.435V297.1a1.437,1.437,0,0,1,1.436-1.436h36.49a1.437,1.437,0,0,1,1.436,1.436v2.067a1.437,1.437,0,0,1-1.436,1.435m-36.49-3.956a.454.454,0,0,0-.453.453v2.067a.454.454,0,0,0,.453.452h36.49a.454.454,0,0,0,.453-.452V297.1a.454.454,0,0,0-.453-.453Z" transform="translate(-4.433 -5.006)" fill="#231f20"/>
              <path id="Trazado_818861" data-name="Trazado 818861" d="M260.794,355.559c.942,3.759,4.384,3.576,7.745,2.726-2,.845-3.488,2.186-2.759,4.671.785,4.591,5.153,4.779,8.8,3.758-3.15,1.995.856,6.82,5.736,6.749,6.847.249,13.636.468,20.484.853,4.833.271,9.412.043,13.681-2.31l5.214.22-1.1-36.066-8.558,1.588c-1.008-.688-2.031-1.347-3.08-1.941,0,0-18.112-8.116-24.707-9.681a6.428,6.428,0,0,0-2.156-.244,2.352,2.352,0,0,0-1.813,1.061,3.127,3.127,0,0,0,.168,2.728c1.163,2.7,2.191,5.035,3.237,7.09-2.558.132-3.259.155-6.255.252-6.3.659-16.82.468-15.479,8.658.709,2.8,3,3.244,5.367,2.927-3.233,1.091-6.142,3.029-4.533,6.962m5.084,3.756c.543-.16,1.045-.3,1.488-.388-.432.132-.941.257-1.488.388" transform="translate(-4.399 -5.517)" fill="#ffa485"/>
              <g id="Grupo_1071858" data-name="Grupo 1071858" transform="translate(275.385 327.194)" opacity="0.36">
                <g id="Grupo_1071857" data-name="Grupo 1071857">
                  <g id="Grupo_1071856" data-name="Grupo 1071856" clip-path="url(#clip-path-6)">
                    <path id="Trazado_818862" data-name="Trazado 818862" d="M282.037,336.879l16.426.381s-15.728-4.577-18.334-4.429Z" transform="translate(-280.128 -332.829)" fill="#949af8"/>
                  </g>
                </g>
              </g>
              <path id="Trazado_818863" data-name="Trazado 818863" d="M319.989,378.757l8.338.018a2.426,2.426,0,0,0,2.431-2.42l.091-43.2a2.426,2.426,0,0,0-2.42-2.43l-8.339-.018a2.425,2.425,0,0,0-2.43,2.42l-.091,43.2a2.425,2.425,0,0,0,2.42,2.431" transform="translate(-5.377 -5.599)" fill="#f2f1ec"/>
              <path id="Trazado_818864" data-name="Trazado 818864" d="M325.515,330.365v48.61a4,4,0,0,0,4.691,3.934l38.887-6.874c29.9-5.906,41.467-42.527,20.377-64.534l-3.751-3.914-56.1,17.224a5.808,5.808,0,0,0-4.1,5.553" transform="translate(-5.511 -5.208)" fill="#5c69ab"/>
              <path id="Trazado_818865" data-name="Trazado 818865" d="M335.783,372.836a2.639,2.639,0,1,1-3.535-1.2,2.639,2.639,0,0,1,3.535,1.2" transform="translate(-5.6 -6.288)" fill="#f2f1ec"/>
              <path id="Trazado_818866" data-name="Trazado 818866" d="M329.5,383.453a4.488,4.488,0,0,1-4.484-4.487v-48.61a6.267,6.267,0,0,1,4.452-6.023l56.1-17.224a.486.486,0,0,1,.5.13l3.75,3.914a39.067,39.067,0,0,1-20.637,65.356l-38.9,6.876a4.517,4.517,0,0,1-.785.069m56.067-75.316-55.811,17.135A5.291,5.291,0,0,0,326,330.356v48.61a3.507,3.507,0,0,0,4.115,3.45L369,375.542a38.083,38.083,0,0,0,20.108-63.71Z" transform="translate(-5.503 -5.199)" fill="#5c69ab"/>
              <line id="Línea_3801" data-name="Línea 3801" x1="10.07" y2="1.476" transform="translate(260.317 341.664)" fill="#949af8"/>
              <path id="Trazado_818867" data-name="Trazado 818867" d="M264.79,349.508a.492.492,0,0,1-.07-.978l10.07-1.476a.5.5,0,0,1,.557.416.491.491,0,0,1-.416.557l-10.07,1.476a.578.578,0,0,1-.072,0" transform="translate(-4.475 -5.876)" fill="#949af8"/>
              <line id="Línea_3802" data-name="Línea 3802" x1="8.255" y2="1.927" transform="translate(264.139 350.842)" fill="#949af8"/>
              <path id="Trazado_818868" data-name="Trazado 818868" d="M268.681,359.295a.491.491,0,0,1-.111-.97l8.255-1.927a.491.491,0,1,1,.222.958l-8.256,1.927a.487.487,0,0,1-.11.013" transform="translate(-4.541 -6.034)" fill="#949af8"/>
              <line id="Línea_3803" data-name="Línea 3803" x1="7.927" y2="2.167" transform="translate(269.743 359.375)" fill="#949af8"/>
              <path id="Trazado_818869" data-name="Trazado 818869" d="M274.381,368.214a.491.491,0,0,1-.13-.965l7.928-2.168a.492.492,0,0,1,.259.949L274.51,368.2a.5.5,0,0,1-.13.018" transform="translate(-4.637 -6.181)" fill="#949af8"/>
              <path id="Trazado_818870" data-name="Trazado 818870" d="M325.507,338.83a.492.492,0,0,1-.491-.492v-7.355a7.431,7.431,0,0,1,5.483-7.162l32.238-8.7a.491.491,0,0,1,.256.949l-32.237,8.7A6.446,6.446,0,0,0,326,330.983v7.355a.492.492,0,0,1-.491.492" transform="translate(-5.503 -5.335)" fill="#111"/>
              <path id="Trazado_818871" data-name="Trazado 818871" d="M335.93,323.12a.492.492,0,0,1-.424-.242L323.4,302.4a.491.491,0,1,1,.847-.5l12.1,20.481a.492.492,0,0,1-.174.673.487.487,0,0,1-.25.068" transform="translate(-5.474 -5.107)" fill="#111"/>
              <path id="Trazado_818872" data-name="Trazado 818872" d="M255.9,276.659l10.494-16.989A33.7,33.7,0,0,1,280.258,247.1l18.519-9.058a15.266,15.266,0,0,1,8.572-1.437l35.691-2.034a1.162,1.162,0,0,1,1.129,1.632c-.009.021-.018.041-.027.062a6.489,6.489,0,0,1-5.169,3.827L322.2,242.154l.825.077A5.866,5.866,0,0,1,328,246.062l1.381,3.784,1.174,1.246a6.059,6.059,0,0,1,1.228,6.373L323.461,278.6a2.385,2.385,0,0,1-3.26,1.271,6.809,6.809,0,0,1-3.48-8.3l2.382-7.063-11.492,14.11a18.885,18.885,0,0,1-7.046,5.364l-8.856,3.893-6.243,17.49Z" transform="translate(-4.333 -3.972)" fill="#ffa485"/>
              <line id="Línea_3804" data-name="Línea 3804" y1="0.537" x2="12.201" transform="translate(305.552 238.606)" fill="#949af8"/>
              <path id="Trazado_818873" data-name="Trazado 818873" d="M323.271,243.24a.583.583,0,0,1-.239.063l-12.2.537a.6.6,0,1,1-.052-1.2l12.2-.538a.6.6,0,0,1,.291,1.133" transform="translate(-5.252 -4.099)" fill="#ff8563"/>
              <line id="Línea_3805" data-name="Línea 3805" y1="1.544" x2="14.841" transform="translate(309.738 245.929)" fill="#949af8"/>
              <path id="Trazado_818874" data-name="Trazado 818874" d="M330.169,250.689a.583.583,0,0,1-.2.058l-14.841,1.545A.6.6,0,1,1,315,251.1l14.84-1.544a.6.6,0,0,1,.327,1.13" transform="translate(-5.324 -4.225)" fill="#ff8563"/>
              <line id="Línea_3806" data-name="Línea 3806" x1="1.609" y2="4.064" transform="translate(314.771 256.473)" fill="#949af8"/>
              <path id="Trazado_818875" data-name="Trazado 818875" d="M320.446,265.479a.6.6,0,0,1-.82-.756l1.608-4.064a.6.6,0,0,1,1.111.439l-1.608,4.065a.6.6,0,0,1-.291.316" transform="translate(-5.411 -4.407)" fill="#949af8"/>
              <path id="Trazado_818876" data-name="Trazado 818876" d="M292.1,304.6l-6.152,6.6a2.424,2.424,0,0,1-3.428.12L249.1,280.165a2.426,2.426,0,0,1-.12-3.428l6.153-6.6a2.424,2.424,0,0,1,3.428-.12l33.417,31.155a2.425,2.425,0,0,1,.12,3.428" transform="translate(-4.205 -4.561)" fill="#f2f1ec"/>
              <path id="Trazado_818877" data-name="Trazado 818877" d="M155.583,355.091c1.736,3.286,4.24,7.628,7.083,12.392a38.035,38.035,0,0,0,57.329,9.554c8.143-6.908,16.878-14.578,25.4-22.182,17.728-15.814,34.538-31.341,43.187-39.133a4.3,4.3,0,0,0,.048-6.35L250.59,274.077a3.2,3.2,0,0,0-4.282-.066l-46.2,40.3-56.353,11.009s6.918,20.477,11.828,29.772" transform="translate(-2.434 -4.626)" fill="#5c69ab"/>
              <path id="Trazado_818878" data-name="Trazado 818878" d="M195.325,386.571a38.477,38.477,0,0,1-33.089-18.845c-3.106-5.2-5.492-9.379-7.095-12.413-4.873-9.223-11.792-29.639-11.861-29.845a.49.49,0,0,1,.372-.639l56.225-10.985,46.1-40.211a3.684,3.684,0,0,1,4.94.077L288.959,309a4.79,4.79,0,0,1-.053,7.074c-2.971,2.677-6.905,6.267-11.51,10.468-8.929,8.147-20.04,18.286-31.678,28.667-9.72,8.67-18.032,15.928-25.413,22.189a38.069,38.069,0,0,1-16.108,8.143,39,39,0,0,1-8.871,1.026m-50.932-60.885c1.125,3.28,7.22,20.847,11.616,29.169,1.6,3.018,3.974,7.18,7.071,12.369a37.509,37.509,0,0,0,40.892,17.363,37.118,37.118,0,0,0,15.7-7.932c7.374-6.257,15.681-13.509,25.394-22.174,11.635-10.379,22.744-20.515,31.672-28.66,4.6-4.2,8.541-7.794,11.514-10.472a3.822,3.822,0,0,0,1.261-2.8,3.77,3.77,0,0,0-1.219-2.818l-38.042-35.3a2.7,2.7,0,0,0-3.626-.055l-46.2,40.3a.475.475,0,0,1-.229.111Z" transform="translate(-2.425 -4.617)" fill="#5c69ab"/>
              <path id="Trazado_818879" data-name="Trazado 818879" d="M194.268,387.78q-1.346,0-2.7-.073a.491.491,0,0,1-.463-.518.48.48,0,0,1,.517-.463,49.738,49.738,0,0,0,36.4-13.2l14.549-13.555a.492.492,0,1,1,.67.72L228.7,374.245a50.726,50.726,0,0,1-34.43,13.535" transform="translate(-3.236 -6.092)" fill="#111"/>
              <path id="Trazado_818880" data-name="Trazado 818880" d="M181.855,329.351a.492.492,0,0,1-.319-.866l49.54-42.157a.492.492,0,0,1,.638.749l-49.541,42.157a.489.489,0,0,1-.319.117" transform="translate(-3.071 -4.846)" fill="#111"/>
              <path id="Trazado_818881" data-name="Trazado 818881" d="M194.906,318.1a.491.491,0,0,1-.426-.245l-19.517-33.707a.492.492,0,1,1,.85-.493l19.517,33.707a.491.491,0,0,1-.425.738" transform="translate(-2.961 -4.799)" fill="#111"/>
              <path id="Trazado_818882" data-name="Trazado 818882" d="M280.16,311.7a2.639,2.639,0,1,1-3.535-1.2,2.64,2.64,0,0,1,3.535,1.2" transform="translate(-4.659 -5.253)" fill="#f2f1ec"/>
              <path id="Trazado_818883" data-name="Trazado 818883" d="M14.2,102.735V218.65c0,17.776,48.721,33.2,120.126,40.924V143.659C62.924,135.938,14.2,120.511,14.2,102.735" transform="translate(-0.24 -1.739)" fill="#949af8"/>
              <path id="Trazado_818884" data-name="Trazado 818884" d="M122.006,168.888l-.053,0c-58.909-6.369-95.5-18.966-95.5-32.875a.492.492,0,0,1,.983,0c0,13.161,37.143,25.682,94.626,31.9a.491.491,0,0,1-.052.98" transform="translate(-0.448 -2.295)" fill="#f6eee3"/>
              <path id="Trazado_818885" data-name="Trazado 818885" d="M71.813,180.467a.483.483,0,0,1-.112-.013,181.74,181.74,0,0,1-23.674-7.007.491.491,0,1,1,.353-.917A180.89,180.89,0,0,0,71.924,179.5a.492.492,0,0,1-.111.97" transform="translate(-0.808 -2.921)" fill="#f6eee3"/>
              <path id="Trazado_818886" data-name="Trazado 818886" d="M123.041,188.81l-.053,0c-12.571-1.36-24.36-3.033-35.04-4.974a.492.492,0,0,1,.176-.967c10.655,1.938,22.422,3.608,34.969,4.964a.491.491,0,0,1-.052.98" transform="translate(-1.482 -3.096)" fill="#111"/>
              <path id="Trazado_818887" data-name="Trazado 818887" d="M29.718,219.431l13.568,4.346V204.432l-13.568-5.214Z" transform="translate(-0.503 -3.373)" fill="#111"/>
              <path id="Trazado_818888" data-name="Trazado 818888" d="M43.769,224.233l-14.551-4.661V186.447l14.551,5.593ZM30.2,218.856l12.585,4.031V192.715L30.2,187.878Z" transform="translate(-0.495 -3.157)" fill="#f6eee3"/>
              <path id="Trazado_818889" data-name="Trazado 818889" d="M63.66,230.634l-14.551-4.66v-18.38l14.551,5.593Zm-13.568-5.377,12.585,4.03V213.862l-12.585-4.837Z" transform="translate(-0.831 -3.515)" fill="#f6eee3"/>
              <path id="Trazado_818890" data-name="Trazado 818890" d="M468.29,102.735V218.65c0,14.686-33.254,27.769-85.082,36.227-1.468.24-1.749-115.631-.5-115.833,52.115-8.455,85.583-21.575,85.583-36.309" transform="translate(-6.466 -1.739)" fill="#949af8"/>
              <path id="Trazado_818891" data-name="Trazado 818891" d="M433.064,151.753a.491.491,0,0,1-.113-.969c12.313-2.926,21.542-6.256,27.431-9.9a.491.491,0,1,1,.516.837c-5.977,3.7-15.3,7.069-27.721,10.019a.448.448,0,0,1-.113.014" transform="translate(-7.324 -2.384)" fill="#111"/>
              <path id="Trazado_818892" data-name="Trazado 818892" d="M433.781,167.866a.491.491,0,0,1-.113-.969c12-2.85,20.989-6.095,26.727-9.645a.491.491,0,1,1,.517.836c-5.828,3.606-14.917,6.891-27.018,9.765a.447.447,0,0,1-.113.014" transform="translate(-7.336 -2.661)" fill="#f6eee3"/>
              <g id="Grupo_1071861" data-name="Grupo 1071861" transform="translate(86.829 206.42)" opacity="0.69">
                <g id="Grupo_1071860" data-name="Grupo 1071860">
                  <g id="Grupo_1071859" data-name="Grupo 1071859" clip-path="url(#clip-path-7)">
                    <path id="Trazado_818893" data-name="Trazado 818893" d="M107.818,232.618,88.74,212.938a1.474,1.474,0,1,1,2.118-2.052l17.059,17.6,19.726-18.506,24.3,18.84a1.475,1.475,0,0,1-1.808,2.331l-22.306-17.3Z" transform="translate(-88.324 -209.975)" fill="#1b1f38"/>
                  </g>
                </g>
              </g>
              <path id="Trazado_818894" data-name="Trazado 818894" d="M94.687,211.86a4.947,4.947,0,1,1-4.948-4.948,4.947,4.947,0,0,1,4.948,4.948" transform="translate(-1.436 -3.503)" fill="#bcc5f6"/>
              <path id="Trazado_818895" data-name="Trazado 818895" d="M133.276,211.86a4.947,4.947,0,1,1-4.948-4.948,4.947,4.947,0,0,1,4.948,4.948" transform="translate(-2.089 -3.503)" fill="#bcc5f6"/>
              <path id="Trazado_818896" data-name="Trazado 818896" d="M113.067,230.24a4.947,4.947,0,1,1-4.948-4.948,4.947,4.947,0,0,1,4.948,4.948" transform="translate(-1.747 -3.814)" fill="#5f73d3"/>
              <path id="Trazado_818897" data-name="Trazado 818897" d="M156.978,230.24a4.948,4.948,0,1,1-4.948-4.948,4.947,4.947,0,0,1,4.948,4.948" transform="translate(-2.49 -3.814)" fill="#5f73d3"/>
              <rect id="Rectángulo_375768" data-name="Rectángulo 375768" width="7.977" height="56.724" transform="translate(342.718 168.71)" fill="#5c69ab"/>
              <path id="Trazado_818898" data-name="Trazado 818898" d="M357.08,228.823h-8.96V171.115h8.96Zm-7.977-.983H356.1V172.1H349.1Z" transform="translate(-5.894 -2.897)" fill="#5c69ab"/>
              <path id="Trazado_818899" data-name="Trazado 818899" d="M372.554,228.559h-8.96V155.488h8.96Zm-7.977-.983h6.993v-71.1h-6.993Z" transform="translate(-6.156 -2.633)" fill="#111"/>
              <path id="Trazado_818900" data-name="Trazado 818900" d="M404.714,228.559h-8.96V155.488h8.96Zm-7.977-.983h6.993v-71.1h-6.993Z" transform="translate(-6.701 -2.633)" fill="#111"/>
              <g id="Grupo_1071864" data-name="Grupo 1071864" transform="translate(404.317 142.415)" opacity="0.46">
                <g id="Grupo_1071863" data-name="Grupo 1071863">
                  <g id="Grupo_1071862" data-name="Grupo 1071862" clip-path="url(#clip-path-8)">
                    <rect id="Rectángulo_375769" data-name="Rectángulo 375769" width="7.977" height="83.018" transform="translate(0.001 0.001)" fill="#fff"/>
                  </g>
                </g>
              </g>
              <rect id="Rectángulo_375771" data-name="Rectángulo 375771" width="7.977" height="54.213" transform="translate(404.317 171.221)" fill="#5c69ab"/>
              <path id="Trazado_818901" data-name="Trazado 818901" d="M419.741,228.865h-8.96v-55.2h8.96Zm-7.978-.982h6.993v-53.23h-6.993Z" transform="translate(-6.955 -2.94)" fill="#5c69ab"/>
              <rect id="Rectángulo_375772" data-name="Rectángulo 375772" width="7.977" height="50.816" transform="translate(374.183 174.619)" fill="#5c69ab"/>
              <path id="Trazado_818902" data-name="Trazado 818902" d="M389.087,228.924h-8.96v-51.8h8.96Zm-7.977-.982H388.1V178.11H381.11Z" transform="translate(-6.436 -2.999)" fill="#5c69ab"/>
            </g>
          </g>
        </g>
      </g>
    </g>
  </g>
</svg>
