<svg xmlns="http://www.w3.org/2000/svg" width="85" height="85" viewBox="0 0 85 85">
  <g id="Grupo_1102573" data-name="Grupo 1102573" transform="translate(-200.051 -941)">
    <circle id="Elipse_11537" data-name="Elipse 11537" cx="42.5" cy="42.5" r="42.5" transform="translate(200.051 941)" fill="#13de61"/>
    <g id="programacion-web_1_" data-name="programacion-web (1)" transform="translate(213.051 954)">
      <path id="Trazado_881137" data-name="Trazado 881137" d="M48,9V49H10L9,9,29,7Z" fill="#d9dde3"/>
      <path id="Trazado_881138" data-name="Trazado 881138" d="M10,9V49H4a3,3,0,0,1-3-3V9L5,8Z" fill="#bdc2cc"/>
      <path id="Trazado_881139" data-name="Trazado 881139" d="M48,4V9H1V4A3,3,0,0,1,4,1H45A3,3,0,0,1,48,4Z" fill="#397382"/>
      <path id="Trazado_881140" data-name="Trazado 881140" d="M49,59l4.343-1.737A9,9,0,0,0,59,48.907V37.651a.993.993,0,0,0-.934-1c-1.852-.108-6.021-.561-8.482-2.456a.96.96,0,0,0-1.168,0c-2.461,1.9-6.63,2.348-8.482,2.456a.993.993,0,0,0-.934,1V48.907a9,9,0,0,0,5.657,8.356Z" fill="#55cba9"/>
      <g id="Grupo_1102572" data-name="Grupo 1102572">
        <path id="Trazado_881141" data-name="Trazado 881141" d="M58.123,35.655c-1.628-.094-5.66-.5-7.929-2.249A1.9,1.9,0,0,0,50,33.3V4a4,4,0,0,0-4-4H4A4,4,0,0,0,0,4V9a1,1,0,0,0,1,1H9V48H4a2,2,0,0,1-2-2V13a1,1,0,1,0-2,0V46a4,4,0,0,0,4,4H38.066a9.94,9.94,0,0,0,6.22,8.191l4.343,1.738a1,1,0,0,0,.742,0l4.343-1.738A9.952,9.952,0,0,0,60,48.906V37.651a2,2,0,0,0-1.877-2ZM4,2H46a2,2,0,0,1,2,2V8H2V4A2,2,0,0,1,4,2Zm7,8H48V33.3a1.711,1.711,0,0,0-.194.1c-2.269,1.746-6.3,2.155-7.93,2.249a2,2,0,0,0-1.876,2V48H11ZM58,48.906a7.961,7.961,0,0,1-5.028,7.428L49,57.923l-3.972-1.589A7.961,7.961,0,0,1,40,48.906l-.008-11.255c2.252-.13,6.417-.649,8.977-2.657h.014C51.6,37,55.758,37.521,58,37.651Z" fill="#373737"/>
        <path id="Trazado_881142" data-name="Trazado 881142" d="M5,6H6A1,1,0,0,0,6,4H5A1,1,0,0,0,5,6Z" fill="#373737"/>
        <path id="Trazado_881143" data-name="Trazado 881143" d="M10,6h1a1,1,0,0,0,0-2H10a1,1,0,0,0,0,2Z" fill="#373737"/>
        <path id="Trazado_881144" data-name="Trazado 881144" d="M15,6h1a1,1,0,0,0,0-2H15a1,1,0,0,0,0,2Z" fill="#373737"/>
        <path id="Trazado_881145" data-name="Trazado 881145" d="M37,6h8a1,1,0,0,0,0-2H37a1,1,0,0,0,0,2Z" fill="#373737"/>
        <path id="Trazado_881146" data-name="Trazado 881146" d="M5,14H6a1,1,0,0,0,0-2H5a1,1,0,0,0,0,2Z" fill="#373737"/>
        <path id="Trazado_881147" data-name="Trazado 881147" d="M5,18H6a1,1,0,0,0,0-2H5a1,1,0,0,0,0,2Z" fill="#373737"/>
        <path id="Trazado_881148" data-name="Trazado 881148" d="M5,22H6a1,1,0,0,0,0-2H5a1,1,0,0,0,0,2Z" fill="#373737"/>
        <path id="Trazado_881149" data-name="Trazado 881149" d="M5,26H6a1,1,0,0,0,0-2H5a1,1,0,0,0,0,2Z" fill="#373737"/>
        <path id="Trazado_881150" data-name="Trazado 881150" d="M5,30H6a1,1,0,0,0,0-2H5a1,1,0,0,0,0,2Z" fill="#373737"/>
        <path id="Trazado_881151" data-name="Trazado 881151" d="M5,34H6a1,1,0,0,0,0-2H5a1,1,0,0,0,0,2Z" fill="#373737"/>
        <path id="Trazado_881152" data-name="Trazado 881152" d="M5,38H6a1,1,0,0,0,0-2H5a1,1,0,0,0,0,2Z" fill="#373737"/>
        <path id="Trazado_881153" data-name="Trazado 881153" d="M5,42H6a1,1,0,0,0,0-2H5a1,1,0,0,0,0,2Z" fill="#373737"/>
        <path id="Trazado_881154" data-name="Trazado 881154" d="M19,40H14a1,1,0,0,0,0,2h5a1,1,0,0,0,0-2Z" fill="#373737"/>
        <path id="Trazado_881155" data-name="Trazado 881155" d="M32,40H23a1,1,0,0,0,0,2h9a1,1,0,0,0,0-2Z" fill="#373737"/>
        <path id="Trazado_881156" data-name="Trazado 881156" d="M14,30h5a1,1,0,0,0,0-2H14a1,1,0,0,0,0,2Z" fill="#373737"/>
        <path id="Trazado_881157" data-name="Trazado 881157" d="M14,34h5a1,1,0,0,0,0-2H14a1,1,0,0,0,0,2Z" fill="#373737"/>
        <path id="Trazado_881158" data-name="Trazado 881158" d="M31,29a1,1,0,0,0-1-1H23a1,1,0,0,0,0,2h7A1,1,0,0,0,31,29Z" fill="#373737"/>
        <path id="Trazado_881159" data-name="Trazado 881159" d="M29,33a1,1,0,0,0-1-1H23a1,1,0,0,0,0,2h5A1,1,0,0,0,29,33Z" fill="#373737"/>
        <path id="Trazado_881160" data-name="Trazado 881160" d="M14,26h1a1,1,0,0,0,0-2H14a1,1,0,0,0,0,2Z" fill="#373737"/>
        <path id="Trazado_881161" data-name="Trazado 881161" d="M18,25a1,1,0,0,0,1,1h7a1,1,0,0,0,0-2H19A1,1,0,0,0,18,25Z" fill="#373737"/>
        <path id="Trazado_881162" data-name="Trazado 881162" d="M41,24H30a1,1,0,0,0,0,2H41a1,1,0,0,0,0-2Z" fill="#373737"/>
        <path id="Trazado_881163" data-name="Trazado 881163" d="M20,18H41a1,1,0,0,0,0-2H20a1,1,0,0,0,0,2Z" fill="#373737"/>
        <path id="Trazado_881164" data-name="Trazado 881164" d="M14,18h2a1,1,0,0,0,0-2H14a1,1,0,0,0,0,2Z" fill="#373737"/>
        <path id="Trazado_881165" data-name="Trazado 881165" d="M14,38h1a1,1,0,0,0,0-2H14a1,1,0,0,0,0,2Z" fill="#373737"/>
        <path id="Trazado_881166" data-name="Trazado 881166" d="M19,36a1,1,0,0,0,0,2h7a1,1,0,0,0,0-2Z" fill="#373737"/>
        <path id="Trazado_881167" data-name="Trazado 881167" d="M33,36H30a1,1,0,0,0,0,2h3a1,1,0,0,0,0-2Z" fill="#373737"/>
        <path id="Trazado_881168" data-name="Trazado 881168" d="M14,22h4a1,1,0,0,0,0-2H14a1,1,0,0,0,0,2Z" fill="#373737"/>
        <path id="Trazado_881169" data-name="Trazado 881169" d="M26,22a1,1,0,0,0,0-2H22a1,1,0,0,0,0,2Z" fill="#373737"/>
        <path id="Trazado_881170" data-name="Trazado 881170" d="M14,14h4a1,1,0,0,0,0-2H14a1,1,0,0,0,0,2Z" fill="#373737"/>
        <path id="Trazado_881171" data-name="Trazado 881171" d="M22,14H32a1,1,0,0,0,0-2H22a1,1,0,0,0,0,2Z" fill="#373737"/>
        <path id="Trazado_881172" data-name="Trazado 881172" d="M30,22h4a1,1,0,0,0,0-2H30a1,1,0,0,0,0,2Z" fill="#373737"/>
        <path id="Trazado_881173" data-name="Trazado 881173" d="M46.8,49.388l-1.1-1.1a1,1,0,1,0-1.414,1.414l2,2a1,1,0,0,0,1.564-.192l6-10a1,1,0,1,0-1.714-1.03Z" fill="#373737"/>
      </g>
    </g>
  </g>
</svg>
