<svg xmlns="http://www.w3.org/2000/svg" xmlns:xlink="http://www.w3.org/1999/xlink" width="399.764" height="224.619" viewBox="0 0 399.764 224.619">
  <defs>
    <clipPath id="clip-path">
      <rect id="Rectángulo_405604" data-name="Rectángulo 405604" width="310.104" height="224.619" fill="none"/>
    </clipPath>
  </defs>
  <g id="Grupo_1102441" data-name="Grupo 1102441" transform="translate(-1020.523 -2570.872)">
    <rect id="Rectángulo_405356" data-name="Rectángulo 405356" width="399.764" height="176.491" rx="9" transform="translate(1020.523 2619)" fill="#fffad5"/>
    <g id="Grupo_1102440" data-name="Grupo 1102440" transform="translate(1065.523 2570.872)">
      <g id="Grupo_1102439" data-name="Grupo 1102439" clip-path="url(#clip-path)">
        <path id="Trazado_880572" data-name="Trazado 880572" d="M161.047,312.631v24.8c0,3.549-21.313,6.424-47.6,6.424s-47.6-2.875-47.6-6.424v-24.8c0,3.549,21.313,6.424,47.6,6.424s47.6-2.875,47.6-6.424" transform="translate(-30.165 -143.227)" fill="#95bfce"/>
        <path id="Trazado_880573" data-name="Trazado 880573" d="M161.047,307.2c0,3.549-21.313,6.424-47.6,6.424s-47.6-2.875-47.6-6.424,21.313-6.424,47.6-6.424,47.6,2.875,47.6,6.424" transform="translate(-30.165 -137.795)" fill="#f2e9da"/>
        <path id="Trazado_880574" data-name="Trazado 880574" d="M159.618,287.139v11.944c0,1.709-17.173,3.094-38.355,3.094s-38.355-1.384-38.355-3.094V287.139c0-1.709,17.173-3.094,38.355-3.094s38.355,1.384,38.355,3.094" transform="translate(-37.983 -130.131)" fill="#366985"/>
        <path id="Trazado_880575" data-name="Trazado 880575" d="M161.047,249.292V274.1c0,3.549-21.313,6.424-47.6,6.424s-47.6-2.875-47.6-6.424V249.292c0,3.549,21.313,6.424,47.6,6.424s47.6-2.875,47.6-6.424" transform="translate(-30.165 -114.209)" fill="#95bfce"/>
        <path id="Trazado_880576" data-name="Trazado 880576" d="M161.047,243.86c0,3.549-21.313,6.424-47.6,6.424s-47.6-2.875-47.6-6.424,21.313-6.424,47.6-6.424,47.6,2.875,47.6,6.424" transform="translate(-30.165 -108.778)" fill="#f2e9da"/>
        <path id="Trazado_880577" data-name="Trazado 880577" d="M159.618,223.8v11.944c0,1.709-17.173,3.094-38.355,3.094s-38.355-1.384-38.355-3.094V223.8c0-1.709,17.173-3.094,38.355-3.094s38.355,1.384,38.355,3.094" transform="translate(-37.983 -101.113)" fill="#366985"/>
        <path id="Trazado_880578" data-name="Trazado 880578" d="M161.047,178.1v24.8c0,3.549-21.313,6.424-47.6,6.424s-47.6-2.875-47.6-6.424V178.1c0,3.549,21.313,6.424,47.6,6.424s47.6-2.875,47.6-6.424" transform="translate(-30.165 -81.595)" fill="#95bfce"/>
        <path id="Trazado_880579" data-name="Trazado 880579" d="M161.047,172.672c0,3.549-21.313,6.424-47.6,6.424s-47.6-2.875-47.6-6.424,21.313-6.424,47.6-6.424,47.6,2.875,47.6,6.424" transform="translate(-30.165 -76.164)" fill="#f2e9da"/>
        <path id="Trazado_880580" data-name="Trazado 880580" d="M78.062,207.02a6.1,6.1,0,1,1,6.1-6.1,6.1,6.1,0,0,1-6.1,6.1m0-11.652a5.555,5.555,0,1,0,5.555,5.555,5.561,5.561,0,0,0-5.555-5.555" transform="translate(-32.97 -89.256)" fill="#25292b"/>
        <path id="Trazado_880581" data-name="Trazado 880581" d="M83.808,273.183a5.826,5.826,0,1,1-5.826-5.826,5.826,5.826,0,0,1,5.826,5.826" transform="translate(-33.057 -122.485)" fill="#4888a3"/>
        <path id="Trazado_880582" data-name="Trazado 880582" d="M77.753,342.39a6.1,6.1,0,1,1,6.1-6.1,6.1,6.1,0,0,1-6.1,6.1m0-11.653a5.555,5.555,0,1,0,5.555,5.556,5.562,5.562,0,0,0-5.555-5.556" transform="translate(-32.828 -151.274)" fill="#25292b"/>
        <path id="Trazado_880583" data-name="Trazado 880583" d="M165.152,205.3h-51.3a.96.96,0,1,1,0-1.92h51.3a.96.96,0,1,1,0,1.92" transform="translate(-51.718 -93.173)" fill="#f2e9da"/>
        <path id="Trazado_880584" data-name="Trazado 880584" d="M165.152,215.206h-51.3a.96.96,0,1,1,0-1.92h51.3a.96.96,0,1,1,0,1.92" transform="translate(-51.718 -97.714)" fill="#f2e9da"/>
        <path id="Trazado_880585" data-name="Trazado 880585" d="M163.9,277.327H112.6a.96.96,0,1,1,0-1.92h51.3a.96.96,0,1,1,0,1.92" transform="translate(-51.145 -126.173)" fill="#f2e9da"/>
        <path id="Trazado_880586" data-name="Trazado 880586" d="M163.9,287.237H112.6a.96.96,0,0,1,0-1.92h51.3a.96.96,0,0,1,0,1.92" transform="translate(-51.145 -130.713)" fill="#f2e9da"/>
        <path id="Trazado_880587" data-name="Trazado 880587" d="M163.9,340.005H112.6a.96.96,0,0,1,0-1.92h51.3a.96.96,0,0,1,0,1.92" transform="translate(-51.145 -154.888)" fill="#f2e9da"/>
        <path id="Trazado_880588" data-name="Trazado 880588" d="M163.9,349.914H112.6a.96.96,0,0,1,0-1.92h51.3a.96.96,0,0,1,0,1.92" transform="translate(-51.145 -159.428)" fill="#f2e9da"/>
        <path id="Trazado_880589" data-name="Trazado 880589" d="M505.2,331.355v17.094c0,2.446-14.687,4.428-32.8,4.428s-32.8-1.982-32.8-4.428V331.355c0,2.446,14.687,4.428,32.8,4.428s32.8-1.982,32.8-4.428" transform="translate(-201.392 -151.805)" fill="#95bfce"/>
        <path id="Trazado_880590" data-name="Trazado 880590" d="M505.2,327.612c0,2.446-14.687,4.428-32.8,4.428s-32.8-1.982-32.8-4.428,14.687-4.428,32.8-4.428,32.8,1.982,32.8,4.428" transform="translate(-201.392 -148.062)" fill="#f2e9da"/>
        <path id="Trazado_880591" data-name="Trazado 880591" d="M504.214,313.788v8.231c0,1.178-11.834,2.132-26.432,2.132s-26.432-.954-26.432-2.132v-8.231c0-1.177,11.834-2.132,26.432-2.132s26.432.954,26.432,2.132" transform="translate(-206.779 -142.78)" fill="#366985"/>
        <path id="Trazado_880592" data-name="Trazado 880592" d="M505.2,287.706V304.8c0,2.446-14.687,4.428-32.8,4.428s-32.8-1.982-32.8-4.428V287.706c0,2.446,14.687,4.428,32.8,4.428s32.8-1.982,32.8-4.428" transform="translate(-201.392 -131.808)" fill="#95bfce"/>
        <path id="Trazado_880593" data-name="Trazado 880593" d="M505.2,283.963c0,2.446-14.687,4.428-32.8,4.428s-32.8-1.982-32.8-4.428,14.687-4.428,32.8-4.428,32.8,1.982,32.8,4.428" transform="translate(-201.392 -128.065)" fill="#f2e9da"/>
        <path id="Trazado_880594" data-name="Trazado 880594" d="M504.214,270.138v8.231c0,1.178-11.834,2.132-26.432,2.132s-26.432-.954-26.432-2.132v-8.231c0-1.177,11.834-2.132,26.432-2.132s26.432.954,26.432,2.132" transform="translate(-206.779 -122.783)" fill="#366985"/>
        <path id="Trazado_880595" data-name="Trazado 880595" d="M505.2,238.647v17.094c0,2.446-14.687,4.428-32.8,4.428s-32.8-1.982-32.8-4.428V238.647c0,2.446,14.687,4.428,32.8,4.428s32.8-1.982,32.8-4.428" transform="translate(-201.392 -109.332)" fill="#95bfce"/>
        <path id="Trazado_880596" data-name="Trazado 880596" d="M505.2,234.9c0,2.446-14.687,4.428-32.8,4.428s-32.8-1.982-32.8-4.428,14.687-4.428,32.8-4.428,32.8,1.982,32.8,4.428" transform="translate(-201.392 -105.589)" fill="#f2e9da"/>
        <path id="Trazado_880597" data-name="Trazado 880597" d="M447.939,258.587a4.286,4.286,0,1,1,4.286-4.286,4.291,4.291,0,0,1-4.286,4.286m0-8.03a3.744,3.744,0,1,0,3.744,3.744,3.748,3.748,0,0,0-3.744-3.744" transform="translate(-203.253 -114.54)" fill="#25292b"/>
        <path id="Trazado_880598" data-name="Trazado 880598" d="M451.97,304.17a4.015,4.015,0,1,1-4.015-4.015,4.015,4.015,0,0,1,4.015,4.015" transform="translate(-203.384 -137.511)" fill="#4888a3"/>
        <path id="Trazado_880599" data-name="Trazado 880599" d="M447.727,351.876a4.286,4.286,0,1,1,4.286-4.286,4.29,4.29,0,0,1-4.286,4.286m0-8.03a3.744,3.744,0,1,0,3.744,3.744,3.748,3.748,0,0,0-3.744-3.744" transform="translate(-203.155 -157.279)" fill="#25292b"/>
        <path id="Trazado_880600" data-name="Trazado 880600" d="M257.325,27.26h0a.252.252,0,0,1-.218-.127l-3.868-6.7a.253.253,0,0,1,0-.253l3.868-6.7a.252.252,0,0,1,.437,0l3.877,6.7a.253.253,0,0,1,0,.254l-3.877,6.7a.253.253,0,0,1-.219.126m-3.576-6.949,3.577,6.191,3.584-6.191-3.584-6.191Z" transform="translate(-116.002 -6.122)" fill="#f2e9da"/>
        <path id="Trazado_880601" data-name="Trazado 880601" d="M242.787,19.123a2.179,2.179,0,1,1,2.179-2.179,2.181,2.181,0,0,1-2.179,2.179m0-3.852a1.673,1.673,0,1,0,1.673,1.673,1.675,1.675,0,0,0-1.673-1.673" transform="translate(-110.231 -6.764)" fill="#f2e9da"/>
        <path id="Trazado_880602" data-name="Trazado 880602" d="M255.75,3.766a1.883,1.883,0,1,1,1.883-1.883,1.885,1.885,0,0,1-1.883,1.883m0-3.261a1.378,1.378,0,1,0,1.378,1.378A1.38,1.38,0,0,0,255.75.5" transform="translate(-116.305 0)" fill="#f2e9da"/>
        <path id="Trazado_880603" data-name="Trazado 880603" d="M239.931,6.4a1.353,1.353,0,1,1,1.353-1.353A1.354,1.354,0,0,1,239.931,6.4m0-2.2a.848.848,0,1,0,.848.848.849.849,0,0,0-.848-.848" transform="translate(-109.301 -1.69)" fill="#f2e9da"/>
        <path id="Trazado_880604" data-name="Trazado 880604" d="M380.575,52.154h0a.254.254,0,0,1-.219-.126L377.4,46.9a.253.253,0,0,1,0-.253l2.96-5.124a.252.252,0,0,1,.437,0l2.966,5.123a.253.253,0,0,1,0,.254l-2.966,5.123a.252.252,0,0,1-.218.126m-2.668-5.376,2.668,4.619,2.674-4.619-2.674-4.619Z" transform="translate(-172.882 -18.967)" fill="#f2e9da"/>
        <path id="Trazado_880605" data-name="Trazado 880605" d="M368.525,43.367a2.179,2.179,0,1,1,2.179-2.179,2.181,2.181,0,0,1-2.179,2.179m0-3.852a1.673,1.673,0,1,0,1.673,1.673,1.675,1.675,0,0,0-1.673-1.673" transform="translate(-167.836 -17.871)" fill="#f2e9da"/>
        <path id="Trazado_880606" data-name="Trazado 880606" d="M381.488,33.2a1.883,1.883,0,1,1,1.882-1.883,1.886,1.886,0,0,1-1.882,1.883m0-3.261a1.378,1.378,0,1,0,1.378,1.378,1.379,1.379,0,0,0-1.378-1.378" transform="translate(-173.91 -13.486)" fill="#f2e9da"/>
        <path id="Trazado_880607" data-name="Trazado 880607" d="M369.223,30.112a1.353,1.353,0,1,1,1.353-1.353,1.354,1.354,0,0,1-1.353,1.353m0-2.2a.848.848,0,1,0,.848.848.849.849,0,0,0-.848-.848" transform="translate(-168.534 -12.555)" fill="#f2e9da"/>
        <path id="Trazado_880608" data-name="Trazado 880608" d="M379.382,142.732h0a.252.252,0,0,1-.219-.127l-3.868-6.7a.253.253,0,0,1,0-.253l3.868-6.7a.252.252,0,0,1,.437,0l3.877,6.7a.253.253,0,0,1,0,.254l-3.877,6.7a.252.252,0,0,1-.218.126m-3.576-6.949,3.576,6.191,3.585-6.191-3.585-6.191Z" transform="translate(-171.92 -59.023)" fill="#f2e9da"/>
        <path id="Trazado_880609" data-name="Trazado 880609" d="M378.739,120.636a1.883,1.883,0,1,1,1.883-1.883,1.885,1.885,0,0,1-1.883,1.883m0-3.261a1.378,1.378,0,1,0,1.378,1.378,1.38,1.38,0,0,0-1.378-1.378" transform="translate(-172.651 -53.542)" fill="#f2e9da"/>
        <path id="Trazado_880610" data-name="Trazado 880610" d="M395.664,135.729a1.353,1.353,0,1,1,1.353-1.353,1.354,1.354,0,0,1-1.353,1.353m0-2.2a.848.848,0,1,0,.848.848.849.849,0,0,0-.848-.848" transform="translate(-180.647 -60.942)" fill="#f2e9da"/>
        <path id="Trazado_880611" data-name="Trazado 880611" d="M395.437,117.558h0a.251.251,0,0,1-.219-.126l-2.43-4.205a.253.253,0,0,1,0-.253l2.43-4.205a.252.252,0,0,1,.437,0l2.435,4.2a.255.255,0,0,1,0,.254l-2.435,4.205a.252.252,0,0,1-.218.126M393.3,113.1l2.138,3.7,2.143-3.7-2.143-3.7Z" transform="translate(-179.934 -49.773)" fill="#f2e9da"/>
        <path id="Trazado_880612" data-name="Trazado 880612" d="M367.907,131.541a1.353,1.353,0,1,1,1.353-1.353,1.355,1.355,0,0,1-1.353,1.353m0-2.2a.848.848,0,1,0,.848.848.849.849,0,0,0-.848-.848" transform="translate(-167.931 -59.023)" fill="#f2e9da"/>
        <path id="Trazado_880613" data-name="Trazado 880613" d="M65.915,105.822h0a.254.254,0,0,1-.219-.126l-2.96-5.124a.253.253,0,0,1,0-.253L65.7,95.2a.252.252,0,0,1,.437,0l2.966,5.123a.253.253,0,0,1,0,.254L66.133,105.7a.252.252,0,0,1-.218.126m-2.668-5.376,2.668,4.619,2.674-4.619-2.674-4.619Z" transform="translate(-28.726 -43.554)" fill="#f2e9da"/>
        <path id="Trazado_880614" data-name="Trazado 880614" d="M53.865,97.035a2.179,2.179,0,1,1,2.179-2.179,2.181,2.181,0,0,1-2.179,2.179m0-3.852a1.673,1.673,0,1,0,1.673,1.673,1.675,1.675,0,0,0-1.673-1.673" transform="translate(-23.679 -42.458)" fill="#f2e9da"/>
        <path id="Trazado_880615" data-name="Trazado 880615" d="M66.829,86.872a1.883,1.883,0,1,1,1.883-1.883,1.886,1.886,0,0,1-1.883,1.883m0-3.261a1.378,1.378,0,1,0,1.378,1.378,1.379,1.379,0,0,0-1.378-1.378" transform="translate(-29.754 -38.073)" fill="#f2e9da"/>
        <path id="Trazado_880616" data-name="Trazado 880616" d="M54.563,83.78a1.353,1.353,0,1,1,1.353-1.353,1.354,1.354,0,0,1-1.353,1.353m0-2.2a.848.848,0,1,0,.848.848.849.849,0,0,0-.848-.848" transform="translate(-24.377 -37.142)" fill="#f2e9da"/>
        <path id="Trazado_880617" data-name="Trazado 880617" d="M529.666,186.912h-3.251a.271.271,0,0,1,0-.542h3.251a.271.271,0,1,1,0,.542m-6.5,0h-3.251a.271.271,0,1,1,0-.542h3.251a.271.271,0,1,1,0,.542m-6.5-.053-.034,0a7.237,7.237,0,0,1-3.134-1.17.271.271,0,0,1,.3-.45,6.7,6.7,0,0,0,2.9,1.082.271.271,0,0,1-.033.54m16.248-.03a.271.271,0,0,1-.044-.538,5.737,5.737,0,0,0,2.778-1.3.271.271,0,1,1,.351.412,6.276,6.276,0,0,1-3.04,1.42.254.254,0,0,1-.045,0m-34.745-.675a.27.27,0,0,1-.271-.271v-3.251a.271.271,0,0,1,.542,0v3.251a.271.271,0,0,1-.271.271m13.291-2.785a.271.271,0,0,1-.236-.138,7.247,7.247,0,0,1-.923-3.217.271.271,0,0,1,.258-.282.257.257,0,0,1,.282.258,6.611,6.611,0,0,0,.855,2.975.271.271,0,0,1-.236.4m26.165-.557a.271.271,0,0,1-.257-.358,5.722,5.722,0,0,0,.3-1.837v-1.292a.271.271,0,1,1,.542,0v1.292a6.3,6.3,0,0,1-.328,2.011.271.271,0,0,1-.257.184m-39.449-3.16h-.013a.27.27,0,0,1-.258-.283,6.457,6.457,0,0,1,1.022-3.194.271.271,0,0,1,.455.293,5.93,5.93,0,0,0-.936,2.927.27.27,0,0,1-.27.258m11.712-2.522a.272.272,0,0,1-.242-.147,5.955,5.955,0,0,0-2.059-2.281.271.271,0,1,1,.295-.455,6.5,6.5,0,0,1,2.247,2.489.27.27,0,0,1-.118.364.262.262,0,0,1-.123.03m28.051-.786a.271.271,0,0,1-.271-.271v-3.251a.271.271,0,1,1,.542,0v3.251a.271.271,0,0,1-.271.271m-36.4-1.911a.271.271,0,0,1-.124-.512,6.422,6.422,0,0,1,3.279-.7.27.27,0,0,1,.256.284.252.252,0,0,1-.284.256,5.9,5.9,0,0,0-3,.645.267.267,0,0,1-.124.03m36.4-4.592a.271.271,0,0,1-.271-.271v-3.251a.271.271,0,1,1,.542,0v3.251a.271.271,0,0,1-.271.271m0-6.5a.271.271,0,0,1-.271-.271v-3.251a.271.271,0,1,1,.542,0v3.251a.271.271,0,0,1-.271.271m0-6.5a.271.271,0,0,1-.271-.271v-3.251a.271.271,0,1,1,.542,0v3.251a.271.271,0,0,1-.271.271m0-6.5a.271.271,0,0,1-.271-.271v-3.251a.271.271,0,1,1,.542,0v3.251a.271.271,0,0,1-.271.271m-.094-6.5a.271.271,0,0,1-.267-.227,6.651,6.651,0,0,0-1.206-2.849.271.271,0,1,1,.436-.321,7.182,7.182,0,0,1,1.3,3.082.271.271,0,0,1-.223.312.25.25,0,0,1-.045,0m-3.717-5.043a.274.274,0,0,1-.122-.029,6.571,6.571,0,0,0-2.983-.706.284.284,0,0,1-.286-.271.259.259,0,0,1,.257-.271,7.15,7.15,0,0,1,3.257.763.271.271,0,0,1-.122.513" transform="translate(-228.103 -63.002)" fill="#25292b"/>
        <path id="Trazado_880618" data-name="Trazado 880618" d="M18.924,210.406h0c-.228,0-.454-.011-.677-.033a.271.271,0,0,1-.244-.3.278.278,0,0,1,.3-.244q.309.03.625.03h0a6.354,6.354,0,0,0,2.426-.477.271.271,0,1,1,.206.5,6.892,6.892,0,0,1-2.632.519M15.236,209.3a.272.272,0,0,1-.15-.045,7,7,0,0,1-2.262-2.469.271.271,0,1,1,.476-.259,6.452,6.452,0,0,0,2.087,2.277.271.271,0,0,1-.151.5m8.81-1.3a.271.271,0,0,1-.208-.444,6.393,6.393,0,0,0,1.343-2.779.271.271,0,0,1,.53.11,6.933,6.933,0,0,1-1.457,3.016.27.27,0,0,1-.208.1m-11.792-4.192a.271.271,0,0,1-.271-.268v-3.254a.271.271,0,1,1,.542,0v3.248a.271.271,0,0,1-.268.274Zm13.331-1.946a.271.271,0,0,1-.271-.271v-3.251a.271.271,0,1,1,.542,0v3.251a.271.271,0,0,1-.271.271m-13.332-4.556a.271.271,0,0,1-.271-.271v-3.251a.271.271,0,0,1,.542,0v3.251a.271.271,0,0,1-.271.271m13.332-1.946a.271.271,0,0,1-.271-.271v-3.251a.271.271,0,1,1,.542,0v3.251a.271.271,0,0,1-.271.271M12.254,190.8a.271.271,0,0,1-.271-.271v-3.251a.271.271,0,1,1,.542,0v3.251a.271.271,0,0,1-.271.271m13.332-1.946a.271.271,0,0,1-.271-.271v-3.251a.271.271,0,1,1,.542,0v3.251a.271.271,0,0,1-.271.271M12.254,184.3a.271.271,0,0,1-.271-.271V180.78a.271.271,0,0,1,.542,0v3.251a.271.271,0,0,1-.271.271m13.332-1.946a.271.271,0,0,1-.271-.271v-3.251a.271.271,0,0,1,.542,0v3.251a.271.271,0,0,1-.271.271M12.254,177.8a.271.271,0,0,1-.271-.271v-3.251a.271.271,0,0,1,.542,0v3.251a.271.271,0,0,1-.271.271m13.332-1.946a.271.271,0,0,1-.271-.271v-3.251a.271.271,0,1,1,.542,0v3.251a.271.271,0,0,1-.271.271M12.254,171.3a.271.271,0,0,1-.271-.271v-3.251a.271.271,0,1,1,.542,0v3.251a.271.271,0,0,1-.271.271m13.332-1.946a.271.271,0,0,1-.271-.271v-3.251a.271.271,0,1,1,.542,0v3.251a.271.271,0,0,1-.271.271m-13.332-4.556a.271.271,0,0,1-.271-.271v-3.251a.271.271,0,1,1,.542,0v3.251a.271.271,0,0,1-.271.271m13.332-1.946a.271.271,0,0,1-.271-.271v-3.251a.271.271,0,0,1,.542,0v3.251a.271.271,0,0,1-.271.271m-13.332-4.556a.271.271,0,0,1-.271-.271V154.77a.271.271,0,1,1,.542,0v3.251a.271.271,0,0,1-.271.271m13.332-1.946a.271.271,0,0,1-.271-.271v-3.251a.271.271,0,1,1,.542,0v3.251a.271.271,0,0,1-.271.271M12.254,151.79a.271.271,0,0,1-.271-.271v-.464a6.341,6.341,0,0,0-.549-2.6.271.271,0,1,1,.5-.22,6.881,6.881,0,0,1,.6,2.816v.464a.271.271,0,0,1-.271.271m13.455-1.938a.282.282,0,0,1-.052,0,.271.271,0,0,1-.214-.318,6.935,6.935,0,0,1,1.419-3.034.271.271,0,1,1,.42.341,6.392,6.392,0,0,0-1.308,2.8.27.27,0,0,1-.266.219M9.7,146.081a.27.27,0,0,1-.167-.058,6.4,6.4,0,0,0-2.817-1.264.271.271,0,0,1,.1-.533A6.936,6.936,0,0,1,9.87,145.6a.271.271,0,0,1-.167.484M29.641,145a.271.271,0,0,1-.106-.52,6.884,6.884,0,0,1,2.716-.552q.276,0,.546-.022a.271.271,0,1,1,.043.54q-.292.024-.59.024a6.343,6.343,0,0,0-2.5.509.272.272,0,0,1-.106.022M3.522,144.66H.271a.271.271,0,0,1,0-.542H3.522a.271.271,0,0,1,0,.542m32.362-1.205a.271.271,0,0,1-.141-.5,6.8,6.8,0,0,0,2.211-2.17.271.271,0,0,1,.458.289,7.366,7.366,0,0,1-2.388,2.344.275.275,0,0,1-.14.039m3.348-5.3h-.027a.271.271,0,0,1-.243-.3q.033-.332.033-.674v-2.549a.271.271,0,1,1,.542,0v2.549q0,.368-.035.727a.272.272,0,0,1-.27.244m.034-6.5a.271.271,0,0,1-.271-.271V128.5q0-.193.01-.384a.271.271,0,0,1,.541.028q-.009.177-.01.357v2.881a.271.271,0,0,1-.271.271m.913-6.343a.271.271,0,0,1-.236-.4,7.358,7.358,0,0,1,2.275-2.453.271.271,0,1,1,.3.449,6.816,6.816,0,0,0-2.106,2.272.271.271,0,0,1-.236.137m5.205-3.5a.271.271,0,0,1-.034-.54,7.422,7.422,0,0,1,.932-.059h2.351a.271.271,0,1,1,0,.542H46.281a6.835,6.835,0,0,0-.863.055l-.035,0" transform="translate(0 -55.532)" fill="#25292b"/>
        <rect id="Rectángulo_405564" data-name="Rectángulo 405564" width="48.128" height="21.014" transform="translate(154.613 170.933)" fill="#25292b"/>
        <path id="Trazado_880619" data-name="Trazado 880619" d="M245.822,151.762l-21.655,2.757A19.661,19.661,0,0,0,207.54,169.4L204.347,195.7h22.445L223.5,230.444l20.361,11.448h48.3l-5.523-38.562,3.113-12.252h17.976l-4.573-20.8a19.66,19.66,0,0,0-15.351-15.058l-17.32-3.46Z" transform="translate(-93.618 -69.527)" fill="#366985"/>
        <path id="Trazado_880620" data-name="Trazado 880620" d="M252.483,250.918v15.264H210.569A7.583,7.583,0,0,1,203,258.1l1.674-25.256h22.693l-1.6,12.853Z" transform="translate(-92.996 -106.672)" fill="#f2e9da"/>
        <path id="Trazado_880621" data-name="Trazado 880621" d="M244.158,221.822h-13.03v-.542h12.578l2.37-13.082.533.1Z" transform="translate(-105.887 -95.383)" fill="#25292b"/>
        <rect id="Rectángulo_405565" data-name="Rectángulo 405565" width="22.469" height="0.542" transform="translate(192.771 133.741) rotate(-76.478)" fill="#25292b"/>
        <path id="Trazado_880622" data-name="Trazado 880622" d="M450.167,160.255h0a3.109,3.109,0,0,1-2.1-3.849l5.292-17.972a3.1,3.1,0,0,1,5.948,1.751l-5.292,17.972a3.109,3.109,0,0,1-3.849,2.1" transform="translate(-205.218 -62.402)" fill="#f2e9da"/>
        <path id="Trazado_880623" data-name="Trazado 880623" d="M456.737,173.534h0a3.109,3.109,0,0,1-1.8-4l3.22-8.484a3.1,3.1,0,1,1,5.8,2.2l-3.219,8.484a3.11,3.11,0,0,1-4,1.8" transform="translate(-208.331 -72.867)" fill="#f2e9da"/>
        <path id="Trazado_880624" data-name="Trazado 880624" d="M464.109,179.636h0a3.109,3.109,0,0,1-1.8-4l3.308-8.717a3.1,3.1,0,1,1,5.8,2.2l-3.308,8.717a3.11,3.11,0,0,1-4,1.8" transform="translate(-211.708 -75.556)" fill="#f2e9da"/>
        <path id="Trazado_880625" data-name="Trazado 880625" d="M472.137,182.539h0a3.109,3.109,0,0,1-.549-4.35l3.41-4.4a3.1,3.1,0,0,1,4.9,3.8l-3.411,4.4a3.109,3.109,0,0,1-4.35.549" transform="translate(-215.754 -79.072)" fill="#f2e9da"/>
        <path id="Trazado_880626" data-name="Trazado 880626" d="M457.705,171.438h0a3.109,3.109,0,0,1-3.679,2.384l-9.119-1.947a3.1,3.1,0,1,1,1.294-6.063l9.119,1.947a3.11,3.11,0,0,1,2.385,3.679" transform="translate(-202.704 -75.933)" fill="#f2e9da"/>
        <path id="Trazado_880627" data-name="Trazado 880627" d="M421.4,180.375c-1.42,7.033-9.607,11.222-9.607,11.222l-24.173,27.261a18.348,18.348,0,0,1-14.587,7.207l-15.855-.249-2.26-15.514,3.49-10.832h15.476l.607,2,24.449-18.239,3.479-12.961Z" transform="translate(-162.602 -78.006)" fill="#f2e9da"/>
        <path id="Trazado_880628" data-name="Trazado 880628" d="M463.2,184.484h-.01a.272.272,0,0,1-.261-.281,3.348,3.348,0,0,1,.216-1.062l.717-2.181a.271.271,0,1,1,.514.17l-.72,2.192a2.829,2.829,0,0,0-.185.9.271.271,0,0,1-.271.261" transform="translate(-212.083 -82.818)" fill="#25292b"/>
        <path id="Trazado_880629" data-name="Trazado 880629" d="M465.321,191.181a3.334,3.334,0,0,1-1.181-.215,3.372,3.372,0,0,1-1.716-1.46.271.271,0,0,1,.469-.272,2.824,2.824,0,0,0,1.439,1.225,2.854,2.854,0,0,0,3.248-.923.271.271,0,1,1,.43.33,3.4,3.4,0,0,1-2.69,1.315" transform="translate(-211.836 -86.633)" fill="#25292b"/>
        <path id="Trazado_880630" data-name="Trazado 880630" d="M474.451,191.17a3.339,3.339,0,0,1-2.056-.7,3.385,3.385,0,0,1-.461-.433.271.271,0,1,1,.406-.359,2.864,2.864,0,0,0,.387.364,2.839,2.839,0,0,0,3.97-.5.271.271,0,0,1,.429.333,3.349,3.349,0,0,1-2.242,1.274,3.419,3.419,0,0,1-.432.028" transform="translate(-216.178 -86.785)" fill="#25292b"/>
        <path id="Trazado_880631" data-name="Trazado 880631" d="M462.729,190.913h-.007a.271.271,0,0,1-.264-.278,7.8,7.8,0,0,0-.065-1.231.27.27,0,0,1,.232-.3.267.267,0,0,1,.3.232,8.3,8.3,0,0,1,.07,1.317.271.271,0,0,1-.271.264" transform="translate(-211.837 -86.631)" fill="#25292b"/>
        <path id="Trazado_880632" data-name="Trazado 880632" d="M456.467,178.769a.271.271,0,0,1-.268-.235,8.423,8.423,0,0,0-4.075-5.864.271.271,0,0,1,.194-.5l4.715,1.22a2.829,2.829,0,0,0,1.17-5.536l-9.118-1.947a.271.271,0,1,1,.113-.53l9.118,1.947a3.371,3.371,0,1,1-1.408,6.593l-3.259-.844a8.5,8.5,0,0,1,3.086,5.39.27.27,0,0,1-.232.3.206.206,0,0,1-.036,0" transform="translate(-205.643 -75.762)" fill="#25292b"/>
        <path id="Trazado_880633" data-name="Trazado 880633" d="M461.346,164.4a.255.255,0,0,1-.077-.011.27.27,0,0,1-.183-.336l1.433-4.868a.271.271,0,0,1,.52.153l-1.434,4.868a.271.271,0,0,1-.26.195" transform="translate(-211.234 -72.84)" fill="#25292b"/>
        <path id="Trazado_880634" data-name="Trazado 880634" d="M469.543,168.631a.271.271,0,0,1-.254-.366l1.26-3.359a.273.273,0,0,1,.349-.158.269.269,0,0,1,.158.349l-1.26,3.359a.272.272,0,0,1-.254.176" transform="translate(-214.989 -75.469)" fill="#25292b"/>
        <path id="Trazado_880635" data-name="Trazado 880635" d="M472.138,183.194a.264.264,0,0,1-.1-.018.271.271,0,0,1-.153-.352l3.285-8.347a.271.271,0,1,1,.5.2l-3.285,8.348a.271.271,0,0,1-.252.171" transform="translate(-216.178 -79.855)" fill="#25292b"/>
        <path id="Trazado_880636" data-name="Trazado 880636" d="M314.723,66.4a13.089,13.089,0,0,1-12.21,6.757,14.078,14.078,0,0,1-1.183,3.291,14.31,14.31,0,0,1-7.8,6.888c-3.085,1.114-6.807,1.149-9.331-1.013a14.982,14.982,0,0,1-7.445-.607A14.288,14.288,0,0,1,267.3,68.389a12.461,12.461,0,0,1,2.779-8.282,7.907,7.907,0,0,1,6.637-2.764,7.568,7.568,0,0,1-.07-1.751,7.4,7.4,0,0,1,6.115-6.421,8.422,8.422,0,0,1,7.525,2.543,9.877,9.877,0,0,1,.868-1.555,8.965,8.965,0,0,1,16.158,3.928,7.473,7.473,0,0,1,3.466.361c4.8,1.651,6.055,7.8,3.943,11.949" transform="translate(-122.46 -21.274)" fill="#25292b"/>
        <path id="Trazado_880637" data-name="Trazado 880637" d="M270.071,102.106c1.472,3.722,4.182,5.814,7.688,4.878l-2.2,13.717,16.923,16.921,7.864-14.56-.315-6.2,2.64-2.435a19.772,19.772,0,0,0,6.317-15.9l-.91-13.047a.558.558,0,0,1-.094.03,19.266,19.266,0,0,1-7.067.409,23.925,23.925,0,0,1-7.94-1.956,3.311,3.311,0,0,1-.888,2.067,5.645,5.645,0,0,1-3.7,1.494,10.723,10.723,0,0,1-5.544-1.078q-1.278,3.619-2.8,7.153l0,.06-.019-.017a7.444,7.444,0,0,0-4.653-1.818,6.666,6.666,0,0,0-2.6.469c-3.686,1.464-4.295,5.822-2.714,9.812" transform="translate(-123.354 -38.467)" fill="#f2e9da"/>
        <path id="Trazado_880638" data-name="Trazado 880638" d="M331.7,104.822a1.962,1.962,0,1,0,1.8-2.289,2.063,2.063,0,0,0-1.8,2.289" transform="translate(-151.962 -46.972)" fill="#25292b"/>
        <path id="Trazado_880639" data-name="Trazado 880639" d="M309.861,106.346a1.962,1.962,0,1,0,1.8-2.289,2.063,2.063,0,0,0-1.8,2.289" transform="translate(-141.955 -47.67)" fill="#25292b"/>
        <path id="Trazado_880640" data-name="Trazado 880640" d="M331.416,97.143a4.627,4.627,0,0,1,4.4.5.6.6,0,0,1-.635,1.015,3.864,3.864,0,0,0-.389-.251c-.066-.037-.133-.072-.2-.1l-.023-.01-.107-.044a3.908,3.908,0,0,0-.44-.145c-.075-.02-.15-.037-.225-.053l-.036-.008-.125-.018a4.131,4.131,0,0,0-.463-.031c-.077,0-.154,0-.232,0l-.115.007h0l-.011,0a4.341,4.341,0,0,0-.456.082c-.075.018-.15.038-.223.061l-.11.036-.019.006-.021.009a.615.615,0,0,1-.812-.242.606.606,0,0,1,.242-.812" transform="translate(-151.693 -44.349)" fill="#25292b"/>
        <path id="Trazado_880641" data-name="Trazado 880641" d="M312.318,99.195a.615.615,0,0,1-.771.352l-.022-.005-.02,0-.114-.02c-.076-.012-.153-.022-.229-.03a4.406,4.406,0,0,0-.463-.018h-.013l-.115.009c-.077.008-.154.017-.23.028a4.063,4.063,0,0,0-.454.1l-.121.035-.035.012c-.073.027-.145.054-.216.084a4,4,0,0,0-.416.2L309,100l-.022.013c-.062.043-.124.086-.184.132a3.969,3.969,0,0,0-.351.3.6.6,0,0,1-.77-.918,4.627,4.627,0,0,1,4.293-1.1.606.606,0,0,1,.352.771" transform="translate(-140.858 -45.029)" fill="#25292b"/>
        <path id="Trazado_880642" data-name="Trazado 880642" d="M328.6,114.365l-6.442-.381.032-.541,5.66.334-2.839-9.1.518-.161Z" transform="translate(-147.592 -47.883)" fill="#25292b"/>
        <path id="Trazado_880643" data-name="Trazado 880643" d="M277.9,113.543a3.854,3.854,0,0,1-3.12-6.137,2.806,2.806,0,0,1,1.785-1.173,2.014,2.014,0,0,1,1.422.3,6.774,6.774,0,0,0-.391-1.858,3.4,3.4,0,0,0-1.6-1.885,1.609,1.609,0,0,0-1.292-.123,2.551,2.551,0,0,0-1.122,1.392l-.489-.235a3.007,3.007,0,0,1,1.407-1.66,2.145,2.145,0,0,1,1.735.139,3.943,3.943,0,0,1,1.863,2.178,8.489,8.489,0,0,1,.467,2.769l.04,1.165-.549-1.028a1.369,1.369,0,0,0-1.411-.622,2.3,2.3,0,0,0-1.433.958,3.313,3.313,0,0,0,2.9,5.267l.038.541c-.085.006-.17.009-.255.009" transform="translate(-125.114 -46.749)" fill="#25292b"/>
        <path id="Trazado_880644" data-name="Trazado 880644" d="M312.592,145.372a7.351,7.351,0,0,1-3.222-.83,19.058,19.058,0,0,1-3.405-2.369l.341-.42a18.674,18.674,0,0,0,3.306,2.3,6.308,6.308,0,0,0,3.795.7,8.352,8.352,0,0,0,3.518-1.79l.325.434a9.045,9.045,0,0,1-3.751,1.89,5.3,5.3,0,0,1-.907.076" transform="translate(-140.173 -64.942)" fill="#25292b"/>
        <path id="Trazado_880645" data-name="Trazado 880645" d="M317.13,126.925a7.008,7.008,0,0,1-5.483-4.526l.512-.178a6.454,6.454,0,0,0,5.05,4.168Z" transform="translate(-142.776 -55.994)" fill="#25292b"/>
        <rect id="Rectángulo_405566" data-name="Rectángulo 405566" width="51.316" height="4.921" transform="translate(138.094 163.527)" fill="#95bfce"/>
        <path id="Trazado_880646" data-name="Trazado 880646" d="M348.55,273.678H275.2l10.837-43.985h73.353Z" transform="translate(-126.077 -105.23)" fill="#95bfce"/>
        <rect id="Rectángulo_405567" data-name="Rectángulo 405567" width="85.44" height="0.542" transform="translate(138.094 163.257)" fill="#25292b"/>
        <path id="Trazado_880647" data-name="Trazado 880647" d="M402.64,359.882a13.789,13.789,0,0,1-10.22,5.942,13.936,13.936,0,0,1-1.749.031l-38.8-1.7-4.717-4.026,2.657-14.088,5.373-.446,32.972-7.2a13.779,13.779,0,0,1,13.408,4.5l.178.206a13.787,13.787,0,0,1,.9,16.773" transform="translate(-159.041 -154.888)" fill="#366985"/>
        <path id="Trazado_880648" data-name="Trazado 880648" d="M429.92,366.024l-.368-.4a18.289,18.289,0,0,0,5.355-8.813,14.976,14.976,0,0,0-.986-10.161,12.654,12.654,0,0,0-7.692-6.53l.147-.522a13.209,13.209,0,0,1,8.031,6.811,15.53,15.53,0,0,1,1.026,10.533,18.838,18.838,0,0,1-5.513,9.08" transform="translate(-195.27 -155.582)" fill="#f2e9da"/>
        <path id="Trazado_880649" data-name="Trazado 880649" d="M359.487,369.283l-.542-.016A115.438,115.438,0,0,1,360.1,356.08l.536.078a114.739,114.739,0,0,0-1.152,13.125" transform="translate(-164.445 -163.132)" fill="#25292b"/>
        <path id="Trazado_880650" data-name="Trazado 880650" d="M378.6,368.455a24.951,24.951,0,0,1,.125-12.569l.523.141a24.4,24.4,0,0,0-.121,12.3Z" transform="translate(-173.11 -163.044)" fill="#f2e9da"/>
        <path id="Trazado_880651" data-name="Trazado 880651" d="M385.4,368.417a21.124,21.124,0,0,1,.429-11.973l.513.174a20.578,20.578,0,0,0-.418,11.663Z" transform="translate(-176.258 -163.299)" fill="#f2e9da"/>
        <path id="Trazado_880652" data-name="Trazado 880652" d="M391.518,368.221a19.683,19.683,0,0,1,1.2-11.71l.5.215a19.133,19.133,0,0,0-1.165,11.386Z" transform="translate(-179.184 -163.33)" fill="#f2e9da"/>
        <path id="Trazado_880653" data-name="Trazado 880653" d="M415.159,366.956a16.241,16.241,0,0,1,.235-20.095l.422.34a15.7,15.7,0,0,0-.227,19.425Z" transform="translate(-188.657 -158.909)" fill="#25292b"/>
        <path id="Trazado_880654" data-name="Trazado 880654" d="M261.387,314.661l-8.151,26.327-72.109-18.877a19.164,19.164,0,1,1,12.322-36.189Z" transform="translate(-76.422 -130.293)" fill="#25292b"/>
        <path id="Trazado_880655" data-name="Trazado 880655" d="M285.336,321.986,293.144,344l85.029-34.1a19.164,19.164,0,1,0-18.115-33.665Z" transform="translate(-130.722 -125.181)" fill="#25292b"/>
        <rect id="Rectángulo_405568" data-name="Rectángulo 405568" width="58.03" height="0.542" transform="translate(156.171 196.455) rotate(-31.799)" fill="#f2e9da"/>
        <rect id="Rectángulo_405569" data-name="Rectángulo 405569" width="0.542" height="30.116" transform="translate(152.141 170.778) rotate(-66.725)" fill="#f2e9da"/>
        <path id="Trazado_880656" data-name="Trazado 880656" d="M197.854,386.788a13.732,13.732,0,0,0,12.79,3.92l37.995-8.065,3.989-4.748-4.942-13.458-5.373.445-33.707-1.668a13.78,13.78,0,0,0-12.485,6.647l-.141.233a13.787,13.787,0,0,0,1.874,16.693" transform="translate(-88.876 -166.394)" fill="#366985"/>
        <path id="Trazado_880657" data-name="Trazado 880657" d="M212.077,391.4a18.833,18.833,0,0,1-6.933-8.047,15.532,15.532,0,0,1-.723-10.559,13.208,13.208,0,0,1,6.8-8.04l.231.49a12.655,12.655,0,0,0-6.512,7.708,14.976,14.976,0,0,0,.7,10.184,18.28,18.28,0,0,0,6.734,7.81Z" transform="translate(-93.374 -167.106)" fill="#f2e9da"/>
        <path id="Trazado_880658" data-name="Trazado 880658" d="M287.067,383.152a114.693,114.693,0,0,0-3.3-12.756l.516-.166a115.331,115.331,0,0,1,3.314,12.817Z" transform="translate(-130.004 -169.615)" fill="#25292b"/>
        <path id="Trazado_880659" data-name="Trazado 880659" d="M279.668,381.3a3.393,3.393,0,0,1-2.038-.781c-1.335-1.071-2.157-2.816-2.513-5.334-.08-.569-.138-1.143-.2-1.717a17.248,17.248,0,0,0-.717-3.983l.138-.048c0-.018-.006-.036-.009-.055l-.2-.161.145-.18c-.623-3.855-1.214-7.828-.674-11.787a3.778,3.778,0,0,1,1.518-2.934,2.628,2.628,0,0,1,2.9.4,4.511,4.511,0,0,1,1.4,2.55,10.413,10.413,0,0,1-1.03,6.7,28.314,28.314,0,0,1-3.538,5.217c.009.055.018.111.027.166a12.041,12.041,0,0,1,6.8,8.217c.157.732.391,2.526-.836,3.371a2.042,2.042,0,0,1-1.176.353m-4.746-11.322a21.188,21.188,0,0,1,.538,3.437c.057.567.114,1.134.193,1.695.336,2.375,1.094,4.007,2.316,4.987a2.274,2.274,0,0,0,2.567.4c.957-.658.748-2.185.613-2.81a11.475,11.475,0,0,0-6.227-7.713m1.294-15.389a1.7,1.7,0,0,0-.831.206,3.317,3.317,0,0,0-1.245,2.534,38.116,38.116,0,0,0,.594,11.142,26.1,26.1,0,0,0,3.168-4.732,9.888,9.888,0,0,0,.988-6.347,3.992,3.992,0,0,0-1.22-2.254,2.3,2.3,0,0,0-1.454-.549" transform="translate(-125.25 -162.2)" fill="#f2e9da"/>
        <path id="Trazado_880660" data-name="Trazado 880660" d="M268.337,385.443l-.54-.043a24.4,24.4,0,0,0-2.146-12.107l.493-.226a24.954,24.954,0,0,1,2.193,12.377" transform="translate(-121.704 -170.914)" fill="#f2e9da"/>
        <path id="Trazado_880661" data-name="Trazado 880661" d="M261.456,386.557l-.54-.049a20.572,20.572,0,0,0-2.334-11.433l.477-.256a21.12,21.12,0,0,1,2.4,11.738" transform="translate(-118.465 -171.717)" fill="#f2e9da"/>
        <path id="Trazado_880662" data-name="Trazado 880662" d="M254.983,387.442l-.541-.021a19.135,19.135,0,0,0-3.025-11.038l.455-.294a19.677,19.677,0,0,1,3.111,11.353" transform="translate(-115.183 -172.299)" fill="#f2e9da"/>
        <path id="Trazado_880663" data-name="Trazado 880663" d="M229.868,390.367l-.478-.255a15.7,15.7,0,0,0-3.424-19.121l.36-.405a16.241,16.241,0,0,1,3.542,19.782" transform="translate(-103.523 -169.778)" fill="#25292b"/>
        <path id="Trazado_880664" data-name="Trazado 880664" d="M495.223,131.8H427.714V50.095h67.509Zm-66.968-.542h66.426V50.637H428.256Z" transform="translate(-195.95 -22.95)" fill="#25292b"/>
        <rect id="Rectángulo_405570" data-name="Rectángulo 405570" width="63.267" height="8.812" transform="translate(233.885 29.073)" fill="#366985"/>
        <path id="Trazado_880665" data-name="Trazado 880665" d="M523.989,62.247a.377.377,0,0,1-.236-.083l-3.293-2.631a.379.379,0,0,1,0-.592l3.251-2.6a.379.379,0,1,1,.473.593l-2.88,2.3,2.922,2.334a.379.379,0,0,1-.237.675" transform="translate(-238.375 -25.775)" fill="#f2e9da"/>
        <path id="Trazado_880666" data-name="Trazado 880666" d="M536.08,62.247a.379.379,0,0,1-.237-.675l2.922-2.334-2.88-2.3a.379.379,0,0,1,.473-.593l3.251,2.6a.379.379,0,0,1,0,.592l-3.294,2.631a.377.377,0,0,1-.236.083" transform="translate(-245.423 -25.775)" fill="#f2e9da"/>
        <path id="Trazado_880667" data-name="Trazado 880667" d="M530.019,62.351a.38.38,0,0,1-.413-.487l2.038-6.625a.379.379,0,0,1,.725.223l-2.038,6.625a.38.38,0,0,1-.312.264" transform="translate(-242.623 -25.184)" fill="#f2e9da"/>
        <rect id="Rectángulo_405571" data-name="Rectángulo 405571" width="34.011" height="2.787" transform="translate(233.886 43.985)" fill="#95bfce"/>
        <rect id="Rectángulo_405572" data-name="Rectángulo 405572" width="16.553" height="2.787" transform="translate(269.44 43.985)" fill="#366985"/>
        <rect id="Rectángulo_405573" data-name="Rectángulo 405573" width="9.458" height="2.787" transform="translate(287.694 43.985)" fill="#25292b"/>
        <path id="Trazado_880668" data-name="Trazado 880668" d="M528.952,95.637H505.778V92.85h23.173" transform="translate(-231.714 -42.538)" fill="#95bfce"/>
        <rect id="Rectángulo_405574" data-name="Rectángulo 405574" width="16.553" height="2.787" transform="translate(255.967 50.313)" fill="#366985"/>
        <path id="Trazado_880669" data-name="Trazado 880669" d="M431.788,92.85h20.295v2.787H431.788" transform="translate(-197.817 -42.538)" fill="#25292b"/>
        <rect id="Rectángulo_405575" data-name="Rectángulo 405575" width="12.336" height="2.787" transform="translate(233.971 57.166)" fill="#366985"/>
        <rect id="Rectángulo_405576" data-name="Rectángulo 405576" width="34.435" height="2.787" transform="translate(247.852 57.166)" fill="#95bfce"/>
        <rect id="Rectángulo_405577" data-name="Rectángulo 405577" width="13.251" height="2.787" transform="translate(283.987 57.166)" fill="#25292b"/>
        <path id="Trazado_880670" data-name="Trazado 880670" d="M540.105,119.961H529.937v-2.787h10.169" transform="translate(-242.782 -53.682)" fill="#95bfce"/>
        <rect id="Rectángulo_405578" data-name="Rectángulo 405578" width="29.558" height="2.787" transform="translate(256.052 63.493)" fill="#366985"/>
        <path id="Trazado_880671" data-name="Trazado 880671" d="M431.946,117.175h20.3v2.787h-20.3" transform="translate(-197.889 -53.682)" fill="#25292b"/>
        <rect id="Rectángulo_405579" data-name="Rectángulo 405579" width="34.011" height="2.787" transform="translate(234.057 74.091)" fill="#95bfce"/>
        <rect id="Rectángulo_405580" data-name="Rectángulo 405580" width="16.553" height="2.787" transform="translate(269.612 74.091)" fill="#366985"/>
        <rect id="Rectángulo_405581" data-name="Rectángulo 405581" width="9.458" height="2.787" transform="translate(287.866 74.091)" fill="#25292b"/>
        <path id="Trazado_880672" data-name="Trazado 880672" d="M529.269,151.2H506.1V148.41h23.173" transform="translate(-231.859 -67.992)" fill="#95bfce"/>
        <rect id="Rectángulo_405582" data-name="Rectángulo 405582" width="16.553" height="2.787" transform="translate(256.138 80.418)" fill="#366985"/>
        <path id="Trazado_880673" data-name="Trazado 880673" d="M432.1,148.41h20.3V151.2H432.1" transform="translate(-197.962 -67.992)" fill="#25292b"/>
        <rect id="Rectángulo_405583" data-name="Rectángulo 405583" width="12.336" height="2.787" transform="translate(234.143 87.271)" fill="#366985"/>
        <rect id="Rectángulo_405584" data-name="Rectángulo 405584" width="34.435" height="2.787" transform="translate(248.023 87.271)" fill="#95bfce"/>
        <rect id="Rectángulo_405585" data-name="Rectángulo 405585" width="13.251" height="2.787" transform="translate(284.158 87.271)" fill="#25292b"/>
        <path id="Trazado_880674" data-name="Trazado 880674" d="M540.422,175.521H530.254v-2.787h10.169" transform="translate(-242.927 -79.135)" fill="#95bfce"/>
        <rect id="Rectángulo_405586" data-name="Rectángulo 405586" width="29.558" height="2.787" transform="translate(256.224 93.599)" fill="#366985"/>
        <path id="Trazado_880675" data-name="Trazado 880675" d="M432.263,172.734h20.3v2.787h-20.3" transform="translate(-198.034 -79.135)" fill="#25292b"/>
        <path id="Trazado_880676" data-name="Trazado 880676" d="M161.26,87.318H93.751V5.608H161.26Zm-66.968-.542h66.426V6.15H94.293Z" transform="translate(-42.951 -2.569)" fill="#25292b"/>
        <rect id="Rectángulo_405587" data-name="Rectángulo 405587" width="63.267" height="8.812" transform="translate(52.922 4.967)" fill="#366985"/>
        <path id="Trazado_880677" data-name="Trazado 880677" d="M190.026,17.76a.377.377,0,0,1-.236-.082L186.5,15.046a.379.379,0,0,1,0-.592l3.251-2.6a.379.379,0,1,1,.473.593l-2.88,2.3,2.922,2.334a.379.379,0,0,1-.237.675" transform="translate(-85.375 -5.394)" fill="#f2e9da"/>
        <path id="Trazado_880678" data-name="Trazado 880678" d="M202.118,17.76a.379.379,0,0,1-.237-.675l2.922-2.334-2.88-2.3a.379.379,0,1,1,.473-.593l3.251,2.6a.379.379,0,0,1,0,.592l-3.293,2.631a.377.377,0,0,1-.236.082" transform="translate(-92.424 -5.394)" fill="#f2e9da"/>
        <path id="Trazado_880679" data-name="Trazado 880679" d="M196.056,17.864a.38.38,0,0,1-.413-.487l2.038-6.625a.379.379,0,0,1,.725.223L196.368,17.6a.38.38,0,0,1-.312.264" transform="translate(-89.623 -4.803)" fill="#f2e9da"/>
        <rect id="Rectángulo_405588" data-name="Rectángulo 405588" width="34.011" height="2.787" transform="translate(52.922 19.879)" fill="#95bfce"/>
        <rect id="Rectángulo_405589" data-name="Rectángulo 405589" width="16.553" height="2.787" transform="translate(88.477 19.879)" fill="#366985"/>
        <rect id="Rectángulo_405590" data-name="Rectángulo 405590" width="9.458" height="2.787" transform="translate(106.731 19.879)" fill="#f2e9da"/>
        <path id="Trazado_880680" data-name="Trazado 880680" d="M194.989,51.15H171.816V48.363h23.173" transform="translate(-78.715 -22.157)" fill="#95bfce"/>
        <rect id="Rectángulo_405591" data-name="Rectángulo 405591" width="16.553" height="2.787" transform="translate(75.003 26.206)" fill="#366985"/>
        <path id="Trazado_880681" data-name="Trazado 880681" d="M97.825,48.363h20.3V51.15h-20.3" transform="translate(-44.817 -22.157)" fill="#f2e9da"/>
        <rect id="Rectángulo_405592" data-name="Rectángulo 405592" width="12.336" height="2.787" transform="translate(53.008 33.06)" fill="#366985"/>
        <rect id="Rectángulo_405593" data-name="Rectángulo 405593" width="34.435" height="2.787" transform="translate(66.888 33.06)" fill="#95bfce"/>
        <rect id="Rectángulo_405594" data-name="Rectángulo 405594" width="13.251" height="2.787" transform="translate(103.024 33.06)" fill="#f2e9da"/>
        <path id="Trazado_880682" data-name="Trazado 880682" d="M206.143,75.474H195.974V72.687h10.169" transform="translate(-89.782 -33.301)" fill="#95bfce"/>
        <rect id="Rectángulo_405595" data-name="Rectángulo 405595" width="29.558" height="2.787" transform="translate(75.089 39.387)" fill="#366985"/>
        <path id="Trazado_880683" data-name="Trazado 880683" d="M97.983,72.687h20.3v2.787h-20.3" transform="translate(-44.889 -33.301)" fill="#f2e9da"/>
        <rect id="Rectángulo_405596" data-name="Rectángulo 405596" width="34.011" height="2.787" transform="translate(53.094 49.985)" fill="#95bfce"/>
        <rect id="Rectángulo_405597" data-name="Rectángulo 405597" width="16.553" height="2.787" transform="translate(88.649 49.985)" fill="#366985"/>
        <rect id="Rectángulo_405598" data-name="Rectángulo 405598" width="9.458" height="2.787" transform="translate(106.903 49.985)" fill="#f2e9da"/>
        <path id="Trazado_880684" data-name="Trazado 880684" d="M195.306,106.71H172.132v-2.787h23.173" transform="translate(-78.86 -47.611)" fill="#95bfce"/>
        <rect id="Rectángulo_405599" data-name="Rectángulo 405599" width="16.553" height="2.787" transform="translate(75.175 56.312)" fill="#366985"/>
        <path id="Trazado_880685" data-name="Trazado 880685" d="M98.142,103.923h20.3v2.787h-20.3" transform="translate(-44.962 -47.611)" fill="#f2e9da"/>
        <rect id="Rectángulo_405600" data-name="Rectángulo 405600" width="12.336" height="2.787" transform="translate(53.18 63.165)" fill="#366985"/>
        <rect id="Rectángulo_405601" data-name="Rectángulo 405601" width="34.435" height="2.787" transform="translate(67.06 63.165)" fill="#95bfce"/>
        <rect id="Rectángulo_405602" data-name="Rectángulo 405602" width="13.251" height="2.787" transform="translate(103.195 63.165)" fill="#f2e9da"/>
        <path id="Trazado_880686" data-name="Trazado 880686" d="M206.46,131.033H196.291v-2.787H206.46" transform="translate(-89.928 -58.754)" fill="#95bfce"/>
        <rect id="Rectángulo_405603" data-name="Rectángulo 405603" width="29.558" height="2.787" transform="translate(75.261 69.493)" fill="#366985"/>
        <path id="Trazado_880687" data-name="Trazado 880687" d="M98.3,128.247h20.3v2.787H98.3" transform="translate(-45.035 -58.754)" fill="#f2e9da"/>
      </g>
    </g>
  </g>
</svg>
