<svg xmlns="http://www.w3.org/2000/svg" width="85" height="85" viewBox="0 0 85 85">
  <g id="Grupo_1102575" data-name="Grupo 1102575" transform="translate(-180.051 -2490)">
    <circle id="Elipse_11541" data-name="Elipse 11541" cx="42.5" cy="42.5" r="42.5" transform="translate(180.051 2490)" fill="#13de61"/>
    <g id="Layer_2" data-name="Layer 2" transform="translate(193.051 2502)">
      <g id="Layer_1" data-name="Layer 1">
        <g id="teamwork">
          <path id="Trazado_881174" data-name="Trazado 881174" d="M37.52,37.25a7.77,7.77,0,0,0-7.77-7.78c-8.71.15-10.71,12-2.7,15.07v3.19h5.4V44.54a7.77,7.77,0,0,0,5.07-7.29Z" fill="#ffbc41"/>
          <path id="Trazado_881175" data-name="Trazado 881175" d="M27.05,49.93h5.4c-.92,3.81-4.45,3.36-5.4,0Z" fill="#a7a7a8"/>
          <path id="Trazado_881176" data-name="Trazado 881176" d="M29.55,8.25a3.46,3.46,0,0,1-3.47-3.46,3.47,3.47,0,1,1,6.93,0A3.46,3.46,0,0,1,29.55,8.25Z" fill="#ffdc7c"/>
          <path id="Trazado_881177" data-name="Trazado 881177" d="M31.8,10.66l-2.25,2.25-2.26-2.25a4.58,4.58,0,0,0-4.56,4.56v3.64H36.36V15.22a4.56,4.56,0,0,0-4.56-4.56Z" fill="#2edef4"/>
          <path id="Trazado_881178" data-name="Trazado 881178" d="M32.58,10.73a4.09,4.09,0,0,1,1.75,3.36v3.26H22.73v1.51H36.36V15.22a4.56,4.56,0,0,0-3.78-4.49Z" fill="#24b2d6"/>
          <path id="Trazado_881179" data-name="Trazado 881179" d="M7.6,38.44A3.572,3.572,0,1,1,11.06,35,3.46,3.46,0,0,1,7.6,38.44Z" fill="#ffdc7c"/>
          <path id="Trazado_881180" data-name="Trazado 881180" d="M9.85,40.85,7.6,43.1,5.35,40.85A4.59,4.59,0,0,0,.78,45.41v3.64H14.41V45.41A4.56,4.56,0,0,0,9.85,40.85Z" fill="#ad71d8"/>
          <path id="Trazado_881181" data-name="Trazado 881181" d="M10.63,40.92a4.08,4.08,0,0,1,1.76,3.36v3.26H.78v1.51H14.41V45.41a4.56,4.56,0,0,0-3.78-4.49Z" fill="#9358c6"/>
          <path id="Trazado_881182" data-name="Trazado 881182" d="M53.75,40.85,51.49,43.1l-2.25-2.25a4.56,4.56,0,0,0-4.56,4.56v3.64H58.31V45.41A4.56,4.56,0,0,0,53.75,40.85Z" fill="#ff651d"/>
          <path id="Trazado_881183" data-name="Trazado 881183" d="M54.53,40.92a4.07,4.07,0,0,1,1.75,3.36v3.26H44.68v1.51H58.31V45.41a4.56,4.56,0,0,0-3.78-4.49Z" fill="#ff4a22"/>
          <path id="Trazado_881184" data-name="Trazado 881184" d="M50.59,32.64s1.32,3,4.24,1.89c.05,2.13-.76,4.88-3.34,4.83-2.23-.52-5.7-4.13-.9-6.72" fill="#ffdc7c"/>
          <g id="Grupo_1102574" data-name="Grupo 1102574">
            <path id="Trazado_881185" data-name="Trazado 881185" d="M47.22,33.91s1.14-3.66,4.28-3.46a4.27,4.27,0,0,1,4.06,5.23c-1-1.15-.94-1.25-.94-1.25s-3.69.43-4-1.79C49.22,33.24,47.13,35.15,47.22,33.91Z" fill="#022432"/>
            <path id="Trazado_881186" data-name="Trazado 881186" d="M29.55,60.33a23.27,23.27,0,0,1-18-8.48.79.79,0,0,1,1.21-1c8.51,10.68,25.77,10.45,34-.48a.8.8,0,1,1,1.24,1,23.2,23.2,0,0,1-18.45,8.96Z" fill="#022432"/>
            <path id="Trazado_881187" data-name="Trazado 881187" d="M30.21,9.13H28.88A3.58,3.58,0,0,1,25.3,5.55v-2A3.58,3.58,0,0,1,28.88,0h1.33a3.58,3.58,0,0,1,3.58,3.58v2a3.58,3.58,0,0,1-3.58,3.55ZM28.88,1.57a2,2,0,0,0-2,2v2a2,2,0,0,0,2,2h1.33a2,2,0,0,0,2-2v-2a2,2,0,0,0-2-2Z" fill="#022432"/>
            <path id="Trazado_881188" data-name="Trazado 881188" d="M36.36,19.64H22.73a.78.78,0,0,1-.78-.78V15.22a5.35,5.35,0,0,1,5.34-5.34.79.79,0,0,1,.56.23l1.7,1.69,1.69-1.69a.79.79,0,0,1,.56-.23,5.34,5.34,0,0,1,5.34,5.34v3.64a.78.78,0,0,1-.78.78ZM23.51,18.08H35.58V15.22a3.77,3.77,0,0,0-3.47-3.76c-3.05,3-2.09,3-5.13,0a3.77,3.77,0,0,0-3.47,3.76Z" fill="#022432"/>
            <path id="Trazado_881189" data-name="Trazado 881189" d="M8.27,39.24H6.93a3.58,3.58,0,0,1-3.58-3.58v-2a3.59,3.59,0,0,1,3.58-3.58H8.27a3.59,3.59,0,0,1,3.58,3.58v2a3.58,3.58,0,0,1-3.58,3.58ZM6.93,31.68a2,2,0,0,0-2,2v2a2,2,0,0,0,2,2H8.27a2,2,0,0,0,2-2v-2a2,2,0,0,0-2-2Z" fill="#022432"/>
            <path id="Trazado_881190" data-name="Trazado 881190" d="M14.41,49.75H.78A.78.78,0,0,1,0,49V45.33A5.35,5.35,0,0,1,5.35,40a.78.78,0,0,1,.55.23l1.7,1.69,1.7-1.69A.75.75,0,0,1,9.85,40a5.35,5.35,0,0,1,5.35,5.34V49a.78.78,0,0,1-.79.75ZM1.57,48.19H13.63V45.33a3.78,3.78,0,0,0-3.47-3.76c-3,3-2.08,3-5.13,0a3.78,3.78,0,0,0-3.46,3.76Z" fill="#022432"/>
            <path id="Trazado_881191" data-name="Trazado 881191" d="M58.31,49.71H44.68a.79.79,0,0,1-.78-.79V45.28a5.35,5.35,0,0,1,5.34-5.34.79.79,0,0,1,.56.23l1.69,1.7,1.7-1.7a.79.79,0,0,1,.56-.23,5.35,5.35,0,0,1,5.34,5.34v3.64a.79.79,0,0,1-.78.79ZM45.46,48.14H57.53V45.28a3.78,3.78,0,0,0-3.47-3.76c-3.05,3-2.09,3-5.13,0a3.78,3.78,0,0,0-3.47,3.76Z" fill="#022432"/>
            <path id="Trazado_881192" data-name="Trazado 881192" d="M50.15,28.66a.8.8,0,0,1-.72-.47A21.88,21.88,0,0,0,39.24,17.54a.783.783,0,0,1,.7-1.4A23.42,23.42,0,0,1,50.86,27.55a.79.79,0,0,1-.71,1.11Z" fill="#022432"/>
            <path id="Trazado_881193" data-name="Trazado 881193" d="M8.7,29.23A.79.79,0,0,1,8,28.15a23.27,23.27,0,0,1,11.18-12,.783.783,0,1,1,.7,1.4A21.85,21.85,0,0,0,9.42,28.74a.76.76,0,0,1-.72.49Z" fill="#022432"/>
            <path id="Trazado_881194" data-name="Trazado 881194" d="M32.45,48.51h-5.4a.78.78,0,0,1-.79-.78V45.07a8.56,8.56,0,1,1,7,0v2.66a.78.78,0,0,1-.81.78Zm-4.62-1.57h3.83v-2.4a.79.79,0,0,1,.52-.73c7.23-2.79,5.34-13.45-2.43-13.55C22,30.36,20.09,41,27.32,43.81a.78.78,0,0,1,.51.73Z" fill="#022432"/>
            <path id="Trazado_881195" data-name="Trazado 881195" d="M29.75,53.41a3.48,3.48,0,0,1-3.48-3.48.82.82,0,0,1,.78-1h5.4a.82.82,0,0,1,.78,1,3.48,3.48,0,0,1-3.48,3.48Zm-1.83-2.9a1.92,1.92,0,0,0,3.65,0Z" fill="#022432"/>
            <path id="Trazado_881196" data-name="Trazado 881196" d="M29.55,27a.78.78,0,0,1-.79-.78V25a.79.79,0,1,1,1.57,0v1.25a.78.78,0,0,1-.78.75Z" fill="#022432"/>
            <path id="Trazado_881197" data-name="Trazado 881197" d="M24.46,28.48c-.68,0-1-1-1.3-1.47a.77.77,0,0,1,.29-1.07.78.78,0,0,1,1.07.28l.62,1.09a.78.78,0,0,1-.68,1.17Z" fill="#022432"/>
            <path id="Trazado_881198" data-name="Trazado 881198" d="M20.8,32.29c-.31.05-1.21-.61-1.48-.72a.79.79,0,0,1,.79-1.36l1.08.62a.79.79,0,0,1-.39,1.46Z" fill="#022432"/>
            <path id="Trazado_881199" data-name="Trazado 881199" d="M38.5,32a.79.79,0,0,1-.39-1.47l1.08-.62A.78.78,0,0,1,40,31.22c-.3.12-1.19.78-1.5.78Z" fill="#022432"/>
            <path id="Trazado_881200" data-name="Trazado 881200" d="M34.68,28.28A.8.8,0,0,1,34,27.1l.63-1.1a.79.79,0,0,1,1.36.79C35.66,27.26,35.36,28.32,34.68,28.28Z" fill="#022432"/>
            <path id="Trazado_881201" data-name="Trazado 881201" d="M51.49,40a4.13,4.13,0,0,1-1.6-7.91.782.782,0,1,1,.61,1.44,2.55,2.55,0,1,0,3.55,2.35c0-.64-.43-1.41.42-1.69s1.15,1,1.14,1.69A4.13,4.13,0,0,1,51.49,40Z" fill="#022432"/>
            <path id="Trazado_881202" data-name="Trazado 881202" d="M54.4,38.27a.79.79,0,0,1-.68-1.17,2.6,2.6,0,0,0,.3-1.64,3.92,3.92,0,0,1-3.81-1.81,2.57,2.57,0,0,0-.94,3.45.78.78,0,0,1-.19,1c-1.44.91-2.78-2.65-2.65-3.75.14-6.28,9.1-6.86,10.08-.68a5.11,5.11,0,0,1-1.58,4.4.81.81,0,0,1-.53.2Zm-3.81-6.41a.77.77,0,0,1,.74.52,2.33,2.33,0,0,0,2.19,1.54c.48,0,1-.35,1.43-.07a3.5,3.5,0,0,0-6.86-.32A3.93,3.93,0,0,1,50.59,31.86Z" fill="#022432"/>
          </g>
        </g>
      </g>
    </g>
  </g>
</svg>
